<svg xmlns="http://www.w3.org/2000/svg" xmlns:xlink="http://www.w3.org/1999/xlink" width="295" height="352" viewBox="0 0 295 352">
  <defs>
    <clipPath id="clip-path">
      <rect id="Rectángulo_23157" data-name="Rectángulo 23157" width="85" height="85" transform="translate(915 2768)" fill="#fff" stroke="#707070" stroke-width="1"/>
    </clipPath>
  </defs>
  <g id="Grupo_82177" data-name="Grupo 82177" transform="translate(-653 -2681)">
    <rect id="Rectángulo_23141" data-name="Rectángulo 23141" width="295" height="349" rx="20" transform="translate(653 2684)" fill="#f6f6f6"/>
    <path id="Rectángulo_23146" data-name="Rectángulo 23146" d="M20,0H275a20,20,0,0,1,20,20V51a0,0,0,0,1,0,0H0a0,0,0,0,1,0,0V20A20,20,0,0,1,20,0Z" transform="translate(653 2681)" fill="#00bab5"/>
    <path id="Trazado_183358" data-name="Trazado 183358" d="M81.949,19H79.312l-5.133-8.42V19H71.542V6.2h2.637l5.142,8.438V6.2h2.628Zm1.74-4.843a5.64,5.64,0,0,1,.545-2.522A3.989,3.989,0,0,1,85.8,9.921a4.577,4.577,0,0,1,2.377-.606,4.33,4.33,0,0,1,3.142,1.178,4.727,4.727,0,0,1,1.358,3.2l.018.65a4.97,4.97,0,0,1-1.222,3.511,4.735,4.735,0,0,1-6.561,0,5.058,5.058,0,0,1-1.226-3.586Zm2.54.18a3.555,3.555,0,0,0,.51,2.073,1.831,1.831,0,0,0,2.9.009,3.89,3.89,0,0,0,.519-2.267,3.519,3.519,0,0,0-.519-2.06,1.686,1.686,0,0,0-1.459-.731,1.658,1.658,0,0,0-1.441.726A3.955,3.955,0,0,0,86.229,14.338ZM101.434,9.49V19.519a3.4,3.4,0,0,1-.835,2.448,3.174,3.174,0,0,1-2.408.875,5.165,5.165,0,0,1-1.257-.149V20.679a4.768,4.768,0,0,0,.8.079q1.151,0,1.151-1.222V9.49ZM98.683,7.029a1.251,1.251,0,0,1,.382-.94,1.654,1.654,0,0,1,2.083,0,1.251,1.251,0,0,1,.382.94,1.247,1.247,0,0,1-.391.949,1.629,1.629,0,0,1-2.065,0A1.247,1.247,0,0,1,98.683,7.029Zm10.433,11a3.185,3.185,0,0,1-2.6,1.143,3,3,0,0,1-2.333-.879,3.752,3.752,0,0,1-.822-2.575V9.49h2.54v6.151q0,1.487,1.354,1.487a1.834,1.834,0,0,0,1.775-.9V9.49h2.549V19h-2.391Zm7.295-1.081h4.649V19h-7.893V17.453l4.474-5.915H113.3V9.49h7.62v1.5Zm5.871-2.777a5.573,5.573,0,0,1,1.042-3.524,3.375,3.375,0,0,1,2.808-1.336,2.96,2.96,0,0,1,2.435,1.072l.105-.9h2.3v9.193a4.064,4.064,0,0,1-.567,2.171,3.641,3.641,0,0,1-1.6,1.406,5.608,5.608,0,0,1-2.408.483,5.215,5.215,0,0,1-2.039-.417,3.619,3.619,0,0,1-1.5-1.077l1.125-1.547a2.975,2.975,0,0,0,2.3,1.063,2.178,2.178,0,0,0,1.573-.541,2.027,2.027,0,0,0,.563-1.534v-.51a2.938,2.938,0,0,1-2.312.993,3.366,3.366,0,0,1-2.773-1.34,5.572,5.572,0,0,1-1.059-3.555Zm2.54.189a3.47,3.47,0,0,0,.519,2.029,1.65,1.65,0,0,0,1.424.735,1.764,1.764,0,0,0,1.661-.871V12.251a1.76,1.76,0,0,0-1.644-.871,1.66,1.66,0,0,0-1.437.748A3.911,3.911,0,0,0,124.822,14.364ZM138.436,19a2.821,2.821,0,0,1-.255-.853,3.073,3.073,0,0,1-2.4,1.028,3.376,3.376,0,0,1-2.316-.809,2.6,2.6,0,0,1-.918-2.039,2.687,2.687,0,0,1,1.121-2.32,5.529,5.529,0,0,1,3.239-.817h1.169v-.545a1.567,1.567,0,0,0-.338-1.055,1.331,1.331,0,0,0-1.068-.4,1.513,1.513,0,0,0-1.006.308,1.045,1.045,0,0,0-.365.844h-2.54a2.551,2.551,0,0,1,.51-1.529,3.37,3.37,0,0,1,1.441-1.1,5.253,5.253,0,0,1,2.092-.4,4.15,4.15,0,0,1,2.791.883,3.09,3.09,0,0,1,1.033,2.483V16.8A4.546,4.546,0,0,0,141,18.851V19Zm-2.1-1.767a2.188,2.188,0,0,0,1.037-.25,1.645,1.645,0,0,0,.7-.672V14.676h-.949q-1.907,0-2.03,1.318l-.009.149a1.017,1.017,0,0,0,.334.782A1.3,1.3,0,0,0,136.335,17.233Z" transform="translate(695 2696)" fill="#fff"/>
    <path id="Trazado_183359" data-name="Trazado 183359" d="M19.9,11.93a7.053,7.053,0,0,1-2.809-1.363,2.6,2.6,0,0,1-.879-2,2.751,2.751,0,0,1,1.074-2.223,4.269,4.269,0,0,1,2.793-.879,4.66,4.66,0,0,1,2.09.453,3.436,3.436,0,0,1,1.422,1.25,3.2,3.2,0,0,1,.5,1.742H22.586a2.08,2.08,0,0,0-.656-1.627A2.669,2.669,0,0,0,20.078,6.7a2.732,2.732,0,0,0-1.73.489,1.632,1.632,0,0,0-.621,1.358,1.468,1.468,0,0,0,.59,1.178,5.785,5.785,0,0,0,2.008.88,9.316,9.316,0,0,1,2.219.88A3.367,3.367,0,0,1,23.73,12.6a2.861,2.861,0,0,1,.387,1.508,2.658,2.658,0,0,1-1.078,2.215,4.6,4.6,0,0,1-2.883.832,5.347,5.347,0,0,1-2.187-.449,3.681,3.681,0,0,1-1.566-1.23,3,3,0,0,1-.551-1.773h1.508a1.959,1.959,0,0,0,.762,1.629,3.207,3.207,0,0,0,2.035.6,2.948,2.948,0,0,0,1.82-.484,1.573,1.573,0,0,0,.633-1.32,1.545,1.545,0,0,0-.586-1.293A6.755,6.755,0,0,0,19.9,11.93Zm9.422,5.227a3.693,3.693,0,0,1-2.8-1.129,4.19,4.19,0,0,1-1.078-3.02v-.266a5.073,5.073,0,0,1,.48-2.246A3.748,3.748,0,0,1,27.27,8.949a3.378,3.378,0,0,1,1.871-.559A3.166,3.166,0,0,1,31.7,9.477a4.7,4.7,0,0,1,.914,3.109v.6H26.891a3,3,0,0,0,.73,2.02,2.3,2.3,0,0,0,1.777.77,2.517,2.517,0,0,0,1.3-.312,3.259,3.259,0,0,0,.93-.828l.883.688A3.55,3.55,0,0,1,29.32,17.156Zm-.18-7.578a1.928,1.928,0,0,0-1.469.637A3.1,3.1,0,0,0,26.938,12h4.234v-.109a2.753,2.753,0,0,0-.594-1.707A1.815,1.815,0,0,0,29.141,9.578Zm9.234.266a4.331,4.331,0,0,0-.711-.055A1.9,1.9,0,0,0,35.734,11v6H34.289V8.547H35.7l.023.977a2.251,2.251,0,0,1,2.016-1.133,1.477,1.477,0,0,1,.641.109Zm8.68,6.133a2.082,2.082,0,0,0,1.352-.469,1.649,1.649,0,0,0,.641-1.172h1.367a2.621,2.621,0,0,1-.5,1.383,3.293,3.293,0,0,1-1.23,1.047,3.55,3.55,0,0,1-1.629.391A3.482,3.482,0,0,1,44.309,16a4.59,4.59,0,0,1-1.02-3.152v-.242a5.089,5.089,0,0,1,.453-2.2,3.451,3.451,0,0,1,1.3-1.492,3.7,3.7,0,0,1,2-.531,3.39,3.39,0,0,1,2.363.852,3.043,3.043,0,0,1,1,2.211H49.047a1.992,1.992,0,0,0-.621-1.348,1.932,1.932,0,0,0-1.379-.527,2.023,2.023,0,0,0-1.707.793,3.724,3.724,0,0,0-.605,2.293v.273a3.65,3.65,0,0,0,.6,2.25A2.033,2.033,0,0,0,47.055,15.977ZM57.258,17a3.036,3.036,0,0,1-.2-.891,3.225,3.225,0,0,1-2.406,1.047,2.984,2.984,0,0,1-2.051-.707,2.287,2.287,0,0,1-.8-1.793,2.39,2.39,0,0,1,1-2.051,4.733,4.733,0,0,1,2.824-.73h1.406v-.664A1.623,1.623,0,0,0,56.578,10a1.821,1.821,0,0,0-1.336-.449,2.107,2.107,0,0,0-1.3.391,1.151,1.151,0,0,0-.523.945H51.969a2,2,0,0,1,.449-1.223,3.066,3.066,0,0,1,1.219-.934,4.1,4.1,0,0,1,1.691-.344,3.342,3.342,0,0,1,2.289.73,2.635,2.635,0,0,1,.859,2.012v3.891a4.757,4.757,0,0,0,.3,1.852V17Zm-2.4-1.1a2.54,2.54,0,0,0,1.289-.352,2.127,2.127,0,0,0,.883-.914V12.9H55.9q-2.656,0-2.656,1.555a1.316,1.316,0,0,0,.453,1.063A1.742,1.742,0,0,0,54.859,15.9Zm13.023-3.031A5.062,5.062,0,0,1,67,15.977a2.829,2.829,0,0,1-2.391,1.18,3.1,3.1,0,0,1-2.422-.977v4.07H60.742V8.547h1.32l.07.938a2.977,2.977,0,0,1,2.453-1.094A2.882,2.882,0,0,1,67,9.539a5.117,5.117,0,0,1,.887,3.2ZM66.438,12.7a3.735,3.735,0,0,0-.609-2.258,1.963,1.963,0,0,0-1.672-.828,2.125,2.125,0,0,0-1.969,1.164V14.82a2.129,2.129,0,0,0,1.984,1.156,1.954,1.954,0,0,0,1.652-.824A4.077,4.077,0,0,0,66.438,12.7Zm8.5,4.3a3.036,3.036,0,0,1-.2-.891,3.225,3.225,0,0,1-2.406,1.047,2.984,2.984,0,0,1-2.051-.707,2.288,2.288,0,0,1-.8-1.793,2.39,2.39,0,0,1,1-2.051,4.733,4.733,0,0,1,2.824-.73h1.406v-.664A1.623,1.623,0,0,0,74.258,10a1.821,1.821,0,0,0-1.336-.449,2.108,2.108,0,0,0-1.3.391,1.151,1.151,0,0,0-.523.945H69.648A2,2,0,0,1,70.1,9.668a3.066,3.066,0,0,1,1.219-.934,4.1,4.1,0,0,1,1.691-.344,3.342,3.342,0,0,1,2.289.73,2.635,2.635,0,0,1,.859,2.012v3.891a4.757,4.757,0,0,0,.3,1.852V17Zm-2.4-1.1a2.54,2.54,0,0,0,1.289-.352,2.127,2.127,0,0,0,.883-.914V12.9H73.578q-2.656,0-2.656,1.555a1.316,1.316,0,0,0,.453,1.063A1.742,1.742,0,0,0,72.539,15.9Zm7.242-.078h4.945V17H78.016V15.938l4.664-6.2H78.086v-1.2h6.406V9.57ZM89.961,12.7a4.952,4.952,0,0,1,.922-3.129,3.137,3.137,0,0,1,4.766-.168V5h1.445V17H95.766l-.07-.906a2.943,2.943,0,0,1-2.414,1.063,2.887,2.887,0,0,1-2.395-1.2,5.008,5.008,0,0,1-.926-3.141Zm1.445.164A3.749,3.749,0,0,0,92,15.117a1.92,1.92,0,0,0,1.641.813A2.108,2.108,0,0,0,95.648,14.7V10.813a2.125,2.125,0,0,0-1.992-1.2,1.929,1.929,0,0,0-1.656.82A4.128,4.128,0,0,0,91.406,12.867Zm11.438,4.289a3.693,3.693,0,0,1-2.8-1.129,4.19,4.19,0,0,1-1.078-3.02v-.266a5.073,5.073,0,0,1,.48-2.246,3.748,3.748,0,0,1,1.344-1.547,3.378,3.378,0,0,1,1.871-.559,3.166,3.166,0,0,1,2.563,1.086,4.7,4.7,0,0,1,.914,3.109v.6h-5.727a3,3,0,0,0,.73,2.02,2.3,2.3,0,0,0,1.777.77,2.517,2.517,0,0,0,1.3-.312,3.259,3.259,0,0,0,.93-.828l.883.688A3.55,3.55,0,0,1,102.844,17.156Zm-.18-7.578a1.928,1.928,0,0,0-1.469.637A3.1,3.1,0,0,0,100.461,12H104.7v-.109a2.753,2.753,0,0,0-.594-1.707A1.815,1.815,0,0,0,102.664,9.578Zm8.758,3.125a4.952,4.952,0,0,1,.922-3.129,3.137,3.137,0,0,1,4.766-.168V5h1.445V17h-1.328l-.07-.906a2.943,2.943,0,0,1-2.414,1.063,2.887,2.887,0,0,1-2.395-1.2,5.008,5.008,0,0,1-.926-3.141Zm1.445.164a3.749,3.749,0,0,0,.594,2.25,1.92,1.92,0,0,0,1.641.813,2.108,2.108,0,0,0,2.008-1.234V10.813a2.125,2.125,0,0,0-1.992-1.2,1.929,1.929,0,0,0-1.656.82A4.128,4.128,0,0,0,112.867,12.867Zm9.5,4.133h-1.445V8.547h1.445ZM120.8,6.3a.863.863,0,0,1,.215-.594.807.807,0,0,1,.637-.242.819.819,0,0,1,.641.242.854.854,0,0,1,.219.594.826.826,0,0,1-.219.586.834.834,0,0,1-.641.234.821.821,0,0,1-.637-.234A.834.834,0,0,1,120.8,6.3Zm8.8,8.453a1.064,1.064,0,0,0-.441-.91,4.249,4.249,0,0,0-1.539-.559,7.277,7.277,0,0,1-1.742-.562,2.479,2.479,0,0,1-.953-.781,1.869,1.869,0,0,1-.309-1.078,2.193,2.193,0,0,1,.879-1.758,3.432,3.432,0,0,1,2.246-.719,3.532,3.532,0,0,1,2.332.742,2.357,2.357,0,0,1,.895,1.9h-1.453a1.3,1.3,0,0,0-.5-1.023,1.888,1.888,0,0,0-1.27-.43,1.976,1.976,0,0,0-1.234.344,1.082,1.082,0,0,0-.445.9.877.877,0,0,0,.414.789,5.1,5.1,0,0,0,1.5.508,7.8,7.8,0,0,1,1.754.578,2.558,2.558,0,0,1,1,.809,1.988,1.988,0,0,1,.324,1.152,2.163,2.163,0,0,1-.906,1.816,3.8,3.8,0,0,1-2.352.684,4.257,4.257,0,0,1-1.8-.359,2.922,2.922,0,0,1-1.223-1,2.42,2.42,0,0,1-.441-1.395h1.445a1.5,1.5,0,0,0,.582,1.152,2.258,2.258,0,0,0,1.434.426,2.331,2.331,0,0,0,1.316-.332A1.02,1.02,0,0,0,129.6,14.758Zm6.719,1.219a2.082,2.082,0,0,0,1.352-.469,1.649,1.649,0,0,0,.641-1.172h1.367a2.621,2.621,0,0,1-.5,1.383,3.293,3.293,0,0,1-1.23,1.047,3.55,3.55,0,0,1-1.629.391A3.482,3.482,0,0,1,133.574,16a4.59,4.59,0,0,1-1.02-3.152v-.242a5.089,5.089,0,0,1,.453-2.2,3.451,3.451,0,0,1,1.3-1.492,3.7,3.7,0,0,1,2-.531,3.39,3.39,0,0,1,2.363.852,3.043,3.043,0,0,1,1,2.211h-1.367a1.992,1.992,0,0,0-.621-1.348,1.932,1.932,0,0,0-1.379-.527,2.023,2.023,0,0,0-1.707.793A3.724,3.724,0,0,0,134,12.664v.273a3.65,3.65,0,0,0,.6,2.25A2.033,2.033,0,0,0,136.32,15.977Zm10.2.188a3.07,3.07,0,0,1-2.477.992,2.628,2.628,0,0,1-2.059-.785,3.4,3.4,0,0,1-.715-2.324v-5.5h1.445v5.461q0,1.922,1.563,1.922a2.163,2.163,0,0,0,2.2-1.234V8.547h1.445V17h-1.375ZM152.086,6.5V8.547h1.578V9.664h-1.578v5.249a1.173,1.173,0,0,0,.211.763.888.888,0,0,0,.719.254,3.5,3.5,0,0,0,.688-.094V17a4.215,4.215,0,0,1-1.109.155,1.8,1.8,0,0,1-1.461-.586,2.517,2.517,0,0,1-.492-1.664V9.664H149.1V8.547h1.539V6.5ZM156.922,17h-1.445V8.547h1.445ZM155.359,6.3a.863.863,0,0,1,.215-.594.807.807,0,0,1,.637-.242.819.819,0,0,1,.641.242.854.854,0,0,1,.219.594.826.826,0,0,1-.219.586.834.834,0,0,1-.641.234.821.821,0,0,1-.637-.234A.834.834,0,0,1,155.359,6.3Zm7.961,3.539a4.331,4.331,0,0,0-.711-.055A1.9,1.9,0,0,0,160.68,11v6h-1.445V8.547h1.406l.023.977a2.251,2.251,0,0,1,2.016-1.133,1.477,1.477,0,0,1,.641.109ZM170.18,17h-1.445V8.547h1.445ZM168.617,6.3a.863.863,0,0,1,.215-.594.807.807,0,0,1,.637-.242.819.819,0,0,1,.641.242.854.854,0,0,1,.219.594.826.826,0,0,1-.219.586.834.834,0,0,1-.641.234.821.821,0,0,1-.637-.234A.834.834,0,0,1,168.617,6.3Zm3.523,6.4a4.952,4.952,0,0,1,.922-3.129,3.137,3.137,0,0,1,4.766-.168V5h1.445V17h-1.328l-.07-.906a2.943,2.943,0,0,1-2.414,1.063,2.887,2.887,0,0,1-2.395-1.2,5.008,5.008,0,0,1-.926-3.141Zm1.445.164a3.749,3.749,0,0,0,.594,2.25,1.919,1.919,0,0,0,1.641.813,2.108,2.108,0,0,0,2.008-1.234V10.813a2.125,2.125,0,0,0-1.992-1.2,1.929,1.929,0,0,0-1.656.82A4.128,4.128,0,0,0,173.586,12.867Zm11.438,4.289a3.693,3.693,0,0,1-2.8-1.129,4.19,4.19,0,0,1-1.078-3.02v-.266a5.073,5.073,0,0,1,.48-2.246,3.748,3.748,0,0,1,1.344-1.547,3.378,3.378,0,0,1,1.871-.559,3.166,3.166,0,0,1,2.563,1.086,4.7,4.7,0,0,1,.914,3.109v.6h-5.727a3,3,0,0,0,.73,2.02,2.3,2.3,0,0,0,1.777.77,2.517,2.517,0,0,0,1.3-.312,3.258,3.258,0,0,0,.93-.828l.883.688A3.55,3.55,0,0,1,185.023,17.156Zm-.18-7.578a1.928,1.928,0,0,0-1.469.637A3.1,3.1,0,0,0,182.641,12h4.234v-.109a2.753,2.753,0,0,0-.594-1.707A1.815,1.815,0,0,0,184.844,9.578ZM195.211,17a3.036,3.036,0,0,1-.2-.891,3.225,3.225,0,0,1-2.406,1.047,2.984,2.984,0,0,1-2.051-.707,2.287,2.287,0,0,1-.8-1.793,2.39,2.39,0,0,1,1-2.051,4.733,4.733,0,0,1,2.824-.73h1.406v-.664A1.623,1.623,0,0,0,194.531,10a1.821,1.821,0,0,0-1.336-.449,2.107,2.107,0,0,0-1.3.391,1.151,1.151,0,0,0-.523.945h-1.453a2,2,0,0,1,.449-1.223,3.066,3.066,0,0,1,1.219-.934,4.1,4.1,0,0,1,1.691-.344,3.342,3.342,0,0,1,2.289.73,2.635,2.635,0,0,1,.859,2.012v3.891a4.757,4.757,0,0,0,.3,1.852V17Zm-2.4-1.1a2.54,2.54,0,0,0,1.289-.352,2.127,2.127,0,0,0,.883-.914V12.9h-1.133q-2.656,0-2.656,1.555a1.316,1.316,0,0,0,.453,1.063A1.742,1.742,0,0,0,192.813,15.9Zm10.8-1.141a1.064,1.064,0,0,0-.441-.91,4.249,4.249,0,0,0-1.539-.559,7.277,7.277,0,0,1-1.742-.562,2.479,2.479,0,0,1-.953-.781,1.869,1.869,0,0,1-.309-1.078,2.193,2.193,0,0,1,.879-1.758,3.432,3.432,0,0,1,2.246-.719,3.532,3.532,0,0,1,2.332.742,2.357,2.357,0,0,1,.895,1.9h-1.453a1.3,1.3,0,0,0-.5-1.023,1.888,1.888,0,0,0-1.27-.43,1.976,1.976,0,0,0-1.234.344,1.082,1.082,0,0,0-.445.9.877.877,0,0,0,.414.789,5.1,5.1,0,0,0,1.5.508,7.8,7.8,0,0,1,1.754.578,2.558,2.558,0,0,1,1,.809,1.988,1.988,0,0,1,.324,1.152,2.163,2.163,0,0,1-.906,1.816,3.8,3.8,0,0,1-2.352.684,4.257,4.257,0,0,1-1.8-.359,2.922,2.922,0,0,1-1.223-1,2.42,2.42,0,0,1-.441-1.395h1.445a1.5,1.5,0,0,0,.582,1.152,2.258,2.258,0,0,0,1.434.426,2.331,2.331,0,0,0,1.316-.332A1.02,1.02,0,0,0,203.617,14.758Zm12.211,0a1.064,1.064,0,0,0-.441-.91,4.249,4.249,0,0,0-1.539-.559,7.277,7.277,0,0,1-1.742-.562,2.479,2.479,0,0,1-.953-.781,1.869,1.869,0,0,1-.309-1.078,2.193,2.193,0,0,1,.879-1.758,3.432,3.432,0,0,1,2.246-.719,3.532,3.532,0,0,1,2.332.742,2.357,2.357,0,0,1,.895,1.9h-1.453a1.3,1.3,0,0,0-.5-1.023,1.888,1.888,0,0,0-1.27-.43,1.976,1.976,0,0,0-1.234.344,1.082,1.082,0,0,0-.445.9.877.877,0,0,0,.414.789,5.1,5.1,0,0,0,1.5.508,7.8,7.8,0,0,1,1.754.578,2.558,2.558,0,0,1,1,.809,1.988,1.988,0,0,1,.324,1.152,2.163,2.163,0,0,1-.906,1.816,3.8,3.8,0,0,1-2.352.684,4.257,4.257,0,0,1-1.8-.359,2.922,2.922,0,0,1-1.223-1,2.42,2.42,0,0,1-.441-1.395H212a1.5,1.5,0,0,0,.582,1.152,2.258,2.258,0,0,0,1.434.426,2.331,2.331,0,0,0,1.316-.332A1.02,1.02,0,0,0,215.828,14.758Zm4.9,2.242h-1.445V8.547h1.445ZM219.164,6.3a.863.863,0,0,1,.215-.594.807.807,0,0,1,.637-.242.819.819,0,0,1,.641.242.854.854,0,0,1,.219.594.826.826,0,0,1-.219.586.834.834,0,0,1-.641.234.821.821,0,0,1-.637-.234A.834.834,0,0,1,219.164,6.3Zm5.242,2.242.047,1.063a3.08,3.08,0,0,1,2.531-1.219q2.68,0,2.7,3.023V17h-1.445V11.406a1.946,1.946,0,0,0-.418-1.352,1.675,1.675,0,0,0-1.277-.437,2.086,2.086,0,0,0-1.234.375,2.546,2.546,0,0,0-.828.984V17h-1.445V8.547ZM40,30.5v2.047h1.578v1.117H40v5.249a1.173,1.173,0,0,0,.211.763.888.888,0,0,0,.719.254,3.5,3.5,0,0,0,.688-.094V41a4.215,4.215,0,0,1-1.109.155,1.8,1.8,0,0,1-1.461-.586,2.517,2.517,0,0,1-.492-1.664V33.664H37.016V32.547h1.539V30.5Zm6.773,10.656a3.693,3.693,0,0,1-2.8-1.129,4.19,4.19,0,0,1-1.078-3.02v-.266a5.073,5.073,0,0,1,.48-2.246,3.748,3.748,0,0,1,1.344-1.547,3.378,3.378,0,0,1,1.871-.559,3.166,3.166,0,0,1,2.563,1.086,4.7,4.7,0,0,1,.914,3.109v.6H44.344a3,3,0,0,0,.73,2.02,2.3,2.3,0,0,0,1.777.77,2.517,2.517,0,0,0,1.3-.312,3.258,3.258,0,0,0,.93-.828l.883.688A3.55,3.55,0,0,1,46.773,41.156Zm-.18-7.578a1.928,1.928,0,0,0-1.469.637A3.1,3.1,0,0,0,44.391,36h4.234v-.109a2.753,2.753,0,0,0-.594-1.707A1.815,1.815,0,0,0,46.594,33.578Zm6.516-1.031.047,1.063a3.08,3.08,0,0,1,2.531-1.219q2.68,0,2.7,3.023V41H56.945V35.406a1.946,1.946,0,0,0-.418-1.352,1.675,1.675,0,0,0-1.277-.437,2.086,2.086,0,0,0-1.234.375,2.546,2.546,0,0,0-.828.984V41H51.742V32.547Zm10.969,8.609a3.693,3.693,0,0,1-2.8-1.129,4.19,4.19,0,0,1-1.078-3.02v-.266a5.073,5.073,0,0,1,.48-2.246,3.748,3.748,0,0,1,1.344-1.547,3.378,3.378,0,0,1,1.871-.559,3.166,3.166,0,0,1,2.563,1.086,4.7,4.7,0,0,1,.914,3.109v.6H61.648a3,3,0,0,0,.73,2.02,2.3,2.3,0,0,0,1.777.77,2.517,2.517,0,0,0,1.3-.312,3.259,3.259,0,0,0,.93-.828l.883.688A3.55,3.55,0,0,1,64.078,41.156Zm-.18-7.578a1.928,1.928,0,0,0-1.469.637A3.1,3.1,0,0,0,61.7,36H65.93v-.109a2.753,2.753,0,0,0-.594-1.707A1.815,1.815,0,0,0,63.9,33.578Zm9.234.266a4.331,4.331,0,0,0-.711-.055A1.9,1.9,0,0,0,70.492,35v6H69.047V32.547h1.406l.023.977a2.251,2.251,0,0,1,2.016-1.133,1.477,1.477,0,0,1,.641.109Zm6.781-1.3v9.43q0,2.438-2.211,2.438a2.7,2.7,0,0,1-.883-.14V43.125a2.794,2.794,0,0,0,.656.063.982.982,0,0,0,.738-.262,1.3,1.3,0,0,0,.254-.911V32.547ZM78.32,30.3a.867.867,0,0,1,.215-.59.79.79,0,0,1,.629-.246.819.819,0,0,1,.641.242.854.854,0,0,1,.219.594.826.826,0,0,1-.219.586.834.834,0,0,1-.641.234.808.808,0,0,1-.633-.234A.843.843,0,0,1,78.32,30.3Zm9.141,9.859a3.07,3.07,0,0,1-2.477.992,2.628,2.628,0,0,1-2.059-.785,3.4,3.4,0,0,1-.715-2.324v-5.5h1.445v5.461q0,1.922,1.563,1.922a2.163,2.163,0,0,0,2.2-1.234V32.547h1.445V41H87.492ZM92.633,41H91.188V32.547h1.445ZM91.07,30.3a.863.863,0,0,1,.215-.594.807.807,0,0,1,.637-.242.819.819,0,0,1,.641.242.854.854,0,0,1,.219.594.826.826,0,0,1-.219.586.834.834,0,0,1-.641.234.821.821,0,0,1-.637-.234A.834.834,0,0,1,91.07,30.3Zm7.266,9.672a2.082,2.082,0,0,0,1.352-.469,1.649,1.649,0,0,0,.641-1.172H101.7a2.621,2.621,0,0,1-.5,1.383,3.293,3.293,0,0,1-1.23,1.047,3.55,3.55,0,0,1-1.629.391A3.482,3.482,0,0,1,95.59,40a4.59,4.59,0,0,1-1.02-3.152v-.242a5.089,5.089,0,0,1,.453-2.2,3.451,3.451,0,0,1,1.3-1.492,3.7,3.7,0,0,1,2-.531,3.39,3.39,0,0,1,2.363.852,3.043,3.043,0,0,1,1,2.211h-1.367a1.992,1.992,0,0,0-.621-1.348,1.932,1.932,0,0,0-1.379-.527,2.023,2.023,0,0,0-1.707.793,3.724,3.724,0,0,0-.605,2.293v.273a3.65,3.65,0,0,0,.6,2.25A2.033,2.033,0,0,0,98.336,39.977ZM104.891,41h-1.445V32.547h1.445Zm-1.562-10.7a.863.863,0,0,1,.215-.594.807.807,0,0,1,.637-.242.819.819,0,0,1,.641.242.854.854,0,0,1,.219.594.826.826,0,0,1-.219.586.834.834,0,0,1-.641.234.821.821,0,0,1-.637-.234A.834.834,0,0,1,103.328,30.3ZM106.82,36.7a4.993,4.993,0,0,1,.488-2.234,3.643,3.643,0,0,1,1.359-1.531,3.7,3.7,0,0,1,1.988-.539,3.565,3.565,0,0,1,2.793,1.2,4.6,4.6,0,0,1,1.066,3.18v.1a5.036,5.036,0,0,1-.473,2.215,3.589,3.589,0,0,1-1.352,1.527,3.743,3.743,0,0,1-2.02.547,3.556,3.556,0,0,1-2.785-1.2A4.575,4.575,0,0,1,106.82,36.8Zm1.453.172a3.616,3.616,0,0,0,.652,2.258,2.211,2.211,0,0,0,3.5-.012,3.955,3.955,0,0,0,.648-2.418,3.61,3.61,0,0,0-.66-2.254,2.1,2.1,0,0,0-1.754-.863,2.075,2.075,0,0,0-1.727.852A3.925,3.925,0,0,0,108.273,36.867Zm12.977,1.891a1.064,1.064,0,0,0-.441-.91,4.249,4.249,0,0,0-1.539-.559,7.277,7.277,0,0,1-1.742-.562,2.479,2.479,0,0,1-.953-.781,1.869,1.869,0,0,1-.309-1.078,2.193,2.193,0,0,1,.879-1.758,3.432,3.432,0,0,1,2.246-.719,3.532,3.532,0,0,1,2.332.742,2.357,2.357,0,0,1,.895,1.9h-1.453a1.3,1.3,0,0,0-.5-1.023,1.888,1.888,0,0,0-1.27-.43,1.976,1.976,0,0,0-1.234.344,1.082,1.082,0,0,0-.445.9.877.877,0,0,0,.414.789,5.1,5.1,0,0,0,1.5.508,7.8,7.8,0,0,1,1.754.578,2.558,2.558,0,0,1,1,.809,1.988,1.988,0,0,1,.324,1.152,2.163,2.163,0,0,1-.906,1.816,3.8,3.8,0,0,1-2.352.684,4.257,4.257,0,0,1-1.8-.359,2.922,2.922,0,0,1-1.223-1,2.42,2.42,0,0,1-.441-1.395h1.445A1.5,1.5,0,0,0,118,39.551a2.258,2.258,0,0,0,1.434.426,2.331,2.331,0,0,0,1.316-.332A1.02,1.02,0,0,0,121.25,38.758Zm12.211,0a1.064,1.064,0,0,0-.441-.91,4.249,4.249,0,0,0-1.539-.559,7.277,7.277,0,0,1-1.742-.562,2.479,2.479,0,0,1-.953-.781,1.869,1.869,0,0,1-.309-1.078,2.193,2.193,0,0,1,.879-1.758,3.432,3.432,0,0,1,2.246-.719,3.532,3.532,0,0,1,2.332.742,2.357,2.357,0,0,1,.895,1.9h-1.453a1.3,1.3,0,0,0-.5-1.023,1.888,1.888,0,0,0-1.27-.43,1.976,1.976,0,0,0-1.234.344,1.082,1.082,0,0,0-.445.9.877.877,0,0,0,.414.789,5.1,5.1,0,0,0,1.5.508,7.8,7.8,0,0,1,1.754.578,2.558,2.558,0,0,1,1,.809,1.988,1.988,0,0,1,.324,1.152A2.163,2.163,0,0,1,134,40.473a3.8,3.8,0,0,1-2.352.684,4.257,4.257,0,0,1-1.8-.359,2.922,2.922,0,0,1-1.223-1,2.42,2.42,0,0,1-.441-1.395h1.445a1.5,1.5,0,0,0,.582,1.152,2.258,2.258,0,0,0,1.434.426,2.331,2.331,0,0,0,1.316-.332A1.02,1.02,0,0,0,133.461,38.758Zm2.945-2.062a4.993,4.993,0,0,1,.488-2.234,3.642,3.642,0,0,1,1.359-1.531,3.7,3.7,0,0,1,1.988-.539,3.565,3.565,0,0,1,2.793,1.2,4.6,4.6,0,0,1,1.066,3.18v.1a5.036,5.036,0,0,1-.473,2.215,3.589,3.589,0,0,1-1.352,1.527,3.743,3.743,0,0,1-2.02.547,3.556,3.556,0,0,1-2.785-1.2,4.575,4.575,0,0,1-1.066-3.164Zm1.453.172a3.616,3.616,0,0,0,.652,2.258,2.211,2.211,0,0,0,3.5-.012,3.954,3.954,0,0,0,.648-2.418,3.61,3.61,0,0,0-.66-2.254,2.1,2.1,0,0,0-1.754-.863,2.075,2.075,0,0,0-1.727.852A3.925,3.925,0,0,0,137.859,36.867Zm15.211,0a5.026,5.026,0,0,1-.891,3.113,2.846,2.846,0,0,1-2.391,1.176,2.947,2.947,0,0,1-2.477-1.133l-.07.977h-1.328V29h1.445v4.477a2.93,2.93,0,0,1,2.414-1.086,2.863,2.863,0,0,1,2.418,1.164,5.177,5.177,0,0,1,.879,3.188Zm-1.445-.164a3.906,3.906,0,0,0-.57-2.281,1.888,1.888,0,0,0-1.641-.8,2.122,2.122,0,0,0-2.055,1.328V38.6a2.181,2.181,0,0,0,2.07,1.328,1.878,1.878,0,0,0,1.617-.8A4.153,4.153,0,0,0,151.625,36.7Zm7.352-2.859a4.331,4.331,0,0,0-.711-.055A1.9,1.9,0,0,0,156.336,35v6h-1.445V32.547H156.3l.023.977a2.251,2.251,0,0,1,2.016-1.133,1.477,1.477,0,0,1,.641.109Zm4.836,7.313a3.693,3.693,0,0,1-2.8-1.129,4.19,4.19,0,0,1-1.078-3.02v-.266a5.073,5.073,0,0,1,.48-2.246,3.748,3.748,0,0,1,1.344-1.547,3.378,3.378,0,0,1,1.871-.559,3.166,3.166,0,0,1,2.563,1.086,4.7,4.7,0,0,1,.914,3.109v.6h-5.727a3,3,0,0,0,.73,2.02,2.3,2.3,0,0,0,1.777.77,2.517,2.517,0,0,0,1.3-.312,3.258,3.258,0,0,0,.93-.828l.883.688A3.55,3.55,0,0,1,163.813,41.156Zm-.18-7.578a1.928,1.928,0,0,0-1.469.637A3.1,3.1,0,0,0,161.43,36h4.234v-.109a2.753,2.753,0,0,0-.594-1.707A1.815,1.815,0,0,0,163.633,33.578Zm12.617,7.578a3.693,3.693,0,0,1-2.8-1.129,4.19,4.19,0,0,1-1.078-3.02v-.266a5.073,5.073,0,0,1,.48-2.246,3.748,3.748,0,0,1,1.344-1.547,3.378,3.378,0,0,1,1.871-.559,3.166,3.166,0,0,1,2.563,1.086,4.7,4.7,0,0,1,.914,3.109v.6H173.82a3,3,0,0,0,.73,2.02,2.3,2.3,0,0,0,1.777.77,2.517,2.517,0,0,0,1.3-.312,3.258,3.258,0,0,0,.93-.828l.883.688A3.55,3.55,0,0,1,176.25,41.156Zm-.18-7.578a1.928,1.928,0,0,0-1.469.637A3.1,3.1,0,0,0,173.867,36H178.1v-.109a2.753,2.753,0,0,0-.594-1.707A1.815,1.815,0,0,0,176.07,33.578ZM182.789,41h-1.445V29h1.445Zm3.883,0h-1.445V29h1.445Zm7.531,0a3.036,3.036,0,0,1-.2-.891,3.225,3.225,0,0,1-2.406,1.047,2.984,2.984,0,0,1-2.051-.707,2.287,2.287,0,0,1-.8-1.793,2.39,2.39,0,0,1,1-2.051,4.733,4.733,0,0,1,2.824-.73h1.406v-.664A1.623,1.623,0,0,0,193.523,34a1.821,1.821,0,0,0-1.336-.449,2.107,2.107,0,0,0-1.3.391,1.151,1.151,0,0,0-.523.945h-1.453a2,2,0,0,1,.449-1.223,3.066,3.066,0,0,1,1.219-.934,4.1,4.1,0,0,1,1.691-.344,3.342,3.342,0,0,1,2.289.73,2.635,2.635,0,0,1,.859,2.012v3.891a4.757,4.757,0,0,0,.3,1.852V41Zm-2.4-1.1a2.54,2.54,0,0,0,1.289-.352,2.127,2.127,0,0,0,.883-.914V36.9h-1.133q-2.656,0-2.656,1.555a1.316,1.316,0,0,0,.453,1.063A1.742,1.742,0,0,0,191.8,39.9Zm10.8-1.141a1.064,1.064,0,0,0-.441-.91,4.249,4.249,0,0,0-1.539-.559,7.277,7.277,0,0,1-1.742-.562,2.479,2.479,0,0,1-.953-.781,1.869,1.869,0,0,1-.309-1.078,2.193,2.193,0,0,1,.879-1.758,3.432,3.432,0,0,1,2.246-.719,3.532,3.532,0,0,1,2.332.742,2.357,2.357,0,0,1,.895,1.9h-1.453a1.3,1.3,0,0,0-.5-1.023,1.888,1.888,0,0,0-1.27-.43,1.976,1.976,0,0,0-1.234.344,1.082,1.082,0,0,0-.445.9.877.877,0,0,0,.414.789,5.1,5.1,0,0,0,1.5.508,7.8,7.8,0,0,1,1.754.578,2.558,2.558,0,0,1,1,.809,1.988,1.988,0,0,1,.324,1.152,2.163,2.163,0,0,1-.906,1.816,3.8,3.8,0,0,1-2.352.684A4.257,4.257,0,0,1,199,40.8a2.922,2.922,0,0,1-1.223-1,2.42,2.42,0,0,1-.441-1.395h1.445a1.5,1.5,0,0,0,.582,1.152,2.258,2.258,0,0,0,1.434.426,2.331,2.331,0,0,0,1.316-.332A1.02,1.02,0,0,0,202.609,38.758Zm3.359,1.484a.905.905,0,0,1,.223-.625.848.848,0,0,1,.668-.25.874.874,0,0,1,.676.25.887.887,0,0,1,.23.625.839.839,0,0,1-.23.6.89.89,0,0,1-.676.242.8.8,0,0,1-.891-.844Z" transform="translate(678 2890)" fill="#12263f"/>
    <g id="Enmascarar_grupo_101" data-name="Enmascarar grupo 101" transform="translate(-157)" clip-path="url(#clip-path)">
      <g id="chat" transform="translate(915.372 2768)">
        <path id="Trazado_181432" data-name="Trazado 181432" d="M62.837,6C51.692,6,42.66,11.89,42.66,23.255a20.18,20.18,0,1,0,40.353,0C83.012,11.89,73.979,6,62.837,6Zm0,0" fill="#fbc4ac"/>
        <path id="Trazado_181433" data-name="Trazado 181433" d="M46.644,23.254A20.429,20.429,0,0,1,64.828,2.779q-.982-.1-1.992-.1A20.378,20.378,0,0,0,42.66,23.255,20.378,20.378,0,0,0,62.837,43.83q1.008,0,1.992-.1A20.428,20.428,0,0,1,46.644,23.255Zm0,0" fill="#e3b098"/>
        <path id="Trazado_181434" data-name="Trazado 181434" d="M75.015,30.642H72.167a1.245,1.245,0,0,1,0-2.49h2.848a1.245,1.245,0,1,1,0,2.49Zm0,0" fill="#f98084"/>
        <path id="Trazado_181435" data-name="Trazado 181435" d="M53.5,30.642H50.656a1.245,1.245,0,0,1,0-2.49H53.5a1.245,1.245,0,1,1,0,2.49Zm0,0" fill="#f98084"/>
        <path id="Trazado_181436" data-name="Trazado 181436" d="M82.047,16.95C80.661.082,73.859,2.679,62.837,2.679,54.5,2.679,50.5,1.845,48.8,1.313a1.461,1.461,0,0,0-1.74.73c-1.361,2.671-4.4,9.9-4.4,21.211,0,0,4.825-8.69,20.177-8.69,7.141,0,6.544,2.385,19.21,2.385Zm0,0" fill="#c86d5c"/>
        <path id="Trazado_181437" data-name="Trazado 181437" d="M51.041,2.043a1.476,1.476,0,0,1,.107-.174A20.148,20.148,0,0,1,48.8,1.313a1.461,1.461,0,0,0-1.74.73c-1.361,2.671-4.4,9.9-4.4,21.211a14.621,14.621,0,0,1,4.129-4.2,44.754,44.754,0,0,1,4.253-17.01Zm0,0" fill="#ad4f3d"/>
        <path id="Trazado_181438" data-name="Trazado 181438" d="M1.26,62.382V75.646a6.485,6.485,0,0,0,5.769,6.446l9.534,1.061Zm0,0" fill="#3a484a"/>
        <path id="Trazado_181439" data-name="Trazado 181439" d="M41.583,62.382V75.646a6.486,6.486,0,0,1-5.769,6.446L26.28,83.153Zm0,0" fill="#3a484a"/>
        <path id="Trazado_181440" data-name="Trazado 181440" d="M41.583,62.382l0,0L20.973,46.8,1.262,62.384l0,0c-.01.265-.015.53-.015.8A20.378,20.378,0,0,0,21.421,83.755,20.378,20.378,0,0,0,41.6,63.179c0-.267,0-.531-.014-.8Zm0,0" fill="#fbc4ac"/>
        <path id="Trazado_181441" data-name="Trazado 181441" d="M4.6,61.727a20.961,20.961,0,0,1-3.336.658l0,0c-.01.265-.015.529-.015.8A20.379,20.379,0,0,0,21.421,83.755c.576,0,1.145-.026,1.709-.075C13.111,82.765,5.152,73.387,4.6,61.727Zm0,0" fill="#e3b098"/>
        <path id="Trazado_181442" data-name="Trazado 181442" d="M12.091,70.566H9.242a1.245,1.245,0,1,1,0-2.49h2.848a1.245,1.245,0,1,1,0,2.49Zm0,0" fill="#f98084"/>
        <path id="Trazado_181443" data-name="Trazado 181443" d="M33.6,70.566H30.753a1.245,1.245,0,1,1,0-2.49H33.6a1.245,1.245,0,1,1,0,2.49Zm0,0" fill="#f98084"/>
        <path id="Trazado_181444" data-name="Trazado 181444" d="M1.26,62.382l0,0c10.828-1.2,20.159-11.657,20.159-11.657s9.331,10.459,20.16,11.657l0,0A20.36,20.36,0,0,0,21.421,42.6,20.359,20.359,0,0,0,1.26,62.382Zm0,0" fill="#3a484a"/>
        <path id="Trazado_181445" data-name="Trazado 181445" d="M23.164,42.681c-.575-.05-1.156-.077-1.743-.077A20.36,20.36,0,0,0,1.26,62.382l0,0A18.836,18.836,0,0,0,4.6,61.727,20.616,20.616,0,0,1,23.164,42.681Zm0,0" fill="#323e40"/>
        <path id="Trazado_181446" data-name="Trazado 181446" d="M33.916,29.293V16.855A8.045,8.045,0,0,0,25.872,8.81H9.29a8.045,8.045,0,0,0-8.045,8.045V28.221A8.045,8.045,0,0,0,9.29,36.265H37.77Zm0,0" fill="#00bab5"/>
        <path id="Trazado_181447" data-name="Trazado 181447" d="M50.341,69.934V57.5a8.044,8.044,0,0,1,8.045-8.045H74.967A8.045,8.045,0,0,1,83.012,57.5V68.862a8.044,8.044,0,0,1-8.045,8.045H46.487Zm0,0" fill="#ff0092"/>
        <path id="Trazado_181448" data-name="Trazado 181448" d="M73.591,27.569a1.245,1.245,0,0,0,1.245-1.245V24.233a1.245,1.245,0,1,0-2.49,0v2.091A1.245,1.245,0,0,0,73.591,27.569Zm0,0"/>
        <path id="Trazado_181449" data-name="Trazado 181449" d="M52.08,27.569a1.245,1.245,0,0,0,1.245-1.245V24.233a1.245,1.245,0,1,0-2.49,0v2.091A1.245,1.245,0,0,0,52.08,27.569Zm0,0"/>
        <path id="Trazado_181450" data-name="Trazado 181450" d="M65.579,27.491a1.245,1.245,0,0,0-1.757.118,1.355,1.355,0,0,1-1.972,0,1.245,1.245,0,1,0-1.875,1.639,3.845,3.845,0,0,0,5.722,0,1.245,1.245,0,0,0-.118-1.757Zm0,0"/>
        <path id="Trazado_181451" data-name="Trazado 181451" d="M10.666,67.493a1.245,1.245,0,0,0,1.245-1.245V64.157a1.245,1.245,0,0,0-2.49,0v2.091A1.245,1.245,0,0,0,10.666,67.493Zm0,0"/>
        <path id="Trazado_181452" data-name="Trazado 181452" d="M32.176,67.493a1.245,1.245,0,0,0,1.245-1.245V64.157a1.245,1.245,0,0,0-2.49,0v2.091A1.245,1.245,0,0,0,32.176,67.493Zm0,0"/>
        <path id="Trazado_181453" data-name="Trazado 181453" d="M20.436,67.533a1.245,1.245,0,0,0-1.875,1.639,3.844,3.844,0,0,0,5.722,0,1.245,1.245,0,0,0-1.875-1.639,1.355,1.355,0,0,1-1.972,0Zm0,0"/>
        <path id="Trazado_181454" data-name="Trazado 181454" d="M9.29,37.511H37.769a1.258,1.258,0,0,0,1.09-1.848l-3.7-6.691V16.856a9.3,9.3,0,0,0-9.29-9.29H9.29A9.3,9.3,0,0,0,0,16.856V28.221a9.3,9.3,0,0,0,9.29,9.29ZM2.49,16.856a6.807,6.807,0,0,1,6.8-6.8H25.872a6.807,6.807,0,0,1,6.8,6.8V29.293a1.239,1.239,0,0,0,.156.6l2.832,5.126H9.29a6.808,6.808,0,0,1-6.8-6.8Zm0,0" fill="#12263f"/>
        <path id="Trazado_181455" data-name="Trazado 181455" d="M8.9,18.1H26.265a1.245,1.245,0,1,0,0-2.49H8.9a1.245,1.245,0,0,0,0,2.49Zm0,0" fill="#fff"/>
        <path id="Trazado_181456" data-name="Trazado 181456" d="M8.9,23.784H26.265a1.245,1.245,0,1,0,0-2.49H8.9a1.245,1.245,0,1,0,0,2.49Zm0,0" fill="#fff"/>
        <path id="Trazado_181457" data-name="Trazado 181457" d="M8.9,29.466H19.728a1.245,1.245,0,0,0,0-2.49H8.9a1.245,1.245,0,1,0,0,2.49Zm0,0" fill="#fff"/>
        <path id="Trazado_181458" data-name="Trazado 181458" d="M46.488,78.152H74.967a9.3,9.3,0,0,0,9.29-9.29V57.5a9.3,9.3,0,0,0-9.29-9.29H58.385A9.3,9.3,0,0,0,49.1,57.5V69.613L45.4,76.3a1.258,1.258,0,0,0,1.089,1.847Zm4.943-7.615a1.247,1.247,0,0,0,.155-.6V57.5a6.807,6.807,0,0,1,6.8-6.8H74.967a6.807,6.807,0,0,1,6.8,6.8V68.863a6.808,6.808,0,0,1-6.8,6.8H48.6Zm0,0" fill="#12263f"/>
        <path id="Trazado_181459" data-name="Trazado 181459" d="M57.992,58.742H75.36a1.245,1.245,0,0,0,0-2.49H57.992a1.245,1.245,0,0,0,0,2.49Zm0,0" fill="#fff"/>
        <path id="Trazado_181460" data-name="Trazado 181460" d="M76.605,63.179a1.245,1.245,0,0,0-1.245-1.245H57.992a1.245,1.245,0,0,0,0,2.49H75.36A1.245,1.245,0,0,0,76.605,63.179Zm0,0" fill="#fff"/>
        <path id="Trazado_181461" data-name="Trazado 181461" d="M76.605,68.862a1.245,1.245,0,0,0-1.245-1.245H64.529a1.245,1.245,0,0,0,0,2.49H75.36a1.245,1.245,0,0,0,1.245-1.245Zm0,0" fill="#fff"/>
        <path id="Trazado_181462" data-name="Trazado 181462" d="M62.836,45.076a21.648,21.648,0,0,0,21.42-21.821,22.191,22.191,0,0,0-.981-6.532c-.613-7.291-2.27-11.494-5.365-13.617C74.99,1.1,71.147,1.221,66.7,1.357c-1.236.038-2.514.077-3.859.077-8.241,0-12.1-.821-13.668-1.31a2.7,2.7,0,0,0-3.22,1.354A37.8,37.8,0,0,0,43.22,8.806a1.245,1.245,0,0,0,2.405.645,35.3,35.3,0,0,1,2.541-6.842.213.213,0,0,1,.259-.107c2.08.648,6.268,1.422,14.41,1.422,1.383,0,2.681-.04,3.935-.078,4.18-.128,7.482-.229,9.731,1.314,2.231,1.53,3.569,4.894,4.174,10.534a51.549,51.549,0,0,1-5.614-.327A39.725,39.725,0,0,1,69.732,14.3a23.18,23.18,0,0,0-6.9-.982,35.345,35.345,0,0,0-8.534.993,25.163,25.163,0,0,0-6.817,2.779,20.267,20.267,0,0,0-3.433,2.576l-.043.04a54.675,54.675,0,0,1,.607-5.536,1.245,1.245,0,0,0-2.458-.4,59.274,59.274,0,0,0-.744,9.483A21.649,21.649,0,0,0,62.836,45.076Zm0-2.49A19.148,19.148,0,0,1,43.908,23.608c0-.012.027-.04.034-.05a15.17,15.17,0,0,1,4.539-4.137,27.15,27.15,0,0,1,16.892-3.484c2.79.308,5.454,1.335,8.233,1.745a54.2,54.2,0,0,0,7.292.506l.212,0a19.74,19.74,0,0,1,.658,5.065A19.156,19.156,0,0,1,62.836,42.586Zm0,0" fill="#12263f"/>
        <path id="Trazado_181463" data-name="Trazado 181463" d="M.015,75.647A7.723,7.723,0,0,0,6.892,83.33l9.469,1.053a21.071,21.071,0,0,0,10.121,0l9.469-1.053a7.723,7.723,0,0,0,6.877-7.683v-11.7c0-.537.019-1.072,0-1.61A21.886,21.886,0,0,0,36.3,47.483,21.165,21.165,0,0,0,4.423,49.9a1.245,1.245,0,0,0,1.988,1.5,18.675,18.675,0,0,1,28.144-2.141,19.375,19.375,0,0,1,5.669,11.661q-.458-.089-.911-.2a30.231,30.231,0,0,1-10.059-4.844l-.01-.006A47.5,47.5,0,0,1,23.79,51.36c-.4-.387-.8-.78-1.182-1.185a2,2,0,0,0-.8-.63,1.216,1.216,0,0,0-.776,0,2.488,2.488,0,0,0-.91.748c-.762.8-1.562,1.555-2.385,2.286A47.341,47.341,0,0,1,13.56,55.9,28.964,28.964,0,0,1,2.619,60.919a19.456,19.456,0,0,1,1.454-5.485,1.245,1.245,0,1,0-2.289-.982A22,22,0,0,0,.016,62.337c-.02.536-.019,1.073,0,1.609Zm9.166,5.432-2.014-.224a5.236,5.236,0,0,1-4.661-5.209V73.435a22.035,22.035,0,0,0,2.346,3.573A21.63,21.63,0,0,0,8.882,80.86c.062.045.26.193.3.219Zm31.156-5.432a5.236,5.236,0,0,1-4.661,5.209l-2.014.224c.038-.027.239-.175.3-.222a21.612,21.612,0,0,0,4.027-3.849,22.021,22.021,0,0,0,2.346-3.573ZM21.683,52.8a40.808,40.808,0,0,0,13.869,9.353,24.614,24.614,0,0,0,4.8,1.324c0,.134-.006.267-.011.4a.088.088,0,0,1,0,.013,19.53,19.53,0,0,1-6.875,14.2l-.019.016a18.59,18.59,0,0,1-24.066-.016A19.532,19.532,0,0,1,2.5,63.884a.072.072,0,0,1,0-.012c0-.133-.008-.267-.01-.4.114-.019.228-.042.342-.063a26.165,26.165,0,0,0,3.49-.912,33.512,33.512,0,0,0,8.556-4.461l.007,0a46.9,46.9,0,0,0,6.534-5.5l.261.261Zm0,0" fill="#12263f"/>
      </g>
    </g>
  </g>
</svg>
