<svg xmlns="http://www.w3.org/2000/svg" xmlns:xlink="http://www.w3.org/1999/xlink" width="295" height="352" viewBox="0 0 295 352">
  <defs>
    <clipPath id="clip-path">
      <rect id="Rectángulo_23160" data-name="Rectángulo 23160" width="85" height="85" transform="translate(758 1979)" fill="#fff" stroke="#707070" stroke-width="1"/>
    </clipPath>
  </defs>
  <g id="Grupo_82181" data-name="Grupo 82181" transform="translate(-338 -1892)">
    <g id="Grupo_82180" data-name="Grupo 82180">
      <rect id="Rectángulo_23148" data-name="Rectángulo 23148" width="295" height="349" rx="20" transform="translate(338 1895)" fill="#f6f6f6"/>
    </g>
    <g id="Grupo_82179" data-name="Grupo 82179">
      <path id="Rectángulo_23149" data-name="Rectángulo 23149" d="M20,0H275a20,20,0,0,1,20,20V51a0,0,0,0,1,0,0H0a0,0,0,0,1,0,0V20A20,20,0,0,1,20,0Z" transform="translate(338 1892)" fill="#00bab5"/>
      <path id="Trazado_183363" data-name="Trazado 183363" d="M77.8,16.363H73.182L72.3,19H69.5L74.263,6.2h2.443L81.5,19h-2.8Zm-3.911-2.136h3.2l-1.608-4.79ZM84.906,9.49l.079,1.063a3.342,3.342,0,0,1,2.733-1.239,2.536,2.536,0,0,1,2.522,1.45A3.265,3.265,0,0,1,93.1,9.314a2.836,2.836,0,0,1,2.3.9,4.141,4.141,0,0,1,.756,2.711V19H93.607V12.936a1.811,1.811,0,0,0-.316-1.182,1.4,1.4,0,0,0-1.116-.374,1.585,1.585,0,0,0-1.582,1.09L90.6,19h-2.54V12.944a1.789,1.789,0,0,0-.325-1.2,1.416,1.416,0,0,0-1.107-.369,1.646,1.646,0,0,0-1.564.9V19h-2.54V9.49Zm21.771,4.843A5.758,5.758,0,0,1,105.7,17.9a3.231,3.231,0,0,1-2.725,1.279,2.969,2.969,0,0,1-2.47-1.187L100.393,19H98.107V5.5h2.54v4.843a2.893,2.893,0,0,1,2.312-1.028,3.258,3.258,0,0,1,2.729,1.279,5.767,5.767,0,0,1,.989,3.6Zm-2.54-.185a3.783,3.783,0,0,0-.457-2.1,1.545,1.545,0,0,0-1.362-.664,1.676,1.676,0,0,0-1.67.993v3.753a1.7,1.7,0,0,0,1.688,1,1.568,1.568,0,0,0,1.617-1.213A6.257,6.257,0,0,0,104.137,14.148ZM110.922,19h-2.549V9.49h2.549Zm-2.7-11.971a1.251,1.251,0,0,1,.382-.94,1.648,1.648,0,0,1,2.079,0,1.244,1.244,0,0,1,.387.94,1.247,1.247,0,0,1-.391.949,1.629,1.629,0,0,1-2.065,0A1.247,1.247,0,0,1,108.224,7.029Zm4.421,7.146a5.573,5.573,0,0,1,1.042-3.524,3.375,3.375,0,0,1,2.808-1.336,2.96,2.96,0,0,1,2.435,1.072l.105-.9h2.3v9.193a4.064,4.064,0,0,1-.567,2.171,3.641,3.641,0,0,1-1.6,1.406,5.608,5.608,0,0,1-2.408.483,5.215,5.215,0,0,1-2.039-.417,3.619,3.619,0,0,1-1.5-1.077L114.35,19.7a2.975,2.975,0,0,0,2.3,1.063,2.178,2.178,0,0,0,1.573-.541,2.027,2.027,0,0,0,.563-1.534v-.51a2.938,2.938,0,0,1-2.312.993,3.366,3.366,0,0,1-2.773-1.34,5.572,5.572,0,0,1-1.059-3.555Zm2.54.189a3.47,3.47,0,0,0,.519,2.029,1.65,1.65,0,0,0,1.424.735,1.764,1.764,0,0,0,1.661-.871V12.251a1.76,1.76,0,0,0-1.644-.871,1.66,1.66,0,0,0-1.437.748A3.911,3.911,0,0,0,115.185,14.364Zm13.8,3.669a3.185,3.185,0,0,1-2.6,1.143,3,3,0,0,1-2.333-.879,3.752,3.752,0,0,1-.822-2.575V9.49h2.54v6.151q0,1.487,1.354,1.487a1.834,1.834,0,0,0,1.775-.9V9.49h2.549V19h-2.391Zm3.981-3.876a5.64,5.64,0,0,1,.545-2.522,3.989,3.989,0,0,1,1.569-1.714,4.577,4.577,0,0,1,2.377-.606,4.33,4.33,0,0,1,3.142,1.178,4.727,4.727,0,0,1,1.358,3.2l.018.65a4.97,4.97,0,0,1-1.222,3.511,4.735,4.735,0,0,1-6.561,0,5.058,5.058,0,0,1-1.226-3.586Zm2.54.18a3.555,3.555,0,0,0,.51,2.073,1.831,1.831,0,0,0,2.9.009,3.89,3.89,0,0,0,.519-2.267,3.519,3.519,0,0,0-.519-2.06,1.686,1.686,0,0,0-1.459-.731,1.658,1.658,0,0,0-1.441.726A3.955,3.955,0,0,0,135.5,14.338Z" transform="translate(380 1907)" fill="#fff"/>
      <path id="Trazado_183362" data-name="Trazado 183362" d="M36.107,11.067a3.4,3.4,0,0,1-1.082,2.263,3.547,3.547,0,0,1-2.422.8,3.257,3.257,0,0,1-2.625-1.174,4.724,4.724,0,0,1-.987-3.142V8.922a5.266,5.266,0,0,1,.46-2.266,3.438,3.438,0,0,1,1.3-1.5,3.632,3.632,0,0,1,1.955-.524,3.34,3.34,0,0,1,2.361.822,3.441,3.441,0,0,1,1.035,2.276H34.882a2.655,2.655,0,0,0-.689-1.6,2.084,2.084,0,0,0-1.482-.5,2.181,2.181,0,0,0-1.831.864,3.966,3.966,0,0,0-.663,2.459v.9a4.077,4.077,0,0,0,.628,2.4,2.031,2.031,0,0,0,1.758.889,2.345,2.345,0,0,0,1.558-.46,2.554,2.554,0,0,0,.72-1.6Zm5.719,2.253a2.494,2.494,0,0,1-2.012.806,2.135,2.135,0,0,1-1.673-.638,2.761,2.761,0,0,1-.581-1.888V7.132h1.174v4.437q0,1.562,1.27,1.562a1.758,1.758,0,0,0,1.79-1v-5h1.174V14H41.852ZM48.993,14a2.467,2.467,0,0,1-.165-.724,2.62,2.62,0,0,1-1.955.851,2.424,2.424,0,0,1-1.666-.574,1.859,1.859,0,0,1-.651-1.457,1.942,1.942,0,0,1,.816-1.666,3.846,3.846,0,0,1,2.295-.594h1.143V9.3a1.319,1.319,0,0,0-.368-.981,1.48,1.48,0,0,0-1.085-.365,1.712,1.712,0,0,0-1.054.317.935.935,0,0,0-.425.768H44.7a1.621,1.621,0,0,1,.365-.993,2.491,2.491,0,0,1,.99-.759A3.331,3.331,0,0,1,47.425,7a2.715,2.715,0,0,1,1.86.594,2.141,2.141,0,0,1,.7,1.635v3.161a3.865,3.865,0,0,0,.241,1.5V14Zm-1.949-.9a2.064,2.064,0,0,0,1.047-.286,1.728,1.728,0,0,0,.717-.743V10.667h-.92q-2.158,0-2.158,1.263a1.069,1.069,0,0,0,.368.863A1.415,1.415,0,0,0,47.044,13.1Zm5.891-5.973L52.973,8A2.5,2.5,0,0,1,55.029,7q2.177,0,2.2,2.457V14H56.051V9.455a1.581,1.581,0,0,0-.34-1.1A1.361,1.361,0,0,0,54.674,8a1.7,1.7,0,0,0-1,.3,2.069,2.069,0,0,0-.673.8V14H51.824V7.132Zm5.776,3.377a4.023,4.023,0,0,1,.749-2.542,2.548,2.548,0,0,1,3.872-.136V4.25h1.174V14H63.427l-.057-.736a2.391,2.391,0,0,1-1.961.863,2.346,2.346,0,0,1-1.946-.978,4.069,4.069,0,0,1-.752-2.552Zm1.174.133a3.046,3.046,0,0,0,.482,1.828,1.56,1.56,0,0,0,1.333.66,1.713,1.713,0,0,0,1.631-1V8.973A1.726,1.726,0,0,0,61.713,8a1.567,1.567,0,0,0-1.346.667A3.354,3.354,0,0,0,59.885,10.642Zm6.132-.14a4.057,4.057,0,0,1,.4-1.815,2.96,2.96,0,0,1,1.1-1.244A3.007,3.007,0,0,1,69.134,7a2.9,2.9,0,0,1,2.269.971,3.736,3.736,0,0,1,.866,2.583v.083a4.092,4.092,0,0,1-.384,1.8,2.916,2.916,0,0,1-1.1,1.241,3.041,3.041,0,0,1-1.641.444,2.889,2.889,0,0,1-2.263-.971,3.718,3.718,0,0,1-.866-2.571Zm1.181.14a2.938,2.938,0,0,0,.53,1.834,1.8,1.8,0,0,0,2.841-.01A3.213,3.213,0,0,0,71.1,10.5a2.933,2.933,0,0,0-.536-1.831,1.705,1.705,0,0,0-1.425-.7,1.686,1.686,0,0,0-1.4.692A3.189,3.189,0,0,0,67.2,10.642Zm13.762,1.536a.864.864,0,0,0-.359-.74,3.452,3.452,0,0,0-1.25-.454,5.912,5.912,0,0,1-1.416-.457,2.014,2.014,0,0,1-.774-.635,1.518,1.518,0,0,1-.251-.876,1.782,1.782,0,0,1,.714-1.428A2.789,2.789,0,0,1,79.449,7a2.87,2.87,0,0,1,1.895.6A1.915,1.915,0,0,1,82.07,9.15H80.89a1.06,1.06,0,0,0-.409-.832,1.534,1.534,0,0,0-1.031-.349,1.606,1.606,0,0,0-1,.279.879.879,0,0,0-.362.73.712.712,0,0,0,.336.641,4.139,4.139,0,0,0,1.216.413,6.334,6.334,0,0,1,1.425.47,2.079,2.079,0,0,1,.809.657,1.615,1.615,0,0,1,.263.936,1.758,1.758,0,0,1-.736,1.476,3.089,3.089,0,0,1-1.911.555,3.459,3.459,0,0,1-1.46-.292,2.375,2.375,0,0,1-.993-.816,1.966,1.966,0,0,1-.359-1.133h1.174a1.216,1.216,0,0,0,.473.936,1.835,1.835,0,0,0,1.165.346,1.894,1.894,0,0,0,1.07-.27A.829.829,0,0,0,80.959,12.178Zm5.554,1.949a3,3,0,0,1-2.272-.917,3.4,3.4,0,0,1-.876-2.453v-.216a4.121,4.121,0,0,1,.39-1.825,3.045,3.045,0,0,1,1.092-1.257A2.745,2.745,0,0,1,86.368,7a2.572,2.572,0,0,1,2.082.882,3.82,3.82,0,0,1,.743,2.526V10.9H84.54a2.441,2.441,0,0,0,.594,1.641,1.866,1.866,0,0,0,1.444.625,2.045,2.045,0,0,0,1.054-.254,2.648,2.648,0,0,0,.755-.673l.717.559A2.884,2.884,0,0,1,86.514,14.127ZM86.368,7.97a1.566,1.566,0,0,0-1.193.517,2.515,2.515,0,0,0-.6,1.45h3.44V9.849a2.237,2.237,0,0,0-.482-1.387A1.475,1.475,0,0,0,86.368,7.97Zm10.251,6.157a3,3,0,0,1-2.272-.917,3.4,3.4,0,0,1-.876-2.453v-.216a4.121,4.121,0,0,1,.39-1.825,3.045,3.045,0,0,1,1.092-1.257A2.745,2.745,0,0,1,96.473,7a2.572,2.572,0,0,1,2.082.882,3.82,3.82,0,0,1,.743,2.526V10.9H94.645a2.441,2.441,0,0,0,.594,1.641,1.866,1.866,0,0,0,1.444.625,2.045,2.045,0,0,0,1.054-.254,2.648,2.648,0,0,0,.755-.673l.717.559A2.884,2.884,0,0,1,96.619,14.127ZM96.473,7.97a1.566,1.566,0,0,0-1.193.517,2.515,2.515,0,0,0-.6,1.45h3.44V9.849a2.237,2.237,0,0,0-.482-1.387A1.475,1.475,0,0,0,96.473,7.97Zm8.182,4.208a.864.864,0,0,0-.359-.74,3.452,3.452,0,0,0-1.25-.454,5.912,5.912,0,0,1-1.416-.457,2.014,2.014,0,0,1-.774-.635,1.518,1.518,0,0,1-.251-.876,1.782,1.782,0,0,1,.714-1.428A2.789,2.789,0,0,1,103.145,7a2.87,2.87,0,0,1,1.895.6,1.915,1.915,0,0,1,.727,1.542h-1.181a1.06,1.06,0,0,0-.409-.832,1.534,1.534,0,0,0-1.031-.349,1.606,1.606,0,0,0-1,.279.879.879,0,0,0-.362.73.712.712,0,0,0,.336.641,4.139,4.139,0,0,0,1.216.413,6.334,6.334,0,0,1,1.425.47,2.079,2.079,0,0,1,.809.657,1.615,1.615,0,0,1,.263.936,1.758,1.758,0,0,1-.736,1.476,3.089,3.089,0,0,1-1.911.555,3.459,3.459,0,0,1-1.46-.292,2.375,2.375,0,0,1-.993-.816,1.966,1.966,0,0,1-.359-1.133h1.174a1.216,1.216,0,0,0,.473.936,1.835,1.835,0,0,0,1.165.346,1.894,1.894,0,0,0,1.07-.27A.829.829,0,0,0,104.655,12.178Zm4.3-6.709V7.132h1.282V8.04h-1.282V12.3a.953.953,0,0,0,.171.62.721.721,0,0,0,.584.207,2.843,2.843,0,0,0,.559-.076V14a3.424,3.424,0,0,1-.9.126,1.462,1.462,0,0,1-1.187-.476,2.045,2.045,0,0,1-.4-1.352V8.04h-1.25V7.132h1.25V5.469ZM115.846,14a2.467,2.467,0,0,1-.165-.724,2.62,2.62,0,0,1-1.955.851,2.424,2.424,0,0,1-1.666-.574,1.859,1.859,0,0,1-.651-1.457,1.942,1.942,0,0,1,.816-1.666,3.846,3.846,0,0,1,2.295-.594h1.143V9.3a1.319,1.319,0,0,0-.368-.981,1.48,1.48,0,0,0-1.085-.365,1.712,1.712,0,0,0-1.054.317.935.935,0,0,0-.425.768h-1.181a1.621,1.621,0,0,1,.365-.993,2.491,2.491,0,0,1,.99-.759A3.331,3.331,0,0,1,114.278,7a2.715,2.715,0,0,1,1.86.594,2.141,2.141,0,0,1,.7,1.635v3.161a3.865,3.865,0,0,0,.241,1.5V14Zm-1.949-.9a2.064,2.064,0,0,0,1.047-.286,1.728,1.728,0,0,0,.717-.743V10.667h-.92q-2.158,0-2.158,1.263a1.069,1.069,0,0,0,.368.863A1.415,1.415,0,0,0,113.9,13.1Zm1.085-8.855H116.4l-1.7,1.866-.946,0Zm8.506,1.219V7.132h1.282V8.04h-1.282V12.3a.953.953,0,0,0,.171.62.721.721,0,0,0,.584.207,2.843,2.843,0,0,0,.559-.076V14a3.424,3.424,0,0,1-.9.126,1.462,1.462,0,0,1-1.187-.476,2.045,2.045,0,0,1-.4-1.352V8.04h-1.25V7.132h1.25V5.469Zm5.973,2.717a3.519,3.519,0,0,0-.578-.044,1.547,1.547,0,0,0-1.568.984V14h-1.174V7.132h1.143l.019.793A1.829,1.829,0,0,1,128.941,7a1.2,1.2,0,0,1,.521.089ZM134.527,14a2.467,2.467,0,0,1-.165-.724,2.62,2.62,0,0,1-1.955.851,2.424,2.424,0,0,1-1.666-.574,1.859,1.859,0,0,1-.651-1.457,1.942,1.942,0,0,1,.816-1.666,3.846,3.846,0,0,1,2.295-.594h1.143V9.3a1.319,1.319,0,0,0-.368-.981,1.48,1.48,0,0,0-1.085-.365,1.712,1.712,0,0,0-1.054.317.935.935,0,0,0-.425.768H130.23a1.621,1.621,0,0,1,.365-.993,2.491,2.491,0,0,1,.99-.759A3.331,3.331,0,0,1,132.959,7a2.715,2.715,0,0,1,1.86.594,2.141,2.141,0,0,1,.7,1.635v3.161a3.865,3.865,0,0,0,.241,1.5V14Zm-1.949-.9a2.064,2.064,0,0,0,1.047-.286,1.728,1.728,0,0,0,.717-.743V10.667h-.92q-2.158,0-2.158,1.263a1.069,1.069,0,0,0,.368.863A1.415,1.415,0,0,0,132.579,13.1Zm10.594-2.463a4.084,4.084,0,0,1-.724,2.53,2.312,2.312,0,0,1-1.942.955,2.394,2.394,0,0,1-2.012-.92l-.057.793h-1.079V4.25h1.174V7.887A2.381,2.381,0,0,1,140.494,7a2.326,2.326,0,0,1,1.965.946,4.206,4.206,0,0,1,.714,2.59ZM142,10.509a3.173,3.173,0,0,0-.463-1.854A1.534,1.534,0,0,0,140.2,8a1.724,1.724,0,0,0-1.669,1.079v2.971a1.772,1.772,0,0,0,1.682,1.079,1.526,1.526,0,0,0,1.314-.654A3.374,3.374,0,0,0,142,10.509ZM148.892,14a2.467,2.467,0,0,1-.165-.724,2.62,2.62,0,0,1-1.955.851,2.424,2.424,0,0,1-1.666-.574,1.859,1.859,0,0,1-.651-1.457,1.942,1.942,0,0,1,.816-1.666,3.846,3.846,0,0,1,2.295-.594h1.143V9.3a1.319,1.319,0,0,0-.368-.981,1.48,1.48,0,0,0-1.085-.365,1.712,1.712,0,0,0-1.054.317.935.935,0,0,0-.425.768h-1.181a1.621,1.621,0,0,1,.365-.993,2.491,2.491,0,0,1,.99-.759A3.331,3.331,0,0,1,147.324,7a2.715,2.715,0,0,1,1.86.594,2.141,2.141,0,0,1,.7,1.635v3.161a3.865,3.865,0,0,0,.241,1.5V14Zm-1.949-.9a2.064,2.064,0,0,0,1.047-.286,1.728,1.728,0,0,0,.717-.743V10.667h-.92q-2.158,0-2.158,1.263a1.069,1.069,0,0,0,.368.863A1.415,1.415,0,0,0,146.943,13.1Zm5.992-5.973v7.662q0,1.98-1.8,1.98a2.191,2.191,0,0,1-.717-.114v-.934a2.27,2.27,0,0,0,.533.051.8.8,0,0,0,.6-.213,1.052,1.052,0,0,0,.206-.74V7.132ZM151.641,5.31a.7.7,0,0,1,.175-.479.642.642,0,0,1,.511-.2.666.666,0,0,1,.521.2.694.694,0,0,1,.178.482.671.671,0,0,1-.178.476.678.678,0,0,1-.521.19.657.657,0,0,1-.514-.19A.685.685,0,0,1,151.641,5.31ZM159.067,14a2.467,2.467,0,0,1-.165-.724,2.62,2.62,0,0,1-1.955.851,2.424,2.424,0,0,1-1.666-.574,1.859,1.859,0,0,1-.651-1.457,1.942,1.942,0,0,1,.816-1.666,3.846,3.846,0,0,1,2.295-.594h1.143V9.3a1.319,1.319,0,0,0-.368-.981,1.48,1.48,0,0,0-1.085-.365,1.712,1.712,0,0,0-1.054.317.935.935,0,0,0-.425.768H154.77a1.621,1.621,0,0,1,.365-.993,2.491,2.491,0,0,1,.99-.759A3.331,3.331,0,0,1,157.5,7a2.715,2.715,0,0,1,1.86.594,2.141,2.141,0,0,1,.7,1.635v3.161a3.865,3.865,0,0,0,.241,1.5V14Zm-1.949-.9a2.064,2.064,0,0,0,1.047-.286,1.728,1.728,0,0,0,.717-.743V10.667h-.92q-2.158,0-2.158,1.263a1.069,1.069,0,0,0,.368.863A1.415,1.415,0,0,0,157.119,13.1Zm5.891-5.973.038.863A2.5,2.5,0,0,1,165.1,7q2.177,0,2.2,2.457V14h-1.174V9.455a1.581,1.581,0,0,0-.34-1.1A1.361,1.361,0,0,0,164.749,8a1.7,1.7,0,0,0-1,.3,2.069,2.069,0,0,0-.673.8V14H161.9V7.132Zm5.776,3.377a4.023,4.023,0,0,1,.749-2.542,2.548,2.548,0,0,1,3.872-.136V4.25h1.174V14H173.5l-.057-.736a2.391,2.391,0,0,1-1.961.863,2.346,2.346,0,0,1-1.946-.978,4.069,4.069,0,0,1-.752-2.552Zm1.174.133a3.046,3.046,0,0,0,.482,1.828,1.56,1.56,0,0,0,1.333.66,1.713,1.713,0,0,0,1.631-1V8.973A1.726,1.726,0,0,0,171.788,8a1.567,1.567,0,0,0-1.346.667A3.354,3.354,0,0,0,169.96,10.642Zm6.132-.14a4.057,4.057,0,0,1,.4-1.815,2.959,2.959,0,0,1,1.1-1.244A3.007,3.007,0,0,1,179.208,7a2.9,2.9,0,0,1,2.269.971,3.736,3.736,0,0,1,.866,2.583v.083a4.092,4.092,0,0,1-.384,1.8,2.916,2.916,0,0,1-1.1,1.241,3.041,3.041,0,0,1-1.641.444,2.889,2.889,0,0,1-2.263-.971,3.718,3.718,0,0,1-.866-2.571Zm1.181.14a2.938,2.938,0,0,0,.53,1.834,1.8,1.8,0,0,0,2.841-.01,3.213,3.213,0,0,0,.527-1.965,2.933,2.933,0,0,0-.536-1.831,1.705,1.705,0,0,0-1.425-.7,1.686,1.686,0,0,0-1.4.692A3.189,3.189,0,0,0,177.272,10.642Zm12.613,3.485a3,3,0,0,1-2.272-.917,3.4,3.4,0,0,1-.876-2.453v-.216a4.121,4.121,0,0,1,.39-1.825,3.045,3.045,0,0,1,1.092-1.257A2.745,2.745,0,0,1,189.739,7a2.572,2.572,0,0,1,2.082.882,3.82,3.82,0,0,1,.743,2.526V10.9h-4.653a2.441,2.441,0,0,0,.594,1.641,1.866,1.866,0,0,0,1.444.625A2.045,2.045,0,0,0,191,12.915a2.647,2.647,0,0,0,.755-.673l.717.559A2.884,2.884,0,0,1,189.885,14.127Zm-.146-6.157a1.566,1.566,0,0,0-1.193.517,2.515,2.515,0,0,0-.6,1.45h3.44V9.849a2.237,2.237,0,0,0-.482-1.387A1.475,1.475,0,0,0,189.739,7.97Zm5.294-.838.038.863A2.5,2.5,0,0,1,197.128,7q2.177,0,2.2,2.457V14H198.15V9.455a1.581,1.581,0,0,0-.34-1.1A1.361,1.361,0,0,0,196.772,8a1.7,1.7,0,0,0-1,.3,2.069,2.069,0,0,0-.673.8V14h-1.174V7.132Zm13.521,6.189a2.494,2.494,0,0,1-2.012.806,2.135,2.135,0,0,1-1.673-.638,2.761,2.761,0,0,1-.581-1.888V7.132h1.174v4.437q0,1.562,1.27,1.562a1.758,1.758,0,0,0,1.79-1v-5H209.7V14h-1.117Zm4.037-6.189.038.863A2.5,2.5,0,0,1,214.686,7q2.177,0,2.2,2.457V14h-1.174V9.455a1.581,1.581,0,0,0-.34-1.1A1.361,1.361,0,0,0,214.33,8a1.7,1.7,0,0,0-1,.3,2.069,2.069,0,0,0-.673.8V14H211.48V7.132Zm-199.4,27.51a4.113,4.113,0,0,1-.717,2.526,2.3,2.3,0,0,1-1.942.958,2.519,2.519,0,0,1-1.968-.793v3.307H7.387V31.132H8.46l.057.762A2.419,2.419,0,0,1,10.51,31a2.342,2.342,0,0,1,1.958.933,4.157,4.157,0,0,1,.72,2.6Zm-1.174-.133a3.035,3.035,0,0,0-.5-1.834A1.6,1.6,0,0,0,10.161,32a1.726,1.726,0,0,0-1.6.946v3.282a1.73,1.73,0,0,0,1.612.939,1.587,1.587,0,0,0,1.343-.67A3.312,3.312,0,0,0,12.014,34.509ZM18,32.186a3.519,3.519,0,0,0-.578-.044,1.547,1.547,0,0,0-1.568.984V38H14.68V31.132h1.143l.019.793A1.829,1.829,0,0,1,17.48,31a1.2,1.2,0,0,1,.521.089Zm.641,2.317a4.057,4.057,0,0,1,.4-1.815,2.96,2.96,0,0,1,1.1-1.244A3.007,3.007,0,0,1,21.758,31a2.9,2.9,0,0,1,2.269.971,3.736,3.736,0,0,1,.866,2.583v.083a4.092,4.092,0,0,1-.384,1.8,2.916,2.916,0,0,1-1.1,1.241,3.041,3.041,0,0,1-1.641.444,2.889,2.889,0,0,1-2.263-.971,3.718,3.718,0,0,1-.866-2.571Zm1.181.14a2.938,2.938,0,0,0,.53,1.834,1.8,1.8,0,0,0,2.841-.01,3.213,3.213,0,0,0,.527-1.965,2.933,2.933,0,0,0-.536-1.831,1.705,1.705,0,0,0-1.425-.7,1.686,1.686,0,0,0-1.4.692A3.189,3.189,0,0,0,19.822,34.642Zm12.359,0a4.084,4.084,0,0,1-.724,2.53,2.312,2.312,0,0,1-1.942.955,2.394,2.394,0,0,1-2.012-.92L27.446,38H26.366V28.25h1.174v3.637A2.381,2.381,0,0,1,29.5,31a2.326,2.326,0,0,1,1.965.946,4.206,4.206,0,0,1,.714,2.59Zm-1.174-.133a3.173,3.173,0,0,0-.463-1.854A1.534,1.534,0,0,0,29.21,32a1.724,1.724,0,0,0-1.669,1.079v2.971a1.772,1.772,0,0,0,1.682,1.079,1.526,1.526,0,0,0,1.314-.654A3.375,3.375,0,0,0,31.007,34.509ZM34.936,38H33.761V28.25h1.174Zm4.729.127a3,3,0,0,1-2.272-.917,3.4,3.4,0,0,1-.876-2.453v-.216a4.121,4.121,0,0,1,.39-1.825A3.045,3.045,0,0,1,38,31.459,2.745,2.745,0,0,1,39.519,31a2.572,2.572,0,0,1,2.082.882,3.82,3.82,0,0,1,.743,2.526V34.9H37.691a2.441,2.441,0,0,0,.594,1.641,1.866,1.866,0,0,0,1.444.625,2.045,2.045,0,0,0,1.054-.254,2.648,2.648,0,0,0,.755-.673l.717.559A2.884,2.884,0,0,1,39.665,38.127Zm-.146-6.157a1.566,1.566,0,0,0-1.193.517,2.515,2.515,0,0,0-.6,1.45h3.44v-.089a2.237,2.237,0,0,0-.482-1.387A1.475,1.475,0,0,0,39.519,31.97Zm5.288-.838.032.762A2.536,2.536,0,0,1,46.876,31a1.964,1.964,0,0,1,1.961,1.1,2.6,2.6,0,0,1,.892-.8,2.634,2.634,0,0,1,1.3-.3q2.26,0,2.3,2.393V38H52.151V33.468a1.577,1.577,0,0,0-.336-1.1A1.482,1.482,0,0,0,50.684,32a1.557,1.557,0,0,0-1.085.39,1.584,1.584,0,0,0-.5,1.051V38H47.917V33.5A1.31,1.31,0,0,0,46.45,32a1.571,1.571,0,0,0-1.581.984V38H43.7V31.132ZM59.336,38a2.467,2.467,0,0,1-.165-.724,2.62,2.62,0,0,1-1.955.851,2.424,2.424,0,0,1-1.666-.574A1.859,1.859,0,0,1,54.9,36.1a1.942,1.942,0,0,1,.816-1.666,3.846,3.846,0,0,1,2.295-.594h1.143V33.3a1.319,1.319,0,0,0-.368-.981,1.48,1.48,0,0,0-1.085-.365,1.712,1.712,0,0,0-1.054.317.935.935,0,0,0-.425.768H55.039a1.621,1.621,0,0,1,.365-.993,2.491,2.491,0,0,1,.99-.759A3.331,3.331,0,0,1,57.768,31a2.715,2.715,0,0,1,1.86.594,2.141,2.141,0,0,1,.7,1.635v3.161a3.865,3.865,0,0,0,.241,1.5V38Zm-1.949-.9a2.064,2.064,0,0,0,1.047-.286,1.728,1.728,0,0,0,.717-.743V34.667h-.92q-2.158,0-2.158,1.263a1.069,1.069,0,0,0,.368.863A1.415,1.415,0,0,0,57.387,37.1Zm4.742,2.736-.667-.457a3.063,3.063,0,0,0,.622-1.714V36.61h1.149v.92a2.891,2.891,0,0,1-.314,1.282A3,3,0,0,1,62.129,39.841ZM72.177,38a2.467,2.467,0,0,1-.165-.724,2.62,2.62,0,0,1-1.955.851,2.424,2.424,0,0,1-1.666-.574A1.859,1.859,0,0,1,67.74,36.1a1.942,1.942,0,0,1,.816-1.666,3.846,3.846,0,0,1,2.295-.594h1.143V33.3a1.319,1.319,0,0,0-.368-.981,1.48,1.48,0,0,0-1.085-.365,1.712,1.712,0,0,0-1.054.317.935.935,0,0,0-.425.768H67.88a1.621,1.621,0,0,1,.365-.993,2.491,2.491,0,0,1,.99-.759A3.331,3.331,0,0,1,70.61,31a2.715,2.715,0,0,1,1.86.594,2.141,2.141,0,0,1,.7,1.635v3.161a3.865,3.865,0,0,0,.241,1.5V38Zm-1.949-.9a2.064,2.064,0,0,0,1.047-.286,1.728,1.728,0,0,0,.717-.743V34.667h-.92q-2.158,0-2.158,1.263a1.069,1.069,0,0,0,.368.863A1.415,1.415,0,0,0,70.229,37.1Zm7.535.063a1.691,1.691,0,0,0,1.1-.381,1.34,1.34,0,0,0,.521-.952h1.111a2.13,2.13,0,0,1-.406,1.124,2.676,2.676,0,0,1-1,.851,2.885,2.885,0,0,1-1.323.317,2.829,2.829,0,0,1-2.231-.936,3.729,3.729,0,0,1-.828-2.561v-.2a4.135,4.135,0,0,1,.368-1.784,2.8,2.8,0,0,1,1.057-1.212A3,3,0,0,1,77.757,31a2.755,2.755,0,0,1,1.92.692,2.473,2.473,0,0,1,.816,1.8H79.382a1.618,1.618,0,0,0-.5-1.095,1.57,1.57,0,0,0-1.12-.428,1.644,1.644,0,0,0-1.387.644,3.026,3.026,0,0,0-.492,1.863V34.7a2.966,2.966,0,0,0,.489,1.828A1.651,1.651,0,0,0,77.763,37.168Zm6.9.958a3,3,0,0,1-2.272-.917,3.4,3.4,0,0,1-.876-2.453v-.216a4.121,4.121,0,0,1,.39-1.825A3.045,3.045,0,0,1,83,31.459,2.745,2.745,0,0,1,84.517,31a2.572,2.572,0,0,1,2.082.882,3.82,3.82,0,0,1,.743,2.526V34.9H82.689a2.441,2.441,0,0,0,.594,1.641,1.866,1.866,0,0,0,1.444.625,2.045,2.045,0,0,0,1.054-.254,2.648,2.648,0,0,0,.755-.673l.717.559A2.884,2.884,0,0,1,84.663,38.127Zm-.146-6.157a1.566,1.566,0,0,0-1.193.517,2.515,2.515,0,0,0-.6,1.45h3.44v-.089a2.237,2.237,0,0,0-.482-1.387A1.475,1.475,0,0,0,84.517,31.97ZM94.5,34.642a4.113,4.113,0,0,1-.717,2.526,2.3,2.3,0,0,1-1.942.958,2.519,2.519,0,0,1-1.968-.793v3.307H88.7V31.132h1.073l.057.762A2.419,2.419,0,0,1,91.823,31a2.342,2.342,0,0,1,1.958.933,4.157,4.157,0,0,1,.72,2.6Zm-1.174-.133a3.035,3.035,0,0,0-.5-1.834A1.6,1.6,0,0,0,91.474,32a1.726,1.726,0,0,0-1.6.946v3.282a1.73,1.73,0,0,0,1.612.939,1.587,1.587,0,0,0,1.343-.67A3.313,3.313,0,0,0,93.328,34.509Zm4.259-5.04v1.663h1.282v.908H97.587V36.3a.953.953,0,0,0,.171.62.721.721,0,0,0,.584.207,2.843,2.843,0,0,0,.559-.076V38a3.424,3.424,0,0,1-.9.126,1.462,1.462,0,0,1-1.187-.476,2.045,2.045,0,0,1-.4-1.352V32.04h-1.25v-.908h1.25V29.469ZM104.481,38a2.467,2.467,0,0,1-.165-.724,2.62,2.62,0,0,1-1.955.851,2.424,2.424,0,0,1-1.666-.574,1.859,1.859,0,0,1-.651-1.457,1.942,1.942,0,0,1,.816-1.666,3.846,3.846,0,0,1,2.295-.594H104.3V33.3a1.319,1.319,0,0,0-.368-.981,1.48,1.48,0,0,0-1.085-.365,1.712,1.712,0,0,0-1.054.317.935.935,0,0,0-.425.768h-1.181a1.621,1.621,0,0,1,.365-.993,2.491,2.491,0,0,1,.99-.759A3.331,3.331,0,0,1,102.913,31a2.715,2.715,0,0,1,1.86.594,2.141,2.141,0,0,1,.7,1.635v3.161a3.865,3.865,0,0,0,.241,1.5V38Zm-1.949-.9a2.064,2.064,0,0,0,1.047-.286,1.728,1.728,0,0,0,.717-.743V34.667h-.92q-2.158,0-2.158,1.263a1.069,1.069,0,0,0,.368.863A1.415,1.415,0,0,0,102.532,37.1Zm8.1-4.919a3.519,3.519,0,0,0-.578-.044,1.547,1.547,0,0,0-1.568.984V38h-1.174V31.132h1.143l.019.793a1.829,1.829,0,0,1,1.638-.92,1.2,1.2,0,0,1,.521.089Zm4.012,2.323a4.031,4.031,0,0,1,.743-2.561,2.621,2.621,0,0,1,3.917-.124l.051-.692h1.079v9.509h-1.174V37.365a2.465,2.465,0,0,1-1.892.762,2.369,2.369,0,0,1-1.984-.968,4.121,4.121,0,0,1-.74-2.568Zm1.174.133a3.056,3.056,0,0,0,.5,1.854,1.585,1.585,0,0,0,1.343.673,1.758,1.758,0,0,0,1.6-.927V32.877a1.764,1.764,0,0,0-1.587-.908,1.6,1.6,0,0,0-1.352.676A3.327,3.327,0,0,0,115.818,34.642Zm10.74,2.679a2.494,2.494,0,0,1-2.012.806,2.135,2.135,0,0,1-1.673-.638,2.761,2.761,0,0,1-.581-1.888V31.132h1.174v4.437q0,1.562,1.27,1.562a1.758,1.758,0,0,0,1.79-1v-5H127.7V38h-1.117Zm5.776.806a3,3,0,0,1-2.272-.917,3.4,3.4,0,0,1-.876-2.453v-.216a4.121,4.121,0,0,1,.39-1.825,3.045,3.045,0,0,1,1.092-1.257,2.745,2.745,0,0,1,1.52-.454,2.572,2.572,0,0,1,2.082.882,3.82,3.82,0,0,1,.743,2.526V34.9H130.36a2.441,2.441,0,0,0,.594,1.641,1.866,1.866,0,0,0,1.444.625,2.045,2.045,0,0,0,1.054-.254,2.647,2.647,0,0,0,.755-.673l.717.559A2.884,2.884,0,0,1,132.334,38.127Zm-.146-6.157a1.566,1.566,0,0,0-1.193.517,2.515,2.515,0,0,0-.6,1.45h3.44v-.089a2.237,2.237,0,0,0-.482-1.387A1.475,1.475,0,0,0,132.188,31.97ZM140.865,38h-1.174V28.25h1.174Zm6.119,0a2.467,2.467,0,0,1-.165-.724,2.62,2.62,0,0,1-1.955.851,2.424,2.424,0,0,1-1.666-.574,1.859,1.859,0,0,1-.651-1.457,1.942,1.942,0,0,1,.816-1.666,3.846,3.846,0,0,1,2.295-.594H146.8V33.3a1.319,1.319,0,0,0-.368-.981,1.48,1.48,0,0,0-1.085-.365,1.712,1.712,0,0,0-1.054.317.935.935,0,0,0-.425.768h-1.181a1.621,1.621,0,0,1,.365-.993,2.491,2.491,0,0,1,.99-.759A3.331,3.331,0,0,1,145.417,31a2.715,2.715,0,0,1,1.86.594,2.141,2.141,0,0,1,.7,1.635v3.161a3.865,3.865,0,0,0,.241,1.5V38Zm-1.949-.9a2.064,2.064,0,0,0,1.047-.286,1.728,1.728,0,0,0,.717-.743V34.667h-.92q-2.158,0-2.158,1.263a1.069,1.069,0,0,0,.368.863A1.415,1.415,0,0,0,145.036,37.1Zm8.779-.927a.865.865,0,0,0-.359-.74,3.452,3.452,0,0,0-1.25-.454,5.912,5.912,0,0,1-1.416-.457,2.014,2.014,0,0,1-.774-.635,1.518,1.518,0,0,1-.251-.876,1.782,1.782,0,0,1,.714-1.428A2.789,2.789,0,0,1,152.3,31a2.87,2.87,0,0,1,1.895.6,1.915,1.915,0,0,1,.727,1.542h-1.181a1.06,1.06,0,0,0-.409-.832,1.534,1.534,0,0,0-1.031-.349,1.605,1.605,0,0,0-1,.279.879.879,0,0,0-.362.73.712.712,0,0,0,.336.641,4.139,4.139,0,0,0,1.216.413,6.334,6.334,0,0,1,1.425.47,2.079,2.079,0,0,1,.809.657,1.615,1.615,0,0,1,.263.936,1.758,1.758,0,0,1-.736,1.476,3.089,3.089,0,0,1-1.911.555,3.459,3.459,0,0,1-1.46-.292,2.374,2.374,0,0,1-.993-.816,1.966,1.966,0,0,1-.359-1.133H150.7a1.216,1.216,0,0,0,.473.936,1.835,1.835,0,0,0,1.165.346,1.894,1.894,0,0,0,1.07-.27A.829.829,0,0,0,153.815,36.178Zm8.677.99a1.692,1.692,0,0,0,1.1-.381,1.34,1.34,0,0,0,.521-.952h1.111a2.13,2.13,0,0,1-.406,1.124,2.676,2.676,0,0,1-1,.851,2.885,2.885,0,0,1-1.323.317,2.829,2.829,0,0,1-2.231-.936,3.729,3.729,0,0,1-.828-2.561v-.2a4.135,4.135,0,0,1,.368-1.784,2.8,2.8,0,0,1,1.057-1.212A3,3,0,0,1,162.486,31a2.755,2.755,0,0,1,1.92.692,2.473,2.473,0,0,1,.816,1.8h-1.111a1.618,1.618,0,0,0-.5-1.095,1.57,1.57,0,0,0-1.12-.428,1.644,1.644,0,0,0-1.387.644,3.026,3.026,0,0,0-.492,1.863V34.7a2.965,2.965,0,0,0,.489,1.828A1.651,1.651,0,0,0,162.492,37.168Zm3.739-2.666a4.057,4.057,0,0,1,.4-1.815,2.959,2.959,0,0,1,1.1-1.244A3.007,3.007,0,0,1,169.347,31a2.9,2.9,0,0,1,2.269.971,3.736,3.736,0,0,1,.866,2.583v.083a4.092,4.092,0,0,1-.384,1.8,2.916,2.916,0,0,1-1.1,1.241,3.041,3.041,0,0,1-1.641.444,2.889,2.889,0,0,1-2.263-.971,3.718,3.718,0,0,1-.866-2.571Zm1.181.14a2.938,2.938,0,0,0,.53,1.834,1.8,1.8,0,0,0,2.841-.01,3.213,3.213,0,0,0,.527-1.965,2.933,2.933,0,0,0-.536-1.831,1.705,1.705,0,0,0-1.425-.7,1.686,1.686,0,0,0-1.4.692A3.189,3.189,0,0,0,167.411,34.642Zm10.543,1.536a.865.865,0,0,0-.359-.74,3.452,3.452,0,0,0-1.25-.454,5.912,5.912,0,0,1-1.416-.457,2.014,2.014,0,0,1-.774-.635,1.518,1.518,0,0,1-.251-.876,1.782,1.782,0,0,1,.714-1.428A2.789,2.789,0,0,1,176.444,31a2.87,2.87,0,0,1,1.895.6,1.915,1.915,0,0,1,.727,1.542h-1.181a1.06,1.06,0,0,0-.409-.832,1.534,1.534,0,0,0-1.031-.349,1.605,1.605,0,0,0-1,.279.879.879,0,0,0-.362.73.712.712,0,0,0,.336.641,4.139,4.139,0,0,0,1.216.413,6.334,6.334,0,0,1,1.425.47,2.079,2.079,0,0,1,.809.657,1.615,1.615,0,0,1,.263.936,1.758,1.758,0,0,1-.736,1.476,3.089,3.089,0,0,1-1.911.555,3.459,3.459,0,0,1-1.46-.292,2.374,2.374,0,0,1-.993-.816,1.966,1.966,0,0,1-.359-1.133h1.174a1.216,1.216,0,0,0,.473.936,1.835,1.835,0,0,0,1.165.346,1.894,1.894,0,0,0,1.07-.27A.829.829,0,0,0,177.955,36.178ZM184.9,38a2.467,2.467,0,0,1-.165-.724,2.62,2.62,0,0,1-1.955.851,2.424,2.424,0,0,1-1.666-.574,1.859,1.859,0,0,1-.651-1.457,1.942,1.942,0,0,1,.816-1.666,3.846,3.846,0,0,1,2.295-.594h1.143V33.3a1.319,1.319,0,0,0-.368-.981,1.48,1.48,0,0,0-1.085-.365,1.712,1.712,0,0,0-1.054.317.935.935,0,0,0-.425.768H180.6a1.621,1.621,0,0,1,.365-.993,2.491,2.491,0,0,1,.99-.759A3.331,3.331,0,0,1,183.331,31a2.715,2.715,0,0,1,1.86.594,2.141,2.141,0,0,1,.7,1.635v3.161a3.865,3.865,0,0,0,.241,1.5V38Zm-1.949-.9A2.064,2.064,0,0,0,184,36.819a1.728,1.728,0,0,0,.717-.743V34.667h-.92q-2.158,0-2.158,1.263a1.069,1.069,0,0,0,.368.863A1.415,1.415,0,0,0,182.95,37.1Zm8.779-.927a.865.865,0,0,0-.359-.74,3.452,3.452,0,0,0-1.25-.454,5.912,5.912,0,0,1-1.416-.457,2.014,2.014,0,0,1-.774-.635,1.518,1.518,0,0,1-.251-.876,1.782,1.782,0,0,1,.714-1.428A2.789,2.789,0,0,1,190.219,31a2.87,2.87,0,0,1,1.895.6,1.915,1.915,0,0,1,.727,1.542h-1.181a1.06,1.06,0,0,0-.409-.832,1.534,1.534,0,0,0-1.031-.349,1.605,1.605,0,0,0-1,.279.879.879,0,0,0-.362.73.712.712,0,0,0,.336.641,4.139,4.139,0,0,0,1.216.413,6.334,6.334,0,0,1,1.425.47,2.079,2.079,0,0,1,.809.657,1.615,1.615,0,0,1,.263.936,1.758,1.758,0,0,1-.736,1.476,3.089,3.089,0,0,1-1.911.555,3.459,3.459,0,0,1-1.46-.292,2.374,2.374,0,0,1-.993-.816,1.966,1.966,0,0,1-.359-1.133h1.174a1.216,1.216,0,0,0,.473.936,1.835,1.835,0,0,0,1.165.346,1.894,1.894,0,0,0,1.07-.27A.829.829,0,0,0,191.729,36.178Zm11.724-1.536a4.112,4.112,0,0,1-.717,2.526,2.3,2.3,0,0,1-1.942.958,2.519,2.519,0,0,1-1.968-.793v3.307h-1.174V31.132h1.073l.057.762A2.419,2.419,0,0,1,200.775,31a2.342,2.342,0,0,1,1.958.933,4.157,4.157,0,0,1,.72,2.6Zm-1.174-.133a3.035,3.035,0,0,0-.5-1.834A1.6,1.6,0,0,0,200.426,32a1.726,1.726,0,0,0-1.6.946v3.282a1.73,1.73,0,0,0,1.612.939,1.587,1.587,0,0,0,1.343-.67A3.312,3.312,0,0,0,202.279,34.509Zm6.906,2.812a2.494,2.494,0,0,1-2.012.806,2.135,2.135,0,0,1-1.673-.638,2.761,2.761,0,0,1-.581-1.888V31.132h1.174v4.437q0,1.562,1.27,1.562a1.758,1.758,0,0,0,1.79-1v-5h1.174V38h-1.117Zm5.776.806a3,3,0,0,1-2.272-.917,3.4,3.4,0,0,1-.876-2.453v-.216a4.121,4.121,0,0,1,.39-1.825,3.045,3.045,0,0,1,1.092-1.257,2.745,2.745,0,0,1,1.52-.454,2.572,2.572,0,0,1,2.082.882,3.82,3.82,0,0,1,.743,2.526V34.9h-4.653a2.441,2.441,0,0,0,.594,1.641,1.866,1.866,0,0,0,1.444.625,2.045,2.045,0,0,0,1.054-.254,2.647,2.647,0,0,0,.755-.673l.717.559A2.884,2.884,0,0,1,214.962,38.127Zm-.146-6.157a1.566,1.566,0,0,0-1.193.517,2.515,2.515,0,0,0-.6,1.45h3.44v-.089a2.237,2.237,0,0,0-.482-1.387A1.475,1.475,0,0,0,214.816,31.97Zm3.9,2.539a4.023,4.023,0,0,1,.749-2.542,2.548,2.548,0,0,1,3.872-.136V28.25h1.174V38h-1.079l-.057-.736a2.391,2.391,0,0,1-1.961.863,2.346,2.346,0,0,1-1.946-.978,4.069,4.069,0,0,1-.752-2.552Zm1.174.133a3.046,3.046,0,0,0,.482,1.828,1.56,1.56,0,0,0,1.333.66,1.713,1.713,0,0,0,1.631-1V32.973A1.726,1.726,0,0,0,221.716,32a1.567,1.567,0,0,0-1.346.667A3.354,3.354,0,0,0,219.887,34.642Zm9.293,3.485a3,3,0,0,1-2.272-.917,3.4,3.4,0,0,1-.876-2.453v-.216a4.121,4.121,0,0,1,.39-1.825,3.045,3.045,0,0,1,1.092-1.257,2.745,2.745,0,0,1,1.52-.454,2.572,2.572,0,0,1,2.082.882,3.82,3.82,0,0,1,.743,2.526V34.9h-4.653a2.441,2.441,0,0,0,.594,1.641,1.866,1.866,0,0,0,1.444.625,2.045,2.045,0,0,0,1.054-.254,2.647,2.647,0,0,0,.755-.673l.717.559A2.884,2.884,0,0,1,229.18,38.127Zm-.146-6.157a1.566,1.566,0,0,0-1.193.517,2.515,2.515,0,0,0-.6,1.45h3.44v-.089a2.237,2.237,0,0,0-.482-1.387A1.475,1.475,0,0,0,229.034,31.97Zm5.294-.838.038.863a2.5,2.5,0,0,1,2.057-.99q2.177,0,2.2,2.457V38h-1.174V33.455a1.581,1.581,0,0,0-.34-1.1A1.361,1.361,0,0,0,236.068,32a1.7,1.7,0,0,0-1,.3,2.069,2.069,0,0,0-.673.8V38h-1.174V31.132ZM10.878,60.178a.864.864,0,0,0-.359-.74,3.452,3.452,0,0,0-1.25-.454,5.912,5.912,0,0,1-1.416-.457,2.014,2.014,0,0,1-.774-.635,1.518,1.518,0,0,1-.251-.876,1.782,1.782,0,0,1,.714-1.428A2.789,2.789,0,0,1,9.367,55a2.87,2.87,0,0,1,1.895.6,1.915,1.915,0,0,1,.727,1.542H10.808a1.06,1.06,0,0,0-.409-.832,1.534,1.534,0,0,0-1.031-.349,1.605,1.605,0,0,0-1,.279.879.879,0,0,0-.362.73.712.712,0,0,0,.336.641,4.139,4.139,0,0,0,1.216.413,6.334,6.334,0,0,1,1.425.47,2.079,2.079,0,0,1,.809.657,1.615,1.615,0,0,1,.263.936,1.758,1.758,0,0,1-.736,1.476,3.089,3.089,0,0,1-1.911.555,3.459,3.459,0,0,1-1.46-.292,2.374,2.374,0,0,1-.993-.816,1.966,1.966,0,0,1-.359-1.133H7.768a1.216,1.216,0,0,0,.473.936,1.835,1.835,0,0,0,1.165.346,1.894,1.894,0,0,0,1.07-.27A.829.829,0,0,0,10.878,60.178Zm5.554,1.949a3,3,0,0,1-2.272-.917,3.4,3.4,0,0,1-.876-2.453v-.216a4.121,4.121,0,0,1,.39-1.825,3.045,3.045,0,0,1,1.092-1.257A2.745,2.745,0,0,1,16.286,55a2.572,2.572,0,0,1,2.082.882,3.82,3.82,0,0,1,.743,2.526V58.9H14.458a2.441,2.441,0,0,0,.594,1.641,1.866,1.866,0,0,0,1.444.625,2.045,2.045,0,0,0,1.054-.254,2.648,2.648,0,0,0,.755-.673l.717.559A2.884,2.884,0,0,1,16.432,62.127Zm-.146-6.157a1.566,1.566,0,0,0-1.193.517,2.515,2.515,0,0,0-.6,1.45h3.44v-.089a2.237,2.237,0,0,0-.482-1.387A1.475,1.475,0,0,0,16.286,55.97Zm7.5.216a3.519,3.519,0,0,0-.578-.044,1.547,1.547,0,0,0-1.568.984V62H20.469V55.132h1.143l.019.793A1.829,1.829,0,0,1,23.269,55a1.2,1.2,0,0,1,.521.089Zm10.1,2.457a4.113,4.113,0,0,1-.717,2.526,2.3,2.3,0,0,1-1.942.958,2.519,2.519,0,0,1-1.968-.793v3.307H28.087V55.132h1.073l.057.762A2.419,2.419,0,0,1,31.21,55a2.342,2.342,0,0,1,1.958.933,4.157,4.157,0,0,1,.72,2.6Zm-1.174-.133a3.035,3.035,0,0,0-.5-1.834A1.6,1.6,0,0,0,30.861,56a1.726,1.726,0,0,0-1.6.946v3.282a1.73,1.73,0,0,0,1.612.939,1.587,1.587,0,0,0,1.343-.67A3.312,3.312,0,0,0,32.714,58.509Zm2.355-.006a4.057,4.057,0,0,1,.4-1.815,2.96,2.96,0,0,1,1.1-1.244A3.007,3.007,0,0,1,38.186,55a2.9,2.9,0,0,1,2.269.971,3.736,3.736,0,0,1,.866,2.583v.083a4.092,4.092,0,0,1-.384,1.8,2.916,2.916,0,0,1-1.1,1.241,3.041,3.041,0,0,1-1.641.444,2.889,2.889,0,0,1-2.263-.971,3.718,3.718,0,0,1-.866-2.571Zm1.181.14a2.938,2.938,0,0,0,.53,1.834,1.8,1.8,0,0,0,2.841-.01,3.213,3.213,0,0,0,.527-1.965,2.933,2.933,0,0,0-.536-1.831,1.705,1.705,0,0,0-1.425-.7,1.686,1.686,0,0,0-1.4.692A3.189,3.189,0,0,0,36.25,58.642Zm9.3,2.526a1.692,1.692,0,0,0,1.1-.381,1.34,1.34,0,0,0,.521-.952h1.111a2.13,2.13,0,0,1-.406,1.124,2.676,2.676,0,0,1-1,.851,2.885,2.885,0,0,1-1.323.317,2.829,2.829,0,0,1-2.231-.936,3.729,3.729,0,0,1-.828-2.561v-.2a4.135,4.135,0,0,1,.368-1.784,2.8,2.8,0,0,1,1.057-1.212A3,3,0,0,1,45.543,55a2.755,2.755,0,0,1,1.92.692,2.473,2.473,0,0,1,.816,1.8H47.168a1.618,1.618,0,0,0-.5-1.095,1.57,1.57,0,0,0-1.12-.428,1.644,1.644,0,0,0-1.387.644,3.026,3.026,0,0,0-.492,1.863V58.7a2.965,2.965,0,0,0,.489,1.828A1.651,1.651,0,0,0,45.549,61.168ZM49.288,58.5a4.057,4.057,0,0,1,.4-1.815,2.96,2.96,0,0,1,1.1-1.244A3.007,3.007,0,0,1,52.4,55a2.9,2.9,0,0,1,2.269.971,3.736,3.736,0,0,1,.866,2.583v.083a4.092,4.092,0,0,1-.384,1.8,2.916,2.916,0,0,1-1.1,1.241,3.041,3.041,0,0,1-1.641.444,2.889,2.889,0,0,1-2.263-.971,3.718,3.718,0,0,1-.866-2.571Zm1.181.14A2.938,2.938,0,0,0,51,60.477a1.8,1.8,0,0,0,2.841-.01,3.213,3.213,0,0,0,.527-1.965,2.933,2.933,0,0,0-.536-1.831,1.705,1.705,0,0,0-1.425-.7,1.686,1.686,0,0,0-1.4.692A3.189,3.189,0,0,0,50.469,58.642Zm12.518,2.526a1.692,1.692,0,0,0,1.1-.381,1.34,1.34,0,0,0,.521-.952h1.111a2.13,2.13,0,0,1-.406,1.124,2.676,2.676,0,0,1-1,.851,2.885,2.885,0,0,1-1.323.317,2.829,2.829,0,0,1-2.231-.936,3.729,3.729,0,0,1-.828-2.561v-.2a4.135,4.135,0,0,1,.368-1.784,2.8,2.8,0,0,1,1.057-1.212A3,3,0,0,1,62.98,55a2.755,2.755,0,0,1,1.92.692,2.473,2.473,0,0,1,.816,1.8H64.6a1.618,1.618,0,0,0-.5-1.095,1.57,1.57,0,0,0-1.12-.428,1.644,1.644,0,0,0-1.387.644,3.026,3.026,0,0,0-.492,1.863V58.7a2.965,2.965,0,0,0,.489,1.828A1.651,1.651,0,0,0,62.986,61.168ZM68.312,62H67.137V52.25h1.174Zm6.119,0a2.467,2.467,0,0,1-.165-.724,2.62,2.62,0,0,1-1.955.851,2.424,2.424,0,0,1-1.666-.574,1.859,1.859,0,0,1-.651-1.457,1.942,1.942,0,0,1,.816-1.666,3.846,3.846,0,0,1,2.295-.594h1.143V57.3a1.319,1.319,0,0,0-.368-.981,1.48,1.48,0,0,0-1.085-.365,1.712,1.712,0,0,0-1.054.317.935.935,0,0,0-.425.768H70.134a1.621,1.621,0,0,1,.365-.993,2.491,2.491,0,0,1,.99-.759A3.331,3.331,0,0,1,72.863,55a2.715,2.715,0,0,1,1.86.594,2.141,2.141,0,0,1,.7,1.635v3.161a3.865,3.865,0,0,0,.241,1.5V62Zm-1.949-.9a2.064,2.064,0,0,0,1.047-.286,1.728,1.728,0,0,0,.717-.743V58.667h-.92q-2.158,0-2.158,1.263a1.069,1.069,0,0,0,.368.863A1.415,1.415,0,0,0,72.482,61.1Zm8.1-4.919A3.519,3.519,0,0,0,80,56.141a1.547,1.547,0,0,0-1.568.984V62H77.262V55.132H78.4l.019.793A1.829,1.829,0,0,1,80.061,55a1.2,1.2,0,0,1,.521.089ZM85.647,62a2.467,2.467,0,0,1-.165-.724,2.62,2.62,0,0,1-1.955.851,2.424,2.424,0,0,1-1.666-.574A1.859,1.859,0,0,1,81.21,60.1a1.942,1.942,0,0,1,.816-1.666,3.846,3.846,0,0,1,2.295-.594h1.143V57.3a1.319,1.319,0,0,0-.368-.981,1.48,1.48,0,0,0-1.085-.365,1.712,1.712,0,0,0-1.054.317.935.935,0,0,0-.425.768H81.35a1.621,1.621,0,0,1,.365-.993,2.491,2.491,0,0,1,.99-.759A3.331,3.331,0,0,1,84.079,55a2.715,2.715,0,0,1,1.86.594,2.141,2.141,0,0,1,.7,1.635v3.161a3.865,3.865,0,0,0,.241,1.5V62ZM83.7,61.1a2.064,2.064,0,0,0,1.047-.286,1.728,1.728,0,0,0,.717-.743V58.667h-.92q-2.158,0-2.158,1.263a1.069,1.069,0,0,0,.368.863A1.415,1.415,0,0,0,83.7,61.1Zm8.779-.927a.864.864,0,0,0-.359-.74,3.452,3.452,0,0,0-1.25-.454,5.912,5.912,0,0,1-1.416-.457,2.014,2.014,0,0,1-.774-.635,1.518,1.518,0,0,1-.251-.876,1.782,1.782,0,0,1,.714-1.428A2.789,2.789,0,0,1,90.967,55a2.87,2.87,0,0,1,1.895.6,1.915,1.915,0,0,1,.727,1.542H92.407A1.06,1.06,0,0,0,92,56.319a1.534,1.534,0,0,0-1.031-.349,1.605,1.605,0,0,0-1,.279.879.879,0,0,0-.362.73.712.712,0,0,0,.336.641,4.139,4.139,0,0,0,1.216.413,6.334,6.334,0,0,1,1.425.47,2.079,2.079,0,0,1,.809.657,1.615,1.615,0,0,1,.263.936,1.758,1.758,0,0,1-.736,1.476A3.089,3.089,0,0,1,91,62.127a3.459,3.459,0,0,1-1.46-.292,2.374,2.374,0,0,1-.993-.816,1.966,1.966,0,0,1-.359-1.133h1.174a1.216,1.216,0,0,0,.473.936A1.835,1.835,0,0,0,91,61.168a1.894,1.894,0,0,0,1.07-.27A.829.829,0,0,0,92.477,60.178ZM98.089,58.5a4.057,4.057,0,0,1,.4-1.815,2.96,2.96,0,0,1,1.1-1.244A3.007,3.007,0,0,1,101.205,55a2.9,2.9,0,0,1,2.269.971,3.736,3.736,0,0,1,.866,2.583v.083a4.092,4.092,0,0,1-.384,1.8,2.916,2.916,0,0,1-1.1,1.241,3.041,3.041,0,0,1-1.641.444,2.889,2.889,0,0,1-2.263-.971,3.718,3.718,0,0,1-.866-2.571Zm1.181.14a2.938,2.938,0,0,0,.53,1.834,1.8,1.8,0,0,0,2.841-.01,3.213,3.213,0,0,0,.527-1.965,2.933,2.933,0,0,0-.536-1.831,1.705,1.705,0,0,0-1.425-.7,1.686,1.686,0,0,0-1.4.692A3.189,3.189,0,0,0,99.269,58.642Zm10.867-3.51.032.762A2.536,2.536,0,0,1,112.206,55a1.964,1.964,0,0,1,1.961,1.1,2.6,2.6,0,0,1,.892-.8,2.634,2.634,0,0,1,1.3-.3q2.26,0,2.3,2.393V62h-1.174V57.468a1.577,1.577,0,0,0-.336-1.1,1.482,1.482,0,0,0-1.13-.365,1.557,1.557,0,0,0-1.085.39,1.584,1.584,0,0,0-.5,1.051V62h-1.181V57.5a1.31,1.31,0,0,0-1.466-1.5,1.571,1.571,0,0,0-1.581.984V62h-1.174V55.132ZM124.666,62a2.467,2.467,0,0,1-.165-.724,2.62,2.62,0,0,1-1.955.851,2.424,2.424,0,0,1-1.666-.574,1.859,1.859,0,0,1-.651-1.457,1.942,1.942,0,0,1,.816-1.666,3.846,3.846,0,0,1,2.295-.594h1.143V57.3a1.319,1.319,0,0,0-.368-.981,1.48,1.48,0,0,0-1.085-.365,1.712,1.712,0,0,0-1.054.317.935.935,0,0,0-.425.768h-1.181a1.621,1.621,0,0,1,.365-.993,2.491,2.491,0,0,1,.99-.759A3.331,3.331,0,0,1,123.1,55a2.715,2.715,0,0,1,1.86.594,2.141,2.141,0,0,1,.7,1.635v3.161a3.865,3.865,0,0,0,.241,1.5V62Zm-1.949-.9a2.064,2.064,0,0,0,1.047-.286,1.728,1.728,0,0,0,.717-.743V58.667h-.92q-2.158,0-2.158,1.263a1.069,1.069,0,0,0,.368.863A1.415,1.415,0,0,0,122.718,61.1Zm6.056.9H127.6V52.25h1.174Zm4.812-3.491a4.023,4.023,0,0,1,.749-2.542,2.548,2.548,0,0,1,3.872-.136V52.25h1.174V62H138.3l-.057-.736a2.391,2.391,0,0,1-1.961.863,2.346,2.346,0,0,1-1.946-.978,4.069,4.069,0,0,1-.752-2.552Zm1.174.133a3.046,3.046,0,0,0,.482,1.828,1.56,1.56,0,0,0,1.333.66,1.713,1.713,0,0,0,1.631-1V56.973A1.726,1.726,0,0,0,136.587,56a1.567,1.567,0,0,0-1.346.667A3.354,3.354,0,0,0,134.759,58.642Zm9.293,3.485a3,3,0,0,1-2.272-.917,3.4,3.4,0,0,1-.876-2.453v-.216a4.121,4.121,0,0,1,.39-1.825,3.045,3.045,0,0,1,1.092-1.257,2.745,2.745,0,0,1,1.52-.454,2.572,2.572,0,0,1,2.082.882,3.82,3.82,0,0,1,.743,2.526V58.9h-4.653a2.441,2.441,0,0,0,.594,1.641,1.866,1.866,0,0,0,1.444.625,2.045,2.045,0,0,0,1.054-.254,2.647,2.647,0,0,0,.755-.673l.717.559A2.884,2.884,0,0,1,144.052,62.127Zm-.146-6.157a1.566,1.566,0,0,0-1.193.517,2.515,2.515,0,0,0-.6,1.45h3.44v-.089a2.237,2.237,0,0,0-.482-1.387A1.475,1.475,0,0,0,143.906,55.97ZM148.483,62V56.04H147.4v-.908h1.085v-.584a2.386,2.386,0,0,1,.657-1.79A2.548,2.548,0,0,1,151,52.117a5.591,5.591,0,0,1,1.8.387l-.2.99a4.069,4.069,0,0,0-1.511-.317,1.478,1.478,0,0,0-1.089.34,1.4,1.4,0,0,0-.333,1.019v.6h1.4v.908h-1.4V62Zm4.894,0H152.2V55.132h1.181Zm3.021-6.868.038.863a2.5,2.5,0,0,1,2.057-.99q2.177,0,2.2,2.457V62h-1.174V57.455a1.581,1.581,0,0,0-.34-1.1A1.361,1.361,0,0,0,158.137,56a1.7,1.7,0,0,0-1,.3,2.069,2.069,0,0,0-.673.8V62h-1.174V55.132ZM163.736,62h-1.174V55.132h1.174Zm-1.27-8.69a.7.7,0,0,1,.175-.482.655.655,0,0,1,.517-.2.666.666,0,0,1,.521.2.694.694,0,0,1,.178.482.671.671,0,0,1-.178.476.678.678,0,0,1-.521.19.667.667,0,0,1-.517-.19A.678.678,0,0,1,162.467,53.31Zm2.863,5.2a4.023,4.023,0,0,1,.749-2.542,2.548,2.548,0,0,1,3.872-.136V52.25h1.174V62h-1.079l-.057-.736a2.391,2.391,0,0,1-1.961.863,2.346,2.346,0,0,1-1.946-.978,4.069,4.069,0,0,1-.752-2.552Zm1.174.133a3.046,3.046,0,0,0,.482,1.828,1.56,1.56,0,0,0,1.333.66,1.713,1.713,0,0,0,1.631-1V56.973A1.726,1.726,0,0,0,168.332,56a1.567,1.567,0,0,0-1.346.667A3.354,3.354,0,0,0,166.5,58.642ZM177.187,62a2.467,2.467,0,0,1-.165-.724,2.62,2.62,0,0,1-1.955.851,2.424,2.424,0,0,1-1.666-.574,1.859,1.859,0,0,1-.651-1.457,1.942,1.942,0,0,1,.816-1.666,3.846,3.846,0,0,1,2.295-.594H177V57.3a1.319,1.319,0,0,0-.368-.981,1.48,1.48,0,0,0-1.085-.365,1.712,1.712,0,0,0-1.054.317.935.935,0,0,0-.425.768h-1.181a1.621,1.621,0,0,1,.365-.993,2.491,2.491,0,0,1,.99-.759A3.331,3.331,0,0,1,175.619,55a2.715,2.715,0,0,1,1.86.594,2.141,2.141,0,0,1,.7,1.635v3.161a3.865,3.865,0,0,0,.241,1.5V62Zm-1.949-.9a2.064,2.064,0,0,0,1.047-.286,1.728,1.728,0,0,0,.717-.743V58.667h-.92q-2.158,0-2.158,1.263a1.069,1.069,0,0,0,.368.863A1.415,1.415,0,0,0,175.238,61.1Zm8.779-.927a.865.865,0,0,0-.359-.74,3.452,3.452,0,0,0-1.25-.454,5.912,5.912,0,0,1-1.416-.457,2.014,2.014,0,0,1-.774-.635,1.518,1.518,0,0,1-.251-.876,1.782,1.782,0,0,1,.714-1.428A2.789,2.789,0,0,1,182.506,55a2.87,2.87,0,0,1,1.895.6,1.915,1.915,0,0,1,.727,1.542h-1.181a1.06,1.06,0,0,0-.409-.832,1.534,1.534,0,0,0-1.031-.349,1.605,1.605,0,0,0-1,.279.879.879,0,0,0-.362.73.712.712,0,0,0,.336.641,4.139,4.139,0,0,0,1.216.413,6.334,6.334,0,0,1,1.425.47,2.079,2.079,0,0,1,.809.657,1.615,1.615,0,0,1,.263.936,1.758,1.758,0,0,1-.736,1.476,3.089,3.089,0,0,1-1.911.555,3.459,3.459,0,0,1-1.46-.292,2.374,2.374,0,0,1-.993-.816,1.966,1.966,0,0,1-.359-1.133h1.174a1.216,1.216,0,0,0,.473.936,1.835,1.835,0,0,0,1.165.346,1.894,1.894,0,0,0,1.07-.27A.829.829,0,0,0,184.017,60.178Zm8.169.1,1.6-5.148h1.257l-2.761,7.928q-.641,1.714-2.038,1.714l-.222-.019-.438-.083V63.72l.317.025a1.563,1.563,0,0,0,.93-.241,1.746,1.746,0,0,0,.549-.882l.26-.7-2.45-6.792h1.282Zm6.836-1.771a4.031,4.031,0,0,1,.743-2.561,2.621,2.621,0,0,1,3.917-.124l.051-.692h1.079v9.509h-1.174V61.365a2.465,2.465,0,0,1-1.892.762,2.369,2.369,0,0,1-1.984-.968,4.121,4.121,0,0,1-.74-2.568Zm1.174.133a3.056,3.056,0,0,0,.5,1.854,1.585,1.585,0,0,0,1.343.673,1.758,1.758,0,0,0,1.6-.927V56.877a1.764,1.764,0,0,0-1.587-.908,1.6,1.6,0,0,0-1.352.676A3.327,3.327,0,0,0,200.2,58.642Zm10.74,2.679a2.494,2.494,0,0,1-2.012.806,2.135,2.135,0,0,1-1.673-.638,2.761,2.761,0,0,1-.581-1.888V55.132h1.174v4.437q0,1.562,1.27,1.562a1.758,1.758,0,0,0,1.79-1v-5h1.174V62h-1.117Zm5.776.806a3,3,0,0,1-2.272-.917,3.4,3.4,0,0,1-.876-2.453v-.216a4.121,4.121,0,0,1,.39-1.825,3.045,3.045,0,0,1,1.092-1.257,2.745,2.745,0,0,1,1.52-.454,2.572,2.572,0,0,1,2.082.882,3.82,3.82,0,0,1,.743,2.526V58.9H214.74a2.441,2.441,0,0,0,.594,1.641,1.866,1.866,0,0,0,1.444.625,2.045,2.045,0,0,0,1.054-.254,2.647,2.647,0,0,0,.755-.673l.717.559A2.884,2.884,0,0,1,216.714,62.127Zm-.146-6.157a1.566,1.566,0,0,0-1.193.517,2.515,2.515,0,0,0-.6,1.45h3.44v-.089a2.237,2.237,0,0,0-.482-1.387A1.475,1.475,0,0,0,216.568,55.97ZM225.245,62h-1.174V52.25h1.174Zm6.119,0a2.467,2.467,0,0,1-.165-.724,2.62,2.62,0,0,1-1.955.851,2.424,2.424,0,0,1-1.666-.574,1.859,1.859,0,0,1-.651-1.457,1.942,1.942,0,0,1,.816-1.666,3.846,3.846,0,0,1,2.295-.594h1.143V57.3a1.319,1.319,0,0,0-.368-.981,1.48,1.48,0,0,0-1.085-.365,1.712,1.712,0,0,0-1.054.317.935.935,0,0,0-.425.768h-1.181a1.621,1.621,0,0,1,.365-.993,2.491,2.491,0,0,1,.99-.759A3.331,3.331,0,0,1,229.8,55a2.715,2.715,0,0,1,1.86.594,2.141,2.141,0,0,1,.7,1.635v3.161a3.865,3.865,0,0,0,.241,1.5V62Zm-1.949-.9a2.064,2.064,0,0,0,1.047-.286,1.728,1.728,0,0,0,.717-.743V58.667h-.92q-2.158,0-2.158,1.263a1.069,1.069,0,0,0,.368.863A1.415,1.415,0,0,0,229.415,61.1Zm8.779-.927a.865.865,0,0,0-.359-.74,3.452,3.452,0,0,0-1.25-.454,5.912,5.912,0,0,1-1.416-.457,2.014,2.014,0,0,1-.774-.635,1.518,1.518,0,0,1-.251-.876,1.782,1.782,0,0,1,.714-1.428A2.789,2.789,0,0,1,236.683,55a2.87,2.87,0,0,1,1.895.6,1.915,1.915,0,0,1,.727,1.542h-1.181a1.06,1.06,0,0,0-.409-.832,1.534,1.534,0,0,0-1.031-.349,1.605,1.605,0,0,0-1,.279.879.879,0,0,0-.362.73.712.712,0,0,0,.336.641,4.139,4.139,0,0,0,1.216.413,6.334,6.334,0,0,1,1.425.47,2.079,2.079,0,0,1,.809.657,1.615,1.615,0,0,1,.263.936,1.758,1.758,0,0,1-.736,1.476,3.089,3.089,0,0,1-1.911.555,3.459,3.459,0,0,1-1.46-.292,2.374,2.374,0,0,1-.993-.816,1.966,1.966,0,0,1-.359-1.133h1.174a1.216,1.216,0,0,0,.473.936,1.835,1.835,0,0,0,1.165.346,1.894,1.894,0,0,0,1.07-.27A.829.829,0,0,0,238.194,60.178ZM26.836,80.186a3.519,3.519,0,0,0-.578-.044,1.547,1.547,0,0,0-1.568.984V86H23.516V79.132h1.143l.019.793A1.829,1.829,0,0,1,26.316,79a1.2,1.2,0,0,1,.521.089Zm3.929,5.941a3,3,0,0,1-2.272-.917,3.4,3.4,0,0,1-.876-2.453v-.216a4.121,4.121,0,0,1,.39-1.825A3.045,3.045,0,0,1,29.1,79.459,2.745,2.745,0,0,1,30.619,79a2.572,2.572,0,0,1,2.082.882,3.82,3.82,0,0,1,.743,2.526V82.9H28.791a2.441,2.441,0,0,0,.594,1.641,1.866,1.866,0,0,0,1.444.625,2.045,2.045,0,0,0,1.054-.254,2.648,2.648,0,0,0,.755-.673l.717.559A2.884,2.884,0,0,1,30.765,86.127Zm-.146-6.157a1.566,1.566,0,0,0-1.193.517,2.515,2.515,0,0,0-.6,1.45h3.44v-.089a2.237,2.237,0,0,0-.482-1.387A1.475,1.475,0,0,0,30.619,79.97ZM38.8,84.178a.865.865,0,0,0-.359-.74,3.452,3.452,0,0,0-1.25-.454,5.912,5.912,0,0,1-1.416-.457A2.014,2.014,0,0,1,35,81.893a1.518,1.518,0,0,1-.251-.876,1.782,1.782,0,0,1,.714-1.428A2.789,2.789,0,0,1,37.291,79a2.87,2.87,0,0,1,1.895.6,1.915,1.915,0,0,1,.727,1.542H38.732a1.06,1.06,0,0,0-.409-.832,1.534,1.534,0,0,0-1.031-.349,1.606,1.606,0,0,0-1,.279.879.879,0,0,0-.362.73.712.712,0,0,0,.336.641,4.139,4.139,0,0,0,1.216.413,6.334,6.334,0,0,1,1.425.47,2.079,2.079,0,0,1,.809.657,1.615,1.615,0,0,1,.263.936,1.758,1.758,0,0,1-.736,1.476,3.089,3.089,0,0,1-1.911.555,3.459,3.459,0,0,1-1.46-.292,2.375,2.375,0,0,1-.993-.816,1.966,1.966,0,0,1-.359-1.133h1.174a1.216,1.216,0,0,0,.473.936,1.835,1.835,0,0,0,1.165.346,1.894,1.894,0,0,0,1.07-.27A.829.829,0,0,0,38.8,84.178Zm8.506-1.536a4.113,4.113,0,0,1-.717,2.526,2.3,2.3,0,0,1-1.942.958,2.519,2.519,0,0,1-1.968-.793v3.307H41.506V79.132h1.073l.057.762A2.419,2.419,0,0,1,44.629,79a2.342,2.342,0,0,1,1.958.933,4.157,4.157,0,0,1,.72,2.6Zm-1.174-.133a3.035,3.035,0,0,0-.5-1.834A1.6,1.6,0,0,0,44.28,80a1.726,1.726,0,0,0-1.6.946v3.282a1.73,1.73,0,0,0,1.612.939,1.587,1.587,0,0,0,1.343-.67A3.312,3.312,0,0,0,46.133,82.509Zm6.906,2.812a2.494,2.494,0,0,1-2.012.806,2.135,2.135,0,0,1-1.673-.638,2.761,2.761,0,0,1-.581-1.888V79.132h1.174v4.437q0,1.562,1.27,1.562a1.758,1.758,0,0,0,1.79-1v-5h1.174V86H53.065Zm5.776.806a3,3,0,0,1-2.272-.917,3.4,3.4,0,0,1-.876-2.453v-.216a4.121,4.121,0,0,1,.39-1.825,3.045,3.045,0,0,1,1.092-1.257A2.745,2.745,0,0,1,58.67,79a2.572,2.572,0,0,1,2.082.882,3.82,3.82,0,0,1,.743,2.526V82.9H56.842a2.441,2.441,0,0,0,.594,1.641,1.866,1.866,0,0,0,1.444.625,2.045,2.045,0,0,0,1.054-.254,2.648,2.648,0,0,0,.755-.673l.717.559A2.884,2.884,0,0,1,58.816,86.127ZM58.67,79.97a1.566,1.566,0,0,0-1.193.517,2.515,2.515,0,0,0-.6,1.45h3.44v-.089a2.237,2.237,0,0,0-.482-1.387A1.475,1.475,0,0,0,58.67,79.97Zm8.182,4.208a.864.864,0,0,0-.359-.74,3.452,3.452,0,0,0-1.25-.454,5.912,5.912,0,0,1-1.416-.457,2.014,2.014,0,0,1-.774-.635,1.518,1.518,0,0,1-.251-.876,1.782,1.782,0,0,1,.714-1.428A2.789,2.789,0,0,1,65.341,79a2.87,2.87,0,0,1,1.895.6,1.915,1.915,0,0,1,.727,1.542H66.782a1.06,1.06,0,0,0-.409-.832,1.534,1.534,0,0,0-1.031-.349,1.606,1.606,0,0,0-1,.279.879.879,0,0,0-.362.73.712.712,0,0,0,.336.641,4.139,4.139,0,0,0,1.216.413,6.334,6.334,0,0,1,1.425.47,2.079,2.079,0,0,1,.809.657,1.615,1.615,0,0,1,.263.936,1.758,1.758,0,0,1-.736,1.476,3.089,3.089,0,0,1-1.911.555,3.459,3.459,0,0,1-1.46-.292,2.375,2.375,0,0,1-.993-.816,1.966,1.966,0,0,1-.359-1.133h1.174a1.216,1.216,0,0,0,.473.936,1.835,1.835,0,0,0,1.165.346,1.894,1.894,0,0,0,1.07-.27A.829.829,0,0,0,66.852,84.178Zm4.3-6.709v1.663h1.282v.908H71.149V84.3a.953.953,0,0,0,.171.62.721.721,0,0,0,.584.207,2.843,2.843,0,0,0,.559-.076V86a3.424,3.424,0,0,1-.9.126,1.462,1.462,0,0,1-1.187-.476,2.045,2.045,0,0,1-.4-1.352V80.04h-1.25v-.908h1.25V77.469ZM78.043,86a2.467,2.467,0,0,1-.165-.724,2.62,2.62,0,0,1-1.955.851,2.424,2.424,0,0,1-1.666-.574,1.859,1.859,0,0,1-.651-1.457,1.942,1.942,0,0,1,.816-1.666,3.846,3.846,0,0,1,2.295-.594h1.143V81.3a1.319,1.319,0,0,0-.368-.981,1.48,1.48,0,0,0-1.085-.365,1.712,1.712,0,0,0-1.054.317.935.935,0,0,0-.425.768H73.745a1.621,1.621,0,0,1,.365-.993,2.491,2.491,0,0,1,.99-.759A3.331,3.331,0,0,1,76.475,79a2.715,2.715,0,0,1,1.86.594,2.141,2.141,0,0,1,.7,1.635v3.161a3.865,3.865,0,0,0,.241,1.5V86Zm-1.949-.9a2.064,2.064,0,0,0,1.047-.286,1.728,1.728,0,0,0,.717-.743V82.667h-.92q-2.158,0-2.158,1.263a1.069,1.069,0,0,0,.368.863A1.415,1.415,0,0,0,76.094,85.1Zm8.779-.927a.864.864,0,0,0-.359-.74,3.452,3.452,0,0,0-1.25-.454,5.912,5.912,0,0,1-1.416-.457,2.014,2.014,0,0,1-.774-.635,1.518,1.518,0,0,1-.251-.876,1.782,1.782,0,0,1,.714-1.428A2.789,2.789,0,0,1,83.362,79a2.87,2.87,0,0,1,1.895.6,1.915,1.915,0,0,1,.727,1.542H84.8a1.06,1.06,0,0,0-.409-.832,1.534,1.534,0,0,0-1.031-.349,1.606,1.606,0,0,0-1,.279.879.879,0,0,0-.362.73.712.712,0,0,0,.336.641,4.139,4.139,0,0,0,1.216.413,6.334,6.334,0,0,1,1.425.47,2.079,2.079,0,0,1,.809.657,1.615,1.615,0,0,1,.263.936,1.758,1.758,0,0,1-.736,1.476,3.089,3.089,0,0,1-1.911.555,3.459,3.459,0,0,1-1.46-.292,2.375,2.375,0,0,1-.993-.816,1.966,1.966,0,0,1-.359-1.133h1.174a1.216,1.216,0,0,0,.473.936,1.835,1.835,0,0,0,1.165.346,1.894,1.894,0,0,0,1.07-.27A.829.829,0,0,0,84.873,84.178Zm7.033-5.046.038.863A2.5,2.5,0,0,1,94,79q2.177,0,2.2,2.457V86H95.023V81.455a1.581,1.581,0,0,0-.34-1.1A1.361,1.361,0,0,0,93.645,80a1.7,1.7,0,0,0-1,.3,2.069,2.069,0,0,0-.673.8V86H90.8V79.132ZM97.657,82.5a4.057,4.057,0,0,1,.4-1.815,2.96,2.96,0,0,1,1.1-1.244A3.007,3.007,0,0,1,100.774,79a2.9,2.9,0,0,1,2.269.971,3.736,3.736,0,0,1,.866,2.583v.083a4.092,4.092,0,0,1-.384,1.8,2.916,2.916,0,0,1-1.1,1.241,3.041,3.041,0,0,1-1.641.444,2.889,2.889,0,0,1-2.263-.971,3.718,3.718,0,0,1-.866-2.571Zm1.181.14a2.938,2.938,0,0,0,.53,1.834,1.8,1.8,0,0,0,2.841-.01,3.213,3.213,0,0,0,.527-1.965,2.933,2.933,0,0,0-.536-1.831,1.705,1.705,0,0,0-1.425-.7,1.686,1.686,0,0,0-1.4.692A3.189,3.189,0,0,0,98.838,82.642Zm15.564,0a4.113,4.113,0,0,1-.717,2.526,2.3,2.3,0,0,1-1.942.958,2.519,2.519,0,0,1-1.968-.793v3.307H108.6V79.132h1.073l.057.762A2.419,2.419,0,0,1,111.723,79a2.342,2.342,0,0,1,1.958.933,4.157,4.157,0,0,1,.72,2.6Zm-1.174-.133a3.035,3.035,0,0,0-.5-1.834A1.6,1.6,0,0,0,111.374,80a1.726,1.726,0,0,0-1.6.946v3.282a1.73,1.73,0,0,0,1.612.939,1.587,1.587,0,0,0,1.343-.67A3.312,3.312,0,0,0,113.228,82.509Zm6.906,2.812a2.494,2.494,0,0,1-2.012.806,2.135,2.135,0,0,1-1.673-.638,2.761,2.761,0,0,1-.581-1.888V79.132h1.174v4.437q0,1.562,1.27,1.562a1.758,1.758,0,0,0,1.79-1v-5h1.174V86h-1.117Zm5.776.806a3,3,0,0,1-2.272-.917,3.4,3.4,0,0,1-.876-2.453v-.216a4.121,4.121,0,0,1,.39-1.825,3.045,3.045,0,0,1,1.092-1.257,2.745,2.745,0,0,1,1.52-.454,2.572,2.572,0,0,1,2.082.882,3.82,3.82,0,0,1,.743,2.526V82.9h-4.653a2.441,2.441,0,0,0,.594,1.641,1.866,1.866,0,0,0,1.444.625,2.045,2.045,0,0,0,1.054-.254,2.648,2.648,0,0,0,.755-.673l.717.559A2.884,2.884,0,0,1,125.91,86.127Zm-.146-6.157a1.566,1.566,0,0,0-1.193.517,2.514,2.514,0,0,0-.6,1.45h3.44v-.089a2.237,2.237,0,0,0-.482-1.387A1.475,1.475,0,0,0,125.764,79.97Zm3.9,2.539a4.023,4.023,0,0,1,.749-2.542,2.548,2.548,0,0,1,3.872-.136V76.25h1.174V86h-1.079l-.057-.736a2.391,2.391,0,0,1-1.961.863,2.346,2.346,0,0,1-1.946-.978,4.069,4.069,0,0,1-.752-2.552Zm1.174.133a3.046,3.046,0,0,0,.482,1.828,1.56,1.56,0,0,0,1.333.66,1.713,1.713,0,0,0,1.631-1V80.973A1.726,1.726,0,0,0,132.664,80a1.567,1.567,0,0,0-1.346.667A3.354,3.354,0,0,0,130.836,82.642Zm9.293,3.485a3,3,0,0,1-2.272-.917,3.4,3.4,0,0,1-.876-2.453v-.216a4.121,4.121,0,0,1,.39-1.825,3.045,3.045,0,0,1,1.092-1.257,2.745,2.745,0,0,1,1.52-.454,2.572,2.572,0,0,1,2.082.882,3.82,3.82,0,0,1,.743,2.526V82.9h-4.653a2.441,2.441,0,0,0,.594,1.641,1.866,1.866,0,0,0,1.444.625,2.045,2.045,0,0,0,1.054-.254,2.648,2.648,0,0,0,.755-.673l.717.559A2.884,2.884,0,0,1,140.129,86.127Zm-.146-6.157a1.566,1.566,0,0,0-1.193.517,2.515,2.515,0,0,0-.6,1.45h3.44v-.089a2.237,2.237,0,0,0-.482-1.387A1.475,1.475,0,0,0,139.983,79.97Zm5.294-.838.038.863a2.5,2.5,0,0,1,2.057-.99q2.177,0,2.2,2.457V86h-1.174V81.455a1.581,1.581,0,0,0-.34-1.1A1.361,1.361,0,0,0,147.016,80a1.7,1.7,0,0,0-1,.3,2.069,2.069,0,0,0-.673.8V86h-1.174V79.132Zm13.279,5.046a.865.865,0,0,0-.359-.74,3.452,3.452,0,0,0-1.25-.454,5.912,5.912,0,0,1-1.416-.457,2.014,2.014,0,0,1-.774-.635,1.518,1.518,0,0,1-.251-.876,1.782,1.782,0,0,1,.714-1.428A2.789,2.789,0,0,1,157.046,79a2.87,2.87,0,0,1,1.895.6,1.915,1.915,0,0,1,.727,1.542h-1.181a1.06,1.06,0,0,0-.409-.832,1.534,1.534,0,0,0-1.031-.349,1.606,1.606,0,0,0-1,.279.879.879,0,0,0-.362.73.712.712,0,0,0,.336.641,4.139,4.139,0,0,0,1.216.413,6.334,6.334,0,0,1,1.425.47,2.079,2.079,0,0,1,.809.657,1.615,1.615,0,0,1,.263.936,1.758,1.758,0,0,1-.736,1.476,3.089,3.089,0,0,1-1.911.555,3.459,3.459,0,0,1-1.46-.292,2.375,2.375,0,0,1-.993-.816,1.966,1.966,0,0,1-.359-1.133h1.174a1.216,1.216,0,0,0,.473.936,1.835,1.835,0,0,0,1.165.346,1.894,1.894,0,0,0,1.07-.27A.829.829,0,0,0,158.556,84.178Zm5.554,1.949a3,3,0,0,1-2.272-.917,3.4,3.4,0,0,1-.876-2.453v-.216a4.121,4.121,0,0,1,.39-1.825,3.045,3.045,0,0,1,1.092-1.257,2.745,2.745,0,0,1,1.52-.454,2.572,2.572,0,0,1,2.082.882,3.82,3.82,0,0,1,.743,2.526V82.9h-4.653a2.441,2.441,0,0,0,.594,1.641,1.866,1.866,0,0,0,1.444.625,2.045,2.045,0,0,0,1.054-.254,2.648,2.648,0,0,0,.755-.673l.717.559A2.884,2.884,0,0,1,164.111,86.127Zm-.146-6.157a1.566,1.566,0,0,0-1.193.517,2.515,2.515,0,0,0-.6,1.45h3.44v-.089a2.237,2.237,0,0,0-.482-1.387A1.475,1.475,0,0,0,163.965,79.97Zm7.5.216a3.519,3.519,0,0,0-.578-.044,1.547,1.547,0,0,0-1.568.984V86h-1.174V79.132h1.143l.019.793a1.829,1.829,0,0,1,1.638-.92,1.2,1.2,0,0,1,.521.089Zm3.986,2.317a4.057,4.057,0,0,1,.4-1.815,2.959,2.959,0,0,1,1.1-1.244A3.007,3.007,0,0,1,178.571,79a2.9,2.9,0,0,1,2.269.971,3.736,3.736,0,0,1,.866,2.583v.083a4.092,4.092,0,0,1-.384,1.8,2.916,2.916,0,0,1-1.1,1.241,3.041,3.041,0,0,1-1.641.444,2.889,2.889,0,0,1-2.263-.971,3.718,3.718,0,0,1-.866-2.571Zm1.181.14a2.938,2.938,0,0,0,.53,1.834,1.8,1.8,0,0,0,2.841-.01,3.213,3.213,0,0,0,.527-1.965A2.933,2.933,0,0,0,180,80.671a1.705,1.705,0,0,0-1.425-.7,1.686,1.686,0,0,0-1.4.692A3.189,3.189,0,0,0,176.635,82.642Zm12.359,0a4.084,4.084,0,0,1-.724,2.53,2.312,2.312,0,0,1-1.942.955,2.394,2.394,0,0,1-2.012-.92l-.057.793h-1.079V76.25h1.174v3.637A2.381,2.381,0,0,1,186.315,79a2.326,2.326,0,0,1,1.965.946,4.206,4.206,0,0,1,.714,2.59Zm-1.174-.133a3.173,3.173,0,0,0-.463-1.854A1.534,1.534,0,0,0,186.023,80a1.724,1.724,0,0,0-1.669,1.079v2.971a1.772,1.772,0,0,0,1.682,1.079,1.526,1.526,0,0,0,1.314-.654A3.374,3.374,0,0,0,187.819,82.509Zm4.85,1.9,1.7-5.275h1.2L193.107,86h-.9l-2.488-6.868h1.2ZM197.975,86H196.8V79.132h1.174Zm-1.27-8.69a.7.7,0,0,1,.175-.482.655.655,0,0,1,.517-.2.666.666,0,0,1,.521.2.694.694,0,0,1,.178.482.671.671,0,0,1-.178.476.678.678,0,0,1-.521.19.667.667,0,0,1-.517-.19A.678.678,0,0,1,196.706,77.31ZM204.094,86a2.467,2.467,0,0,1-.165-.724,2.62,2.62,0,0,1-1.955.851,2.424,2.424,0,0,1-1.666-.574,1.859,1.859,0,0,1-.651-1.457,1.942,1.942,0,0,1,.816-1.666,3.846,3.846,0,0,1,2.295-.594h1.143V81.3a1.319,1.319,0,0,0-.368-.981,1.48,1.48,0,0,0-1.085-.365,1.712,1.712,0,0,0-1.054.317.935.935,0,0,0-.425.768H199.8a1.621,1.621,0,0,1,.365-.993,2.491,2.491,0,0,1,.99-.759A3.331,3.331,0,0,1,202.527,79a2.715,2.715,0,0,1,1.86.594,2.141,2.141,0,0,1,.7,1.635v3.161a3.865,3.865,0,0,0,.241,1.5V86Zm-1.949-.9a2.064,2.064,0,0,0,1.047-.286,1.728,1.728,0,0,0,.717-.743V82.667h-.92q-2.158,0-2.158,1.263a1.069,1.069,0,0,0,.368.863A1.415,1.415,0,0,0,202.146,85.1Zm8.779-.927a.865.865,0,0,0-.359-.74,3.452,3.452,0,0,0-1.25-.454,5.912,5.912,0,0,1-1.416-.457,2.014,2.014,0,0,1-.774-.635,1.518,1.518,0,0,1-.251-.876,1.782,1.782,0,0,1,.714-1.428A2.789,2.789,0,0,1,209.414,79a2.87,2.87,0,0,1,1.895.6,1.915,1.915,0,0,1,.727,1.542h-1.181a1.06,1.06,0,0,0-.409-.832,1.534,1.534,0,0,0-1.031-.349,1.606,1.606,0,0,0-1,.279.879.879,0,0,0-.362.73.712.712,0,0,0,.336.641,4.139,4.139,0,0,0,1.216.413,6.334,6.334,0,0,1,1.425.47,2.079,2.079,0,0,1,.809.657,1.615,1.615,0,0,1,.263.936,1.758,1.758,0,0,1-.736,1.476,3.089,3.089,0,0,1-1.911.555,3.459,3.459,0,0,1-1.46-.292,2.375,2.375,0,0,1-.993-.816,1.966,1.966,0,0,1-.359-1.133h1.174a1.216,1.216,0,0,0,.473.936,1.835,1.835,0,0,0,1.165.346,1.894,1.894,0,0,0,1.07-.27A.829.829,0,0,0,210.925,84.178Zm5.611-1.676a4.057,4.057,0,0,1,.4-1.815,2.959,2.959,0,0,1,1.1-1.244A3.007,3.007,0,0,1,219.653,79a2.9,2.9,0,0,1,2.269.971,3.736,3.736,0,0,1,.866,2.583v.083a4.092,4.092,0,0,1-.384,1.8,2.916,2.916,0,0,1-1.1,1.241,3.041,3.041,0,0,1-1.641.444,2.889,2.889,0,0,1-2.263-.971,3.718,3.718,0,0,1-.866-2.571Zm1.181.14a2.938,2.938,0,0,0,.53,1.834,1.8,1.8,0,0,0,2.841-.01,3.213,3.213,0,0,0,.527-1.965,2.933,2.933,0,0,0-.536-1.831,1.705,1.705,0,0,0-1.425-.7,1.686,1.686,0,0,0-1.4.692A3.189,3.189,0,0,0,217.717,82.642ZM95,109.168a1.691,1.691,0,0,0,1.1-.381,1.34,1.34,0,0,0,.521-.952h1.111a2.13,2.13,0,0,1-.406,1.124,2.676,2.676,0,0,1-1,.851,2.885,2.885,0,0,1-1.323.317,2.829,2.829,0,0,1-2.231-.936,3.729,3.729,0,0,1-.828-2.561v-.2a4.135,4.135,0,0,1,.368-1.784,2.8,2.8,0,0,1,1.057-1.212A3,3,0,0,1,94.991,103a2.755,2.755,0,0,1,1.92.692,2.473,2.473,0,0,1,.816,1.8H96.616a1.618,1.618,0,0,0-.5-1.095,1.57,1.57,0,0,0-1.12-.428,1.644,1.644,0,0,0-1.387.644,3.026,3.026,0,0,0-.492,1.863v.222a2.966,2.966,0,0,0,.489,1.828A1.651,1.651,0,0,0,95,109.168Zm3.739-2.666a4.057,4.057,0,0,1,.4-1.815,2.96,2.96,0,0,1,1.1-1.244,3.007,3.007,0,0,1,1.615-.438,2.9,2.9,0,0,1,2.269.971,3.736,3.736,0,0,1,.866,2.583v.083a4.092,4.092,0,0,1-.384,1.8,2.916,2.916,0,0,1-1.1,1.241,3.041,3.041,0,0,1-1.641.444,2.889,2.889,0,0,1-2.263-.971,3.718,3.718,0,0,1-.866-2.571Zm1.181.14a2.938,2.938,0,0,0,.53,1.834,1.8,1.8,0,0,0,2.841-.01,3.213,3.213,0,0,0,.527-1.965,2.933,2.933,0,0,0-.536-1.831,1.705,1.705,0,0,0-1.425-.7,1.686,1.686,0,0,0-1.4.692A3.189,3.189,0,0,0,99.917,106.642Zm7.655-3.51.038.863a2.5,2.5,0,0,1,2.057-.99q2.177,0,2.2,2.457V110h-1.174v-4.545a1.581,1.581,0,0,0-.34-1.1,1.361,1.361,0,0,0-1.038-.355,1.7,1.7,0,0,0-1,.3,2.069,2.069,0,0,0-.673.8V110h-1.174v-6.868Zm5.751,3.371a4.057,4.057,0,0,1,.4-1.815,2.96,2.96,0,0,1,1.1-1.244A3.007,3.007,0,0,1,116.44,103a2.9,2.9,0,0,1,2.269.971,3.736,3.736,0,0,1,.866,2.583v.083a4.092,4.092,0,0,1-.384,1.8,2.916,2.916,0,0,1-1.1,1.241,3.041,3.041,0,0,1-1.641.444,2.889,2.889,0,0,1-2.263-.971,3.718,3.718,0,0,1-.866-2.571Zm1.181.14a2.938,2.938,0,0,0,.53,1.834,1.8,1.8,0,0,0,2.841-.01,3.213,3.213,0,0,0,.527-1.965,2.933,2.933,0,0,0-.536-1.831,1.705,1.705,0,0,0-1.425-.7,1.686,1.686,0,0,0-1.4.692A3.189,3.189,0,0,0,114.5,106.642Zm9.3,2.526a1.691,1.691,0,0,0,1.1-.381,1.34,1.34,0,0,0,.521-.952h1.111a2.13,2.13,0,0,1-.406,1.124,2.676,2.676,0,0,1-1,.851,2.885,2.885,0,0,1-1.323.317,2.829,2.829,0,0,1-2.231-.936,3.729,3.729,0,0,1-.828-2.561v-.2a4.135,4.135,0,0,1,.368-1.784,2.8,2.8,0,0,1,1.057-1.212A3,3,0,0,1,123.8,103a2.755,2.755,0,0,1,1.92.692,2.473,2.473,0,0,1,.816,1.8h-1.111a1.618,1.618,0,0,0-.5-1.095,1.57,1.57,0,0,0-1.12-.428,1.644,1.644,0,0,0-1.387.644,3.026,3.026,0,0,0-.492,1.863v.222a2.966,2.966,0,0,0,.489,1.828A1.651,1.651,0,0,0,123.8,109.168Zm5.326.832h-1.174v-6.868h1.174Zm-1.27-8.69a.7.7,0,0,1,.175-.482.655.655,0,0,1,.517-.2.666.666,0,0,1,.521.2.694.694,0,0,1,.178.482.671.671,0,0,1-.178.476.678.678,0,0,1-.521.19.667.667,0,0,1-.517-.19A.678.678,0,0,1,127.859,101.31Zm2.863,5.2a4.023,4.023,0,0,1,.749-2.542,2.548,2.548,0,0,1,3.872-.136v-3.58h1.174V110h-1.079l-.057-.736a2.391,2.391,0,0,1-1.961.863,2.346,2.346,0,0,1-1.946-.978,4.069,4.069,0,0,1-.752-2.552Zm1.174.133a3.046,3.046,0,0,0,.482,1.828,1.56,1.56,0,0,0,1.333.66,1.713,1.713,0,0,0,1.631-1v-3.155a1.726,1.726,0,0,0-1.619-.971,1.567,1.567,0,0,0-1.346.667A3.354,3.354,0,0,0,131.9,106.642ZM142.579,110a2.467,2.467,0,0,1-.165-.724,2.62,2.62,0,0,1-1.955.851,2.424,2.424,0,0,1-1.666-.574,1.859,1.859,0,0,1-.651-1.457,1.942,1.942,0,0,1,.816-1.666,3.846,3.846,0,0,1,2.295-.594H142.4v-.54a1.319,1.319,0,0,0-.368-.981,1.48,1.48,0,0,0-1.085-.365,1.712,1.712,0,0,0-1.054.317.935.935,0,0,0-.425.768h-1.181a1.621,1.621,0,0,1,.365-.993,2.491,2.491,0,0,1,.99-.759,3.331,3.331,0,0,1,1.374-.279,2.715,2.715,0,0,1,1.86.594,2.141,2.141,0,0,1,.7,1.635v3.161a3.865,3.865,0,0,0,.241,1.5v.1Zm-1.949-.9a2.064,2.064,0,0,0,1.047-.286,1.728,1.728,0,0,0,.717-.743v-1.409h-.92q-2.158,0-2.158,1.263a1.069,1.069,0,0,0,.368.863A1.415,1.415,0,0,0,140.631,109.1Zm8.779-.927a.865.865,0,0,0-.359-.74,3.452,3.452,0,0,0-1.25-.454,5.912,5.912,0,0,1-1.416-.457,2.014,2.014,0,0,1-.774-.635,1.518,1.518,0,0,1-.251-.876,1.782,1.782,0,0,1,.714-1.428A2.789,2.789,0,0,1,147.9,103a2.87,2.87,0,0,1,1.895.6,1.915,1.915,0,0,1,.727,1.542H149.34a1.06,1.06,0,0,0-.409-.832,1.534,1.534,0,0,0-1.031-.349,1.606,1.606,0,0,0-1,.279.879.879,0,0,0-.362.73.712.712,0,0,0,.336.641,4.139,4.139,0,0,0,1.216.413,6.334,6.334,0,0,1,1.425.47,2.079,2.079,0,0,1,.809.657,1.615,1.615,0,0,1,.263.936,1.758,1.758,0,0,1-.736,1.476,3.089,3.089,0,0,1-1.911.555,3.459,3.459,0,0,1-1.46-.292,2.375,2.375,0,0,1-.993-.816,1.966,1.966,0,0,1-.359-1.133H146.3a1.216,1.216,0,0,0,.473.936,1.835,1.835,0,0,0,1.165.346,1.894,1.894,0,0,0,1.07-.27A.829.829,0,0,0,149.409,108.178Zm2.729,1.206a.735.735,0,0,1,.181-.508.689.689,0,0,1,.543-.2.71.71,0,0,1,.549.2.721.721,0,0,1,.187.508.682.682,0,0,1-.187.489.723.723,0,0,1-.549.2.653.653,0,0,1-.724-.686Z" transform="translate(363 2101)" fill="#12263f"/>
      <g id="Grupo_82169" data-name="Grupo 82169">
        <g id="Enmascarar_grupo_94" data-name="Enmascarar grupo 94" transform="translate(-315)" clip-path="url(#clip-path)">
          <g id="ambiguity" transform="translate(758 1979)">
            <path id="Trazado_181272" data-name="Trazado 181272" d="M42.5,73.671A.675.675,0,0,1,41.825,73V12a.675.675,0,1,1,1.349,0V73A.675.675,0,0,1,42.5,73.671Zm0,0" fill="#12263f"/>
            <path id="Trazado_181273" data-name="Trazado 181273" d="M73,43.175H12a.675.675,0,1,1,0-1.349H73a.675.675,0,0,1,0,1.349Zm0,0" fill="#690589"/>
            <path id="Trazado_181274" data-name="Trazado 181274" d="M73,73.671H12A.674.674,0,0,1,11.329,73V12A.675.675,0,0,1,12,11.329H73a.675.675,0,0,1,.675.675V73A.674.674,0,0,1,73,73.671ZM12.678,72.322H72.322V12.678H12.678Zm0,0" fill="#12263f"/>
            <path id="Trazado_181275" data-name="Trazado 181275" d="M84.325,73A11.329,11.329,0,1,1,73,61.668,11.329,11.329,0,0,1,84.325,73Zm0,0" fill="#00bab5"/>
            <path id="Trazado_181276" data-name="Trazado 181276" d="M23.333,12A11.329,11.329,0,1,1,12,.675,11.329,11.329,0,0,1,23.333,12Zm0,0" fill="#00bab5"/>
            <path id="Trazado_181277" data-name="Trazado 181277" d="M53.829,12A11.329,11.329,0,1,1,42.5.675,11.33,11.33,0,0,1,53.829,12Zm0,0" fill="#00bab5"/>
            <path id="Trazado_181278" data-name="Trazado 181278" d="M84.325,12A11.329,11.329,0,1,1,73,.675,11.329,11.329,0,0,1,84.325,12Zm0,0" fill="#00bab5"/>
            <path id="Trazado_181279" data-name="Trazado 181279" d="M23.333,42.5A11.329,11.329,0,1,1,12,31.171,11.329,11.329,0,0,1,23.333,42.5Zm0,0" fill="#00bab5"/>
            <path id="Trazado_181280" data-name="Trazado 181280" d="M53.829,42.5A11.329,11.329,0,1,1,42.5,31.171,11.33,11.33,0,0,1,53.829,42.5Zm0,0" fill="#00bab5"/>
            <path id="Trazado_181281" data-name="Trazado 181281" d="M84.325,42.5A11.329,11.329,0,1,1,73,31.171,11.329,11.329,0,0,1,84.325,42.5Zm0,0" fill="#00bab5"/>
            <path id="Trazado_181282" data-name="Trazado 181282" d="M23.333,73A11.329,11.329,0,1,1,12,61.668,11.329,11.329,0,0,1,23.333,73Zm0,0" fill="#00bab5"/>
            <path id="Trazado_181283" data-name="Trazado 181283" d="M53.829,73A11.329,11.329,0,1,1,42.5,61.668,11.329,11.329,0,0,1,53.829,73Zm0,0" fill="#00bab5"/>
            <path id="Trazado_181284" data-name="Trazado 181284" d="M73,61.667a11.422,11.422,0,0,0-1.634.119,11.328,11.328,0,0,1,0,22.42A11.329,11.329,0,1,0,73,61.667Zm0,0" fill="#019d98"/>
            <path id="Trazado_181285" data-name="Trazado 181285" d="M73,31.171a11.423,11.423,0,0,0-1.634.119,11.329,11.329,0,0,1,0,22.421A11.329,11.329,0,1,0,73,31.171Zm0,0" fill="#019d98"/>
            <path id="Trazado_181286" data-name="Trazado 181286" d="M73,.675a11.328,11.328,0,0,0-1.634.119,11.328,11.328,0,0,1,0,22.42A11.329,11.329,0,1,0,73,.675Zm0,0" fill="#019d98"/>
            <path id="Trazado_181287" data-name="Trazado 181287" d="M12,23.333a11.422,11.422,0,0,0,1.634-.119,11.329,11.329,0,0,1,0-22.421A11.329,11.329,0,1,0,12,23.333Zm0,0" fill="#22d2cd"/>
            <path id="Trazado_181288" data-name="Trazado 181288" d="M12,53.829a11.422,11.422,0,0,0,1.634-.119,11.329,11.329,0,0,1,0-22.421A11.329,11.329,0,1,0,12,53.829Zm0,0" fill="#22d2cd"/>
            <path id="Trazado_181289" data-name="Trazado 181289" d="M12,84.325a11.328,11.328,0,0,0,1.634-.119,11.328,11.328,0,0,1,0-22.42A11.329,11.329,0,1,0,12,84.325Zm0,0" fill="#22d2cd"/>
            <g id="Grupo_80748" data-name="Grupo 80748">
              <path id="Trazado_181290" data-name="Trazado 181290" d="M12,24.008a12,12,0,1,1,12-12,12.018,12.018,0,0,1-12,12ZM12,1.349A10.655,10.655,0,1,0,22.658,12,10.667,10.667,0,0,0,12,1.349Zm0,0" fill="#12263f"/>
              <path id="Trazado_181291" data-name="Trazado 181291" d="M42.5,24.008a12,12,0,1,1,12-12,12.018,12.018,0,0,1-12,12Zm0-22.659A10.655,10.655,0,1,0,53.155,12,10.667,10.667,0,0,0,42.5,1.349Zm0,0" fill="#12263f"/>
              <path id="Trazado_181292" data-name="Trazado 181292" d="M73,24.008A12,12,0,1,1,85,12,12.017,12.017,0,0,1,73,24.008ZM73,1.349A10.655,10.655,0,1,0,83.651,12,10.666,10.666,0,0,0,73,1.349Zm0,0" fill="#12263f"/>
              <path id="Trazado_181293" data-name="Trazado 181293" d="M12,54.5a12,12,0,1,1,12-12A12.018,12.018,0,0,1,12,54.5Zm0-22.659A10.655,10.655,0,1,0,22.659,42.5,10.667,10.667,0,0,0,12,31.845Zm0,0" fill="#12263f"/>
              <path id="Trazado_181294" data-name="Trazado 181294" d="M4.109,38.91a.674.674,0,0,1-.576-1.025,13.152,13.152,0,0,1,3.532-3.826.674.674,0,0,1,.793,1.092,11.8,11.8,0,0,0-3.171,3.436.675.675,0,0,1-.577.323Zm0,0" fill="#12263f"/>
              <path id="Trazado_181295" data-name="Trazado 181295" d="M42.5,54.5a12,12,0,1,1,12-12,12.018,12.018,0,0,1-12,12Zm0-22.659A10.655,10.655,0,1,0,53.155,42.5,10.667,10.667,0,0,0,42.5,31.845Zm0,0" fill="#12263f"/>
              <path id="Trazado_181296" data-name="Trazado 181296" d="M73,54.5a12,12,0,1,1,12-12A12.017,12.017,0,0,1,73,54.5Zm0-22.659A10.655,10.655,0,1,0,83.651,42.5,10.666,10.666,0,0,0,73,31.845Zm0,0" fill="#12263f"/>
              <path id="Trazado_181297" data-name="Trazado 181297" d="M12,85a12,12,0,1,1,12-12A12.018,12.018,0,0,1,12,85Zm0-22.659A10.655,10.655,0,1,0,22.658,73,10.667,10.667,0,0,0,12,62.341Zm0,0" fill="#12263f"/>
              <path id="Trazado_181298" data-name="Trazado 181298" d="M42.5,85a12,12,0,1,1,12-12,12.018,12.018,0,0,1-12,12Zm0-22.659A10.655,10.655,0,1,0,53.155,73,10.667,10.667,0,0,0,42.5,62.341Zm0,0" fill="#12263f"/>
              <path id="Trazado_181299" data-name="Trazado 181299" d="M73,85A12,12,0,1,1,85,73,12.017,12.017,0,0,1,73,85Zm0-22.659A10.655,10.655,0,1,0,83.651,73,10.666,10.666,0,0,0,73,62.341Zm0,0" fill="#12263f"/>
            </g>
            <path id="Trazado_181300" data-name="Trazado 181300" d="M17.478,11.671,14.741,8.164,12,4.657,9.267,8.164,6.529,11.671H9.9V18.9h4.208v-7.23Zm0,0" fill="#f4efed"/>
            <path id="Trazado_181301" data-name="Trazado 181301" d="M14.108,19.575H9.9a.674.674,0,0,1-.675-.675V12.346h-2.7A.675.675,0,0,1,6,11.256l5.475-7.014a.7.7,0,0,1,1.063,0l5.475,7.013a.675.675,0,0,1-.532,1.09h-2.7V18.9a.674.674,0,0,1-.675.675Zm-3.534-1.349h2.859V11.671A.675.675,0,0,1,14.108,11H16.1L12,5.753,7.911,11H9.9a.675.675,0,0,1,.675.675Zm0,0" fill="#12263f"/>
            <path id="Trazado_181302" data-name="Trazado 181302" d="M42.392,6.3,38.885,9.042l-3.507,2.737,3.507,2.737,3.507,2.737v-3.37h7.23V9.675h-7.23Zm0,0" fill="#ffd400"/>
            <path id="Trazado_181303" data-name="Trazado 181303" d="M42.392,17.928a.675.675,0,0,1-.415-.143L34.963,12.31a.674.674,0,0,1,0-1.063l7.014-5.475a.675.675,0,0,1,1.09.532V9h6.555a.674.674,0,0,1,.675.675v4.208a.675.675,0,0,1-.675.675H43.067v2.7a.675.675,0,0,1-.675.675Zm-5.917-6.149,5.243,4.092V13.883a.675.675,0,0,1,.675-.675h6.556v-2.86H42.392a.675.675,0,0,1-.675-.675V7.686Zm0,0" fill="#12263f"/>
            <path id="Trazado_181304" data-name="Trazado 181304" d="M73.1,17.254l3.507-2.737,3.507-2.737L76.612,9.042,73.1,6.3V9.675h-7.23v4.208H73.1Zm0,0" fill="#ffd400"/>
            <path id="Trazado_181305" data-name="Trazado 181305" d="M73.1,17.928a.675.675,0,0,1-.675-.675v-2.7H65.875a.675.675,0,0,1-.675-.675V9.675A.674.674,0,0,1,65.875,9H72.43V6.3a.675.675,0,0,1,1.09-.532l7.014,5.475a.674.674,0,0,1,0,1.063l-7.014,5.475a.671.671,0,0,1-.415.143Zm-6.555-4.72H73.1a.675.675,0,0,1,.675.675v1.988l5.243-4.092L73.779,7.686V9.675a.675.675,0,0,1-.675.675H66.549Zm0,0" fill="#12263f"/>
            <path id="Trazado_181306" data-name="Trazado 181306" d="M72.888,37.025,65.875,42.5l3.507,2.737,3.507,2.738V44.6h7.23V40.4h-7.23Zm0,0" fill="#ffd400"/>
            <path id="Trazado_181307" data-name="Trazado 181307" d="M72.889,48.649a.672.672,0,0,1-.416-.143L65.46,43.032a.674.674,0,0,1,0-1.063l7.013-5.475a.674.674,0,0,1,1.09.532v2.7h6.556a.675.675,0,0,1,.675.675V44.6a.675.675,0,0,1-.675.675H73.563v2.7a.673.673,0,0,1-.674.674ZM66.971,42.5l5.243,4.092V44.6a.675.675,0,0,1,.675-.675h6.556V41.07H72.888a.675.675,0,0,1-.675-.675V38.407Zm0,0" fill="#12263f"/>
            <path id="Trazado_181308" data-name="Trazado 181308" d="M78.471,72.888l-2.738-3.507L73,65.875l-5.475,7.013h3.37v7.23H75.1v-7.23Zm0,0" fill="#f4efed"/>
            <path id="Trazado_181309" data-name="Trazado 181309" d="M75.1,80.793H70.892a.675.675,0,0,1-.675-.675V73.563h-2.7a.675.675,0,0,1-.532-1.09l5.475-7.014a.7.7,0,0,1,1.063,0L79,72.473a.675.675,0,0,1-.532,1.09h-2.7v6.556a.674.674,0,0,1-.675.675Zm-3.534-1.349h2.86V72.888a.675.675,0,0,1,.675-.675h1.988L73,66.97,68.9,72.214h1.988a.675.675,0,0,1,.675.675v6.556Zm0,0" fill="#12263f"/>
            <path id="Trazado_181310" data-name="Trazado 181310" d="M42.608,78.471l3.507-2.738L49.622,73l-7.013-5.475v3.37h-7.23V75.1h7.23Zm0,0" fill="#ffd400"/>
            <path id="Trazado_181311" data-name="Trazado 181311" d="M42.608,79.146a.673.673,0,0,1-.675-.675v-2.7H35.379A.675.675,0,0,1,34.7,75.1V70.892a.675.675,0,0,1,.675-.675h6.555v-2.7a.675.675,0,0,1,1.09-.532l7.014,5.475a.674.674,0,0,1,0,1.063L43.023,79a.672.672,0,0,1-.415.143Zm-6.556-4.72h6.556a.675.675,0,0,1,.675.675v1.989L48.525,73,43.283,68.9v1.988a.675.675,0,0,1-.675.675H36.052Zm0,0" fill="#12263f"/>
            <path id="Trazado_181312" data-name="Trazado 181312" d="M37.025,42.608l2.737,3.507L42.5,49.622l2.737-3.507,2.737-3.507H44.6v-7.23H40.4v7.23Zm0,0" fill="#ff0092"/>
            <path id="Trazado_181313" data-name="Trazado 181313" d="M42.5,50.3a.674.674,0,0,1-.532-.26l-5.475-7.013a.675.675,0,0,1,.532-1.09h2.7V35.378A.675.675,0,0,1,40.4,34.7H44.6a.675.675,0,0,1,.675.675v6.556h2.7a.675.675,0,0,1,.532,1.09l-5.475,7.013a.674.674,0,0,1-.532.26Zm-4.092-7.013L42.5,48.525l4.092-5.243H44.6a.675.675,0,0,1-.675-.675V36.052H41.07v6.556a.675.675,0,0,1-.675.675Zm0,0" fill="#12263f"/>
            <path id="Trazado_181314" data-name="Trazado 181314" d="M12.112,47.975l3.507-2.738L19.125,42.5l-7.013-5.475V40.4H4.882V44.6h7.23Zm0,0" fill="#ffd400"/>
            <path id="Trazado_181315" data-name="Trazado 181315" d="M12.111,48.649a.673.673,0,0,1-.674-.675v-2.7H4.882a.675.675,0,0,1-.675-.675V40.4a.675.675,0,0,1,.675-.675h6.556v-2.7a.675.675,0,0,1,1.09-.532l7.013,5.475a.674.674,0,0,1,0,1.063l-7.013,5.475a.672.672,0,0,1-.416.143ZM5.556,43.93h6.556a.675.675,0,0,1,.675.675v1.988L18.029,42.5l-5.243-4.092V40.4a.675.675,0,0,1-.675.675H5.556Zm0,0" fill="#12263f"/>
            <path id="Trazado_181316" data-name="Trazado 181316" d="M6.529,73.1l2.738,3.507L12,80.118l2.737-3.507L17.478,73.1h-3.37v-7.23H9.9V73.1Zm0,0" fill="#ff0092"/>
            <path id="Trazado_181317" data-name="Trazado 181317" d="M12,80.793a.676.676,0,0,1-.532-.26L6,73.519a.675.675,0,0,1,.532-1.09h2.7V65.874A.675.675,0,0,1,9.9,65.2h4.209a.675.675,0,0,1,.675.675V72.43h2.7a.675.675,0,0,1,.532,1.09l-5.475,7.014a.676.676,0,0,1-.532.26ZM7.911,73.779,12,79.022,16.1,73.779H14.108a.675.675,0,0,1-.675-.675V66.549H10.574V73.1a.675.675,0,0,1-.675.675Zm0,0" fill="#12263f"/>
          </g>
        </g>
      </g>
    </g>
  </g>
</svg>
