<svg xmlns="http://www.w3.org/2000/svg" width="127" height="127" viewBox="0 0 127 127">
  <g id="Grupo_82181" data-name="Grupo 82181" transform="translate(-285 -4783)">
    <circle id="Elipse_4710" data-name="Elipse 4710" cx="63.5" cy="63.5" r="63.5" transform="translate(285 4783)" fill="#214be5"/>
    <circle id="Elipse_4711" data-name="Elipse 4711" cx="50.5" cy="50.5" r="50.5" transform="translate(298 4796)" fill="#fff"/>
    <path id="Trazado_183368" data-name="Trazado 183368" d="M10.807,16.608H4.619V23H1.4V7.359H11.58V9.97H4.619v4.039h6.188ZM19.615,23a3.448,3.448,0,0,1-.312-1.042,3.756,3.756,0,0,1-2.933,1.257,4.127,4.127,0,0,1-2.831-.988,3.178,3.178,0,0,1-1.123-2.492,3.285,3.285,0,0,1,1.37-2.836,6.758,6.758,0,0,1,3.958-1h1.429v-.666a1.915,1.915,0,0,0-.414-1.289,1.627,1.627,0,0,0-1.305-.483,1.85,1.85,0,0,0-1.23.376,1.277,1.277,0,0,0-.446,1.031h-3.1A3.118,3.118,0,0,1,13.3,13a4.118,4.118,0,0,1,1.762-1.348,6.42,6.42,0,0,1,2.557-.489,5.073,5.073,0,0,1,3.411,1.08,3.777,3.777,0,0,1,1.262,3.035v5.038a5.557,5.557,0,0,0,.462,2.5V23Zm-2.567-2.159a2.674,2.674,0,0,0,1.268-.306,2.011,2.011,0,0,0,.859-.822v-2h-1.16q-2.331,0-2.481,1.611l-.011.183a1.243,1.243,0,0,0,.408.956A1.586,1.586,0,0,0,17.048,20.841ZM30.97,19.788a1,1,0,0,0-.564-.9,6.406,6.406,0,0,0-1.81-.585q-4.146-.87-4.146-3.523A3.194,3.194,0,0,1,25.733,12.2a5.178,5.178,0,0,1,3.357-1.037,5.573,5.573,0,0,1,3.54,1.042,3.284,3.284,0,0,1,1.327,2.707h-3.1a1.5,1.5,0,0,0-.43-1.1,1.818,1.818,0,0,0-1.343-.435,1.858,1.858,0,0,0-1.214.354,1.119,1.119,0,0,0-.43.9.957.957,0,0,0,.489.833,5.028,5.028,0,0,0,1.649.548,13.468,13.468,0,0,1,1.955.521,3.212,3.212,0,0,1,2.46,3.126,3.032,3.032,0,0,1-1.364,2.573,5.885,5.885,0,0,1-3.523.983,6.147,6.147,0,0,1-2.594-.521,4.353,4.353,0,0,1-1.778-1.429,3.32,3.32,0,0,1-.645-1.96h2.943a1.621,1.621,0,0,0,.612,1.268,2.429,2.429,0,0,0,1.525.44,2.248,2.248,0,0,0,1.348-.338A1.053,1.053,0,0,0,30.97,19.788Zm10.366,3.427a5.706,5.706,0,0,1-4.163-1.568,5.575,5.575,0,0,1-1.606-4.179v-.3a7.021,7.021,0,0,1,.677-3.131,4.967,4.967,0,0,1,1.917-2.127,5.382,5.382,0,0,1,2.831-.747,4.824,4.824,0,0,1,3.754,1.5,6.111,6.111,0,0,1,1.37,4.265V18.2h-7.4a2.884,2.884,0,0,0,.908,1.826,2.744,2.744,0,0,0,1.917.688,3.351,3.351,0,0,0,2.8-1.3l1.525,1.708a4.66,4.66,0,0,1-1.891,1.542A6.2,6.2,0,0,1,41.336,23.215Zm-.354-9.55a1.94,1.94,0,0,0-1.5.626,3.241,3.241,0,0,0-.736,1.791h4.318v-.248a2.311,2.311,0,0,0-.559-1.6A2,2,0,0,0,40.981,13.665Zm12.708,1.644.9-7.949h8.766V9.948h-6.22l-.387,3.362A4.922,4.922,0,0,1,59.1,12.72a4.508,4.508,0,0,1,3.5,1.386,5.535,5.535,0,0,1,1.268,3.878,5.671,5.671,0,0,1-.639,2.712A4.511,4.511,0,0,1,61.4,22.554a5.718,5.718,0,0,1-2.814.661,6.072,6.072,0,0,1-2.632-.575,4.668,4.668,0,0,1-1.917-1.617,4.406,4.406,0,0,1-.747-2.374h3.072a2.3,2.3,0,0,0,.682,1.52,2.163,2.163,0,0,0,1.531.542,1.909,1.909,0,0,0,1.622-.757,3.508,3.508,0,0,0,.569-2.143,2.9,2.9,0,0,0-.655-2.041,2.4,2.4,0,0,0-1.858-.709,2.687,2.687,0,0,0-1.794.58l-.3.279Z" transform="translate(312 4833)" fill="#12263f"/>
  </g>
</svg>
