<svg xmlns="http://www.w3.org/2000/svg" xmlns:xlink="http://www.w3.org/1999/xlink" width="85" height="85" viewBox="0 0 85 85">
  <defs>
    <clipPath id="clip-path">
      <rect id="Rectángulo_23153" data-name="Rectángulo 23153" width="85" height="85" transform="translate(600 2365)" fill="#fff" stroke="#707070" stroke-width="1"/>
    </clipPath>
  </defs>
  <g id="Enmascarar_grupo_96" data-name="Enmascarar grupo 96" transform="translate(-600 -2365)" clip-path="url(#clip-path)">
    <g id="build" transform="translate(600.504 2365)">
      <g id="Grupo_80762" data-name="Grupo 80762">
        <g id="Grupo_80749" data-name="Grupo 80749">
          <path id="Trazado_181356" data-name="Trazado 181356" d="M50.124,71.8a2.709,2.709,0,1,0-2.709-2.709A2.717,2.717,0,0,0,50.124,71.8Zm0,10.838L40.641,69.09l4.064-8.128H55.543l4.064,8.128Z" fill="#ff0092"/>
        </g>
        <g id="Grupo_80750" data-name="Grupo 80750">
          <path id="Trazado_181357" data-name="Trazado 181357" d="M58.253,50.124v2.709a2.717,2.717,0,0,1-2.709,2.709H44.705A2.717,2.717,0,0,1,42,52.834V50.124Z" fill="#aab2bd"/>
        </g>
        <g id="Grupo_80751" data-name="Grupo 80751">
          <path id="Trazado_181358" data-name="Trazado 181358" d="M55.543,55.543a2.717,2.717,0,0,1,2.709,2.709,2.729,2.729,0,0,1-2.709,2.709H44.705A2.717,2.717,0,0,1,42,58.253a2.729,2.729,0,0,1,2.709-2.709Z" fill="#d3a06c"/>
        </g>
        <g id="Grupo_80752" data-name="Grupo 80752">
          <path id="Trazado_181359" data-name="Trazado 181359" d="M44.705,39.287h2.709A2.717,2.717,0,0,0,44.705,42a2.729,2.729,0,0,0,2.709,2.709H60.258a9.311,9.311,0,0,0-2,5.419H42c0-4.267-3.739-7.41-7.288-11.6a4.013,4.013,0,0,1,.894-.095,4.535,4.535,0,0,1,2.425.718l3.834-3.834a4.5,4.5,0,0,1-.718-2.425,4.586,4.586,0,0,1,1.233-3.116A2.678,2.678,0,0,0,42,31.158a2.729,2.729,0,0,0,2.709,2.709A2.717,2.717,0,0,0,42,36.577a2.729,2.729,0,0,0,2.709,2.709Z" fill="#ffeaa7"/>
        </g>
        <g id="Grupo_80753" data-name="Grupo 80753">
          <path id="Trazado_181360" data-name="Trazado 181360" d="M54.08,23.03H44.705a4.537,4.537,0,0,1-2.845-6.868l-3.834-3.834A4.527,4.527,0,0,1,31.958,11.2a21.683,21.683,0,0,1,39,5.825A13.59,13.59,0,0,0,63.671,14.9a35.051,35.051,0,0,1-13.059-2.52l-.081-.027a2.259,2.259,0,0,0-.84-.163H49.61a2.186,2.186,0,0,0-2.195,2.195,5.34,5.34,0,0,0,1.287,3.5,5.4,5.4,0,0,0,3.238,1.842l2.384.393a1.467,1.467,0,0,1-.244,2.913Z" fill="#ffd400"/>
        </g>
        <g id="Grupo_80754" data-name="Grupo 80754">
          <circle id="Elipse_4692" data-name="Elipse 4692" cx="2.709" cy="2.709" r="2.709" transform="translate(17.611 47.415)" fill="#00bab5"/>
        </g>
        <g id="Grupo_80755" data-name="Grupo 80755">
          <circle id="Elipse_4693" data-name="Elipse 4693" cx="2.709" cy="2.709" r="2.709" transform="translate(6.774 52.834)" fill="#00bab5"/>
        </g>
        <g id="Grupo_80756" data-name="Grupo 80756">
          <circle id="Elipse_4694" data-name="Elipse 4694" cx="2.709" cy="2.709" r="2.709" transform="translate(1.355 23.03)" fill="#00bab5"/>
        </g>
        <g id="Grupo_80757" data-name="Grupo 80757">
          <circle id="Elipse_4695" data-name="Elipse 4695" cx="2.709" cy="2.709" r="2.709" transform="translate(6.774 1.355)" fill="#00bab5"/>
        </g>
        <g id="Grupo_80758" data-name="Grupo 80758">
          <path id="Trazado_181361" data-name="Trazado 181361" d="M18.871,12.328A4.526,4.526,0,0,0,25.74,9.483h5.419a4.376,4.376,0,0,0,.8,1.72,4.527,4.527,0,0,0,6.069,1.124l3.834,3.834a4.537,4.537,0,0,0,2.845,6.868H36.117a8.128,8.128,0,1,0,0,5.419h8.589a2.7,2.7,0,0,0-2.33,1.328,4.586,4.586,0,0,0-1.233,3.116,4.5,4.5,0,0,0,.718,2.425l-3.834,3.834a4.535,4.535,0,0,0-2.425-.718,4.013,4.013,0,0,0-.894.095A4.542,4.542,0,0,0,31.158,42H25.74A4.552,4.552,0,0,0,21.3,38.433a4.008,4.008,0,0,0-.975.122,4.165,4.165,0,0,0-1.45.6L16.3,36.577l-1.26-1.26a4.526,4.526,0,0,0-2.845-6.868V23.03a4.526,4.526,0,0,0,2.845-6.868Z" fill="#214be5"/>
        </g>
        <g id="Grupo_80759" data-name="Grupo 80759">
          <path id="Trazado_181362" data-name="Trazado 181362" d="M33.868,23.03a2.717,2.717,0,0,0-2.709,2.709,2.709,2.709,0,1,0-2.709,2.709,2.717,2.717,0,0,0,2.709-2.709,2.729,2.729,0,0,0,2.709,2.709h2.249a8.128,8.128,0,1,1,0-5.419Z" fill="#ffd400"/>
        </g>
        <g id="Grupo_80760" data-name="Grupo 80760">
          <path id="Trazado_181363" data-name="Trazado 181363" d="M74.509,20.321h8.128V42H74.509Z" fill="#e6e9ed"/>
        </g>
        <g id="Grupo_80761" data-name="Grupo 80761">
          <path id="Trazado_181364" data-name="Trazado 181364" d="M47.415,39.287H44.705A2.729,2.729,0,0,1,42,36.577a2.717,2.717,0,0,1,2.709-2.709A2.729,2.729,0,0,1,42,31.158a2.711,2.711,0,0,1,2.709-2.709H33.868a2.729,2.729,0,0,1-2.709-2.709,2.717,2.717,0,0,1,2.709-2.709H54.08a1.467,1.467,0,0,0,.244-2.913l-2.384-.393A5.4,5.4,0,0,1,48.7,17.882a5.34,5.34,0,0,1-1.287-3.5,2.186,2.186,0,0,1,2.195-2.195h.081a2.259,2.259,0,0,1,.84.163l.081.027A35.051,35.051,0,0,0,63.671,14.9a13.542,13.542,0,0,1,10.838,5.419V42a25.569,25.569,0,0,1-11.474,2.709H47.415A2.729,2.729,0,0,1,44.705,42,2.717,2.717,0,0,1,47.415,39.287Z" fill="#f0d0b4"/>
        </g>
      </g>
      <g id="Grupo_80763" data-name="Grupo 80763">
        <path id="Trazado_181365" data-name="Trazado 181365" d="M75.134,18.966a14.882,14.882,0,0,0-3.028-2.774A23.016,23.016,0,0,0,32.314,8.438l-.069-.31H24.653l-.236,1.061a3.185,3.185,0,0,1-4.82,2l-.916-.584-2.946,2.945h-4.9V7.879a4.064,4.064,0,1,0-2.709,0v8.378h5.366l.4.63a3.188,3.188,0,0,1-2,4.821l-1.061.236v2.441H7.879a4.064,4.064,0,1,0,0,2.709h2.959v2.441l1.061.236a3.185,3.185,0,0,1,2,4.82l-.4.631H8.128V51.728a4.064,4.064,0,1,0,2.709,0v-13.8h4.9l2.945,2.945.284-.182v5.614a4.064,4.064,0,1,0,2.709,0V39.824a3.225,3.225,0,0,1,.851.213,3.152,3.152,0,0,1,1.891,2.253l.236,1.061h7.592l.236-1.061a3.141,3.141,0,0,1,1.8-2.2c.485.555.973,1.115,1.447,1.642,2.635,2.93,4.911,5.461,4.911,8.4v2.709A4.038,4.038,0,0,0,41.7,55.543,4.017,4.017,0,0,0,42.77,61.8l-3.7,7.4L50.124,85,61.18,69.207l-3.7-7.4a4.018,4.018,0,0,0,1.072-6.261,4.031,4.031,0,0,0,1.057-2.709V50.124a7.422,7.422,0,0,1,1.4-4.064h2.027a27.148,27.148,0,0,0,11.775-2.709h9.185V18.966ZM9.483,2.709A1.355,1.355,0,1,1,8.128,4.064,1.357,1.357,0,0,1,9.483,2.709ZM4.064,27.094A1.355,1.355,0,1,1,5.419,25.74,1.357,1.357,0,0,1,4.064,27.094ZM9.483,56.9a1.355,1.355,0,1,1,1.355-1.355A1.357,1.357,0,0,1,9.483,56.9ZM50.124,2.709A20.431,20.431,0,0,1,68.51,14.375a14.852,14.852,0,0,0-4.839-.828A33.8,33.8,0,0,1,51.035,11.1a3.7,3.7,0,0,0-1.428-.26,3.55,3.55,0,0,0-3.547,3.547,6.741,6.741,0,0,0,5.652,6.671l2.383.4a.114.114,0,0,1,.093.111.112.112,0,0,1-.112.112h-9.17A3.175,3.175,0,0,1,43,16.886l.584-.917L38.216,10.6l-.917.584a3.149,3.149,0,0,1-2.929.256,3.258,3.258,0,0,1-.669-.375A20.266,20.266,0,0,1,50.124,2.709Zm-29.8,48.77a1.355,1.355,0,1,1,1.355-1.355A1.357,1.357,0,0,1,20.321,51.479Zm9.86-10.838H26.718a5.895,5.895,0,0,0-7.582-3.14l-2.448-2.448a5.895,5.895,0,0,0-3.14-7.582V24.008a5.9,5.9,0,0,0,3.14-7.584l2.448-2.448a5.9,5.9,0,0,0,7.582-3.139H30.18a5.895,5.895,0,0,0,7.582,3.14l2.448,2.448a5.907,5.907,0,0,0,.034,4.429,5.758,5.758,0,0,0,.429.821H36.989a9.483,9.483,0,1,0,0,8.128h3.689a5.892,5.892,0,0,0-.467,5.25L37.763,37.5a5.895,5.895,0,0,0-7.582,3.14Zm.978-17.909a4.064,4.064,0,1,0,0,6.015,4.033,4.033,0,0,0,2.7,1.057,6.774,6.774,0,1,1,0-8.128,4.033,4.033,0,0,0-2.7,1.057ZM29.8,25.74a1.355,1.355,0,1,1-1.355-1.355A1.357,1.357,0,0,1,29.8,25.74ZM43.351,52.834V51.479H56.9v1.355a1.357,1.357,0,0,1-1.355,1.355H44.705A1.357,1.357,0,0,1,43.351,52.834ZM56.9,58.253a1.357,1.357,0,0,1-1.355,1.355H44.705a1.355,1.355,0,0,1,0-2.709H55.543A1.357,1.357,0,0,1,56.9,58.253ZM48.77,69.09a1.355,1.355,0,1,1,1.355,1.355A1.357,1.357,0,0,1,48.77,69.09Zm2.709,9.25V72.905a4.064,4.064,0,1,0-2.709,0V78.34l-6.555-9.365,3.329-6.658h9.163l3.33,6.658ZM57.01,48.77H43.236c-.484-3.029-2.531-5.535-4.815-8.1l2.535-2.535a4.068,4.068,0,0,0,2.695,2.346,4.017,4.017,0,0,0-.3,1.512,4.069,4.069,0,0,0,4.064,4.064H57.884A9.753,9.753,0,0,0,57.01,48.77Zm-9.6-5.419a1.355,1.355,0,0,1,0-2.709h6.774V37.932H44.705a1.355,1.355,0,0,1,0-2.709h9.483V32.513H44.705a1.355,1.355,0,0,1,0-2.709h9.483V27.094H33.868a1.355,1.355,0,1,1,0-2.709H54.076a2.821,2.821,0,0,0,.463-5.6l-2.383-.4a4.041,4.041,0,0,1-3.387-4,.859.859,0,0,1,.917-.837,1.056,1.056,0,0,1,.419.1,36.393,36.393,0,0,0,13.566,2.612,12.242,12.242,0,0,1,9.483,4.557V41.132a24.424,24.424,0,0,1-10.122,2.219Zm33.868-2.709H75.864V21.675h5.419Z" fill="#12263f"/>
        <path id="Trazado_181366" data-name="Trazado 181366" d="M67.736,73.154h2.709v2.709H67.736Z" fill="#12263f"/>
        <path id="Trazado_181367" data-name="Trazado 181367" d="M73.154,73.154h2.709v2.709H73.154Z" fill="#12263f"/>
        <path id="Trazado_181368" data-name="Trazado 181368" d="M78.573,73.154h2.709v2.709H78.573Z" fill="#12263f"/>
        <path id="Trazado_181369" data-name="Trazado 181369" d="M65.026,67.736H83.992v2.709H65.026Z" fill="#12263f"/>
        <path id="Trazado_181370" data-name="Trazado 181370" d="M65.026,62.317H83.992v2.709H65.026Z" fill="#12263f"/>
        <path id="Trazado_181371" data-name="Trazado 181371" d="M65.026,56.9H83.992v2.709H65.026Z" fill="#12263f"/>
      </g>
    </g>
  </g>
</svg>
