<svg xmlns="http://www.w3.org/2000/svg" width="71" height="71" viewBox="0 0 71 71">
  <g id="Grupo_141259" data-name="Grupo 141259" transform="translate(-194 -476)">
    <circle id="Elipse_4788" data-name="Elipse 4788" cx="35.5" cy="35.5" r="35.5" transform="translate(194 476)" fill="#fff"/>
    <g id="Grupo_141234" data-name="Grupo 141234" transform="translate(209 486)">
      <path id="Trazado_184714" data-name="Trazado 184714" d="M3466.39,2799.5c-.035-4.075.042-8.155-.154-12.222a32.479,32.479,0,0,0-1.106-5.586c-.878-3.82-1.871-7.615-2.677-11.449a17.286,17.286,0,0,1,.646-9.142,18.644,18.644,0,0,1,7.253-9.63,17.862,17.862,0,0,1,7.948-3.1,18.409,18.409,0,0,1,15.941,5.305,17.845,17.845,0,0,1,5.337,10.684c.151,1.154.13,2.33.2,3.5a2.877,2.877,0,0,0,.157.871c1.294,3.255,2.6,6.5,3.909,9.754a2.416,2.416,0,0,1-2.39,3.574c-1.085,0-2.17,0-3.332,0,0,.224,0,.418,0,.611-.008,1.47.034,2.943-.035,4.411a4.83,4.83,0,0,1-4.574,4.487c-.651.026-1.3.006-1.955.012a1.86,1.86,0,0,0-2,2.008c-.009,1.971-.005,3.943-.007,5.915Zm21.654-1.546c0-.213,0-.392,0-.572,0-1.354-.025-2.708.014-4.061a3.308,3.308,0,0,1,3.229-3.252c.567-.025,1.136-.009,1.7-.013a3.355,3.355,0,0,0,3.6-3.6c0-1.788,0-3.576,0-5.364v-.554c1.667,0,3.254,0,4.841,0,1.054,0,1.387-.5.994-1.48q-2.037-5.088-4.071-10.176a1.62,1.62,0,0,1-.13-.673,17.339,17.339,0,0,0-9.284-16.551,17.256,17.256,0,0,0-16.5.308,17.086,17.086,0,0,0-7.276,8.031,16.074,16.074,0,0,0-1.2,9.985c.824,3.968,1.792,7.907,2.792,11.835a36.316,36.316,0,0,1,1.21,10.159c-.057,1.8-.01,3.609-.01,5.415v.562Z" transform="translate(-3462.109 -2748.186)" fill="#214be5"/>
      <path id="Trazado_184715" data-name="Trazado 184715" d="M3495.039,2785.793h2c.117,0,.308.043.339-.009a14.179,14.179,0,0,0,.729-1.341.47.47,0,0,0-.1-.414c-.513-.525-1.05-1.026-1.534-1.493l3.916-3.911c.423.438.932.942,1.414,1.472.207.227.375.17.645.118,1.106-.217,1.347-.91,1.2-1.9a7.8,7.8,0,0,1-.009-1.118h5.473c0,.709.013,1.421-.006,2.132-.008.294.116.4.361.551a1.427,1.427,0,0,0,2.193-.489,9.976,9.976,0,0,1,.741-.858l3.875,3.9-1.78,1.66.7,1.707h2.514v5.443c-.693,0-1.373.017-2.05-.007-.348-.013-.475.13-.661.426a1.365,1.365,0,0,0,.469,2.108,6.5,6.5,0,0,1,.777.747l-3.874,3.873c-.431-.435-.943-.936-1.435-1.457-.189-.2-.359-.274-.6-.113a.942.942,0,0,1-.362.167c-.786.11-.952.594-.872,1.3a14.249,14.249,0,0,1,.01,1.54h-5.473c0-.689-.022-1.371.009-2.051.016-.368-.1-.569-.461-.633a.23.23,0,0,1-.1-.029c-.8-.6-1.369-.255-1.893.428a9.592,9.592,0,0,1-.847.87l-3.884-3.928c.452-.427.963-.926,1.494-1.4.208-.187.187-.342.13-.6a1.449,1.449,0,0,0-1.924-1.249,6.715,6.715,0,0,1-1.127.01Zm1.535,3.937h2.071l1.449,3.5-1.433,1.369,1.734,1.744,1.353-1.506,3.448,1.422v2.055h2.387c0-.625-.015-1.223.01-1.819a.538.538,0,0,1,.228-.41c1.03-.413,2.072-.794,3.241-1.233l1.3,1.4,1.784-1.778-1.439-1.314c.421-1.082.831-2.062,1.175-3.065.1-.3.213-.392.51-.382.593.019,1.187.005,1.788.005V2787.3h-2.165c-.2-.623-.345-1.192-.569-1.729s-.538-1.064-.857-1.684l1.506-1.379-1.737-1.743-1.323,1.436c-1.086-.428-2.047-.843-3.035-1.175-.35-.117-.438-.257-.426-.587.021-.576.006-1.154.006-1.72h-2.4c0,.635.019,1.235-.014,1.833a.57.57,0,0,1-.287.415c-1.014.412-2.041.791-3.256,1.254l-1.261-1.421-1.719,1.724c.4.389.852.812,1.277,1.259a.467.467,0,0,1,.084.409c-.441,1.017-.906,2.024-1.407,3.129h-2.022Z" transform="translate(-3487.99 -2770.984)" fill="#214be5"/>
      <path id="Trazado_184716" data-name="Trazado 184716" d="M3544.663,2970.936v1.456h-8.473v-1.456Z" transform="translate(-3520.332 -2923.253)" fill="#214be5"/>
      <path id="Trazado_184717" data-name="Trazado 184717" d="M3592.1,2775.315l-1.283.822a15.332,15.332,0,0,0-4.823-4.689l.793-1.313A16.422,16.422,0,0,1,3592.1,2775.315Z" transform="translate(-3559.472 -2765.436)" fill="#214be5"/>
      <path id="Trazado_184718" data-name="Trazado 184718" d="M3515.4,2970.919v1.5h-2.65c-1.4,0-1.4,0-1.167-1.5Z" transform="translate(-3500.904 -2923.239)" fill="#214be5"/>
      <path id="Trazado_184719" data-name="Trazado 184719" d="M3614.7,2803.937l-1.465.431-.949-2.388,1.353-.7Z" transform="translate(-3580.14 -2789.917)" fill="#214be5"/>
      <path id="Trazado_184720" data-name="Trazado 184720" d="M3531.422,2807.3a6.2,6.2,0,1,1-12.389-.258,6.3,6.3,0,0,1,6.2-5.971A6.237,6.237,0,0,1,3531.422,2807.3Zm-6.172,4.6a4.619,4.619,0,1,0-.039-9.238,4.619,4.619,0,1,0,.039,9.238Z" transform="translate(-3506.846 -2789.754)" fill="#214be5"/>
      <path id="Trazado_184721" data-name="Trazado 184721" d="M3539.5,2818.4a3.175,3.175,0,1,1-3.174-3.2A3.19,3.19,0,0,1,3539.5,2818.4Zm-1.523-.011a1.654,1.654,0,0,0-3.309,0,1.689,1.689,0,0,0,1.659,1.662A1.67,1.67,0,0,0,3537.973,2818.389Z" transform="translate(-3517.939 -2800.855)" fill="#214be5"/>
    </g>
  </g>
</svg>
