<svg xmlns="http://www.w3.org/2000/svg" xmlns:xlink="http://www.w3.org/1999/xlink" width="85" height="85" viewBox="0 0 85 85">
  <defs>
    <clipPath id="clip-path">
      <rect id="Rectángulo_23156" data-name="Rectángulo 23156" width="85" height="85" transform="translate(1230 2768)" fill="#fff" stroke="#707070" stroke-width="1"/>
    </clipPath>
  </defs>
  <g id="Enmascarar_grupo_102" data-name="Enmascarar grupo 102" transform="translate(-1230 -2768)" clip-path="url(#clip-path)">
    <g id="Filled_outline" data-name="Filled outline" transform="translate(1227.167 2765.176)">
      <path id="Trazado_181464" data-name="Trazado 181464" d="M56.039,19.89A33.274,33.274,0,0,1,48.16,43.911h-8.5c3.71-3.932,5.282-9.269,5.283-14.591a34.867,34.867,0,0,0-1.006-7.925,41.948,41.948,0,0,0-2.683-7.288L54.593,12.1a30.738,30.738,0,0,1,1.446,7.791Z" fill="#214be5" opacity="0.62"/>
      <path id="Trazado_181465" data-name="Trazado 181465" d="M19.831,43.911V58.075H15.581a4.249,4.249,0,0,0,0,8.5h4.249V72.24a8.5,8.5,0,0,0,8.5,8.5h7.082V86.4H66.574V80.158a33.542,33.542,0,0,1,3.541-15,33.541,33.541,0,0,0,3.541-15V43.911Z" fill="#fdc8a2"/>
      <path id="Trazado_181466" data-name="Trazado 181466" d="M11.332,9.915l2.833-5.666L17,9.915l7.082,1.416-4.249,4.249,1.416,5.666-7.082-2.833L7.082,21.247,8.5,15.581,4.249,11.332Z" fill="#ffd400"/>
      <path id="Trazado_181467" data-name="Trazado 181467" d="M35.412,43.911A52.225,52.225,0,0,0,21.247,21.247l-7.082-2.833L7.082,21.247s18.414,8.5,22.664,22.664Z" fill="#ff0092"/>
      <path id="Trazado_181468" data-name="Trazado 181468" d="M41.078,43.911c-2.833-18.414-17-32.579-17-32.579l-4.249,4.249,1.416,5.666A52.225,52.225,0,0,1,35.412,43.911Z" fill="#ff0092"/>
      <path id="Trazado_181469" data-name="Trazado 181469" d="M77.584,25l-9.266-6.523L75.27,8.6a10.25,10.25,0,0,1,9.91-4.235,10.25,10.25,0,0,1-.644,10.758Z" fill="#00bab5"/>
      <path id="Trazado_181470" data-name="Trazado 181470" d="M81.919,9a2.833,2.833,0,1,0,.686,3.947A2.836,2.836,0,0,0,81.919,9Z" fill="#ffb431"/>
      <g id="Grupo_80770" data-name="Grupo 80770">
        <path id="Trazado_181471" data-name="Trazado 181471" d="M72.394,12.686l-6.264-.945-4.892,6.95L66,16.847l2.317,1.631Z" fill="#348ed8"/>
        <path id="Trazado_181472" data-name="Trazado 181472" d="M81.66,19.209l3,5.578-4.892,6.95.129-5.106L77.584,25Z" fill="#348ed8"/>
        <path id="Trazado_181473" data-name="Trazado 181473" d="M73.164,28.818l-6.95-4.892,4.42-3.818,4.633,3.261Z" fill="#348ed8"/>
      </g>
      <path id="Trazado_181474" data-name="Trazado 181474" d="M63.741,26.913s-7.082,7.082-7.082,17h7.082c5.666-4.249,7.082-12.748,7.082-12.748Z" fill="#ffd400"/>
      <path id="Trazado_181475" data-name="Trazado 181475" d="M60.279,33.265h8.254V36.1H60.279Z" transform="matrix(0.514, -0.858, 0.858, 0.514, 1.532, 72.114)" fill="#f9a614"/>
      <circle id="Elipse_4703" data-name="Elipse 4703" cx="7.082" cy="7.082" r="7.082" transform="translate(41.078 4.249)" fill="#214be5"/>
      <path id="Trazado_181476" data-name="Trazado 181476" d="M41.222,12.758A7.084,7.084,0,0,1,54.939,9.272" fill="#214be5"/>
      <path id="Trazado_181477" data-name="Trazado 181477" d="M8.5,42.494V36.828l4.249,2.833L17,36.828v7.082l4.249,4.249H14.165l-2.833,5.666L9.03,48.1,4.249,46.744Z" fill="#ffd400"/>
      <path id="Trazado_181478" data-name="Trazado 181478" d="M48.358,30.72a24.426,24.426,0,0,0,.191-8.548l2.762-.629a26.566,26.566,0,0,1-.162,9.66ZM30.438,4.811,28.06,6.352a40.73,40.73,0,0,1,2.354,4.186l2.545-1.245a43.589,43.589,0,0,0-2.521-4.481Zm4.974,83.01H66.574A1.416,1.416,0,0,0,67.991,86.4V80.158a32.261,32.261,0,0,1,.246-3.971l-2.811-.35a35.085,35.085,0,0,0-.268,4.321v4.83H36.828V82.155h9.915V79.323H28.329a7.09,7.09,0,0,1-7.082-7.082v-.089a11.586,11.586,0,0,0,6.839-3.332l1.245-1.245-2-2-1.245,1.245a8.775,8.775,0,0,1-4.836,2.476V66.574a1.416,1.416,0,0,0-1.416-1.416H15.581a2.833,2.833,0,1,1,0-5.666h4.249a1.416,1.416,0,0,0,1.416-1.416V51.524H18.414v5.135H15.581a5.666,5.666,0,1,0,0,11.332h2.833V72.24a9.926,9.926,0,0,0,9.915,9.915H34V86.4a1.416,1.416,0,0,0,1.416,1.416ZM62.74,25.911c-.292.292-6.848,6.957-7.452,16.583H51.071a34.35,34.35,0,0,0,6.373-22.788l-2.809.365a28.318,28.318,0,0,1-.364,7.511A32.076,32.076,0,0,1,47.5,42.494H42.618c6.381-9.3,2.8-21.019,2.644-21.529l-2.7.848c.032.1,2.8,9.235-1.088,17.049-.433-1.66-.943-3.274-1.512-4.837.639-6.229-.515-11.883-3.349-16.368l-2.4,1.513a20.207,20.207,0,0,1,2.867,8.235,75.206,75.206,0,0,0-9.664-14.49l-2.159,1.833c3.46,4.073,11.629,14.793,14.135,27.745h-2.94a54.031,54.031,0,0,0-11.1-19.1q-.327-.366-.63-.692L22.65,24.627q.285.308.595.653a51.362,51.362,0,0,1,10.22,17.214H30.773c-3.411-9.728-13.02-16.708-18.566-20.061l-1.465,2.424c5.03,3.041,13.606,9.222,17,17.636H24.852a30.984,30.984,0,0,0-2.96-3.789L19.8,40.617q.857.936,1.623,1.943v2.767H72.24v4.83a32.14,32.14,0,0,1-3.39,14.363,34.981,34.981,0,0,0-2.969,8.563l2.774.573a32.18,32.18,0,0,1,2.727-7.865,34.979,34.979,0,0,0,3.691-15.634V43.911a1.416,1.416,0,0,0-1.082-1.375,20.019,20.019,0,0,0,3.575-6.712l-2.744-.706c-.814,3.167-3.65,6.457-4.485,7.376H67.243a26.1,26.1,0,0,0,4.979-11.1l-2.794-.467c-.013.078-1.339,7.626-6.175,11.566H58.131c.62-8.451,6.55-14.517,6.613-14.581l-1-1Zm1.041,36.079a40.484,40.484,0,0,0-1.92,4.508l2.669.95a37.7,37.7,0,0,1,1.785-4.192,29.322,29.322,0,0,0,2.691-8.288L66.212,54.5a26.506,26.506,0,0,1-2.431,7.488Zm5.626-11.833v-.581H66.574v.581c0,.708-.03,1.428-.089,2.136l2.823.232C69.374,51.74,69.407,50.943,69.407,50.157ZM17.955,8.662l6.4,1.28a1.416,1.416,0,0,1,.724,2.39L21.4,16.016,22.621,20.9a1.416,1.416,0,0,1-1.9,1.659L14.165,19.94,7.608,22.562a1.416,1.416,0,0,1-1.9-1.659L6.93,16.016,3.247,12.333a1.416,1.416,0,0,1,.724-2.39l6.4-1.28L12.9,3.616a1.416,1.416,0,0,1,2.534,0ZM21.207,12.2l-4.487-.9a1.416,1.416,0,0,1-.989-.756L14.165,7.417,12.6,10.549a1.416,1.416,0,0,1-.989.756l-4.487.9L9.5,14.58a1.416,1.416,0,0,1,.372,1.346L9.128,18.9l4.511-1.8a1.416,1.416,0,0,1,1.052,0l4.51,1.8-.744-2.978a1.416,1.416,0,0,1,.372-1.346ZM81.919,9a2.833,2.833,0,1,0,.686,3.947A2.836,2.836,0,0,0,81.919,9Zm4.508-5.3a11.6,11.6,0,0,1-.733,12.245l-2.373,3.37,2.588,4.808a1.416,1.416,0,0,1-.089,1.487l-4.892,6.95a1.416,1.416,0,0,1-2.574-.851l.11-4.348-2.53-1.782-1.45,3.756a1.416,1.416,0,0,1-2.137.648L65.4,25.084a1.416,1.416,0,0,1-.111-2.231l3.047-2.632-2.53-1.781-4.055,1.571a1.416,1.416,0,0,1-1.67-2.136l4.892-6.95a1.417,1.417,0,0,1,1.37-.585l5.4.815,2.373-3.37A11.6,11.6,0,0,1,85.391,2.964a1.416,1.416,0,0,1,1.037.729ZM69.916,13.745l-3.132-.472-1.7,2.408.4-.155a1.416,1.416,0,0,1,1.327.163l1.158.815ZM73.547,23.89,70.723,21.9l-2.21,1.909,3.983,2.8Zm9.453.8L81.5,21.9l-1.942,2.759,1.158.814a1.416,1.416,0,0,1,.6,1.194l-.011.429Zm1.25-19a8.775,8.775,0,0,0-7.821,3.729L73.553,13.5h0l-3.261,4.633,6.95,4.892,6.137-8.72a8.778,8.778,0,0,0,.872-8.621ZM67.789,31.89,65.36,30.433,61.11,37.515l2.429,1.458ZM58.521,12.63l-2.054.5A8.494,8.494,0,0,1,41.586,16.71s-3.014.685-3.348.685a4.252,4.252,0,0,1-4.122-3.255,4.311,4.311,0,0,1-.12-1,4.238,4.238,0,0,1,3.255-4.13l2.975-.717a8.481,8.481,0,0,1,1.358-2.346l2.192,1.8a5.661,5.661,0,0,0-.857,5.73L53.8,10.851A5.672,5.672,0,0,0,48.16,5.666a5.606,5.606,0,0,0-2.506.583L44.4,3.709A8.493,8.493,0,0,1,53.84,5.016l2.689-.648A4.254,4.254,0,0,1,61.655,7.5a4.313,4.313,0,0,1,.119,1,4.237,4.237,0,0,1-3.253,4.128ZM40.143,14.143a8.458,8.458,0,0,1-.481-2.8l-1.747.421a1.413,1.413,0,0,0-1.086,1.376,1.461,1.461,0,0,0,.041.338,1.415,1.415,0,0,0,1.707,1.04Zm13.06-.232-8.355,2.012A5.657,5.657,0,0,0,53.2,13.911ZM58.941,8.5a1.463,1.463,0,0,0-.041-.338,1.416,1.416,0,0,0-1.708-1.042l-1.463.352a8.431,8.431,0,0,1,.85,2.709l1.277-.308A1.412,1.412,0,0,0,58.941,8.5ZM48.16,7.081V9.915h2.833V7.082ZM3.248,45.742l3.835-3.834V36.828a1.416,1.416,0,0,1,2.2-1.179l3.464,2.309,3.464-2.309a1.416,1.416,0,0,1,2.2,1.179v6.5l3.835,3.834a1.416,1.416,0,0,1-1,2.418H15.04L12.6,54.46a1.416,1.416,0,0,1-1.267.783h-.058a1.416,1.416,0,0,1-1.257-.887l-2.042-5.08L3.862,48.107a1.416,1.416,0,0,1-.615-2.364Zm3.709.3,2.461.7a1.416,1.416,0,0,1,.927.834l1.128,2.805L12.9,47.527a1.416,1.416,0,0,1,1.266-.784h3.663L16,44.912a1.416,1.416,0,0,1-.415-1V39.475L13.534,40.84a1.416,1.416,0,0,1-1.572,0L9.915,39.475v3.019a1.417,1.417,0,0,1-.415,1ZM3.94,31.128a32.933,32.933,0,0,1,8.105,3.358l1.405-2.46a35.127,35.127,0,0,0-8.894-3.663ZM67.263,7.573a13.777,13.777,0,0,0,.728-4.74H65.158a10.927,10.927,0,0,1-.552,3.759ZM87.109,37.939l.362-2.81a9.9,9.9,0,0,0-7.534,2.506L81.9,39.682a7.124,7.124,0,0,1,5.214-1.744Zm-2.121,8.8H82.155v2.833H79.323V52.41h2.833v2.833h2.833V52.41h2.833V49.577H84.988ZM11.332,77.906V75.073h2.833V72.24H11.332V69.407H8.5V72.24H5.666v2.833H8.5v2.833ZM79.323,63.741V60.908H76.49v2.833Zm1.416,2.833v2.833h2.833V66.574ZM2.833,65.158H5.666V62.325H2.833Zm49.577-17v2.833h2.833V48.16Zm-5.666,8.5v2.833h2.833V56.659ZM19.831,2.833V5.666h2.833V2.833ZM59.492,25.5h2.833V22.664H59.492Z" fill="#12263f"/>
    </g>
  </g>
</svg>
