<svg xmlns="http://www.w3.org/2000/svg" xmlns:xlink="http://www.w3.org/1999/xlink" width="85" height="85" viewBox="0 0 85 85">
  <defs>
    <clipPath id="clip-path">
      <rect id="Rectángulo_23155" data-name="Rectángulo 23155" width="85" height="85" transform="translate(1230 2365)" fill="#fff" stroke="#707070" stroke-width="1"/>
    </clipPath>
  </defs>
  <g id="Enmascarar_grupo_98" data-name="Enmascarar grupo 98" transform="translate(-1230 -2365)" clip-path="url(#clip-path)">
    <g id="empathy" transform="translate(1230 2365)">
      <path id="Trazado_181391" data-name="Trazado 181391" d="M66.583,2.125a17,17,0,0,0-17,17v1.417L43.917,36.125h8.5v9.917H68v7.083H83.583v-34A17,17,0,0,0,66.583,2.125ZM55.25,19.975a6.757,6.757,0,0,0,9.556.02l.02-.02A6.757,6.757,0,0,1,55.27,20Z" fill="#00bab5"/>
      <path id="Trazado_181392" data-name="Trazado 181392" d="M17,75.792H32.583V65.875h8.5L35.417,50.292V48.875a17,17,0,1,0-34,0v34H17ZM29.75,49.725a6.757,6.757,0,0,1-9.556.02l-.02-.02a6.757,6.757,0,0,0,9.556.02Z" fill="#ff0092"/>
      <g id="Grupo_80766" data-name="Grupo 80766">
        <path id="Trazado_181393" data-name="Trazado 181393" d="M66.583.708A18.417,18.417,0,0,0,48.167,19.125v1.162L42.585,35.643a1.419,1.419,0,0,0,1.332,1.9H51v8.5a1.417,1.417,0,0,0,1.417,1.417H66.583v5.667A1.417,1.417,0,0,0,68,54.542H83.583A1.417,1.417,0,0,0,85,53.125v-34A18.417,18.417,0,0,0,66.583.708Zm15.583,51H69.417V46.042A1.417,1.417,0,0,0,68,44.625H53.833v-8.5a1.417,1.417,0,0,0-1.417-1.417H45.942l4.972-13.685A1.418,1.418,0,0,0,51,20.542V19.125a15.583,15.583,0,1,1,31.167,0Z" fill="#12263f"/>
        <path id="Trazado_181394" data-name="Trazado 181394" d="M56.256,18.969l-2.012,2.012a8.2,8.2,0,0,0,11.588,0l-2.012-2.012a5.355,5.355,0,0,1-7.565,0Z" fill="#12263f"/>
        <path id="Trazado_181395" data-name="Trazado 181395" d="M1.417,84.292H17a1.417,1.417,0,0,0,1.417-1.417V77.208H32.583A1.417,1.417,0,0,0,34,75.792v-8.5h7.083a1.419,1.419,0,0,0,1.332-1.9L36.833,50.037V48.875A18.417,18.417,0,1,0,0,48.875v34A1.417,1.417,0,0,0,1.417,84.292ZM2.833,48.875a15.583,15.583,0,1,1,31.167,0v1.417a1.418,1.418,0,0,0,.085.482l4.972,13.685H32.583a1.417,1.417,0,0,0-1.417,1.417v8.5H17a1.417,1.417,0,0,0-1.417,1.417v5.667H2.833Z" fill="#12263f"/>
        <path id="Trazado_181396" data-name="Trazado 181396" d="M30.756,50.731l-2.012-2.012a5.355,5.355,0,0,1-7.565,0l-2.012,2.012A8.2,8.2,0,0,0,30.756,50.731Z" fill="#12263f"/>
        <path id="Trazado_181397" data-name="Trazado 181397" d="M22.667,14.875h17V12.042h-17a7.083,7.083,0,0,0-7.083,7.083v3.669l-1.828-1.842-2.012,2.012,4.25,4.25a1.417,1.417,0,0,0,2,.008l.008-.008,4.25-4.25-2.012-2.012-1.827,1.842V19.125a4.25,4.25,0,0,1,4.25-4.25Z" fill="#12263f"/>
        <path id="Trazado_181398" data-name="Trazado 181398" d="M42.5,12.042h2.833v2.833H42.5Z" fill="#12263f"/>
        <path id="Trazado_181399" data-name="Trazado 181399" d="M70.833,72.958H42.5v2.833H70.833a7.083,7.083,0,0,0,7.083-7.083v-6.5l1.827,1.842,2.012-2.012-4.25-4.25a1.417,1.417,0,0,0-2-.008l-.008.008-4.25,4.25,2.012,2.012,1.827-1.842v6.5A4.25,4.25,0,0,1,70.833,72.958Z" fill="#12263f"/>
        <path id="Trazado_181400" data-name="Trazado 181400" d="M36.833,72.958h2.833v2.833H36.833Z" fill="#12263f"/>
      </g>
    </g>
  </g>
</svg>
