<svg xmlns="http://www.w3.org/2000/svg" xmlns:xlink="http://www.w3.org/1999/xlink" width="85" height="85" viewBox="0 0 85 85">
  <defs>
    <clipPath id="clip-path">
      <rect id="Rectángulo_23157" data-name="Rectángulo 23157" width="85" height="85" transform="translate(915 2768)" fill="#fff" stroke="#707070" stroke-width="1"/>
    </clipPath>
  </defs>
  <g id="Enmascarar_grupo_101" data-name="Enmascarar grupo 101" transform="translate(-915 -2768)" clip-path="url(#clip-path)">
    <g id="chat" transform="translate(915.372 2768)">
      <path id="Trazado_181432" data-name="Trazado 181432" d="M62.837,6C51.692,6,42.66,11.89,42.66,23.255a20.18,20.18,0,1,0,40.353,0C83.012,11.89,73.979,6,62.837,6Zm0,0" fill="#fbc4ac"/>
      <path id="Trazado_181433" data-name="Trazado 181433" d="M46.644,23.254A20.429,20.429,0,0,1,64.828,2.779q-.982-.1-1.992-.1A20.378,20.378,0,0,0,42.66,23.255,20.378,20.378,0,0,0,62.837,43.83q1.008,0,1.992-.1A20.428,20.428,0,0,1,46.644,23.255Zm0,0" fill="#e3b098"/>
      <path id="Trazado_181434" data-name="Trazado 181434" d="M75.015,30.642H72.167a1.245,1.245,0,0,1,0-2.49h2.848a1.245,1.245,0,1,1,0,2.49Zm0,0" fill="#f98084"/>
      <path id="Trazado_181435" data-name="Trazado 181435" d="M53.5,30.642H50.656a1.245,1.245,0,0,1,0-2.49H53.5a1.245,1.245,0,1,1,0,2.49Zm0,0" fill="#f98084"/>
      <path id="Trazado_181436" data-name="Trazado 181436" d="M82.047,16.95C80.661.082,73.859,2.679,62.837,2.679,54.5,2.679,50.5,1.845,48.8,1.313a1.461,1.461,0,0,0-1.74.73c-1.361,2.671-4.4,9.9-4.4,21.211,0,0,4.825-8.69,20.177-8.69,7.141,0,6.544,2.385,19.21,2.385Zm0,0" fill="#c86d5c"/>
      <path id="Trazado_181437" data-name="Trazado 181437" d="M51.041,2.043a1.476,1.476,0,0,1,.107-.174A20.148,20.148,0,0,1,48.8,1.313a1.461,1.461,0,0,0-1.74.73c-1.361,2.671-4.4,9.9-4.4,21.211a14.621,14.621,0,0,1,4.129-4.2,44.754,44.754,0,0,1,4.253-17.01Zm0,0" fill="#ad4f3d"/>
      <path id="Trazado_181438" data-name="Trazado 181438" d="M1.26,62.382V75.646a6.485,6.485,0,0,0,5.769,6.446l9.534,1.061Zm0,0" fill="#3a484a"/>
      <path id="Trazado_181439" data-name="Trazado 181439" d="M41.583,62.382V75.646a6.486,6.486,0,0,1-5.769,6.446L26.28,83.153Zm0,0" fill="#3a484a"/>
      <path id="Trazado_181440" data-name="Trazado 181440" d="M41.583,62.382l0,0L20.973,46.8,1.262,62.384l0,0c-.01.265-.015.53-.015.8A20.378,20.378,0,0,0,21.421,83.755,20.378,20.378,0,0,0,41.6,63.179c0-.267,0-.531-.014-.8Zm0,0" fill="#fbc4ac"/>
      <path id="Trazado_181441" data-name="Trazado 181441" d="M4.6,61.727a20.961,20.961,0,0,1-3.336.658l0,0c-.01.265-.015.529-.015.8A20.379,20.379,0,0,0,21.421,83.755c.576,0,1.145-.026,1.709-.075C13.111,82.765,5.152,73.387,4.6,61.727Zm0,0" fill="#e3b098"/>
      <path id="Trazado_181442" data-name="Trazado 181442" d="M12.091,70.566H9.242a1.245,1.245,0,1,1,0-2.49h2.848a1.245,1.245,0,1,1,0,2.49Zm0,0" fill="#f98084"/>
      <path id="Trazado_181443" data-name="Trazado 181443" d="M33.6,70.566H30.753a1.245,1.245,0,1,1,0-2.49H33.6a1.245,1.245,0,1,1,0,2.49Zm0,0" fill="#f98084"/>
      <path id="Trazado_181444" data-name="Trazado 181444" d="M1.26,62.382l0,0c10.828-1.2,20.159-11.657,20.159-11.657s9.331,10.459,20.16,11.657l0,0A20.36,20.36,0,0,0,21.421,42.6,20.359,20.359,0,0,0,1.26,62.382Zm0,0" fill="#3a484a"/>
      <path id="Trazado_181445" data-name="Trazado 181445" d="M23.164,42.681c-.575-.05-1.156-.077-1.743-.077A20.36,20.36,0,0,0,1.26,62.382l0,0A18.836,18.836,0,0,0,4.6,61.727,20.616,20.616,0,0,1,23.164,42.681Zm0,0" fill="#323e40"/>
      <path id="Trazado_181446" data-name="Trazado 181446" d="M33.916,29.293V16.855A8.045,8.045,0,0,0,25.872,8.81H9.29a8.045,8.045,0,0,0-8.045,8.045V28.221A8.045,8.045,0,0,0,9.29,36.265H37.77Zm0,0" fill="#00bab5"/>
      <path id="Trazado_181447" data-name="Trazado 181447" d="M50.341,69.934V57.5a8.044,8.044,0,0,1,8.045-8.045H74.967A8.045,8.045,0,0,1,83.012,57.5V68.862a8.044,8.044,0,0,1-8.045,8.045H46.487Zm0,0" fill="#ff0092"/>
      <path id="Trazado_181448" data-name="Trazado 181448" d="M73.591,27.569a1.245,1.245,0,0,0,1.245-1.245V24.233a1.245,1.245,0,1,0-2.49,0v2.091A1.245,1.245,0,0,0,73.591,27.569Zm0,0"/>
      <path id="Trazado_181449" data-name="Trazado 181449" d="M52.08,27.569a1.245,1.245,0,0,0,1.245-1.245V24.233a1.245,1.245,0,1,0-2.49,0v2.091A1.245,1.245,0,0,0,52.08,27.569Zm0,0"/>
      <path id="Trazado_181450" data-name="Trazado 181450" d="M65.579,27.491a1.245,1.245,0,0,0-1.757.118,1.355,1.355,0,0,1-1.972,0,1.245,1.245,0,1,0-1.875,1.639,3.845,3.845,0,0,0,5.722,0,1.245,1.245,0,0,0-.118-1.757Zm0,0"/>
      <path id="Trazado_181451" data-name="Trazado 181451" d="M10.666,67.493a1.245,1.245,0,0,0,1.245-1.245V64.157a1.245,1.245,0,0,0-2.49,0v2.091A1.245,1.245,0,0,0,10.666,67.493Zm0,0"/>
      <path id="Trazado_181452" data-name="Trazado 181452" d="M32.176,67.493a1.245,1.245,0,0,0,1.245-1.245V64.157a1.245,1.245,0,0,0-2.49,0v2.091A1.245,1.245,0,0,0,32.176,67.493Zm0,0"/>
      <path id="Trazado_181453" data-name="Trazado 181453" d="M20.436,67.533a1.245,1.245,0,0,0-1.875,1.639,3.844,3.844,0,0,0,5.722,0,1.245,1.245,0,0,0-1.875-1.639,1.355,1.355,0,0,1-1.972,0Zm0,0"/>
      <path id="Trazado_181454" data-name="Trazado 181454" d="M9.29,37.511H37.769a1.258,1.258,0,0,0,1.09-1.848l-3.7-6.691V16.856a9.3,9.3,0,0,0-9.29-9.29H9.29A9.3,9.3,0,0,0,0,16.856V28.221a9.3,9.3,0,0,0,9.29,9.29ZM2.49,16.856a6.807,6.807,0,0,1,6.8-6.8H25.872a6.807,6.807,0,0,1,6.8,6.8V29.293a1.239,1.239,0,0,0,.156.6l2.832,5.126H9.29a6.808,6.808,0,0,1-6.8-6.8Zm0,0" fill="#12263f"/>
      <path id="Trazado_181455" data-name="Trazado 181455" d="M8.9,18.1H26.265a1.245,1.245,0,1,0,0-2.49H8.9a1.245,1.245,0,0,0,0,2.49Zm0,0" fill="#fff"/>
      <path id="Trazado_181456" data-name="Trazado 181456" d="M8.9,23.784H26.265a1.245,1.245,0,1,0,0-2.49H8.9a1.245,1.245,0,1,0,0,2.49Zm0,0" fill="#fff"/>
      <path id="Trazado_181457" data-name="Trazado 181457" d="M8.9,29.466H19.728a1.245,1.245,0,0,0,0-2.49H8.9a1.245,1.245,0,1,0,0,2.49Zm0,0" fill="#fff"/>
      <path id="Trazado_181458" data-name="Trazado 181458" d="M46.488,78.152H74.967a9.3,9.3,0,0,0,9.29-9.29V57.5a9.3,9.3,0,0,0-9.29-9.29H58.385A9.3,9.3,0,0,0,49.1,57.5V69.613L45.4,76.3a1.258,1.258,0,0,0,1.089,1.847Zm4.943-7.615a1.247,1.247,0,0,0,.155-.6V57.5a6.807,6.807,0,0,1,6.8-6.8H74.967a6.807,6.807,0,0,1,6.8,6.8V68.863a6.808,6.808,0,0,1-6.8,6.8H48.6Zm0,0" fill="#12263f"/>
      <path id="Trazado_181459" data-name="Trazado 181459" d="M57.992,58.742H75.36a1.245,1.245,0,0,0,0-2.49H57.992a1.245,1.245,0,0,0,0,2.49Zm0,0" fill="#fff"/>
      <path id="Trazado_181460" data-name="Trazado 181460" d="M76.605,63.179a1.245,1.245,0,0,0-1.245-1.245H57.992a1.245,1.245,0,0,0,0,2.49H75.36A1.245,1.245,0,0,0,76.605,63.179Zm0,0" fill="#fff"/>
      <path id="Trazado_181461" data-name="Trazado 181461" d="M76.605,68.862a1.245,1.245,0,0,0-1.245-1.245H64.529a1.245,1.245,0,0,0,0,2.49H75.36a1.245,1.245,0,0,0,1.245-1.245Zm0,0" fill="#fff"/>
      <path id="Trazado_181462" data-name="Trazado 181462" d="M62.836,45.076a21.648,21.648,0,0,0,21.42-21.821,22.191,22.191,0,0,0-.981-6.532c-.613-7.291-2.27-11.494-5.365-13.617C74.99,1.1,71.147,1.221,66.7,1.357c-1.236.038-2.514.077-3.859.077-8.241,0-12.1-.821-13.668-1.31a2.7,2.7,0,0,0-3.22,1.354A37.8,37.8,0,0,0,43.22,8.806a1.245,1.245,0,0,0,2.405.645,35.3,35.3,0,0,1,2.541-6.842.213.213,0,0,1,.259-.107c2.08.648,6.268,1.422,14.41,1.422,1.383,0,2.681-.04,3.935-.078,4.18-.128,7.482-.229,9.731,1.314,2.231,1.53,3.569,4.894,4.174,10.534a51.549,51.549,0,0,1-5.614-.327A39.725,39.725,0,0,1,69.732,14.3a23.18,23.18,0,0,0-6.9-.982,35.345,35.345,0,0,0-8.534.993,25.163,25.163,0,0,0-6.817,2.779,20.267,20.267,0,0,0-3.433,2.576l-.043.04a54.675,54.675,0,0,1,.607-5.536,1.245,1.245,0,0,0-2.458-.4,59.274,59.274,0,0,0-.744,9.483A21.649,21.649,0,0,0,62.836,45.076Zm0-2.49A19.148,19.148,0,0,1,43.908,23.608c0-.012.027-.04.034-.05a15.17,15.17,0,0,1,4.539-4.137,27.15,27.15,0,0,1,16.892-3.484c2.79.308,5.454,1.335,8.233,1.745a54.2,54.2,0,0,0,7.292.506l.212,0a19.74,19.74,0,0,1,.658,5.065A19.156,19.156,0,0,1,62.836,42.586Zm0,0" fill="#12263f"/>
      <path id="Trazado_181463" data-name="Trazado 181463" d="M.015,75.647A7.723,7.723,0,0,0,6.892,83.33l9.469,1.053a21.071,21.071,0,0,0,10.121,0l9.469-1.053a7.723,7.723,0,0,0,6.877-7.683v-11.7c0-.537.019-1.072,0-1.61A21.886,21.886,0,0,0,36.3,47.483,21.165,21.165,0,0,0,4.423,49.9a1.245,1.245,0,0,0,1.988,1.5,18.675,18.675,0,0,1,28.144-2.141,19.375,19.375,0,0,1,5.669,11.661q-.458-.089-.911-.2a30.231,30.231,0,0,1-10.059-4.844l-.01-.006A47.5,47.5,0,0,1,23.79,51.36c-.4-.387-.8-.78-1.182-1.185a2,2,0,0,0-.8-.63,1.216,1.216,0,0,0-.776,0,2.488,2.488,0,0,0-.91.748c-.762.8-1.562,1.555-2.385,2.286A47.341,47.341,0,0,1,13.56,55.9,28.964,28.964,0,0,1,2.619,60.919a19.456,19.456,0,0,1,1.454-5.485,1.245,1.245,0,1,0-2.289-.982A22,22,0,0,0,.016,62.337c-.02.536-.019,1.073,0,1.609Zm9.166,5.432-2.014-.224a5.236,5.236,0,0,1-4.661-5.209V73.435a22.035,22.035,0,0,0,2.346,3.573A21.63,21.63,0,0,0,8.882,80.86c.062.045.26.193.3.219Zm31.156-5.432a5.236,5.236,0,0,1-4.661,5.209l-2.014.224c.038-.027.239-.175.3-.222a21.612,21.612,0,0,0,4.027-3.849,22.021,22.021,0,0,0,2.346-3.573ZM21.683,52.8a40.808,40.808,0,0,0,13.869,9.353,24.614,24.614,0,0,0,4.8,1.324c0,.134-.006.267-.011.4a.088.088,0,0,1,0,.013,19.53,19.53,0,0,1-6.875,14.2l-.019.016a18.59,18.59,0,0,1-24.066-.016A19.532,19.532,0,0,1,2.5,63.884a.072.072,0,0,1,0-.012c0-.133-.008-.267-.01-.4.114-.019.228-.042.342-.063a26.165,26.165,0,0,0,3.49-.912,33.512,33.512,0,0,0,8.556-4.461l.007,0a46.9,46.9,0,0,0,6.534-5.5l.261.261Zm0,0" fill="#12263f"/>
    </g>
  </g>
</svg>
