<svg xmlns="http://www.w3.org/2000/svg" width="506.663" height="407.878" viewBox="0 0 506.663 407.878">
  <g id="Grupo_82172" data-name="Grupo 82172" transform="translate(-546.669 -441.056)">
    <g id="Grupo_80731" data-name="Grupo 80731" transform="translate(105.612 154.469)">
      <g id="Grupo_80723" data-name="Grupo 80723" transform="translate(441.057 302.809)">
        <g id="Grupo_80709" data-name="Grupo 80709" transform="translate(350.773 206.685)">
          <rect id="Rectángulo_23101" data-name="Rectángulo 23101" width="79.701" height="3.383" transform="matrix(0.968, -0.25, 0.25, 0.968, 0, 19.888)" fill="#dde9f5"/>
        </g>
        <g id="Grupo_80710" data-name="Grupo 80710" transform="translate(332.332 252.237)">
          <rect id="Rectángulo_23102" data-name="Rectángulo 23102" width="3.384" height="109.241" transform="translate(0 3.167) rotate(-69.387)" fill="#dde9f5"/>
        </g>
        <g id="Grupo_80711" data-name="Grupo 80711" transform="translate(329.683 121.417)">
          <rect id="Rectángulo_23103" data-name="Rectángulo 23103" width="93.043" height="3.383" transform="matrix(0.653, -0.757, 0.757, 0.653, 0, 70.475)" fill="#dde9f5"/>
        </g>
        <g id="Grupo_80712" data-name="Grupo 80712" transform="translate(245.544 46.498)">
          <rect id="Rectángulo_23104" data-name="Rectángulo 23104" width="3.384" height="93.177" transform="matrix(0.974, -0.225, 0.225, 0.974, 0, 0.76)" fill="#dde9f5"/>
        </g>
        <g id="Grupo_80713" data-name="Grupo 80713" transform="translate(121.375 291.736)">
          <rect id="Rectángulo_23105" data-name="Rectángulo 23105" width="54.313" height="3.384" transform="matrix(0.769, -0.639, 0.639, 0.769, 0, 34.724)" fill="#dde9f5"/>
        </g>
        <g id="Grupo_80714" data-name="Grupo 80714" transform="translate(74.166 232.656)">
          <rect id="Rectángulo_23106" data-name="Rectángulo 23106" width="3.384" height="107.77" transform="matrix(0.033, -0.999, 0.999, 0.033, 0, 3.382)" fill="#dde9f5"/>
        </g>
        <g id="Grupo_80715" data-name="Grupo 80715" transform="translate(124.11 70.592)">
          <rect id="Rectángulo_23107" data-name="Rectángulo 23107" width="3.384" height="110.835" transform="matrix(0.734, -0.68, 0.68, 0.734, 0, 2.3)" fill="#dde9f5"/>
        </g>
        <g id="Grupo_80716" data-name="Grupo 80716" transform="translate(131.062 157.483)">
          <rect id="Rectángulo_23108" data-name="Rectángulo 23108" width="3.383" height="166.697" transform="translate(0 2.871) rotate(-58.077)" fill="#dde9f5"/>
        </g>
        <circle id="Elipse_4682" data-name="Elipse 4682" cx="23.984" cy="23.984" r="23.984" transform="translate(90.973 122.127)" fill="#dde9f5"/>
        <circle id="Elipse_4683" data-name="Elipse 4683" cx="126.794" cy="126.794" r="126.794" transform="translate(146.648 119.305)" fill="#dde9f5"/>
        <circle id="Elipse_4684" data-name="Elipse 4684" cx="33.058" cy="33.058" r="33.058" transform="translate(413.16 302.814) rotate(-45)" fill="#dde9f5"/>
        <circle id="Elipse_4685" data-name="Elipse 4685" cx="39.962" cy="39.962" r="39.962" transform="translate(358.733 98.366) rotate(-45)" fill="#dde9f5"/>
        <circle id="Elipse_4686" data-name="Elipse 4686" cx="20.64" cy="20.64" r="20.64" transform="translate(414.96 204.399) rotate(-45)" fill="#dde9f5"/>
        <path id="Trazado_181190" data-name="Trazado 181190" d="M1068.181,1152.248a10.394,10.394,0,0,0-10.394,10.394c0,5.74,10.394,22.431,10.394,22.431s10.394-16.691,10.394-22.431A10.394,10.394,0,0,0,1068.181,1152.248Zm0,15.628a5.234,5.234,0,1,1,5.234-5.234A5.234,5.234,0,0,1,1068.181,1167.876Z" transform="translate(-953.224 -1021.702)" fill="#f5f9fd"/>
        <circle id="Elipse_4687" data-name="Elipse 4687" cx="33.988" cy="33.988" r="33.988" transform="translate(56.553 48.067) rotate(-45)" fill="#dde9f5"/>
        <circle id="Elipse_4688" data-name="Elipse 4688" cx="33.058" cy="33.058" r="33.058" transform="translate(0 233.157) rotate(-45)" fill="#dde9f5"/>
        <circle id="Elipse_4689" data-name="Elipse 4689" cx="22.612" cy="22.612" r="22.612" transform="translate(75.025 337.023) rotate(-45)" fill="#dde9f5"/>
        <g id="Grupo_80718" data-name="Grupo 80718" transform="translate(438.638 278.813)">
          <g id="Grupo_80717" data-name="Grupo 80717">
            <path id="Trazado_181191" data-name="Trazado 181191" d="M3063.264,2033.42l-24.475-6.67-10.577,38.81,33.729,9.192,8.819-32.36Z" transform="translate(-3028.211 -2026.75)" fill="#f5f9fd"/>
            <rect id="Rectángulo_23109" data-name="Rectángulo 23109" width="16.32" height="2.651" transform="translate(10.265 12.814) rotate(15.245)" fill="#eaf4fe"/>
            <rect id="Rectángulo_23110" data-name="Rectángulo 23110" width="28.822" height="2.651" transform="translate(9.193 16.748) rotate(15.245)" fill="#eaf4fe"/>
            <rect id="Rectángulo_23111" data-name="Rectángulo 23111" width="28.822" height="2.651" transform="matrix(0.965, 0.263, -0.263, 0.965, 8.121, 20.682)" fill="#eaf4fe"/>
            <rect id="Rectángulo_23112" data-name="Rectángulo 23112" width="28.822" height="2.651" transform="matrix(0.965, 0.263, -0.263, 0.965, 7.049, 24.615)" fill="#eaf4fe"/>
          </g>
          <path id="Trazado_181192" data-name="Trazado 181192" d="M3232.067,2065.167l-.521,7.516,8.017,1.456Z" transform="translate(-3197.071 -2058.653)" fill="#eaf4fe"/>
        </g>
        <path id="Trazado_181193" data-name="Trazado 181193" d="M927.6,559.108l-2.589,1.945a23.182,23.182,0,0,0,1.323,3.76l3.234-.1a6.483,6.483,0,0,1,6.623,7.391l-.455,3.2a23.173,23.173,0,0,0,3.593,1.726l2.216-2.361a6.483,6.483,0,0,1,9.909.543L953.4,577.8a23.127,23.127,0,0,0,3.76-1.323l-.1-3.234a6.483,6.483,0,0,1,7.391-6.623l3.2.455a23.177,23.177,0,0,0,1.726-3.593l-2.361-2.216a6.483,6.483,0,0,1,.543-9.909l2.588-1.945a23.155,23.155,0,0,0-1.323-3.76l-3.234.1a6.483,6.483,0,0,1-6.623-7.391l.455-3.2a23.151,23.151,0,0,0-3.593-1.726l-2.216,2.36a6.483,6.483,0,0,1-9.909-.543l-1.945-2.589a23.132,23.132,0,0,0-3.76,1.323l.1,3.234a6.483,6.483,0,0,1-7.391,6.623l-3.2-.455a23.176,23.176,0,0,0-1.726,3.593l2.361,2.216A6.483,6.483,0,0,1,927.6,559.108Zm20.545-14.2a10.337,10.337,0,1,1-10.887,9.756A10.337,10.337,0,0,1,948.146,544.912Z" transform="translate(-842.96 -507.166)" fill="#f5f9fd"/>
        <g id="Grupo_80720" data-name="Grupo 80720" transform="translate(391.964 77.767)">
          <g id="Grupo_80719" data-name="Grupo 80719">
            <path id="Trazado_181194" data-name="Trazado 181194" d="M2758,880.562l39.868-1.086a4.144,4.144,0,0,0,4.03-4.255l-.823-30.237a4.143,4.143,0,0,0-4.255-4.03l-39.868,1.086a4.144,4.144,0,0,0-4.03,4.255l.823,30.237A4.145,4.145,0,0,0,2758,880.562Z" transform="translate(-2752.921 -840.952)" fill="#f5f9fd"/>
            <path id="Trazado_181195" data-name="Trazado 181195" d="M2815.077,1059.667l-11.121,10.8-.557-11.014Z" transform="translate(-2794.84 -1022.404)" fill="#f5f9fd"/>
          </g>
          <path id="Trazado_181196" data-name="Trazado 181196" d="M2953.769,945.679a1.7,1.7,0,1,1,2.123,1.143A1.7,1.7,0,0,1,2953.769,945.679Z" transform="translate(-2919.656 -926.101)" fill="#dde9f5"/>
          <path id="Trazado_181197" data-name="Trazado 181197" d="M2886.415,951.466a1.7,1.7,0,1,1,2.122,1.142A1.7,1.7,0,0,1,2886.415,951.466Z" transform="translate(-2863.721 -930.906)" fill="#dde9f5"/>
          <path id="Trazado_181198" data-name="Trazado 181198" d="M2818.62,954.324a1.7,1.7,0,1,1,2.122,1.142A1.7,1.7,0,0,1,2818.62,954.324Z" transform="translate(-2807.421 -933.28)" fill="#dde9f5"/>
        </g>
        <g id="Grupo_80721" data-name="Grupo 80721" transform="translate(28.104 215.684)">
          <rect id="Rectángulo_23113" data-name="Rectángulo 23113" width="9.778" height="22.908" transform="translate(0 9.242)" fill="#f5f9fd"/>
          <rect id="Rectángulo_23114" data-name="Rectángulo 23114" width="9.778" height="28.239" transform="translate(11.733 3.911)" fill="#f5f9fd"/>
          <rect id="Rectángulo_23115" data-name="Rectángulo 23115" width="9.778" height="32.15" transform="translate(23.676)" fill="#f5f9fd"/>
        </g>
        <g id="Grupo_80722" data-name="Grupo 80722" transform="translate(217.729 0.923)">
          <circle id="Elipse_4690" data-name="Elipse 4690" cx="25.446" cy="25.446" r="25.446" fill="#dde9f5"/>
          <path id="Trazado_181199" data-name="Trazado 181199" d="M1825.89,451.087a7.329,7.329,0,1,0-9.152,0,11.023,11.023,0,0,0-6.455,10.028v9.458h22.061v-9.458A11.024,11.024,0,0,0,1825.89,451.087Z" transform="translate(-1795.868 -429.506)" fill="#f5f9fd"/>
        </g>
        <path id="Trazado_181200" data-name="Trazado 181200" d="M1030.113,2284.1a10.548,10.548,0,0,0-13.123,16.439l-6.086,8.97a1.63,1.63,0,0,0,2.7,1.831l6.086-8.97a10.548,10.548,0,0,0,10.426-18.269Zm1.638,13.867a9.141,9.141,0,1,1-2.432-12.7A9.141,9.141,0,0,1,1031.751,2297.966Z" transform="translate(-914.056 -1960.142)" fill="#f5f9fd"/>
        <path id="Trazado_181201" data-name="Trazado 181201" d="M2999.292,1538.453l-5.626,2.958a1.321,1.321,0,0,1-1.917-1.393l1.074-6.265a1.322,1.322,0,0,0-.38-1.17l-4.551-4.437a1.321,1.321,0,0,1,.732-2.254l6.29-.914a1.322,1.322,0,0,0,1-.723l2.813-5.7a1.321,1.321,0,0,1,2.369,0l2.813,5.7a1.323,1.323,0,0,0,1,.723l6.291.914a1.321,1.321,0,0,1,.732,2.254l-4.552,4.437a1.32,1.32,0,0,0-.38,1.17l1.074,6.265a1.321,1.321,0,0,1-1.917,1.393l-5.626-2.958A1.323,1.323,0,0,0,2999.292,1538.453Z" transform="translate(-2555.758 -1325.293)" fill="#f5f9fd"/>
      </g>
      <path id="Trazado_181202" data-name="Trazado 181202" d="M1540.158,1230.5a116.064,116.064,0,0,1,1.075,24.045,105.859,105.859,0,0,1-4.3,23.824,153.662,153.662,0,0,1-8.977,22.481c-3.465,7.254-7.247,14.295-10.333,21.56a78.177,78.177,0,0,0-6.423,22.48c-.235,1.932-.381,3.875-.424,5.823a44.315,44.315,0,0,0,.207,5.781,45.3,45.3,0,0,0,2.673,11.243,56.481,56.481,0,0,0,12.947,19.392,79,79,0,0,0,8.968,7.8q2.381,1.8,4.9,3.422c1.67,1.092,3.375,2.136,5.149,3.065a68.651,68.651,0,0,1-10.631-5.644,75.982,75.982,0,0,1-9.636-7.326,63.8,63.8,0,0,1-8.236-8.984,51.052,51.052,0,0,1-6.129-10.651,44.4,44.4,0,0,1-3.205-11.95,47.473,47.473,0,0,1-.358-6.2c0-2.052.111-4.106.315-6.15a80.373,80.373,0,0,1,6.525-23.548c3.243-7.438,7.048-14.506,10.593-21.631a169.718,169.718,0,0,0,9.373-21.825,114.675,114.675,0,0,0,5.227-23.125A141.081,141.081,0,0,0,1540.158,1230.5Z" transform="translate(-885.572 -783.879)" fill="#233142"/>
      <path id="Trazado_181203" data-name="Trazado 181203" d="M1563.884,835.368c.487-22.439,35.414-34.41,58.269-36.774,32.572-3.369,41.714-7.827,55.342-12.006s32.655,13.024,29.633,48.558c-1.931,22.708-17.152,33.786-17.91,49.488-1.314,27.235-9.094,29.629,14.46,69.436,23.924,40.434-28.834,82.292-60.984,91.38s-77.907-14.147-88.827-41.9c-10.03-25.492.341-51.829,9.566-75.111S1563.329,860.919,1563.884,835.368Z" transform="translate(-920.731 -414.718)" fill="#233142"/>
      <path id="Trazado_181204" data-name="Trazado 181204" d="M2442.742,2212.12c.559-1.49,22.069-9.5,24.77-8.381s11.885,10.755,11.885,10.755c-1.929,6.193-18.217,11.726-25.759,12.917S2442.183,2213.61,2442.742,2212.12Z" transform="translate(-1662.267 -1592.021)" fill="#df3b99"/>
      <path id="Trazado_181205" data-name="Trazado 181205" d="M2356.613,2168.339c-17.879-.373-28.341,3.7-29.388,6.35s12.986,44,15.127,49.773,6.46,16,6.46,16c19.369,1.909,29.581-9.68,27.915-22.812-1.041-8.2-6.223-19.408-7.623-24.025A91.158,91.158,0,0,0,2356.613,2168.339Z" transform="translate(-1566.332 -1562.692)" fill="#ffc5a6"/>
      <path id="Trazado_181206" data-name="Trazado 181206" d="M2398.816,2304.393l6.73,17.61,11.556,4.5-16.733,5.749-.4.024c-2.862-10.517-5.774-22.6-5.137-24.212C2395.127,2307.31,2396.54,2305.946,2398.816,2304.393Z" transform="translate(-1622.447 -1675.698)" fill="#f0a17d"/>
      <path id="Trazado_181207" data-name="Trazado 181207" d="M2353.473,1879.346c3.758,5.026,14.606,23.084,19.1,32.91,8.368,18.3,22.056,32.933,22.056,32.933-11.733-4.889-36.431,1.257-44.672,11.733-7.711,9.8-9.342-41.206-9.342-41.206Z" transform="translate(-1577.497 -1322.716)" fill="#ff3dac"/>
      <path id="Trazado_181208" data-name="Trazado 181208" d="M1674.43,2271.476c8.55,2.888,23.915,3.527,23.915,3.527l-6.3-23.608-14.828,9.332Z" transform="translate(-1024.262 -1631.686)" fill="#df3b99"/>
      <path id="Trazado_181209" data-name="Trazado 181209" d="M1796.666,1757.64l40.106,20.3-4.208,18.942s14.585,25.711,15.365,33.71c1.117,11.454-4.105,20.916-4.377,24.956,1.01,17.134,2.249,34.888,2.249,34.888s-92.376,5.774-92.935,5.4-22.349-69.529-22.349-69.529l-12.094-43.767,47.021-23.739Z" transform="translate(-1060.796 -1221.644)" fill="#ff0092"/>
      <path id="Trazado_181210" data-name="Trazado 181210" d="M2014.108,2183.891c-.025-.256-.065-.531-.117-.821-13.293,8.048-31.591,3.375-45.419,5.083s-33.329,3.943-44.741-2.343-.849,31.865-.849,31.865,8.558,6.408,16.528,3.894,18.307-12.431,34.09-12.851,25.748,5.708,36.131.13C2010,2204.807,2015.225,2195.345,2014.108,2183.891Z" transform="translate(-1226.976 -1574.945)" fill="#e10784"/>
      <path id="Trazado_181211" data-name="Trazado 181211" d="M1967.069,1441.7c-3.964,11.3-11.773,43.136-7.239,52.709,3.163,1.6,8.738,4.206,11.37,5.755,1.993,9.172-1.945,39.554-10.481,41.141-7.545,1.4-42.74-34.554-45.82-38.813,5.408-2.768,10.665-5.385,13.71-6.922-1.205-21.6-4.809-28.868-4.809-28.868S1943.742,1434.577,1967.069,1441.7Z" transform="translate(-1223.961 -958.415)" fill="#ffc5a6"/>
      <path id="Trazado_181212" data-name="Trazado 181212" d="M2131.322,1809.329l-15.583,1.749-8.507,28.97h0a52.36,52.36,0,0,0,10.038,6.708c.385-4.4.649-10.672,1.525-13.2,3.888-4.083,10.632-14.73,12.632-20.647.006-1.248-.025-2.419-.1-3.47,0-.039-.006-.067-.009-.108Z" transform="translate(-1383.685 -1264.57)" fill="#f0a17d"/>
      <path id="Trazado_181213" data-name="Trazado 181213" d="M2050.319,1681.194c2.47,2.245,4.946,4.414,7.324,6.394.935-11.087,3.2-37.645,3.432-38.116.3-.6-4.014-21.444-4.014-21.444l-3.055,2.157c.27,8.088.27,34.3-.03,41.249C2053.887,1673.511,2051.734,1677.608,2050.319,1681.194Z" transform="translate(-1336.421 -1114.007)" fill="#f0a17d"/>
      <path id="Trazado_181214" data-name="Trazado 181214" d="M1967.422,1467.155l.032.069.01.024c.015.034.033.075.054.123l.014.032c.023.055.05.12.08.193l.007.019c.135.334.328.845.561,1.553l.013.04q.081.25.169.532c0,.014.009.027.013.041.252.815.537,1.833.839,3.077.005.023.01.046.016.069q.1.419.2.874l.032.143q.1.443.2.92l.029.135c.076.36.152.732.228,1.121l32.587,2.331c.5-4.688,1.366-9.776,2.394-14.715-.6-9.028-.924-17.12.886-22.551-.1-.009-.208-.012-.312-.02l-17.894,5.185c-12,7.606-20.184,20.765-20.184,20.765l.011.024Z" transform="translate(-1267.562 -958.824)" fill="#f0a17d"/>
      <path id="Trazado_181215" data-name="Trazado 181215" d="M2003.445,2453.748s62.933,8.949,76.764,7.044c16.9-2.329,23.947-12.828,23.94-22.305,0-4.061-9.162-10.68-21.469-10.2-22.061.854-79.566,10.493-81.722,10.824C1995.1,2446.252,2003.445,2453.748,2003.445,2453.748Z" transform="translate(-1293.696 -1778.563)" fill="#ffc5a6"/>
      <path id="Trazado_181216" data-name="Trazado 181216" d="M1795.87,2563.222" transform="translate(-1125.112 -1890.644)" fill="#f0a17d"/>
      <g id="Grupo_80725" data-name="Grupo 80725" transform="translate(628.404 653.151)">
        <path id="Trazado_181217" data-name="Trazado 181217" d="M1606.08,2480.856l-25.319-16.544-2.294,3.865,26.164,17.188Z" transform="translate(-1572.973 -2461.655)" fill="#ff7e67"/>
        <path id="Trazado_181218" data-name="Trazado 181218" d="M1579.307,2478.758l22.889,15.121s-.219.8-.458,1.581l-23.271-15.287Z" transform="translate(-1572.973 -2473.652)" fill="#e04545"/>
        <path id="Trazado_181219" data-name="Trazado 181219" d="M1763.013,2488.582c-15.537,1.11-49.226,3.105-51.381,3.374a6.514,6.514,0,0,0-5.767,3.968,57.584,57.584,0,0,0-2.9,6.943c-.285,1.136-.65,6.912,1.17,9.828.614.982,3.087.92,4.264.708a4.767,4.767,0,0,0,3-1.519c1.884,2.027,5.686,2.885,5.686,2.885a9.718,9.718,0,0,0,4,4.22,2.523,2.523,0,0,0,1.361.256c.675,1.845,3.75,3.806,3.75,3.806,1.725.565,10.056-2.268,10.98-3.022s1.188-4.675,1.043-5.181c3.224-.518,19.164-7.491,21.442-9.15C1763.374,2502.988,1777.063,2494.809,1763.013,2488.582Z" transform="translate(-1676.169 -2481.811)" fill="#ffc5a6"/>
        <path id="Trazado_181220" data-name="Trazado 181220" d="M1867.038,2643.491c-.138-.019-8.848,2.44-8.848,2.44l-.335,2.921a16.511,16.511,0,0,1,.891-1.986c.108-.008,8.365-2.348,8.365-2.348Z" transform="translate(-1804.992 -2610.456)" fill="#f0a17d"/>
        <path id="Trazado_181221" data-name="Trazado 181221" d="M1782.9,2597.248l.047,7.762s-.359-.082-.908-.251Z" transform="translate(-1742.028 -2572.053)" fill="#f0a17d"/>
        <path id="Trazado_181222" data-name="Trazado 181222" d="M1814.711,2631.235l-.086-7.8-.786,7.721A1.518,1.518,0,0,0,1814.711,2631.235Z" transform="translate(-1768.439 -2593.802)" fill="#f0a17d"/>
        <path id="Trazado_181223" data-name="Trazado 181223" d="M1740.944,2582.445c-.433-3.885-.584-8.9-.584-8.9l-2.053,3.713a3.35,3.35,0,0,0,1.207-1.038,64.943,64.943,0,0,1,.02,7.272C1740.119,2583.391,1740.944,2582.445,1740.944,2582.445Z" transform="translate(-1705.713 -2552.372)" fill="#f0a17d"/>
        <g id="Grupo_80724" data-name="Grupo 80724">
          <path id="Trazado_181224" data-name="Trazado 181224" d="M1556.657,2453.473l5.388,1.837s.2.529-.589,1.026a1.054,1.054,0,0,1-.865,1.423s.1,1.476-.84,1.415l-3.821-4.535A1.678,1.678,0,0,0,1556.657,2453.473Z" transform="translate(-1554.256 -2452.654)" fill="#ffc5a6"/>
          <path id="Trazado_181225" data-name="Trazado 181225" d="M1548.461,2449.462a1.675,1.675,0,0,1-.728,1.167l-1.673-1.985Z" transform="translate(-1546.06 -2448.644)" fill="#233142"/>
        </g>
      </g>
      <path id="Trazado_181226" data-name="Trazado 181226" d="M1765.063,2184.4c-17.244,9.61-28.341-2.339-35.192-16.354-3.789-7.752-21.491-61.706-21.491-61.706l30.4,3.3Z" transform="translate(-1052.456 -1511.227)" fill="#f0a17d"/>
      <path id="Trazado_181227" data-name="Trazado 181227" d="M1680.889,1903.885c-5.011,2.506-6.251,9.039-7.3,21.538-1.71,20.354-.978,56.935-.774,57.409,12.2-10.655,45.195-14.806,45.195-14.806C1710.192,1930.06,1693.751,1902.5,1680.889,1903.885Z" transform="translate(-1022.645 -1343.053)" fill="#ff3dac"/>
      <path id="Trazado_181228" data-name="Trazado 181228" d="M1933.616,1865.847s-4.415,66.894-6.446,86.108-19.236,29.923-28.949,24.7-14.693-18.747-10.416-31.71c2.083-6.313,31.665-87.614,32.8-89.762C1929.911,1851.5,1933.616,1865.847,1933.616,1865.847Z" transform="translate(-1200.179 -1302.147)" fill="#ffc5a6"/>
      <g id="Grupo_80727" data-name="Grupo 80727" transform="translate(647.494 396.736)">
        <path id="Trazado_181229" data-name="Trazado 181229" d="M1935.417,1056.854c-2.588-5.583-18.558-26.033-33.109-22.921-24.942,5.333-40.751,18.389-35.415,43.33,3.8,17.744,9.942,23.6,15.94,33.578,15.469,17.962,41.8,26.347,50.25,24.539,9.9-2.118,14.9-29.927,14.487-34.289-1.173-12.5-4.779-14.518-7.84-26.068C1937.886,1068.066,1937.122,1060.532,1935.417,1056.854Z" transform="translate(-1830.728 -1017.107)" fill="#ffc5a6"/>
        <path id="Trazado_181230" data-name="Trazado 181230" d="M1817.271,942.806c9.563,29.207-23.831,62.178-60.638,70.526-15.971-16,11.44-65.13,24.719-73.89S1817.271,942.806,1817.271,942.806Z" transform="translate(-1735.988 -936.263)" fill="#233142"/>
        <path id="Trazado_181231" data-name="Trazado 181231" d="M1662,1042.139c-5.982,8.9-2.106,23.372-2.106,23.372,27.754-7.87,44.166,16.306,44.166,16.306,24.346-11.944,27.05-37.72,27.05-37.72C1687.912,1052.731,1666.178,1046.256,1662,1042.139Z" transform="translate(-1658.655 -1024.188)" fill="#455d7a"/>
        <g id="Grupo_80726" data-name="Grupo 80726" transform="translate(29.054 66.639)">
          <path id="Trazado_181232" data-name="Trazado 181232" d="M1846.794,1336.227c-4.7-7.828-12.535-8.569-15.127-4.434-3.186,5.083-1.409,12.969,2.462,17.486s13.246,9.425,16.554,7.847C1855.878,1354.65,1849.982,1342.982,1846.794,1336.227Z" transform="translate(-1830.022 -1329.312)" fill="#ffc5a6"/>
          <path id="Trazado_181233" data-name="Trazado 181233" d="M1862.562,1376.015s-2.782-1.759-3.586-3.177-1.352-7.048-1.352-7.048c-3.207-5.36-10.148-6.672-12.046-2.537a7.447,7.447,0,0,1,7.191-.657,12.732,12.732,0,0,1,3.911,3.635,30.48,30.48,0,0,0,1.146,6.064A11.611,11.611,0,0,1,1855,1374c1.177-2.088,3.557-.091,3.557-.091A9.943,9.943,0,0,0,1862.562,1376.015Z" transform="translate(-1842.941 -1355.475)" fill="#f0a17d"/>
          <path id="Trazado_181234" data-name="Trazado 181234" d="M1875.734,1369.83c1.642,1.749-3.239,2.666-2.62,7s8.377,8.166,9.087,7.038a2.622,2.622,0,0,0,.471-1.97l-1.941-2.439-1.044-6.045S1877,1370.418,1875.734,1369.83Z" transform="translate(-1865.763 -1362.961)" fill="#f0a17d"/>
        </g>
        <path id="Trazado_181235" data-name="Trazado 181235" d="M2102.233,1266.548a3.473,3.473,0,1,0-1.8,4.568A3.472,3.472,0,0,0,2102.233,1266.548Z" transform="translate(-2021.496 -1208.813)" fill="#233142"/>
        <path id="Trazado_181236" data-name="Trazado 181236" d="M2243.274,1226.494a3.108,3.108,0,1,0-2.327,4.022A3.3,3.3,0,0,0,2243.274,1226.494Z" transform="translate(-2139.066 -1174.929)" fill="#233142"/>
        <path id="Trazado_181237" data-name="Trazado 181237" d="M2051.4,1171.516c1.771,1.755,1.18,3.158.453,3.81s-9.345,2.6-14.889,8.39c-3.174,3.314-1.346-3.132,4.389-6.95C2046.693,1173.209,2050.909,1171.192,2051.4,1171.516Z" transform="translate(-1971.536 -1131.602)" fill="#233142"/>
        <path id="Trazado_181238" data-name="Trazado 181238" d="M2224.481,1161.811c.492,1.134.756,2.616,1.9,2.541s6.069-1.328,8.324-.2l.271-1.8C2229.66,1159.4,2224.205,1161.174,2224.481,1161.811Z" transform="translate(-2128.541 -1122.646)" fill="#233142"/>
        <path id="Trazado_181239" data-name="Trazado 181239" d="M2212.1,1382.423c-2.917,4.04-8.98,4.461-12.721,4.127C2209.664,1389.03,2210.889,1389.383,2212.1,1382.423Z" transform="translate(-2107.701 -1306.779)" fill="#f08d6c"/>
        <path id="Trazado_181240" data-name="Trazado 181240" d="M2131.918,1458.363c-13.075,5.423-29.46.206-29.46.206s4.708,3.327,16.755,3.334S2131.918,1458.363,2131.918,1458.363Z" transform="translate(-2027.214 -1369.844)" fill="#f08d6c"/>
        <path id="Trazado_181241" data-name="Trazado 181241" d="M1881.875,1292.888c.75,14.2,6.878,25.323,11.733,35.293s-4.695,33.14-2.248,42.916,3.858,11.1,3.858,11.1c-13.7-4.29-14.883-28.916-12.029-38.527,2.889-9.734,3.83-17.512-1.025-29.14a68.2,68.2,0,0,0-12.871-19.681Z" transform="translate(-1833.581 -1232.424)" fill="#233142"/>
      </g>
      <path id="Trazado_181242" data-name="Trazado 181242" d="M2190.785,1576.666l-21.511,7.229-.148.142a49.474,49.474,0,0,0,11.75,2.518c2.667-1.167,5.294-2.362,6.487-3.01a7.161,7.161,0,0,0,3.935-6.879Z" transform="translate(-1435.085 -1071.354)" fill="#f0a17d"/>
      <path id="Trazado_181243" data-name="Trazado 181243" d="M2144.708,1567.321c-2.418-.085-4.281,1.351-9.429,1.351s-10.22.405-11.741.978a91.186,91.186,0,0,0-9.774,4.2c3.566,1.571,9.015,2.386,12.18,3.274.429-.3.873-.6,1.341-.918,4.285-.162,11.464.815,13.688-.2C2145.484,1573.932,2147.126,1567.405,2144.708,1567.321Z" transform="translate(-1389.109 -1063.589)" fill="#f0a17d"/>
      <g id="Grupo_80728" data-name="Grupo 80728" transform="translate(718.721 504.458)">
        <path id="Trazado_181244" data-name="Trazado 181244" d="M2078.978,1624.821c-.624-8.234.325-36.517.442-39.063s2.449-5.139,5.44-7.063a68.254,68.254,0,0,1,8.851-4.432c1.521-.573,6.594-.978,11.741-.978s7.41-1.739,9.829-1.654.123,5.489-4.389,7.556c-2.223,1.018-9.15,1.467-13.435,1.629-3.042,2.036-5.382,3.9-5.382,3.9,3.9-.115,8.431.181,8.97.679a6.559,6.559,0,0,1,2.028,4.836c1.94.657,3.432,2.97,4.163,3.861a5.1,5.1,0,0,1,.79,2.036c1.93.636,4.153,4.073,4.153,4.073.7,1.973-1.579,11.964-2.281,13.109s-4.68,1.782-5.207,1.655c-.292,3.818-11.348,24.45-14.215,24.768S2086.349,1640.751,2078.978,1624.821Z" transform="translate(-2078.768 -1571.627)" fill="#ffc5a6"/>
        <path id="Trazado_181245" data-name="Trazado 181245" d="M2231.678,1772.389c-.029-.159,1.843-10.563,1.843-10.563l2.954-.636a16.31,16.31,0,0,0-1.96,1.209c0,.127-1.784,9.99-1.784,9.99Z" transform="translate(-2205.753 -1729.05)" fill="#f0a17d"/>
        <path id="Trazado_181246" data-name="Trazado 181246" d="M2128.8,1640.13l-5.811,1.549,8.16-3.327Z" transform="translate(-2115.491 -1627.039)" fill="#f0a17d"/>
        <path id="Trazado_181247" data-name="Trazado 181247" d="M2183.354,1675.965l-7.917.594,7.878-1.7Z" transform="translate(-2159.047 -1657.359)" fill="#f0a17d"/>
        <path id="Trazado_181248" data-name="Trazado 181248" d="M2212.377,1711.623l-7.957.552,7.7-1.476A2.539,2.539,0,0,1,2212.377,1711.623Z" transform="translate(-2183.117 -1687.12)" fill="#f0a17d"/>
      </g>
      <g id="Grupo_80730" data-name="Grupo 80730" transform="translate(766.494 286.587)">
        <path id="Trazado_181249" data-name="Trazado 181249" d="M2387.342,354.876c1.766-7.364,8.865-12,15.467-17.3a27.58,27.58,0,0,0,9.156-9.418,20.63,20.63,0,0,0,2.766-6.388c.039-.162.051-.307.082-.464.06-.226.126-.449.181-.678a27.588,27.588,0,1,0-53.655-12.866c-.079.329-.144.658-.21.987-.014.055-.034.1-.048.156a20.245,20.245,0,0,0-.491,6.117,27.572,27.572,0,0,0,4.24,13.886c3.433,7.464,7.4,14.614,5.646,21.927l-.57,1.094,6.429,4.149-.287,1.2,1.848-.19,1.561,1.008.287-1.2,7.611-.782Z" transform="translate(-2360.539 -286.587)" fill="#ffd400" opacity="0.48"/>
        <path id="Trazado_181250" data-name="Trazado 181250" d="M2461.154,432.207a1.854,1.854,0,0,0-1.427-1.346,2.251,2.251,0,0,0-1.74.371c-1.706,1.066-3.7,4.3-5.763,9.161a3.791,3.791,0,0,1-1.824-1.716,10.431,10.431,0,0,0,3.445-5.6c.472-2.245-.213-3.9-1.787-4.325a2.143,2.143,0,0,0-2.237.6c-1.378,1.376-1.834,4.773-1.041,7.733a9.334,9.334,0,0,0,.459,1.323,4.721,4.721,0,0,1-3.294.767,4.065,4.065,0,0,1-3.08-2.9,7.609,7.609,0,0,1-.224-.75c2.494-2.284,4.707-5.57,4.346-7.344a1.586,1.586,0,0,0-1.27-1.254,2.582,2.582,0,0,0-2.627.906c-1.388,1.548-1.958,4.669-1.459,7.363-.275.236-.553.46-.835.668a8.376,8.376,0,0,1-1.745,1.028c.67-6.389.667-11.368-.885-11.778-.664-.163-1.936-.157-2.8,2-1.211,3.046-.965,9.308,1.6,10.7a2.07,2.07,0,0,0,1.029.24c-1,8.418-3,19.7-4.955,28.624l.9.2c.057-.259,3.624-16.787,5-28.978a8.162,8.162,0,0,0,2.4-1.3c.176-.131.353-.268.53-.411.04.133.083.265.13.394a4.866,4.866,0,0,0,3.8,3.5,5.553,5.553,0,0,0,3.843-.87,4.668,4.668,0,0,0,2.221,2.025,179.583,179.583,0,0,0-8.223,27.772l.9.2a180.476,180.476,0,0,1,8.215-27.734c1.676.234,3.614-.638,5.388-2.446C2460.01,437.135,2461.7,434.1,2461.154,432.207Zm-23.746,4.811c-1.939-1.057-2.361-6.6-1.183-9.559.31-.779.852-1.66,1.682-1.461l.025.006c.994.263.891,4.784.173,11.138A1.238,1.238,0,0,1,2437.408,437.018Zm5.038-2.566c-.276-2.272.225-4.772,1.328-6a1.7,1.7,0,0,1,1.73-.626.664.664,0,0,1,.585.545C2446.338,429.587,2444.624,432.322,2442.446,434.452Zm7.221,2.4c-.694-2.584-.325-5.719.8-6.847a1.3,1.3,0,0,1,1.3-.379l.049.013c1.591.427,1.265,2.6,1.128,3.25a9.527,9.527,0,0,1-2.95,4.959A8.643,8.643,0,0,1,2449.667,436.85Zm7.826,1.539c-1.477,1.505-3.033,2.283-4.365,2.2,1.943-4.567,3.795-7.616,5.344-8.584a1.384,1.384,0,0,1,1.04-.256.947.947,0,0,1,.759.706C2460.652,433.781,2459.405,436.442,2457.493,438.389Z" transform="translate(-2420.75 -401.579)" fill="#455d7a"/>
        <g id="Grupo_80729" data-name="Grupo 80729" transform="translate(7.802 63.108)">
          <path id="Trazado_181251" data-name="Trazado 181251" d="M2432.331,723.327l-7.254-1.739a1.67,1.67,0,0,1-1.231-2.008l.083-.344a1.671,1.671,0,0,1,2.008-1.231l7.254,1.74a1.671,1.671,0,0,1,1.231,2.008l-.083.344A1.67,1.67,0,0,1,2432.331,723.327Z" transform="translate(-2420.877 -707.929)" fill="#233142"/>
          <path id="Trazado_181252" data-name="Trazado 181252" d="M2421.211,673.2l-12.847-3.081a2.36,2.36,0,0,1-1.74-2.837l1.927-8.035a.581.581,0,0,1,.7-.428l16.3,3.908a.58.58,0,0,1,.427.7l-1.926,8.035A2.36,2.36,0,0,1,2421.211,673.2Z" transform="translate(-2406.559 -658.807)" fill="#455d7a"/>
          <path id="Trazado_181253" data-name="Trazado 181253" d="M2428.039,692.552l-16.454-3.945a.5.5,0,0,1-.368-.6l.04-.169a.5.5,0,0,1,.6-.369l16.454,3.945a.5.5,0,0,1,.369.6l-.041.169A.5.5,0,0,1,2428.039,692.552Z" transform="translate(-2410.415 -682.596)" fill="#233142"/>
          <path id="Trazado_181254" data-name="Trazado 181254" d="M2432.293,674.809l-16.454-3.945a.5.5,0,0,1-.368-.6l.041-.17a.5.5,0,0,1,.6-.369l16.454,3.945a.5.5,0,0,1,.369.6l-.041.169A.5.5,0,0,1,2432.293,674.809Z" transform="translate(-2413.949 -667.861)" fill="#233142"/>
          <path id="Trazado_181255" data-name="Trazado 181255" d="M2423.85,710.019l-16.454-3.945a.5.5,0,0,1-.369-.6l.041-.169a.5.5,0,0,1,.6-.369l16.453,3.945a.5.5,0,0,1,.369.6l-.04.169A.5.5,0,0,1,2423.85,710.019Z" transform="translate(-2406.937 -697.102)" fill="#233142"/>
        </g>
      </g>
    </g>
  </g>
</svg>
