<svg xmlns="http://www.w3.org/2000/svg" width="400.132" height="796.824" viewBox="0 0 400.132 796.824">
  <g id="Grupo_141260" data-name="Grupo 141260" transform="translate(-180 -1181.941)">
    <g id="Grupo_141216" data-name="Grupo 141216">
      <g id="Grupo_141210" data-name="Grupo 141210" transform="translate(222 1286.16)">
        <path id="Trazado_184709" data-name="Trazado 184709" d="M0,0H306.472V767.616H0Z" transform="translate(1.912 -104.219)" fill="#214be5" opacity="0.293"/>
        <path id="Trazado_182466" data-name="Trazado 182466" d="M0,516.106V956.684H202.343L310.3,900.854V355.629Z" transform="translate(0 -292.98)" fill="#214be5"/>
        <path id="Trazado_184552" data-name="Trazado 184552" d="M22.151,145.155a2.3,2.3,0,0,1,2.141,0Zm11.767-6.8a2.3,2.3,0,1,1-.84,3.141,2.3,2.3,0,0,1,.84-3.141Zm11.847-6.84a2.3,2.3,0,1,1-.841,3.141,2.3,2.3,0,0,1,.841-3.141Zm11.847-6.839a2.3,2.3,0,1,1-.841,3.141,2.3,2.3,0,0,1,.841-3.141Zm11.847-6.84a2.3,2.3,0,1,1-.841,3.141,2.3,2.3,0,0,1,.841-3.141ZM81.307,111a2.3,2.3,0,1,1-.841,3.141A2.3,2.3,0,0,1,81.307,111Zm11.846-6.84a2.3,2.3,0,1,1-.841,3.141,2.3,2.3,0,0,1,.841-3.141ZM52.605,143.366a2.3,2.3,0,0,1,3.44,1.789h-4.58a2.3,2.3,0,0,1,1.141-1.789Zm11.847-6.839a2.3,2.3,0,1,1-.841,3.141,2.3,2.3,0,0,1,.841-3.141Zm11.846-6.84a2.3,2.3,0,1,1-.841,3.141,2.3,2.3,0,0,1,.841-3.141Zm11.847-6.84a2.3,2.3,0,1,1-.841,3.141,2.3,2.3,0,0,1,.841-3.141Zm11.847-6.839a2.3,2.3,0,1,1-.841,3.141,2.3,2.3,0,0,1,.841-3.141ZM83.139,141.534a2.3,2.3,0,0,1,2.771,3.622H82.668a2.3,2.3,0,0,1,.471-3.622Zm11.847-6.84a2.3,2.3,0,1,1-.841,3.141,2.3,2.3,0,0,1,.841-3.141Zm11.847-6.839a2.3,2.3,0,1,1-.842,3.14,2.3,2.3,0,0,1,.842-3.14Zm6.839,11.846a2.3,2.3,0,1,1-.841,3.141,2.3,2.3,0,0,1,.841-3.141ZM21.581,34.91a2.3,2.3,0,1,1-.841,3.141,2.3,2.3,0,0,1,.841-3.141Zm11.846-6.84a2.3,2.3,0,1,1-.841,3.141,2.3,2.3,0,0,1,.841-3.141ZM45.274,21.23a2.3,2.3,0,1,1-.841,3.141,2.3,2.3,0,0,1,.841-3.141ZM6.188,60.15a2.3,2.3,0,1,1-1.581,4.2q.745-2.114,1.581-4.2ZM16.573,53.6a2.3,2.3,0,1,1-.841,3.141,2.3,2.3,0,0,1,.841-3.141Zm11.847-6.84a2.3,2.3,0,1,1-.841,3.141,2.3,2.3,0,0,1,.841-3.141Zm11.847-6.839a2.3,2.3,0,1,1-.841,3.141,2.3,2.3,0,0,1,.841-3.141Zm11.847-6.839a2.3,2.3,0,1,1-.841,3.14,2.3,2.3,0,0,1,.841-3.14ZM.728,78.819A2.3,2.3,0,1,1,0,83.243q.313-2.22.728-4.424Zm10.838-6.536a2.3,2.3,0,1,1-.841,3.141,2.3,2.3,0,0,1,.841-3.141Zm11.847-6.84a2.3,2.3,0,1,1-.841,3.141,2.3,2.3,0,0,1,.841-3.141ZM35.26,58.6a2.3,2.3,0,1,1-.841,3.14,2.3,2.3,0,0,1,.841-3.14Zm11.847-6.84a2.3,2.3,0,1,1-.842,3.141,2.3,2.3,0,0,1,.842-3.141Zm11.847-6.84a2.3,2.3,0,1,1-.842,3.141,2.3,2.3,0,0,1,.842-3.141ZM6.559,90.97a2.3,2.3,0,1,1-.841,3.141,2.3,2.3,0,0,1,.841-3.141Zm11.847-6.84a2.3,2.3,0,1,1-.841,3.141,2.3,2.3,0,0,1,.841-3.141Zm11.847-6.839a2.3,2.3,0,1,1-.842,3.141,2.3,2.3,0,0,1,.842-3.141ZM42.1,70.45a2.3,2.3,0,1,1-.84,3.141,2.3,2.3,0,0,1,.84-3.141Zm11.847-6.839a2.3,2.3,0,1,1-.841,3.141,2.3,2.3,0,0,1,.841-3.141Zm11.847-6.84a2.3,2.3,0,1,1-.841,3.141,2.3,2.3,0,0,1,.841-3.141ZM1.552,109.657A2.3,2.3,0,1,1,.711,112.8a2.3,2.3,0,0,1,.841-3.141ZM13.4,102.817a2.3,2.3,0,1,1-.842,3.141,2.3,2.3,0,0,1,.842-3.141Zm11.847-6.84a2.3,2.3,0,1,1-.842,3.141,2.3,2.3,0,0,1,.842-3.141Zm11.846-6.839a2.3,2.3,0,1,1-.841,3.141,2.3,2.3,0,0,1,.841-3.141ZM48.94,82.3a2.3,2.3,0,1,1-.841,3.141A2.3,2.3,0,0,1,48.94,82.3Zm11.847-6.84a2.3,2.3,0,1,1-.841,3.141,2.3,2.3,0,0,1,.841-3.141Zm11.847-6.839a2.3,2.3,0,1,1-.841,3.141,2.3,2.3,0,0,1,.841-3.141ZM8.391,121.5a2.3,2.3,0,1,1-.841,3.141,2.3,2.3,0,0,1,.841-3.141Zm11.847-6.839a2.3,2.3,0,1,1-.841,3.14,2.3,2.3,0,0,1,.841-3.14Zm11.847-6.84a2.3,2.3,0,1,1-.841,3.141,2.3,2.3,0,0,1,.841-3.141Zm11.847-6.84a2.3,2.3,0,1,1-.842,3.141,2.3,2.3,0,0,1,.842-3.141Zm11.846-6.839a2.3,2.3,0,1,1-.84,3.141,2.3,2.3,0,0,1,.84-3.141ZM67.626,87.3a2.3,2.3,0,1,1-.841,3.141,2.3,2.3,0,0,1,.841-3.141Zm11.847-6.839a2.3,2.3,0,1,1-.841,3.141,2.3,2.3,0,0,1,.841-3.141ZM15.231,133.351a2.3,2.3,0,1,1-.841,3.141,2.3,2.3,0,0,1,.841-3.141Zm11.847-6.839a2.3,2.3,0,1,1-.841,3.14,2.3,2.3,0,0,1,.841-3.14Zm11.847-6.84a2.3,2.3,0,1,1-.841,3.141,2.3,2.3,0,0,1,.841-3.141Zm11.847-6.84a2.3,2.3,0,1,1-.842,3.141,2.3,2.3,0,0,1,.842-3.141Zm11.846-6.839a2.3,2.3,0,1,1-.841,3.14,2.3,2.3,0,0,1,.841-3.14Zm11.847-6.84a2.3,2.3,0,1,1-.841,3.141,2.3,2.3,0,0,1,.841-3.141Zm11.847-6.84a2.3,2.3,0,1,1-.841,3.141,2.3,2.3,0,0,1,.841-3.141ZM105,97.319a2.3,2.3,0,1,1-.841,3.141A2.3,2.3,0,0,1,105,97.319Zm11.847-6.839a2.3,2.3,0,1,1-.841,3.141,2.3,2.3,0,0,1,.841-3.141Zm11.847-6.84a2.3,2.3,0,1,1-.841,3.141,2.3,2.3,0,0,1,.841-3.141ZM140.542,76.8a2.3,2.3,0,1,1-.841,3.14,2.3,2.3,0,0,1,.841-3.14Zm11.847-6.84a2.3,2.3,0,1,1-.842,3.141,2.3,2.3,0,0,1,.842-3.141Zm11.846-6.84a2.3,2.3,0,1,1-.841,3.141,2.3,2.3,0,0,1,.841-3.141Zm11.847-6.839a2.3,2.3,0,1,1-.841,3.141,2.3,2.3,0,0,1,.841-3.141ZM111.84,109.167a2.3,2.3,0,1,1-.841,3.141,2.3,2.3,0,0,1,.841-3.141Zm11.847-6.84a2.3,2.3,0,1,1-.841,3.141,2.3,2.3,0,0,1,.841-3.141Zm11.847-6.839a2.3,2.3,0,1,1-.842,3.141,2.3,2.3,0,0,1,.842-3.141Zm11.846-6.84a2.3,2.3,0,1,1-.841,3.141,2.3,2.3,0,0,1,.841-3.141Zm11.847-6.839a2.3,2.3,0,1,1-.841,3.141,2.3,2.3,0,0,1,.841-3.141Zm11.847-6.84a2.3,2.3,0,1,1-.841,3.141,2.3,2.3,0,0,1,.841-3.141Zm11.847-6.84a2.3,2.3,0,1,1-.841,3.141,2.3,2.3,0,0,1,.841-3.141ZM118.68,121.014a2.3,2.3,0,1,1-.841,3.141,2.3,2.3,0,0,1,.841-3.141Zm11.847-6.84a2.3,2.3,0,1,1-.841,3.141,2.3,2.3,0,0,1,.841-3.141Zm11.847-6.839a2.3,2.3,0,1,1-.841,3.141,2.3,2.3,0,0,1,.841-3.141Zm11.847-6.84a2.3,2.3,0,1,1-.841,3.141,2.3,2.3,0,0,1,.841-3.141Zm11.847-6.839a2.3,2.3,0,1,1-.842,3.14,2.3,2.3,0,0,1,.842-3.14Zm11.847-6.84a2.3,2.3,0,1,1-.842,3.141,2.3,2.3,0,0,1,.842-3.141Zm11.846-6.84a2.3,2.3,0,1,1-.841,3.141,2.3,2.3,0,0,1,.841-3.141ZM125.52,132.861a2.3,2.3,0,1,1-.841,3.141,2.3,2.3,0,0,1,.841-3.141Zm11.847-6.84a2.3,2.3,0,1,1-.841,3.141,2.3,2.3,0,0,1,.841-3.141Zm11.847-6.84a2.3,2.3,0,1,1-.841,3.141,2.3,2.3,0,0,1,.841-3.141Zm11.846-6.839a2.3,2.3,0,1,1-.84,3.141,2.3,2.3,0,0,1,.84-3.141Zm11.848-6.84a2.3,2.3,0,1,1-.842,3.141,2.3,2.3,0,0,1,.842-3.141Zm11.846-6.839a2.3,2.3,0,1,1-.841,3.141,2.3,2.3,0,0,1,.841-3.141ZM132.36,144.707a2.3,2.3,0,0,1,2.854.448H131.8a2.314,2.314,0,0,1,.556-.448Zm11.847-6.839a2.3,2.3,0,1,1-.842,3.141,2.3,2.3,0,0,1,.842-3.141Zm11.846-6.84a2.3,2.3,0,1,1-.841,3.141,2.3,2.3,0,0,1,.841-3.141Zm11.847-6.839a2.3,2.3,0,1,1-.841,3.141,2.3,2.3,0,0,1,.841-3.141Zm11.847-6.84a2.3,2.3,0,1,1-.841,3.141,2.3,2.3,0,0,1,.841-3.141Zm11.847-6.84a2.294,2.294,0,0,1,2.018-.137q-.312,2.222-.728,4.424a2.3,2.3,0,0,1-1.29-4.287Zm-28.7,32.367a2.3,2.3,0,0,1,3.43,2.28h-4.562a2.3,2.3,0,0,1,1.132-2.28Zm11.847-6.84a2.3,2.3,0,1,1-.841,3.141,2.3,2.3,0,0,1,.841-3.141Zm11.847-6.839a2.3,2.3,0,0,1,2.418.073q-.743,2.114-1.581,4.2a2.3,2.3,0,0,1-.837-4.269ZM57.121,14.39a2.3,2.3,0,1,1-.841,3.141,2.3,2.3,0,0,1,.841-3.141ZM68.968,7.55a2.3,2.3,0,1,1-.841,3.141,2.3,2.3,0,0,1,.841-3.141ZM80.816.711a2.3,2.3,0,1,1-.842,3.141A2.3,2.3,0,0,1,80.816.711ZM63.961,26.237a2.3,2.3,0,1,1-.841,3.141,2.3,2.3,0,0,1,.841-3.141ZM75.808,19.4a2.3,2.3,0,1,1-.841,3.141,2.3,2.3,0,0,1,.841-3.141Zm11.847-6.839a2.3,2.3,0,1,1-.841,3.14,2.3,2.3,0,0,1,.841-3.14ZM99.5,5.717a2.3,2.3,0,1,1-.841,3.141A2.3,2.3,0,0,1,99.5,5.717ZM114.794.728A2.3,2.3,0,1,1,110.37,0q2.22.313,4.424.728ZM70.8,38.084a2.3,2.3,0,1,1-.841,3.14,2.3,2.3,0,0,1,.841-3.14Zm11.847-6.84a2.3,2.3,0,1,1-.841,3.141,2.3,2.3,0,0,1,.841-3.141ZM94.5,24.4a2.3,2.3,0,1,1-.841,3.141A2.3,2.3,0,0,1,94.5,24.4Zm11.847-6.839a2.3,2.3,0,1,1-.841,3.14,2.3,2.3,0,0,1,.841-3.14Zm11.847-6.84a2.3,2.3,0,1,1-.842,3.141,2.3,2.3,0,0,1,.842-3.141Zm15.274-4.537a2.3,2.3,0,1,1-4.2-1.581q2.116.742,4.2,1.581ZM77.641,49.931a2.3,2.3,0,1,1-.841,3.141,2.3,2.3,0,0,1,.841-3.141Zm11.847-6.839a2.3,2.3,0,1,1-.841,3.141,2.3,2.3,0,0,1,.841-3.141Zm11.846-6.84a2.3,2.3,0,1,1-.841,3.141,2.3,2.3,0,0,1,.841-3.141Zm11.847-6.839a2.3,2.3,0,1,1-.841,3.14,2.3,2.3,0,0,1,.841-3.14Zm11.847-6.84a2.3,2.3,0,1,1-.841,3.141,2.3,2.3,0,0,1,.841-3.141Zm11.847-6.84a2.3,2.3,0,1,1-.841,3.141,2.3,2.3,0,0,1,.841-3.141ZM84.48,61.778a2.3,2.3,0,1,1-.841,3.141,2.3,2.3,0,0,1,.841-3.141Zm11.847-6.84a2.3,2.3,0,1,1-.841,3.141,2.3,2.3,0,0,1,.841-3.141ZM108.175,48.1a2.3,2.3,0,1,1-.841,3.141,2.3,2.3,0,0,1,.841-3.141Zm11.847-6.84a2.3,2.3,0,1,1-.841,3.141,2.3,2.3,0,0,1,.841-3.141Zm11.847-6.839a2.3,2.3,0,1,1-.841,3.141,2.3,2.3,0,0,1,.841-3.141Zm11.847-6.84a2.3,2.3,0,1,1-.842,3.141,2.3,2.3,0,0,1,.842-3.141Zm11.846-6.84a2.3,2.3,0,1,1-.841,3.141,2.3,2.3,0,0,1,.841-3.141ZM91.321,73.625a2.3,2.3,0,1,1-.841,3.141,2.3,2.3,0,0,1,.841-3.141Zm11.847-6.84a2.3,2.3,0,1,1-.841,3.141,2.3,2.3,0,0,1,.841-3.141Zm11.847-6.839a2.3,2.3,0,1,1-.842,3.141,2.3,2.3,0,0,1,.842-3.141Zm11.846-6.84a2.3,2.3,0,1,1-.841,3.141,2.3,2.3,0,0,1,.841-3.141Zm11.847-6.84a2.3,2.3,0,1,1-.841,3.141,2.3,2.3,0,0,1,.841-3.141Zm11.847-6.839a2.3,2.3,0,1,1-.841,3.141,2.3,2.3,0,0,1,.841-3.141Zm11.847-6.84a2.3,2.3,0,1,1-.841,3.141,2.3,2.3,0,0,1,.841-3.141ZM98.161,85.472a2.3,2.3,0,1,1-.841,3.14,2.3,2.3,0,0,1,.841-3.14Zm11.847-6.84a2.3,2.3,0,1,1-.842,3.141,2.3,2.3,0,0,1,.842-3.141Zm11.846-6.839a2.3,2.3,0,1,1-.841,3.14,2.3,2.3,0,0,1,.841-3.14Zm11.847-6.84a2.3,2.3,0,1,1-.841,3.141,2.3,2.3,0,0,1,.841-3.141Zm11.847-6.84a2.3,2.3,0,1,1-.841,3.141,2.3,2.3,0,0,1,.841-3.141ZM157.4,51.273a2.3,2.3,0,1,1-.842,3.141,2.3,2.3,0,0,1,.842-3.141Zm11.846-6.84a2.3,2.3,0,1,1-.84,3.141A2.3,2.3,0,0,1,169.242,44.433Z" transform="translate(170.016 664.024) rotate(-90)" fill="#faeeb2" fill-rule="evenodd" opacity="0.306"/>
      </g>
      <g id="Grupo_141209" data-name="Grupo 141209" transform="translate(180 1535.234)">
        <g id="Grupo_141208" data-name="Grupo 141208" transform="translate(0 0)">
          <g id="Grupo_141207" data-name="Grupo 141207">
            <g id="Grupo_141195" data-name="Grupo 141195" transform="translate(39.863 270.742)">
              <g id="Grupo_141193" data-name="Grupo 141193" transform="translate(49.112 111.477)">
                <path id="Trazado_184668" data-name="Trazado 184668" d="M496.381,1619.237l6.359,24.516A14.047,14.047,0,0,0,517.419,1654c20.852-1.417,64.175-6.525,89.04-24.852l-7.069-35.334c-34.188-1.931-66.16-.03-93.845,9.29A13.54,13.54,0,0,0,496.381,1619.237Z" transform="translate(-495.961 -1593.136)" fill="#102048"/>
                <path id="Trazado_184669" data-name="Trazado 184669" d="M552.072,1645.619a.827.827,0,0,1-.8-.6l-8.539-30.573a.826.826,0,1,1,1.592-.443l8.538,30.573a.827.827,0,0,1-.574,1.018A.847.847,0,0,1,552.072,1645.619Z" transform="translate(-511.806 -1600.002)" fill="#fff"/>
                <path id="Trazado_184670" data-name="Trazado 184670" d="M579.989,1639.368a.827.827,0,0,1-.8-.6l-8.538-30.573a.826.826,0,0,1,1.592-.443l8.539,30.573a.826.826,0,0,1-.8,1.048Z" transform="translate(-521.268 -1597.883)" fill="#fff"/>
              </g>
              <path id="Trazado_184671" data-name="Trazado 184671" d="M576.47,1429.552l-79.46,23.583,59.01,80.854,84.718,6.738,116.853-49.411-44.4-66.817Z" transform="translate(-447.205 -1424.498)" fill="#fbc343"/>
              <path id="Trazado_184672" data-name="Trazado 184672" d="M716.673,1443.746c174.5-51.657,202.545,102.565-69.722,130.64-9.617-10.821-20.855-29.6-25.318-45.294l143.78-66.443Z" transform="translate(-489.446 -1427.462)" fill="#fbc343"/>
              <path id="Trazado_184673" data-name="Trazado 184673" d="M754.043,1612.348a75.476,75.476,0,0,1-15.981-7.777l-28.045,8.8,6.427,30.508,29.133,5.92C754.452,1633.562,754.971,1620.234,754.043,1612.348Z" transform="translate(-519.404 -1485.535)" fill="#f9b384"/>
              <path id="Trazado_184674" data-name="Trazado 184674" d="M621.936,1542.016l-1.245-2.143c29.995-17.432,106.827-59.311,172.287-71.662l.459,2.437C728.355,1482.926,651.821,1524.648,621.936,1542.016Z" transform="translate(-489.127 -1439.315)" fill="#e49b31"/>
              <path id="Trazado_184675" data-name="Trazado 184675" d="M550.931,1430.079c-162.425-30.882-204.492,125.212,67.775,153.287a98.9,98.9,0,0,0,21.617-39.3c-41.822-27.984-88.584-54.582-139.833-79.919Z" transform="translate(-421.667 -1425.026)" fill="#fbc343"/>
              <path id="Trazado_184676" data-name="Trazado 184676" d="M671.041,1557.6c-7.726-4.918-15.777-10.116-24.3-15.62-42.787-27.626-91.284-58.938-132.487-76.792l.986-2.274c41.39,17.936,89.978,49.307,132.845,76.984,8.52,5.5,16.568,10.7,24.287,15.611Z" transform="translate(-453.05 -1437.52)" fill="#e49b31"/>
              <path id="Trazado_184677" data-name="Trazado 184677" d="M435.825,1537.264l-2.17-1.2c6.1-11.038,15.863-18.483,29.025-22.127l.662,2.388C450.67,1519.836,441.669,1526.685,435.825,1537.264Z" transform="translate(-425.73 -1454.815)" fill="#e49b31"/>
              <path id="Trazado_184678" data-name="Trazado 184678" d="M935.661,1523.048c-5.843-10.578-14.844-17.426-27.517-20.937l.662-2.389c13.163,3.645,22.928,11.09,29.025,22.127Z" transform="translate(-586.561 -1449.996)" fill="#e49b31"/>
              <path id="Trazado_184679" data-name="Trazado 184679" d="M695.8,1638.06l-1.812-1.691c12.993-13.915,20.973-28.606,24.4-44.911l2.426.509C717.294,1608.727,709.113,1623.8,695.8,1638.06Z" transform="translate(-513.972 -1481.09)" fill="#e49b31"/>
              <g id="Grupo_141194" data-name="Grupo 141194" transform="translate(226.173 113.734)">
                <path id="Trazado_184680" data-name="Trazado 184680" d="M853.284,1600.542c-20.81-12.857-61.153,9.358-71.28,10.482a24.38,24.38,0,0,1-9.726-1.4c.927,7.886.409,21.214-8.465,37.448l4.949,1.005s34.21,12.54,70.5,5.24C872.759,1646.585,869.643,1610.649,853.284,1600.542Z" transform="translate(-763.812 -1596.55)" fill="#102048"/>
                <path id="Trazado_184681" data-name="Trazado 184681" d="M853.919,1647.774a.827.827,0,0,1-.788-1.075c2.472-7.829,3.551-23.229-3.61-33.572a.827.827,0,0,1,1.359-.942c7.5,10.832,6.4,26.873,3.827,35.011A.827.827,0,0,1,853.919,1647.774Z" transform="translate(-792.814 -1601.729)" fill="#fff"/>
                <path id="Trazado_184682" data-name="Trazado 184682" d="M829.232,1652.462a.842.842,0,0,1-.249-.038.827.827,0,0,1-.539-1.037c2.472-7.829,3.551-23.23-3.61-33.573a.826.826,0,0,1,1.359-.941c7.5,10.831,6.4,26.872,3.827,35.011A.826.826,0,0,1,829.232,1652.462Z" transform="translate(-784.446 -1603.318)" fill="#fff"/>
              </g>
            </g>
            <g id="Grupo_141203" data-name="Grupo 141203">
              <g id="Grupo_141197" data-name="Grupo 141197" transform="translate(92.088 1.458)">
                <path id="Trazado_184683" data-name="Trazado 184683" d="M548.975,1090.211s40.907-34.785,39.392-41.4c-1.082-4.724-12.67,2.2-12.67,2.2s16.25-19.281,15.424-21.622c-1.477-4.183-12.716,3.615-12.716,3.615s7.6-10.934,3.965-12.716-11.55,4.956-11.55,4.956,4.626-6.071,2.452-7.663-11.55,4.956-11.55,4.956,3.365-7.655-3.784-4.753-57.268,48.9-57.268,48.9Z" transform="translate(-500.671 -1017.136)" fill="#f9b384"/>
                <g id="Grupo_141196" data-name="Grupo 141196" transform="translate(46.036 4.583)">
                  <path id="Trazado_184684" data-name="Trazado 184684" d="M589.317,1059.018a.824.824,0,0,1-.557-.217c-7.021-6.415-10.117-7.972-17.864-10.356a.826.826,0,1,1,.486-1.579c8.026,2.469,11.232,4.081,18.494,10.715a.827.827,0,0,1-.558,1.436Z" transform="translate(-570.312 -1031.784)" fill="#e28b6d"/>
                  <path id="Trazado_184685" data-name="Trazado 184685" d="M579.994,1087.2a.844.844,0,0,1-.115-.008.826.826,0,0,1-.7-.932c.8-5.753,2.614-9.347,5.536-10.989,2.5-1.4,5.746-1.261,9.657.428a.826.826,0,0,1-.655,1.517c-3.412-1.474-6.168-1.643-8.192-.505-2.407,1.353-3.992,4.643-4.709,9.776A.827.827,0,0,1,579.994,1087.2Z" transform="translate(-573.314 -1041.102)" fill="#e28b6d"/>
                  <path id="Trazado_184686" data-name="Trazado 184686" d="M577.076,1035.4a.825.825,0,0,1-.567-1.427l10.264-9.674a.826.826,0,1,1,1.134,1.2l-10.265,9.675A.82.82,0,0,1,577.076,1035.4Z" transform="translate(-572.325 -1024.07)" fill="#e28b6d"/>
                  <path id="Trazado_184687" data-name="Trazado 184687" d="M591.451,1040.09a.826.826,0,0,1-.6-1.4l9.859-10.272a.826.826,0,0,1,1.193,1.144l-9.859,10.272A.825.825,0,0,1,591.451,1040.09Z" transform="translate(-577.197 -1025.457)" fill="#e28b6d"/>
                  <path id="Trazado_184688" data-name="Trazado 184688" d="M606.138,1049.853a.826.826,0,0,1-.6-1.389l7.735-8.3a.827.827,0,0,1,1.209,1.127l-7.736,8.3A.827.827,0,0,1,606.138,1049.853Z" transform="translate(-582.176 -1029.437)" fill="#e28b6d"/>
                </g>
              </g>
              <g id="Grupo_141198" data-name="Grupo 141198" transform="translate(0 41.854)">
                <path id="Trazado_184689" data-name="Trazado 184689" d="M722.338,1378.518,572.776,1384.3l-16.526-136.34s50.07-47.491,69.333-64.98l32.52-1.668C759,1227.177,742.478,1284.456,722.338,1378.518Z" transform="translate(-427.422 -1113.181)" fill="#3a6bea"/>
                <path id="Trazado_184690" data-name="Trazado 184690" d="M710.329,1181.315s115.432,9.872,151.823,88.957c35.609,77.385-110.725,104.941-110.725,104.941Z" transform="translate(-479.648 -1113.181)" fill="#3a6bea"/>
                <path id="Trazado_184691" data-name="Trazado 184691" d="M460.1,1163.326l47.7-58.048-44.606-27.033c-18.607,12.938-54.589,42.242-85.082,75.427a62.977,62.977,0,0,0-14.636,25.3,54.441,54.441,0,0,0-1.4,23.754h0A45.859,45.859,0,0,0,402.6,1241.12c18.173,2.128,87.589-3.3,143.777-19.831l16.526-63.783C554.415,1152.686,491.3,1151.849,460.1,1163.326Z" transform="translate(-361.364 -1078.245)" fill="#3a6bea"/>
              </g>
              <g id="Grupo_141199" data-name="Grupo 141199" transform="translate(24.379 61.053)" opacity="0.8">
                <path id="Trazado_184692" data-name="Trazado 184692" d="M827.076,1217.116l.747-.171c-.522-.309-1.045-.609-1.568-.912a250.216,250.216,0,0,1-25.791,4.976c-5.171.623-22.446,1.764-27.5-9.746-2.512-5.726-.611-12.095,2.23-16.565-.415-.12-.826-.237-1.238-.354-2.909,4.735-4.776,11.378-2.127,17.416,5.391,12.295,23.392,11.13,28.779,10.479A255.567,255.567,0,0,0,827.076,1217.116Z" transform="translate(-524.441 -1136.796)" fill="#fff"/>
                <path id="Trazado_184693" data-name="Trazado 184693" d="M918.437,1361.747c-5.515-2.13-11.212-4.333-17.2-3.768-10.505.993-19.5,11.381-20.04,23.157-.372,8.029,2.7,16.445,8.544,23.847q.528-.33,1.052-.665c-5.717-7.192-8.718-15.357-8.358-23.124.518-11.184,9-21.045,18.919-21.983,5.694-.527,11.01,1.517,16.637,3.692,2.009.776,4.051,1.558,6.126,2.223.107-.4.211-.8.307-1.2C922.4,1363.271,920.4,1362.506,918.437,1361.747Z" transform="translate(-561.932 -1192.231)" fill="#fff"/>
                <path id="Trazado_184694" data-name="Trazado 184694" d="M467.279,1301.029c-7.207-5.96-18.4-7.553-30.717-4.371-10.973,2.838-20.387,8.46-26.855,15.9.425.137.84.292,1.271.418,6.293-7.058,15.356-12.392,25.894-15.117,11.921-3.086,22.719-1.579,29.617,4.125a26.9,26.9,0,0,1,7.283,10.03l1.281-.148A28.337,28.337,0,0,0,467.279,1301.029Z" transform="translate(-402.129 -1170.932)" fill="#fff"/>
                <path id="Trazado_184695" data-name="Trazado 184695" d="M398.243,1155.41c13.5-3.355,26.682-8.068,38.835-15.069,4.592-2.645,9.778-6.018,13.425-10.97,3.88-5.269,5.168-11.542,3.449-16.779a13.116,13.116,0,0,0-3.363-5.3l-.954.782a11.95,11.95,0,0,1,3.139,4.909c1.6,4.856.373,10.71-3.268,15.656-3.511,4.767-8.565,8.05-13.046,10.63a146.452,146.452,0,0,1-36.6,14.47Q399.049,1154.571,398.243,1155.41Z" transform="translate(-398.243 -1107.289)" fill="#fff"/>
              </g>
              <g id="Grupo_141201" data-name="Grupo 141201" transform="translate(148.363)">
                <path id="Trazado_184696" data-name="Trazado 184696" d="M704.909,1134.386l-.021,2.117-.335,32.874-.042,3.562a20.471,20.471,0,0,1-40.941-.021l-.4-40.625Z" transform="translate(-612.026 -1054.711)" fill="#f9b384"/>
                <path id="Trazado_184697" data-name="Trazado 184697" d="M712.881,1138.662l-.335,32.874c-18.27-7.438-25.792-27.217-25.792-27.217Z" transform="translate(-620.019 -1056.87)" fill="#102048"/>
                <path id="Trazado_184698" data-name="Trazado 184698" d="M709.952,1050.4c6.548,7.857,25.667,52.38,6.286,67.57-21.809,17.094-55-11-55-11l-4.452-51.856,28.809-7.595Z" transform="translate(-609.861 -1025.978)" fill="#f9b384"/>
                <path id="Trazado_184699" data-name="Trazado 184699" d="M618.048,1047.559s-63.9,33.328-11.8,129.4c6.692,12.339,21.515,17.725,34.2,11.7h0a25.918,25.918,0,0,0,11.366-36.2c-8.523-15.141-16.749-34.637-13.237-49.145Z" transform="translate(-585.801 -1025.99)" fill="#102048"/>
                <circle id="Elipse_4900" data-name="Elipse 4900" cx="17.286" cy="17.286" r="17.286" transform="translate(13.836 37.345) rotate(-45)" fill="#fbc343"/>
                <path id="Trazado_184700" data-name="Trazado 184700" d="M659.5,1073.045c-1.868-10.784-3.006-18.179,7.894-23.737,0,0,38.412,6.984,45.745-7.509s-3.841-37.364-27.238-21.475c-59.888-11.7-67.92,44.348-49.762,63.03l17.922-2.75A6.525,6.525,0,0,0,659.5,1073.045Z" transform="translate(-599.957 -1014.931)" fill="#102048"/>
                <g id="Grupo_141200" data-name="Grupo 141200" transform="translate(77.282 38.443)">
                  <ellipse id="Elipse_4901" data-name="Elipse 4901" cx="2.554" cy="2.554" rx="2.554" ry="2.554" transform="translate(9.451 17.148)" fill="#102048"/>
                  <ellipse id="Elipse_4902" data-name="Elipse 4902" cx="2.554" cy="2.554" rx="2.554" ry="2.554" transform="translate(26.737 8.637)" fill="#102048"/>
                  <path id="Trazado_184701" data-name="Trazado 184701" d="M741.49,1108.733a.723.723,0,0,1-.524-1.22c1.024-1.078,2.146-2.594,1.674-3.693-.49-1.141-2.56-1.634-3.508-1.634-2.037,0-3.016-3.624-3.191-4.351a.723.723,0,0,1,1.405-.34c.372,1.531,1.214,3.245,1.786,3.245.975,0,3.957.461,4.836,2.509.628,1.463-.03,3.232-1.955,5.26A.721.721,0,0,1,741.49,1108.733Z" transform="translate(-713.967 -1081.172)" fill="#102048"/>
                  <path id="Trazado_184702" data-name="Trazado 184702" d="M738.8,1127.81a.718.718,0,0,1-.4-.124,9.664,9.664,0,0,0-9.711-.5.723.723,0,0,1-.721-1.254,10.99,10.99,0,0,1,11.242.552.723.723,0,0,1-.405,1.322Z" transform="translate(-711.147 -1090.557)" fill="#102048"/>
                  <path id="Trazado_184703" data-name="Trazado 184703" d="M713.6,1085.546c1.453,2.734-1.079,3.282-4.045,4.858s-6,2.153-6.7.849,1.149-3.639,4.115-5.215S712.472,1083.43,713.6,1085.546Z" transform="translate(-702.71 -1076.904)" fill="#102048"/>
                  <path id="Trazado_184704" data-name="Trazado 184704" d="M735.5,1076.792c.639,2.441,2.459,1.372,5.107.679s4.785-2.022,4.481-3.187-2.7-1.546-5.345-.854S735.01,1074.9,735.5,1076.792Z" transform="translate(-713.801 -1073.085)" fill="#102048"/>
                </g>
                <ellipse id="Elipse_4903" data-name="Elipse 4903" cx="7.53" cy="7.53" rx="7.53" ry="7.53" transform="matrix(0.735, -0.678, 0.678, 0.735, 66.862, 69.631)" fill="#eb5d60" opacity="0.4"/>
                <ellipse id="Elipse_4904" data-name="Elipse 4904" cx="10.198" cy="11.588" rx="10.198" ry="11.588" transform="matrix(0.611, -0.792, 0.792, 0.611, 33.502, 71.082)" fill="#f9b384"/>
                <path id="Trazado_184705" data-name="Trazado 184705" d="M661.818,1122.361a.723.723,0,0,1-.723-.723,6.336,6.336,0,0,0-2.783-5.278,5.1,5.1,0,0,0-4.752-.632.723.723,0,0,1-.546-1.339,6.542,6.542,0,0,1,6.1.771,7.778,7.778,0,0,1,3.422,6.479A.722.722,0,0,1,661.818,1122.361Z" transform="translate(-608.43 -1048.494)" fill="#102048"/>
              </g>
              <g id="Grupo_141202" data-name="Grupo 141202" transform="translate(72.034 126.372)">
                <rect id="Rectángulo_36087" data-name="Rectángulo 36087" width="38.436" height="1.653" transform="translate(0 28.224) rotate(-47.248)" fill="#102048"/>
                <path id="Trazado_184706" data-name="Trazado 184706" d="M787.617,1371.547l-.481-1.58c18.994-5.789,37.426-12.715,54.132-33.6l1.29,1.032C825.559,1358.653,806.869,1365.68,787.617,1371.547Z" transform="translate(-577.716 -1250.254)" fill="#102048"/>
              </g>
            </g>
            <g id="Grupo_141206" data-name="Grupo 141206" transform="translate(121.392 183.668)">
              <g id="Grupo_141204" data-name="Grupo 141204">
                <path id="Trazado_184707" data-name="Trazado 184707" d="M717.092,1292.776H555.521c-5.811,0-10.521,5.1-10.521,11.382v115.357c0,6.287,4.711,11.382,10.521,11.382H717.092c5.811,0,10.521-5.1,10.521-11.382V1304.158C727.614,1297.872,722.9,1292.776,717.092,1292.776Z" transform="translate(-545 -1292.776)" fill="#d3dfff"/>
              </g>
              <g id="Grupo_141205" data-name="Grupo 141205" transform="translate(78.362 58.464)">
                <path id="Trazado_184708" data-name="Trazado 184708" d="M685.017,1384.523a1.159,1.159,0,0,1,1.111,1.2V1397.9a1.159,1.159,0,0,1-1.111,1.2H667.958a1.159,1.159,0,0,1-1.111-1.2v-12.179a1.159,1.159,0,0,1,1.111-1.2h17.059m0-3.305H667.958a4.467,4.467,0,0,0-4.416,4.507V1397.9a4.467,4.467,0,0,0,4.416,4.507h17.059a4.467,4.467,0,0,0,4.416-4.507v-12.179a4.467,4.467,0,0,0-4.416-4.507Z" transform="translate(-663.542 -1381.218)" fill="#1f3c88"/>
              </g>
            </g>
          </g>
        </g>
      </g>
      <g id="Grupo_141215" data-name="Grupo 141215" transform="translate(180 1195.5)">
        <path id="Trazado_184712" data-name="Trazado 184712" d="M-5676.06-10280.12c1-6.979-34.833-160.971-34.833-160.971l41.654,32.512,62.247-21.45,9.729,131.222,37.429-116.244,74.477-9.723,64.228-10.08-12.185,98.192,69.146-71.917-22.2,200.158-81.534-46.951-82.139-20.3-56.951,116.715Z" transform="translate(5724.507 10450.001)" fill="none" stroke="#707070" stroke-width="1" stroke-dasharray="8"/>
        <g id="Grupo_141211" data-name="Grupo 141211" transform="translate(132.46 4.154)">
          <ellipse id="Elipse_4877" data-name="Elipse 4877" cx="31.427" cy="31.427" rx="31.427" ry="31.427" fill="#ff0092"/>
          <g id="Grupo_141161" data-name="Grupo 141161" transform="translate(6.926 14.55)">
            <g id="Grupo_141160" data-name="Grupo 141160">
              <g id="Grupo_141159" data-name="Grupo 141159">
                <path id="Trazado_184643" data-name="Trazado 184643" d="M196.232,59.129a6.449,6.449,0,0,0-1.095.961,7.631,7.631,0,0,0-2.1-.295,7.735,7.735,0,0,0-7.675,6.7,7.754,7.754,0,0,0-4.113,11.936,7.637,7.637,0,0,0-.528,2.8,7.7,7.7,0,0,0,8.772,7.679c.063-.008.126-.019.189-.029a7.748,7.748,0,0,0,.993-.219,7.736,7.736,0,0,0,8.773-.266,7.742,7.742,0,0,0,12.42.4,7.649,7.649,0,0,0,3.975,1.1,7.762,7.762,0,0,0,7.754-7.754,7.663,7.663,0,0,0-.485-2.687,7.719,7.719,0,0,0,2.184-6.891l-.571-1.824a7.773,7.773,0,0,0-4.843-4.237,9.527,9.527,0,0,0-6.32-7.985l-1.824-.442a9.641,9.641,0,0,0-1.368-.107,9.472,9.472,0,0,0-5.836,2.014,6.332,6.332,0,0,0-6.479-1.738m20.054,9.017.026.72.706.142a5.908,5.908,0,0,1,3.844,2.687l.731,1.755a5.759,5.759,0,0,1,.182,1.368,5.9,5.9,0,0,1-1.468,3.892,7.639,7.639,0,0,0-5.771-3.069l-.12,1.707a5.767,5.767,0,0,1,5.524,5.887,5.931,5.931,0,0,1-5.919,5.723,5.872,5.872,0,0,1-3.642-1.258l-.365-.285a5.914,5.914,0,0,1-1.917-3.992l-1.82.122a7.718,7.718,0,0,0,2.319,5.027,5.915,5.915,0,0,1-9.919-1.095l-.562-1.134-.9.893a5.852,5.852,0,0,1-6.261,1.326,7.75,7.75,0,0,0,3.452-6.446c0-.194-.025-.384-.039-.574.3-2.327-2.275-5.327-4.107-6.292l-.851,1.615A5.927,5.927,0,0,1,190.5,86.8a6.189,6.189,0,0,1-.974.263l-.066.01a5.848,5.848,0,0,1-.979.087,5.919,5.919,0,0,1-5.353-8.468l.251-.525L183,77.721a5.928,5.928,0,0,1,3.389-9.6l.7-.14.033-.712a5.915,5.915,0,0,1,2.721-4.717l1.825-.769a5.784,5.784,0,0,1,3.455.221l.652.246.409-.563c.014-.02.03-.036.045-.055l1.824-1.445a4.5,4.5,0,0,1,5.128,1.034,9.395,9.395,0,0,0,6.731,15.9V75.3a8,8,0,0,1-7.526-7.754,7.891,7.891,0,0,1,2.077-5.154l.523-.444a7.756,7.756,0,0,1,5.355-2.156,8.075,8.075,0,0,1,1.4.126v3.523A4.566,4.566,0,0,1,207.179,68h-.912V69.83h.912a6.394,6.394,0,0,0,6.386-6.387V60.485A7.718,7.718,0,0,1,218.111,67.264Z" transform="translate(-179.812 -57.971)" fill="#fff"/>
              </g>
            </g>
          </g>
        </g>
        <g id="Grupo_141212" data-name="Grupo 141212" transform="translate(311.954 0)">
          <ellipse id="Elipse_4878" data-name="Elipse 4878" cx="37.485" cy="37.485" rx="37.485" ry="37.485" transform="matrix(0.193, -0.981, 0.981, 0.193, 0, 73.555)" fill="#ff0092"/>
          <g id="Grupo_141163" data-name="Grupo 141163" transform="translate(16.747 21.774)">
            <path id="Trazado_184644" data-name="Trazado 184644" d="M433.547,63.027a1.461,1.461,0,0,0-1.291-1.291c-11.556-1.284-21.407,3.34-29.442,11.611a60.255,60.255,0,0,0-6,7.291,11.593,11.593,0,0,0-8.341,3.451l-4.131,4.131a1.46,1.46,0,0,0,1.411,2.443,20.373,20.373,0,0,1,4.012-.626,11.452,11.452,0,0,1,1.379.011c-.911,1.754-1.61,3.222-1.842,3.589a1.461,1.461,0,0,0,.2,1.811l2.39,2.39c-3.479,4.744-3.536,7.174-3.524,7.518a1.467,1.467,0,0,0,1.535,1.412c.815,0,3.154-.346,7.411-3.507l2.514,2.514a1.46,1.46,0,0,0,1.822.2c.394-.253,1.776-.923,3.434-1.788a35.777,35.777,0,0,1-.5,5.509,1.461,1.461,0,0,0,2.477,1.247l4.131-4.131a11.534,11.534,0,0,0,3.274-8.261,60.222,60.222,0,0,0,7.672-6.306C430.334,84.206,434.814,74.429,433.547,63.027Zm-2.794,1.5a29.15,29.15,0,0,1-.74,9.155,13.986,13.986,0,0,1-8.42-8.434A29.425,29.425,0,0,1,430.753,64.529ZM389.578,87.12l.963-.964a9.221,9.221,0,0,1,4.189-2.382c-.788,1.25-1.489,2.444-2.109,3.545A11.722,11.722,0,0,0,389.578,87.12Zm2.764,7.032c.315-.624.7-1.406,1.4-2.732l1.922,1.923c-.715.767-1.361,1.5-1.943,2.187Zm7.141-.559a4.321,4.321,0,0,1,3.352-1.285,4.367,4.367,0,0,1-1.286,3.351c-4.534,4.534-7.641,6.558-9.5,7.462C392.965,101.226,394.995,98.08,399.482,93.593Zm1.643,9.343-1.507-1.507q1.032-.876,2.181-1.95l2.047,2.047C402.5,102.243,401.94,102.515,401.125,102.935Zm8,1.808-1.17,1.169a14.235,14.235,0,0,0-.072-3.245c1.074-.6,2.241-1.291,3.462-2.058A8.611,8.611,0,0,1,409.129,104.743Zm-2.624-4.69-2.618-2.618c1.938-2.132,1.866-4.186,1.866-6.586a1.46,1.46,0,0,0-1.461-1.46c-2.242,0-4.4-.12-6.586,1.865l-2.5-2.5c6.827-11.972,14.72-19.552,23.586-22.674a16.873,16.873,0,0,0,10.383,10.4C426.035,85.3,418.457,93.188,406.5,100.053Z" transform="translate(-383.918 -61.524)" fill="#fff"/>
            <path id="Trazado_184645" data-name="Trazado 184645" d="M424.575,76.263a7.3,7.3,0,1,0,0,10.327A7.311,7.311,0,0,0,424.575,76.263Zm-2.066,8.261a4.381,4.381,0,1,1,0-6.2A4.385,4.385,0,0,1,422.51,84.524Z" transform="translate(-387.756 -63.24)" fill="#fff"/>
          </g>
        </g>
        <g id="Grupo_141213" data-name="Grupo 141213" transform="translate(213.032 155.77)">
          <path id="Trazado_184657" data-name="Trazado 184657" d="M31.427,0A31.427,31.427,0,1,1,0,31.427,31.427,31.427,0,0,1,31.427,0Z" transform="translate(0 61.118) rotate(-76.504)" fill="#00bab5"/>
          <g id="Grupo_141165" data-name="Grupo 141165" transform="translate(20.185 12.847)">
            <path id="Trazado_184646" data-name="Trazado 184646" d="M290.2,144.038a.936.936,0,0,0,1.183-.6,10.845,10.845,0,0,1,21.14,3.406c0,4.621-2.07,7.382-3.733,9.6-1.209,1.614-2.255,3.007-2.255,4.7,0,.111,0,.221,0,.331h-3.915v-2.152a.937.937,0,1,0-1.874,0v2.152h-3.915c0-.11,0-.219,0-.331,0-1.691-1.045-3.084-2.255-4.7a17.139,17.139,0,0,1-3.3-6.118.937.937,0,1,0-1.812.474,18.931,18.931,0,0,0,3.615,6.768c1.05,1.4,1.88,2.508,1.88,3.574,0,.448.019.886.056,1.3v7.924c0,.026,0,.05,0,.074v.018a1,1,0,0,0,.016.1h0a7.021,7.021,0,0,0,2.346,3.907,6.691,6.691,0,0,0,8.614,0,7.022,7.022,0,0,0,2.346-3.907h0a.978.978,0,0,0,.016-.1v-.018c0-.024,0-.049,0-.074V162.45c.037-.417.057-.855.057-1.3,0-1.066.829-2.173,1.88-3.574,1.733-2.313,4.107-5.479,4.107-10.724a12.718,12.718,0,0,0-24.792-3.994A.938.938,0,0,0,290.2,144.038Zm11.481,30.135a4.96,4.96,0,0,1-4.437-2.863h8.873A4.959,4.959,0,0,1,301.678,174.173Zm4.8-4.736h-9.6V167.33h9.6Zm0-3.981h-9.6v-2.106h9.6Z" transform="translate(-282.91 -128.081)" fill="#f5f5f5" fill-rule="evenodd"/>
            <path id="Trazado_184647" data-name="Trazado 184647" d="M303.461,131.5a.936.936,0,0,0,.936-.936v-2.5a.937.937,0,0,0-1.874,0v2.5A.937.937,0,0,0,303.461,131.5Z" transform="translate(-284.694 -127.128)" fill="#f5f5f5" fill-rule="evenodd"/>
            <path id="Trazado_184648" data-name="Trazado 184648" d="M282.821,149.642h2.5a.937.937,0,1,0,0-1.874h-2.5a.937.937,0,1,0,0,1.874Z" transform="translate(-281.884 -129.938)" fill="#f5f5f5" fill-rule="evenodd"/>
            <path id="Trazado_184649" data-name="Trazado 184649" d="M289.969,136.538a.937.937,0,0,0,1.325-1.325l-1.765-1.765a.937.937,0,1,0-1.325,1.324Z" transform="translate(-282.707 -127.951)" fill="#f5f5f5" fill-rule="evenodd"/>
            <path id="Trazado_184650" data-name="Trazado 184650" d="M288.118,164.706a.937.937,0,0,0,.663-.274l1.765-1.766a.937.937,0,0,0-1.325-1.324l-1.765,1.765a.936.936,0,0,0,.663,1.6Z" transform="translate(-282.605 -131.748)" fill="#f5f5f5" fill-rule="evenodd"/>
            <path id="Trazado_184651" data-name="Trazado 184651" d="M316.012,136.812a.938.938,0,0,0,.663-.274l1.765-1.766a.937.937,0,1,0-1.325-1.324l-1.765,1.765a.936.936,0,0,0,.663,1.6Z" transform="translate(-286.402 -127.951)" fill="#f5f5f5" fill-rule="evenodd"/>
            <path id="Trazado_184652" data-name="Trazado 184652" d="M316.1,161.342a.937.937,0,0,0,0,1.324l1.765,1.766a.937.937,0,0,0,1.325-1.325l-1.765-1.765A.936.936,0,0,0,316.1,161.342Z" transform="translate(-286.504 -131.748)" fill="#f5f5f5" fill-rule="evenodd"/>
            <path id="Trazado_184653" data-name="Trazado 184653" d="M321.211,149.642h2.5a.937.937,0,0,0,0-1.874h-2.5a.937.937,0,0,0,0,1.874Z" transform="translate(-287.11 -129.938)" fill="#f5f5f5" fill-rule="evenodd"/>
          </g>
        </g>
        <g id="Grupo_141214" data-name="Grupo 141214" transform="translate(0 151.603)">
          <path id="Trazado_184658" data-name="Trazado 184658" d="M31.427,0A31.427,31.427,0,1,1,0,31.427,31.427,31.427,0,0,1,31.427,0Z" transform="translate(0 44.444) rotate(-45)" fill="#00bab5"/>
          <path id="Trazado_184654" data-name="Trazado 184654" d="M92.971,165.29a11.485,11.485,0,0,0,2.829-7.505c0-6.464-5.673-11.9-13.06-12.7a10.968,10.968,0,0,0,.238-2.259c0-7.07-6.71-12.822-14.959-12.822s-14.96,5.752-14.96,12.822a11.433,11.433,0,0,0,2.433,7l-2.386,6.282a.711.711,0,0,0,.951.905l6.729-2.959a16.33,16.33,0,0,0,5.332,1.47,10.99,10.99,0,0,0-.236,2.261c0,7.07,6.711,12.822,14.959,12.822a17.037,17.037,0,0,0,6.651-1.335l7.295,3.4a.712.712,0,0,0,.956-.926ZM60.516,152.617l-5.474,2.407,1.923-5.071a.714.714,0,0,0-.115-.7,10.081,10.081,0,0,1-2.365-6.423c0-6.284,6.07-11.4,13.534-11.4s13.534,5.113,13.534,11.4a9.569,9.569,0,0,1-.386,2.688c-1.466,5.128-6.876,8.709-13.148,8.709-.321,0-.637-.006-.971-.034a15.044,15.044,0,0,1-5.925-1.557A.713.713,0,0,0,60.516,152.617ZM87.8,167.847a.712.712,0,0,0-.6,0,15.568,15.568,0,0,1-6.367,1.34c-7.463,0-13.534-5.113-13.534-11.4a9.614,9.614,0,0,1,.244-2.142c.156.006.312.006.469.006.424,0,.846-.016,1.262-.046.143-.01.278-.031.419-.044.274-.027.548-.051.817-.089.166-.025.327-.059.492-.087.238-.041.479-.079.712-.131.174-.037.345-.086.516-.129.219-.055.439-.106.654-.169.175-.052.346-.112.518-.169.2-.068.41-.133.611-.207.173-.065.341-.138.511-.209.192-.079.384-.157.57-.242.169-.079.333-.165.5-.248s.359-.179.534-.276.323-.188.483-.284.335-.2.5-.307.308-.213.46-.32.31-.22.46-.336.291-.235.434-.356.285-.239.423-.364.27-.256.4-.386.262-.258.386-.391.248-.275.368-.416.236-.276.348-.418.222-.293.33-.442.213-.295.309-.446.2-.307.285-.464.183-.314.269-.475.165-.319.243-.481.155-.335.227-.505.134-.328.2-.5c.031-.085.071-.167.1-.253,6.786.641,12.018,5.524,12.018,11.326a10.142,10.142,0,0,1-2.764,6.894.714.714,0,0,0-.128.76L93.7,170.6Z" transform="translate(-31.581 -108.122)" fill="#f5f5f5"/>
        </g>
        <ellipse id="Elipse_4905" data-name="Elipse 4905" cx="15.513" cy="15.513" rx="15.513" ry="15.513" transform="translate(40.867 22.699)" fill="#faeeb0"/>
        <ellipse id="Elipse_4906" data-name="Elipse 4906" cx="6.39" cy="6.39" rx="6.39" ry="6.39" transform="translate(121.216 146.19)" fill="#f5f5f5"/>
        <ellipse id="Elipse_4907" data-name="Elipse 4907" cx="8.046" cy="8.046" rx="8.046" ry="8.046" transform="translate(106.202 12.412)" fill="#f5f5f5"/>
        <ellipse id="Elipse_4908" data-name="Elipse 4908" cx="21.07" cy="21.07" rx="21.07" ry="21.07" transform="translate(218.503 2.199)" fill="#dfe4f5"/>
        <ellipse id="Elipse_4909" data-name="Elipse 4909" cx="25.285" cy="25.285" rx="25.285" ry="25.285" transform="translate(77.847 320.457) rotate(-80.697)" fill="#dfe4f5"/>
        <ellipse id="Elipse_4910" data-name="Elipse 4910" cx="7.581" cy="7.581" rx="7.581" ry="7.581" transform="translate(287.389 104.636)" fill="#faeeb0"/>
        <path id="Trazado_184710" data-name="Trazado 184710" d="M363.686,53.285a5.106,5.106,0,1,1-5.105-5.106A5.106,5.106,0,0,1,363.686,53.285Z" transform="translate(-56.15 -37.935)" fill="#f5f5f5"/>
        <ellipse id="Elipse_4911" data-name="Elipse 4911" cx="17.771" cy="17.771" rx="17.771" ry="17.771" transform="translate(314.439 248.82) rotate(-80)" fill="#dfe4f5"/>
        <ellipse id="Elipse_4912" data-name="Elipse 4912" cx="14.618" cy="14.618" rx="14.618" ry="14.618" transform="translate(155.778 177.897) rotate(-47.317)" fill="#faeeb0"/>
        <path id="Trazado_184711" data-name="Trazado 184711" d="M49.5,45.319a4.191,4.191,0,1,1-4.191-4.191A4.191,4.191,0,0,1,49.5,45.319Z" transform="translate(-29.956 -36.974)" fill="#f5f5f5"/>
      </g>
    </g>
  </g>
</svg>
