<svg xmlns="http://www.w3.org/2000/svg" xmlns:xlink="http://www.w3.org/1999/xlink" width="82" height="82" viewBox="0 0 82 82">
  <defs>
    <clipPath id="clip-path">
      <rect id="Rectángulo_23395" data-name="Rectángulo 23395" width="82" height="82" transform="translate(759 2659)" fill="#fff" stroke="#707070" stroke-width="1"/>
    </clipPath>
  </defs>
  <g id="Enmascarar_grupo_110" data-name="Enmascarar grupo 110" transform="translate(-759 -2659)" clip-path="url(#clip-path)">
    <g id="lifestyle" transform="translate(759 2659)">
      <g id="Grupo_81365" data-name="Grupo 81365">
        <path id="Trazado_182194" data-name="Trazado 182194" d="M13.443,80.632a1.28,1.28,0,0,0,.9,0c2.74-1.049,8.187-4.632,10.714-8.145a7.87,7.87,0,0,0-.788-10.123,6.852,6.852,0,0,0-9.512-.375,1.282,1.282,0,0,1-1.732,0,6.849,6.849,0,0,0-9.512.375,7.87,7.87,0,0,0-.788,10.123,27.73,27.73,0,0,0,10.714,8.15Z" fill="#ff0092"/>
        <g id="Grupo_81354" data-name="Grupo 81354">
          <path id="Trazado_182195" data-name="Trazado 182195" d="M24.273,62.36a6.953,6.953,0,0,0-7.395-1.68,7.158,7.158,0,0,1,2.6,1.68,7.869,7.869,0,0,1,.788,10.122c-2.023,2.812-5.916,5.668-8.795,7.233a16.378,16.378,0,0,0,1.976.916,1.279,1.279,0,0,0,.9,0c2.74-1.049,8.187-4.632,10.714-8.145A7.869,7.869,0,0,0,24.273,62.36Z" fill="#d5087d"/>
        </g>
        <g id="Grupo_81357" data-name="Grupo 81357">
          <g id="Grupo_81356" data-name="Grupo 81356">
            <path id="Trazado_182196" data-name="Trazado 182196" d="M76.305,4.144a5.114,5.114,0,0,0-3.708.524,9.277,9.277,0,0,1-8.6,0,5.114,5.114,0,0,0-3.708-.524C56.6,5.12,54.856,10.637,56.4,16.467s5.784,9.764,9.476,8.788a4.433,4.433,0,0,0,.578-.2,4.8,4.8,0,0,1,3.693,0,4.457,4.457,0,0,0,.578.2c3.692.976,7.935-2.958,9.476-8.788S80,5.12,76.305,4.144Z" fill="#00ba7c"/>
            <g id="Grupo_81355" data-name="Grupo 81355">
              <path id="Trazado_182197" data-name="Trazado 182197" d="M76.305,4.144a5.09,5.09,0,0,0-3.643.492c2.881,1.719,4.108,6.65,2.738,11.831-1.061,4.012-3.4,7.126-5.961,8.36a4.764,4.764,0,0,1,.706.231,4.481,4.481,0,0,0,.578.2c3.692.976,7.935-2.958,9.476-8.788S80,5.12,76.305,4.144Z" fill="#00ba7c"/>
            </g>
          </g>
        </g>
        <g id="Grupo_81360" data-name="Grupo 81360">
          <path id="Trazado_182198" data-name="Trazado 182198" d="M15.659,26.145H4a2.751,2.751,0,0,1-2.751-2.751V3.951A2.751,2.751,0,0,1,4,1.2H17.757a2.751,2.751,0,0,1,2.751,2.751V18.544Z" fill="#ffd400"/>
          <path id="Trazado_182199" data-name="Trazado 182199" d="M17.757,1.2h-4.8a2.751,2.751,0,0,1,2.751,2.751V18.544h4.8V3.951A2.751,2.751,0,0,0,17.757,1.2Z" fill="#ffd400"/>
          <path id="Trazado_182200" data-name="Trazado 182200" d="M15.659,26.145l-1.714-4.736a2.138,2.138,0,0,1,2.01-2.865h4.554Z" fill="#ffd400"/>
          <g id="Grupo_81358" data-name="Grupo 81358">
            <path id="Trazado_182201" data-name="Trazado 182201" d="M14.538,7.9H7.22a1.2,1.2,0,1,1,0-2.4h7.318a1.2,1.2,0,0,1,0,2.4Z" fill="#ffd400"/>
          </g>
          <g id="Grupo_81359" data-name="Grupo 81359">
            <path id="Trazado_182202" data-name="Trazado 182202" d="M14.538,13.405H7.22a1.2,1.2,0,0,1,0-2.4h7.318a1.2,1.2,0,0,1,0,2.4Z" fill="#ffd400"/>
          </g>
        </g>
        <g id="Grupo_81362" data-name="Grupo 81362">
          <g id="Grupo_81361" data-name="Grupo 81361">
            <path id="Trazado_182203" data-name="Trazado 182203" d="M77.265,74.858H69.613a1.2,1.2,0,0,1-1.2-1.2V63.777a1.2,1.2,0,0,1,1.2-1.2H79.13a2.853,2.853,0,0,1,2.724,3.6L79.989,72.8A2.84,2.84,0,0,1,77.265,74.858Zm-6.453-2.4h6.453a.432.432,0,0,0,.414-.314l1.864-6.62a.43.43,0,0,0-.414-.547H70.813Z" fill="#ddebfd"/>
          </g>
          <path id="Trazado_182204" data-name="Trazado 182204" d="M68.516,80.712H60.751a4.165,4.165,0,0,1-4.165-4.165v-15.5a.96.96,0,0,1,.96-.96H71.72a.96.96,0,0,1,.96.96v15.5A4.165,4.165,0,0,1,68.516,80.712Z" fill="#214be5" opacity="0.72"/>
          <path id="Trazado_182205" data-name="Trazado 182205" d="M71.72,60.091h-4.8a.96.96,0,0,1,.96.96v15.5a4.165,4.165,0,0,1-4.165,4.165h4.8a4.165,4.165,0,0,0,4.165-4.165v-15.5A.96.96,0,0,0,71.72,60.091Z" fill="#214be5"/>
        </g>
        <g id="Grupo_81364" data-name="Grupo 81364">
          <path id="Trazado_182206" data-name="Trazado 182206" d="M55.634,42.727H26.376V26.636a4.548,4.548,0,0,1,4.548-4.548H51.087a4.548,4.548,0,0,1,4.548,4.548V42.727Z" fill="#cf9875"/>
          <path id="Trazado_182207" data-name="Trazado 182207" d="M51.087,22.089h-4.8a4.548,4.548,0,0,1,4.548,4.548v16.09h4.8V26.637A4.548,4.548,0,0,0,51.087,22.089Z" fill="#c7865b"/>
          <path id="Trazado_182208" data-name="Trazado 182208" d="M56.719,45.426H55.634V39.3h1.085a3.064,3.064,0,0,1,0,6.128Z" fill="#ffdecf"/>
          <path id="Trazado_182209" data-name="Trazado 182209" d="M25.291,45.426h1.085V39.3H25.291a3.064,3.064,0,0,0,0,6.128Z" fill="#ffcdbe"/>
          <g id="Grupo_81363" data-name="Grupo 81363">
            <path id="Trazado_182210" data-name="Trazado 182210" d="M54.863,39.162a.962.962,0,0,1,.772.944v5.088a14.63,14.63,0,1,1-29.258-.159V40.212a.961.961,0,0,1,.9-.961A32.506,32.506,0,0,0,44.26,33.109a.959.959,0,0,1,1.338.21,14.7,14.7,0,0,0,2.216,2.421,15.31,15.31,0,0,0,7.049,3.422Z" fill="#ffdecf"/>
          </g>
          <path id="Trazado_182211" data-name="Trazado 182211" d="M50.835,45.194A14.632,14.632,0,0,1,38.613,59.625,14.621,14.621,0,0,0,55.634,45.194V40.105a.962.962,0,0,0-.772-.944,15.864,15.864,0,0,1-4.028-1.389Z" fill="#ffcdbe"/>
        </g>
        <circle id="Elipse_4742" data-name="Elipse 4742" cx="2.88" cy="2.88" r="2.88" transform="translate(38.125 1.2)" fill="#00bab5"/>
        <circle id="Elipse_4743" data-name="Elipse 4743" cx="2.88" cy="2.88" r="2.88" transform="translate(38.125 74.952)" fill="#ffd400"/>
        <circle id="Elipse_4744" data-name="Elipse 4744" cx="2.88" cy="2.88" r="2.88" transform="translate(1.249 38.076)" fill="#ff0092"/>
        <circle id="Elipse_4745" data-name="Elipse 4745" cx="2.88" cy="2.88" r="2.88" transform="translate(75.002 38.076)" fill="#214be5"/>
      </g>
      <path id="Trazado_182212" data-name="Trazado 182212" d="M7.22,7.9h7.318a1.2,1.2,0,0,0,0-2.4H7.22a1.2,1.2,0,1,0,0,2.4ZM79.129,62.578H73.88V61.051a2.148,2.148,0,0,0-.115-.689,38.084,38.084,0,0,0,5.109-15.449,4.079,4.079,0,0,0,0-7.913,37.616,37.616,0,0,0-3.133-11.651,10.365,10.365,0,0,0,1.342-1.056,15.8,15.8,0,0,0,4.276-7.519,15.8,15.8,0,0,0,0-8.65c-.864-2.733-2.55-4.559-4.748-5.14a6.306,6.306,0,0,0-4.569.62,8.087,8.087,0,0,1-2.4.8q.079-.363.178-.721A13.345,13.345,0,0,1,70.549,1.7a1.2,1.2,0,1,0-2.182-1,15.759,15.759,0,0,0-.855,2.343q-.192.692-.318,1.4A8.091,8.091,0,0,1,64.555,3.6,6.039,6.039,0,0,0,56.17,6.023,37.691,37.691,0,0,0,44.962,3.086a4.079,4.079,0,0,0-7.913,0,38.032,38.032,0,0,0-15.34,5.043V3.951A3.956,3.956,0,0,0,17.757,0H4A3.956,3.956,0,0,0,.049,3.951V8.873a1.2,1.2,0,0,0,2.4,0V3.951A1.553,1.553,0,0,1,4,2.4H17.757a1.553,1.553,0,0,1,1.552,1.551V17.344H15.955a3.337,3.337,0,0,0-3.138,4.474l1.132,3.128H4a1.553,1.553,0,0,1-1.551-1.551V14.473a1.2,1.2,0,0,0-2.4,0v8.921A3.956,3.956,0,0,0,4,27.345H5.435A37.824,37.824,0,0,0,3.134,37a4.079,4.079,0,0,0,0,7.913A38.107,38.107,0,0,0,7.527,59.1a8.29,8.29,0,0,0-4.861,2.412,9.032,9.032,0,0,0-.91,11.668,29.065,29.065,0,0,0,11.271,8.574h0c.426.426,1.186.205,1.749-.01a31.759,31.759,0,0,0,9.547-6.557,37.606,37.606,0,0,0,12.727,3.639,4.079,4.079,0,0,0,7.912,0,37.715,37.715,0,0,0,10.425-2.6,5.4,5.4,0,0,0,5.364,5.69h7.765a5.37,5.37,0,0,0,5.364-5.364V74.858h3.385a2.841,2.841,0,0,0,2.724-2.063l1.864-6.62a2.83,2.83,0,0,0-2.724-3.6Zm-1.248-23.3a1.68,1.68,0,1,1-1.68,1.68A1.682,1.682,0,0,1,77.881,39.276ZM60.6,5.3a3.9,3.9,0,0,1,2.847.428,10.49,10.49,0,0,0,3.5,1.1q-.019.7.023,1.41c-.115-.022-.229-.046-.342-.074a1.2,1.2,0,1,0-.58,2.329,9.313,9.313,0,0,0,2.251.276h.015A9.321,9.321,0,0,0,70.55,10.5a1.2,1.2,0,0,0-.58-2.329c-.2.049-.395.086-.595.117a14.076,14.076,0,0,1-.03-1.418,10.488,10.488,0,0,0,3.806-1.134A3.9,3.9,0,0,1,76,5.3c3,.792,4.388,5.763,3.042,10.856a13.389,13.389,0,0,1-3.587,6.373c-1.478,1.37-3.048,1.925-4.422,1.561a3.271,3.271,0,0,1-.423-.143,6.029,6.029,0,0,0-4.618,0,3.253,3.253,0,0,1-.423.143c-1.374.364-2.944-.191-4.422-1.561a13.388,13.388,0,0,1-3.587-6.373C56.211,11.067,57.6,6.1,60.6,5.3ZM41.005,2.4a1.68,1.68,0,1,1-1.68,1.68,1.682,1.682,0,0,1,1.68-1.68ZM15.187,20.143a.926.926,0,0,1,.768-.4H18.32l-2.362,3.7L15.073,21a.927.927,0,0,1,.114-.858ZM4.129,42.636a1.68,1.68,0,1,1,1.68-1.68A1.682,1.682,0,0,1,4.129,42.636ZM24.087,71.782c-2.322,3.228-7.574,6.731-10.169,7.725a.08.08,0,0,1-.058,0A26.644,26.644,0,0,1,3.7,71.782,6.639,6.639,0,0,1,4.37,63.2a5.649,5.649,0,0,1,7.849-.336,2.5,2.5,0,0,0,3.354,0,5.651,5.651,0,0,1,7.849.336A6.639,6.639,0,0,1,24.087,71.782Zm16.918,7.73a1.68,1.68,0,1,1,1.68-1.68A1.682,1.682,0,0,1,41.005,79.512ZM71.845,58.9c-.042,0-.083-.006-.125-.006H66.233a1.2,1.2,0,0,0,0,2.4H71.48V76.547a2.968,2.968,0,0,1-2.964,2.965H60.751a2.968,2.968,0,0,1-2.964-2.965V61.291h2.848a1.2,1.2,0,0,0,0-2.4H57.546a2.162,2.162,0,0,0-2.16,2.16V73.615a35.324,35.324,0,0,1-10.552,2.811,4.08,4.08,0,0,0-7.66,0A35.218,35.218,0,0,1,25.945,73.3c.03-.04.061-.081.09-.121a9.032,9.032,0,0,0-.91-11.668A8.042,8.042,0,0,0,13.95,61.1a.082.082,0,0,1-.109,0,7.783,7.783,0,0,0-3.461-1.842A35.678,35.678,0,0,1,5.533,44.786a4.08,4.08,0,0,0,0-7.66,35.417,35.417,0,0,1,2.482-9.781h7.643a1.213,1.213,0,0,0,1.011-.555l4.85-7.6a1.3,1.3,0,0,0,.188-.645v-7.6A35.619,35.619,0,0,1,37.174,5.483a4.08,4.08,0,0,0,7.66,0A35.308,35.308,0,0,1,55.209,8.221a15.853,15.853,0,0,0,.028,8.552,15.8,15.8,0,0,0,4.276,7.519c2.009,1.863,4.329,2.741,6.667,2.122a5.679,5.679,0,0,0,.734-.249,3.614,3.614,0,0,1,2.768,0,5.688,5.688,0,0,0,.734.249,5.921,5.921,0,0,0,3.151-.05,35.224,35.224,0,0,1,2.907,10.762,4.08,4.08,0,0,0,0,7.66A35.682,35.682,0,0,1,71.845,58.9Zm7.7,6.626-1.864,6.62a.433.433,0,0,1-.415.314H73.88V64.977h5.249A.409.409,0,0,1,79.544,65.524ZM7.22,13.405h7.318a1.2,1.2,0,0,0,0-2.4H7.22a1.2,1.2,0,1,0,0,2.4ZM46.478,42.2v2.361a1.2,1.2,0,0,0,2.4,0V42.2a1.2,1.2,0,0,0-2.4,0ZM42.62,50.8a4.583,4.583,0,0,1-3.23,0,1.2,1.2,0,1,0-.844,2.246,6.979,6.979,0,0,0,4.919,0A1.2,1.2,0,1,0,42.62,50.8ZM56.834,38.1V26.636a5.754,5.754,0,0,0-5.748-5.747H30.924a5.754,5.754,0,0,0-5.748,5.747V38.1a4.263,4.263,0,0,0,.078,8.524,15.925,15.925,0,0,0,15.695,14.4,15.83,15.83,0,0,0,15.82-14.4,4.263,4.263,0,0,0,.065-8.524ZM25.176,44.223a1.864,1.864,0,0,1,0-3.722Zm29.258.971A13.429,13.429,0,0,1,40.958,58.623,13.534,13.534,0,0,1,27.576,45.035v-4.6a33.706,33.706,0,0,0,17.2-6.213,15.921,15.921,0,0,0,2.254,2.424A16.551,16.551,0,0,0,54.434,40.3v4.9Zm0-7.358a14.052,14.052,0,0,1-5.832-3,13.538,13.538,0,0,1-2.035-2.223,2.162,2.162,0,0,0-3.013-.474,31.289,31.289,0,0,1-15.979,5.886V26.637a3.352,3.352,0,0,1,3.348-3.348H51.087a3.352,3.352,0,0,1,3.348,3.348Zm2.4,6.388V40.5a1.864,1.864,0,0,1,0,3.722ZM34.333,41a1.2,1.2,0,0,0-1.2,1.2v2.361a1.2,1.2,0,1,0,2.4,0V42.2A1.2,1.2,0,0,0,34.333,41Z" fill="#12263f"/>
    </g>
  </g>
</svg>
