<svg xmlns="http://www.w3.org/2000/svg" width="87.2" height="87.23" viewBox="0 0 87.2 87.23">
  <g id="Grupo_82181" data-name="Grupo 82181" transform="translate(-632.9 -3219.385)">
    <g id="Grupo_81474" data-name="Grupo 81474" transform="translate(632.9 3219.385)">
      <path id="Trazado_182393" data-name="Trazado 182393" d="M369.326,1641.033a14.694,14.694,0,0,0-1.631-2.439,32.464,32.464,0,0,0-3.763-3.248c-9.072-6.65-10.547-21.072-2.065-29.467a18.531,18.531,0,0,1,30.313,5.369c3.5,7.682,2.37,15.019-3.025,21.53a35.858,35.858,0,0,1-4.755,4.115,10.885,10.885,0,0,0-2.95,3.37c-.28.561-.333.907.349,1.291a3.944,3.944,0,0,1,2.061,3.374,32.024,32.024,0,0,1,0,3.5,4.009,4.009,0,0,1-2.195,3.453,1.291,1.291,0,0,0-.744,1.2,5.753,5.753,0,0,1-5.238,5.2,5.823,5.823,0,0,1-6.095-4.19,15.061,15.061,0,0,0-1.723-2.777,4.11,4.11,0,0,1-1.4-2.789,25.99,25.99,0,0,1,.006-3.732,4.188,4.188,0,0,1,2.222-3.374C368.85,1641.335,369,1641.237,369.326,1641.033Zm1.482-3.615v-.876q0-4.945,0-9.889c0-1.675,0-1.675-1.658-1.781a4.359,4.359,0,1,1,4.54-4.764c.065.6-.074,1.493.255,1.729.436.313,1.241.113,1.887.134.052,0,.1-.006.156,0,.524.061.64-.2.66-.686a8.456,8.456,0,0,1,.277-2.3,4.285,4.285,0,0,1,4.995-2.734,4.36,4.36,0,0,1-.808,8.616c-.506.022-1.013,0-1.509,0v12.393c2.073-1.749,4.192-3.525,6.294-5.32a11.461,11.461,0,0,0,1.322-1.316,16.878,16.878,0,0,0-.861-22.633c-3.86-3.916-8.53-5.7-14.014-4.624a16.67,16.67,0,0,0-13.151,16.988,16.029,16.029,0,0,0,4.857,11.217c2.1,2.029,4.69,3.523,6.547,5.836C370.609,1637.428,370.646,1637.418,370.809,1637.418Zm4.367,6.366c-1.375,0-2.749-.012-4.124,0-1.151.013-1.672.528-1.7,1.659-.017.83-.018,1.66,0,2.49a1.488,1.488,0,0,0,1.636,1.656q4.163.026,8.325,0a1.478,1.478,0,0,0,1.65-1.636c.026-.829.023-1.66,0-2.49-.03-1.189-.532-1.67-1.749-1.681C377.873,1643.774,376.524,1643.783,375.175,1643.783Zm1.419-18.847h-2.815v15.941c.675,0,1.3-.047,1.906.012.732.07.973-.158.967-.928-.036-4.741-.017-9.483-.02-14.224C376.633,1625.484,376.609,1625.232,376.595,1624.936Zm-4.261,27.618a2.827,2.827,0,0,0,2.931,2.841,2.772,2.772,0,0,0,2.716-2.841Zm7.242-30.583c.4,0,.73.006,1.06,0a3.4,3.4,0,0,0,.616-.05,1.431,1.431,0,0,0,1.17-1.511,1.408,1.408,0,0,0-1.3-1.312,1.348,1.348,0,0,0-1.531,1.116A12.154,12.154,0,0,0,379.575,1621.971Zm-8.766-.862c0-1.389-.513-2.039-1.494-2.016a1.374,1.374,0,0,0-1.386,1.441c.011.97.654,1.4,1.967,1.452C370.664,1622.016,370.955,1621.749,370.81,1621.109Z" transform="translate(-317.036 -1589.974)" fill="#12263f"/>
      <path id="Trazado_182394" data-name="Trazado 182394" d="M172.969,1618.836c-2.921-4.792-4.033-9.993-4.708-15.326-.132-1.045.322-1.741,1.175-1.869.9-.134,1.563.411,1.7,1.491a40.834,40.834,0,0,0,2.268,9.909c.606,1.532,1.469,2.964,2.226,4.436.343.668.759,1.3,1.056,1.99.6,1.382-.023,2.311-1.525,2.324q-5.1.042-10.2.057-12.729.033-25.459.052c-1.326,0-1.68-.283-2.042-1.54a21.938,21.938,0,0,0-3.6-7.536c-1.6-2.062-1.8-2.045-4.256-1.278-3.29,1.027-6.6,2-9.933,2.881a5.323,5.323,0,0,1-6.518-3.632,9.1,9.1,0,0,1-.258-5.357c.394-1.527.2-1.913-1.158-2.736-.178-.107-.357-.212-.534-.321a2.339,2.339,0,0,1-1.158-3.226c.179-.5.146-.82-.328-1.088a3.987,3.987,0,0,1-.6-.491,1.917,1.917,0,0,1-.656-2.552c.276-.7.671-1.343,1.012-2.013.752-1.48.59-2.01-.851-2.815-.7-.392-1.418-.762-2.1-1.194-2.306-1.47-2.7-3.359-1.142-5.614,1.032-1.493,2.227-2.881,3.181-4.42,1.461-2.356,2.767-4.806,4.16-7.2a1.089,1.089,0,0,0-.217-1.523c-.344-.315-.674-.646-1.024-.955a4.366,4.366,0,0,1-1.331-5.522,65.964,65.964,0,0,0,3.013-8.98,24.493,24.493,0,0,1,9.61-13.76,30.644,30.644,0,0,1,11.27-4.294,101.254,101.254,0,0,1,13.619-1.977,31.282,31.282,0,0,1,7.754.391,1.451,1.451,0,1,1-.479,2.854c-4.838-.822-9.637-.267-14.4.527a94.984,94.984,0,0,0-10.179,2.189c-7.717,2.178-12.236,7.615-14.456,15.072a58.663,58.663,0,0,1-3.069,9.037,1.619,1.619,0,0,0,.474,2.147c.317.268.627.544.937.82a4.234,4.234,0,0,1,1.078,5.269,59.216,59.216,0,0,1-6.84,11.022c-.048.061-.1.121-.143.184-1.232,1.742-1.435,1.536.631,2.826.461.288.967.5,1.439.773a4.275,4.275,0,0,1,1.918,5.915,12.538,12.538,0,0,1-.715,1.381.528.528,0,0,0,.178.839c.387.26.748.559,1.117.845a1.525,1.525,0,0,1,.41,2.354c-.149.235-.28.481-.4.7.074.1.094.162.133.18,2.7,1.27,3.356,3.614,2.651,6.163a5.806,5.806,0,0,0,.179,3.519,2.535,2.535,0,0,0,3.3,1.8c4.568-1.365,9.134-2.741,13.671-4.205,2.661-.859,5.287-1.84,7.884-2.879a11.541,11.541,0,0,0,2.618-1.651,3.545,3.545,0,0,0,1.4-2.674,1.417,1.417,0,0,1,1.574-1.443,1.436,1.436,0,0,1,1.3,1.634,6.233,6.233,0,0,1-2.329,4.66,18.939,18.939,0,0,1-6.652,3.46c-1.17.4-2.34.8-3.607,1.237.209.281.348.489.507.679a22.432,22.432,0,0,1,4.3,7.867.9.9,0,0,0,1.028.761q15.649-.073,31.3-.1C172.408,1618.891,172.632,1618.861,172.969,1618.836Z" transform="translate(-104.45 -1534.668)" fill="#12263f"/>
      <path id="Trazado_182395" data-name="Trazado 182395" d="M189.049,1606.844c.713-2.158,1.265-4.387,2.172-6.46a17.183,17.183,0,0,1,11.672-10.24,1.506,1.506,0,0,1,1.884.641,1.462,1.462,0,0,1-1.085,2.137,15.387,15.387,0,0,0-5.139,2.51,17.131,17.131,0,0,0-5.844,9.314c-.248.871-.4,1.767-.656,2.637a1.379,1.379,0,0,1-1.615,1.015,1.43,1.43,0,0,1-1.2-1.491Z" transform="translate(-175.874 -1581.429)" fill="#12263f"/>
      <path id="Trazado_182396" data-name="Trazado 182396" d="M575.842,1592.7c-.369-.3-.926-.54-1.082-.937a1.741,1.741,0,0,1,.112-1.488,45.411,45.411,0,0,1,3.317-3.37,1.431,1.431,0,0,1,2,2.03c-1.062,1.13-2.172,2.217-3.294,3.288A4.047,4.047,0,0,1,575.842,1592.7Z" transform="translate(-501.421 -1578.469)"/>
      <path id="Trazado_182397" data-name="Trazado 182397" d="M471.278,1538.453c0,.674.02,1.349,0,2.023a1.505,1.505,0,0,1-1.468,1.592,1.481,1.481,0,0,1-1.443-1.6c-.016-1.374-.017-2.749,0-4.123a1.441,1.441,0,0,1,1.411-1.541,1.481,1.481,0,0,1,1.5,1.55C471.3,1537.052,471.278,1537.753,471.278,1538.453Z" transform="translate(-411.678 -1534.781)"/>
      <path id="Trazado_182398" data-name="Trazado 182398" d="M621.305,1714.843c-.7,0-1.4.019-2.1,0a1.465,1.465,0,0,1-1.491-1.393,1.449,1.449,0,0,1,1.46-1.506q2.177-.057,4.357,0a1.45,1.45,0,1,1-.046,2.9C622.758,1714.861,622.031,1714.843,621.305,1714.843Z" transform="translate(-537.778 -1684.306)"/>
      <path id="Trazado_182399" data-name="Trazado 182399" d="M294.76,1714.847c-.7,0-1.4.02-2.1-.005a1.449,1.449,0,1,1-.019-2.9q2.175-.056,4.353,0a1.4,1.4,0,0,1,1.422,1.519,1.427,1.427,0,0,1-1.481,1.382c-.052,0-.1,0-.155,0H294.76Z" transform="translate(-262.115 -1684.312)" fill="#12263f"/>
      <path id="Trazado_182400" data-name="Trazado 182400" d="M344.081,1585.371a7.581,7.581,0,0,1,1.258.755c.962.9,1.887,1.843,2.811,2.785a1.473,1.473,0,1,1-2.063,2.057q-1.439-1.414-2.85-2.855a1.29,1.29,0,0,1-.36-1.618A6.222,6.222,0,0,1,344.081,1585.371Z" transform="translate(-305.608 -1577.475)"/>
      <path id="Trazado_182401" data-name="Trazado 182401" d="M180.632,1721.612a1.38,1.38,0,0,1,1.351,1.483,1.425,1.425,0,0,1-1.466,1.386,1.459,1.459,0,0,1-1.4-1.541A1.42,1.42,0,0,1,180.632,1721.612Z" transform="translate(-167.483 -1692.497)" fill="#12263f"/>
      <path id="Trazado_182402" data-name="Trazado 182402" d="M386.681,1653.084c-.163,0-.2.01-.209,0-1.857-2.313-4.446-3.807-6.547-5.836a16.029,16.029,0,0,1-4.857-11.217,16.67,16.67,0,0,1,13.151-16.988c5.483-1.081,10.153.708,14.014,4.624a16.878,16.878,0,0,1,.861,22.633,11.461,11.461,0,0,1-1.322,1.316c-2.1,1.8-4.221,3.571-6.294,5.32v-12.393c.5,0,1,.019,1.509,0a4.36,4.36,0,0,0,.808-8.616,4.285,4.285,0,0,0-4.995,2.734,8.456,8.456,0,0,0-.277,2.3c-.02.487-.135.747-.66.686-.051-.006-.1,0-.156,0-.646-.02-1.451.179-1.887-.134-.329-.236-.19-1.128-.255-1.729a4.357,4.357,0,1,0-4.54,4.764c1.657.106,1.658.106,1.658,1.781q0,4.944,0,9.889Z" transform="translate(-332.908 -1605.64)" fill="#ffd400"/>
      <path id="Trazado_182403" data-name="Trazado 182403" d="M446.153,1880.16c1.349,0,2.7-.01,4.046,0,1.218.011,1.72.492,1.749,1.681.021.829.023,1.66,0,2.49a1.478,1.478,0,0,1-1.65,1.636q-4.163.022-8.325,0a1.488,1.488,0,0,1-1.636-1.656c-.019-.83-.018-1.66,0-2.49.023-1.131.544-1.646,1.7-1.659C443.4,1880.148,444.778,1880.16,446.153,1880.16Z" transform="translate(-388.013 -1826.35)" fill="#fff"/>
      <path id="Trazado_182404" data-name="Trazado 182404" d="M471.617,1759.164c.015.3.038.548.038.8,0,4.741-.016,9.483.02,14.224.006.77-.235,1-.967.928-.611-.058-1.232-.012-1.906-.012v-15.941Z" transform="translate(-412.059 -1724.201)" fill="#ffd400"/>
      <path id="Trazado_182405" data-name="Trazado 182405" d="M459.518,1936.5h5.647a2.772,2.772,0,0,1-2.716,2.841A2.827,2.827,0,0,1,459.518,1936.5Z" transform="translate(-404.22 -1873.919)" fill="#fff"/>
      <path id="Trazado_182406" data-name="Trazado 182406" d="M505.88,1724.5a12.161,12.161,0,0,1,.016-1.76,1.348,1.348,0,0,1,1.531-1.116,1.409,1.409,0,0,1,1.3,1.313,1.431,1.431,0,0,1-1.17,1.511,3.4,3.4,0,0,1-.616.05C506.61,1724.509,506.279,1724.5,505.88,1724.5Z" transform="translate(-443.341 -1692.505)" fill="#ffd400"/>
      <path id="Trazado_182407" data-name="Trazado 182407" d="M434.123,1723.659c.146.64-.145.907-.913.877-1.313-.051-1.956-.481-1.967-1.452a1.374,1.374,0,0,1,1.386-1.441C433.61,1721.62,434.118,1722.27,434.123,1723.659Z" transform="translate(-380.349 -1692.523)" fill="#ffd400"/>
    </g>
  </g>
</svg>
