<svg xmlns="http://www.w3.org/2000/svg" width="91.173" height="78.609" viewBox="0 0 91.173 78.609">
  <g id="Grupo_81481" data-name="Grupo 81481" transform="translate(2012.869 -783.527)">
    <path id="Trazado_182423" data-name="Trazado 182423" d="M-2008.444,842.08l-1.89.92a1.654,1.654,0,0,1-2.087-.215,1.6,1.6,0,0,1-.176-2.016q1.966-3.905,3.908-7.823c.132-.265.235-.544.351-.816.5-.752,1.193-1.461.409-2.444a24.217,24.217,0,0,1-1.456-2.341,23.3,23.3,0,0,0-1.356-2.651l-.147-.426,0-.006a37.815,37.815,0,0,1-1.74-7.007,29.511,29.511,0,0,1,5.353-21.169,28.711,28.711,0,0,1,15.165-11.081,29.045,29.045,0,0,1,24.845,3.089,29.08,29.08,0,0,1,11.669,13.614.982.982,0,0,0,1.081.7,42.568,42.568,0,0,1,8.028.468,29.467,29.467,0,0,1,16.442,8.755,29.024,29.024,0,0,1,7.7,14.542A29.188,29.188,0,0,1-1925,845.848a20.87,20.87,0,0,1-1.788,3,.912.912,0,0,0-.06,1.1c1.537,3.02,3.048,6.053,4.564,9.084a8.107,8.107,0,0,1,.47,1.035,1.521,1.521,0,0,1-1.825,1.991,3.806,3.806,0,0,1-.827-.325c-3.058-1.522-6.121-3.034-9.162-4.592a1.385,1.385,0,0,0-1.616.07,28.358,28.358,0,0,1-16.177,4.922,29.443,29.443,0,0,1-22.306-9.867,43.365,43.365,0,0,1-3.642-4.876c-.556-1.294-1.322-2.489-1.8-3.82-.179-.5-.534-.477-.985-.439a29.944,29.944,0,0,1-12.43-1.44,28.641,28.641,0,0,1-6.695-3.292c-.393-.264-.763-.581-1.331-.289C-2003.21,839.454-2005.83,840.761-2008.444,842.08Zm34.393,4.419a1.52,1.52,0,0,0,.368.714,26.218,26.218,0,0,0,20.753,11.726,25.3,25.3,0,0,0,16.685-4.865,2.608,2.608,0,0,1,3.126-.214c1.95,1.058,3.971,1.986,5.962,2.967l.185.02-.08-.156c-.884-2.127-2-4.143-3.041-6.191a2.285,2.285,0,0,1,.2-2.7,24.618,24.618,0,0,0,3.769-7.438,26.292,26.292,0,0,0-.7-18.071,26.315,26.315,0,0,0-12.338-13.646,28,28,0,0,0-14.3-3.094c-.716.02-.725.242-.584.794a29.053,29.053,0,0,1,.869,7.975,33.3,33.3,0,0,1-2.089,10.313c-.139.261-.292.516-.414.785a29.83,29.83,0,0,1-13.942,14.637,26.429,26.429,0,0,1-5.916,2.211c-.31.074-.718.161-.5.627A14.929,14.929,0,0,0-1974.051,846.5Zm-35.062-38.089a7.637,7.637,0,0,0-.3,1.081,28.19,28.19,0,0,0,.059,8.251,26.354,26.354,0,0,0,4.72,11.28,2.2,2.2,0,0,1,.187,2.56,31.217,31.217,0,0,0-1.9,3.946,15.112,15.112,0,0,0-1.4,2.655,9.792,9.792,0,0,0,2.067-1.17,24.22,24.22,0,0,0,4.164-1.979,2.74,2.74,0,0,1,3.271.228,25.863,25.863,0,0,0,22.846,3.723,25.892,25.892,0,0,0,14.511-10.655,22.25,22.25,0,0,0,3.639-8.19c.021-.01.055-.017.059-.032s-.016-.042-.025-.064a3.531,3.531,0,0,0,.292-1.19c.107.02.053-.038.038-.078a5.58,5.58,0,0,0,.269-1.685c-.044-.081-.041-.142.065-.162a3.52,3.52,0,0,0,.082-1.724l.007-.013.249-1.526c.009.072.049.162.021.212-.084.148-.193.047-.188-.04.008-.142-.219-.4.149-.412q-.079-.644-.159-1.288l-.029.028,0-.267a5,5,0,0,0-.171-2.07,22.308,22.308,0,0,0-1.868-6.91,26.326,26.326,0,0,0-15.923-14.746,25.461,25.461,0,0,0-19.488.883c-8.233,3.768-13.307,10.206-15.324,19.043C-2009.229,808.254-2009.273,808.341-2009.113,808.411Z" fill="#12263f"/>
    <path id="Trazado_182424" data-name="Trazado 182424" d="M-1999.679,1122.073c2.614-1.319,5.234-2.627,7.838-3.966.568-.292.938.025,1.331.289a28.641,28.641,0,0,0,6.695,3.292,29.944,29.944,0,0,0,12.43,1.44c.451-.038.806-.06.985.439.477,1.33,1.244,2.526,1.8,3.82a27.629,27.629,0,0,1-16.045-1.4,25.946,25.946,0,0,1-5.769-3.14,1.336,1.336,0,0,0-1.612-.122c-3.161,1.623-6.348,3.193-9.526,4.781-.216.108-.437.2-.846.394C-2001.6,1125.777-2000.4,1124.031-1999.679,1122.073Z" transform="translate(-8.765 -279.993)" fill="#ff0092"/>
    <path id="Trazado_182425" data-name="Trazado 182425" d="M-1999.811,1036.312a23.307,23.307,0,0,1,1.356,2.651A24.225,24.225,0,0,0-1997,1041.3c.784.984.094,1.692-.409,2.444A19.157,19.157,0,0,1-1999.811,1036.312Z" transform="translate(-10.931 -211.617)" fill="#ff0092"/>
    <path id="Trazado_182426" data-name="Trazado 182426" d="M-2000.712,1033.664l0,.005Z" transform="translate(-10.176 -209.4)" fill="#02f0a7"/>
    <path id="Trazado_182427" data-name="Trazado 182427" d="M-1940.593,859.42a3.525,3.525,0,0,1-.291,1.189.552.552,0,0,0-.034.1,22.25,22.25,0,0,1-3.639,8.19,25.892,25.892,0,0,1-14.511,10.655,25.863,25.863,0,0,1-22.846-3.723,2.74,2.74,0,0,0-3.271-.228,24.2,24.2,0,0,1-4.163,1.979c.113-.646-.432-1-.668-1.485a31.217,31.217,0,0,1,1.9-3.946,2.2,2.2,0,0,0-.187-2.56,26.354,26.354,0,0,1-4.72-11.28,28.19,28.19,0,0,1-.059-8.251,7.585,7.585,0,0,1,.3-1.081c.4-.085.414-.475.545-.746a27.445,27.445,0,0,1,11.181-12.238,27.691,27.691,0,0,1,25.776-1.55,27.133,27.133,0,0,1,11.5,9.291,23.33,23.33,0,0,1,3.523,6.664,4.976,4.976,0,0,1,.169,2.067c.008.079.017.16.026.241.053.429.106.858.158,1.285.006.079.013.161.02.243q-.125.763-.249,1.526c.041-.074.057-.069.045.015a.415.415,0,0,1-.052,0,3.516,3.516,0,0,1-.082,1.723l-.066.163a5.542,5.542,0,0,1-.27,1.684C-1940.574,859.324-1940.587,859.351-1940.593,859.42Zm-26.185-.734a4.647,4.647,0,0,0,4.787-4.6,4.665,4.665,0,0,0-4.585-4.815,4.766,4.766,0,0,0-4.827,4.694A4.736,4.736,0,0,0-1966.778,858.686Zm12.7,0a4.757,4.757,0,0,0,4.7-4.808,4.773,4.773,0,0,0-4.748-4.61,4.676,4.676,0,0,0-4.67,4.736A4.666,4.666,0,0,0-1954.073,858.689Zm-20.479-4.649a4.693,4.693,0,0,0-4.639-4.765,4.743,4.743,0,0,0-4.776,4.652,4.736,4.736,0,0,0,4.662,4.76A4.681,4.681,0,0,0-1974.553,854.04Z" transform="translate(-16.336 -40.563)" fill="#ff0092"/>
    <path id="Trazado_182428" data-name="Trazado 182428" d="M-1766.246,1035.966a10.738,10.738,0,0,1-.763,3.549,28.185,28.185,0,0,1-15.81,17.517c-.712.321-1.473.532-2.212.794a14.919,14.919,0,0,1-1.983-3.6c-.221-.466.187-.553.5-.627a26.426,26.426,0,0,0,5.916-2.211,29.83,29.83,0,0,0,13.942-14.637C-1766.538,1036.482-1766.384,1036.227-1766.246,1035.966Z" transform="translate(-189.02 -211.327)" fill="#ff0092"/>
    <path id="Trazado_182429" data-name="Trazado 182429" d="M-1666.265,957.979c-.009-.081-.018-.163-.026-.241,0,.092,0,.181,0,.27Z" transform="translate(-290.133 -145.839)" fill="#f7f9fb"/>
    <path id="Trazado_182430" data-name="Trazado 182430" d="M-1666.2,967.352c-.007-.082-.014-.164-.02-.243-.366.018-.139.273-.147.415-.005.087.1.188.188.04C-1666.15,967.514-1666.19,967.424-1666.2,967.352Z" transform="translate(-290.02 -153.684)" fill="#f7f9fb"/>
    <path id="Trazado_182431" data-name="Trazado 182431" d="M-1667.63,988.794l.066-.163C-1667.671,988.652-1667.675,988.713-1667.63,988.794Z" transform="translate(-288.991 -171.701)" fill="#f7f9fb"/>
    <path id="Trazado_182432" data-name="Trazado 182432" d="M-1671.374,1007.853a.552.552,0,0,1,.034-.1c.009.023.031.048.025.065S-1671.353,1007.843-1671.374,1007.853Z" transform="translate(-285.88 -187.711)" fill="#f7f9fb"/>
    <path id="Trazado_182433" data-name="Trazado 182433" d="M-1669.374,1000.029c.006-.069.018-.1.037-.079C-1669.321,999.99-1669.267,1000.049-1669.374,1000.029Z" transform="translate(-287.554 -181.172)" fill="#f7f9fb"/>
    <path id="Trazado_182434" data-name="Trazado 182434" d="M-1666.588,977.721a.415.415,0,0,0,.052,0c.012-.083,0-.089-.045-.015Z" transform="translate(-289.886 -162.514)" fill="#f7f9fb"/>
    <path id="Trazado_182435" data-name="Trazado 182435" d="M-1486.471,1232.789l.08.156-.185-.02Z" transform="translate(-440.582 -376.096)" fill="#f7f9fb"/>
    <path id="Trazado_182436" data-name="Trazado 182436" d="M-1853.93,947.556a4.736,4.736,0,0,1-4.625-4.719,4.766,4.766,0,0,1,4.827-4.694,4.665,4.665,0,0,1,4.585,4.815A4.647,4.647,0,0,1-1853.93,947.556Zm1.651-4.7a1.625,1.625,0,0,0-1.542-1.574,1.591,1.591,0,0,0-1.544,1.559,1.577,1.577,0,0,0,1.533,1.567A1.6,1.6,0,0,0-1852.279,942.86Z" transform="translate(-129.183 -129.433)" fill="#12263f"/>
    <path id="Trazado_182437" data-name="Trazado 182437" d="M-1776.39,947.56a4.666,4.666,0,0,1-4.715-4.682,4.676,4.676,0,0,1,4.67-4.736,4.773,4.773,0,0,1,4.748,4.61A4.757,4.757,0,0,1-1776.39,947.56Zm-.012-3.141a1.539,1.539,0,0,0,1.521-1.571,1.5,1.5,0,0,0-1.541-1.538,1.591,1.591,0,0,0-1.547,1.555A1.626,1.626,0,0,0-1776.4,944.419Z" transform="translate(-194.019 -129.434)" fill="#12263f"/>
    <path id="Trazado_182438" data-name="Trazado 182438" d="M-1926.3,942.935a4.681,4.681,0,0,1-4.752,4.647,4.736,4.736,0,0,1-4.662-4.76,4.743,4.743,0,0,1,4.776-4.652A4.693,4.693,0,0,1-1926.3,942.935Zm-3.138-.038a1.583,1.583,0,0,0-1.521-1.584,1.616,1.616,0,0,0-1.614,1.5,1.634,1.634,0,0,0,1.573,1.63A1.6,1.6,0,0,0-1929.434,942.9Z" transform="translate(-64.592 -129.458)" fill="#12263f"/>
    <path id="Trazado_182439" data-name="Trazado 182439" d="M-1665.256,1058.712a4.688,4.688,0,0,1,4.68-4.715,4.772,4.772,0,0,1,4.733,4.7,4.755,4.755,0,0,1-4.715,4.709A4.671,4.671,0,0,1-1665.256,1058.712Zm6.234-.044a1.6,1.6,0,0,0-1.58-1.529,1.612,1.612,0,0,0-1.515,1.6,1.591,1.591,0,0,0,1.585,1.524A1.584,1.584,0,0,0-1659.022,1058.667Z" transform="translate(-291.001 -226.421)" fill="#12263f"/>
    <path id="Trazado_182440" data-name="Trazado 182440" d="M-1588.156,1058.563a4.727,4.727,0,0,1,4.826-4.586,4.714,4.714,0,0,1,4.574,4.828,4.709,4.709,0,0,1-4.818,4.581A4.718,4.718,0,0,1-1588.156,1058.563Zm6.263.171a1.62,1.62,0,0,0-1.51-1.613,1.637,1.637,0,0,0-1.611,1.514,1.622,1.622,0,0,0,1.513,1.61A1.61,1.61,0,0,0-1581.894,1058.734Z" transform="translate(-355.542 -226.402)" fill="#12263f"/>
  </g>
</svg>
