<svg xmlns="http://www.w3.org/2000/svg" width="71.746" height="73.719" viewBox="0 0 71.746 73.719">
  <g id="Grupo_81484" data-name="Grupo 81484" transform="translate(112.222 -2373.751)">
    <path id="Trazado_182461" data-name="Trazado 182461" d="M-22.07,2401.733a23.228,23.228,0,0,0,8.645,18.22,30.338,30.338,0,0,0,4.783,3.065c2.072,1.146,2.4,2.072,1.21,4.114a10.363,10.363,0,0,0,1.451,12.721,10.157,10.157,0,0,0,11.336,2.533,10.49,10.49,0,0,0,6.773-9.36c.065-1.527.627-2.355,1.739-2.564a2.1,2.1,0,0,1,2.57,2.231,14.062,14.062,0,0,1-4.269,10.257c-4.223,4.154-9.32,5.55-14.977,3.751-5.979-1.9-9.433-6.182-10.348-12.4a13.363,13.363,0,0,1,.978-7.3c.244-.568.149-.842-.386-1.163a27.577,27.577,0,0,1-12.75-16.563,26.591,26.591,0,0,1,.546-16.729,27.437,27.437,0,0,1,17.928-17.428,26.377,26.377,0,0,1,15.593-.368A27.617,27.617,0,0,1,25.231,2386.9a27.672,27.672,0,0,1,4.315,14.441,2.2,2.2,0,0,1-2.059,2.542c-1.291.065-2.123-.862-2.3-2.344a40.817,40.817,0,0,0-.932-6.25,22.9,22.9,0,0,0-11.861-14.53,22.324,22.324,0,0,0-13.088-2.522,23.03,23.03,0,0,0-17.617,10.845C-20.913,2393.135-21.742,2396.243-22.07,2401.733Z" transform="translate(-70.023)" fill="#12263f"/>
    <path id="Trazado_182462" data-name="Trazado 182462" d="M68.046,2460.253c-2,.008-3.82-.253-5.469.805a5.385,5.385,0,0,0,2.124,9.93c.3.042.61.068.914.109a2.13,2.13,0,0,1,1.952,2.263,2.105,2.105,0,0,1-2.227,1.995,9.307,9.307,0,0,1-7.942-4.245,9.7,9.7,0,0,1,7.455-15.136c1.4-.09,2.812-.015,4.3-.015a10.13,10.13,0,0,0-1.423-6,10.812,10.812,0,0,0-20.172,5.056c-.047,1.287,0,2.576-.027,3.864a2.228,2.228,0,0,1-2.167,2.463A2.192,2.192,0,0,1,43.2,2458.9c-.026-2.942-.154-5.9.96-8.719,2.134-5.4,6.057-8.75,11.764-9.707a14.408,14.408,0,0,1,14.062,5.236,15.062,15.062,0,0,1-1.933,21.334,2.413,2.413,0,0,1-2.275.675,2.158,2.158,0,0,1-.836-3.682c.805-.836,1.605-1.68,2.37-2.553A8.553,8.553,0,0,0,68.046,2460.253Z" transform="translate(-126.804 -54.244)" fill="#12263f"/>
    <path id="Trazado_182463" data-name="Trazado 182463" d="M-92.165,2642.475a21,21,0,0,1-20.057-20.732,2.182,2.182,0,0,1,2.1-2.406,2.183,2.183,0,0,1,2.178,2.344,16.654,16.654,0,0,0,7.132,13.47,16.367,16.367,0,0,0,8.648,3.037c.306.021.613.02.919.043a2.15,2.15,0,0,1,2.178,2.238,2.147,2.147,0,0,1-2.365,2.038C-91.675,2642.5-91.92,2642.485-92.165,2642.475Z" transform="translate(0 -200.388)" fill="#ff0092"/>
    <path id="Trazado_182464" data-name="Trazado 182464" d="M-54.5,2629.146a14.1,14.1,0,0,1-13.418-13.264c-.1-1.768.662-2.85,2.051-2.909,1.356-.057,2.171.893,2.3,2.631a9.452,9.452,0,0,0,6.457,8.667,13.122,13.122,0,0,0,2.415.515c.451.083.921.071,1.365.177a2.1,2.1,0,0,1,1.592,2.274,2.155,2.155,0,0,1-1.932,1.906C-53.949,2629.169-54.226,2629.147-54.5,2629.146Z" transform="translate(-36.141 -195.193)" fill="#ff0092"/>
  </g>
</svg>
