<svg xmlns="http://www.w3.org/2000/svg" xmlns:xlink="http://www.w3.org/1999/xlink" width="82" height="82" viewBox="0 0 82 82">
  <defs>
    <clipPath id="clip-path">
      <rect id="Rectángulo_23397" data-name="Rectángulo 23397" width="82" height="82" transform="translate(263 2654)" fill="#fff" stroke="#707070" stroke-width="1"/>
    </clipPath>
  </defs>
  <g id="Grupo_82190" data-name="Grupo 82190" transform="translate(-263 -2659)">
    <g id="Enmascarar_grupo_108" data-name="Enmascarar grupo 108" transform="translate(0 5)" clip-path="url(#clip-path)">
      <g id="Empathy" transform="translate(260.267 2651.267)">
        <path id="Trazado_182132" data-name="Trazado 182132" d="M83.367,19.133V20.5A1.367,1.367,0,0,1,82,21.867H79.267v-4.1H82A1.367,1.367,0,0,1,83.367,19.133Z" fill="#ffc477"/>
        <path id="Trazado_182133" data-name="Trazado 182133" d="M83.367,12.3v1.367l-4.1,4.1v-4.1L68.333,10.933l-5.467,2.733v4.1l-4.1-4.1V12.3a8.2,8.2,0,0,1,8.2-8.2h8.2A8.2,8.2,0,0,1,83.367,12.3Z" fill="#c0ab91"/>
        <path id="Trazado_182134" data-name="Trazado 182134" d="M80.633,38.267,77.9,49.2H64.233L61.5,38.267l5.467-4.1V28.96a8.147,8.147,0,0,0,8.2,0v5.207Z" fill="#ff0092"/>
        <path id="Trazado_182135" data-name="Trazado 182135" d="M79.267,17.767v4.1a8.2,8.2,0,0,1-16.4,0v-8.2l5.467-2.733,10.933,2.733Z" fill="#ffdaaa"/>
        <path id="Trazado_182136" data-name="Trazado 182136" d="M66.967,77.9v5.467H20.5V77.9a2.742,2.742,0,0,1,2.733-2.733H34.167L43.733,77.9,53.3,75.167H64.233A2.742,2.742,0,0,1,66.967,77.9Z" fill="#214be5"/>
        <path id="Trazado_182137" data-name="Trazado 182137" d="M62.867,17.767v4.1H60.133A1.367,1.367,0,0,1,58.767,20.5V19.133a1.367,1.367,0,0,1,1.367-1.367Z" fill="#ffc477"/>
        <path id="Trazado_182138" data-name="Trazado 182138" d="M60.133,50.567v1.367A2.742,2.742,0,0,1,57.4,54.667H56.033V47.833H57.4A2.742,2.742,0,0,1,60.133,50.567Z" fill="#ffc477"/>
        <path id="Trazado_182139" data-name="Trazado 182139" d="M60.133,41v2.733l-4.1,4.1v-4.1L41,39.633l-9.567,4.1v4.1l-4.1-4.1V41A10.933,10.933,0,0,1,38.267,30.067H49.2A10.933,10.933,0,0,1,60.133,41Z" fill="#c6c5ca"/>
        <path id="Trazado_182140" data-name="Trazado 182140" d="M56.033,43.733V54.667a12.3,12.3,0,0,1-24.6,0V43.733L41,39.633Z" fill="#ffdaaa"/>
        <path id="Trazado_182141" data-name="Trazado 182141" d="M53.3,75.167,43.733,77.9l-9.567-2.733,5.467-4.1V66.256a12.182,12.182,0,0,0,8.2,0v4.811Z" fill="#ffdaaa"/>
        <path id="Trazado_182142" data-name="Trazado 182142" d="M31.433,47.833v6.833H30.067a2.742,2.742,0,0,1-2.733-2.733V50.567a2.742,2.742,0,0,1,2.733-2.733Z" fill="#ffc477"/>
        <path id="Trazado_182143" data-name="Trazado 182143" d="M28.7,19.133V20.5a1.367,1.367,0,0,1-1.367,1.367H24.6v-4.1h2.733A1.367,1.367,0,0,1,28.7,19.133Z" fill="#ffc477"/>
        <path id="Trazado_182144" data-name="Trazado 182144" d="M28.7,12.3v1.367l-4.1,4.1v-4.1L13.667,10.933,8.2,13.667v4.1l-4.1-4.1V12.3a8.2,8.2,0,0,1,8.2-8.2h8.2A8.2,8.2,0,0,1,28.7,12.3Z" fill="#ffeb99"/>
        <path id="Trazado_182145" data-name="Trazado 182145" d="M25.967,38.267,23.233,49.2H9.567L6.833,38.267l5.467-4.1V28.96a8.147,8.147,0,0,0,8.2,0v5.207Z" fill="#00bab5"/>
        <path id="Trazado_182146" data-name="Trazado 182146" d="M24.6,17.767v4.1a8.2,8.2,0,0,1-16.4,0v-8.2l5.467-2.733L24.6,13.667Z" fill="#ffdaaa"/>
        <path id="Trazado_182147" data-name="Trazado 182147" d="M8.2,17.767v4.1H5.467A1.367,1.367,0,0,1,4.1,20.5V19.133a1.367,1.367,0,0,1,1.367-1.367Z" fill="#ffc477"/>
        <path id="Trazado_182148" data-name="Trazado 182148" d="M80.633,38.267,77.9,49.2H75.167L77.9,38.267l-5.467-4.1V29.957a7.913,7.913,0,0,0,2.733-1v5.207Z" fill="#d9007c"/>
        <path id="Trazado_182149" data-name="Trazado 182149" d="M79.267,13.667v8.2a8.179,8.179,0,0,1-4.1,7.093,8,8,0,0,1-4.1,1.107,8.925,8.925,0,0,1-1.367-.109,7.913,7.913,0,0,0,2.733-1,8.179,8.179,0,0,0,4.1-7.093v-8.2l-2.542-.629a.014.014,0,0,0-.014-.014l-6.56-1.64.916-.451,8.378,2.091a.014.014,0,0,1,.014.014Z" fill="#ffc477"/>
        <path id="Trazado_182150" data-name="Trazado 182150" d="M25.967,38.267,23.233,49.2H20.5l2.733-10.933-5.467-4.1V29.957a7.913,7.913,0,0,0,2.733-1v5.207Z" fill="#00ddc2"/>
        <path id="Trazado_182151" data-name="Trazado 182151" d="M24.6,13.667v8.2a8.18,8.18,0,0,1-4.1,7.093,8,8,0,0,1-4.1,1.107,8.926,8.926,0,0,1-1.367-.109,7.913,7.913,0,0,0,2.733-1,8.179,8.179,0,0,0,4.1-7.093v-8.2l-2.542-.629a.014.014,0,0,0-.014-.014l-6.56-1.64.916-.451,8.378,2.091a.014.014,0,0,1,.014.014Z" fill="#ffc477"/>
        <path id="Trazado_182152" data-name="Trazado 182152" d="M66.967,77.9v5.467H64.233V77.9A2.742,2.742,0,0,0,61.5,75.167h2.733A2.742,2.742,0,0,1,66.967,77.9Z" fill="#2488ff"/>
        <path id="Trazado_182153" data-name="Trazado 182153" d="M56.033,43.733V54.667a12.274,12.274,0,0,1-8.2,11.589,12.027,12.027,0,0,1-4.1.711,11.291,11.291,0,0,1-1.367-.082,11.522,11.522,0,0,0,2.733-.629,12.274,12.274,0,0,0,8.2-11.589V43.733L39.934,40.084,41,39.633Z" fill="#ffc477"/>
        <path id="Trazado_182154" data-name="Trazado 182154" d="M53.3,75.167,43.733,77.9l-1.367-.4,8.2-2.337-5.467-4.1V66.885a11.522,11.522,0,0,0,2.733-.629v4.811Z" fill="#ffc477"/>
        <path id="Trazado_182155" data-name="Trazado 182155" d="M84.733,13.667V12.3a9.579,9.579,0,0,0-9.567-9.567h-8.2A9.579,9.579,0,0,0,57.4,12.3v1.367a1.366,1.366,0,0,0,.4.966l1.819,1.819A2.733,2.733,0,0,0,57.4,19.133V20.5a2.733,2.733,0,0,0,2.733,2.733h1.476A9.567,9.567,0,0,0,65.6,29.706v3.777l-4.761,3.571A12.311,12.311,0,0,0,49.2,28.7H38.267a12.311,12.311,0,0,0-11.639,8.354l-4.761-3.571V29.706a9.567,9.567,0,0,0,3.991-6.473h1.476A2.733,2.733,0,0,0,30.067,20.5V19.133a2.733,2.733,0,0,0-2.219-2.681l1.819-1.819a1.367,1.367,0,0,0,.4-.966V12.3A9.579,9.579,0,0,0,20.5,2.733H12.3A9.579,9.579,0,0,0,2.733,12.3v1.367a1.366,1.366,0,0,0,.4.966l1.819,1.819a2.733,2.733,0,0,0-2.219,2.681V20.5a2.733,2.733,0,0,0,2.733,2.733H6.943a9.567,9.567,0,0,0,3.991,6.473v3.777l-4.92,3.69A1.367,1.367,0,0,0,5.508,38.6L8.241,49.531a1.367,1.367,0,0,0,1.326,1.036H23.233a1.367,1.367,0,0,0,1.326-1.036l1.425-5.706a1.367,1.367,0,0,0,.383.875l2.1,2.1a4.1,4.1,0,0,0-2.5,3.772v1.367a4.1,4.1,0,0,0,4.1,4.1h.07a13.694,13.694,0,0,0,8.13,11.151v3.2L33.712,73.8H23.233a4.1,4.1,0,0,0-4.1,4.1v5.467A1.367,1.367,0,0,0,20.5,84.733H66.967a1.367,1.367,0,0,0,1.367-1.367V77.9a4.1,4.1,0,0,0-4.1-4.1H53.755L49.2,70.383v-3.2a13.694,13.694,0,0,0,8.13-11.151h.07a4.1,4.1,0,0,0,4.1-4.1V50.567A4.1,4.1,0,0,0,59,46.795l2.1-2.1a1.367,1.367,0,0,0,.383-.875l1.425,5.706a1.367,1.367,0,0,0,1.326,1.036H77.9a1.367,1.367,0,0,0,1.326-1.036L81.959,38.6a1.367,1.367,0,0,0-.506-1.424l-4.92-3.69V29.706a9.567,9.567,0,0,0,3.991-6.473H82A2.733,2.733,0,0,0,84.733,20.5V19.133a2.733,2.733,0,0,0-2.219-2.681l1.819-1.819a1.367,1.367,0,0,0,.4-.966ZM27.333,20.5H25.967V19.133h1.367ZM5.467,12.3A6.842,6.842,0,0,1,12.3,5.467h8.2A6.842,6.842,0,0,1,27.333,12.3v.8l-1.367,1.367v-.8a1.367,1.367,0,0,0-1.036-1.326L14,9.608a1.353,1.353,0,0,0-.942.1L7.589,12.443a1.367,1.367,0,0,0-.756,1.223v.8L5.467,13.1Zm0,6.833H6.833V20.5H5.467Zm4.1,2.733V14.511l4.259-2.129,9.408,2.352v7.133a6.833,6.833,0,0,1-13.667,0Zm12.6,25.967H10.634l-2.255-9.02L13.12,35.26a1.367,1.367,0,0,0,.547-1.093V31.023a9.467,9.467,0,0,0,5.467,0v3.143a1.367,1.367,0,0,0,.547,1.093l4.741,3.553ZM28.7,41a9.579,9.579,0,0,1,9.567-9.567H49.2A9.579,9.579,0,0,1,58.767,41v2.168L57.4,44.534v-.8a1.367,1.367,0,0,0-1.008-1.319l-15.033-4.1a1.367,1.367,0,0,0-.9.063l-9.567,4.1a1.367,1.367,0,0,0-.828,1.256v.8L28.7,43.168Zm0,10.933V50.567A1.367,1.367,0,0,1,30.067,49.2v4.1A1.367,1.367,0,0,1,28.7,51.933ZM65.6,77.9V82H21.867V77.9a1.367,1.367,0,0,1,1.367-1.367H33.975l9.384,2.681a1.367,1.367,0,0,0,.749,0l9.384-2.681H64.233A1.367,1.367,0,0,1,65.6,77.9ZM47.013,72.16l3.265,2.448-6.545,1.871-6.545-1.871,3.265-2.448A1.367,1.367,0,0,0,41,71.067V68.06a13.667,13.667,0,0,0,5.467,0v3.007A1.367,1.367,0,0,0,47.013,72.16Zm7.653-17.493a10.933,10.933,0,1,1-21.867,0V44.634l8.3-3.553,13.567,3.7Zm4.1-2.733A1.367,1.367,0,0,1,57.4,53.3V49.2a1.367,1.367,0,0,1,1.367,1.367ZM60.133,12.3a6.842,6.842,0,0,1,6.833-6.833h8.2A6.842,6.842,0,0,1,82,12.3v.8l-1.367,1.367v-.8A1.367,1.367,0,0,0,79.6,12.341L68.664,9.608a1.354,1.354,0,0,0-.942.1l-5.467,2.733a1.367,1.367,0,0,0-.756,1.223v.8L60.133,13.1Zm0,6.833H61.5V20.5H60.133ZM74.347,35.26l4.741,3.553-2.255,9.02H65.3l-2.255-9.02,4.741-3.553a1.367,1.367,0,0,0,.547-1.093V31.023a9.467,9.467,0,0,0,5.467,0v3.143a1.367,1.367,0,0,0,.547,1.093ZM77.9,21.867a6.833,6.833,0,1,1-13.667,0V14.511l4.259-2.129L77.9,14.734ZM82,20.5H80.633V19.133H82Z" fill="#12263f"/>
        <path id="Trazado_182156" data-name="Trazado 182156" d="M69.7,53.3h2.733v2.733H69.7Z"/>
        <path id="Trazado_182157" data-name="Trazado 182157" d="M15.033,53.3h2.733v2.733H15.033Z"/>
        <path id="Trazado_182158" data-name="Trazado 182158" d="M27.333,68.333H17.767V58.767H15.033V69.7A1.367,1.367,0,0,0,16.4,71.067H27.333Z"/>
        <path id="Trazado_182159" data-name="Trazado 182159" d="M30.067,68.333H32.8v2.733H30.067Z"/>
        <path id="Trazado_182160" data-name="Trazado 182160" d="M69.7,68.333H60.133v2.733H71.067A1.367,1.367,0,0,0,72.433,69.7V58.767H69.7Z"/>
        <path id="Trazado_182161" data-name="Trazado 182161" d="M54.667,68.333H57.4v2.733H54.667Z"/>
      </g>
    </g>
  </g>
</svg>
