<svg xmlns="http://www.w3.org/2000/svg" xmlns:xlink="http://www.w3.org/1999/xlink" width="82" height="82" viewBox="0 0 82 82">
  <defs>
    <clipPath id="clip-path">
      <rect id="Rectángulo_23398" data-name="Rectángulo 23398" width="82" height="82" transform="translate(1254 2659)" fill="#fff" stroke="#707070" stroke-width="1"/>
    </clipPath>
  </defs>
  <g id="Enmascarar_grupo_112" data-name="Enmascarar grupo 112" transform="translate(-1254 -2659)" clip-path="url(#clip-path)">
    <g id="prototyping" transform="translate(1254 2660.367)">
      <path id="Trazado_182235" data-name="Trazado 182235" d="M80.633,21.867v49.2A6.833,6.833,0,0,1,73.8,77.9H8.2a6.833,6.833,0,0,1-6.833-6.833V15.033H73.8a6.833,6.833,0,0,1,6.833,6.834Zm0,0" fill="#00838f"/>
      <path id="Trazado_182236" data-name="Trazado 182236" d="M76.533,21.867v49.2A6.833,6.833,0,0,1,69.7,77.9H8.2a6.833,6.833,0,0,1-6.833-6.833V15.033H69.7a6.833,6.833,0,0,1,6.834,6.834Zm0,0" fill="#00bab5"/>
      <path id="Trazado_182237" data-name="Trazado 182237" d="M15.033,10.933V65.6a6.833,6.833,0,1,0-13.666,0V10.933a6.833,6.833,0,0,1,13.666,0Zm0,0" fill="#01908c"/>
      <path id="Trazado_182238" data-name="Trazado 182238" d="M75.166,35.533,61.5,45.291H50.567L36.9,35.533l13.667-9.758H61.5Zm0,0" fill="#ffd400"/>
      <path id="Trazado_182239" data-name="Trazado 182239" d="M75.166,35.533V57.4L56.033,71.067V45.291H61.5Zm0,0" fill="#ffb300"/>
      <path id="Trazado_182240" data-name="Trazado 182240" d="M56.033,45.291V71.067L36.9,57.4V35.533l13.667,9.758Zm0,0" fill="#ffb300"/>
      <path id="Trazado_182241" data-name="Trazado 182241" d="M61.5,6.834V12.3H50.567V6.834a5.467,5.467,0,0,1,10.933,0Zm0,0" fill="#ff0092"/>
      <path id="Trazado_182242" data-name="Trazado 182242" d="M50.567,17.767H61.5V49.2H50.567Zm0,0" fill="#ff0092"/>
      <path id="Trazado_182243" data-name="Trazado 182243" d="M61.5,49.2,57.25,62.115a1.366,1.366,0,0,1-2.432,0L50.567,49.2Zm0,0" fill="#ffeb3a"/>
      <path id="Trazado_182244" data-name="Trazado 182244" d="M50.567,12.3H61.5v5.467H50.567Zm0,0" fill="#cfd8dc"/>
      <path id="Trazado_182245" data-name="Trazado 182245" d="M74.145,13.673c-.046,0-.093-.007-.136-.007H62.867V6.834a6.834,6.834,0,1,0-13.667,0v6.833H16.4V10.933a8.2,8.2,0,1,0-16.4,0V71.067a8.208,8.208,0,0,0,8.2,8.2H73.8a8.208,8.208,0,0,0,8.2-8.2v-49.2a8.209,8.209,0,0,0-7.855-8.194ZM56.033,69.387,38.267,56.7V51.5l1.879,1.5a1.367,1.367,0,0,0,1.708-2.135L38.267,48V38.188L49.2,45.995v3.2a1.4,1.4,0,0,0,.068.428l4.244,12.911a1.593,1.593,0,0,0,.077.185,2.733,2.733,0,0,0,4.89,0,1.487,1.487,0,0,0,.076-.185L62.8,49.628a1.4,1.4,0,0,0,.069-.428v-3.2L73.8,38.188V56.7Zm0-43.42A1.366,1.366,0,0,0,57.4,24.6V19.133h2.733v28.7H57.4V30.067a1.367,1.367,0,1,0-2.733,0V47.834H51.933v-28.7h2.733V24.6a1.367,1.367,0,0,0,1.367,1.366Zm3.579,24.6L56.033,61.454,52.454,50.567ZM60.133,16.4h-8.2V13.667h8.2ZM49.2,42.64l-9.948-7.106L49.2,28.427Zm13.667,0V28.427l9.948,7.107ZM56.033,2.733a4.1,4.1,0,0,1,4.1,4.1v4.1h-8.2v-4.1a4.1,4.1,0,0,1,4.1-4.1ZM8.2,5.467a5.466,5.466,0,0,1,5.467,5.467V59.5a8.151,8.151,0,0,0-10.933,0V10.933A5.466,5.466,0,0,1,8.2,5.467Zm71.067,65.6A5.466,5.466,0,0,1,73.8,76.534H8.2a5.466,5.466,0,0,1-5.467-5.467V65.6a5.467,5.467,0,1,1,10.933,0,1.367,1.367,0,0,0,2.733,0V16.4H49.2v8.672l-13.094,9.35c-.018.014-.028.033-.044.046a1.4,1.4,0,0,0-.317.339l-.011.015a1.374,1.374,0,0,0-.163.433c-.008.044-.013.086-.018.137a1.362,1.362,0,0,0-.021.142V45.811L21.867,34.877V23.233a1.367,1.367,0,0,0-2.734,0v12.3a1.368,1.368,0,0,0,.513,1.067L35.533,49.31V57.4a1.368,1.368,0,0,0,.572,1.113L55.239,72.179a1.176,1.176,0,0,0,.126.063c.042.024.081.044.124.063a1.339,1.339,0,0,0,1.215-.063,1.176,1.176,0,0,0,.126-.063L75.963,58.513a1.367,1.367,0,0,0,.57-1.113V35.534a1.47,1.47,0,0,0-.021-.148.847.847,0,0,0-.018-.137,1.379,1.379,0,0,0-.163-.433l-.011-.015A1.374,1.374,0,0,0,76,34.462c-.018-.014-.026-.033-.043-.046L62.867,25.072V16.4H73.8a5.467,5.467,0,0,1,5.467,5.467Zm0,0" fill="#12263f"/>
      <path id="Trazado_182246" data-name="Trazado 182246" d="M25.967,24.6H28.7a1.367,1.367,0,1,0,0-2.733H25.967a1.367,1.367,0,0,0,0,2.733Zm0,0"/>
      <path id="Trazado_182247" data-name="Trazado 182247" d="M34.166,24.6h8.2a1.367,1.367,0,0,0,0-2.733h-8.2a1.367,1.367,0,0,0,0,2.733Zm0,0"/>
      <path id="Trazado_182248" data-name="Trazado 182248" d="M25.967,30.067h8.2a1.367,1.367,0,1,0,0-2.733h-8.2a1.367,1.367,0,0,0,0,2.733Zm0,0"/>
    </g>
  </g>
</svg>
