<svg xmlns="http://www.w3.org/2000/svg" xmlns:xlink="http://www.w3.org/1999/xlink" width="82" height="82" viewBox="0 0 82 82">
  <defs>
    <clipPath id="clip-path">
      <rect id="Rectángulo_23396" data-name="Rectángulo 23396" width="82" height="82" transform="translate(511 2659)" fill="#fff" stroke="#707070" stroke-width="1"/>
    </clipPath>
  </defs>
  <g id="Grupo_82191" data-name="Grupo 82191" transform="translate(-511 -2659)">
    <g id="Enmascarar_grupo_109" data-name="Enmascarar grupo 109" clip-path="url(#clip-path)">
      <g id="concentration" transform="translate(511 2659)">
        <g id="Grupo_81341" data-name="Grupo 81341">
          <path id="Trazado_182162" data-name="Trazado 182162" d="M69.863,65a.48.48,0,0,1-.68,0l-5.542-5.542a.48.48,0,0,0-.68,0L61.483,60.94a.48.48,0,0,1-.817-.283L60.5,59.246h-39l-.167,1.411a.48.48,0,0,1-.817.283l-1.478-1.478a.48.48,0,0,0-.68,0L12.816,65a.48.48,0,0,1-.68,0l-.323-.323a7.107,7.107,0,0,0-.2,1.654V79.2a1.6,1.6,0,0,0,1.6,1.6H68.78a1.6,1.6,0,0,0,1.6-1.6V66.335a7.1,7.1,0,0,0-.2-1.654Z" fill="#eaf9fa"/>
          <path id="Trazado_182163" data-name="Trazado 182163" d="M21.333,60.657a.48.48,0,0,1-.817.283l-1.478-1.478a.48.48,0,0,0-.68,0L12.816,65a.48.48,0,0,1-.68,0l-.323-.323a7.107,7.107,0,0,0-.2,1.654V79.2a1.6,1.6,0,0,0,1.6,1.6h9.522a1.6,1.6,0,0,1-1.6-1.6V66.335a7.089,7.089,0,0,1,7.089-7.089H21.5Z" fill="#d4f2f6"/>
          <g id="Grupo_81334" data-name="Grupo 81334">
            <path id="Trazado_182164" data-name="Trazado 182164" d="M41.6,70.3a.8.8,0,0,1-1.2,0l-1.5-1.7L36.548,80.8h8.9L43.1,68.6Z" fill="#fe646f"/>
          </g>
          <path id="Trazado_182165" data-name="Trazado 182165" d="M41,61.389,36.27,65.6,40.4,70.3a.8.8,0,0,0,1.2,0L45.73,65.6Z" fill="#fb2b3a"/>
          <path id="Trazado_182166" data-name="Trazado 182166" d="M48.358,55.235l-2.721-2.07c-.23.021-.463.034-.7.034H37.062c-.235,0-.468-.012-.7-.034l-2.721,2.07a2.113,2.113,0,0,0-.834,1.682V66.9a.8.8,0,0,0,1.334.6L41,61.389,47.858,67.5a.8.8,0,0,0,1.334-.6V56.916A2.113,2.113,0,0,0,48.358,55.235Z" fill="#d4f2f6"/>
          <g id="Grupo_81335" data-name="Grupo 81335">
            <path id="Trazado_182167" data-name="Trazado 182167" d="M36.548,56.941V53.178c-.062,0-.123-.008-.184-.014l-2.721,2.071a2.113,2.113,0,0,0-.834,1.682V66.9a.8.8,0,0,0,1.334.6l2.694-2.4V57.228Z" fill="#a6e7f0"/>
          </g>
          <path id="Trazado_182168" data-name="Trazado 182168" d="M44.938,53.2H37.062c-.173,0-.344-.008-.513-.02v3.763L41,61.389l4.452-4.448V53.178C45.282,53.19,45.111,53.2,44.938,53.2Z" fill="#ffa78f"/>
          <path id="Trazado_182169" data-name="Trazado 182169" d="M40.585,53.2H37.062c-.173,0-.344-.008-.513-.02v3.763L41,61.389l2.684-2.682-3.1-3.1Z" fill="#f89580"/>
          <path id="Trazado_182170" data-name="Trazado 182170" d="M49.571,23.906v5.451h.269a2.493,2.493,0,0,1,2.493,2.493v3.973h1.679a4.53,4.53,0,0,1,2.146.538v-9.5a5.432,5.432,0,0,0-5.432-5.432H48.974a5.407,5.407,0,0,1,.6,2.475Z" fill="#704444"/>
          <path id="Trazado_182171" data-name="Trazado 182171" d="M29.667,35.822V31.85a2.493,2.493,0,0,1,2.493-2.493h-.519a6.021,6.021,0,0,1-5.8-4.406V36.36a4.528,4.528,0,0,1,2.146-.538Z" fill="#855151"/>
          <g id="Grupo_81336" data-name="Grupo 81336">
            <path id="Trazado_182172" data-name="Trazado 182172" d="M49.571,29.357H31.641A6.021,6.021,0,0,1,25.683,24.2l-.189-1.3a3.87,3.87,0,0,1,3.83-4.426H44.139a5.432,5.432,0,0,1,5.432,5.432v5.451Z" fill="#855151"/>
          </g>
          <g id="Grupo_81337" data-name="Grupo 81337">
            <path id="Trazado_182173" data-name="Trazado 182173" d="M32.421,24.2l-.189-1.3a3.87,3.87,0,0,1,3.83-4.426H29.324a3.87,3.87,0,0,0-3.83,4.426l.189,1.3a6.021,6.021,0,0,0,5.958,5.155H38.38A6.021,6.021,0,0,1,32.421,24.2Z" fill="#704444"/>
          </g>
          <g id="Grupo_81338" data-name="Grupo 81338">
            <path id="Trazado_182174" data-name="Trazado 182174" d="M29.667,45.8V35.822H27.988a4.549,4.549,0,0,0-4.549,4.549v.883A4.549,4.549,0,0,0,27.988,45.8h1.679Z" fill="#ffa78f"/>
            <path id="Trazado_182175" data-name="Trazado 182175" d="M54.012,35.822H52.333V45.8h1.679a4.549,4.549,0,0,0,4.549-4.549v-.883a4.55,4.55,0,0,0-4.55-4.55Z" fill="#ffa78f"/>
          </g>
          <g id="Grupo_81339" data-name="Grupo 81339">
            <path id="Trazado_182176" data-name="Trazado 182176" d="M44.938,53.2H37.062A7.394,7.394,0,0,1,29.667,45.8V31.85a2.493,2.493,0,0,1,2.493-2.493H49.84a2.493,2.493,0,0,1,2.493,2.493V45.8A7.394,7.394,0,0,1,44.938,53.2Z" fill="#ffcebf"/>
          </g>
          <g id="Grupo_81340" data-name="Grupo 81340">
            <path id="Trazado_182177" data-name="Trazado 182177" d="M35.074,45.8V31.85a2.493,2.493,0,0,1,2.493-2.493H32.16a2.493,2.493,0,0,0-2.493,2.493V45.8A7.394,7.394,0,0,0,37.062,53.2h5.407A7.394,7.394,0,0,1,35.074,45.8Z" fill="#ffb09e"/>
          </g>
        </g>
        <g id="Grupo_81350" data-name="Grupo 81350">
          <g id="Grupo_81342" data-name="Grupo 81342">
            <path id="Trazado_182178" data-name="Trazado 182178" d="M67.912,29.281l-6.667,5.255a.48.48,0,0,0,0,.755l6.667,5.255a.48.48,0,0,0,.778-.377V38.077a.48.48,0,0,1,.48-.48h10.7a.48.48,0,0,0,.48-.48V32.71a.48.48,0,0,0-.48-.48H69.17a.48.48,0,0,1-.48-.48V29.658a.48.48,0,0,0-.778-.377Z" fill="#00bab5"/>
          </g>
          <g id="Grupo_81345" data-name="Grupo 81345">
            <g id="Grupo_81343" data-name="Grupo 81343">
              <path id="Trazado_182179" data-name="Trazado 182179" d="M60.667,10.344l-1,8.43a.48.48,0,0,0,.534.534l8.43-1a.48.48,0,0,0,.283-.817l-1.478-1.478a.48.48,0,0,1,0-.68l5.542-5.542a.48.48,0,0,0,0-.68L69.863,6a.48.48,0,0,0-.68,0l-5.542,5.542a.48.48,0,0,1-.68,0L61.484,10.06a.48.48,0,0,0-.817.283Z" fill="#00bab5"/>
            </g>
            <g id="Grupo_81344" data-name="Grupo 81344">
              <path id="Trazado_182180" data-name="Trazado 182180" d="M21.333,10.344l1,8.43a.48.48,0,0,1-.534.534l-8.43-1a.48.48,0,0,1-.283-.817l1.478-1.478a.48.48,0,0,0,0-.68L9.021,9.792a.48.48,0,0,1,0-.68L12.137,6a.48.48,0,0,1,.68,0l5.542,5.542a.48.48,0,0,0,.68,0l1.478-1.478A.48.48,0,0,1,21.333,10.344Z" fill="#00bab5"/>
            </g>
          </g>
          <g id="Grupo_81348" data-name="Grupo 81348">
            <g id="Grupo_81346" data-name="Grupo 81346">
              <path id="Trazado_182181" data-name="Trazado 182181" d="M21.333,60.657l1-8.43a.48.48,0,0,0-.534-.534l-8.43,1a.48.48,0,0,0-.283.817l1.478,1.478a.48.48,0,0,1,0,.68L9.021,61.209a.48.48,0,0,0,0,.68L12.137,65a.48.48,0,0,0,.68,0l5.542-5.542a.48.48,0,0,1,.68,0l1.478,1.478a.48.48,0,0,0,.816-.283Z" fill="#00bab5"/>
            </g>
            <g id="Grupo_81347" data-name="Grupo 81347">
              <path id="Trazado_182182" data-name="Trazado 182182" d="M60.667,60.657l-1-8.43a.48.48,0,0,1,.534-.534l8.43,1a.48.48,0,0,1,.283.817l-1.478,1.478a.48.48,0,0,0,0,.68l5.542,5.542a.48.48,0,0,1,0,.68L69.863,65a.48.48,0,0,1-.68,0l-5.542-5.542a.48.48,0,0,0-.68,0L61.483,60.94a.48.48,0,0,1-.816-.283Z" fill="#00bab5"/>
            </g>
          </g>
          <g id="Grupo_81349" data-name="Grupo 81349">
            <path id="Trazado_182183" data-name="Trazado 182183" d="M14.088,40.545l6.667-5.255a.48.48,0,0,0,0-.755l-6.667-5.255a.48.48,0,0,0-.778.377v2.091a.48.48,0,0,1-.48.48H2.127a.48.48,0,0,0-.48.48v4.407a.48.48,0,0,0,.48.48h10.7a.48.48,0,0,1,.48.48v2.091a.48.48,0,0,0,.778.377Z" fill="#00bab5"/>
          </g>
        </g>
        <g id="Grupo_81352" data-name="Grupo 81352">
          <g id="Grupo_81351" data-name="Grupo 81351">
            <path id="Trazado_182184" data-name="Trazado 182184" d="M35.368,13.643l5.255,6.667a.48.48,0,0,0,.755,0l5.255-6.667a.48.48,0,0,0-.377-.778H44.164a.48.48,0,0,1-.48-.48V1.682a.48.48,0,0,0-.48-.48H38.8a.48.48,0,0,0-.48.48v10.7a.48.48,0,0,1-.48.48H35.745a.48.48,0,0,0-.377.778Z" fill="#00bab5"/>
          </g>
        </g>
        <g id="Grupo_81353" data-name="Grupo 81353">
          <path id="Trazado_182185" data-name="Trazado 182185" d="M43.768,37.888a4.823,4.823,0,0,0,5.683,0,1.2,1.2,0,0,0-1.412-1.944,2.426,2.426,0,0,1-2.859,0,1.2,1.2,0,1,0-1.412,1.944Z" fill="#12263f"/>
          <path id="Trazado_182186" data-name="Trazado 182186" d="M38.232,37.888a1.2,1.2,0,1,0-1.412-1.944,2.426,2.426,0,0,1-2.859,0,1.2,1.2,0,0,0-1.412,1.944,4.823,4.823,0,0,0,5.683,0Z" fill="#12263f"/>
          <path id="Trazado_182187" data-name="Trazado 182187" d="M37.037,41.921a1.2,1.2,0,0,0,.561.861l2.773,1.705a1.2,1.2,0,1,0,1.259-2.046L40.1,41.5l1.775-1.911a1.2,1.2,0,0,0-1.76-1.635l-2.773,2.984a1.2,1.2,0,0,0-.31.98Z" fill="#12263f"/>
          <path id="Trazado_182188" data-name="Trazado 182188" d="M44.223,49.235a2.1,2.1,0,0,0,1.816-1.054l.456-.8a1.2,1.2,0,0,0-2.086-1.192l-.367.641H37.958l-.366-.641a1.2,1.2,0,0,0-2.086,1.192l.456.8a2.1,2.1,0,0,0,1.816,1.054h6.445Z" fill="#12263f"/>
          <path id="Trazado_182189" data-name="Trazado 182189" d="M60.142,20.512a1.7,1.7,0,0,0,.2-.012l8.43-1a1.682,1.682,0,0,0,.991-2.859l-.969-.969,5.032-5.032a1.681,1.681,0,0,0,0-2.378L70.713,5.147a1.682,1.682,0,0,0-2.378,0L63.3,10.18l-.968-.968a1.682,1.682,0,0,0-2.859.991l-1,8.43a1.682,1.682,0,0,0,1.667,1.88Zm1.543-8.552.428.428a1.682,1.682,0,0,0,2.378,0l5.033-5.033,2.1,2.1-5.033,5.033a1.684,1.684,0,0,0,0,2.378l.428.428-6.047.716Z" fill="#12263f"/>
          <path id="Trazado_182190" data-name="Trazado 182190" d="M13.2,15.674l-.968.969a1.682,1.682,0,0,0,.991,2.859l8.43,1a1.732,1.732,0,0,0,.2.012,1.682,1.682,0,0,0,1.667-1.88l-1-8.43a1.682,1.682,0,0,0-2.859-.991l-.969.968L13.666,5.147a1.684,1.684,0,0,0-2.378,0L8.171,8.263a1.684,1.684,0,0,0,0,2.378Zm6.936-5.189h0Zm-7.664-3.13,5.033,5.033a1.681,1.681,0,0,0,2.378,0l.428-.428.716,6.047-6.047-.716.427-.427a1.681,1.681,0,0,0,0-2.378L10.38,9.452Z" fill="#12263f"/>
          <path id="Trazado_182191" data-name="Trazado 182191" d="M79.873,31.028H69.891v-1.37a1.682,1.682,0,0,0-2.723-1.321L60.5,33.592a1.682,1.682,0,0,0,0,2.641l6.667,5.255a1.682,1.682,0,0,0,2.723-1.321V38.8h9.983a1.683,1.683,0,0,0,1.682-1.682V32.71a1.684,1.684,0,0,0-1.682-1.682ZM79.152,36.4H69.17a1.683,1.683,0,0,0-1.682,1.682v.6l-4.782-3.769,4.782-3.769v.6a1.683,1.683,0,0,0,1.682,1.682h9.983Z" fill="#12263f"/>
          <path id="Trazado_182192" data-name="Trazado 182192" d="M4.164,36.4H2.848V33.431H12.83a1.683,1.683,0,0,0,1.682-1.682v-.6l4.782,3.769-4.782,3.769v-.6A1.683,1.683,0,0,0,12.83,36.4H9.77a1.2,1.2,0,0,0,0,2.4h2.34v1.37a1.669,1.669,0,0,0,.948,1.513,1.67,1.67,0,0,0,1.775-.192L21.5,36.234a1.682,1.682,0,0,0,0-2.641l-6.667-5.255a1.682,1.682,0,0,0-2.722,1.321v1.37H2.127A1.683,1.683,0,0,0,.445,32.71v4.407A1.683,1.683,0,0,0,2.127,38.8H4.164a1.2,1.2,0,0,0,0-2.4Z" fill="#12263f"/>
          <path id="Trazado_182193" data-name="Trazado 182193" d="M68.8,55.327l.969-.969a1.682,1.682,0,0,0-.992-2.859l-8.43-1a1.682,1.682,0,0,0-1.868,1.868l.673,5.676H50.392V56.917a3.333,3.333,0,0,0-1.308-2.638l-.758-.577a8.619,8.619,0,0,0,5.122-6.7h.563a5.757,5.757,0,0,0,5.751-5.751v-.883a5.745,5.745,0,0,0-2.4-4.671V32.832a1.2,1.2,0,1,0-2.4,0V34.7a5.764,5.764,0,0,0-.945-.079h-.478V31.85a3.7,3.7,0,0,0-2.762-3.575V23.906a6.633,6.633,0,0,0-.124-1.273h.078a4.236,4.236,0,0,1,4.231,4.231v.363a1.2,1.2,0,1,0,2.4,0v-.363a6.641,6.641,0,0,0-6.633-6.633H49.657a6.645,6.645,0,0,0-4.429-2.865l2.348-2.979a1.682,1.682,0,0,0-1.321-2.722h-1.37V1.682A1.683,1.683,0,0,0,43.2,0H38.8a1.683,1.683,0,0,0-1.682,1.682v9.983h-1.37a1.682,1.682,0,0,0-1.321,2.722L36.7,17.273H29.324a5.071,5.071,0,0,0-5.019,5.8l.189,1.3a7.106,7.106,0,0,0,.147.73V35.7a5.746,5.746,0,0,0-2.4,4.671v.883a5.757,5.757,0,0,0,5.751,5.751h.563a8.62,8.62,0,0,0,5.122,6.7l-.758.577a3.334,3.334,0,0,0-1.307,2.638v1.128H22.852l.672-5.676A1.681,1.681,0,0,0,21.656,50.5l-8.43,1a1.682,1.682,0,0,0-.991,2.859l.968.969L8.171,60.359a1.684,1.684,0,0,0,0,2.378l2.343,2.343a8.234,8.234,0,0,0-.1,1.255V79.2a2.806,2.806,0,0,0,2.8,2.8H68.78a2.806,2.806,0,0,0,2.8-2.8V75.113a1.2,1.2,0,0,0-2.4,0V79.2a.4.4,0,0,1-.4.4H46.443L44.389,68.946l1.444-1.641L47.059,68.4a1.982,1.982,0,0,0,1.324.511,2.015,2.015,0,0,0,.826-.179A1.979,1.979,0,0,0,50.393,66.9V60.447h9.04l.042.351a1.682,1.682,0,0,0,2.859.991l.968-.968,5.033,5.033a1.67,1.67,0,0,0,.845.457c0,.008,0,.016,0,.025v3.173a1.2,1.2,0,0,0,2.4,0V66.335a8.254,8.254,0,0,0-.1-1.255l2.343-2.343a1.682,1.682,0,0,0,0-2.378Zm-15.262-18.3h.478a3.352,3.352,0,0,1,3.348,3.348v.883A3.352,3.352,0,0,1,54.012,44.6h-.478Zm-15.7-22.957a1.683,1.683,0,0,0,1.682-1.682V2.4h2.965v9.983a1.683,1.683,0,0,0,1.682,1.682h.6L41,18.848l-3.769-4.782ZM27.306,20.6a2.667,2.667,0,0,1,2.018-.923h9.269l1.086,1.378a1.682,1.682,0,0,0,2.642,0l1.087-1.378h.731a4.236,4.236,0,0,1,4.231,4.231v4.25H31.641a4.845,4.845,0,0,1-4.769-4.127l-.189-1.3a2.667,2.667,0,0,1,.623-2.13ZM28.466,44.6h-.478a3.352,3.352,0,0,1-3.348-3.348v-.883a3.352,3.352,0,0,1,3.348-3.348h.478Zm0-12.754v2.771h-.478a5.764,5.764,0,0,0-.945.079V28.887a7.3,7.3,0,0,0,1.906,1.141,3.67,3.67,0,0,0-.483,1.822Zm2.4,13.954V31.85a1.293,1.293,0,0,1,1.291-1.292H49.84a1.293,1.293,0,0,1,1.291,1.292V45.8A6.2,6.2,0,0,1,44.938,52H37.061A6.2,6.2,0,0,1,30.869,45.8ZM35.7,57.791l3.551,3.549L34.01,66.01V56.916a.917.917,0,0,1,.36-.726l.977-.744v1.494a1.2,1.2,0,0,0,.352.85Zm2.05-1.348V54.4h6.5v2.044L41,59.691ZM10.38,61.548l5.032-5.032a1.681,1.681,0,0,0,0-2.378l-.428-.428,6.046-.716-.716,6.047-.428-.428a1.684,1.684,0,0,0-2.378,0l-5.033,5.033ZM35.556,79.6H13.22a.4.4,0,0,1-.4-.4V66.335c0-.008,0-.016,0-.025a1.669,1.669,0,0,0,.845-.457L18.7,60.821l.968.968a1.682,1.682,0,0,0,2.859-.991l.042-.351h9.04V66.9A2,2,0,0,0,34.942,68.4l1.226-1.092,1.444,1.64ZM38,79.6l1.617-8.383a2,2,0,0,0,2.759,0L44,79.6ZM41,69.16l-3.039-3.453L41,63l3.039,2.709Zm6.99-3.15-5.241-4.671L46.3,57.791a1.2,1.2,0,0,0,.352-.85V55.447l.977.744a.918.918,0,0,1,.36.726Zm21.533-2.365-5.032-5.032a1.682,1.682,0,0,0-2.378,0l-.428.428-.716-6.046,6.047.716-.428.428a1.684,1.684,0,0,0,0,2.378l5.033,5.033Z" fill="#12263f"/>
        </g>
      </g>
    </g>
  </g>
</svg>
