<?xml version="1.0" encoding="utf-8"?>
<!-- Generator: Adobe Illustrator 26.0.1, SVG Export Plug-In . SVG Version: 6.00 Build 0)  -->
<svg version="1.1" id="Layer_1" xmlns="http://www.w3.org/2000/svg" xmlns:xlink="http://www.w3.org/1999/xlink" x="0px" y="0px"
	 viewBox="0 0 315 77" style="enable-background:new 0 0 315 77;" xml:space="preserve">
<style type="text/css">
	.st0{fill:#00BAB5;}
	.st1{fill:#FFFFFF;}
</style>
<g>
	<g id="Grupo_141258">
		<path id="Rectángulo_35922" class="st0" d="M17.5,0h280c9.7,0,17.5,7.8,17.5,17.5l0,0c0,9.7-7.8,17.5-17.5,17.5h-280
			C7.8,35,0,27.2,0,17.5l0,0C0,7.8,7.8,0,17.5,0z"/>
	</g>
	<g>
		<path class="st1" d="M65.3,16.8c0,0.7-0.1,1.2-0.2,1.6c-0.1,0.4-0.4,0.8-0.8,1.3l-0.9,0.9c-0.5,0.5-0.8,1.1-0.8,1.7
			c0,0.5,0.1,0.9,0.4,1.2c0.3,0.3,0.7,0.4,1.2,0.4c0.5,0,0.9-0.1,1.2-0.4c0.3-0.3,0.4-0.6,0.4-1.1h2c0,1-0.4,1.8-1,2.4
			c-0.7,0.6-1.5,0.9-2.6,0.9c-1.2,0-2-0.3-2.7-0.8c-0.6-0.6-0.9-1.4-0.9-2.4c0-0.9,0.4-1.8,1.3-2.8l0.8-0.8c0.4-0.4,0.7-0.9,0.7-1.6
			l0-0.4H65.3z M65.5,14.2c0,0.3-0.1,0.6-0.3,0.8c-0.2,0.2-0.5,0.3-0.9,0.3c-0.4,0-0.7-0.1-0.9-0.3c-0.2-0.2-0.3-0.5-0.3-0.8
			c0-0.3,0.1-0.6,0.3-0.8c0.2-0.2,0.5-0.3,0.9-0.3c0.4,0,0.7,0.1,0.9,0.3C65.4,13.6,65.5,13.9,65.5,14.2z"/>
		<path class="st1" d="M78.9,18.4c-0.1,1.3-0.6,2.3-1.4,3s-2,1.1-3.3,1.1c-1,0-1.8-0.2-2.6-0.7c-0.7-0.5-1.3-1.1-1.7-2
			c-0.4-0.8-0.6-1.8-0.6-3v-1.1c0-1.2,0.2-2.2,0.6-3c0.4-0.9,1-1.6,1.8-2c0.8-0.5,1.6-0.7,2.6-0.7c1.3,0,2.4,0.4,3.3,1.1
			s1.3,1.8,1.4,3.1h-2.1c-0.1-0.9-0.4-1.5-0.8-1.9c-0.4-0.4-1-0.6-1.8-0.6c-0.9,0-1.6,0.3-2.1,1s-0.7,1.7-0.8,3v1.1
			c0,1.3,0.2,2.3,0.7,3c0.5,0.7,1.2,1,2.1,1c0.8,0,1.5-0.2,1.9-0.6c0.4-0.4,0.7-1,0.8-1.9H78.9z"/>
		<path class="st1" d="M86.1,21.4c-0.6,0.7-1.4,1.1-2.5,1.1c-1,0-1.7-0.3-2.2-0.9s-0.8-1.4-0.8-2.5v-5.9h2v5.9
			c0,1.2,0.5,1.7,1.4,1.7c1,0,1.7-0.4,2-1.1v-6.5h2v9.1h-1.9L86.1,21.4z"/>
		<path class="st1" d="M95.6,22.3c-0.1-0.2-0.2-0.5-0.2-0.8c-0.6,0.7-1.4,1-2.4,1c-0.9,0-1.7-0.3-2.2-0.8c-0.6-0.5-0.9-1.2-0.9-1.9
			c0-1,0.4-1.7,1.1-2.2c0.7-0.5,1.7-0.8,3.1-0.8h1.2v-0.6c0-0.5-0.1-0.8-0.4-1.1c-0.3-0.3-0.7-0.4-1.2-0.4c-0.5,0-0.8,0.1-1.1,0.3
			c-0.3,0.2-0.4,0.5-0.4,0.9h-2c0-0.5,0.2-1,0.5-1.4c0.3-0.4,0.8-0.8,1.3-1s1.2-0.4,1.9-0.4c1.1,0,1.9,0.3,2.5,0.8
			c0.6,0.5,1,1.3,1,2.3v4.1c0,0.8,0.1,1.5,0.3,2v0.1H95.6z M93.3,20.9c0.4,0,0.8-0.1,1.1-0.3c0.4-0.2,0.6-0.5,0.8-0.8v-1.7h-1.1
			c-0.8,0-1.3,0.1-1.7,0.4s-0.6,0.6-0.6,1.1c0,0.4,0.1,0.7,0.4,0.9S92.9,20.9,93.3,20.9z M94.5,9.4h2.3L94.5,12l-1.6,0L94.5,9.4z"/>
		<path class="st1" d="M101.6,22.3h-2V9.4h2V22.3z"/>
		<path class="st1" d="M107.8,22.5c-1.3,0-2.3-0.4-3.1-1.2c-0.8-0.8-1.2-1.9-1.2-3.2v-0.3c0-0.9,0.2-1.7,0.5-2.4
			c0.3-0.7,0.8-1.3,1.5-1.7c0.6-0.4,1.3-0.6,2.1-0.6c1.2,0,2.2,0.4,2.9,1.2c0.7,0.8,1,1.9,1,3.3v0.8h-5.9c0.1,0.7,0.3,1.3,0.8,1.8
			c0.4,0.4,1,0.7,1.7,0.7c0.9,0,1.7-0.4,2.3-1.1l1.1,1c-0.4,0.5-0.8,1-1.5,1.3C109.3,22.3,108.6,22.5,107.8,22.5z M107.6,14.7
			c-0.6,0-1,0.2-1.4,0.6c-0.3,0.4-0.6,0.9-0.7,1.6h3.9v-0.2c0-0.7-0.2-1.2-0.5-1.5S108.1,14.7,107.6,14.7z"/>
		<path class="st1" d="M118.1,19.9c0-0.4-0.1-0.6-0.4-0.8s-0.8-0.4-1.5-0.5c-0.7-0.1-1.3-0.3-1.7-0.6c-1-0.5-1.5-1.2-1.5-2.1
			c0-0.8,0.3-1.4,1-2s1.5-0.8,2.5-0.8c1.1,0,2,0.3,2.6,0.8s1,1.2,1,2.1h-2c0-0.4-0.1-0.7-0.4-1c-0.3-0.3-0.7-0.4-1.2-0.4
			c-0.4,0-0.8,0.1-1.1,0.3c-0.3,0.2-0.4,0.5-0.4,0.8c0,0.3,0.1,0.6,0.4,0.7c0.3,0.2,0.8,0.3,1.6,0.5c0.8,0.2,1.4,0.4,1.9,0.6
			c0.5,0.2,0.8,0.5,1,0.9c0.2,0.3,0.3,0.8,0.3,1.2c0,0.8-0.3,1.5-1,2c-0.7,0.5-1.6,0.8-2.7,0.8c-0.7,0-1.4-0.1-2-0.4
			c-0.6-0.3-1-0.6-1.4-1.1c-0.3-0.5-0.5-1-0.5-1.5h2c0,0.5,0.2,0.9,0.5,1.1s0.8,0.4,1.3,0.4c0.5,0,0.9-0.1,1.2-0.3
			C118,20.5,118.1,20.2,118.1,19.9z"/>
		<path class="st1" d="M131.3,19.9c0-0.4-0.1-0.6-0.4-0.8s-0.8-0.4-1.5-0.5c-0.7-0.1-1.3-0.3-1.7-0.6c-1-0.5-1.5-1.2-1.5-2.1
			c0-0.8,0.3-1.4,1-2s1.5-0.8,2.5-0.8c1.1,0,2,0.3,2.6,0.8s1,1.2,1,2.1h-2c0-0.4-0.1-0.7-0.4-1c-0.3-0.3-0.7-0.4-1.2-0.4
			c-0.4,0-0.8,0.1-1.1,0.3c-0.3,0.2-0.4,0.5-0.4,0.8c0,0.3,0.1,0.6,0.4,0.7s0.8,0.3,1.6,0.5c0.8,0.2,1.4,0.4,1.9,0.6
			c0.5,0.2,0.8,0.5,1,0.9c0.2,0.3,0.3,0.8,0.3,1.2c0,0.8-0.3,1.5-1,2c-0.7,0.5-1.6,0.8-2.7,0.8c-0.7,0-1.4-0.1-2-0.4
			c-0.6-0.3-1-0.6-1.4-1.1s-0.5-1-0.5-1.5h2c0,0.5,0.2,0.9,0.5,1.1s0.8,0.4,1.3,0.4c0.5,0,0.9-0.1,1.2-0.3
			C131.1,20.5,131.3,20.2,131.3,19.9z"/>
		<path class="st1" d="M134.7,17.7c0-0.9,0.2-1.7,0.5-2.4c0.4-0.7,0.8-1.3,1.5-1.6c0.6-0.4,1.4-0.6,2.2-0.6c1.2,0,2.2,0.4,3,1.2
			s1.2,1.8,1.2,3.1l0,0.5c0,0.9-0.2,1.7-0.5,2.4c-0.3,0.7-0.8,1.2-1.5,1.6c-0.6,0.4-1.4,0.6-2.2,0.6c-1.3,0-2.3-0.4-3.1-1.3
			s-1.2-2-1.2-3.4V17.7z M136.7,17.9c0,0.9,0.2,1.7,0.6,2.2c0.4,0.5,0.9,0.8,1.6,0.8s1.2-0.3,1.6-0.8c0.4-0.5,0.6-1.3,0.6-2.4
			c0-0.9-0.2-1.6-0.6-2.2c-0.4-0.5-0.9-0.8-1.6-0.8c-0.7,0-1.2,0.3-1.6,0.8C136.9,16,136.7,16.8,136.7,17.9z"/>
		<path class="st1" d="M146.7,13.3l0.1,1c0.7-0.8,1.6-1.2,2.6-1.2c1.9,0,2.9,1.1,2.9,3.2v6h-2v-5.9c0-0.6-0.1-1-0.4-1.3
			c-0.2-0.3-0.7-0.4-1.2-0.4c-0.8,0-1.4,0.4-1.8,1.1v6.5h-2v-9.1H146.7z"/>
		<path class="st1" d="M163.7,19.9c0-0.4-0.1-0.6-0.4-0.8s-0.8-0.4-1.5-0.5c-0.7-0.1-1.3-0.3-1.7-0.6c-1-0.5-1.5-1.2-1.5-2.1
			c0-0.8,0.3-1.4,1-2c0.7-0.5,1.5-0.8,2.5-0.8c1.1,0,2,0.3,2.6,0.8s1,1.2,1,2.1h-2c0-0.4-0.1-0.7-0.4-1c-0.3-0.3-0.7-0.4-1.2-0.4
			c-0.4,0-0.8,0.1-1.1,0.3c-0.3,0.2-0.4,0.5-0.4,0.8c0,0.3,0.1,0.6,0.4,0.7c0.3,0.2,0.8,0.3,1.6,0.5c0.8,0.2,1.4,0.4,1.9,0.6
			c0.5,0.2,0.8,0.5,1,0.9c0.2,0.3,0.3,0.8,0.3,1.2c0,0.8-0.3,1.5-1,2c-0.7,0.5-1.6,0.8-2.7,0.8c-0.7,0-1.4-0.1-2-0.4s-1-0.6-1.4-1.1
			c-0.3-0.5-0.5-1-0.5-1.5h2c0,0.5,0.2,0.9,0.5,1.1s0.8,0.4,1.3,0.4c0.5,0,0.9-0.1,1.2-0.3C163.6,20.5,163.7,20.2,163.7,19.9z"/>
		<path class="st1" d="M173,21.4c-0.6,0.7-1.4,1.1-2.5,1.1c-1,0-1.7-0.3-2.2-0.9c-0.5-0.6-0.8-1.4-0.8-2.5v-5.9h2v5.9
			c0,1.2,0.5,1.7,1.4,1.7c1,0,1.7-0.4,2-1.1v-6.5h2v9.1h-1.9L173,21.4z"/>
		<path class="st1" d="M182.1,19.9c0-0.4-0.1-0.6-0.4-0.8s-0.8-0.4-1.5-0.5c-0.7-0.1-1.3-0.3-1.7-0.6c-1-0.5-1.5-1.2-1.5-2.1
			c0-0.8,0.3-1.4,1-2c0.7-0.5,1.5-0.8,2.5-0.8c1.1,0,2,0.3,2.6,0.8s1,1.2,1,2.1h-2c0-0.4-0.1-0.7-0.4-1c-0.3-0.3-0.7-0.4-1.2-0.4
			c-0.4,0-0.8,0.1-1.1,0.3c-0.3,0.2-0.4,0.5-0.4,0.8c0,0.3,0.1,0.6,0.4,0.7s0.8,0.3,1.6,0.5c0.8,0.2,1.4,0.4,1.9,0.6
			c0.5,0.2,0.8,0.5,1,0.9c0.2,0.3,0.3,0.8,0.3,1.2c0,0.8-0.3,1.5-1,2c-0.7,0.5-1.6,0.8-2.7,0.8c-0.7,0-1.4-0.1-2-0.4s-1-0.6-1.4-1.1
			c-0.3-0.5-0.5-1-0.5-1.5h2c0,0.5,0.2,0.9,0.5,1.1s0.8,0.4,1.3,0.4c0.5,0,0.9-0.1,1.2-0.3C182,20.5,182.1,20.2,182.1,19.9z"/>
		<path class="st1" d="M189.8,17.7c0-1.4,0.3-2.5,1-3.4c0.6-0.8,1.5-1.3,2.6-1.3c1,0,1.7,0.3,2.3,1V9.4h2v12.9h-1.8l-0.1-0.9
			c-0.6,0.7-1.4,1.1-2.4,1.1c-1.1,0-1.9-0.4-2.6-1.3C190.1,20.4,189.8,19.2,189.8,17.7z M191.8,17.9c0,0.9,0.2,1.6,0.5,2.2
			s0.9,0.8,1.5,0.8c0.8,0,1.4-0.4,1.8-1.1v-3.9c-0.4-0.7-1-1.1-1.8-1.1c-0.7,0-1.2,0.3-1.5,0.8C192,16.1,191.8,16.8,191.8,17.9z"/>
		<path class="st1" d="M199.5,17.7c0-0.9,0.2-1.7,0.5-2.4c0.4-0.7,0.8-1.3,1.5-1.6c0.6-0.4,1.4-0.6,2.2-0.6c1.2,0,2.2,0.4,3,1.2
			s1.2,1.8,1.2,3.1l0,0.5c0,0.9-0.2,1.7-0.5,2.4c-0.3,0.7-0.8,1.2-1.5,1.6c-0.6,0.4-1.4,0.6-2.2,0.6c-1.3,0-2.3-0.4-3.1-1.3
			s-1.2-2-1.2-3.4V17.7z M201.5,17.9c0,0.9,0.2,1.7,0.6,2.2c0.4,0.5,0.9,0.8,1.6,0.8s1.2-0.3,1.6-0.8c0.4-0.5,0.6-1.3,0.6-2.4
			c0-0.9-0.2-1.6-0.6-2.2c-0.4-0.5-0.9-0.8-1.6-0.8c-0.7,0-1.2,0.3-1.6,0.8C201.7,16,201.5,16.8,201.5,17.9z"/>
		<path class="st1" d="M211.8,22.3h-2V9.4h2V22.3z"/>
		<path class="st1" d="M213.7,17.7c0-0.9,0.2-1.7,0.5-2.4c0.4-0.7,0.8-1.3,1.5-1.6c0.6-0.4,1.4-0.6,2.2-0.6c1.2,0,2.2,0.4,3,1.2
			s1.2,1.8,1.2,3.1l0,0.5c0,0.9-0.2,1.7-0.5,2.4s-0.8,1.2-1.5,1.6c-0.6,0.4-1.4,0.6-2.2,0.6c-1.3,0-2.3-0.4-3.1-1.3s-1.2-2-1.2-3.4
			V17.7z M215.7,17.9c0,0.9,0.2,1.7,0.6,2.2c0.4,0.5,0.9,0.8,1.6,0.8s1.2-0.3,1.6-0.8c0.4-0.5,0.6-1.3,0.6-2.4
			c0-0.9-0.2-1.6-0.6-2.2c-0.4-0.5-0.9-0.8-1.6-0.8c-0.7,0-1.2,0.3-1.6,0.8C215.9,16,215.7,16.8,215.7,17.9z"/>
		<path class="st1" d="M228.6,15.1c-0.3,0-0.5-0.1-0.8-0.1c-0.9,0-1.6,0.4-1.9,1.1v6.2h-2v-9.1h1.9l0.1,1c0.5-0.8,1.2-1.2,2-1.2
			c0.3,0,0.5,0,0.7,0.1L228.6,15.1z"/>
		<path class="st1" d="M233.7,22.5c-1.3,0-2.3-0.4-3.1-1.2s-1.2-1.9-1.2-3.2v-0.3c0-0.9,0.2-1.7,0.5-2.4c0.3-0.7,0.8-1.3,1.5-1.7
			s1.3-0.6,2.1-0.6c1.2,0,2.2,0.4,2.9,1.2c0.7,0.8,1,1.9,1,3.3v0.8h-5.9c0.1,0.7,0.3,1.3,0.8,1.8s1,0.7,1.7,0.7
			c0.9,0,1.7-0.4,2.3-1.1l1.1,1c-0.4,0.5-0.8,1-1.5,1.3C235.1,22.3,234.4,22.5,233.7,22.5z M233.4,14.7c-0.6,0-1,0.2-1.4,0.6
			c-0.3,0.4-0.6,0.9-0.7,1.6h3.9v-0.2c0-0.7-0.2-1.2-0.5-1.5C234.5,14.9,234,14.7,233.4,14.7z"/>
		<path class="st1" d="M244,19.9c0-0.4-0.1-0.6-0.4-0.8s-0.8-0.4-1.5-0.5c-0.7-0.1-1.3-0.3-1.7-0.6c-1-0.5-1.5-1.2-1.5-2.1
			c0-0.8,0.3-1.4,1-2c0.7-0.5,1.5-0.8,2.5-0.8c1.1,0,2,0.3,2.6,0.8s1,1.2,1,2.1h-2c0-0.4-0.1-0.7-0.4-1c-0.3-0.3-0.7-0.4-1.2-0.4
			c-0.4,0-0.8,0.1-1.1,0.3c-0.3,0.2-0.4,0.5-0.4,0.8c0,0.3,0.1,0.6,0.4,0.7c0.3,0.2,0.8,0.3,1.6,0.5c0.8,0.2,1.4,0.4,1.9,0.6
			c0.5,0.2,0.8,0.5,1,0.9c0.2,0.3,0.3,0.8,0.3,1.2c0,0.8-0.3,1.5-1,2c-0.7,0.5-1.6,0.8-2.7,0.8c-0.7,0-1.4-0.1-2-0.4
			c-0.6-0.3-1-0.6-1.4-1.1s-0.5-1-0.5-1.5h2c0,0.5,0.2,0.9,0.5,1.1s0.8,0.4,1.3,0.4c0.5,0,0.9-0.1,1.2-0.3
			C243.9,20.5,244,20.2,244,19.9z"/>
		<path class="st1" d="M249.7,18.7c0-0.7,0.1-1.3,0.3-1.8c0.2-0.4,0.5-0.9,1.1-1.5c0.5-0.5,0.9-0.9,1-1.1c0.2-0.3,0.3-0.7,0.3-1.1
			c0-0.5-0.1-0.9-0.4-1.2c-0.3-0.3-0.6-0.4-1.1-0.4c-0.5,0-0.9,0.1-1.2,0.4c-0.3,0.3-0.4,0.6-0.4,1.1h-2c0-1,0.3-1.8,1-2.3
			s1.5-0.9,2.6-0.9c1.1,0,2,0.3,2.6,0.9s0.9,1.4,0.9,2.4c0,0.9-0.4,1.8-1.3,2.7l-1,1c-0.4,0.4-0.6,1-0.6,1.8H249.7z M249.5,21.3
			c0-0.3,0.1-0.6,0.3-0.8c0.2-0.2,0.5-0.3,0.8-0.3c0.4,0,0.6,0.1,0.8,0.3c0.2,0.2,0.3,0.5,0.3,0.8c0,0.3-0.1,0.6-0.3,0.8
			s-0.5,0.3-0.9,0.3s-0.7-0.1-0.9-0.3S249.5,21.7,249.5,21.3z"/>
	</g>
</g>
<g>
	<path id="Rectángulo_35923" class="st0" d="M17.5,42h280c9.7,0,17.5,7.8,17.5,17.5l0,0c0,9.7-7.8,17.5-17.5,17.5h-280
		C7.8,77,0,69.2,0,59.5l0,0C0,49.8,7.8,42,17.5,42z"/>
	<g>
		<path class="st1" d="M41.3,58.7c0,0.7-0.1,1.3-0.2,1.7c-0.2,0.4-0.4,0.9-0.9,1.3l-0.9,0.9c-0.5,0.6-0.8,1.1-0.8,1.8
			c0,0.5,0.1,1,0.4,1.2c0.3,0.3,0.7,0.4,1.2,0.4c0.5,0,0.9-0.1,1.2-0.4c0.3-0.3,0.5-0.7,0.5-1.1h2.1c0,1-0.4,1.8-1.1,2.4
			c-0.7,0.6-1.6,0.9-2.7,0.9c-1.2,0-2.1-0.3-2.8-0.9s-1-1.4-1-2.5c0-1,0.4-1.9,1.3-2.9l0.8-0.8c0.5-0.4,0.7-1,0.8-1.6l0-0.5H41.3z
			 M41.5,56c0,0.3-0.1,0.6-0.3,0.8c-0.2,0.2-0.5,0.3-0.9,0.3s-0.7-0.1-0.9-0.3c-0.2-0.2-0.3-0.5-0.3-0.8c0-0.3,0.1-0.6,0.3-0.8
			c0.2-0.2,0.5-0.3,0.9-0.3s0.7,0.1,0.9,0.3C41.4,55.5,41.5,55.7,41.5,56z"/>
		<path class="st1" d="M55.5,60.4c-0.1,1.4-0.6,2.4-1.5,3.2s-2,1.1-3.5,1.1c-1,0-1.9-0.2-2.7-0.7c-0.8-0.5-1.4-1.2-1.8-2
			c-0.4-0.9-0.6-1.9-0.7-3.1v-1.2c0-1.2,0.2-2.2,0.6-3.2s1-1.6,1.8-2.1c0.8-0.5,1.7-0.7,2.7-0.7c1.4,0,2.5,0.4,3.4,1.1
			c0.9,0.8,1.3,1.8,1.5,3.2h-2.2c-0.1-0.9-0.4-1.6-0.8-2s-1.1-0.6-1.9-0.6c-1,0-1.7,0.3-2.2,1c-0.5,0.7-0.8,1.7-0.8,3.1v1.1
			c0,1.4,0.2,2.4,0.7,3.1c0.5,0.7,1.2,1.1,2.2,1.1c0.9,0,1.5-0.2,2-0.6c0.4-0.4,0.7-1,0.8-1.9H55.5z"/>
		<path class="st1" d="M62.9,63.6c-0.6,0.7-1.5,1.1-2.6,1.1c-1,0-1.8-0.3-2.3-0.9s-0.8-1.5-0.8-2.6v-6.1h2.1v6.1
			c0,1.2,0.5,1.8,1.5,1.8c1,0,1.7-0.4,2.1-1.1v-6.8H65v9.4h-2L62.9,63.6z"/>
		<path class="st1" d="M72.8,64.5c-0.1-0.2-0.2-0.5-0.2-0.9c-0.7,0.7-1.5,1.1-2.5,1.1c-0.9,0-1.7-0.3-2.3-0.8
			c-0.6-0.5-0.9-1.2-0.9-2c0-1,0.4-1.8,1.1-2.3c0.7-0.5,1.8-0.8,3.2-0.8h1.3v-0.6c0-0.5-0.1-0.9-0.4-1.2c-0.3-0.3-0.7-0.4-1.2-0.4
			c-0.5,0-0.9,0.1-1.2,0.4c-0.3,0.2-0.5,0.5-0.5,0.9H67c0-0.5,0.2-1,0.5-1.4c0.3-0.4,0.8-0.8,1.4-1.1c0.6-0.3,1.2-0.4,2-0.4
			c1.1,0,2,0.3,2.6,0.8c0.7,0.6,1,1.3,1,2.3v4.2c0,0.8,0.1,1.5,0.4,2v0.1H72.8z M70.4,63c0.4,0,0.8-0.1,1.2-0.3s0.6-0.5,0.8-0.8
			v-1.8h-1.1c-0.8,0-1.4,0.1-1.8,0.4c-0.4,0.3-0.6,0.7-0.6,1.2c0,0.4,0.1,0.7,0.4,1C69.6,62.9,70,63,70.4,63z M71.6,51.1H74
			l-2.4,2.6l-1.7,0L71.6,51.1z"/>
		<path class="st1" d="M79,64.5h-2.1V51.1H79V64.5z"/>
		<path class="st1" d="M85.5,64.7c-1.3,0-2.4-0.4-3.3-1.3c-0.8-0.8-1.2-2-1.2-3.4v-0.3c0-0.9,0.2-1.8,0.5-2.5
			c0.4-0.7,0.9-1.3,1.5-1.7c0.7-0.4,1.4-0.6,2.2-0.6c1.3,0,2.3,0.4,3,1.2c0.7,0.8,1,2,1,3.5v0.9h-6.2c0.1,0.8,0.3,1.4,0.8,1.8
			c0.5,0.5,1,0.7,1.7,0.7c1,0,1.8-0.4,2.4-1.2l1.1,1.1c-0.4,0.6-0.9,1-1.5,1.3C87,64.5,86.3,64.7,85.5,64.7z M85.2,56.6
			c-0.6,0-1,0.2-1.4,0.6s-0.6,1-0.7,1.7h4v-0.2c0-0.7-0.2-1.2-0.6-1.6C86.3,56.8,85.8,56.6,85.2,56.6z"/>
		<path class="st1" d="M96.2,62c0-0.4-0.2-0.7-0.5-0.9c-0.3-0.2-0.8-0.4-1.5-0.5s-1.3-0.3-1.8-0.6c-1.1-0.5-1.6-1.3-1.6-2.2
			c0-0.8,0.3-1.5,1-2c0.7-0.5,1.6-0.8,2.6-0.8c1.1,0,2,0.3,2.7,0.8c0.7,0.6,1,1.3,1,2.2h-2.1c0-0.4-0.2-0.7-0.5-1s-0.7-0.4-1.2-0.4
			c-0.5,0-0.8,0.1-1.1,0.3c-0.3,0.2-0.4,0.5-0.4,0.9c0,0.3,0.1,0.6,0.4,0.8c0.3,0.2,0.8,0.4,1.7,0.5s1.5,0.4,2,0.7s0.8,0.6,1.1,0.9
			s0.3,0.8,0.3,1.3c0,0.8-0.4,1.5-1.1,2.1c-0.7,0.5-1.6,0.8-2.8,0.8c-0.8,0-1.5-0.1-2.1-0.4s-1.1-0.7-1.4-1.1
			c-0.3-0.5-0.5-1-0.5-1.6h2.1c0,0.5,0.2,0.9,0.6,1.2c0.3,0.3,0.8,0.4,1.4,0.4c0.6,0,1-0.1,1.3-0.3C96,62.6,96.2,62.3,96.2,62z"/>
		<path class="st1" d="M109.8,62c0-0.4-0.2-0.7-0.5-0.9c-0.3-0.2-0.8-0.4-1.5-0.5s-1.3-0.3-1.8-0.6c-1.1-0.5-1.6-1.3-1.6-2.2
			c0-0.8,0.3-1.5,1-2c0.7-0.5,1.6-0.8,2.6-0.8c1.1,0,2,0.3,2.7,0.8c0.7,0.6,1,1.3,1,2.2h-2.1c0-0.4-0.2-0.7-0.5-1s-0.7-0.4-1.2-0.4
			c-0.5,0-0.8,0.1-1.1,0.3c-0.3,0.2-0.4,0.5-0.4,0.9c0,0.3,0.1,0.6,0.4,0.8c0.3,0.2,0.8,0.4,1.7,0.5s1.5,0.4,2,0.7s0.8,0.6,1.1,0.9
			s0.3,0.8,0.3,1.3c0,0.8-0.4,1.5-1.1,2.1c-0.7,0.5-1.6,0.8-2.8,0.8c-0.8,0-1.5-0.1-2.1-0.4s-1.1-0.7-1.4-1.1
			c-0.3-0.5-0.5-1-0.5-1.6h2.1c0,0.5,0.2,0.9,0.6,1.2c0.3,0.3,0.8,0.4,1.4,0.4c0.6,0,1-0.1,1.3-0.3C109.7,62.6,109.8,62.3,109.8,62z
			"/>
		<path class="st1" d="M113.3,59.7c0-0.9,0.2-1.8,0.5-2.5s0.9-1.3,1.5-1.7c0.7-0.4,1.4-0.6,2.3-0.6c1.3,0,2.3,0.4,3.1,1.2
			c0.8,0.8,1.2,1.9,1.3,3.3l0,0.5c0,0.9-0.2,1.8-0.5,2.5c-0.4,0.7-0.9,1.3-1.5,1.7c-0.7,0.4-1.4,0.6-2.3,0.6c-1.3,0-2.4-0.4-3.2-1.3
			s-1.2-2.1-1.2-3.5V59.7z M115.5,59.9c0,1,0.2,1.7,0.6,2.3c0.4,0.5,1,0.8,1.7,0.8c0.7,0,1.3-0.3,1.7-0.8c0.4-0.6,0.6-1.4,0.6-2.4
			c0-1-0.2-1.7-0.6-2.3c-0.4-0.6-1-0.8-1.7-0.8c-0.7,0-1.2,0.3-1.6,0.8C115.7,58,115.5,58.8,115.5,59.9z"/>
		<path class="st1" d="M125.9,55.1l0.1,1.1c0.7-0.8,1.6-1.3,2.7-1.3c2,0,3,1.1,3,3.4v6.2h-2.1v-6.1c0-0.6-0.1-1-0.4-1.3
			c-0.3-0.3-0.7-0.4-1.3-0.4c-0.9,0-1.5,0.4-1.9,1.2v6.7h-2.1v-9.4H125.9z"/>
		<path class="st1" d="M143.5,62c0-0.4-0.2-0.7-0.5-0.9c-0.3-0.2-0.8-0.4-1.5-0.5c-0.7-0.2-1.3-0.3-1.8-0.6
			c-1.1-0.5-1.6-1.3-1.6-2.2c0-0.8,0.3-1.5,1-2s1.6-0.8,2.6-0.8c1.1,0,2,0.3,2.7,0.8c0.7,0.6,1,1.3,1,2.2h-2.1c0-0.4-0.2-0.7-0.5-1
			c-0.3-0.3-0.7-0.4-1.2-0.4c-0.5,0-0.8,0.1-1.1,0.3c-0.3,0.2-0.4,0.5-0.4,0.9c0,0.3,0.1,0.6,0.4,0.8c0.3,0.2,0.8,0.4,1.7,0.5
			s1.5,0.4,2,0.7s0.8,0.6,1.1,0.9c0.2,0.4,0.3,0.8,0.3,1.3c0,0.8-0.4,1.5-1.1,2.1c-0.7,0.5-1.6,0.8-2.8,0.8c-0.8,0-1.5-0.1-2.1-0.4
			s-1.1-0.7-1.4-1.1c-0.3-0.5-0.5-1-0.5-1.6h2.1c0,0.5,0.2,0.9,0.6,1.2c0.3,0.3,0.8,0.4,1.4,0.4c0.6,0,1-0.1,1.3-0.3
			S143.5,62.3,143.5,62z"/>
		<path class="st1" d="M153.2,63.6c-0.6,0.7-1.5,1.1-2.6,1.1c-1,0-1.8-0.3-2.3-0.9s-0.8-1.5-0.8-2.6v-6.1h2.1v6.1
			c0,1.2,0.5,1.8,1.5,1.8c1,0,1.7-0.4,2.1-1.1v-6.8h2.1v9.4h-2L153.2,63.6z"/>
		<path class="st1" d="M162.6,62c0-0.4-0.2-0.7-0.5-0.9c-0.3-0.2-0.8-0.4-1.5-0.5c-0.7-0.2-1.3-0.3-1.8-0.6
			c-1.1-0.5-1.6-1.3-1.6-2.2c0-0.8,0.3-1.5,1-2s1.6-0.8,2.6-0.8c1.1,0,2,0.3,2.7,0.8c0.7,0.6,1,1.3,1,2.2h-2.1c0-0.4-0.2-0.7-0.5-1
			c-0.3-0.3-0.7-0.4-1.2-0.4c-0.5,0-0.8,0.1-1.1,0.3c-0.3,0.2-0.4,0.5-0.4,0.9c0,0.3,0.1,0.6,0.4,0.8c0.3,0.2,0.8,0.4,1.7,0.5
			s1.5,0.4,2,0.7s0.8,0.6,1.1,0.9s0.3,0.8,0.3,1.3c0,0.8-0.4,1.5-1.1,2.1c-0.7,0.5-1.6,0.8-2.8,0.8c-0.8,0-1.5-0.1-2.1-0.4
			s-1.1-0.7-1.4-1.1c-0.3-0.5-0.5-1-0.5-1.6h2.1c0,0.5,0.2,0.9,0.6,1.2c0.3,0.3,0.8,0.4,1.4,0.4c0.6,0,1-0.1,1.3-0.3
			C162.5,62.6,162.6,62.3,162.6,62z"/>
		<path class="st1" d="M173,55.1l0.1,1.1c0.7-0.8,1.6-1.3,2.7-1.3c2,0,3,1.1,3,3.4v6.2h-2.1v-6.1c0-0.6-0.1-1-0.4-1.3
			c-0.3-0.3-0.7-0.4-1.3-0.4c-0.9,0-1.5,0.4-1.9,1.2v6.7H171v-9.4H173z"/>
		<path class="st1" d="M185.1,64.7c-1.3,0-2.4-0.4-3.3-1.3c-0.8-0.8-1.2-2-1.2-3.4v-0.3c0-0.9,0.2-1.8,0.5-2.5
			c0.4-0.7,0.9-1.3,1.5-1.7s1.4-0.6,2.2-0.6c1.3,0,2.3,0.4,3,1.2s1,2,1,3.5v0.9h-6.2c0.1,0.8,0.3,1.4,0.8,1.8c0.5,0.5,1,0.7,1.7,0.7
			c1,0,1.8-0.4,2.4-1.2l1.1,1.1c-0.4,0.6-0.9,1-1.5,1.3S185.8,64.7,185.1,64.7z M184.8,56.6c-0.6,0-1,0.2-1.4,0.6s-0.6,1-0.7,1.7h4
			v-0.2c0-0.7-0.2-1.2-0.6-1.6C185.8,56.8,185.4,56.6,184.8,56.6z"/>
		<path class="st1" d="M194.3,63c0.5,0,1-0.2,1.3-0.5c0.3-0.3,0.5-0.7,0.6-1.1h2c0,0.6-0.2,1.1-0.5,1.6s-0.8,0.9-1.4,1.2
			c-0.6,0.3-1.2,0.4-1.9,0.4c-1.3,0-2.4-0.4-3.1-1.3c-0.8-0.9-1.2-2-1.2-3.5v-0.2c0-1.4,0.4-2.6,1.1-3.4s1.8-1.3,3.1-1.3
			c1.1,0,2,0.3,2.7,1c0.7,0.7,1.1,1.5,1.1,2.6h-2c0-0.5-0.2-1-0.6-1.3c-0.3-0.3-0.8-0.5-1.3-0.5c-0.7,0-1.2,0.2-1.6,0.7
			s-0.6,1.2-0.6,2.3V60c0,1,0.2,1.8,0.6,2.3C193.1,62.7,193.7,63,194.3,63z"/>
		<path class="st1" d="M204,64.7c-1.3,0-2.4-0.4-3.3-1.3c-0.8-0.8-1.2-2-1.2-3.4v-0.3c0-0.9,0.2-1.8,0.5-2.5
			c0.4-0.7,0.9-1.3,1.5-1.7c0.7-0.4,1.4-0.6,2.2-0.6c1.3,0,2.3,0.4,3,1.2s1,2,1,3.5v0.9h-6.2c0.1,0.8,0.3,1.4,0.8,1.8
			c0.5,0.5,1,0.7,1.7,0.7c1,0,1.8-0.4,2.4-1.2l1.1,1.1c-0.4,0.6-0.9,1-1.5,1.3C205.4,64.5,204.7,64.7,204,64.7z M203.7,56.6
			c-0.6,0-1,0.2-1.4,0.6s-0.6,1-0.7,1.7h4v-0.2c0-0.7-0.2-1.2-0.6-1.6S204.3,56.6,203.7,56.6z"/>
		<path class="st1" d="M214.7,62c0-0.4-0.2-0.7-0.5-0.9c-0.3-0.2-0.8-0.4-1.5-0.5c-0.7-0.2-1.3-0.3-1.8-0.6
			c-1.1-0.5-1.6-1.3-1.6-2.2c0-0.8,0.3-1.5,1-2s1.6-0.8,2.6-0.8c1.1,0,2,0.3,2.7,0.8c0.7,0.6,1,1.3,1,2.2h-2.1c0-0.4-0.2-0.7-0.5-1
			c-0.3-0.3-0.7-0.4-1.2-0.4c-0.5,0-0.8,0.1-1.1,0.3c-0.3,0.2-0.4,0.5-0.4,0.9c0,0.3,0.1,0.6,0.4,0.8c0.3,0.2,0.8,0.4,1.7,0.5
			s1.5,0.4,2,0.7s0.8,0.6,1.1,0.9s0.3,0.8,0.3,1.3c0,0.8-0.4,1.5-1.1,2.1c-0.7,0.5-1.6,0.8-2.8,0.8c-0.8,0-1.5-0.1-2.1-0.4
			s-1.1-0.7-1.4-1.1c-0.3-0.5-0.5-1-0.5-1.6h2.1c0,0.5,0.2,0.9,0.6,1.2c0.3,0.3,0.8,0.4,1.4,0.4c0.6,0,1-0.1,1.3-0.3
			S214.7,62.3,214.7,62z"/>
		<path class="st1" d="M218.6,52.6c0-0.3,0.1-0.6,0.3-0.8c0.2-0.2,0.5-0.3,0.9-0.3c0.4,0,0.7,0.1,0.9,0.3c0.2,0.2,0.3,0.5,0.3,0.8
			c0,0.3-0.1,0.6-0.3,0.8c-0.2,0.2-0.5,0.3-0.9,0.3c-0.4,0-0.7-0.1-0.9-0.3C218.7,53.2,218.6,53,218.6,52.6z M220.8,64.5h-2.1v-9.4
			h2.1V64.5z"/>
		<path class="st1" d="M222.7,59.7c0-1.5,0.3-2.6,1-3.5s1.6-1.3,2.7-1.3c1,0,1.8,0.3,2.4,1v-4.8h2.1v13.4h-1.9l-0.1-1
			c-0.6,0.8-1.5,1.1-2.5,1.1c-1.1,0-2-0.4-2.7-1.3S222.7,61.3,222.7,59.7z M224.9,59.9c0,1,0.2,1.7,0.6,2.2c0.4,0.5,0.9,0.8,1.6,0.8
			c0.9,0,1.5-0.4,1.9-1.2v-4c-0.4-0.8-1-1.1-1.9-1.1c-0.7,0-1.2,0.3-1.6,0.8C225,58,224.9,58.8,224.9,59.9z"/>
		<path class="st1" d="M238.8,64.5c-0.1-0.2-0.2-0.5-0.2-0.9c-0.7,0.7-1.5,1.1-2.5,1.1c-0.9,0-1.7-0.3-2.3-0.8
			c-0.6-0.5-0.9-1.2-0.9-2c0-1,0.4-1.8,1.1-2.3c0.7-0.5,1.8-0.8,3.2-0.8h1.3v-0.6c0-0.5-0.1-0.9-0.4-1.2c-0.3-0.3-0.7-0.4-1.2-0.4
			c-0.5,0-0.9,0.1-1.2,0.4s-0.5,0.5-0.5,0.9h-2.1c0-0.5,0.2-1,0.5-1.4c0.3-0.4,0.8-0.8,1.4-1.1c0.6-0.3,1.2-0.4,2-0.4
			c1.1,0,2,0.3,2.6,0.8c0.7,0.6,1,1.3,1,2.3v4.2c0,0.8,0.1,1.5,0.4,2v0.1H238.8z M236.5,63c0.4,0,0.8-0.1,1.2-0.3
			c0.4-0.2,0.6-0.5,0.8-0.8v-1.8h-1.1c-0.8,0-1.4,0.1-1.8,0.4s-0.6,0.7-0.6,1.2c0,0.4,0.1,0.7,0.4,1C235.7,62.9,236,63,236.5,63z"/>
		<path class="st1" d="M242.4,59.7c0-1.5,0.3-2.6,1-3.5s1.6-1.3,2.7-1.3c1,0,1.8,0.3,2.4,1v-4.8h2.1v13.4h-1.9l-0.1-1
			c-0.6,0.8-1.5,1.1-2.5,1.1c-1.1,0-2-0.4-2.7-1.3S242.4,61.3,242.4,59.7z M244.6,59.9c0,1,0.2,1.7,0.6,2.2c0.4,0.5,0.9,0.8,1.6,0.8
			c0.9,0,1.5-0.4,1.9-1.2v-4c-0.4-0.8-1-1.1-1.9-1.1c-0.7,0-1.2,0.3-1.6,0.8C244.7,58,244.6,58.8,244.6,59.9z"/>
		<path class="st1" d="M257.1,64.7c-1.3,0-2.4-0.4-3.3-1.3c-0.8-0.8-1.2-2-1.2-3.4v-0.3c0-0.9,0.2-1.8,0.5-2.5
			c0.4-0.7,0.9-1.3,1.5-1.7s1.4-0.6,2.2-0.6c1.3,0,2.3,0.4,3,1.2c0.7,0.8,1,2,1,3.5v0.9h-6.2c0.1,0.8,0.3,1.4,0.8,1.8
			c0.5,0.5,1,0.7,1.7,0.7c1,0,1.8-0.4,2.4-1.2l1.1,1.1c-0.4,0.6-0.9,1-1.5,1.3S257.8,64.7,257.1,64.7z M256.8,56.6
			c-0.6,0-1,0.2-1.4,0.6s-0.6,1-0.7,1.7h4v-0.2c0-0.7-0.2-1.2-0.6-1.6S257.4,56.6,256.8,56.6z"/>
		<path class="st1" d="M267.8,62c0-0.4-0.2-0.7-0.5-0.9c-0.3-0.2-0.8-0.4-1.5-0.5s-1.3-0.3-1.8-0.6c-1.1-0.5-1.6-1.3-1.6-2.2
			c0-0.8,0.3-1.5,1-2s1.6-0.8,2.6-0.8c1.1,0,2,0.3,2.7,0.8c0.7,0.6,1,1.3,1,2.2h-2.1c0-0.4-0.2-0.7-0.5-1c-0.3-0.3-0.7-0.4-1.2-0.4
			c-0.5,0-0.8,0.1-1.1,0.3c-0.3,0.2-0.4,0.5-0.4,0.9c0,0.3,0.1,0.6,0.4,0.8s0.8,0.4,1.7,0.5c0.8,0.2,1.5,0.4,2,0.7
			c0.5,0.3,0.8,0.6,1.1,0.9s0.3,0.8,0.3,1.3c0,0.8-0.4,1.5-1.1,2.1c-0.7,0.5-1.6,0.8-2.8,0.8c-0.8,0-1.5-0.1-2.1-0.4
			c-0.6-0.3-1.1-0.7-1.4-1.1c-0.3-0.5-0.5-1-0.5-1.6h2.1c0,0.5,0.2,0.9,0.6,1.2c0.3,0.3,0.8,0.4,1.4,0.4c0.6,0,1-0.1,1.3-0.3
			C267.6,62.6,267.8,62.3,267.8,62z"/>
		<path class="st1" d="M273.6,60.8c0-0.8,0.1-1.4,0.3-1.8c0.2-0.5,0.6-1,1.1-1.5c0.6-0.5,0.9-0.9,1.1-1.2c0.2-0.4,0.3-0.7,0.3-1.1
			c0-0.5-0.1-1-0.4-1.2c-0.3-0.3-0.7-0.4-1.2-0.4c-0.5,0-0.9,0.1-1.2,0.4c-0.3,0.3-0.5,0.7-0.5,1.1h-2.1c0-1,0.4-1.8,1-2.4
			s1.6-0.9,2.7-0.9c1.2,0,2.1,0.3,2.7,0.9c0.7,0.6,1,1.4,1,2.5c0,0.9-0.4,1.9-1.3,2.8l-1.1,1.1c-0.4,0.4-0.6,1.1-0.6,1.9H273.6z
			 M273.5,63.5c0-0.3,0.1-0.6,0.3-0.8c0.2-0.2,0.5-0.3,0.9-0.3c0.4,0,0.7,0.1,0.9,0.3c0.2,0.2,0.3,0.5,0.3,0.8
			c0,0.3-0.1,0.6-0.3,0.8c-0.2,0.2-0.5,0.3-0.9,0.3c-0.4,0-0.7-0.1-0.9-0.3C273.6,64.1,273.5,63.8,273.5,63.5z"/>
	</g>
</g>
</svg>
