<svg xmlns="http://www.w3.org/2000/svg" xmlns:xlink="http://www.w3.org/1999/xlink" width="82" height="82" viewBox="0 0 82 82">
  <defs>
    <clipPath id="clip-path">
      <rect id="Rectángulo_23394" data-name="Rectángulo 23394" width="82" height="82" transform="translate(1006 2659)" fill="#fff" stroke="#707070" stroke-width="1"/>
    </clipPath>
  </defs>
  <g id="Enmascarar_grupo_111" data-name="Enmascarar grupo 111" transform="translate(-1006 -2659)" clip-path="url(#clip-path)">
    <g id="job-interview" transform="translate(1006 2659)">
      <g id="Grupo_81395" data-name="Grupo 81395">
        <g id="Grupo_81378" data-name="Grupo 81378">
          <path id="Trazado_182213" data-name="Trazado 182213" d="M67.425,17.935a2.588,2.588,0,0,0-2.588-2.588H55.919A5.956,5.956,0,0,0,49.963,21.3v6.613H70.974V21.4a2.588,2.588,0,0,0-2.588-2.588H68.3a.874.874,0,0,1-.874-.874Z" fill="#efc984"/>
          <path id="Trazado_182214" data-name="Trazado 182214" d="M75.649,46.4l-8.514-2.5H53.808l-8.517,2.5a7.169,7.169,0,0,0-5.15,6.879v13.6H80.8V53.278A7.169,7.169,0,0,0,75.649,46.4Z" fill="#00bab5"/>
          <g id="Grupo_81366" data-name="Grupo 81366">
            <path id="Trazado_182215" data-name="Trazado 182215" d="M75.649,46.4l-8.514-2.5H57.058l-.007,2.453,8.514,2.5a7.169,7.169,0,0,1,5.149,6.878V66.883H80.8V53.278A7.169,7.169,0,0,0,75.649,46.4Z" fill="#01a6a1"/>
          </g>
          <path id="Trazado_182216" data-name="Trazado 182216" d="M65.287,66.884,62.159,52.937H58.771L55.643,66.884Z" fill="#dd636e"/>
          <g id="Grupo_81376" data-name="Grupo 81376">
            <g id="Grupo_81373" data-name="Grupo 81373">
              <g id="Grupo_81372" data-name="Grupo 81372">
                <g id="Grupo_81371" data-name="Grupo 81371">
                  <g id="Grupo_81370" data-name="Grupo 81370">
                    <g id="Grupo_81369" data-name="Grupo 81369">
                      <g id="Grupo_81368" data-name="Grupo 81368">
                        <g id="Grupo_81367" data-name="Grupo 81367">
                          <path id="Trazado_182217" data-name="Trazado 182217" d="M65.146,46.253V38.734H55.791v7.519c0,2.583,4.678,2.813,4.678,2.813S65.146,48.836,65.146,46.253Z" fill="#ffddce"/>
                        </g>
                      </g>
                    </g>
                  </g>
                </g>
              </g>
            </g>
            <path id="Trazado_182218" data-name="Trazado 182218" d="M70.974,27.048H69.186a1.8,1.8,0,0,1-1.8-1.8v-.985a1.9,1.9,0,0,0-2.5-1.8,14.08,14.08,0,0,1-8.835,0h0a1.9,1.9,0,0,0-2.5,1.8v.986a1.8,1.8,0,0,1-1.8,1.8H49.963v2.945a1.363,1.363,0,0,0,1.362,1.362.448.448,0,0,1,.446.423,8.715,8.715,0,0,0,17.395,0,.448.448,0,0,1,.446-.423,1.363,1.363,0,0,0,1.362-1.362Z" fill="#ffddce"/>
            <g id="Grupo_81374" data-name="Grupo 81374">
              <path id="Trazado_182219" data-name="Trazado 182219" d="M68.386,18.809H68.3a.874.874,0,0,1-.874-.874,2.588,2.588,0,0,0-2.588-2.588h-4V27.915H70.974V21.4a2.588,2.588,0,0,0-2.588-2.588Z" fill="#eabc6b"/>
            </g>
            <g id="Grupo_81375" data-name="Grupo 81375">
              <path id="Trazado_182220" data-name="Trazado 182220" d="M69.186,27.048a1.8,1.8,0,0,1-1.8-1.8v-.985a1.9,1.9,0,0,0-2.5-1.8,14.076,14.076,0,0,1-4.046.7V32.8a8.519,8.519,0,0,1-3.143,6.69,8.716,8.716,0,0,0,11.467-7.709.448.448,0,0,1,.446-.423,1.363,1.363,0,0,0,1.362-1.362V27.048Z" fill="#ffcbbe"/>
            </g>
          </g>
          <g id="Grupo_81377" data-name="Grupo 81377">
            <path id="Trazado_182221" data-name="Trazado 182221" d="M53.967,43.4l-1.332.6a1.191,1.191,0,0,0-.355,1.928l3.689,3.7a1.274,1.274,0,0,0,1.706.065l2.893-2.417-4.932-3.686a1.656,1.656,0,0,0-1.669-.184Z" fill="#01a6a1"/>
            <path id="Trazado_182222" data-name="Trazado 182222" d="M65.3,43.609l-4.73,3.662L63.287,49.6A1.274,1.274,0,0,0,65,49.547l3.691-3.595a1.191,1.191,0,0,0-.346-1.941l-1.358-.605a1.655,1.655,0,0,0-1.687.2Z" fill="#01a6a1"/>
          </g>
        </g>
        <path id="Trazado_182223" data-name="Trazado 182223" d="M77.474,80.724H20.126V63.8H80.8V77.4A3.325,3.325,0,0,1,77.474,80.724Z" fill="#ffd400"/>
        <path id="Trazado_182224" data-name="Trazado 182224" d="M70.653,63.8V78.971A1.752,1.752,0,0,1,68.9,80.724h8.573A3.325,3.325,0,0,0,80.8,77.4V63.8Z" fill="#e4be00"/>
        <g id="Grupo_81393" data-name="Grupo 81393">
          <g id="Grupo_81392" data-name="Grupo 81392">
            <g id="Grupo_81391" data-name="Grupo 81391">
              <g id="Grupo_81390" data-name="Grupo 81390">
                <g id="Grupo_81389" data-name="Grupo 81389">
                  <g id="Grupo_81388" data-name="Grupo 81388">
                    <g id="Grupo_81387" data-name="Grupo 81387">
                      <g id="Grupo_81386" data-name="Grupo 81386">
                        <g id="Grupo_81385" data-name="Grupo 81385">
                          <g id="Grupo_81384" data-name="Grupo 81384">
                            <g id="Grupo_81383" data-name="Grupo 81383">
                              <g id="Grupo_81382" data-name="Grupo 81382">
                                <g id="Grupo_81381" data-name="Grupo 81381">
                                  <g id="Grupo_81380" data-name="Grupo 81380">
                                    <g id="Grupo_81379" data-name="Grupo 81379">
                                      <path id="Trazado_182225" data-name="Trazado 182225" d="M25.518,59.3V51.987h-9.1V59.3c0,2.512,4.549,2.736,4.549,2.736S25.518,61.811,25.518,59.3Z" fill="#ffddce"/>
                                    </g>
                                  </g>
                                </g>
                              </g>
                            </g>
                          </g>
                        </g>
                      </g>
                    </g>
                  </g>
                </g>
              </g>
            </g>
          </g>
          <path id="Trazado_182226" data-name="Trazado 182226" d="M33.977,45.351a21.33,21.33,0,0,1-.9-6.118v-.005a12.108,12.108,0,0,0-24.216,0v.005a21.33,21.33,0,0,1-.9,6.118,12.969,12.969,0,0,0-.546,3.721,5.35,5.35,0,0,0,3.6,5.056,30.357,30.357,0,0,0,19.913,0,5.351,5.351,0,0,0,3.6-5.056A12.974,12.974,0,0,0,33.977,45.351Z" fill="#407093"/>
          <path id="Trazado_182227" data-name="Trazado 182227" d="M33.977,45.351a21.331,21.331,0,0,1-.9-6.118v-.005A12.107,12.107,0,0,0,15.9,28.235a12.107,12.107,0,0,1,7.042,10.993v.005a21.33,21.33,0,0,0,.9,6.118,12.969,12.969,0,0,1,.546,3.721,5.35,5.35,0,0,1-3.6,5.056A30.345,30.345,0,0,1,15.9,55.381a30.358,30.358,0,0,0,15.023-1.253,5.351,5.351,0,0,0,3.6-5.056,12.968,12.968,0,0,0-.546-3.721Z" fill="#365e7d"/>
        </g>
        <path id="Trazado_182228" data-name="Trazado 182228" d="M10.226,1.2h30.99a3.524,3.524,0,0,1,3.524,3.524v13.3a3.524,3.524,0,0,1-2.793,3.447.508.508,0,0,0-.4.5v4.562a.622.622,0,0,1-1.061.44L35.213,21.7a.514.514,0,0,0-.363-.15H10.226A3.524,3.524,0,0,1,6.7,18.023V4.727A3.524,3.524,0,0,1,10.226,1.2Z" fill="#214be5" opacity="0.45"/>
        <path id="Trazado_182229" data-name="Trazado 182229" d="M41.215,1.2H31a3.524,3.524,0,0,1,3.524,3.524v13.3A3.524,3.524,0,0,1,31.73,21.47a.487.487,0,0,0-.175.077h3.3a.514.514,0,0,1,.363.15l5.275,5.275a.622.622,0,0,0,1.061-.44V21.969a.508.508,0,0,1,.4-.5,3.525,3.525,0,0,0,2.793-3.447V4.727A3.524,3.524,0,0,0,41.215,1.2Z" fill="#214be5" opacity="0.33"/>
        <path id="Trazado_182230" data-name="Trazado 182230" d="M35.733,59.442,25.518,57.5a4.9,4.9,0,0,1-9.087,0l-.011-.027L6.209,59.442A6.971,6.971,0,0,0,1.2,66.132v11.34A3.325,3.325,0,0,0,4.533,80.8l34.7-.07a1.512,1.512,0,0,0,1.509-1.512V66.131a6.972,6.972,0,0,0-5.008-6.689Z" fill="#ff0092"/>
        <path id="Trazado_182231" data-name="Trazado 182231" d="M39.24,80.736a1.512,1.512,0,0,0,1.5-1.512V66.131a6.972,6.972,0,0,0-5.008-6.689L25.518,57.5A4.821,4.821,0,0,1,21,60.566a3.422,3.422,0,0,0,2.753,2.929l1.846.352c3.267.7,5.008,2.2,5.008,5.289V80.8Z" fill="#d80a80"/>
        <g id="Grupo_81394" data-name="Grupo 81394">
          <path id="Trazado_182232" data-name="Trazado 182232" d="M63.287,49.6l-2.719-2.325-2.893,2.417a1.27,1.27,0,0,1-.631.283l1.727,2.966H62.16l1.708-3.06a1.265,1.265,0,0,1-.58-.28Z" fill="#e28086"/>
        </g>
      </g>
      <g id="Grupo_81396" data-name="Grupo 81396">
        <path id="Trazado_182233" data-name="Trazado 182233" d="M10.226,22.747h24.34l5.073,5.073a1.823,1.823,0,0,0,3.112-1.289V22.491a4.749,4.749,0,0,0,3.19-4.469V4.727A4.73,4.73,0,0,0,41.215,0H10.226A4.73,4.73,0,0,0,5.5,4.727V5.7a1.2,1.2,0,1,0,2.4,0V4.727A2.325,2.325,0,0,1,10.226,2.4h30.99a2.325,2.325,0,0,1,2.323,2.323v13.3A2.331,2.331,0,0,1,41.7,20.294a1.716,1.716,0,0,0-1.351,1.675v3.163l-4.285-4.285a1.7,1.7,0,0,0-1.213-.5H10.226A2.325,2.325,0,0,1,7.9,18.022v-6.7a1.2,1.2,0,0,0-2.4,0v6.7a4.73,4.73,0,0,0,4.725,4.725Z" fill="#12263f"/>
        <path id="Trazado_182234" data-name="Trazado 182234" d="M80.8,55.4A1.2,1.2,0,0,0,82,54.2v-.925a8.416,8.416,0,0,0-6.012-8.031l-6.513-1.912a2.391,2.391,0,0,0-.643-.422l-1.358-.605a2.856,2.856,0,0,0-1.127-.248V39.2a9.908,9.908,0,0,0,3.961-6.743,2.568,2.568,0,0,0,1.867-2.467V21.4a3.794,3.794,0,0,0-3.563-3.782,3.794,3.794,0,0,0-3.776-3.468H55.919A7.165,7.165,0,0,0,48.762,21.3v8.69a2.568,2.568,0,0,0,1.867,2.468A9.911,9.911,0,0,0,54.59,39.2v2.854a2.853,2.853,0,0,0-1.115.25l-1.332.6a2.389,2.389,0,0,0-.638.42l-6.552,1.923a8.416,8.416,0,0,0-6.013,8.031V59.8a8.164,8.164,0,0,0-2.869-1.512c-.106-.031.51.093-9.352-1.786v-.026a31.327,31.327,0,0,0,4.6-1.214c3.335-1.158,5.506-4.588,3.806-10.257a20.123,20.123,0,0,1-.848-5.779,13.325,13.325,0,0,0-13.309-13.3h0A13.326,13.326,0,0,0,7.662,39.233a20.116,20.116,0,0,1-.848,5.773c-1.682,5.611.422,9.082,3.806,10.257a31.323,31.323,0,0,0,4.6,1.213C5.4,58.377,5.974,58.26,5.871,58.29A8.217,8.217,0,0,0,0,66.131v11.34A4.524,4.524,0,0,0,4.526,82h.009l72.938-.073A4.531,4.531,0,0,0,82,77.4V59.818a1.2,1.2,0,1,0-2.4,0V62.6H65.557l-2.125-9.475,1.15-2.061a2.49,2.49,0,0,0,1.254-.653l3.691-3.595a2.392,2.392,0,0,0,.542-.8l5.242,1.539A6,6,0,0,1,79.6,53.278V54.2a1.2,1.2,0,0,0,1.2,1.2ZM51.164,21.3a4.76,4.76,0,0,1,4.755-4.755h8.918a1.388,1.388,0,0,1,1.387,1.387A2.077,2.077,0,0,0,68.3,20.01h.087A1.388,1.388,0,0,1,69.773,21.4v4.45h-.587a.6.6,0,0,1-.6-.6v-.985a3.106,3.106,0,0,0-4.075-2.945,12.968,12.968,0,0,1-8.085,0,3.1,3.1,0,0,0-4.075,2.946v.986a.6.6,0,0,1-.6.6h-.587V21.3ZM52.97,31.7a1.653,1.653,0,0,0-1.644-1.548.161.161,0,0,1-.161-.161V28.249h.587a3.005,3.005,0,0,0,3-3v-.986a.7.7,0,0,1,.923-.664,15.381,15.381,0,0,0,9.589,0,.7.7,0,0,1,.919.664v.985a3.005,3.005,0,0,0,3,3h.587v1.744a.162.162,0,0,1-.161.161A1.653,1.653,0,0,0,67.967,31.7a7.514,7.514,0,0,1-15,0Zm8.485,20.034H59.462l-.773-1.328,1.871-1.563,1.7,1.452ZM63.095,62.6H57.836l1.9-8.459H61.2Zm-2.54-16.834L56.992,43.1V40.509a9.9,9.9,0,0,0,6.953,0v2.629Zm-6.1-1.265a.454.454,0,0,1,.458.05l3.715,2.776-1.726,1.442a.075.075,0,0,1-.029.015l-.015,0a.073.073,0,0,1-.051-.018L53.141,45.09Zm-43.051,8.5C8.372,51.939,8.2,48.762,9.116,45.7a22.527,22.527,0,0,0,.949-6.468,10.907,10.907,0,0,1,21.813,0,22.516,22.516,0,0,0,.949,6.463c.92,3.067.744,6.244-2.293,7.3a29.278,29.278,0,0,1-19.126,0Zm12.909,3.831v.425a3.7,3.7,0,0,1-6.7-.026v-.4A31.832,31.832,0,0,0,24.317,56.825Zm15.222,22.39a.309.309,0,0,1-.3.309H39.2L4.531,79.6h0A2.123,2.123,0,0,1,2.4,77.472V66.131A5.8,5.8,0,0,1,6.5,60.61l9.253-1.79a6.106,6.106,0,0,0,10.437.026l9.262,1.763a5.772,5.772,0,0,1,4.091,5.521Zm1.8-25.936a6,6,0,0,1,4.287-5.726L50.913,46a2.388,2.388,0,0,0,.517.775l3.689,3.695.012.012a2.472,2.472,0,0,0,1.2.647l1.166,2L55.374,62.6H41.343ZM79.6,65V77.4a2.126,2.126,0,0,1-2.124,2.124H41.924a2.754,2.754,0,0,0,.017-.308V66.131A8.159,8.159,0,0,0,41.863,65ZM64.166,48.681a.073.073,0,0,1-.05.021l-.028-.006a.075.075,0,0,1-.02-.012l-1.6-1.366,3.563-2.759A.453.453,0,0,1,66.5,44.5l1.345.6Z" fill="#12263f"/>
      </g>
    </g>
  </g>
</svg>
