<svg xmlns="http://www.w3.org/2000/svg" width="88.884" height="88.863" viewBox="0 0 88.884 88.863">
  <g id="Grupo_82182" data-name="Grupo 82182" transform="translate(-1032.28 -3401.534)">
    <g id="Grupo_81480" data-name="Grupo 81480" transform="translate(1032.28 3401.534)">
      <path id="Trazado_182408" data-name="Trazado 182408" d="M-554.5,1471.845a33.451,33.451,0,0,1-15.433-4.03c-8.538-4.434-15.413-10.817-21.305-18.334-.209-.267-.388-.557-.589-.83a1.914,1.914,0,0,1,.016-2.555c2-2.422,3.923-4.93,6.088-7.2a58.917,58.917,0,0,1,15.458-11.8,33.4,33.4,0,0,1,16.974-4.145,33.641,33.641,0,0,1,14.236,3.98c8.568,4.446,15.475,10.841,21.371,18.4,1.4,1.8,1.438,2.255.1,3.994-6.269,8.169-13.742,14.916-23.141,19.34A32.6,32.6,0,0,1-554.5,1471.845Zm0-45.435a29.236,29.236,0,0,0-13.676,3.531c-7.964,4.036-14.346,9.965-19.891,16.87a.736.736,0,0,0,0,1.108c5.512,6.8,11.813,12.67,19.635,16.768q13.909,7.286,27.837.065c7.868-4.078,14.214-9.944,19.723-16.8a.738.738,0,0,0,0-1.11c-5.554-6.848-11.884-12.792-19.806-16.839A29.452,29.452,0,0,0-554.5,1426.409Z" transform="translate(598.917 -1402.945)" fill="#12263f"/>
      <path id="Trazado_182409" data-name="Trazado 182409" d="M-244.847,1366.134a10.432,10.432,0,0,1-.6,2.209,1.428,1.428,0,0,0,.235,1.736,42.544,42.544,0,0,1,6.951,14.317,44.023,44.023,0,0,1-2.431,30.535,1.746,1.746,0,0,1-2.395,1.092,1.738,1.738,0,0,1-.781-2.448,42.162,42.162,0,0,0,3.127-9.948,40.948,40.948,0,0,0-7.3-31.585c-.359-.5-.683-.46-1.165-.319a5.807,5.807,0,0,1-6.512-2.32,5.857,5.857,0,0,1,.11-6.765,5.864,5.864,0,0,1,6.671-2.1A6.128,6.128,0,0,1-244.847,1366.134Zm-8.41,0a2.431,2.431,0,0,0,2.457,2.362,2.4,2.4,0,0,0,2.361-2.451,2.4,2.4,0,0,0-2.45-2.358A2.419,2.419,0,0,0-253.256,1366.136Z" transform="translate(325.483 -1351.854)" fill="#12263f"/>
      <path id="Trazado_182410" data-name="Trazado 182410" d="M-619.756,1502.92a12.691,12.691,0,0,1,.644-2.292,1.315,1.315,0,0,0-.215-1.57,42.769,42.769,0,0,1-7.055-14.568,43.972,43.972,0,0,1,1.919-29.08,1.752,1.752,0,0,1,2.343-1.2,1.727,1.727,0,0,1,.868,2.477,41.1,41.1,0,0,0-2.967,11.233,40.658,40.658,0,0,0,4.9,24.728c.821,1.479,1.828,2.855,2.722,4.3a.821.821,0,0,0,1.125.4,5.865,5.865,0,0,1,7.489,4.429,5.9,5.9,0,0,1-5.131,7.043A6.073,6.073,0,0,1-619.756,1502.92Zm8.422.038a2.447,2.447,0,0,0-2.325-2.405,2.427,2.427,0,0,0-2.5,2.421,2.393,2.393,0,0,0,2.416,2.4A2.416,2.416,0,0,0-611.334,1502.957Z" transform="translate(627.993 -1428.329)" fill="#12263f"/>
      <path id="Trazado_182411" data-name="Trazado 182411" d="M-422.355,1691.773a5.912,5.912,0,0,1-8.249,5.578,1.3,1.3,0,0,0-1.491.157,43.785,43.785,0,0,1-18.792,8.036,44.668,44.668,0,0,1-22.172-1.784,1.76,1.76,0,0,1-1.3-2.294,1.718,1.718,0,0,1,2.349-1.009,41.83,41.83,0,0,0,12.7,2.247,40.828,40.828,0,0,0,25.131-7.932c.516-.372.392-.695.267-1.17a5.6,5.6,0,0,1,1.792-6.028,5.519,5.519,0,0,1,6.208-.984A5.737,5.737,0,0,1-422.355,1691.773Zm-5.87-2.211a2.42,2.42,0,0,0-2.434,2.385,2.409,2.409,0,0,0,2.382,2.434,2.4,2.4,0,0,0,2.428-2.38A2.416,2.416,0,0,0-428.225,1689.563Z" transform="translate(502.894 -1617.341)" fill="#12263f"/>
      <path id="Trazado_182412" data-name="Trazado 182412" d="M-576.829,1323.258a20.534,20.534,0,0,1,2.372.7,1.1,1.1,0,0,0,1.253-.14,43,43,0,0,1,11.364-6.11,42.54,42.54,0,0,1,19.748-2.377c2.683.328,5.333.962,7.975,1.557a2.392,2.392,0,0,1,1.47,1.079,2.162,2.162,0,0,1-.176,1.7,1.5,1.5,0,0,1-1.787.625c-1.863-.424-3.712-.942-5.6-1.235a40.426,40.426,0,0,0-26.537,4.715c-1.4.778-2.692,1.739-4.06,2.573-.573.349-.652.694-.458,1.344a5.8,5.8,0,0,1-2.4,6.48,5.859,5.859,0,0,1-6.762-.174,5.86,5.86,0,0,1-2.041-6.687A6.186,6.186,0,0,1-576.829,1323.258Zm-.072,8.425a2.437,2.437,0,0,0,2.39-2.435,2.419,2.419,0,0,0-2.436-2.383,2.394,2.394,0,0,0-2.382,2.43A2.417,2.417,0,0,0-576.9,1331.683Z" transform="translate(591.169 -1315.03)" fill="#12263f"/>
      <path id="Trazado_182413" data-name="Trazado 182413" d="M-297.15,1340.609a1.844,1.844,0,0,1-1.752-1.795,1.75,1.75,0,0,1,1.759-1.662,1.757,1.757,0,0,1,1.736,1.781A1.736,1.736,0,0,1-297.15,1340.609Z" transform="translate(359.844 -1333.056)"/>
      <path id="Trazado_182414" data-name="Trazado 182414" d="M-502.3,1753.593a1.807,1.807,0,0,1-1.785-1.752,1.744,1.744,0,0,1,1.69-1.733,1.811,1.811,0,0,1,1.784,1.756A1.724,1.724,0,0,1-502.3,1753.593Z" transform="translate(527.031 -1669.54)"/>
      <path id="Trazado_182415" data-name="Trazado 182415" d="M-237.962,1381.387a2.419,2.419,0,0,1,2.368-2.447,2.394,2.394,0,0,1,2.45,2.358,2.4,2.4,0,0,1-2.361,2.451A2.431,2.431,0,0,1-237.962,1381.387Z" transform="translate(310.188 -1367.105)" fill="#ffd400"/>
      <path id="Trazado_182416" data-name="Trazado 182416" d="M-559.245,1707.451a2.416,2.416,0,0,1-2.405,2.411,2.393,2.393,0,0,1-2.416-2.4,2.426,2.426,0,0,1,2.5-2.421A2.447,2.447,0,0,1-559.245,1707.451Z" transform="translate(575.904 -1632.822)" fill="#ffd400"/>
      <path id="Trazado_182417" data-name="Trazado 182417" d="M-235.483,1705.035a2.416,2.416,0,0,1,2.376,2.439,2.4,2.4,0,0,1-2.428,2.38,2.409,2.409,0,0,1-2.382-2.434A2.42,2.42,0,0,1-235.483,1705.035Z" transform="translate(310.152 -1632.814)" fill="#ffd400"/>
      <path id="Trazado_182418" data-name="Trazado 182418" d="M-561.629,1383.757a2.417,2.417,0,0,1-2.428-2.389,2.4,2.4,0,0,1,2.382-2.43,2.419,2.419,0,0,1,2.436,2.383A2.437,2.437,0,0,1-561.629,1383.757Z" transform="translate(575.897 -1367.104)" fill="#ffd400"/>
      <path id="Trazado_182419" data-name="Trazado 182419" d="M-465.964,1494.8a17.8,17.8,0,0,1-17.655-17.736,17.792,17.792,0,0,1,17.712-17.677,17.791,17.791,0,0,1,17.7,17.781A17.791,17.791,0,0,1-465.964,1494.8Zm.129-31.939a14.317,14.317,0,0,0-14.309,14.133,14.318,14.318,0,0,0,14.11,14.331,14.318,14.318,0,0,0,14.356-14.178A14.322,14.322,0,0,0-465.835,1462.858Z" transform="translate(510.354 -1432.653)" fill="#12263f"/>
      <path id="Trazado_182420" data-name="Trazado 182420" d="M-450.548,1478.139a14.322,14.322,0,0,1,14.157,14.286,14.318,14.318,0,0,1-14.356,14.178,14.318,14.318,0,0,1-14.11-14.331A14.317,14.317,0,0,1-450.548,1478.139Zm-2.443,5.625a3.617,3.617,0,0,0-3.944,3.687c-.036,3.206.005,6.413-.018,9.62a3.6,3.6,0,0,0,1.856,3.47,3.574,3.574,0,0,0,3.916-.33c2.384-1.537,4.786-3.044,7.166-4.588,2.775-1.8,2.79-4.683.029-6.48-2.4-1.564-4.813-3.117-7.251-4.625A10.541,10.541,0,0,0-452.991,1483.764Z" transform="translate(495.067 -1447.934)" fill="#214be5" opacity="0.48"/>
      <path id="Trazado_182421" data-name="Trazado 182421" d="M-418.209,1508.511a10.542,10.542,0,0,1,1.754.755c2.438,1.508,4.848,3.061,7.251,4.625,2.76,1.8,2.746,4.679-.029,6.48-2.379,1.544-4.782,3.051-7.166,4.588a3.574,3.574,0,0,1-3.916.33,3.6,3.6,0,0,1-1.856-3.47c.023-3.207-.017-6.414.018-9.62A3.617,3.617,0,0,1-418.209,1508.511Zm7.6,8.609L-418.6,1512v10.238Z" transform="translate(460.285 -1472.682)" fill="#12263f"/>
      <path id="Trazado_182422" data-name="Trazado 182422" d="M-394.912,1532.483l-7.994,5.12v-10.239Z" transform="translate(444.588 -1488.044)" fill="#ff0092"/>
    </g>
  </g>
</svg>
