<svg xmlns="http://www.w3.org/2000/svg" width="80.998" height="76.405" viewBox="0 0 80.998 76.405">
  <g id="Grupo_81485" data-name="Grupo 81485" transform="translate(847.17 -2016.104)">
    <path id="Trazado_182451" data-name="Trazado 182451" d="M-790.725,2039.609a20.784,20.784,0,0,1-4.539,6.361,7.365,7.365,0,0,0-1.8,3.409c-.131.479-.08.7.5.679,1.034-.042,2.07-.019,3.106-.01a3.857,3.857,0,0,1,3.961,3.9.8.8,0,0,1,0,.145c-.126.809.1,1.143,1.03,1.3a5.065,5.065,0,0,1,4.177,5.353,5.155,5.155,0,0,1-4.634,4.911c-.4.048-.632.086-.7.581a14.191,14.191,0,0,1-4.213,8.425,2.6,2.6,0,0,0-.216.307,10.334,10.334,0,0,1,4,1.623c.228.157.4.039.586-.089a9.972,9.972,0,0,1,11.841.614c.338.28.459.191.623-.141.883-1.79,1.761-3.583,2.681-5.354.234-.45.019-.666-.255-.915a5.125,5.125,0,0,1-1.848-3.992,5.009,5.009,0,0,1,5.145-4.94,5,5,0,0,1,5.275,4.88c.033,4.936.023,9.873,0,14.81a25.467,25.467,0,0,1-.115,4.4,7.138,7.138,0,0,1-11.179,4.615,1.248,1.248,0,0,0-1.61-.08,9.67,9.67,0,0,1-10.4-.17.853.853,0,0,0-1.075.022,9.8,9.8,0,0,1-5.041,1.557c-.3.01-.661-.086-.617.438.017.209-.194.15-.325.163-2.261.238-2.262.238-2.262-2.027,0-3.925-.011-7.851.01-11.775,0-.62-.03-.778-.765-.609a2.276,2.276,0,0,0-2.109,2.155c-.42,2.511-2.967,4.044-5.627,3.766a5.159,5.159,0,0,1-4.527-4.778c-.026-.517-.176-.715-.674-.78a4.243,4.243,0,0,1-1.246-.347c-.672-.316-.732-.033-.73.558.018,4.31-.012,8.621.03,12.931.008.771-.212,1.012-.946.917a9.019,9.019,0,0,0-1.227-.008c-.245,0-.487.04-.458-.346.023-.3-.235-.249-.413-.252a9.909,9.909,0,0,1-5.434-1.7.554.554,0,0,0-.705.027,9.8,9.8,0,0,1-10.966.023c-.48-.294-.687-.025-.983.189a7.188,7.188,0,0,1-10.9-2.8,6.424,6.424,0,0,1-.612-2.654c-.008-6.092-.021-12.185,0-18.277a4.976,4.976,0,0,1,3.665-4.668,5.363,5.363,0,0,1,6.053,2.26,5,5,0,0,1-.713,6.062c-.881.932-.885.933-.309,2.09.751,1.507,1.521,3.005,2.254,4.521.21.433.35.5.762.177a9.877,9.877,0,0,1,11.595-.652.786.786,0,0,0,1.019.021,9.211,9.211,0,0,1,3.636-1.433c.033-.282-.172-.37-.3-.5a14.055,14.055,0,0,1-4.012-8.062c-.072-.534-.253-.729-.82-.8a5.125,5.125,0,0,1-4.555-5.193,5.142,5.142,0,0,1,4.694-5.143c.568-.057.534-.345.516-.713a4.13,4.13,0,0,1,1.177-3.43,3.76,3.76,0,0,1,2.661-1.109c1.084,0,2.168-.026,3.251.011.516.017.628-.142.5-.62a7.185,7.185,0,0,0-1.729-3.368,21.459,21.459,0,0,1-4.637-6.467c-.192-.588-.4-1.172-.573-1.766a18.25,18.25,0,0,1-.249-8.66,17.828,17.828,0,0,1,4.6-8.134,16.976,16.976,0,0,1,28.281,7.381c.072.253.162.5.243.751.116.852.271,1.7.341,2.556A17.764,17.764,0,0,1-790.725,2039.609Zm-11.808,3.265q0,2.528,0,5.057c0,2.243,0,2.235,2.26,2.124.327-.016.445-.1.5-.437a11.591,11.591,0,0,1,3.443-6.357,13.959,13.959,0,0,0,3.744-13.829,14.309,14.309,0,0,0-14.5-10.7,14.348,14.348,0,0,0-13.557,12.212,14.042,14.042,0,0,0,4.086,12.342,12.219,12.219,0,0,1,3.128,4.952c.185.588.032,1.451.5,1.722.492.282,1.265.05,1.911.1.5.036.653-.127.651-.64q-.029-6.538,0-13.076c0-.486-.1-.7-.63-.654a4.848,4.848,0,0,1-1.649-.129,3.932,3.932,0,0,1-2.94-4.041,3.937,3.937,0,0,1,3.566-3.656,3.929,3.929,0,0,1,4.065,2.7,5.132,5.132,0,0,1,.19,1.929c-.032.446.12.622.564.562a3.691,3.691,0,0,1,.505,0c1.456,0,1.456,0,1.544-1.457a3.941,3.941,0,0,1,3.71-3.75,3.927,3.927,0,0,1,4.03,3.133,3.9,3.9,0,0,1-2.543,4.485,4.453,4.453,0,0,1-1.924.221c-.561-.052-.68.16-.673.689C-802.516,2038.539-802.533,2040.707-802.533,2042.874Zm-3.949,9.773q-6.284,0-12.569,0c-1.318,0-1.756.427-1.757,1.712,0,3.3-.016,6.6,0,9.9a11.751,11.751,0,0,0,11.854,11.892c1.589.015,3.178.006,4.767,0a11.758,11.758,0,0,0,12.085-12.028c.017-3.226.005-6.453,0-9.679,0-1.391-.407-1.794-1.82-1.794Q-800.2,2052.645-806.482,2052.647Zm14.382,35.559c-.925-.437-.63-.887-.2-1.365a5.682,5.682,0,0,0,.65-.865c.228-.378.42-.413.781-.126.884.7,1.79,1.385,2.717,2.033a7.508,7.508,0,0,0,8.362.036c.6-.4,1-1.341,1.747-1.164a5.66,5.66,0,0,1,1.808,1.279,4.524,4.524,0,0,0,5.128.639,4.524,4.524,0,0,0,2.51-4.444c-.014-5.658,0-11.316-.006-16.975a5.588,5.588,0,0,0-.035-.792,2.338,2.338,0,0,0-1.975-2.018,2.6,2.6,0,0,0-2.914,1.226,2.367,2.367,0,0,0,.471,2.85c.534.555,1.061,1.121,1.641,1.625a.821.821,0,0,1,.181,1.177c-1.495,2.937-2.962,5.888-4.438,8.834-.932,1.861-.927,1.853-2.753.872-.335-.18-.524-.341-.255-.7s.1-.583-.183-.847a7.317,7.317,0,0,0-3.6-1.874,7.136,7.136,0,0,0-5.389,1c.668.339.543.665.119,1.019-.475.4-.814,1.177-1.376,1.18-.514,0-.862-.754-1.31-1.149-.108-.1-.21-.2-.318-.294a7.587,7.587,0,0,0-4.574-1.914c-.516-.042-.77.049-.713.635.047.477.009.962.01,1.444,0,3.01.013,6.019-.011,9.029,0,.515.142.669.651.623A7.642,7.642,0,0,0-792.1,2088.206Zm-28.718.007a7.942,7.942,0,0,0,3.294.969c.515.043.655-.108.652-.62q-.031-5.238,0-10.475c0-.58-.2-.677-.715-.635a7.7,7.7,0,0,0-4.845,2.155c-.458.436-.861,1.288-1.412,1.181s-.979-.86-1.472-1.317c-.234-.217-.325-.414-.029-.642.327-.252.112-.351-.119-.486a7.4,7.4,0,0,0-8.676,1.238c-.127.133-.361.267-.205.476.593.8-.1.941-.583,1.192-.3.154-.618.277-.9.458-.379.241-.571.151-.768-.246q-2.544-5.143-5.13-10.266a.708.708,0,0,1,.187-.99c.581-.54,1.128-1.119,1.687-1.683a2.447,2.447,0,0,0,.713-1.311,2.364,2.364,0,0,0-2.141-2.8,2.46,2.46,0,0,0-3.014,2.475c-.017,5.924-.025,11.848.007,17.771a4.274,4.274,0,0,0,2.49,4.013,4.448,4.448,0,0,0,4.779-.387,17.037,17.037,0,0,0,1.727-1.306c.441-.394.711-.323,1.13.054a7.449,7.449,0,0,0,8.484,1.4,20.427,20.427,0,0,0,2.733-1.877c.449-.315.871-.954,1.34-.868.39.071.648.772,1,1.157C-820.149,2087.332-819.9,2087.773-820.819,2088.213Zm15.666-45.3c0-1.779.009-3.558-.005-5.337,0-.6.259-1.367-.1-1.741-.4-.409-1.186-.07-1.8-.152-.592-.08-.71.169-.707.719.022,3.895.008,7.79.016,11.684,0,.62-.262,1.428.105,1.813.4.423,1.23.075,1.866.151.52.062.641-.151.635-.645C-805.167,2047.243-805.152,2045.079-805.152,2042.915Zm-1.286,35.829v0c-.673,0-1.348.031-2.019-.009-.585-.035-.639.223-.512.693a2.686,2.686,0,0,0,2.575,1.938,2.679,2.679,0,0,0,2.468-1.98c.116-.458.038-.677-.493-.653C-805.091,2078.769-805.765,2078.745-806.438,2078.745Zm-16.974-18.278c0-.72-.012-1.441.005-2.161.009-.365-.123-.448-.475-.391a2.646,2.646,0,0,0-2.145,2.466,2.658,2.658,0,0,0,2.02,2.645c.406.087.633.038.605-.47C-823.44,2061.861-823.412,2061.163-823.412,2060.467Zm33.92-.031c0,.7.034,1.394-.011,2.087-.037.561.227.595.65.494a2.686,2.686,0,0,0,1.983-2.608,2.649,2.649,0,0,0-2.055-2.466c-.384-.087-.593-.073-.575.406C-789.473,2059.043-789.492,2059.74-789.492,2060.436Zm-21.656-27.386c.172-.172.676.275.753-.251a3.02,3.02,0,0,0-.071-1.5,1.281,1.281,0,0,0-1.522-.786,1.264,1.264,0,0,0-.969,1.339C-812.909,2032.669-812.367,2033.047-811.148,2033.05Zm9.479.017a5.664,5.664,0,0,0,.751-.058,1.268,1.268,0,0,0,.959-1.475,1.288,1.288,0,0,0-1.415-1.051c-.868.091-1.228.8-1.166,2.132C-802.505,2033.4-801.928,2032.892-801.669,2033.067Z" transform="translate(-0.216)" fill="#060606"/>
    <path id="Trazado_182452" data-name="Trazado 182452" d="M-458.206,2088.623a17.761,17.761,0,0,0,1.179-7.876c-.071-.856-.225-1.7-.341-2.556q4.586-.022,9.171-.043c1.7-.005,1.706,0,1.695-1.718a12.524,12.524,0,0,0-.074-2.3.646.646,0,0,1,.169-.67c.215-.156.4.069.571.177,3.467,2.164,6.9,4.392,10.41,6.475a3.729,3.729,0,0,1,.042,6.518c-3.211,1.985-6.406,4-9.607,6-.244.153-.464.346-.717.48-.219.116-.446.391-.707.21-.236-.163-.2-.485-.163-.742.154-1.031.021-2.069.088-3.1.04-.624-.164-.838-.81-.833-3.395.027-6.79.011-10.185.009C-457.726,2088.648-457.966,2088.632-458.206,2088.623Z" transform="translate(-332.735 -49.014)" fill="#00bab5"/>
    <path id="Trazado_182453" data-name="Trazado 182453" d="M-823.227,2078.283a18.249,18.249,0,0,0,.249,8.66c.173.594.381,1.178.573,1.766l-10.691.032c-1,0-1,0-1.006.979,0,1.055-.025,2.11.006,3.164.023.76-.3.589-.717.328-1.446-.908-2.9-1.809-4.342-2.719-2.095-1.32-4.215-2.6-6.272-3.979a3.541,3.541,0,0,1,.047-6.129c3.535-2.283,7.125-4.482,10.688-6.721.4-.25.6-.237.591.311-.017,1.108.036,2.218-.017,3.323-.035.718.174.964.924.954,3.058-.038,6.117-.015,9.176-.011C-823.755,2078.241-823.491,2078.268-823.227,2078.283Z" transform="translate(0 -49.105)" fill="#00bab5"/>
    <path id="Trazado_182454" data-name="Trazado 182454" d="M-647.975,2058.323c0-2.167.017-4.335-.012-6.5-.007-.53.112-.741.673-.689a4.449,4.449,0,0,0,1.924-.221,3.9,3.9,0,0,0,2.543-4.485,3.928,3.928,0,0,0-4.03-3.133,3.942,3.942,0,0,0-3.71,3.75c-.088,1.461-.088,1.461-1.544,1.457a3.71,3.71,0,0,0-.505,0c-.445.061-.6-.116-.564-.562a5.133,5.133,0,0,0-.19-1.929,3.929,3.929,0,0,0-4.065-2.7,3.937,3.937,0,0,0-3.566,3.656,3.932,3.932,0,0,0,2.939,4.041,4.851,4.851,0,0,0,1.649.129c.527-.047.632.168.63.655q-.026,6.538,0,13.076c0,.512-.148.675-.651.64-.646-.045-1.42.187-1.911-.1-.471-.271-.319-1.134-.5-1.722a12.22,12.22,0,0,0-3.128-4.952,14.042,14.042,0,0,1-4.086-12.342,14.349,14.349,0,0,1,13.557-12.212,14.309,14.309,0,0,1,14.5,10.7,13.959,13.959,0,0,1-3.744,13.829,11.591,11.591,0,0,0-3.443,6.357c-.053.334-.171.42-.5.437-2.26.112-2.26.119-2.26-2.123Q-647.975,2060.852-647.975,2058.323Z" transform="translate(-154.774 -15.449)" fill="#ffd400"/>
    <path id="Trazado_182455" data-name="Trazado 182455" d="M-573.9,2158.465c0,2.164-.014,4.328.011,6.491.006.494-.115.707-.635.645-.636-.075-1.461.272-1.866-.151-.367-.385-.1-1.192-.105-1.812-.008-3.9.007-7.79-.016-11.685,0-.55.115-.8.707-.719.61.082,1.4-.257,1.8.152.362.374.1,1.146.1,1.741C-573.889,2154.906-573.9,2156.686-573.9,2158.465Z" transform="translate(-231.47 -115.55)" fill="#ffd400"/>
    <path id="Trazado_182456" data-name="Trazado 182456" d="M-610.2,2118.089c-1.219,0-1.761-.381-1.808-1.2a1.264,1.264,0,0,1,.969-1.338,1.281,1.281,0,0,1,1.522.786,3.02,3.02,0,0,1,.071,1.5C-609.52,2118.365-610.024,2117.917-610.2,2118.089Z" transform="translate(-201.167 -85.039)" fill="#ffd400"/>
    <path id="Trazado_182457" data-name="Trazado 182457" d="M-539.112,2118.11c-.259-.175-.836.329-.872-.453-.062-1.336.3-2.041,1.166-2.132a1.288,1.288,0,0,1,1.415,1.051,1.268,1.268,0,0,1-.959,1.475A5.7,5.7,0,0,1-539.112,2118.11Z" transform="translate(-262.773 -85.043)" fill="#ffd400"/>
    <path id="Trazado_182458" data-name="Trazado 182458" d="M-599.08,2360.323a6.511,6.511,0,0,1-5.7,6.491,6.534,6.534,0,0,1-7.241-5.288,12.727,12.727,0,0,1-.1-2.086c-.017-.534.368-.4.651-.4q3.932-.01,7.865,0c1.227,0,2.455.044,3.679-.017.7-.035.97.182.851.873A2.687,2.687,0,0,0-599.08,2360.323Zm-6.48,1.32c-1.082,0-2.164.013-3.245-.007-.4-.008-.467.11-.286.447a3.77,3.77,0,0,0,3.488,2.158,3.767,3.767,0,0,0,3.493-2.149c.175-.326.134-.464-.277-.457C-603.444,2361.653-604.5,2361.64-605.56,2361.642Z" transform="translate(-201.069 -293.338)" fill="#060606"/>
    <path id="Trazado_182459" data-name="Trazado 182459" d="M-639.16,2292.235a4.445,4.445,0,0,0-.576,0c-.481.063-.686-.086-.8-.612a2.541,2.541,0,0,0-2.5-2,2.522,2.522,0,0,0-2.535,2.039c-.106.493-.305.624-.762.58-.357-.034-.72-.007-1.081-.007-.936,0-.942-.008-.792-.914a5.238,5.238,0,0,1,5.424-4.3,5.245,5.245,0,0,1,4.929,4.7c.034.371-.05.544-.448.515C-638.582,2292.218-638.871,2292.235-639.16,2292.235Z" transform="translate(-170.145 -231.75)" fill="#060606"/>
    <path id="Trazado_182460" data-name="Trazado 182460" d="M-548.812,2292.138a4.534,4.534,0,0,0-.576,0c-.452.059-.66-.074-.769-.572a2.527,2.527,0,0,0-2.532-2.044,2.57,2.57,0,0,0-2.538,2.136c-.084.409-.24.5-.609.482a13.147,13.147,0,0,0-1.513,0c-.458.03-.577-.13-.522-.58a5.268,5.268,0,0,1,4.056-4.53,5.222,5.222,0,0,1,5.555,2.316,5.524,5.524,0,0,1,.764,2.078c.1.572-.08.8-.668.714A4.313,4.313,0,0,0-548.812,2292.138Z" transform="translate(-247.467 -231.654)" fill="#060606"/>
  </g>
</svg>
