<svg xmlns="http://www.w3.org/2000/svg" width="491.785" height="268.275" viewBox="0 0 491.785 268.275">
  <g id="Grupo_141256" data-name="Grupo 141256" transform="translate(-913.274 -6380)">
    <g id="Grupo_141255" data-name="Grupo 141255">
      <g id="Grupo_136999" data-name="Grupo 136999" transform="translate(915 6380)">
        <path id="Trazado_177495" data-name="Trazado 177495" d="M1177.766-706.267l-22.66-177.59-200.424-1.833,25.091,179.718Zm-196.982-.868L956.02-884.514l198.062,1.811,22.364,175.275-195.661.293" transform="translate(-954.682 893.355)" fill="#1f2ee1" stroke="#1f2ee1" stroke-miterlimit="10" stroke-width="3"/>
        <path id="Trazado_177496" data-name="Trazado 177496" d="M951.142-570.881,929.8-738.124,741.054-739.85,764.683-570.6Zm-185.447-.885-23.3-166.91,186.385,1.7,21.044,164.929-184.127.276" transform="translate(-462.785 837.375)" fill="#1f2ee1" stroke="#1f2ee1" stroke-miterlimit="10" stroke-width="3"/>
        <rect id="Rectángulo_22279" data-name="Rectángulo 22279" width="237.744" height="1.925" transform="translate(46.127 264.848)" fill="#ff0092"/>
        <path id="Trazado_177497" data-name="Trazado 177497" d="M1288.3-595.367h-9.566v-32.228h9.566Zm.632.635v-33.5H1278.1v33.5Zm-1.951,9.57-3.88-6.72-3.879,6.72Zm0,8.513-3.88-6.72-3.879,6.72Zm0,8.514-3.88-6.721-3.879,6.721Zm0,8.513-3.88-6.72-3.879,6.72Zm0,8.513-3.88-6.72-3.879,6.72Zm0,8.513-3.88-6.72-3.879,6.72Zm0,8.514-3.88-6.721-3.879,6.721Zm0,8.513-3.88-6.72-3.879,6.72Zm0,8.513-3.88-6.72-3.879,6.72Z" transform="translate(-1248.305 784.218)" fill="#214be5"/>
        <path id="Trazado_177498" data-name="Trazado 177498" d="M1218.11-832.567a1.316,1.316,0,0,0,0,2.631A1.316,1.316,0,0,0,1218.11-832.567Zm23.226,0a1.316,1.316,0,0,0,0,2.631A1.316,1.316,0,0,0,1241.336-832.567Zm23.225,0a1.316,1.316,0,0,0,0,2.631A1.316,1.316,0,0,0,1264.561-832.567Zm-46.451-20.505a1.317,1.317,0,0,0,0,2.632A1.317,1.317,0,0,0,1218.11-853.072Zm23.226,0a1.317,1.317,0,0,0,0,2.632A1.317,1.317,0,0,0,1241.336-853.072Zm23.225,0a1.317,1.317,0,0,0,0,2.632A1.317,1.317,0,0,0,1264.561-853.072Z" transform="translate(-1200.707 889.993)" fill="#fff"/>
        <path id="Trazado_177501" data-name="Trazado 177501" d="M1036.069-859.215l32.2,181.4-257.235-1.85L781.956-858.916Z" transform="translate(-588.2 902.034)" fill="none" stroke="#fff" stroke-miterlimit="10" stroke-width="3" fill-rule="evenodd"/>
        <path id="Trazado_177502" data-name="Trazado 177502" d="M1219.409-853.214l39.279,238.65L836.559-617,802.4-852.821Z" transform="translate(-786.273 873.117)" fill="#e5f2ff" fill-rule="evenodd"/>
        <path id="Trazado_177500" data-name="Trazado 177500" d="M816.916-881.6a14.2,14.2,0,0,1,14.195,14.194,14.2,14.2,0,0,1-14.195,14.195,14.2,14.2,0,0,1-14.195-14.195A14.194,14.194,0,0,1,816.916-881.6Zm0,24.6a10.409,10.409,0,0,0,10.409-10.41,10.409,10.409,0,0,0-10.409-10.409,10.409,10.409,0,0,0-10.41,10.409A10.409,10.409,0,0,0,816.916-857Z" transform="translate(-385.872 881.603)" fill="#ffd400"/>
      </g>
    </g>
    <g id="Grupo_137002" data-name="Grupo 137002" transform="translate(3537 12464)">
      <g id="Device" transform="translate(-2349.498 -6052.912)">
        <g id="Mobile" transform="translate(8.921 0)">
          <g id="Grupo_82064" data-name="Grupo 82064">
            <path id="Trazado_183148" data-name="Trazado 183148" d="M70.724,62.694l56.966,32.9a6.137,6.137,0,0,1,3.069,5.092l0,132.445a5.786,5.786,0,0,1-9.026,5.213L64.968,205.569A7.259,7.259,0,0,1,61.7,199.9v-132c0-2.087,1.74-3.512,3.329-4.43S68.916,61.651,70.724,62.694Z" transform="translate(-61.696 -62.227)" fill="#214be5"/>
            <path id="Trazado_183149" data-name="Trazado 183149" d="M61.7,266.5a6.738,6.738,0,0,0,5.365-.147,6.83,6.83,0,0,0,2.876-5.44l0-132.445a5.829,5.829,0,0,0-.826-2.8l-5.28,3a6.367,6.367,0,0,1,1.523,3.813V263.567C65.356,266.079,63.769,267.27,61.7,266.5Z" transform="translate(-0.877 -90.013)" opacity="0.4"/>
            <path id="Trazado_183150" data-name="Trazado 183150" d="M63.166,67.631c.122-1.875,1.539-2.607,3.258-1.615l58.323,33.672a5.4,5.4,0,0,1,1.362,1.184l5.28-3a5.86,5.86,0,0,0-1.961-2.125L72.181,62.691c-1.809-1.044-4.11-.133-5.7.783C64.963,64.353,63.27,65.61,63.166,67.631Z" transform="translate(-63.154 -62.226)" opacity="0.3"/>
          </g>
          <path id="Trazado_183153" data-name="Trazado 183153" d="M74.718,85.762V204.643a6.886,6.886,0,0,0,3.108,5.384L130.4,240.385c1.714.995,3.108.191,3.108-1.793V118.756a6.971,6.971,0,0,0-2.18-4.687c-.1-.09-.2-.18-.3-.264a5.019,5.019,0,0,0-.629-.433l-7.042-4.069-.579-.332-.7-.388-1.708-.955c-1.219-.669-2.54-.309-2.54,1.124v4.44c0,1.456-1.09,2.006-2.433,1.231L93.415,101.6a5.22,5.22,0,0,1-2.433-4.041V92.556a3.559,3.559,0,0,0-1.5-2.855l-10.52-6.03-.309-.18C76.488,82.244,74.718,83.261,74.718,85.762Z" transform="translate(-71.768 -71.307)" fill="#37474f"/>
          <path id="Trazado_183154" data-name="Trazado 183154" d="M74.718,202.282V84.227l10.52,6.03a3.559,3.559,0,0,1,1.5,2.855v5.007a5.22,5.22,0,0,0,2.433,4.041l21.99,12.819a1.729,1.729,0,0,0,1.841.151c.369-.25,3.837-2.614,4.283-2.941a1.606,1.606,0,0,0,.557-1.357v-1.692l.7.388.579.332,7.042,4.069a5.019,5.019,0,0,1,.629.433c.1.084.2.174.3.264a6.971,6.971,0,0,1,2.18,4.687V237.366l-51.443-29.7A6.886,6.886,0,0,1,74.718,202.282Z" transform="translate(-67.525 -71.863)" fill="#455a64"/>
          <g id="Grupo_82066" data-name="Grupo 82066" transform="translate(20.849 26.346)">
            <path id="Trazado_183155" data-name="Trazado 183155" d="M126.325,121.244l-7.9-4.562c-.471-.272-.854-.079-.854.432a1.829,1.829,0,0,0,.854,1.417l7.9,4.562c.471.272.853.079.853-.432A1.83,1.83,0,0,0,126.325,121.244Z" transform="translate(-110.364 -112.371)" fill="#455a64"/>
            <g id="Grupo_82065" data-name="Grupo 82065">
              <path id="Trazado_183156" data-name="Trazado 183156" d="M139.737,112.5c-.442-.255-.8-.048-.8.463a1.77,1.77,0,0,0,.8,1.386c.442.256.8.049.8-.462A1.77,1.77,0,0,0,139.737,112.5Z" transform="translate(-135.731 -110.548)" fill="#455a64"/>
              <path id="Trazado_183157" data-name="Trazado 183157" d="M145.44,109.217c-.442-.255-.8-.048-.8.463a1.769,1.769,0,0,0,.8,1.386c.442.256.8.048.8-.462A1.768,1.768,0,0,0,145.44,109.217Z" transform="translate(-144.639 -109.108)" fill="#455a64"/>
              <path id="Trazado_183158" data-name="Trazado 183158" d="M105.548,132.252c-.442-.256-.8-.048-.8.462a1.771,1.771,0,0,0,.8,1.387c.442.255.8.048.8-.463A1.769,1.769,0,0,0,105.548,132.252Z" transform="translate(-82.33 -119.197)" fill="#455a64"/>
              <path id="Trazado_183159" data-name="Trazado 183159" d="M111.251,128.964c-.442-.256-.8-.048-.8.462a1.769,1.769,0,0,0,.8,1.387c.442.255.8.048.8-.462A1.769,1.769,0,0,0,111.251,128.964Z" transform="translate(-91.237 -117.757)" fill="#455a64"/>
            </g>
          </g>
        </g>
        <g id="Window" transform="translate(0 22.146)">
          <g id="Grupo_82067" data-name="Grupo 82067" transform="translate(0.092)">
            <path id="Trazado_183160" data-name="Trazado 183160" d="M93.987,101.9a2.751,2.751,0,0,1,2.778.268h0l10.831,6.209a3.559,3.559,0,0,1,1.5,2.855v5a5.22,5.22,0,0,0,2.433,4.041l20.772,12.111v-2.855a1.361,1.361,0,0,1,.64-1.268c.5-.283,3.259-1.883,3.643-2.1a1.99,1.99,0,0,1,1.908.142l2.4,1.344.578.332,7.042,4.069a5.02,5.02,0,0,1,.629.433c.1.084.2.174.3.264a6.972,6.972,0,0,1,2.18,4.687V257.265a2.192,2.192,0,0,1-.9,2.007c-.563.331-3.1,1.788-3.658,2.113a2.18,2.18,0,0,1-2.2-.221l-52.58-30.356a6.886,6.886,0,0,1-3.108-5.384V106.544A2.75,2.75,0,0,1,90.342,104C90.995,103.63,93.336,102.277,93.987,101.9Z" transform="translate(-89.183 -101.633)" fill="#ebebeb"/>
            <path id="Trazado_183161" data-name="Trazado 183161" d="M91.04,147.18a2.072,2.072,0,0,1,1.8.2l2.4,1.349.579.332,7.042,4.069a5.021,5.021,0,0,1,.629.433c.1.084.2.174.3.265a6.992,6.992,0,0,1,1.141,1.4l3.647-2.107a6.967,6.967,0,0,0-1.135-1.4c-.1-.09-.2-.18-.3-.265a5.021,5.021,0,0,0-.629-.433l-7.042-4.069-.579-.332-2.405-1.343a1.974,1.974,0,0,0-1.905-.146C94.221,145.343,91.731,146.781,91.04,147.18Z" transform="translate(-47.179 -120.605)" fill="#f5f5f5"/>
            <path id="Trazado_183162" data-name="Trazado 183162" d="M165.63,104a2.736,2.736,0,0,1,2.776.27l10.829,6.21a2.857,2.857,0,0,1,1.073,1.208l3.647-2.107a2.879,2.879,0,0,0-1.068-1.208l-10.835-6.21a2.762,2.762,0,0,0-2.776-.27C168.626,102.28,166.288,103.628,165.63,104Z" transform="translate(-164.473 -101.634)" fill="#f5f5f5"/>
            <path id="Trazado_183163" data-name="Trazado 183163" d="M162.72,117.889a3.676,3.676,0,0,1,.433,1.647v5a4.951,4.951,0,0,0,1.2,2.956L168,125.387a5.008,5.008,0,0,1-1.2-2.956v-5a3.676,3.676,0,0,0-.433-1.647Z" transform="translate(-146.885 -107.83)" opacity="0.1"/>
          </g>
          <path id="Trazado_183164" data-name="Trazado 183164" d="M99.609,105.915h0l10.831,6.209a3.558,3.558,0,0,1,1.5,2.855v5a5.22,5.22,0,0,0,2.433,4.041l21.987,12.819c1.343.776,2.433.225,2.433-1.231v-4.44c0-1.432,1.322-1.793,2.543-1.123l2.4,1.344.579.332,7.041,4.069a4.985,4.985,0,0,1,.63.433c.1.084.2.174.3.264a6.972,6.972,0,0,1,2.18,4.687V261.014c0,1.984-1.394,2.787-3.108,1.793L98.783,232.45a6.886,6.886,0,0,1-3.108-5.384V108.185C95.675,105.686,97.445,104.664,99.609,105.915Z" transform="translate(-95.583 -103.275)" fill="#214be5"/>
          <path id="Trazado_183165" data-name="Trazado 183165" d="M99.609,105.915h0l10.831,6.209a3.558,3.558,0,0,1,1.5,2.855v5a5.22,5.22,0,0,0,2.433,4.041l21.987,12.819c1.343.776,2.433.225,2.433-1.231v-4.44c0-1.432,1.322-1.793,2.543-1.123l2.4,1.344.579.332,7.041,4.069a4.985,4.985,0,0,1,.63.433c.1.084.2.174.3.264a6.972,6.972,0,0,1,2.18,4.687V261.014c0,1.984-1.394,2.787-3.108,1.793L98.783,232.45a6.886,6.886,0,0,1-3.108-5.384V108.185C95.675,105.686,97.445,104.664,99.609,105.915Z" transform="translate(-95.675 -103.274)" fill="#fff" opacity="0.7"/>
          <g id="Grupo_82068" data-name="Grupo 82068" transform="translate(0 49.1)">
            <path id="Trazado_183166" data-name="Trazado 183166" d="M154.563,237.592l-20.081-26.359-23.245,14.979,5.4-5.753L108.81,208.6l-13.134,8.816v26.769l58.888,34Z" transform="translate(-95.675 -197.586)" fill="#214be5"/>
            <path id="Trazado_183167" data-name="Trazado 183167" d="M161.235,189.471c-1.891-1.091-3.424-.206-3.424,1.978a7.569,7.569,0,0,0,3.424,5.931c1.891,1.092,3.424.207,3.424-1.977A7.569,7.569,0,0,0,161.235,189.471Z" transform="translate(-140.69 -189.003)" fill="#214be5"/>
          </g>
          <g id="Grupo_82072" data-name="Grupo 82072" transform="translate(0.092 86.861)">
            <path id="Trazado_183168" data-name="Trazado 183168" d="M95.675,293.127V258.768c7.649-4.156,18.082-3.414,29.584,3.227,11.32,6.536,21.6,17.593,29.212,30.324v34.755c0,1.984-1.394,2.787-3.108,1.793L98.783,298.51A6.886,6.886,0,0,1,95.675,293.127Z" transform="translate(-95.675 -256.195)" fill="#fafafa"/>
            <path id="Trazado_183169" data-name="Trazado 183169" d="M96.8,259.764V294.69a5.805,5.805,0,0,0,2.546,4.41l52.582,30.357a1.764,1.764,0,0,0,.825.275c.518,0,.6-.687.6-1.1V292.043q.561.9,1.124,1.839v34.755c0,1.407-.7,2.22-1.719,2.22a2.805,2.805,0,0,1-1.389-.427l-52.58-30.356a6.887,6.887,0,0,1-3.108-5.384V260.332C96.01,260.148,96.39,259.958,96.8,259.764Z" transform="translate(-95.675 -257.759)" fill="#ebebeb"/>
            <g id="Grupo_82069" data-name="Grupo 82069" transform="translate(13.604 9.363)">
              <path id="Trazado_183170" data-name="Trazado 183170" d="M153.523,296.823l-24.961-14.411c-.672-.388-1.217-.112-1.216.615a2.609,2.609,0,0,0,1.217,2.021l24.959,14.411c.672.388,1.217.112,1.217-.616A2.609,2.609,0,0,0,153.523,296.823Z" transform="translate(-127.346 -276.964)" fill="#455a64"/>
              <path id="Trazado_183171" data-name="Trazado 183171" d="M153.019,308.258l-20.394-11.775c-.672-.388-1.217-.112-1.217.615a2.609,2.609,0,0,0,1.217,2.02l20.393,11.775c.672.388,1.217.112,1.217-.616A2.608,2.608,0,0,0,153.019,308.258Z" transform="translate(-129.125 -283.128)" fill="#455a64"/>
              <path id="Trazado_183172" data-name="Trazado 183172" d="M153.019,284.806l-20.394-11.775c-.672-.388-1.217-.112-1.217.615a2.61,2.61,0,0,0,1.217,2.021l20.393,11.775c.672.388,1.217.112,1.217-.615A2.609,2.609,0,0,0,153.019,284.806Z" transform="translate(-129.125 -272.855)" fill="#455a64"/>
            </g>
          </g>
          <path id="Trazado_183179" data-name="Trazado 183179" d="M149.33,167.978l-29.376-16.96c-1.344-.776-2.433-.224-2.433,1.232a5.219,5.219,0,0,0,2.434,4.042l29.375,16.959c1.344.776,2.433.224,2.433-1.232A5.219,5.219,0,0,0,149.33,167.978Z" transform="translate(-105.152 -123.111)" fill="#455a64"/>
        </g>
      </g>
      <g id="Lines" transform="translate(-2509.512 -6028.77)">
        <g id="Lines-2" data-name="Lines" transform="translate(0 0)">
          <g id="Grupo_82076" data-name="Grupo 82076" transform="translate(51.463 51.235)">
            <g id="Grupo_82073" data-name="Grupo 82073" transform="translate(14.497 8.37)">
              <path id="Trazado_183180" data-name="Trazado 183180" d="M327.729,152.067a.745.745,0,0,0,.375-.1.93.93,0,0,0,.41-.853,2.488,2.488,0,0,0-1.14-1.977.838.838,0,0,0-1.353.781,2.488,2.488,0,0,0,1.141,1.977A1.149,1.149,0,0,0,327.729,152.067Zm-.924-2.676a.734.734,0,0,1,.358.113,2.089,2.089,0,0,1,.93,1.611.429.429,0,0,1-.72.416,2.09,2.09,0,0,1-.93-1.612.543.543,0,0,1,.2-.488A.324.324,0,0,1,326.8,149.391Z" transform="translate(-326.021 -148.969)" fill="#455a64"/>
            </g>
            <g id="Grupo_82074" data-name="Grupo 82074">
              <path id="Trazado_183181" data-name="Trazado 183181" d="M353.526,137.173a.745.745,0,0,0,.375-.1.927.927,0,0,0,.409-.853,2.485,2.485,0,0,0-1.14-1.976h0a.837.837,0,0,0-1.352.781,2.488,2.488,0,0,0,1.14,1.976A1.145,1.145,0,0,0,353.526,137.173ZM352.6,134.5a.735.735,0,0,1,.357.114h0a2.088,2.088,0,0,1,.93,1.611.429.429,0,0,1-.72.415,2.091,2.091,0,0,1-.93-1.611.543.543,0,0,1,.2-.488A.327.327,0,0,1,352.6,134.5Z" transform="translate(-351.818 -134.075)" fill="#455a64"/>
            </g>
            <g id="Grupo_82075" data-name="Grupo 82075" transform="translate(2.071 1.937)">
              <path id="Trazado_183182" data-name="Trazado 183182" d="M342.343,145.116a.211.211,0,0,0,.106-.393l-12.426-7.174a.214.214,0,0,0-.288.078.211.211,0,0,0,.078.288l12.426,7.174A.211.211,0,0,0,342.343,145.116Z" transform="translate(-329.706 -137.522)" fill="#455a64"/>
            </g>
          </g>
          <g id="Grupo_82086" data-name="Grupo 82086" transform="translate(39.349 91.613)">
            <g id="Grupo_82077" data-name="Grupo 82077" transform="translate(44.521 11.815)">
              <path id="Trazado_183183" data-name="Trazado 183183" d="M295.861,230.047a.74.74,0,0,0,.375-.1.928.928,0,0,0,.409-.853,2.485,2.485,0,0,0-1.14-1.976h0a.837.837,0,0,0-1.352.781,2.488,2.488,0,0,0,1.14,1.976A1.139,1.139,0,0,0,295.861,230.047Zm-.924-2.676a.735.735,0,0,1,.357.114h0a2.088,2.088,0,0,1,.929,1.611.429.429,0,0,1-.72.415,2.091,2.091,0,0,1-.93-1.611.543.543,0,0,1,.2-.488A.327.327,0,0,1,294.937,227.372Z" transform="translate(-294.153 -226.949)" fill="#455a64"/>
            </g>
            <g id="Grupo_82078" data-name="Grupo 82078" transform="translate(26.923 50.693)">
              <path id="Trazado_183184" data-name="Trazado 183184" d="M327.175,299.228a.74.74,0,0,0,.374-.1.927.927,0,0,0,.41-.853,2.486,2.486,0,0,0-1.14-1.976h0a.838.838,0,0,0-1.353.781,2.487,2.487,0,0,0,1.141,1.977A1.148,1.148,0,0,0,327.175,299.228Zm-.924-2.675a.736.736,0,0,1,.357.113h0a2.089,2.089,0,0,1,.93,1.611.429.429,0,0,1-.72.416,2.09,2.09,0,0,1-.93-1.612.543.543,0,0,1,.2-.488A.331.331,0,0,1,326.252,296.553Z" transform="translate(-325.467 -296.13)" fill="#455a64"/>
            </g>
            <g id="Grupo_82079" data-name="Grupo 82079" transform="translate(0 35.153)">
              <path id="Trazado_183185" data-name="Trazado 183185" d="M375.083,271.576a.743.743,0,0,0,.375-.1.927.927,0,0,0,.41-.853,2.484,2.484,0,0,0-1.14-1.976h0a.837.837,0,0,0-1.352.78,2.49,2.49,0,0,0,1.14,1.977A1.153,1.153,0,0,0,375.083,271.576Zm-.566-2.561a2.085,2.085,0,0,1,.93,1.61.429.429,0,0,1-.72.416,2.089,2.089,0,0,1-.929-1.611.429.429,0,0,1,.72-.415Z" transform="translate(-373.375 -268.478)" fill="#455a64"/>
            </g>
            <g id="Grupo_82080" data-name="Grupo 82080" transform="translate(14.497)">
              <path id="Trazado_183186" data-name="Trazado 183186" d="M327.266,224.283a.214.214,0,0,0,.105-.028.211.211,0,0,0,.106-.183v-3.587a.211.211,0,0,0-.421,0v3.222l-30.743-17.753a.21.21,0,0,0-.316.183V221.7a.211.211,0,1,0,.421,0V206.5l30.742,17.753A.214.214,0,0,0,327.266,224.283Z" transform="translate(-295.996 -205.926)" fill="#455a64"/>
            </g>
            <g id="Grupo_82081" data-name="Grupo 82081" transform="translate(11.4 15.563)">
              <path id="Trazado_183187" data-name="Trazado 183187" d="M349.06,243.606a.21.21,0,0,0,.147-.06l3.1-3.009a.21.21,0,0,0,.043-.241l-3.1-6.556a.211.211,0,0,0-.337-.062l-3.1,2.98a.209.209,0,0,0-.044.241l3.1,6.586a.208.208,0,0,0,.152.118A.222.222,0,0,0,349.06,243.606Zm2.842-3.267-2.778,2.7-2.907-6.182L349,234.184Z" transform="translate(-345.753 -233.619)" fill="#455a64"/>
            </g>
            <g id="Grupo_82082" data-name="Grupo 82082" transform="translate(17.594 22.119)">
              <path id="Trazado_183188" data-name="Trazado 183188" d="M340.306,257.085a.211.211,0,0,0,.211-.211V249.7a.21.21,0,0,0-.105-.182l-7.259-4.205a.211.211,0,0,0-.211.365l7.153,4.144v7.053A.211.211,0,0,0,340.306,257.085Z" transform="translate(-332.837 -245.285)" fill="#455a64"/>
            </g>
            <path id="Trazado_183189" data-name="Trazado 183189" d="M332.794,268.173l-4.005-2.313c-.61-.352-1.1-.066-1.1.637v1.046a2.439,2.439,0,0,0,1.1,1.912l4.005,2.313c.61.352,1.1.067,1.1-.637v-1.046A2.44,2.44,0,0,0,332.794,268.173Z" transform="translate(-305.728 -232.113)" fill="#214be5"/>
            <path id="Trazado_183190" data-name="Trazado 183190" d="M369.647,246.961l-4.006-2.313c-.609-.352-1.1-.067-1.1.637v1.046a2.442,2.442,0,0,0,1.1,1.912l4.006,2.313c.61.352,1.1.066,1.1-.637v-1.046A2.439,2.439,0,0,0,369.647,246.961Z" transform="translate(-363.291 -222.821)" fill="#214be5"/>
            <g id="Grupo_82083" data-name="Grupo 82083" transform="translate(24.852 39.595)">
              <path id="Trazado_183191" data-name="Trazado 183191" d="M331.434,288.643a.211.211,0,0,0,.106-.393l-1.965-1.135V276.594a.211.211,0,1,0-.421,0v10.642a.212.212,0,0,0,.105.183l2.071,1.2A.213.213,0,0,0,331.434,288.643Z" transform="translate(-329.153 -276.383)" fill="#455a64"/>
            </g>
            <g id="Grupo_82084" data-name="Grupo 82084" transform="translate(4.142 14.367)">
              <path id="Trazado_183192" data-name="Trazado 183192" d="M356.986,239.086a.211.211,0,0,0,.211-.211v-6.81l6.943,3.994a.211.211,0,0,0,.21-.365l-7.258-4.176a.211.211,0,0,0-.316.183v7.175A.211.211,0,0,0,356.986,239.086Z" transform="translate(-356.775 -231.49)" fill="#455a64"/>
            </g>
            <g id="Grupo_82085" data-name="Grupo 82085" transform="translate(2.07 27.52)">
              <path id="Trazado_183193" data-name="Trazado 183193" d="M371.972,266.078a.208.208,0,0,0,.106-.028.211.211,0,0,0,.105-.183V255.106a.211.211,0,0,0-.422,0v10.4l-1.755-1.014a.214.214,0,0,0-.288.078.211.211,0,0,0,.078.288l2.071,1.2A.206.206,0,0,0,371.972,266.078Z" transform="translate(-369.69 -254.895)" fill="#455a64"/>
            </g>
          </g>
          <g id="Grupo_82096" data-name="Grupo 82096" transform="translate(0)">
            <g id="Grupo_82087" data-name="Grupo 82087" transform="translate(12.426 52.611)">
              <path id="Trazado_183194" data-name="Trazado 183194" d="M422.991,139.621a.738.738,0,0,0,.375-.1.927.927,0,0,0,.409-.853,2.485,2.485,0,0,0-1.14-1.976h0a.838.838,0,0,0-1.352.781,2.487,2.487,0,0,0,1.14,1.976A1.152,1.152,0,0,0,422.991,139.621Zm-.566-2.561a2.086,2.086,0,0,1,.929,1.61.429.429,0,0,1-.72.416,2.089,2.089,0,0,1-.929-1.611.429.429,0,0,1,.72-.416Z" transform="translate(-421.283 -136.523)" fill="#455a64"/>
            </g>
            <g id="Grupo_82088" data-name="Grupo 82088">
              <path id="Trazado_183195" data-name="Trazado 183195" d="M445.1,46a.74.74,0,0,0,.375-.1.928.928,0,0,0,.41-.853,2.487,2.487,0,0,0-1.14-1.977.837.837,0,0,0-1.352.781,2.486,2.486,0,0,0,1.14,1.976A1.142,1.142,0,0,0,445.1,46Zm-.924-2.675a.735.735,0,0,1,.358.114,2.087,2.087,0,0,1,.93,1.611.429.429,0,0,1-.72.415,2.087,2.087,0,0,1-.93-1.611.542.542,0,0,1,.2-.488A.325.325,0,0,1,444.176,43.329Z" transform="translate(-443.393 -42.906)" fill="#455a64"/>
            </g>
            <g id="Grupo_82089" data-name="Grupo 82089" transform="translate(0 11.991)">
              <path id="Trazado_183196" data-name="Trazado 183196" d="M445.1,67.342a.746.746,0,0,0,.375-.1.928.928,0,0,0,.41-.853,2.488,2.488,0,0,0-1.14-1.978.837.837,0,0,0-1.352.781,2.487,2.487,0,0,0,1.14,1.976A1.147,1.147,0,0,0,445.1,67.342Zm-.924-2.676a.735.735,0,0,1,.358.114,2.088,2.088,0,0,1,.93,1.611.429.429,0,0,1-.72.415,2.088,2.088,0,0,1-.93-1.611.542.542,0,0,1,.2-.488A.325.325,0,0,1,444.176,64.667Z" transform="translate(-443.393 -64.244)" fill="#455a64"/>
            </g>
            <g id="Grupo_82090" data-name="Grupo 82090" transform="translate(0 23.983)">
              <path id="Trazado_183197" data-name="Trazado 183197" d="M445.1,88.681a.746.746,0,0,0,.375-.1.928.928,0,0,0,.41-.853,2.488,2.488,0,0,0-1.14-1.977.837.837,0,0,0-1.352.781,2.488,2.488,0,0,0,1.14,1.976A1.143,1.143,0,0,0,445.1,88.681Zm-.924-2.676a.74.74,0,0,1,.358.113,2.089,2.089,0,0,1,.93,1.612.429.429,0,0,1-.72.415,2.09,2.09,0,0,1-.93-1.611.541.541,0,0,1,.2-.488A.325.325,0,0,1,444.176,86.006Z" transform="translate(-443.393 -85.583)" fill="#455a64"/>
            </g>
            <g id="Grupo_82091" data-name="Grupo 82091" transform="translate(0 35.975)">
              <path id="Trazado_183198" data-name="Trazado 183198" d="M445.1,110.02a.746.746,0,0,0,.375-.1.929.929,0,0,0,.41-.853,2.488,2.488,0,0,0-1.14-1.977.837.837,0,0,0-1.352.781,2.488,2.488,0,0,0,1.14,1.976A1.143,1.143,0,0,0,445.1,110.02Zm-.924-2.676a.734.734,0,0,1,.358.113,2.089,2.089,0,0,1,.93,1.611.429.429,0,0,1-.72.416,2.09,2.09,0,0,1-.93-1.612.542.542,0,0,1,.2-.488A.33.33,0,0,1,444.176,107.345Z" transform="translate(-443.393 -106.922)" fill="#455a64"/>
            </g>
            <g id="Grupo_82092" data-name="Grupo 82092" transform="translate(2.071 1.936)">
              <path id="Trazado_183199" data-name="Trazado 183199" d="M435.533,98.188a.211.211,0,0,0,.105-.393L431.6,95.464V50.149a.213.213,0,0,0-.106-.183l-6.213-3.587a.211.211,0,0,0-.211.365l6.108,3.526V95.586a.211.211,0,0,0,.105.183l4.142,2.392A.215.215,0,0,0,435.533,98.188Z" transform="translate(-424.967 -46.352)" fill="#455a64"/>
            </g>
            <g id="Grupo_82093" data-name="Grupo 82093" transform="translate(2.071 13.894)">
              <path id="Trazado_183200" data-name="Trazado 183200" d="M438.762,71.637a.211.211,0,0,0,.105-.393l-6.213-3.587a.211.211,0,0,0-.211.365l6.213,3.587A.217.217,0,0,0,438.762,71.637Z" transform="translate(-432.338 -67.629)" fill="#455a64"/>
            </g>
            <g id="Grupo_82094" data-name="Grupo 82094" transform="translate(2.071 25.864)">
              <path id="Trazado_183201" data-name="Trazado 183201" d="M438.762,92.937a.211.211,0,0,0,.105-.393l-6.213-3.587a.211.211,0,0,0-.211.365l6.213,3.587A.217.217,0,0,0,438.762,92.937Z" transform="translate(-432.338 -88.929)" fill="#455a64"/>
            </g>
            <g id="Grupo_82095" data-name="Grupo 82095" transform="translate(2.071 37.834)">
              <path id="Trazado_183202" data-name="Trazado 183202" d="M438.762,114.237a.211.211,0,0,0,.105-.394l-6.213-3.587a.211.211,0,0,0-.211.365l6.213,3.587A.217.217,0,0,0,438.762,114.237Z" transform="translate(-432.338 -110.229)" fill="#455a64"/>
            </g>
          </g>
          <g id="Grupo_82100" data-name="Grupo 82100" transform="translate(106.019 63.411)">
            <g id="Grupo_82097" data-name="Grupo 82097" transform="translate(2.07 1.937)">
              <path id="Trazado_183203" data-name="Trazado 183203" d="M237.157,241.322a.211.211,0,0,0,.106-.393l-13.591-7.847V164.67a.212.212,0,0,0-.105-.183l-9.131-5.272a.214.214,0,0,0-.288.078.211.211,0,0,0,.078.288l9.025,5.211V233.2a.211.211,0,0,0,.106.183l13.7,7.908A.215.215,0,0,0,237.157,241.322Z" transform="translate(-214.119 -159.188)" fill="#455a64"/>
            </g>
            <g id="Grupo_82098" data-name="Grupo 82098" transform="translate(0)">
              <path id="Trazado_183204" data-name="Trazado 183204" d="M256.448,158.839a.744.744,0,0,0,.375-.1.925.925,0,0,0,.409-.853,2.485,2.485,0,0,0-1.14-1.977h0a.837.837,0,0,0-1.352.781,2.487,2.487,0,0,0,1.14,1.976A1.143,1.143,0,0,0,256.448,158.839Zm-.566-2.563a2.088,2.088,0,0,1,.929,1.611.429.429,0,0,1-.72.416,2.091,2.091,0,0,1-.929-1.611.429.429,0,0,1,.72-.416Z" transform="translate(-254.74 -155.742)" fill="#455a64"/>
            </g>
            <g id="Grupo_82099" data-name="Grupo 82099" transform="translate(24.898 82.909)">
              <path id="Trazado_183205" data-name="Trazado 183205" d="M212.142,306.37a.741.741,0,0,0,.375-.1.929.929,0,0,0,.41-.853,2.49,2.49,0,0,0-1.14-1.978.838.838,0,0,0-1.353.781,2.49,2.49,0,0,0,1.141,1.976A1.142,1.142,0,0,0,212.142,306.37Zm-.924-2.675a.736.736,0,0,1,.358.113,2.088,2.088,0,0,1,.93,1.611.429.429,0,0,1-.72.415,2.09,2.09,0,0,1-.93-1.611.542.542,0,0,1,.2-.488A.324.324,0,0,1,211.218,303.7Z" transform="translate(-210.434 -303.272)" fill="#455a64"/>
            </g>
          </g>
        </g>
      </g>
      <g id="Character" transform="translate(-2389.244 -5985.288)">
        <g id="Character-2" data-name="Character">
          <g id="Grupo_82103" data-name="Grupo 82103" transform="translate(16.371 49.106)">
            <path id="Trazado_183206" data-name="Trazado 183206" d="M211.9,344.939s.836-17.572-.087-24.275a94.942,94.942,0,0,0-2.042-9.673s-.89-13.532-1.008-25.018a34.012,34.012,0,0,0-3.6-16.034l-19.04,4.325c-.4,2.919-2.174,22.67-2.49,39.933-.277,15.112.154,28.345.154,28.345l.02.8a7.183,7.183,0,0,1-.762,2.918,17.13,17.13,0,0,1-3.017,4.992c-.4.433-3.179,2.863-3.546,3.381-1.194,1.392,1.279,2.177,3.114,1.931,1.937-.258,4.947-.994,5.8-2.174.569-.786,1-3.539,1.58-4.336,1.97-2.687,2.78-3.842,2.794-4.7a8.847,8.847,0,0,0-.7-3.041c.158-1.83,4.11-16.888,4.178-22.219.033-2.54-.139-6.038-.139-6.038l3.067-17.594c1.185,4.392,3.333,12.587,4.033,16.774.856,5.114,3.764,20.009,5.593,26.779a35.739,35.739,0,0,1,1.224,5.345c0,.006.057.594.057.6.042.758.372,8.842.672,10.547.625,3.562,3.792,3.113,4.3.233.432-2.451-.108-10.041-.12-10.972Z" transform="translate(-175.227 -269.94)" fill="#ffa8a7"/>
            <path id="Trazado_183207" data-name="Trazado 183207" d="M178.8,403.4c.893.015.306,3.472.536,5.7.247,2.384,1.029,4.125,1.253,6.081a7.938,7.938,0,0,1-.745,5.005c-.623,1.428-3.753,3.385-4.941,1.343a11.479,11.479,0,0,1-1.309-6.6c.142-2.3.28-3.98.327-5.729.041-1.541-1.146-5.161.012-5.382l.057.6c.415.831,4.381,1.4,4.849-.193Z" transform="translate(-142.125 -328.397)" fill="#37474f"/>
            <g id="Grupo_82102" data-name="Grupo 82102" transform="translate(0 72.362)">
              <g id="Grupo_82101" data-name="Grupo 82101">
                <path id="Trazado_183208" data-name="Trazado 183208" d="M218.6,407.466a20.227,20.227,0,0,1-.01,4.169,4.068,4.068,0,0,1-2.2,1.755l-.771-4.249Z" transform="translate(-203.863 -402.542)" fill="#263238"/>
                <path id="Trazado_183209" data-name="Trazado 183209" d="M224.468,414.416l-3.79-1.244-.913-3.363,4.257,2.155Z" transform="translate(-211.941 -403.567)"/>
                <path id="Trazado_183210" data-name="Trazado 183210" d="M224.09,399.739l-.02-.8c-.515.25-1.648,4.4-3.179,7.239-1.4,2.6-4.17,4.043-5.07,5.173-1.2,1.511,1.136,3.459,4.891,2.656,1.864-.4,4.686-1.591,5.452-2.849s1.024-3.568,1.65-4.492,2.112-1.99,2.428-3.043a5.732,5.732,0,0,0-.008-2.906c-.294-.958-.551-2.116-.878-2.012l-.022.728c-.252.513-1.159,1.109-3.055,1.212A2.074,2.074,0,0,1,224.09,399.739Z" transform="translate(-215.503 -398.703)" fill="#37474f"/>
              </g>
            </g>
            <path id="Trazado_183211" data-name="Trazado 183211" d="M178.638,273.132s-2.328,16.763-2.743,29.422-.044,28.989-.044,28.989a8.262,8.262,0,0,0,4.183,1.064c2.877.129,3.871-.83,3.871-.83A54.793,54.793,0,0,0,185.938,322a41.272,41.272,0,0,0,0-6.567l2.568-16.89s3.073,16.015,3.443,18.026,3.881,16.464,3.881,16.464a7.909,7.909,0,0,0,5.061,1.259,6.346,6.346,0,0,0,3.888-1.688,102.322,102.322,0,0,0-.379-11.432c-.531-4.07-1.866-7.193-2.053-9.854s-.078-16.922-.384-22.688c-.343-6.473-.5-7.895-3.389-15.866Z" transform="translate(-167.506 -271.178)" fill="#27debf"/>
            <path id="Trazado_183212" data-name="Trazado 183212" d="M178.638,273.132s-2.328,16.763-2.743,29.422-.044,28.989-.044,28.989a8.262,8.262,0,0,0,4.183,1.064c2.877.129,3.871-.83,3.871-.83A54.793,54.793,0,0,0,185.938,322a41.272,41.272,0,0,0,0-6.567l2.568-16.89s3.073,16.015,3.443,18.026,3.881,16.464,3.881,16.464a7.909,7.909,0,0,0,5.061,1.259,6.346,6.346,0,0,0,3.888-1.688,102.322,102.322,0,0,0-.379-11.432c-.531-4.07-1.866-7.193-2.053-9.854s-.078-16.922-.384-22.688c-.343-6.473-.5-7.895-3.389-15.866Z" transform="translate(-167.506 -271.178)" fill="#214be5" opacity="0.4"/>
            <path id="Trazado_183213" data-name="Trazado 183213" d="M212.291,307.861l-2.136-10.58s-3.728-.973-5.465-3.249c0,0,.483,2.524,4.314,4.137l2.274,10.542-.773,10.891Z" transform="translate(-191.291 -280.492)" opacity="0.15"/>
          </g>
          <g id="Grupo_82104" data-name="Grupo 82104" transform="translate(0 11.207)">
            <path id="Trazado_183214" data-name="Trazado 183214" d="M215.5,204.291c1.978-2.718,2.936-2.2,3.733.6a32.287,32.287,0,0,0,1.535,4.046,10.97,10.97,0,0,1,.736-2.287A1.3,1.3,0,0,1,223,205.86c.235.1-.067.969-.013,2.01A12.775,12.775,0,0,1,223,211.5a5,5,0,0,0,.306,2.329c1.506,2.665,6.912,10.134,6.912,10.134,1.059-.626,4.445-2.5,8.979-4.735,3.9-1.926,4.3-2.216,7-2.331l.147,7.573c-4.417,1.9-7.962,3.721-15.119,6.392-2.236.834-4.051.983-5.205-.759-1.1-1.668-4.566-7.476-7-11.821-1.368-2.443-2.567-4.971-3.234-6.279C213.477,207.464,214.792,205.264,215.5,204.291Z" transform="translate(-214.482 -202.502)" fill="#ffa8a7"/>
            <path id="Trazado_183215" data-name="Trazado 183215" d="M199.055,227.982l6.1.781a22.446,22.446,0,0,0,1.127,11.036l-2.009,9.143c.071,1.064,1.967,3.825,3.383,8.209-3.218,4.308-17.176,5.242-22.323,1.461.4-4.915.833-7.47.991-9.009l-.1-5.89c-6.45-5.294,1.121-13.09,3.986-15.654h2.685Z" transform="translate(-158.488 -213.663)" fill="#455a64"/>
            <path id="Trazado_183216" data-name="Trazado 183216" d="M162.43,236.865a.778.778,0,0,0-.646-.442,2.443,2.443,0,0,0-.814.088,24.779,24.779,0,0,1-4.871.566c-.436.007-.949-.038-1.177-.41-.275-.448.062-1,.27-1.486a3.029,3.029,0,0,0,.191-1.735c-.064-.345-.386-1.015-.817-.5a13.492,13.492,0,0,1-2.062,2.106c-1.359,1.154-1.8,2.111-3.128,3.226a98,98,0,0,1-10.762,6.776c-4.8-7.775-7.171-15.409-10.913-15.682-1.987,1.917-1.872,8.467.194,11.605a109.244,109.244,0,0,0,6.883,9.613c1.422,1.634,3.43,2.645,6.108.852,3.454-2.313,6.636-4.965,8.109-6.1a16.338,16.338,0,0,1,3.131-2.192,5.459,5.459,0,0,1,1.794-.524q1.069-.086,2.141-.141a14.883,14.883,0,0,0,3.212-.525,2.975,2.975,0,0,0,1.375-.686,2.805,2.805,0,0,0,.567-.973c.121-.31.341-.555.469-.865a1.417,1.417,0,0,0-.083-1.353,2.282,2.282,0,0,0,.651-.473A.771.771,0,0,0,162.43,236.865Z" transform="translate(-81.031 -214.271)" fill="#ffa8a7"/>
          </g>
          <g id="Grupo_82107" data-name="Grupo 82107" transform="translate(25.437)">
            <path id="Trazado_183217" data-name="Trazado 183217" d="M201.9,206.329c.026-.986,3.321-3.714,4.966-6.2,1.524-2.306,3.307-8.285-1.433-10.977.12-3.855-1.891-5.033-4.9-6.086a15.932,15.932,0,0,0-10.811,1.083,5.819,5.819,0,0,0-2.763,2.736,3.565,3.565,0,0,0-.06,2.736c.2.673.029.717-.354,1.25a1.941,1.941,0,0,0-.378,1.407c.147,1.081,1.18,1.348,1.3,1.885a.531.531,0,0,1-.908.471,1.087,1.087,0,0,0,1.28.864c1.167-.064,2.2-1.647,2.2-1.647Z" transform="translate(-186.146 -182.559)" fill="#263238"/>
            <path id="Trazado_183218" data-name="Trazado 183218" d="M193.713,193.715c-1.494.647-2.914,2.932-2.893,9.324.018,5.417,1.679,6.788,2.518,7.189s2.477.2,4.069-.046L197.4,213.3s-1.621,2.406-.84,4.462c6.659-1.165,7.715-4.639,7.715-4.639l.117-7.106a2.257,2.257,0,0,0,2.528-.133c1.422-1.051,1.808-3.164.81-4.26a2.135,2.135,0,0,0-3.441.04,9.168,9.168,0,0,1-5.617-1.672C195.4,197.935,194.035,195.792,193.713,193.715Z" transform="translate(-188.561 -187.446)" fill="#ffa8a7"/>
            <g id="Grupo_82105" data-name="Grupo 82105" transform="translate(3.572 13.029)">
              <path id="Trazado_183219" data-name="Trazado 183219" d="M218.447,206.467a.72.72,0,1,1-.746-.723A.731.731,0,0,1,218.447,206.467Z" transform="translate(-217.009 -205.744)" fill="#263238"/>
            </g>
            <g id="Grupo_82106" data-name="Grupo 82106" transform="translate(9.2 13.297)">
              <path id="Trazado_183220" data-name="Trazado 183220" d="M208.35,207a.772.772,0,1,1-.8-.776A.785.785,0,0,1,208.35,207Z" transform="translate(-206.807 -206.221)" fill="#263238"/>
            </g>
            <path id="Trazado_183221" data-name="Trazado 183221" d="M210.962,215.136l-2.6.809a1.327,1.327,0,0,0,1.663,1A1.491,1.491,0,0,0,210.962,215.136Z" transform="translate(-201.14 -196.829)" fill="#b16668"/>
            <path id="Trazado_183222" data-name="Trazado 183222" d="M208.387,217.439a1.267,1.267,0,0,1,1.5-1.256,1.446,1.446,0,0,1-.973,1.208A1.248,1.248,0,0,1,208.387,217.439Z" transform="translate(-200.033 -197.278)" fill="#f28f8f"/>
            <path id="Trazado_183223" data-name="Trazado 183223" d="M217.154,203.579l1.853-.736a.957.957,0,0,0-1.284-.568A1.033,1.033,0,0,0,217.154,203.579Z" transform="translate(-214.047 -191.163)" fill="#263238"/>
            <path id="Trazado_183224" data-name="Trazado 183224" d="M199.421,206.283l-.019,3.009a1.413,1.413,0,0,1-1.448-1.456A1.555,1.555,0,0,1,199.421,206.283Z" transform="translate(-183.701 -192.951)" fill="#263238"/>
            <path id="Trazado_183225" data-name="Trazado 183225" d="M215.246,206.3l-.581,4.4-1.959-.952Z" transform="translate(-207.817 -192.959)" fill="#f28f8f"/>
            <path id="Trazado_183226" data-name="Trazado 183226" d="M200.04,221.018c1.677-.2,5.138-1.159,5.7-2.565a3.688,3.688,0,0,1-1.241,1.784c-1.045.9-4.463,1.829-4.463,1.829Z" transform="translate(-191.193 -198.282)" fill="#f28f8f"/>
          </g>
        </g>
      </g>
      <g id="Screens" transform="translate(-2505.721 -6037.488)">
        <g id="Window-2" data-name="Window" transform="translate(65.818 30.829)">
          <g id="Grupo_82110" data-name="Grupo 82110">
            <g id="Grupo_82108" data-name="Grupo 82108">
              <path id="Trazado_183227" data-name="Trazado 183227" d="M266.46,82.431a1.87,1.87,0,0,1,1.891.182h0l5.3,3.061a2.422,2.422,0,0,1,1.023,1.943v3.373a3.552,3.552,0,0,0,1.656,2.75l9.991,5.849V97.646a.926.926,0,0,1,.436-.863c.338-.192,2.217-1.281,2.478-1.431a1.353,1.353,0,0,1,1.3.1l1.634.915.394.225,2.668,1.543a3.438,3.438,0,0,1,.428.294c.069.057.134.119.2.18a4.744,4.744,0,0,1,1.484,3.189v66.388a1.492,1.492,0,0,1-.613,1.366c-.383.225-2.106,1.217-2.49,1.438a1.483,1.483,0,0,1-1.494-.15l-27.44-15.842a4.685,4.685,0,0,1-2.115-3.663V85.591a1.87,1.87,0,0,1,.789-1.728C264.425,83.609,266.018,82.688,266.46,82.431Z" transform="translate(-263.192 -82.25)" fill="#e0e0e0"/>
              <path id="Trazado_183228" data-name="Trazado 183228" d="M264.455,106.859a1.411,1.411,0,0,1,1.228.134l1.633.918.394.226,2.668,1.543a3.361,3.361,0,0,1,.428.294c.069.057.134.118.2.179a4.8,4.8,0,0,1,.776.956l2.482-1.434a4.756,4.756,0,0,0-.773-.956c-.069-.061-.134-.123-.2-.18a3.479,3.479,0,0,0-.428-.294L270.2,106.7l-.394-.225-1.636-.914a1.343,1.343,0,0,0-1.3-.1C266.62,105.609,264.925,106.588,264.455,106.859Z" transform="translate(-240.824 -92.364)" fill="#f0f0f0"/>
              <path id="Trazado_183229" data-name="Trazado 183229" d="M304.059,83.864a1.861,1.861,0,0,1,1.889.184l5.3,3.061a1.942,1.942,0,0,1,.73.822l2.482-1.434a1.958,1.958,0,0,0-.727-.822l-5.3-3.061a1.879,1.879,0,0,0-1.889-.183C306.1,82.69,304.506,83.608,304.059,83.864Z" transform="translate(-303.272 -82.251)" fill="#f0f0f0"/>
              <path id="Trazado_183230" data-name="Trazado 183230" d="M302.079,91.24a2.5,2.5,0,0,1,.294,1.12v3.372a3.365,3.365,0,0,0,.814,2.011l2.486-1.434a3.408,3.408,0,0,1-.818-2.011V90.927a2.5,2.5,0,0,0-.294-1.121Z" transform="translate(-293.375 -85.56)" opacity="0.1"/>
            </g>
            <g id="Grupo_82109" data-name="Grupo 82109" transform="translate(0 1.433)">
              <path id="Trazado_183231" data-name="Trazado 183231" d="M270.287,85.164h0l5.3,3.061a2.421,2.421,0,0,1,1.023,1.942v3.374a3.552,3.552,0,0,0,1.656,2.749l10.818,6.331c.914.528,1.656.153,1.656-.837V98.763c0-.975.9-1.22,1.73-.765l1.635.915.394.226,2.668,1.543a3.482,3.482,0,0,1,.428.294c.069.057.134.119.2.18a4.746,4.746,0,0,1,1.483,3.189v66.388c0,1.35-.948,1.9-2.114,1.22l-27.44-15.842a4.685,4.685,0,0,1-2.115-3.663V86.708C267.61,85.007,268.814,84.313,270.287,85.164Z" transform="translate(-267.61 -84.8)" fill="#fafafa"/>
              <path id="Trazado_183232" data-name="Trazado 183232" d="M269.1,85.31c-.906,0-.977,1.07-.977,1.4v65.74a4.173,4.173,0,0,0,1.86,3.221l27.441,15.843a1.429,1.429,0,0,0,.69.221c.6,0,.659-.7.659-1V104.345a4.226,4.226,0,0,0-1.312-2.808l-.07-.063c-.04-.036-.079-.072-.114-.1a2.851,2.851,0,0,0-.364-.25l-2.665-1.542-.389-.223-1.631-.913a1.18,1.18,0,0,0-.548-.158c-.291,0-.427.151-.427.476v3.021a1.417,1.417,0,0,1-1.388,1.586,2.073,2.073,0,0,1-1.035-.309l-10.816-6.33A4.059,4.059,0,0,1,276.1,93.54V90.167a1.916,1.916,0,0,0-.768-1.5l-5.3-3.061a1.932,1.932,0,0,0-.935-.3m0-.51a2.414,2.414,0,0,1,1.19.364l5.3,3.061a2.421,2.421,0,0,1,1.023,1.942V93.54a3.552,3.552,0,0,0,1.656,2.749l10.818,6.331a1.581,1.581,0,0,0,.778.239c.522,0,.878-.391.878-1.076V98.763a.893.893,0,0,1,.937-.986,1.673,1.673,0,0,1,.793.221l1.635.914.394.226,2.668,1.543a3.477,3.477,0,0,1,.428.294c.069.057.134.119.2.18a4.745,4.745,0,0,1,1.484,3.189v66.388c0,.957-.477,1.511-1.169,1.511a1.909,1.909,0,0,1-.945-.291l-27.44-15.842a4.685,4.685,0,0,1-2.115-3.663V86.708c0-1.207.608-1.908,1.486-1.908Z" transform="translate(-267.609 -84.8)" fill="#e0e0e0"/>
            </g>
          </g>
          <g id="Grupo_82111" data-name="Grupo 82111" transform="translate(3.086 13.516)">
            <path id="Trazado_183233" data-name="Trazado 183233" d="M299.1,120.652,274.257,106.3v23.914L299.1,144.566Z" transform="translate(-274.257 -106.301)" fill="#214be5"/>
            <path id="Trazado_183234" data-name="Trazado 183234" d="M299.1,156.866V147.3l-8.279-10.761-10.355,5.978,2.129-2.135-3.991-6-4.351,3.647v4.487Z" transform="translate(-274.257 -118.601)" opacity="0.2"/>
            <path id="Trazado_183235" data-name="Trazado 183235" d="M302.292,124.248c-1.114-.643-2.017-.122-2.017,1.164a4.458,4.458,0,0,0,2.017,3.494c1.114.643,2.017.122,2.017-1.164A4.458,4.458,0,0,0,302.292,124.248Z" transform="translate(-294.083 -114.042)" opacity="0.2"/>
          </g>
          <g id="Grupo_82112" data-name="Grupo 82112" transform="translate(3.746 43.7)">
            <path id="Trazado_183236" data-name="Trazado 183236" d="M276.323,176.294c-1.144-.66-2.071-.125-2.071,1.2a4.575,4.575,0,0,0,2.069,3.586c1.142.659,2.07.124,2.071-1.2A4.571,4.571,0,0,0,276.323,176.294Z" transform="translate(-254.202 -167.02)" fill="#214be5"/>
            <path id="Trazado_183237" data-name="Trazado 183237" d="M297.08,166.512l-11.123-6.41c-.366-.211-.658-.039-.653.383l0,.217a1.488,1.488,0,0,0,.672,1.147l11.1,6.409c.366.211.662.04.662-.382v-.217A1.463,1.463,0,0,0,297.08,166.512Z" transform="translate(-279.763 -160.012)" fill="#214be5"/>
            <path id="Trazado_183238" data-name="Trazado 183238" d="M302.8,170.292l-17.015-9.817c-.268-.155-.483-.029-.479.281l0,.158a1.092,1.092,0,0,0,.492.841l17,9.816c.268.155.486.029.486-.28v-.158A1.073,1.073,0,0,0,302.8,170.292Z" transform="translate(-285.304 -160.186)" fill="#214be5"/>
          </g>
          <g id="Grupo_82119" data-name="Grupo 82119" transform="translate(2.995 63.887)">
            <g id="Grupo_82113" data-name="Grupo 82113" transform="translate(20.396 12.404)">
              <path id="Trazado_183239" data-name="Trazado 183239" d="M277.552,224.411a.122.122,0,0,0,.063-.017.127.127,0,0,0,.064-.11V221.9l.609.352a.13.13,0,0,0,.155-.02.128.128,0,0,0,.019-.155l-2.35-4.01a.126.126,0,0,0-.171-.047l-2.35,1.3a.126.126,0,0,0-.066.11.128.128,0,0,0,.064.112l.732.423,0,2.528a.127.127,0,0,0,.064.111l3.107,1.793A.126.126,0,0,0,277.552,224.411Zm0-2.858a.127.127,0,0,0-.128.127v2.383l-2.852-1.646,0-2.528a.128.128,0,0,0-.064-.111l-.6-.346,2.043-1.128L278,221.791l-.383-.221A.122.122,0,0,0,277.552,221.553Z" transform="translate(-273.525 -218.004)" fill="#214be5"/>
            </g>
            <g id="Grupo_82115" data-name="Grupo 82115">
              <g id="Grupo_82114" data-name="Grupo 82114">
                <path id="Trazado_183240" data-name="Trazado 183240" d="M313.087,201.887l.024,0,.476-.093a2.105,2.105,0,0,0,1.668-2.078,3.012,3.012,0,0,0-.94-2.4.82.82,0,0,0-.807-.176.762.762,0,0,0-.38.359A2.256,2.256,0,0,0,312,195.984a.666.666,0,0,0-.658.08,1.493,1.493,0,0,0-.4,1.32,8.528,8.528,0,0,0,1.565,3.792l.47.658A.128.128,0,0,0,313.087,201.887Zm.662-4.538a.694.694,0,0,1,.41.169,2.729,2.729,0,0,1,.842,2.174,1.86,1.86,0,0,1-1.462,1.849l-.4.077-.422-.591a8.26,8.26,0,0,1-1.518-3.665,1.274,1.274,0,0,1,.3-1.1.409.409,0,0,1,.415-.044,2.241,2.241,0,0,1,1.046,1.7.137.137,0,0,0-.007.043.192.192,0,0,0,.147.165h0a.128.128,0,0,0,.126-.108.772.772,0,0,1,.375-.642A.4.4,0,0,1,313.749,197.349Z" transform="translate(-310.939 -195.933)" fill="#214be5"/>
              </g>
            </g>
            <g id="Grupo_82118" data-name="Grupo 82118" transform="translate(11.327 6.301)">
              <g id="Grupo_82116" data-name="Grupo 82116" transform="translate(0 3.135)">
                <path id="Trazado_183241" data-name="Trazado 183241" d="M296.014,216.186a.13.13,0,0,0,.064-.017.128.128,0,0,0,.064-.111v-.688a2.7,2.7,0,0,0-1.131-2.15l-.61-.352a.807.807,0,0,0-.825-.057,1.07,1.07,0,0,0-.433.974v.688a.127.127,0,0,0,.064.11l2.744,1.585A.128.128,0,0,0,296.014,216.186Zm-2.1-3.208a.732.732,0,0,1,.36.111h0l.61.352a2.422,2.422,0,0,1,1,1.929v.468L293.4,214.4v-.615a.834.834,0,0,1,.305-.753A.413.413,0,0,1,293.914,212.978Zm.423,0h0Z" transform="translate(-293.143 -212.723)" fill="#214be5"/>
              </g>
              <g id="Grupo_82117" data-name="Grupo 82117" transform="translate(0.459)">
                <path id="Trazado_183242" data-name="Trazado 183242" d="M295.364,210.052a.593.593,0,0,0,.3-.079.934.934,0,0,0,.379-.849,2.292,2.292,0,0,0-.977-1.854.711.711,0,0,0-.724-.048.935.935,0,0,0-.379.849,2.294,2.294,0,0,0,.976,1.854A.859.859,0,0,0,295.364,210.052Zm-.725-2.653a.625.625,0,0,1,.3.093,2.047,2.047,0,0,1,.849,1.633.7.7,0,0,1-.252.627.474.474,0,0,1-.47-.048,2.048,2.048,0,0,1-.848-1.633.7.7,0,0,1,.252-.627A.33.33,0,0,1,294.639,207.4Z" transform="translate(-293.961 -207.145)" fill="#214be5"/>
              </g>
            </g>
          </g>
          <g id="Grupo_82120" data-name="Grupo 82120" transform="translate(3.082 48.355)">
            <path id="Trazado_183243" data-name="Trazado 183243" d="M275.365,168.446,298,181.522a2.439,2.439,0,0,1,1.1,1.912v2.228c0,.7-.495.99-1.1.638L275.36,173.231a2.436,2.436,0,0,1-1.1-1.912l0-2.237C274.26,168.379,274.755,168.094,275.365,168.446Z" transform="translate(-274.257 -168.295)" fill="#214be5"/>
            <path id="Trazado_183244" data-name="Trazado 183244" d="M275.365,168.446,298,181.522a2.439,2.439,0,0,1,1.1,1.912v2.228c0,.7-.495.99-1.1.638L275.36,173.231a2.436,2.436,0,0,1-1.1-1.912l0-2.237C274.26,168.379,274.755,168.094,275.365,168.446Z" transform="translate(-274.257 -168.295)" fill="#214be5" opacity="0.5"/>
          </g>
          <g id="Grupo_82121" data-name="Grupo 82121" transform="translate(3.082 55.531)">
            <path id="Trazado_183245" data-name="Trazado 183245" d="M275.365,181.215,298,194.291a2.439,2.439,0,0,1,1.1,1.912v2.228c0,.7-.495.99-1.1.638L275.36,186a2.437,2.437,0,0,1-1.1-1.912l0-2.237C274.26,181.148,274.755,180.863,275.365,181.215Z" transform="translate(-274.257 -181.064)" fill="#214be5"/>
            <path id="Trazado_183246" data-name="Trazado 183246" d="M275.365,181.215,298,194.291a2.439,2.439,0,0,1,1.1,1.912v2.228c0,.7-.495.99-1.1.638L275.36,186a2.437,2.437,0,0,1-1.1-1.912l0-2.237C274.26,181.148,274.755,180.863,275.365,181.215Z" transform="translate(-274.257 -181.064)" fill="#214be5" opacity="0.7"/>
          </g>
        </g>
        <g id="Window-3" data-name="Window" transform="translate(12.426)">
          <g id="Grupo_82124" data-name="Grupo 82124">
            <g id="Grupo_82122" data-name="Grupo 82122">
              <path id="Trazado_183247" data-name="Trazado 183247" d="M361.468,27.573a1.87,1.87,0,0,1,1.89.183h0l5.3,3.061a2.421,2.421,0,0,1,1.023,1.942v3.374a3.552,3.552,0,0,0,1.656,2.749l9.992,5.849V42.788a.925.925,0,0,1,.436-.863c.338-.193,2.217-1.282,2.478-1.432a1.355,1.355,0,0,1,1.3.1l1.635.914.393.226,2.668,1.543a3.323,3.323,0,0,1,.428.294c.069.057.134.119.2.179a4.744,4.744,0,0,1,1.484,3.189v66.388a1.491,1.491,0,0,1-.613,1.366c-.383.225-2.106,1.217-2.489,1.438a1.483,1.483,0,0,1-1.495-.151l-27.44-15.842a4.686,4.686,0,0,1-2.115-3.664V30.734a1.87,1.87,0,0,1,.789-1.728C359.432,28.752,361.025,27.831,361.468,27.573Z" transform="translate(-358.199 -27.393)" fill="#e0e0e0"/>
              <path id="Trazado_183248" data-name="Trazado 183248" d="M359.462,52a1.408,1.408,0,0,1,1.227.134l1.633.918.394.225,2.668,1.543a3.437,3.437,0,0,1,.428.294c.069.057.134.119.2.18a4.772,4.772,0,0,1,.776.956l2.482-1.434a4.768,4.768,0,0,0-.772-.956c-.069-.061-.134-.122-.2-.18a3.413,3.413,0,0,0-.428-.294L365.2,51.845l-.394-.226-1.636-.914a1.343,1.343,0,0,0-1.3-.1C361.626,50.751,359.932,51.73,359.462,52Z" transform="translate(-335.83 -37.506)" fill="#f0f0f0"/>
              <path id="Trazado_183249" data-name="Trazado 183249" d="M399.066,29.007a1.86,1.86,0,0,1,1.889.183l5.3,3.061a1.946,1.946,0,0,1,.73.822l2.482-1.434a1.955,1.955,0,0,0-.727-.822l-5.3-3.061a1.878,1.878,0,0,0-1.889-.184C401.1,27.833,399.513,28.751,399.066,29.007Z" transform="translate(-398.279 -27.393)" fill="#f0f0f0"/>
              <path id="Trazado_183250" data-name="Trazado 183250" d="M397.086,36.383a2.5,2.5,0,0,1,.294,1.121v3.372a3.368,3.368,0,0,0,.815,2.011l2.485-1.434a3.405,3.405,0,0,1-.818-2.011V36.069a2.5,2.5,0,0,0-.294-1.12Z" transform="translate(-388.382 -30.702)" opacity="0.1"/>
            </g>
            <g id="Grupo_82123" data-name="Grupo 82123" transform="translate(0 1.433)">
              <path id="Trazado_183251" data-name="Trazado 183251" d="M365.293,30.307h0l5.3,3.061a2.422,2.422,0,0,1,1.023,1.943v3.373a3.55,3.55,0,0,0,1.656,2.749l10.818,6.332c.914.527,1.656.153,1.656-.838V43.905c0-.974.9-1.22,1.73-.764l1.635.915.394.225,2.668,1.543a3.483,3.483,0,0,1,.428.294c.069.057.134.119.2.18a4.743,4.743,0,0,1,1.484,3.189v66.388c0,1.35-.949,1.9-2.115,1.219l-27.44-15.842a4.686,4.686,0,0,1-2.115-3.664V31.851C362.616,30.15,363.82,29.455,365.293,30.307Z" transform="translate(-362.616 -29.943)" fill="#fafafa"/>
              <path id="Trazado_183252" data-name="Trazado 183252" d="M364.1,30.453c-.906,0-.977,1.07-.977,1.4V97.59a4.175,4.175,0,0,0,1.86,3.222l27.441,15.843a1.431,1.431,0,0,0,.69.221c.6,0,.659-.7.659-1V49.487a4.224,4.224,0,0,0-1.312-2.807l-.073-.065c-.039-.035-.078-.071-.112-.1a2.869,2.869,0,0,0-.364-.251l-2.666-1.542-.389-.223-1.631-.913a1.186,1.186,0,0,0-.549-.158c-.291,0-.427.151-.427.475v3.021a1.417,1.417,0,0,1-1.388,1.586,2.078,2.078,0,0,1-1.035-.309l-10.815-6.33a4.056,4.056,0,0,1-1.911-3.191V35.31a1.914,1.914,0,0,0-.769-1.5l-5.3-3.061a1.938,1.938,0,0,0-.935-.3m0-.51a2.414,2.414,0,0,1,1.19.364l5.3,3.061a2.422,2.422,0,0,1,1.023,1.943v3.373a3.552,3.552,0,0,0,1.656,2.75l10.818,6.331a1.587,1.587,0,0,0,.778.239c.522,0,.878-.391.878-1.077V43.905a.893.893,0,0,1,.936-.986,1.673,1.673,0,0,1,.794.221l1.635.915.394.225,2.668,1.543a3.439,3.439,0,0,1,.428.294c.069.057.134.119.2.18a4.743,4.743,0,0,1,1.484,3.189v66.388c0,.957-.477,1.51-1.169,1.51a1.909,1.909,0,0,1-.945-.291l-27.44-15.842a4.686,4.686,0,0,1-2.115-3.664V31.851c0-1.207.607-1.908,1.486-1.908Z" transform="translate(-362.616 -29.943)" fill="#e0e0e0"/>
            </g>
          </g>
          <g id="Grupo_82125" data-name="Grupo 82125" transform="translate(3.086 13.516)">
            <path id="Trazado_183253" data-name="Trazado 183253" d="M394.111,65.795,369.264,51.444V80.19l24.847,14.351Z" transform="translate(-369.264 -51.444)" fill="#214be5"/>
            <path id="Trazado_183254" data-name="Trazado 183254" d="M394.111,109.295V99.726l-8.536-14.6-10.1,8.623,2.071-3.587-3.178-5.036L369.264,89.3v5.647Z" transform="translate(-369.264 -66.197)" opacity="0.2"/>
            <path id="Trazado_183255" data-name="Trazado 183255" d="M397.3,68.449c-1.114-.643-2.018-.121-2.018,1.164a4.458,4.458,0,0,0,2.018,3.494c1.114.643,2.017.122,2.017-1.164A4.459,4.459,0,0,0,397.3,68.449Z" transform="translate(-389.091 -58.772)" opacity="0.2"/>
          </g>
          <g id="Grupo_82132" data-name="Grupo 82132" transform="translate(3.907 64.179)">
            <g id="Grupo_82126" data-name="Grupo 82126" transform="translate(19.484 12.112)">
              <path id="Trazado_183256" data-name="Trazado 183256" d="M372.559,169.553a.128.128,0,0,0,.063-.017.126.126,0,0,0,.064-.111v-2.383l.61.352a.127.127,0,0,0,.173-.174l-2.35-4.01a.125.125,0,0,0-.171-.047l-2.35,1.3a.127.127,0,0,0,0,.221l.732.423,0,2.528a.127.127,0,0,0,.063.11l3.107,1.794A.128.128,0,0,0,372.559,169.553Zm0-2.858a.127.127,0,0,0-.128.128v2.383l-2.852-1.647,0-2.528a.127.127,0,0,0-.064-.11l-.6-.346,2.043-1.128,2.044,3.487-.383-.221A.128.128,0,0,0,372.559,166.7Z" transform="translate(-368.532 -163.146)" fill="#214be5"/>
            </g>
            <g id="Grupo_82128" data-name="Grupo 82128" transform="translate(9.766 5.864)">
              <g id="Grupo_82127" data-name="Grupo 82127" transform="translate(0)">
                <path id="Trazado_183257" data-name="Trazado 183257" d="M389.093,157.983l.024,0,.477-.093a2.107,2.107,0,0,0,1.668-2.078,3.016,3.016,0,0,0-.94-2.4.814.814,0,0,0-.807-.176.76.76,0,0,0-.38.359,2.262,2.262,0,0,0-1.125-1.516.672.672,0,0,0-.659.08,1.492,1.492,0,0,0-.4,1.32,8.5,8.5,0,0,0,1.565,3.793l.469.658A.127.127,0,0,0,389.093,157.983Zm.662-4.537a.692.692,0,0,1,.411.169,2.727,2.727,0,0,1,.842,2.174,1.863,1.863,0,0,1-1.463,1.849l-.4.077-.422-.591a8.241,8.241,0,0,1-1.518-3.665,1.281,1.281,0,0,1,.3-1.1.41.41,0,0,1,.416-.044,2.241,2.241,0,0,1,1.046,1.7.13.13,0,0,0-.007.042.191.191,0,0,0,.146.165h0a.127.127,0,0,0,.126-.108.771.771,0,0,1,.376-.642A.385.385,0,0,1,389.755,153.445Z" transform="translate(-386.946 -152.029)" fill="#214be5"/>
              </g>
            </g>
            <g id="Grupo_82131" data-name="Grupo 82131" transform="translate(0)">
              <g id="Grupo_82129" data-name="Grupo 82129" transform="translate(0 3.135)">
                <path id="Trazado_183258" data-name="Trazado 183258" d="M409.553,150.636a.13.13,0,0,0,.064-.017.127.127,0,0,0,.064-.11v-.689a2.7,2.7,0,0,0-1.131-2.149l-.61-.352h0a.809.809,0,0,0-.826-.057,1.071,1.071,0,0,0-.433.974v.689a.126.126,0,0,0,.064.11l2.745,1.584A.128.128,0,0,0,409.553,150.636Zm-1.74-3.1.61.352a2.422,2.422,0,0,1,1,1.929v.468l-2.49-1.437v-.615a.834.834,0,0,1,.305-.752.562.562,0,0,1,.572.056Z" transform="translate(-406.681 -147.174)" fill="#214be5"/>
              </g>
              <g id="Grupo_82130" data-name="Grupo 82130" transform="translate(0.46)">
                <path id="Trazado_183259" data-name="Trazado 183259" d="M408.9,144.5a.592.592,0,0,0,.3-.079.935.935,0,0,0,.379-.849,2.294,2.294,0,0,0-.977-1.854.71.71,0,0,0-.724-.048.934.934,0,0,0-.379.848,2.293,2.293,0,0,0,.976,1.854A.855.855,0,0,0,408.9,144.5Zm-.725-2.653a.625.625,0,0,1,.3.093,2.049,2.049,0,0,1,.849,1.633.7.7,0,0,1-.251.628.478.478,0,0,1-.47-.048,2.05,2.05,0,0,1-.848-1.634.7.7,0,0,1,.252-.627A.33.33,0,0,1,408.177,141.849Z" transform="translate(-407.499 -141.595)" fill="#214be5"/>
              </g>
            </g>
          </g>
          <path id="Trazado_183260" data-name="Trazado 183260" d="M386.79,123.731l-16.431-9.486c-.61-.352-1.1-.1-1.1.558a2.368,2.368,0,0,0,1.1,1.833l16.432,9.487c.609.352,1.1.1,1.1-.559A2.369,2.369,0,0,0,386.79,123.731Z" transform="translate(-359.955 -65.366)" fill="#455a64"/>
          <path id="Trazado_183261" data-name="Trazado 183261" d="M392.036,129.887l-21.678-12.521c-.61-.352-1.1-.1-1.1.558a2.367,2.367,0,0,0,1.1,1.833l21.678,12.521c.609.352,1.1.1,1.1-.559A2.367,2.367,0,0,0,392.036,129.887Z" transform="translate(-365.201 -66.733)" fill="#455a64"/>
          <g id="Grupo_82133" data-name="Grupo 82133" transform="translate(3.748 58.682)">
            <path id="Trazado_183262" data-name="Trazado 183262" d="M371.326,148.095c-1.144-.66-2.071-.125-2.071,1.2a4.574,4.574,0,0,0,2.068,3.585c1.143.66,2.07.124,2.071-1.2A4.571,4.571,0,0,0,371.326,148.095Z" transform="translate(-349.204 -138.821)" fill="#214be5"/>
            <path id="Trazado_183263" data-name="Trazado 183263" d="M392.083,138.313,380.96,131.9c-.366-.211-.658-.039-.653.383l0,.217a1.488,1.488,0,0,0,.672,1.147l11.1,6.409c.366.211.662.04.662-.382v-.216A1.464,1.464,0,0,0,392.083,138.313Z" transform="translate(-374.766 -131.813)" fill="#214be5"/>
            <path id="Trazado_183264" data-name="Trazado 183264" d="M397.8,142.093l-17.015-9.816c-.268-.155-.483-.029-.479.28l0,.159a1.09,1.09,0,0,0,.492.841l17,9.816c.269.155.486.029.486-.28v-.159A1.073,1.073,0,0,0,397.8,142.093Z" transform="translate(-380.307 -131.987)" fill="#214be5"/>
          </g>
        </g>
        <g id="Window-4" data-name="Window" transform="translate(65.818 118.159)">
          <g id="Grupo_82136" data-name="Grupo 82136">
            <g id="Grupo_82134" data-name="Grupo 82134" transform="translate(0)">
              <path id="Trazado_183265" data-name="Trazado 183265" d="M266.461,237.828a1.871,1.871,0,0,1,1.891.182h0l5.3,3.061a2.423,2.423,0,0,1,1.023,1.943v3.374a3.552,3.552,0,0,0,1.656,2.749l9.992,5.849v-1.942a.925.925,0,0,1,.436-.863c.338-.192,2.218-1.281,2.478-1.431a1.352,1.352,0,0,1,1.3.1l1.635.915.394.225,2.668,1.543a3.433,3.433,0,0,1,.428.294c.069.057.134.119.2.18a4.744,4.744,0,0,1,1.484,3.189v66.388a1.492,1.492,0,0,1-.613,1.366c-.383.225-2.106,1.217-2.489,1.438a1.483,1.483,0,0,1-1.495-.15l-27.44-15.842a4.685,4.685,0,0,1-2.115-3.663v-65.74a1.87,1.87,0,0,1,.789-1.728C264.426,239.006,266.019,238.086,266.461,237.828Z" transform="translate(-263.193 -237.647)" fill="#e0e0e0"/>
              <path id="Trazado_183266" data-name="Trazado 183266" d="M264.456,262.256a1.41,1.41,0,0,1,1.227.134l1.633.918.394.226,2.668,1.543a3.354,3.354,0,0,1,.428.294c.069.057.134.119.2.18a4.77,4.77,0,0,1,.776.956l2.482-1.434a4.738,4.738,0,0,0-.773-.956c-.069-.061-.134-.122-.2-.18a3.482,3.482,0,0,0-.428-.294L270.2,262.1l-.394-.225-1.636-.914a1.343,1.343,0,0,0-1.3-.1C266.62,261.006,264.926,261.985,264.456,262.256Z" transform="translate(-240.824 -247.761)" fill="#f0f0f0"/>
              <path id="Trazado_183267" data-name="Trazado 183267" d="M304.06,239.261a1.861,1.861,0,0,1,1.889.184l5.3,3.061a1.943,1.943,0,0,1,.73.822l2.482-1.434a1.959,1.959,0,0,0-.727-.822l-5.3-3.061a1.878,1.878,0,0,0-1.889-.183C306.1,238.087,304.507,239,304.06,239.261Z" transform="translate(-303.273 -237.648)" fill="#f0f0f0"/>
              <path id="Trazado_183268" data-name="Trazado 183268" d="M302.08,246.637a2.5,2.5,0,0,1,.294,1.12v3.372a3.369,3.369,0,0,0,.814,2.011l2.486-1.434a3.408,3.408,0,0,1-.818-2.011v-3.372a2.5,2.5,0,0,0-.294-1.121Z" transform="translate(-293.376 -240.957)" opacity="0.1"/>
            </g>
            <g id="Grupo_82135" data-name="Grupo 82135" transform="translate(0 1.433)">
              <path id="Trazado_183269" data-name="Trazado 183269" d="M270.287,240.561h0l5.3,3.061a2.421,2.421,0,0,1,1.023,1.942v3.374a3.552,3.552,0,0,0,1.656,2.749l10.818,6.331c.914.528,1.656.153,1.656-.837V254.16c0-.975.9-1.22,1.73-.764l1.635.914.394.226,2.668,1.543a3.375,3.375,0,0,1,.428.294c.069.057.134.119.2.18a4.744,4.744,0,0,1,1.484,3.189v66.388c0,1.349-.949,1.9-2.115,1.219l-27.44-15.842a4.685,4.685,0,0,1-2.115-3.663v-65.74C267.61,240.405,268.814,239.71,270.287,240.561Z" transform="translate(-267.61 -240.198)" fill="#fafafa"/>
              <path id="Trazado_183270" data-name="Trazado 183270" d="M269.1,240.708c-.906,0-.977,1.07-.977,1.4v65.739a4.173,4.173,0,0,0,1.86,3.221l27.441,15.843a1.43,1.43,0,0,0,.69.221c.6,0,.659-.7.659-1V259.742a4.224,4.224,0,0,0-1.312-2.808l-.071-.064c-.04-.036-.079-.071-.113-.1a2.887,2.887,0,0,0-.364-.25l-2.666-1.542-.389-.223-1.631-.913a1.18,1.18,0,0,0-.548-.158c-.291,0-.427.151-.427.476v3.021a1.417,1.417,0,0,1-1.388,1.586,2.073,2.073,0,0,1-1.035-.309l-10.816-6.33a4.059,4.059,0,0,1-1.911-3.191v-3.374a1.915,1.915,0,0,0-.768-1.5l-5.3-3.061a1.932,1.932,0,0,0-.935-.3m0-.51a2.413,2.413,0,0,1,1.19.363l5.3,3.061a2.421,2.421,0,0,1,1.023,1.942v3.374a3.552,3.552,0,0,0,1.656,2.749l10.818,6.331a1.582,1.582,0,0,0,.778.239c.522,0,.878-.391.878-1.077V254.16a.893.893,0,0,1,.936-.986,1.673,1.673,0,0,1,.793.221l1.635.914.394.226,2.668,1.543a3.365,3.365,0,0,1,.428.294c.069.057.134.118.2.179a4.744,4.744,0,0,1,1.484,3.189v66.388c0,.956-.477,1.51-1.169,1.51a1.909,1.909,0,0,1-.945-.291l-27.44-15.842a4.685,4.685,0,0,1-2.115-3.663V242.106c0-1.208.608-1.908,1.486-1.908Z" transform="translate(-267.61 -240.198)" fill="#e0e0e0"/>
            </g>
          </g>
          <g id="Grupo_82143" data-name="Grupo 82143" transform="translate(3.907 64.179)">
            <g id="Grupo_82137" data-name="Grupo 82137" transform="translate(19.483 12.112)">
              <path id="Trazado_183271" data-name="Trazado 183271" d="M277.553,379.808a.127.127,0,0,0,.127-.128V377.3l.609.352a.129.129,0,0,0,.155-.02.127.127,0,0,0,.019-.154l-2.35-4.01a.124.124,0,0,0-.171-.047l-2.35,1.3a.127.127,0,0,0,0,.221l.732.423,0,2.528a.127.127,0,0,0,.064.11l3.107,1.794A.128.128,0,0,0,277.553,379.808Zm0-2.858a.127.127,0,0,0-.128.128v2.383l-2.852-1.647,0-2.528a.127.127,0,0,0-.063-.11l-.6-.346,2.044-1.128L278,377.188l-.383-.221A.128.128,0,0,0,277.553,376.95Z" transform="translate(-273.526 -373.401)" fill="#214be5"/>
            </g>
            <g id="Grupo_82139" data-name="Grupo 82139" transform="translate(9.765 5.864)">
              <g id="Grupo_82138" data-name="Grupo 82138" transform="translate(0)">
                <path id="Trazado_183272" data-name="Trazado 183272" d="M294.088,368.237l.024,0,.477-.093a2.1,2.1,0,0,0,1.667-2.077,3.013,3.013,0,0,0-.939-2.4.817.817,0,0,0-.807-.176.765.765,0,0,0-.381.358A2.258,2.258,0,0,0,293,362.335a.671.671,0,0,0-.658.08,1.492,1.492,0,0,0-.4,1.32,8.517,8.517,0,0,0,1.565,3.793l.469.656A.125.125,0,0,0,294.088,368.237Zm.662-4.537a.691.691,0,0,1,.411.169,2.731,2.731,0,0,1,.842,2.174,1.861,1.861,0,0,1-1.462,1.849l-.4.077-.421-.59a8.253,8.253,0,0,1-1.518-3.666,1.276,1.276,0,0,1,.3-1.1.411.411,0,0,1,.415-.043,2.238,2.238,0,0,1,1.046,1.7.144.144,0,0,0-.007.042.123.123,0,0,0,.027.078.127.127,0,0,0,.119.087h0a.128.128,0,0,0,.126-.108.771.771,0,0,1,.376-.641A.374.374,0,0,1,294.75,363.7Z" transform="translate(-291.941 -362.284)" fill="#214be5"/>
              </g>
            </g>
            <g id="Grupo_82142" data-name="Grupo 82142" transform="translate(0)">
              <g id="Grupo_82140" data-name="Grupo 82140" transform="translate(0 3.135)">
                <path id="Trazado_183273" data-name="Trazado 183273" d="M314.546,360.891a.127.127,0,0,0,.128-.127v-.689a2.7,2.7,0,0,0-1.131-2.15l-.61-.352a.807.807,0,0,0-.826-.057,1.071,1.071,0,0,0-.432.974v.688a.127.127,0,0,0,.063.11l2.744,1.585A.128.128,0,0,0,314.546,360.891Zm-2.1-3.208a.738.738,0,0,1,.36.111h0l.609.352a2.421,2.421,0,0,1,1,1.929v.468l-2.49-1.438v-.615a.834.834,0,0,1,.305-.753A.413.413,0,0,1,312.446,357.683Zm.423,0h0Z" transform="translate(-311.675 -357.428)" fill="#214be5"/>
              </g>
              <g id="Grupo_82141" data-name="Grupo 82141" transform="translate(0.459)">
                <path id="Trazado_183274" data-name="Trazado 183274" d="M313.9,354.757a.594.594,0,0,0,.3-.079.934.934,0,0,0,.378-.849,2.292,2.292,0,0,0-.976-1.854.708.708,0,0,0-.724-.048.932.932,0,0,0-.379.848,2.294,2.294,0,0,0,.976,1.854A.855.855,0,0,0,313.9,354.757Zm-.724-2.653a.621.621,0,0,1,.3.093,2.046,2.046,0,0,1,.849,1.633.7.7,0,0,1-.252.627.473.473,0,0,1-.47-.047,2.05,2.05,0,0,1-.849-1.634.694.694,0,0,1,.252-.627A.33.33,0,0,1,313.172,352.1Z" transform="translate(-312.494 -351.849)" fill="#214be5"/>
              </g>
            </g>
          </g>
          <path id="Trazado_183275" data-name="Trazado 183275" d="M296.081,295.753l-10.032-5.792c-.373-.215-.674-.062-.674.341a1.446,1.446,0,0,0,.674,1.119l10.033,5.792c.372.215.674.062.674-.341A1.446,1.446,0,0,0,296.081,295.753Z" transform="translate(-275.068 -260.519)" fill="#214be5"/>
          <path id="Trazado_183276" data-name="Trazado 183276" d="M296.434,301.232,283.2,293.586c-.373-.215-.674-.062-.674.341a1.445,1.445,0,0,0,.674,1.119l13.236,7.646c.373.215.674.062.674-.341A1.444,1.444,0,0,0,296.434,301.232Z" transform="translate(-273.82 -262.107)" fill="#214be5"/>
          <g id="Grupo_82144" data-name="Grupo 82144" transform="translate(15.5 40.731)">
            <path id="Trazado_183277" data-name="Trazado 183277" d="M286.024,316.627,274.9,310.216c-.366-.211-.658-.04-.653.383l0,.217a1.488,1.488,0,0,0,.672,1.147l11.1,6.409c.365.211.662.04.662-.383v-.216A1.461,1.461,0,0,0,286.024,316.627Z" transform="translate(-274.249 -310.126)" fill="#455a64"/>
          </g>
          <path id="Trazado_183278" data-name="Trazado 183278" d="M298.551,318.444,274.8,304.733c-.305-.176-.552-.033-.552.319v2.311a1.221,1.221,0,0,0,.552.956l23.744,13.713c.3.176.552.034.552-.319l0-2.314A1.218,1.218,0,0,0,298.551,318.444Z" transform="translate(-271.164 -267)" fill="#e0e0e0"/>
          <path id="Trazado_183279" data-name="Trazado 183279" d="M298.551,335.417,274.8,321.706c-.305-.176-.552-.033-.552.319v2.311a1.22,1.22,0,0,0,.552.956l23.744,13.713c.3.176.552.034.552-.319l0-2.314A1.219,1.219,0,0,0,298.551,335.417Z" transform="translate(-271.164 -274.434)" fill="#e0e0e0"/>
          <g id="Grupo_82145" data-name="Grupo 82145" transform="translate(15.5 50.27)">
            <path id="Trazado_183280" data-name="Trazado 183280" d="M286.024,333.6,274.9,327.19c-.366-.211-.658-.039-.653.383l0,.217a1.488,1.488,0,0,0,.672,1.147l11.1,6.409c.365.211.662.04.662-.383v-.216A1.462,1.462,0,0,0,286.024,333.6Z" transform="translate(-274.249 -327.1)" fill="#455a64"/>
          </g>
          <path id="Trazado_183281" data-name="Trazado 183281" d="M283.946,354.713,274.92,349.5c-.366-.211-.663-.04-.663.382v3.253a1.466,1.466,0,0,0,.662,1.148l9.027,5.216c.365.211.662.04.662-.382v-3.253A1.466,1.466,0,0,0,283.946,354.713Z" transform="translate(-256.674 -286.6)" fill="#214be5"/>
          <path id="Trazado_183282" data-name="Trazado 183282" d="M309.735,339.82l-9.027-5.216c-.365-.211-.662-.04-.662.382v3.254a1.465,1.465,0,0,0,.662,1.147l9.026,5.216c.365.211.662.04.662-.382v-3.253A1.465,1.465,0,0,0,309.735,339.82Z" transform="translate(-296.956 -280.077)" fill="#214be5"/>
        </g>
        <g id="Window-5" data-name="Window" transform="translate(0 80.13)">
          <g id="Grupo_82148" data-name="Grupo 82148">
            <g id="Grupo_82146" data-name="Grupo 82146" transform="translate(0)">
              <path id="Trazado_183283" data-name="Trazado 183283" d="M383.58,170.16a1.87,1.87,0,0,1,1.89.182h0l5.3,3.061a2.422,2.422,0,0,1,1.023,1.943v3.373a3.551,3.551,0,0,0,1.656,2.749l9.991,5.85v-1.943a.925.925,0,0,1,.436-.863c.338-.192,2.217-1.281,2.478-1.431a1.352,1.352,0,0,1,1.3.1l1.635.915.394.225,2.668,1.543a3.441,3.441,0,0,1,.428.294c.069.057.134.119.2.18a4.742,4.742,0,0,1,1.484,3.189v66.388a1.491,1.491,0,0,1-.613,1.366c-.383.225-2.106,1.217-2.49,1.438a1.482,1.482,0,0,1-1.494-.15l-27.44-15.842a4.686,4.686,0,0,1-2.115-3.664V173.32a1.87,1.87,0,0,1,.789-1.728C381.544,171.338,383.137,170.417,383.58,170.16Z" transform="translate(-380.311 -169.979)" fill="#e0e0e0"/>
              <path id="Trazado_183284" data-name="Trazado 183284" d="M381.574,194.588a1.411,1.411,0,0,1,1.228.134l1.633.918.394.226,2.668,1.543a3.479,3.479,0,0,1,.428.294c.069.057.134.119.2.18a4.769,4.769,0,0,1,.776.956l2.482-1.434a4.758,4.758,0,0,0-.773-.956c-.069-.061-.134-.123-.2-.18a3.416,3.416,0,0,0-.428-.294l-2.668-1.543-.394-.225-1.636-.914a1.344,1.344,0,0,0-1.3-.1C383.739,193.338,382.044,194.316,381.574,194.588Z" transform="translate(-357.943 -180.092)" fill="#f0f0f0"/>
              <path id="Trazado_183285" data-name="Trazado 183285" d="M421.178,171.593a1.861,1.861,0,0,1,1.889.184l5.3,3.061a1.944,1.944,0,0,1,.731.823l2.482-1.434a1.955,1.955,0,0,0-.727-.822l-5.3-3.061a1.88,1.88,0,0,0-1.889-.184C423.216,170.419,421.626,171.337,421.178,171.593Z" transform="translate(-420.391 -169.98)" fill="#f0f0f0"/>
              <path id="Trazado_183286" data-name="Trazado 183286" d="M419.2,178.969a2.5,2.5,0,0,1,.294,1.12v3.372a3.368,3.368,0,0,0,.814,2.011l2.486-1.434a3.408,3.408,0,0,1-.818-2.011v-3.372a2.5,2.5,0,0,0-.294-1.121Z" transform="translate(-410.494 -173.289)" opacity="0.1"/>
            </g>
            <g id="Grupo_82147" data-name="Grupo 82147" transform="translate(0 1.433)">
              <path id="Trazado_183287" data-name="Trazado 183287" d="M387.406,172.893h0l5.3,3.061a2.421,2.421,0,0,1,1.023,1.942v3.374a3.552,3.552,0,0,0,1.656,2.749L406.2,190.35c.914.528,1.656.153,1.656-.837v-3.021c0-.974.9-1.22,1.73-.764l1.635.915.394.225,2.668,1.543a3.481,3.481,0,0,1,.428.294c.069.057.134.119.2.18a4.742,4.742,0,0,1,1.484,3.189v66.388c0,1.35-.948,1.9-2.114,1.22l-27.44-15.842a4.686,4.686,0,0,1-2.115-3.664V174.437C384.729,172.736,385.933,172.042,387.406,172.893Z" transform="translate(-384.729 -172.529)" fill="#fafafa"/>
              <path id="Trazado_183288" data-name="Trazado 183288" d="M386.215,173.039c-.906,0-.977,1.071-.977,1.4v65.739a4.175,4.175,0,0,0,1.86,3.222l27.441,15.843a1.429,1.429,0,0,0,.69.221c.6,0,.659-.7.659-1V192.074a4.229,4.229,0,0,0-1.312-2.808l-.07-.062c-.04-.037-.08-.072-.114-.1a2.866,2.866,0,0,0-.364-.25l-2.665-1.542-.389-.223-1.631-.913a1.18,1.18,0,0,0-.549-.158c-.291,0-.427.151-.427.475v3.021a1.417,1.417,0,0,1-1.389,1.586,2.079,2.079,0,0,1-1.035-.309l-10.816-6.33a4.057,4.057,0,0,1-1.911-3.191V177.9a1.915,1.915,0,0,0-.768-1.5l-5.3-3.061a1.933,1.933,0,0,0-.935-.3m0-.51a2.414,2.414,0,0,1,1.19.364l5.3,3.061a2.422,2.422,0,0,1,1.023,1.943v3.373a3.552,3.552,0,0,0,1.656,2.75L406.2,190.35a1.587,1.587,0,0,0,.777.239c.523,0,.878-.391.878-1.076v-3.021a.893.893,0,0,1,.937-.985,1.672,1.672,0,0,1,.794.221l1.635.915.394.225,2.668,1.543a3.48,3.48,0,0,1,.428.294c.069.057.134.119.2.18a4.744,4.744,0,0,1,1.484,3.189v66.388c0,.957-.476,1.51-1.169,1.51a1.913,1.913,0,0,1-.945-.29l-27.44-15.842a4.686,4.686,0,0,1-2.115-3.664V174.437c0-1.207.608-1.908,1.486-1.908Z" transform="translate(-384.729 -172.529)" fill="#e0e0e0"/>
            </g>
          </g>
          <g id="Grupo_82155" data-name="Grupo 82155" transform="translate(3.907 64.179)">
            <g id="Grupo_82149" data-name="Grupo 82149" transform="translate(19.483 12.111)">
              <path id="Trazado_183289" data-name="Trazado 183289" d="M394.671,312.139a.127.127,0,0,0,.127-.127v-2.383l.609.351a.129.129,0,0,0,.155-.02.127.127,0,0,0,.019-.154l-2.35-4.01a.125.125,0,0,0-.171-.047l-2.35,1.3a.128.128,0,0,0-.066.111.126.126,0,0,0,.064.111l.732.423,0,2.528a.127.127,0,0,0,.064.11l3.106,1.794A.132.132,0,0,0,394.671,312.139Zm0-2.858a.132.132,0,0,0-.064.017.128.128,0,0,0-.063.111v2.382l-2.852-1.647,0-2.528a.127.127,0,0,0-.063-.11l-.6-.346,2.044-1.128,2.043,3.487-.383-.221A.128.128,0,0,0,394.671,309.281Z" transform="translate(-390.644 -305.732)" fill="#214be5"/>
            </g>
            <g id="Grupo_82151" data-name="Grupo 82151" transform="translate(9.765 5.864)">
              <g id="Grupo_82150" data-name="Grupo 82150" transform="translate(0)">
                <path id="Trazado_183290" data-name="Trazado 183290" d="M411.206,300.568l.024,0,.477-.093a2.105,2.105,0,0,0,1.667-2.078,3.012,3.012,0,0,0-.94-2.4.816.816,0,0,0-.806-.176.765.765,0,0,0-.381.359,2.258,2.258,0,0,0-1.124-1.516.668.668,0,0,0-.658.08,1.492,1.492,0,0,0-.4,1.32,8.5,8.5,0,0,0,1.565,3.792l.469.658A.127.127,0,0,0,411.206,300.568Zm.663-4.537a.694.694,0,0,1,.41.169,2.731,2.731,0,0,1,.842,2.174,1.86,1.86,0,0,1-1.462,1.849l-.4.077-.422-.591a8.248,8.248,0,0,1-1.518-3.665,1.277,1.277,0,0,1,.3-1.1.41.41,0,0,1,.415-.044,2.239,2.239,0,0,1,1.046,1.7.178.178,0,0,0,.139.207h0a.128.128,0,0,0,.126-.108.772.772,0,0,1,.376-.642A.4.4,0,0,1,411.868,296.031Z" transform="translate(-409.059 -294.614)" fill="#214be5"/>
              </g>
            </g>
            <g id="Grupo_82154" data-name="Grupo 82154" transform="translate(0)">
              <g id="Grupo_82152" data-name="Grupo 82152" transform="translate(0 3.135)">
                <path id="Trazado_183291" data-name="Trazado 183291" d="M431.664,293.223a.128.128,0,0,0,.064-.017.126.126,0,0,0,.064-.111v-.689a2.7,2.7,0,0,0-1.131-2.149l-.61-.352a.807.807,0,0,0-.826-.057,1.07,1.07,0,0,0-.432.974v.688a.128.128,0,0,0,.064.111l2.744,1.584A.128.128,0,0,0,431.664,293.223Zm-2.1-3.208a.728.728,0,0,1,.359.111h0l.61.352a2.421,2.421,0,0,1,1,1.929v.469l-2.49-1.438v-.615a.834.834,0,0,1,.305-.753A.414.414,0,0,1,429.564,290.015Zm.423,0h0Z" transform="translate(-428.793 -289.76)" fill="#214be5"/>
              </g>
              <g id="Grupo_82153" data-name="Grupo 82153" transform="translate(0.459)">
                <path id="Trazado_183292" data-name="Trazado 183292" d="M431.014,287.088a.59.59,0,0,0,.3-.079.933.933,0,0,0,.379-.849,2.29,2.29,0,0,0-.976-1.853.707.707,0,0,0-.724-.049.933.933,0,0,0-.379.849,2.3,2.3,0,0,0,.976,1.854A.861.861,0,0,0,431.014,287.088Zm-.724-2.653a.616.616,0,0,1,.3.093,2.047,2.047,0,0,1,.849,1.633.7.7,0,0,1-.252.628.474.474,0,0,1-.47-.048,2.052,2.052,0,0,1-.849-1.634.7.7,0,0,1,.252-.628A.341.341,0,0,1,430.29,284.435Z" transform="translate(-429.612 -284.18)" fill="#214be5"/>
              </g>
            </g>
          </g>
          <path id="Trazado_183293" data-name="Trazado 183293" d="M413.2,228.085l-10.033-5.793c-.372-.215-.674-.062-.674.341a1.445,1.445,0,0,0,.674,1.119l10.033,5.793c.372.215.674.062.674-.341A1.445,1.445,0,0,0,413.2,228.085Z" transform="translate(-392.187 -192.851)" fill="#214be5"/>
          <path id="Trazado_183294" data-name="Trazado 183294" d="M413.553,233.563l-13.236-7.645c-.372-.215-.674-.062-.674.341a1.445,1.445,0,0,0,.674,1.119l13.236,7.646c.372.215.674.062.674-.341A1.446,1.446,0,0,0,413.553,233.563Z" transform="translate(-390.939 -194.439)" fill="#214be5"/>
          <g id="Grupo_82156" data-name="Grupo 82156" transform="translate(15.5 40.731)">
            <path id="Trazado_183295" data-name="Trazado 183295" d="M403.142,248.958l-11.122-6.41c-.366-.211-.659-.039-.653.383l0,.216a1.486,1.486,0,0,0,.672,1.147l11.1,6.41c.366.211.663.04.663-.383v-.216A1.466,1.466,0,0,0,403.142,248.958Z" transform="translate(-391.367 -242.458)" fill="#455a64"/>
          </g>
          <path id="Trazado_183296" data-name="Trazado 183296" d="M415.669,250.776,391.92,237.065c-.305-.176-.552-.034-.552.319V239.7a1.221,1.221,0,0,0,.552.956l23.744,13.713c.3.176.552.033.552-.319l0-2.314A1.219,1.219,0,0,0,415.669,250.776Z" transform="translate(-388.282 -199.331)" fill="#e0e0e0"/>
          <path id="Trazado_183297" data-name="Trazado 183297" d="M415.669,267.749,391.92,254.038c-.305-.176-.552-.033-.552.319v2.311a1.221,1.221,0,0,0,.552.956l23.744,13.713c.3.176.552.034.552-.319l0-2.314A1.219,1.219,0,0,0,415.669,267.749Z" transform="translate(-388.282 -206.766)" fill="#e0e0e0"/>
          <g id="Grupo_82157" data-name="Grupo 82157" transform="translate(15.5 50.27)">
            <path id="Trazado_183298" data-name="Trazado 183298" d="M403.142,265.931l-11.122-6.41c-.366-.211-.659-.04-.653.383l0,.216a1.486,1.486,0,0,0,.672,1.147l11.1,6.41c.366.211.663.04.663-.383v-.216A1.466,1.466,0,0,0,403.142,265.931Z" transform="translate(-391.367 -259.431)" fill="#455a64"/>
          </g>
          <path id="Trazado_183299" data-name="Trazado 183299" d="M401.063,287.045l-9.026-5.216c-.365-.211-.662-.04-.662.382v3.253a1.464,1.464,0,0,0,.662,1.148l9.026,5.216c.366.211.663.04.663-.382v-3.253A1.465,1.465,0,0,0,401.063,287.045Z" transform="translate(-373.792 -218.932)" fill="#214be5"/>
          <path id="Trazado_183300" data-name="Trazado 183300" d="M426.853,272.151l-9.027-5.216c-.365-.211-.662-.04-.662.382v3.253a1.464,1.464,0,0,0,.662,1.148l9.026,5.216c.366.211.663.04.663-.382V273.3A1.464,1.464,0,0,0,426.853,272.151Z" transform="translate(-414.074 -212.408)" fill="#214be5"/>
        </g>
      </g>
    </g>
  </g>
</svg>
