<svg xmlns="http://www.w3.org/2000/svg" width="448.817" height="190.324" viewBox="0 0 448.817 190.324">
  <g id="Grupo_82196" data-name="Grupo 82196" transform="translate(-564 -9117.001)">
    <g id="Grupo_82159" data-name="Grupo 82159" transform="translate(-102.131 8958.501)">
      <path id="Trazado_183301" data-name="Trazado 183301" d="M1037.167,158.5c3.935.958,7.941,1.692,11.793,2.911,18.444,5.836,29.6,20.31,30.4,39.578.834,19.926,1.421,39.878-2.916,59.533-1.606,7.279-3.938,14.4-6.013,21.858,20.293,5.883,40.7,11.089,44.516,36.257v27.508l-6.707,2.679c0-10.457-.041-19.757.011-29.056.056-10.152-4.908-17-13.853-21.294-1.034-.5-2.105-.926-3.1-1.483-7.033-3.927-12.892-3.564-20.734.5-27.406,14.2-55.09,13.454-82.017-2.518a11.535,11.535,0,0,0-7.706-1.068c-3.615.807-7.029,2.648-10.426,4.264-9.775,4.65-15.184,12.054-14.895,23.257.223,8.645.045,17.3.045,26.269h-6.876c.7-12.374.643-24.788,2.341-36.958,1.2-8.6,7.982-14.183,15.7-17.748,8.454-3.9,17.191-7.2,26.458-11.029a27.3,27.3,0,0,0-1.054-4.569c-5.3-13.273-7.208-27.225-7.6-41.321-.364-13.072-.359-26.212.558-39.247,1.333-18.933,17.331-34.334,37.495-37.3,1.594-.234,3.159-.674,4.737-1.019Zm27.609,119.615a18.052,18.052,0,0,0,.8-1.665c8.685-23.764,8.962-48.47,7.492-73.2-1.22-20.529-12.175-33.158-30.814-37.4-23.453-5.339-51.98,7.953-51.516,39.807.1,7.03-.266,14.07-.506,21.1-.607,17.77,4.111,34.585,8.967,51.684,5.142-1.455,10.008-3.114,11.031-8.768a28.081,28.081,0,0,0-2-16.666,127.686,127.686,0,0,1-8.147-25.972c-1.486-7.628-.033-8.55,7.859-9.44,15.651-1.764,26.36-9.263,29.664-25.337.833-4.054,2.74-5.69,6.9-3.885-.419,2.946-.83,5.83-1.259,8.853.8.172,1.415.333,2.041.434,14.878,2.387,19.927,9.531,19.165,20.739-.612,9-3.018,17.927-5.2,26.747-1.243,5.036-3.971,9.691-5.418,14.694C1050.78,270.425,1053.756,275.214,1064.776,278.115Zm-6.86-57c0-1.473.044-2.947-.008-4.417-.218-6.157-2.394-9.591-7.038-11.175-6.136-2.094-10.74-1.129-14.384,3.909-6.519,9.016-15.595,13.284-26.219,14.647-3.3.424-4.04,1.833-3.947,4.723a41.676,41.676,0,0,0,11.957,28.267c10.459,10.936,22.079,9.813,30.19-2.9A61.557,61.557,0,0,0,1057.916,221.113Zm-41.435,43.663c.85,7.944-1.37,13.34-7.034,16.829-3.323,2.048-7.03,3.472-10.552,5.2-1.943.954-3.86,1.961-6.137,3.122,24.48,14.642,61.752,14.343,78.426-.734-4.615-1.982-8.852-4.05-13.263-5.636-5.873-2.11-8.734-6.489-10.1-12.172-.446-1.847-.667-3.748-1.149-6.544C1036.829,273.116,1027.058,272.108,1016.481,264.776Z"/>
      <path id="Trazado_183302" data-name="Trazado 183302" d="M786.612,333.243H727.1c-2.826-13.748,6.235-36.4,17.542-44.15,9.4-6.44,20.5-4.9,28.619,4.283C783.213,304.628,786.249,318.248,786.612,333.243Z"/>
      <path id="Trazado_183303" data-name="Trazado 183303" d="M798.786,269.06c3.115-4.491,5.837-8.659,8.843-12.612a8.525,8.525,0,0,1,4.121-2.956c8.336-2.335,15.1.84,20.913,6.6,7.15,7.085,10.535,16.068,12.386,25.684.978,5.085,1.45,10.267,2.213,15.86H819.1C814.708,289.119,810.791,276.156,798.786,269.06Z"/>
      <path id="Trazado_183304" data-name="Trazado 183304" d="M666.131,301.764c.937-14.256,2.766-27.626,11.69-38.818,5.252-6.586,11.838-10.783,20.718-10.061,3.611.293,6.125,1.61,7.919,5.324,1.847,3.821,5.162,6.936,8,10.571-11.85,7.3-16.211,19.957-20.406,32.984Z"/>
      <path id="Trazado_183305" data-name="Trazado 183305" d="M744.747,284.169c-11.615,7.5-17.272,19.143-20.481,32.378a3.98,3.98,0,0,1-2.793,2.468c-8.164.2-16.334.113-25.075.113-.032-13.66,3.126-25.777,10.372-36.941,3.919-6.037,8.725-10.5,15.88-12.068,7.524-1.652,12.48.6,16.505,7.064A74.913,74.913,0,0,0,744.747,284.169Z"/>
      <path id="Trazado_183306" data-name="Trazado 183306" d="M816.33,318.968c-8.308,0-16.163-.117-24.01.06-2.921.067-3.506-1.577-4.03-3.79-3.025-12.783-8.608-23.952-19.625-30.769,2.852-4.015,5.495-7.959,8.409-11.691a8.042,8.042,0,0,1,3.7-2.163c7.709-2.623,17.283.307,22.468,7.159,8.625,11.4,13.348,24.221,13.356,38.624C816.6,317.02,816.473,317.642,816.33,318.968Z"/>
      <path id="Trazado_183307" data-name="Trazado 183307" d="M756.7,243.811c10.174,0,18.326,8.533,18.561,18.86.194,8.5-9.191,20.25-18.867,20.174-9.268-.073-18.763-11.759-18.571-19.977C738.069,252.134,746,243.814,756.7,243.811Z"/>
      <path id="Trazado_183308" data-name="Trazado 183308" d="M818.326,212.341c6.2.211,11.756,3.763,15.053,10.515,3.492,7.151,2.515,14.09-2.236,20.313-4.614,6.043-11.015,8.134-18.351,6.484a5.965,5.965,0,0,1-3.76-3.933c-.907-6.338-3.837-11.3-8.375-15.686a6.3,6.3,0,0,1-1.37-5.284C801.495,217.268,808.733,212.394,818.326,212.341Z"/>
      <path id="Trazado_183309" data-name="Trazado 183309" d="M677.7,231.213c.094-8.995,6.432-16.991,14.665-18.5,9.3-1.707,17.616,2.754,21.171,11.206,1.136,2.7,1.191,4.631-1.467,6.742a19.807,19.807,0,0,0-7.792,14.749c-.16,2.982-1.742,3.815-4.2,4.37C688.633,252.356,677.575,243.215,677.7,231.213Z"/>
      <path id="Trazado_183310" data-name="Trazado 183310" d="M728.046,229.1c4.434.1,9.029,2.636,12.7,6.944,4.071,4.779,3.948,6.263-.4,10.768a20.345,20.345,0,0,0-6.093,15.044c.132,4.183-2.3,4.9-5.375,5.355-10.291,1.507-20.285-7.021-21.065-17.945C707.05,238.663,716.12,228.975,728.046,229.1Z"/>
      <path id="Trazado_183311" data-name="Trazado 183311" d="M786.508,229.124c8.562.274,13.758,4.379,16.8,11.106,3.217,7.108,2.581,14.105-2.531,20.2-4.808,5.728-11.118,7.968-18.446,6.1a5.341,5.341,0,0,1-3.264-3.74,24.982,24.982,0,0,0-8.451-18.107c-.982-.891-1.331-3.64-.712-4.928C773.361,232.565,779.588,229.537,786.508,229.124Z"/>
      <path id="Trazado_183312" data-name="Trazado 183312" d="M764.439,240.393h-15.8c-2.962-3.484-6.283-7.181-9.307-11.105a5.154,5.154,0,0,1-.488-3.918c1.933-7.473,9.581-13.049,17.633-13.073s15.793,5.548,17.683,12.989a5.675,5.675,0,0,1-.808,4.247C770.575,233.266,767.467,236.757,764.439,240.393Z"/>
      <path id="Trazado_183313" data-name="Trazado 183313" d="M868.494,261.483c.584-1.19.926-2.6,1.789-3.537,14.014-15.185,31.465-19.971,51.426-16.341,6.548,1.191,12.936,3.26,19.773,5.025a37.449,37.449,0,0,1-2.587-4.2,9.167,9.167,0,0,1-.3-2.874c.885.385,2.111.523,2.6,1.195,2.488,3.433,4.785,7,7.445,10.967-5.486,1.151-10.431,2.5-15.476,2.729l-.333-2.313,7.387-1.946c-12.726-5.328-24.958-7.805-37.848-6.208-13.181,1.632-23.566,8.377-32.088,18.347Z"/>
      <path id="Trazado_183314" data-name="Trazado 183314" d="M1078.029,329.292h6.148c0,4.792,0,9.312,0,13.833,0,3.953-1.691,5.794-6.148,4.5Z"/>
      <path id="Trazado_183315" data-name="Trazado 183315" d="M980.262,329.232c1.5-.082,2.479-.187,3.451-.169a14.983,14.983,0,0,1,2.11.365v18.285h-5.561Z"/>
      <path id="Trazado_183316" data-name="Trazado 183316" d="M1064.776,278.115c-11.02-2.9-14-7.69-10.937-18.273,1.447-5,4.175-9.658,5.418-14.694,2.177-8.82,4.583-17.749,5.2-26.747.762-11.208-4.287-18.352-19.165-20.739-.626-.1-1.242-.262-2.041-.434.429-3.023.84-5.907,1.259-8.853-4.163-1.8-6.07-.169-6.9,3.885-3.3,16.074-14.013,23.573-29.664,25.337-7.892.89-9.345,1.812-7.859,9.44a127.686,127.686,0,0,0,8.147,25.972,28.081,28.081,0,0,1,2,16.666c-1.023,5.654-5.889,7.313-11.031,8.768-4.856-17.1-9.574-33.914-8.967-51.684.24-7.032.609-14.072.506-21.1-.464-31.854,28.063-45.146,51.516-39.807,18.639,4.244,29.594,16.873,30.814,37.4,1.47,24.728,1.193,49.434-7.492,73.2A18.052,18.052,0,0,1,1064.776,278.115Z" fill="#ff0092" opacity="0.66"/>
    </g>
  </g>
</svg>
