<svg xmlns="http://www.w3.org/2000/svg" width="295" height="136.399" viewBox="0 0 295 136.399">
  <g id="Grupo_82188" data-name="Grupo 82188" transform="translate(-1020 -1601)">
    <g id="Grupo_80870" data-name="Grupo 80870" transform="translate(859.142 1303.562)">
      <path id="Trazado_181584" data-name="Trazado 181584" d="M460.8,432.764c-5.448,0-16.612.386-16.73.562H415.923l-8.238-.017H333.921l-21.542-.018h-56.79l-23.72-.017H188.975l-.213-.424-.024-.035a.151.151,0,0,1-.024-.053c-.095-.141-35.695-56.191,23.083-83.822,23-10.811,10.879-32.4,44.917-45.475C300.6,286.6,312.563,311.1,364.458,305.18c45.071-5.144,65.607,11.239,62.444,35.6-1.486,11.445,8.715,20.218,18.777,21.791,27.761,4.341,26.766,29.768,24.5,48.45C468.777,422.543,460.992,432.764,460.8,432.764Z" transform="translate(-15.353)" fill="#ebf3fa"/>
      <path id="Trazado_181585" data-name="Trazado 181585" d="M1279.608,1186.889a1.886,1.886,0,0,0-.891-.568c-.534-.134-1.69-.7-1.555-.4s.779.645.672.86c0,0-1.836-.51-1.889-.188a2.643,2.643,0,0,0,1.433,1.818,12.093,12.093,0,0,0,2.069-.26Z" transform="translate(-1001.858 -798.188)" fill="#f2a16b"/>
      <path id="Trazado_181586" data-name="Trazado 181586" d="M1868.45,1240.647a2.151,2.151,0,0,0-1.682-.661c-.491.064-1.2-.708-1.166-.207a4.619,4.619,0,0,0,.989,1.862,2.49,2.49,0,0,0,1.519.262l1.281.79Z" transform="translate(-1531.645 -846.503)" fill="#ffb27d"/>
      <g id="Grupo_80837" data-name="Grupo 80837" transform="translate(178.163 361.776)">
        <path id="Trazado_181587" data-name="Trazado 181587" d="M338.466,1039.626s-5.3,5.5-5.553,7.567,2.54,5.3,2.54,5.3Z" transform="translate(-332.732 -1028.603)" fill="#02a29e"/>
        <path id="Trazado_181588" data-name="Trazado 181588" d="M411.343,1592.458s.187,2.916.752,2.957c.075.005,2.862,0,2.862,0l3.558-.028a1.154,1.154,0,0,0-1.065-1.036,4.823,4.823,0,0,1-3.416-2.279C413.367,1590.626,411.343,1592.458,411.343,1592.458Z" transform="translate(-403.214 -1524.454)" fill="#2358a5"/>
        <path id="Trazado_181589" data-name="Trazado 181589" d="M333.3,1592.628s.187,2.917.752,2.957c.075.005,2.862,0,2.862,0l3.558-.028a1.154,1.154,0,0,0-1.066-1.036,4.824,4.824,0,0,1-3.416-2.279C335.325,1590.8,333.3,1592.628,333.3,1592.628Z" transform="translate(-333.096 -1524.607)" fill="#2358a5"/>
        <path id="Trazado_181590" data-name="Trazado 181590" d="M343.284,1252.726a117.43,117.43,0,0,1-4.366,16.525c-3.448,10.572-3.911,15.148-3.911,15.148l-3.724-.1s-.057-11.545,1.531-16.861.3-19.153.3-19.153Z" transform="translate(-331.283 -1216.078)" fill="#163560"/>
        <path id="Trazado_181591" data-name="Trazado 181591" d="M371.792,1251.244a144.433,144.433,0,0,1-1.376,19.982c-1.528,11.015-.992,15.688-.992,15.688l-3.716.132s-2.245-11.01-1.62-16.523-3.082-18.905-3.082-18.905Z" transform="translate(-357.987 -1218.733)" fill="#1c468a"/>
        <path id="Trazado_181592" data-name="Trazado 181592" d="M395.935,1005.474l1.983,1.294,2.861-.54c-.04-.231-.231-1.188-.405-2.055-.01-.051-.021-.1-.031-.152-.149-.738-.278-1.371-.278-1.371l-2.675-1.173-1-.437c0,.015.079.819.09.936A6.813,6.813,0,0,1,395.935,1005.474Z" transform="translate(-389.37 -993.934)" fill="#ffb27d"/>
        <path id="Trazado_181593" data-name="Trazado 181593" d="M397.445,1030.508c-.056-.032-3.448-1.394-3.816-1.226s-.585,1.146-.585,1.146l5.548,1.7A3.6,3.6,0,0,0,397.445,1030.508Z" transform="translate(-386.773 -1019.296)" fill="#02a29e"/>
        <path id="Trazado_181594" data-name="Trazado 181594" d="M345.656,1060.161c.58,2.62,10.146,2.91,12.606.525.28-.272.291-1.534.181-3.235-.214-3.324-.889-8.324-.921-10.879a20.228,20.228,0,0,0-.416-3.641,29.582,29.582,0,0,0-1.223-4.356s-4.675-1.5-5.548-1.241C346.127,1038.581,345.076,1057.541,345.656,1060.161Z" transform="translate(-344.064 -1026.517)" fill="#00bab5"/>
        <path id="Trazado_181595" data-name="Trazado 181595" d="M431.478,1102.912c-.214-3.324-.889-8.324-.921-10.879a20.231,20.231,0,0,0-.416-3.641l-2.811-.49S424.607,1099.131,431.478,1102.912Z" transform="translate(-417.099 -1071.978)" fill="#02a29e"/>
        <path id="Trazado_181596" data-name="Trazado 181596" d="M444.954,1186.261a.662.662,0,0,0,.212.765,1.282,1.282,0,0,1,.574,1.168c-.091.364-.972.96-1.279.865s-.93-.573-.863-.765-.423-1.684.322-2.26A.6.6,0,0,1,444.954,1186.261Z" transform="translate(-432.107 -1159.957)" fill="#ffb27d"/>
        <path id="Trazado_181597" data-name="Trazado 181597" d="M423.8,1043.246a8.513,8.513,0,0,1,4.933,3.72c2.191,3.214,3.633,5.6,3.233,6.764s-4.058,5.192-4.69,5.193a1.7,1.7,0,0,1-1.713-1.49s2.415-4.021,1.906-4.6c-.218-.247-3.2-2.639-3.645-1.489C423.082,1053.248,423.8,1043.246,423.8,1043.246Z" transform="translate(-414.123 -1031.855)" fill="#00bab5"/>
        <path id="Trazado_181598" data-name="Trazado 181598" d="M402.616,1005.88c.589.993,2.778,1.848,3.691,2.162-.01-.051-.021-.1-.031-.152-.149-.737-.278-1.371-.278-1.371l-2.675-1.173C402.732,1005.339,402.373,1005.472,402.616,1005.88Z" transform="translate(-395.303 -997.803)" fill="#fca56b"/>
        <path id="Trazado_181599" data-name="Trazado 181599" d="M393.309,952.626s-4.3,1.352-5.1-1.34-1.9-4.331.817-5.308,3.555-.11,4.041.724S394.407,952.2,393.309,952.626Z" transform="translate(-381.607 -944.074)" fill="#ffb27d"/>
        <path id="Trazado_181600" data-name="Trazado 181600" d="M376.454,933.432s-.268,3.135-.916,3-1.237-.234-1.14.711,1,2.034-1,2.206-4.881-4.975-4.334-5.952C370.642,930.579,378.736,929.993,376.454,933.432Z" transform="translate(-365.167 -931.063)" fill="#163560"/>
      </g>
      <g id="Grupo_80839" data-name="Grupo 80839" transform="translate(411.81 363.533)">
        <path id="Trazado_181601" data-name="Trazado 181601" d="M2634.925,1133.38s-.367-.606-.591-.94-.671-.752-.786-.645.343.551.323.7-.788-.349-.87-.461c-.166-.224-.605-.466-.659-.184a3.687,3.687,0,0,0,.42,1.424,2.8,2.8,0,0,0,1.109.779c.342.121.928.4.928.4Z" transform="translate(-2632.336 -1113.102)" fill="#ffb27d"/>
        <path id="Trazado_181602" data-name="Trazado 181602" d="M2718.806,948.744a2.982,2.982,0,0,0-2.358-.252c-4.005-.47-5.174,4.2-5.12,5.808s.238,3.333-1.551,5.421c-5.167,6.031,5.654,6.3,5.654,6.3.092-4.819,5.868-3.061,5.615-2.572C2728.452,965.223,2721.783,950.288,2718.806,948.744Z" transform="translate(-2700.659 -948.359)" fill="#163560"/>
        <path id="Trazado_181603" data-name="Trazado 181603" d="M2665.3,1077.646a10.553,10.553,0,0,1-1.077,1.629,6.307,6.307,0,0,1-3.748,2.5,4.024,4.024,0,0,1-2.227-.361h0a10.153,10.153,0,0,1-3.448-2.882,1.617,1.617,0,0,1,.221-1.587s3.974.894,4.352.7,2.586-6.549,3.112-7.348,2.317-1.214,2.317-1.214Z" transform="translate(-2652.42 -1056.826)" fill="#ff0092"/>
        <path id="Trazado_181604" data-name="Trazado 181604" d="M2695.747,1150.82a6.306,6.306,0,0,1-3.748,2.5,4.026,4.026,0,0,1-2.227-.362c.077.01,2.043.253,2.826-1.148.8-1.43,1.663-3.7,2.85-2.944C2695.961,1149.191,2695.938,1150,2695.747,1150.82Z" transform="translate(-2683.94 -1128.37)" fill="#dc0681"/>
        <path id="Trazado_181605" data-name="Trazado 181605" d="M2866.355,1571.2s1.213,1.107.976,1.893-1.331,1.311-1.479,2.271-.74,1.485-1.272,1.485h-2.538s-.392-.676.555-.88,1.3-1.333,1.244-2.381a18.5,18.5,0,0,1,.089-2.446l2.011-.466Z" transform="translate(-2838.646 -1507.487)" fill="#2358a5"/>
        <path id="Trazado_181606" data-name="Trazado 181606" d="M2743.022,1580.466s.436,4.688-.1,4.95l-6.812-.014s0-.786,1.094-.961,3.016-.815,3.342-2.242S2743.022,1580.466,2743.022,1580.466Z" transform="translate(-2725.576 -1516.282)" fill="#2358a5"/>
        <path id="Trazado_181607" data-name="Trazado 181607" d="M2750.535,1048.584c-1.4-3.144-2.26-4.046-2.1-5.022.122-.726-.371-13.541-.371-13.541-.167-.051-.5-.1-.682-.138a1.711,1.711,0,0,1-1.249-1.086,8.715,8.715,0,0,1-.424-2.891l-.18.035-3.02.6s.069.95.071,1.845v.022a1.736,1.736,0,0,1-1.253,1.679l-.713.2a27.689,27.689,0,0,0-1.321,6.417c-.212,3.252,2.016,4.665-.017,11.163C2737.205,1054.507,2751.309,1050.322,2750.535,1048.584Z" transform="translate(-2728.234 -1018.031)" fill="#ffb27d"/>
        <path id="Trazado_181608" data-name="Trazado 181608" d="M2772.969,1026.852s.069.95.071,1.845c1.689-.048,2.583-1.589,2.948-2.443Z" transform="translate(-2758.689 -1018.345)" fill="#e8945b"/>
        <path id="Trazado_181609" data-name="Trazado 181609" d="M2755.63,980.8s4,.066,4-2.424.521-4.159-2.032-4.306-3.049.8-3.252,1.633S2754.59,980.721,2755.63,980.8Z" transform="translate(-2741.915 -971.447)" fill="#ffb27d"/>
        <path id="Trazado_181610" data-name="Trazado 181610" d="M2768.868,969.127s1.094,2.922,2.774,3.354a3.308,3.308,0,0,0,2.408-.018,4.756,4.756,0,0,1-1.556-2.81S2769.693,967.737,2768.868,969.127Z" transform="translate(-2755.004 -966.564)" fill="#163560"/>
        <path id="Trazado_181611" data-name="Trazado 181611" d="M2753.629,971.726a2.481,2.481,0,0,0-1.146.9,4.029,4.029,0,0,0-.541,2.286s-.824-1.986.1-3.109C2753.028,970.608,2753.629,971.726,2753.629,971.726Z" transform="translate(-2739.494 -968.926)" fill="#163560"/>
        <path id="Trazado_181612" data-name="Trazado 181612" d="M2763.2,1024.041a1,1,0,0,1-.828.337.735.735,0,0,1-.616-.407A2.686,2.686,0,0,1,2763.2,1024.041Z" transform="translate(-2748.617 -1016.231)" fill="#ebf3fa"/>
        <path id="Trazado_181613" data-name="Trazado 181613" d="M2746.854,1072.107a26.991,26.991,0,0,1,0,3.149c-.067,1.138-1.219,2.663-1.382,3.041-.41.946-.873,1.1-.873,1.1l-3.576.876-1.258.308-3.966-1.184s-1.806-5.042-1.081-7.881a21.838,21.838,0,0,1,1.834-4.809s3.236,3.169,7.45-.269Z" transform="translate(-2724.167 -1054.448)" fill="#ff0092"/>
        <path id="Trazado_181614" data-name="Trazado 181614" d="M2789.369,1147.666a11.121,11.121,0,0,1-.335,2.576c-.41.946-.872,1.1-.872,1.1l-3.577.877-1.553-.457s5.186-.786,4.612-5.248Z" transform="translate(-2767.729 -1126.393)" fill="#f2ccaa"/>
        <path id="Trazado_181615" data-name="Trazado 181615" d="M2730.847,1201.6s-1.964,6.113-2.09,8.195,3.755,29.568,3.911,30.528c.147.9,1.27,1.48,1.27,1.48a1.7,1.7,0,0,0,1.253.1,3.1,3.1,0,0,0,1.345-.634s1.529-19.6.583-26.607a110.89,110.89,0,0,1-.957-13.058Z" transform="translate(-2718.963 -1175.882)" fill="#163560"/>
        <path id="Trazado_181616" data-name="Trazado 181616" d="M2763.412,1199.8s3,4.02,3.275,6.737.438,12.263,1.033,14.912,2.781,7.747,2.781,16.01a1.647,1.647,0,0,1-.929.726,7.675,7.675,0,0,1-.817.226,1.284,1.284,0,0,1-1.437-.682c-1.478-2.976-6.187-12.574-6.428-14.567-.17-1.41-1.657-10.742-4.9-16.218-.779-1.314.478-6.542.478-6.542Z" transform="translate(-2743.207 -1174.269)" fill="#1c468a"/>
        <path id="Trazado_181617" data-name="Trazado 181617" d="M2762.771,1024.272s-.069.293-.8.248c0,0-.613-.038-.594-.36A1.972,1.972,0,0,1,2762.771,1024.272Z" transform="translate(-2748.274 -1016.396)" fill="#fff"/>
        <path id="Trazado_181618" data-name="Trazado 181618" d="M2745.293,1192.3a4.117,4.117,0,0,0,2.355.655c1.871.038,6.507-.477,6.507-.477a3.832,3.832,0,0,1,.2,1.183s-5.662,1.428-8.943.208A2.073,2.073,0,0,1,2745.293,1192.3Z" transform="translate(-2733.723 -1167.531)" fill="#233862"/>
        <g id="Grupo_80838" data-name="Grupo 80838" transform="translate(12.622 25.105)">
          <path id="Trazado_181619" data-name="Trazado 181619" d="M2757.5,1197.533a.974.974,0,1,1,.854-.966A.916.916,0,0,1,2757.5,1197.533Zm0-1.65a.694.694,0,1,0,.571.683A.635.635,0,0,0,2757.5,1195.884Z" transform="translate(-2756.642 -1195.601)" fill="#fff"/>
        </g>
        <rect id="Rectángulo_23306" data-name="Rectángulo 23306" width="7.692" height="10.529" transform="matrix(0.754, -0.657, 0.657, 0.754, 13.812, 22.986)" fill="#afcdfb"/>
        <path id="Trazado_181620" data-name="Trazado 181620" d="M2800.771,1203.374s-2.256.346-2.249.851.467,1.417.922,1.489c.579.092,1.729-1.4,1.729-1.4Z" transform="translate(-2781.647 -1177.48)" fill="#ffb27d"/>
        <path id="Trazado_181621" data-name="Trazado 181621" d="M2800.116,1202.872a2.947,2.947,0,0,0-1.31-.162c-.555.114-1.067.03-.941.231s.876.127,1,.206.121.03.121.03Z" transform="translate(-2781.04 -1176.858)" fill="#ffb27d"/>
        <path id="Trazado_181622" data-name="Trazado 181622" d="M2816.273,1066.438a4.84,4.84,0,0,1,3.926,2.843c1.088,2.644,3.152,7.084,3.152,7.831s-1.153,3.05-7.345,4.373c0,0-.64-.674-.6-1.206,0,0,3.865-3.32,3.854-3.708-.02-.734-.634-1.7-4.027-5.1C2814.31,1070.551,2816.273,1066.438,2816.273,1066.438Z" transform="translate(-2796.44 -1054.448)" fill="#ff0092"/>
      </g>
      <g id="Grupo_80840" data-name="Grupo 80840" transform="translate(198.576 351.897)">
        <path id="Trazado_181623" data-name="Trazado 181623" d="M584.478,914.721a25.208,25.208,0,0,1-4.45-.394,24.711,24.711,0,0,1-3.919-1.041,31.821,31.821,0,0,1-5.946.006,38.035,38.035,0,0,1-16.328-5.234,12.89,12.89,0,0,1-3.413.268,13.871,13.871,0,0,1-8.007-3.182,23.129,23.129,0,0,1-6.022-7.66,40.764,40.764,0,0,1-4.031-19.949,44.509,44.509,0,0,1,6.931-22.253,42.147,42.147,0,0,1,10.881-11.906,24.887,24.887,0,0,1,14.076-4.7,36.211,36.211,0,0,1,11.254-4.322,26.748,26.748,0,0,1,19.361,3.243c7.712,4.612,13.882,13.2,18.338,25.512q.382,1.056.709,2.108c1.022.529,2.126,1.123,3.359,1.788l.081.044c3.852,2.075,9.862,3.736,16.076,4.442,5.181.589,12.877.794,20.114-1.57,6.763-2.21,11.542-6.161,14.2-11.742l.582.277c-2.74,5.747-7.647,9.81-14.585,12.077-7.348,2.4-15.143,2.194-20.388,1.6-6.291-.715-12.388-2.4-16.309-4.516l-.081-.043c-1.014-.547-1.937-1.044-2.794-1.494a38.219,38.219,0,0,1,1.028,18,31.753,31.753,0,0,1-7.517,15.342,27.854,27.854,0,0,1-3.537,3.3c-.086.191-.175.38-.265.566a4.675,4.675,0,0,1,.661,2.362c-.076,1.155-1.388,2.171-3.9,3.019q-.31.1-.641.205a18.372,18.372,0,0,1-7.414,4.548A25.843,25.843,0,0,1,584.478,914.721ZM577.64,913.1a24.119,24.119,0,0,0,2.5.588,25.02,25.02,0,0,0,12.241-.892,17.96,17.96,0,0,0,6.3-3.573,66.515,66.515,0,0,1-12.888,1.592q-.289.124-.582.243A32.257,32.257,0,0,1,577.64,913.1Zm-22.926-5.271a37.612,37.612,0,0,0,15.509,4.817,31.153,31.153,0,0,0,4.493.091,23.753,23.753,0,0,1-4.622-2.614,52.767,52.767,0,0,1-6.334-1.239,24.17,24.17,0,0,1-6.038-2.378A13.09,13.09,0,0,1,554.714,907.833Zm16.784,2.474a23.359,23.359,0,0,0,4.693,2.323,31.666,31.666,0,0,0,7.715-1.757c-2.4.046-4.867.006-7.3-.129C574.841,910.646,573.13,910.5,571.5,910.307Zm-1.149-.792c1.957.265,4.062.462,6.3.586,3.008.167,6.066.188,9,.08a30.09,30.09,0,0,0,5.052-2.788,14.17,14.17,0,0,1-2.526-.393,8.129,8.129,0,0,1-4.817-3.537,36.841,36.841,0,0,1-6.17-.35,26.641,26.641,0,0,1-12.253-4.534c-.521.915-1.041,1.727-1.548,2.447a22.033,22.033,0,0,0,5.987,7.726Q569.847,909.146,570.349,909.515Zm21.417-2.091a30.289,30.289,0,0,1-4.422,2.678,57.266,57.266,0,0,0,12.318-1.81,18.356,18.356,0,0,0,1.7-2.023,21.051,21.051,0,0,0,1.674-2.738,23.262,23.262,0,0,1-4.8,2.591A18.017,18.017,0,0,1,591.765,907.424Zm-33.422-1.306a33.106,33.106,0,0,0,10.71,3.208l-.1-.079a22.653,22.653,0,0,1-6.007-7.629,22.086,22.086,0,0,1-1.933,2.268A16.928,16.928,0,0,1,558.343,906.118ZM603.517,904a20.928,20.928,0,0,1-2.614,3.886c1.885-.7,2.943-1.5,2.995-2.285A3.489,3.489,0,0,0,603.517,904Zm-40.357-64.645c-.7.052-1.366.131-2,.225a24.685,24.685,0,0,0-10.616,4.327,41.515,41.515,0,0,0-10.709,11.727,43.865,43.865,0,0,0-6.829,21.931,40.111,40.111,0,0,0,3.96,19.628,22.493,22.493,0,0,0,5.85,7.45,13.241,13.241,0,0,0,7.639,3.043,12.356,12.356,0,0,0,2.578-.131,28.612,28.612,0,0,1-7.41-6.913,25.8,25.8,0,0,1-2.562-4.27,14.233,14.233,0,0,1-5.371-5.1,21.339,21.339,0,0,1-2.922-11.345,28.346,28.346,0,0,1,.552-5.486c-.2-5.24,1.96-11.307,6.1-17.12,3.97-5.575,9.153-10.047,14.222-12.27q.85-.373,1.676-.652a26.684,26.684,0,0,1,2.352-2.376A29.364,29.364,0,0,1,563.159,839.352Zm-19.146,57.484a25.253,25.253,0,0,0,2.129,3.419,28.168,28.168,0,0,0,7.8,7.115,12.278,12.278,0,0,0,3.158-1.248,9.331,9.331,0,0,1-1.847-1.588,44.932,44.932,0,0,1-4.563-6.2,22.577,22.577,0,0,1-3.183-.4A16.272,16.272,0,0,1,544.013,896.836Zm40.111,6.6a7.379,7.379,0,0,0,4.2,2.942,13.747,13.747,0,0,0,3.228.406,26.934,26.934,0,0,0,4.928-4.708,24.517,24.517,0,0,0,2-2.871A31.068,31.068,0,0,1,584.124,903.431Zm15.355-4.679a24.97,24.97,0,0,1-2.495,3.724,27.362,27.362,0,0,1-4.33,4.273A17.779,17.779,0,0,0,598,905.522a22.721,22.721,0,0,0,4.888-2.676,22.746,22.746,0,0,0-2.607-3.262Q599.894,899.171,599.479,898.752Zm-48.014-.394a44.5,44.5,0,0,0,4.278,5.751,8.963,8.963,0,0,0,1.981,1.641,16,16,0,0,0,2.833-2.316,21.816,21.816,0,0,0,2.082-2.48q-.293-.654-.55-1.331-.267-.706-.492-1.43-.348-.075-.69-.17a11.091,11.091,0,0,1-1.676-.616A28.929,28.929,0,0,1,551.464,898.358Zm14.321.037a26.532,26.532,0,0,0,11.486,4.079,36.413,36.413,0,0,0,5.673.352,21.622,21.622,0,0,1-2.127-5.179q-.113-.4-.22-.8-1.285-.177-2.568-.447a25.413,25.413,0,0,1-3.161-.875,33.185,33.185,0,0,1-6.036,2.314A19.725,19.725,0,0,1,565.786,898.395Zm15.5-1.463q.073.272.149.538a20.142,20.142,0,0,0,2.254,5.335,30.372,30.372,0,0,0,15.213-4.622c-.874-.851-1.83-1.717-2.849-2.583q-1.4.426-2.82.739A35.709,35.709,0,0,1,581.288,896.931Zm18.636,1.354q.429.432.827.858a23.794,23.794,0,0,1,2.655,3.322l.217-.165a31.415,31.415,0,0,0,2.047-6.6q.3-1.49.5-3.1a29.318,29.318,0,0,1-6.249,5.689Zm7.009-6.655q-.231,2.2-.631,4.2a33.205,33.205,0,0,1-1.62,5.614,27.571,27.571,0,0,0,2.521-2.458,31.071,31.071,0,0,0,7.309-14.764,44.933,44.933,0,0,1-6.051,5.176Q607.75,890.545,606.933,891.63Zm-44.617,6.694q.176.541.376,1.07.181.478.381.944c.387-.565.78-1.187,1.175-1.868A13.024,13.024,0,0,1,562.316,898.324Zm-.213-.689a12.236,12.236,0,0,0,1.86.183,17.839,17.839,0,0,1-1.483-1.4q-.321.113-.646.221Q561.959,897.142,562.1,897.636Zm4.785-3.044c-.5,1.172-1.008,2.232-1.52,3.19a18.571,18.571,0,0,0,3.3-.57,31.451,31.451,0,0,0,5.359-2,19.218,19.218,0,0,1-4.082-2.193C568.981,893.552,567.958,894.083,566.889,894.591ZM551.065,897.7a27.575,27.575,0,0,0,7.3-.745,13.666,13.666,0,0,1-4.309-4.033,23.825,23.825,0,0,1-1.816-3,36.4,36.4,0,0,1-4.4-1.1l-.31-.1A26.79,26.79,0,0,0,551.065,897.7Zm45.715-2.329c.9.773,1.746,1.546,2.53,2.307a22.723,22.723,0,0,0,1.5-3.866A40.126,40.126,0,0,1,596.78,895.371Zm-53.227.525a15.249,15.249,0,0,0,4.083,1.4,21.877,21.877,0,0,0,2.661.357,34.376,34.376,0,0,1-1.7-3.323,22.828,22.828,0,0,1-1.765-5.846,21.88,21.88,0,0,1-5.624-2.915A25.722,25.722,0,0,0,543.553,895.9Zm19.591.282a17.338,17.338,0,0,0,1.585,1.433c.43-.8.859-1.664,1.281-2.613C565.084,895.416,564.127,895.813,563.144,896.178Zm-2.9.955a10.681,10.681,0,0,0,1.145.352q-.089-.321-.17-.645Q560.735,896.992,560.244,897.132Zm41.337-3.675A23.252,23.252,0,0,1,600.2,897.3a28.664,28.664,0,0,0,6.106-5.921c.019-.19.038-.382.055-.574q-.665.423-1.373.84Q603.307,892.64,601.581,893.457Zm-48.547-3.4a23.186,23.186,0,0,0,1.543,2.49,12.606,12.606,0,0,0,4.716,4.177q.9-.235,1.778-.514-.221-.992-.367-2.015l-.111-.167a18.743,18.743,0,0,1-1.83-3.6A30.8,30.8,0,0,1,553.034,890.06Zm28.08,6.2a35.075,35.075,0,0,0,11.983-.552q1.187-.262,2.367-.606a80.04,80.04,0,0,0-8.995-6.434c-.705.437-1.446.907-2.218,1.4-1.233.782-2.549,1.616-3.921,2.445C580.561,893.824,580.819,895.079,581.114,896.26Zm-5.428-1.147a25.241,25.241,0,0,0,2.477.65q1.131.238,2.264.4c-.256-1.05-.483-2.154-.689-3.3C578.427,893.644,577.069,894.41,575.686,895.114Zm-14.135.235q.064.332.137.662l.324-.11Q561.775,895.63,561.551,895.349Zm-.229-1.39a16.65,16.65,0,0,0,1.345,1.709c1.289-.469,2.534-1,3.723-1.553q.607-1.455,1.182-3.146-.2-.209-.394-.425a15.76,15.76,0,0,1-1.05-1.311q-.451.138-.907.26a27.914,27.914,0,0,1-4.154.781A28.031,28.031,0,0,0,561.322,893.959Zm-25.73-17.1a27.219,27.219,0,0,0-.179,3.065,20.7,20.7,0,0,0,2.824,11,13.7,13.7,0,0,0,4.371,4.434,26.586,26.586,0,0,1-2.05-10.287A13.7,13.7,0,0,1,535.592,876.855Zm51.492,11.436a80.262,80.262,0,0,1,9.118,6.588A39.516,39.516,0,0,0,601.028,893a23.359,23.359,0,0,0,.6-7.4,13.043,13.043,0,0,1-3.1,1.913c-2.887,1.242-5.511,1.287-7.8.134a8.91,8.91,0,0,1-1.222-.748C588.766,887.287,587.955,887.759,587.083,888.291Zm-16.513,4.371a19.045,19.045,0,0,0,4.26,2.159c1.637-.807,3.247-1.714,4.79-2.637-.282-1.666-.523-3.42-.743-5.237-1.176.953-2.39,1.87-3.617,2.731C573.958,890.592,572.372,891.63,570.57,892.662Zm-2.489-1.187q-.4,1.17-.824,2.223c.732-.361,1.442-.732,2.122-1.106A16.684,16.684,0,0,1,568.08,891.476Zm-8.637-1.069a18.487,18.487,0,0,0,1.088,2.284q-.1-1.16-.109-2.353Q559.935,890.381,559.444,890.407Zm42.784-5.324a24.124,24.124,0,0,1-.45,7.565q1.458-.713,2.889-1.553.921-.541,1.767-1.094a73.346,73.346,0,0,0-.028-10.434A20.219,20.219,0,0,1,602.228,885.083ZM568.308,890.8a16,16,0,0,0,1.685,1.452c1.889-1.069,3.548-2.152,4.9-3.1,1.367-.959,2.671-1.954,3.9-2.959q-.1-.841-.192-1.7-1.074-.468-2.1-.849a31.948,31.948,0,0,1-7.388,4.494Q568.725,889.536,568.308,890.8Zm11.159-4.334c.221,1.862.462,3.659.746,5.364,1.29-.782,2.529-1.568,3.693-2.306.673-.426,1.323-.839,1.947-1.228l-.516-.309c-1.608-.953-3.172-1.8-4.675-2.534Q580.073,885.962,579.468,886.463Zm27.583,3.9v0l.005-.007Zm-40.274-1.339q.416.564.883,1.087l.142.157q.282-.877.551-1.818Q567.571,888.764,566.776,889.027Zm-14.109.318a30.475,30.475,0,0,0,5.863.451,30.215,30.215,0,0,1-1.281-11.973q-.48-.437-.925-.918-.273-.3-.532-.606c-1.464.677-2.755,1.33-3.808,1.919a10.185,10.185,0,0,0-1.74,1.216q0,.106.007.212A23.872,23.872,0,0,0,552.668,889.345Zm5.192-11a28.924,28.924,0,0,0,1.345,11.423q.612-.028,1.221-.083a33.316,33.316,0,0,1,.275-3.771,23.543,23.543,0,0,1,.981-5.287A15.4,15.4,0,0,1,557.86,878.35Zm4.431,2.523a23.415,23.415,0,0,0-.946,5.086l0,.03a32.649,32.649,0,0,0-.27,3.636,27.239,27.239,0,0,0,3.983-.755q.347-.093.691-.2a17.62,17.62,0,0,1-2.695-7.539Q562.665,881.012,562.291,880.873Zm44.677-2.438a76.833,76.833,0,0,1,.143,11.115q.447-.3.87-.6a29.552,29.552,0,0,0,4.307-15.928c-.043-2.6-.81-4.347-2.344-5.348a4.955,4.955,0,0,0-.521-.3A26.259,26.259,0,0,1,606.968,878.435Zm-59.545,9.577q.3.1.608.2a35.995,35.995,0,0,0,3.851.989,24.519,24.519,0,0,1-2.261-9.166,8.376,8.376,0,0,0-2.154,4.4A12.24,12.24,0,0,0,547.423,888.012Zm16.3-6.676a16.869,16.869,0,0,0,2.66,7.14q1.1-.357,2.184-.808c.526-1.943.932-3.844,1.233-5.619q-.358-.02-.7-.02A20.249,20.249,0,0,1,563.727,881.336ZM609.4,866.658a5.714,5.714,0,0,1,.892.472c1.7,1.111,2.59,3.088,2.636,5.877a30.254,30.254,0,0,1-3.654,14.981,40.014,40.014,0,0,0,5.45-4.948,38.049,38.049,0,0,0-1.353-17.38,36.439,36.439,0,0,0-4.311-1.941,19.723,19.723,0,0,1,.327,2.677C609.4,866.483,609.4,866.57,609.4,866.658ZM581.185,884.99c1.446.714,2.944,1.529,4.48,2.44q.4.238.8.482c.887-.546,1.717-1.036,2.48-1.444a16.215,16.215,0,0,1-3.713-4.867q-.346.095-.69.17C583.5,882.853,582.374,883.934,581.185,884.99Zm8.978,1.585a8.016,8.016,0,0,0,.854.5c2.14,1.078,4.513,1.029,7.254-.15a12.634,12.634,0,0,0,3.281-2.1,27.144,27.144,0,0,0-1.12-5.273,16.46,16.46,0,0,0-.786-2.022c-2.953,4.488-6.192,7.737-8.672,8.7C590.717,886.324,590.446,886.441,590.162,886.576ZM541.2,884.769a20.318,20.318,0,0,0,5.542,3,12.676,12.676,0,0,1,.088-3.446,8.966,8.966,0,0,1,2.76-5.174,26.935,26.935,0,0,1,2.284-11.286,29.9,29.9,0,0,1-.615-6.25q-1.015-.052-2.013-.032a46.529,46.529,0,0,0-7.353,16.852A31.91,31.91,0,0,0,541.2,884.769Zm29.245-2.668c-.279,1.661-.65,3.43-1.123,5.239a31.349,31.349,0,0,0,6.462-3.953A23.871,23.871,0,0,0,570.449,882.1Zm15.424-.69a15.076,15.076,0,0,0,3.7,4.734c.413-.205.8-.381,1.168-.522,2.335-.9,5.555-4.165,8.405-8.51l.166-.254a13.222,13.222,0,0,0-3.4-4.143A15.61,15.61,0,0,1,592.2,877.7,17.5,17.5,0,0,1,585.873,881.411Zm-6.6,3.387c.034.3.068.6.1.9q.329-.277.651-.554Q579.65,884.967,579.277,884.8Zm-.081-.741q.673.3,1.363.629c1.038-.914,2.005-1.827,2.894-2.72a11.066,11.066,0,0,1-2.486.062,3.738,3.738,0,0,1-1.835-.713l-.205.2Q579.06,882.8,579.2,884.056Zm20.861-7.164a16.93,16.93,0,0,1,.99,2.462,28.011,28.011,0,0,1,1.093,4.929,20.242,20.242,0,0,0,3.96-5.531q.108-.217.213-.437-.311-3.835-.952-8.052a30.083,30.083,0,0,0-.613-3A46.438,46.438,0,0,1,600.056,876.892Zm-64.089-2.41q0,.095.009.189a13.3,13.3,0,0,0,3.017,7.96,14.111,14.111,0,0,0,1.572,1.61,32.846,32.846,0,0,1,.7-5.936,47.107,47.107,0,0,1,7.183-16.693,24.78,24.78,0,0,0-3.519.423c-2.6.509-5.02,2.695-6.807,6.156A24.415,24.415,0,0,0,535.967,874.482Zm41.1,8.694q.71.273,1.443.585-.09-.841-.179-1.695Q577.711,882.64,577.072,883.175Zm-6.519-1.711a25.3,25.3,0,0,1,5.823,1.451q.9-.741,1.779-1.56l.1-.093q-.042-.406-.083-.814a15.642,15.642,0,0,1-2.344-3.746,8.44,8.44,0,0,1-3.9.45c-.267-.065-.557-.143-.864-.236C570.98,878.265,570.813,879.8,570.552,881.464Zm9.045-.609a3.086,3.086,0,0,0,1.43.53,10.926,10.926,0,0,0,3.187-.2q.268-.281.525-.558a40.26,40.26,0,0,1-1.591-3.818A43.719,43.719,0,0,1,579.6,880.855Zm-15.953-.214a19.452,19.452,0,0,0,5.462.742q.391,0,.8.026c.272-1.724.443-3.315.524-4.693a27.791,27.791,0,0,1-5.2-2.387q-.418.654-.8,1.344c-.32.582-.608,1.161-.865,1.731A21.075,21.075,0,0,0,563.644,880.641Zm21.874.089.052.1a16.818,16.818,0,0,0,6.193-3.612,14.9,14.9,0,0,0,3.626-4.908,14.572,14.572,0,0,0-3.212-1.748q-.21-.083-.422-.161-.51.2-1.019.406a21.023,21.023,0,0,1-.512,2.872C589.793,875.349,588.08,877.915,585.518,880.731Zm-6.728-.555q.145.148.294.281a43.3,43.3,0,0,0,3.808-4.372q-.3-.867-.584-1.768c-1.406.58-2.739,1.111-3.966,1.556.148,1.37.288,2.739.427,4.1Zm-16.311.078q.246.092.5.177-.061-.694-.076-1.4Q562.668,879.659,562.48,880.254Zm21.136-4.058c.253.712.517,1.41.794,2.086q.394.963.8,1.825c2.427-2.7,4-5.08,4.387-6.587a19.855,19.855,0,0,0,.455-2.435c-1.393.566-2.768,1.144-4.1,1.7Q584.844,874.56,583.616,876.2Zm-25.7,1.355a14.713,14.713,0,0,0,3.959,2.461,26.9,26.9,0,0,1,1.061-2.768,24.013,24.013,0,0,1,.583-4.015l-.063-.044c-1.87.666-3.662,1.371-5.31,2.072Q558,876.428,557.914,877.552Zm18.535-1.035a17.971,17.971,0,0,0,1.6,2.777q-.163-1.593-.334-3.2Q577.06,876.326,576.449,876.517Zm-24.319-7.584a26.821,26.821,0,0,0-1.894,9.672,11.2,11.2,0,0,1,1.434-.948c1.03-.576,2.286-1.213,3.708-1.874A19.018,19.018,0,0,1,552.13,868.932Zm53.137-2.23a30.716,30.716,0,0,1,.731,3.463q.547,3.6.855,6.925a25.409,25.409,0,0,0,1.921-9.985A9.539,9.539,0,0,0,605.266,866.7ZM556.4,876.021q.194.227.4.446.252.272.516.53.062-.714.148-1.447Q556.919,875.787,556.4,876.021Zm14.7.234c.351.108.68.2.98.272a7.706,7.706,0,0,0,3.466-.415c-.681-1.49-1.329-3.149-1.988-4.838q-.179-.458-.359-.918c-.944.206-1.856.426-2.723.652a8.145,8.145,0,0,1,.615,2.572A23.921,23.921,0,0,1,571.1,876.255Zm25.076-4.157a13.751,13.751,0,0,1,3.53,4.137,45.5,45.5,0,0,0,4.521-9.453,36.478,36.478,0,0,0-7.258,1.719A11.081,11.081,0,0,1,596.178,872.1Zm-30.591,1.7a27.2,27.2,0,0,0,4.88,2.253,22.749,22.749,0,0,0-.016-2.425,7.525,7.525,0,0,0-.6-2.449c-.98.265-1.959.55-2.93.853Q566.215,872.872,565.587,873.795Zm8.254-3.575.32.82c.669,1.713,1.325,3.394,2.01,4.888.469-.145.961-.309,1.474-.49-.212-1.933-.441-3.866-.707-5.776C575.883,869.822,574.846,870.012,573.841,870.22Zm-9.751,3.4q-.219.993-.352,1.991.066-.122.133-.245.386-.7.811-1.367Q564.386,873.811,564.09,873.617Zm-11.538-5.68a18.712,18.712,0,0,0,3.426,7.569q.76-.346,1.575-.7.384-2.934,1.132-6.153a16.135,16.135,0,0,1-1.65-2.7A14.249,14.249,0,0,1,555.9,862.6a21.66,21.66,0,0,0-3.145,4.894Q552.653,867.713,552.552,867.937Zm30.353,6.134q.221.7.455,1.39.8-1.083,1.548-2.228Q583.888,873.661,582.906,874.07Zm-5.328-4.5c.26,1.867.485,3.756.693,5.644,1.2-.44,2.5-.957,3.846-1.513-.443-1.45-.856-2.953-1.249-4.479C579.763,869.3,578.662,869.416,577.577,869.568Zm-18.38-.262q-.61,2.71-.955,5.21c1.438-.605,2.979-1.21,4.581-1.789A21.169,21.169,0,0,1,559.2,869.306Zm5.05,3.647q.393.264.787.508.375-.554.778-1.081-.783.255-1.553.522Zm17.274-3.773c.367,1.422.762,2.86,1.193,4.271.853-.354,1.724-.721,2.6-1.091l.2-.086q.889-1.426,1.7-2.931A32.331,32.331,0,0,0,581.521,869.18Zm-22.139-.672a20.412,20.412,0,0,0,4.168,3.959l.173-.061a25.679,25.679,0,0,1,1.911-4.984q.21-.414.433-.815l0,0a22.311,22.311,0,0,0-5.319-2.941q-.336.922-.609,1.906Q559.722,867.068,559.382,868.508Zm7.2-1.492q-.189.345-.369.7a25.088,25.088,0,0,0-1.746,4.436q1.032-.352,2.085-.683a22.283,22.283,0,0,1,2.175-2.226A13.174,13.174,0,0,0,566.578,867.016Zm21.319,2.422q-.652,1.228-1.36,2.408c1.175-.494,2.382-1,3.6-1.491q.022-.22.04-.446A21.75,21.75,0,0,0,587.9,869.438Zm4.747.62a15.207,15.207,0,0,1,3,1.641,10.475,10.475,0,0,0,.671-2.978C595.1,869.131,593.873,869.583,592.643,870.058ZM556.5,845.383q-.3.119-.6.251c-4.892,2.145-10.109,6.651-13.955,12.053a31,31,0,0,0-5.842,13.722,23.109,23.109,0,0,1,1.446-3.514c1.879-3.64,4.456-5.945,7.256-6.493a25.631,25.631,0,0,1,4.1-.451q1.233-1.752,2.58-3.345a23.994,23.994,0,0,1,5.011-12.223Zm12.6,24.391q-.708.634-1.359,1.331.914-.272,1.834-.522Q569.356,870.174,569.095,869.774Zm.491-.427a10.086,10.086,0,0,1,.62,1.065q1.4-.367,2.756-.666c-.293-.74-.59-1.479-.9-2.2q-.466.292-.915.6Q570.339,868.713,569.586,869.348Zm21.271.082q.452.133.887.285c1.54-.6,3.084-1.18,4.592-1.687a10.841,10.841,0,0,0-1.449-5.285c-1.255.093-2.622.209-4.123.346-.045.12-.091.239-.137.359A30.15,30.15,0,0,1,590.856,869.43Zm-18.233-2.224c.335.79.659,1.6.978,2.4q1.662-.349,3.247-.592-.258-1.791-.568-3.544A23.817,23.817,0,0,0,572.623,867.206Zm15.59,1.627q1.043.171,2.01.422a29.458,29.458,0,0,0-.1-4.555Q589.253,866.815,588.213,868.833Zm-11.318-3.583c.217,1.209.412,2.436.591,3.673q1.656-.233,3.218-.346c-.307-1.213-.6-2.44-.891-3.667q-.055-.234-.1-.471A27.91,27.91,0,0,0,576.895,865.25Zm-9.995,1.2a13.951,13.951,0,0,1,2.311,2.373q.756-.634,1.57-1.2.5-.351,1.027-.675a33.226,33.226,0,0,0-2.16-4.257A22.2,22.2,0,0,0,566.9,866.446Zm16.592,2.026a30.1,30.1,0,0,1,4.046.259,53.925,53.925,0,0,0,2.426-5.361c-.01-.069-.02-.137-.031-.205-1.817.169-3.822.367-6.049.589a33.158,33.158,0,0,0-3.546.544q.047.233.1.463c.286,1.218.589,2.486.915,3.773l.283-.015Q582.585,868.473,583.493,868.473Zm-26.98-6.119a13.561,13.561,0,0,0,1.1,3.322,15.358,15.358,0,0,0,1.265,2.155q.292-1.2.633-2.432.28-1.015.628-1.966A29.44,29.44,0,0,0,556.513,862.353Zm39.081.339a11.48,11.48,0,0,1,1.384,5.123c.787-.256,1.564-.492,2.322-.7a29.53,29.53,0,0,1,5.126-1,29.116,29.116,0,0,0-1.342-3.577A58.978,58.978,0,0,0,595.594,862.692Zm-43.686-1.036a30.018,30.018,0,0,0,.433,5.218,21.981,21.981,0,0,1,3.118-4.743A30.528,30.528,0,0,0,551.908,861.656Zm18.2.546a32.9,32.9,0,0,1,2.261,4.407,24.553,24.553,0,0,1,3.8-1.78q-.324-1.742-.716-3.425-.321-1.368-.683-2.631A16.938,16.938,0,0,0,570.106,862.2Zm35.784,3.841a9.813,9.813,0,0,1,2.856.377,18.884,18.884,0,0,0-.39-2.941,19.364,19.364,0,0,0-2.385-.6c-.219,1.046-.5,2.11-.831,3.185Q605.525,866.043,605.891,866.043Zm-44.913-2.989a22.974,22.974,0,0,1,5.412,2.99,22.737,22.737,0,0,1,2.9-3.916c-1.711-2.546-3.572-3.791-5.676-3.794A19.878,19.878,0,0,0,560.977,863.053Zm42.837-.465q.531,1.213.952,2.468.329-1.155.568-2.287C604.847,862.695,604.343,862.635,603.814,862.589Zm5.091.394a32.959,32.959,0,0,1,4.2,1.817q-.24-.737-.508-1.477c-4.4-12.173-10.482-20.644-18.063-25.178a26.111,26.111,0,0,0-18.9-3.164,35.809,35.809,0,0,0-10.1,3.693,33.354,33.354,0,0,1,7.523,1.127,25.84,25.84,0,0,1,9.328-.894c4.092.409,7.254,1.915,9.136,4.27,3.578-.846,7.236.264,10.571,3.272,2.99,2.7,4.5,6.535,4.468,11.247q.144.2.281.408A15.144,15.144,0,0,1,608.9,862.983ZM575.356,858.5q.381,1.322.718,2.758.386,1.646.7,3.353a28.633,28.633,0,0,1,2.818-.805,18.4,18.4,0,0,1,.249-6.817A23.589,23.589,0,0,0,575.356,858.5Zm5.181-1.653a17.846,17.846,0,0,0-.311,6.819,33.813,33.813,0,0,1,3.6-.551c2.218-.221,4.208-.417,6.008-.584a26.234,26.234,0,0,0-.732-3.063,22.646,22.646,0,0,0-.782-2.169A15.058,15.058,0,0,0,580.537,856.845Zm-23.829,4.885a29.911,29.911,0,0,1,3.666,1.092,20.748,20.748,0,0,1,2.39-4.43A10.827,10.827,0,0,0,556.709,861.73Zm49.388.515a19.863,19.863,0,0,1,2.086.506,14.52,14.52,0,0,0-1.656-3.947,26.63,26.63,0,0,1-.407,3.317Zm-14.089-2.891c-.293,1.011-.626,2.036-1,3.067,1.262-.113,2.426-.212,3.5-.293A12.065,12.065,0,0,0,592.008,859.355Zm-2.866-1.735c.22.567.41,1.123.573,1.659a26.692,26.692,0,0,1,.7,2.884c.392-1.087.739-2.167,1.041-3.228q-.274-.2-.562-.382A12.347,12.347,0,0,0,589.141,857.62Zm14.37,4.3c.429.031.841.071,1.242.12q.36.044.708.1l.025-.132a25.047,25.047,0,0,0,.425-4.107,12.309,12.309,0,0,0-6.447-4.433c-.752-.23-1.573-.468-2.45-.7A32.4,32.4,0,0,1,603.511,861.92ZM592.2,858.683a12.707,12.707,0,0,1,3.042,3.393,64.132,64.132,0,0,1,7.536-.2,32.29,32.29,0,0,0-7.021-9.441c-.736-.184-1.5-.363-2.3-.534A38.033,38.033,0,0,1,592.2,858.683Zm-28.088-.974c2.094.176,3.946,1.474,5.634,3.942a17.486,17.486,0,0,1,4.836-3.506,36.385,36.385,0,0,0-2.336-5.979,20.664,20.664,0,0,0-3.022,1.349A17.656,17.656,0,0,0,564.11,857.708Zm-12.2,3.3a31.27,31.27,0,0,1,3.815.509,16.882,16.882,0,0,1,1.411-8.654,41.881,41.881,0,0,0-5.035,5.006q-.045.41-.078.824Q551.934,859.879,551.913,861.012Zm6.34-9.038q-.084.171-.166.346a16.854,16.854,0,0,0-1.745,8.871,11.078,11.078,0,0,1,6.855-3.49l.09-.005a18.276,18.276,0,0,1,5.624-4.746,21.2,21.2,0,0,1,3.032-1.361,20.62,20.62,0,0,0-3.358-4.676l-.107-.108a24.834,24.834,0,0,0-6.628,2.742A33.562,33.562,0,0,0,558.253,851.974Zm-8.449,8.963q.73,0,1.465.036.02-1.09.106-2.224-.858,1.059-1.669,2.187Zm38.995-4.151a13.034,13.034,0,0,1,2.446,1.224q.2.129.4.264a36.811,36.811,0,0,0,1.182-6.506,56.591,56.591,0,0,0-8.154-1.088A19.261,19.261,0,0,1,588.8,856.786Zm-15.939-4.829a37.089,37.089,0,0,1,2.312,5.917,23.952,23.952,0,0,1,4.838-1.583,21.647,21.647,0,0,1,1.029-3.051,21.227,21.227,0,0,1,1.329-2.627h-.1A30.65,30.65,0,0,0,572.86,851.957Zm23.214-.106c1.307.33,2.511.672,3.579,1a13.04,13.04,0,0,1,6.25,4,13.513,13.513,0,0,0-4.24-9.925c-3.074-2.773-6.43-3.848-9.717-3.178a8.784,8.784,0,0,1,1.256,2.863,13.855,13.855,0,0,1,.34,3.057q.923.731,1.822,1.531Q595.725,851.523,596.074,851.85Zm-38.384-6.9a23.341,23.341,0,0,0-5.431,11.768,41.308,41.308,0,0,1,5.483-5.16,20.96,20.96,0,0,1,6.05-7.2q-.472-.084-.965-.122A13.271,13.271,0,0,0,557.69,844.946ZM583.714,855.9a14.66,14.66,0,0,1,4.249.606,18.236,18.236,0,0,0-4.286-5.867c-.187-.006-.373-.011-.56-.015a20.564,20.564,0,0,0-1.484,2.869,21.065,21.065,0,0,0-.922,2.668A17.916,17.916,0,0,1,583.714,855.9Zm9.788-4.645q.645.137,1.265.281-.61-.537-1.232-1.042Q593.525,850.865,593.5,851.252Zm-24.284-4.611a21.515,21.515,0,0,1,3.342,4.736,31.647,31.647,0,0,1,10.2-1.4l.044-.067a17.734,17.734,0,0,0-5.56-2.912A15.811,15.811,0,0,0,569.218,846.641ZM583.94,850a56.177,56.177,0,0,1,8.928,1.117q.032-.583.034-1.134a46.988,46.988,0,0,0-5.836-3.873,17.206,17.206,0,0,0-3.392,3.662Q583.808,849.889,583.94,850Zm-19.318-5.466a20.761,20.761,0,0,0-5.641,6.1q1.255-.892,2.545-1.643a25.82,25.82,0,0,1,6.383-2.707A8.6,8.6,0,0,0,564.622,844.538Zm8.037,1.105a15.564,15.564,0,0,1,4.786.738,18.4,18.4,0,0,1,5.727,2.988,18.011,18.011,0,0,1,3.286-3.594,56.237,56.237,0,0,0-7.279-3.317c-2.306-.86-4.337-1.505-6.146-1.982a27.635,27.635,0,0,0-4.452,1.693,26.036,26.036,0,0,0-3.291,1.9,9.3,9.3,0,0,1,3.383,2.03A18.289,18.289,0,0,1,572.659,845.644Zm14.967.047a47.8,47.8,0,0,1,5.259,3.47,12.482,12.482,0,0,0-.311-2.4,8.1,8.1,0,0,0-1.306-2.852,11.241,11.241,0,0,0-2.711,1.171Q588.086,845.363,587.626,845.691Zm-13.312-5.547c1.739.5,3.436,1.094,5.09,1.71a56.816,56.816,0,0,1,7.606,3.489,13.738,13.738,0,0,1,1.221-.815,12.117,12.117,0,0,1,2.606-1.165c-1.8-2.1-4.736-3.439-8.513-3.816A24.729,24.729,0,0,0,574.314,840.144Zm-9.849-.852a29.273,29.273,0,0,0-4.366,3.2q-.831.742-1.583,1.535a13.225,13.225,0,0,1,4.359-.445,10.171,10.171,0,0,1,1.611.251,26.345,26.345,0,0,1,3.813-2.247,28.094,28.094,0,0,1,3.518-1.415A29.546,29.546,0,0,0,564.465,839.293Z" transform="translate(-532.324 -833.773)" fill="#2b478b"/>
      </g>
      <g id="Grupo_80842" data-name="Grupo 80842" transform="translate(225.837 318.859)">
        <path id="Trazado_181624" data-name="Trazado 181624" d="M801.164,521.5c1.8-7.009,4.852-13.1,13.1-13.1a13.577,13.577,0,0,1,13.324,14.232c-.439,7.224-6.712,13.343-14.391,12.483C806.009,534.307,799.1,529.527,801.164,521.5Z" transform="translate(-800.793 -508.398)" fill="#214be5" opacity="0.25"/>
        <g id="Grupo_80841" data-name="Grupo 80841" transform="translate(7.984 5.099)" opacity="0.8">
          <path id="Trazado_181625" data-name="Trazado 181625" d="M882.936,571.3a9.469,9.469,0,0,1,.1-1.5,4.5,4.5,0,0,1,.951-2.162,10.97,10.97,0,0,1,.92-1.005q.411-.4.769-.757a6.137,6.137,0,0,0,.63-.733,3.331,3.331,0,0,0,.43-.8,2.7,2.7,0,0,0,.157-.945,2.447,2.447,0,0,0-.563-1.738,2.16,2.16,0,0,0-1.653-.6,3,3,0,0,0-.848.121,2.09,2.09,0,0,0-.739.388,1.972,1.972,0,0,0-.527.678,2.256,2.256,0,0,0-.2.993h-2.943a4.792,4.792,0,0,1,.418-2,4.14,4.14,0,0,1,1.114-1.453,4.811,4.811,0,0,1,1.659-.884,7.52,7.52,0,0,1,4.245.018,4.442,4.442,0,0,1,1.623.92,3.917,3.917,0,0,1,1.011,1.477,5.33,5.33,0,0,1,.345,1.974,4.276,4.276,0,0,1-.254,1.49,5.659,5.659,0,0,1-.678,1.3,9.249,9.249,0,0,1-.969,1.163q-.545.557-1.126,1.1a3.005,3.005,0,0,0-.89,1.326,5.732,5.732,0,0,0-.236,1.629Zm-.206,3.766a1.782,1.782,0,0,1,.109-.63,1.431,1.431,0,0,1,.842-.848,2.133,2.133,0,0,1,1.417,0,1.457,1.457,0,0,1,.521.339,1.53,1.53,0,0,1,.327.509,1.7,1.7,0,0,1,.115.63,1.534,1.534,0,0,1-.436,1.114,1.644,1.644,0,0,1-1.235.448,1.623,1.623,0,0,1-1.229-.448A1.545,1.545,0,0,1,882.73,575.071Z" transform="translate(-879.424 -558.614)" fill="#fff"/>
        </g>
      </g>
      <g id="Grupo_80843" data-name="Grupo 80843" transform="translate(263.466 309.632)">
        <path id="Trazado_181626" data-name="Trazado 181626" d="M1183.136,448.291l-11.758,3.379,7.206-6.533.647,1.683,2.991.123Z" transform="translate(-1171.378 -442.333)" fill="#eabe96"/>
        <path id="Trazado_181627" data-name="Trazado 181627" d="M1171.378,435.257l9.267-6.535,9.715-1.853Z" transform="translate(-1171.378 -425.92)" fill="#f9ddbf"/>
        <path id="Trazado_181628" data-name="Trazado 181628" d="M1178.584,420.326l-7.206,6.533,4.983-9.337Z" transform="translate(-1171.378 -417.521)" fill="#f9ddbf"/>
      </g>
      <g id="Grupo_80844" data-name="Grupo 80844" transform="translate(370.528 357.092)">
        <path id="Trazado_181629" data-name="Trazado 181629" d="M2303.961,919.456l12.255,1.745-8.134-5.541-.413,1.777-2.98.54Z" transform="translate(-2296.022 -912.539)" fill="#edcbab"/>
        <path id="Trazado_181630" data-name="Trazado 181630" d="M2245.968,919.3l-10.2-5.255-10-.5Z" transform="translate(-2225.773 -910.639)" fill="#f9ddbf"/>
        <path id="Trazado_181631" data-name="Trazado 181631" d="M2344.55,888.049l8.134,5.541-6.3-8.661Z" transform="translate(-2332.489 -884.929)" fill="#f9ddbf"/>
      </g>
      <g id="Grupo_80855" data-name="Grupo 80855" transform="translate(327.512 345.362)">
        <g id="Grupo_80846" data-name="Grupo 80846" transform="translate(5.09 1.352)">
          <g id="Grupo_80845" data-name="Grupo 80845">
            <path id="Trazado_181632" data-name="Trazado 181632" d="M1893.555,862.86a41.445,41.445,0,0,1-30.5-13.574,32.405,32.405,0,0,1-8.474-25.415l.154.018-.154-.018c1.415-12.461,5.626-22.116,12.517-28.7,6.536-6.243,15.434-9.694,26.445-10.255,12.883-.657,22.8,3.013,29.463,10.907a37.268,37.268,0,0,1,6.819,12.724,61.78,61.78,0,0,1,2.7,15.331,47.5,47.5,0,0,1-1.565,16.067,29.946,29.946,0,0,1-6.887,12.3C1917.423,859.288,1907.155,862.86,1893.555,862.86Zm2.875-77.707q-1.409,0-2.868.074c-10.936.558-19.766,3.979-26.247,10.169-6.837,6.531-11.016,16.123-12.423,28.509a32.1,32.1,0,0,0,8.4,25.173,41.13,41.13,0,0,0,30.265,13.47c13.511,0,23.7-3.54,30.293-10.521a29.639,29.639,0,0,0,6.815-12.169,47.193,47.193,0,0,0,1.554-15.961,61.479,61.479,0,0,0-2.682-15.254,36.961,36.961,0,0,0-6.761-12.618C1916.675,788.8,1907.821,785.154,1896.431,785.154Z" transform="translate(-1854.17 -784.628)" fill="#2b478b"/>
            <path id="Trazado_181633" data-name="Trazado 181633" d="M1891.652,861.172A41.663,41.663,0,0,1,1861,847.526a32.636,32.636,0,0,1-8.55-25.369h0l.048-.427h0c1.444-12.409,5.668-22.036,12.557-28.616,6.574-6.28,15.518-9.75,26.583-10.314,12.954-.66,22.926,3.035,29.639,10.983a37.486,37.486,0,0,1,6.859,12.8,62,62,0,0,1,2.707,15.385,47.727,47.727,0,0,1-1.574,16.14,30.162,30.162,0,0,1-6.937,12.382C1915.634,857.577,1905.314,861.172,1891.652,861.172Zm2.875-77.707c-.93,0-1.892.025-2.857.074-10.882.555-19.667,3.956-26.109,10.11-6.8,6.495-10.957,16.043-12.358,28.378a31.886,31.886,0,0,0,8.344,25.006,40.912,40.912,0,0,0,30.1,13.4c13.45,0,23.589-3.517,30.136-10.454a29.429,29.429,0,0,0,6.765-12.082,46.984,46.984,0,0,0,1.545-15.889,61.267,61.267,0,0,0-2.672-15.2,36.753,36.753,0,0,0-6.72-12.546C1914.656,787.1,1905.849,783.466,1894.528,783.466Z" transform="translate(-1852.267 -782.725)" fill="#2b478b"/>
          </g>
        </g>
        <g id="Grupo_80848" data-name="Grupo 80848" transform="translate(1.235 1.42)">
          <g id="Grupo_80847" data-name="Grupo 80847">
            <path id="Trazado_181634" data-name="Trazado 181634" d="M1860.826,865.192c-6.463,0-13.574-1.835-21.266-5.5a41.445,41.445,0,0,1-21.7-25.369,32.405,32.405,0,0,1,3.279-26.589c6.636-10.641,14.59-17.548,23.642-20.527,8.585-2.826,18.1-2.115,28.285,2.114,11.914,4.947,19.285,12.523,21.91,22.517a37.273,37.273,0,0,1,.685,14.419,61.775,61.775,0,0,1-4.158,15,47.506,47.506,0,0,1-8.323,13.832,28.99,28.99,0,0,1-22.358,10.1Zm-39.551-57.375.132.082a32.1,32.1,0,0,0-3.244,26.337,41.129,41.129,0,0,0,21.531,25.176c12.2,5.81,22.922,7,31.873,3.528a29.638,29.638,0,0,0,11.385-8.056,47.192,47.192,0,0,0,8.266-13.742,61.467,61.467,0,0,0,4.138-14.925,36.961,36.961,0,0,0-.677-14.3c-2.6-9.9-9.909-17.4-21.728-22.309-10.113-4.2-19.557-4.908-28.069-2.105-8.981,2.956-16.879,9.818-23.475,20.4Z" transform="translate(-1816.199 -785.298)" fill="#2b478b"/>
            <path id="Trazado_181635" data-name="Trazado 181635" d="M1858.922,863.5c-6.483,0-13.668-1.857-21.358-5.519a41.665,41.665,0,0,1-21.81-25.5,32.617,32.617,0,0,1,3.3-26.763c6.663-10.685,14.656-17.622,23.756-20.617,8.636-2.843,18.2-2.129,28.435,2.119,11.979,4.974,19.393,12.6,22.035,22.661a37.482,37.482,0,0,1,.69,14.5,61.986,61.986,0,0,1-4.172,15.054,47.722,47.722,0,0,1-8.361,13.894,29.206,29.206,0,0,1-22.519,10.172Zm-39.237-57.393a31.888,31.888,0,0,0-3.22,26.163,40.912,40.912,0,0,0,21.417,25.042c12.143,5.784,22.809,6.969,31.7,3.522a29.429,29.429,0,0,0,11.3-8,46.986,46.986,0,0,0,8.227-13.68,61.269,61.269,0,0,0,4.124-14.872,36.745,36.745,0,0,0-.672-14.216c-2.58-9.827-9.849-17.285-21.6-22.166-10.064-4.179-19.457-4.885-27.92-2.1C1834.114,788.743,1826.254,795.575,1819.685,806.109Z" transform="translate(-1814.296 -783.394)" fill="#2b478b"/>
          </g>
        </g>
        <g id="Grupo_80850" data-name="Grupo 80850" transform="translate(5.49 0)">
          <g id="Grupo_80849" data-name="Grupo 80849">
            <path id="Trazado_181636" data-name="Trazado 181636" d="M1900.666,855.013c-9.377,0-19.01-4.506-28.666-13.419a42.9,42.9,0,0,1-13.67-31.738,33.546,33.546,0,0,1,11.4-25.284l.1.122-.1-.122c9.825-8.486,19.808-12.875,29.672-13.044,9.352-.161,18.547,3.462,27.319,10.766,10.262,8.546,15.227,18.3,14.756,28.984a38.583,38.583,0,0,1-3.746,14.467,63.966,63.966,0,0,1-8.713,13.557,49.178,49.178,0,0,1-12.472,11.123,31,31,0,0,1-13.871,4.518Q1901.672,855.013,1900.666,855.013Zm-.671-83.169c-.2,0-.393,0-.59.005-9.786.168-19.7,4.53-29.467,12.966a33.229,33.229,0,0,0-11.286,25.046,42.578,42.578,0,0,0,13.566,31.5c10.279,9.486,20.516,13.95,30.432,13.265a30.686,30.686,0,0,0,13.729-4.473,48.861,48.861,0,0,0,12.388-11.052,63.64,63.64,0,0,0,8.67-13.488,38.264,38.264,0,0,0,3.716-14.346c.466-10.581-4.46-20.245-14.641-28.723C1917.987,775.442,1909.067,771.845,1899.995,771.845Z" transform="translate(-1858.109 -771.308)" fill="#2b478b"/>
            <path id="Trazado_181637" data-name="Trazado 181637" d="M1898.765,853.326h0c-9.429,0-19.123-4.534-28.812-13.476a43.123,43.123,0,0,1-13.739-31.9,33.779,33.779,0,0,1,11.31-25.3h0l.325-.281h0c9.812-8.428,19.784-12.787,29.646-12.956,9.406-.163,18.647,3.477,27.46,10.816,10.316,8.591,15.307,18.4,14.833,29.159a38.8,38.8,0,0,1-3.765,14.548,64.174,64.174,0,0,1-8.742,13.6,49.393,49.393,0,0,1-12.527,11.171,31.214,31.214,0,0,1-13.967,4.548c-.669.046-1.349.07-2.021.07Zm-.671-83.169c-.2,0-.39,0-.586,0-9.735.167-19.6,4.512-29.33,12.914a33.016,33.016,0,0,0-11.212,24.887,42.36,42.36,0,0,0,13.5,31.335c9.554,8.817,19.065,13.276,28.3,13.276q.987,0,1.969-.068a30.472,30.472,0,0,0,13.633-4.443,48.656,48.656,0,0,0,12.333-11,63.43,63.43,0,0,0,8.641-13.442,38.052,38.052,0,0,0,3.7-14.265c.463-10.511-4.437-20.116-14.563-28.548C1915.99,773.74,1907.114,770.158,1898.093,770.158Z" transform="translate(-1856.208 -769.406)" fill="#2b478b"/>
          </g>
        </g>
        <g id="Grupo_80852" data-name="Grupo 80852" transform="translate(0 0.589)">
          <g id="Grupo_80851" data-name="Grupo 80851">
            <path id="Trazado_181638" data-name="Trazado 181638" d="M1840.509,859.538a29.919,29.919,0,0,1-10.473-1.833c-9.4-3.491-16.957-11.834-22.454-24.8a42.906,42.906,0,0,1,.613-34.552,33.547,33.547,0,0,1,20.8-18.347c12.448-3.687,23.352-3.576,32.411.332,8.591,3.706,15.476,10.792,20.461,21.061,5.833,12.013,6.341,22.944,1.511,32.489a38.586,38.586,0,0,1-9.371,11.641,63.965,63.965,0,0,1-13.523,8.766,49.184,49.184,0,0,1-15.946,5A34.882,34.882,0,0,1,1840.509,859.538Zm-11.47-79.373.046.154a33.23,33.23,0,0,0-20.6,18.176,42.579,42.579,0,0,0-.608,34.289c5.46,12.878,12.953,21.161,22.27,24.62a30.683,30.683,0,0,0,14.352,1.577,48.861,48.861,0,0,0,15.84-4.97,63.644,63.644,0,0,0,13.455-8.721,38.262,38.262,0,0,0,9.294-11.543c4.782-9.451,4.273-20.285-1.514-32.2-4.951-10.2-11.781-17.231-20.3-20.906-8.988-3.877-19.818-3.984-32.192-.319Z" transform="translate(-1804.036 -777.112)" fill="#2b478b"/>
            <path id="Trazado_181639" data-name="Trazado 181639" d="M1838.61,857.852a30.2,30.2,0,0,1-10.548-1.846c-9.461-3.513-17.057-11.895-22.577-24.914a43.123,43.123,0,0,1,.616-34.727,33.759,33.759,0,0,1,20.932-18.461c12.5-3.7,23.452-3.587,32.557.341,8.64,3.727,15.561,10.848,20.57,21.164,5.863,12.077,6.371,23.072,1.51,32.68a38.8,38.8,0,0,1-9.422,11.706,64.174,64.174,0,0,1-13.568,8.8,49.387,49.387,0,0,1-16.016,5.022A35.208,35.208,0,0,1,1838.61,857.852Zm-11.363-79.228a33.018,33.018,0,0,0-20.466,18.062,42.36,42.36,0,0,0-.6,34.113c5.436,12.821,12.887,21.065,22.146,24.5a30.471,30.471,0,0,0,14.253,1.565,48.65,48.65,0,0,0,15.77-4.949,63.424,63.424,0,0,0,13.409-8.691A38.052,38.052,0,0,0,1881,831.749c4.75-9.387,4.24-20.158-1.515-32.013-4.928-10.15-11.721-17.148-20.191-20.8C1850.352,775.077,1839.57,774.973,1827.247,778.624Z" transform="translate(-1802.136 -775.21)" fill="#2b478b"/>
          </g>
        </g>
        <g id="Grupo_80854" data-name="Grupo 80854" transform="translate(7.394 1.353)">
          <g id="Grupo_80853" data-name="Grupo 80853">
            <path id="Trazado_181640" data-name="Trazado 181640" d="M1916.208,862.86c-11.507,0-21.246-6.041-28.835-14.541-6.5-7.278-11.169-15.338-10.135-24.448,1.415-12.461,5.626-22.116,12.517-28.7,6.536-6.243,15.433-9.694,26.446-10.255,12.883-.657,22.8,3.013,29.464,10.907a37.276,37.276,0,0,1,6.819,12.724,61.8,61.8,0,0,1,2.7,15.331,47.517,47.517,0,0,1-1.565,16.067,29.947,29.947,0,0,1-6.887,12.295C1940.076,859.288,1929.808,862.86,1916.208,862.86Zm-38.816-38.971.154.018c-1.024,9.022,3.9,17.074,10.344,24.285,7.531,8.435,16.9,14.358,28.318,14.358,13.511,0,23.7-3.54,30.293-10.521a29.643,29.643,0,0,0,6.815-12.169,47.2,47.2,0,0,0,1.553-15.961,61.474,61.474,0,0,0-2.682-15.254,36.967,36.967,0,0,0-6.761-12.618c-6.6-7.816-16.429-11.449-29.21-10.8-10.936.558-19.766,3.979-26.247,10.169-6.837,6.531-11.016,16.123-12.423,28.509Z" transform="translate(-1876.876 -784.628)" fill="#2b478b"/>
            <path id="Trazado_181641" data-name="Trazado 181641" d="M1914.284,861.174a33.69,33.69,0,0,1-15.988-4.108,47.828,47.828,0,0,1-13.008-10.5,46.784,46.784,0,0,1-7.928-11.591,24.156,24.156,0,0,1-2.261-13.025c1.421-12.512,5.654-22.212,12.582-28.83,6.574-6.28,15.518-9.75,26.583-10.314,12.955-.659,22.926,3.035,29.639,10.983a37.49,37.49,0,0,1,6.859,12.8,62.01,62.01,0,0,1,2.707,15.385,47.726,47.726,0,0,1-1.574,16.14,30.163,30.163,0,0,1-6.937,12.382C1938.266,857.579,1927.945,861.174,1914.284,861.174Zm-38.448-39.144c-.865,7.622,2.4,15.286,10.291,24.118,8.464,9.48,17.938,14.286,28.158,14.286,13.45,0,23.589-3.517,30.136-10.454a29.426,29.426,0,0,0,6.765-12.082,47,47,0,0,0,1.545-15.889,61.276,61.276,0,0,0-2.672-15.2,36.754,36.754,0,0,0-6.72-12.546c-6.556-7.762-16.323-11.37-29.035-10.721-10.882.555-19.667,3.956-26.109,10.11C1881.394,800.147,1877.236,809.694,1875.836,822.029Zm2.121,13.2a47.165,47.165,0,0,0,7.653,11.042,54.858,54.858,0,0,0,4.563,4.559,56.785,56.785,0,0,1-4.367-4.4A50.171,50.171,0,0,1,1877.956,835.233Z" transform="translate(-1874.952 -782.727)" fill="#2b478b"/>
          </g>
        </g>
      </g>
      <g id="Grupo_80856" data-name="Grupo 80856" transform="translate(336.805 372.998)">
        <path id="Trazado_181642" data-name="Trazado 181642" d="M2055.9,1266.522l-.059.1c-.467.812-1.538,2.8-2.718,4.976-.558,1.032-1.142,2.107-1.7,3.119-.955,1.745-1.824,3.3-2.331,4.121s-.9,1.422-1.049,1.657h0a.387.387,0,0,0-.05.242,12.676,12.676,0,0,1-.033,2.188,16.788,16.788,0,0,1-5.486,10.873l-1.419.21s2.009-7.442,2.6-11.649a8.109,8.109,0,0,0,.109-1.668,17.424,17.424,0,0,1,.458-4.553,102.04,102.04,0,0,1,2.9-10.539c.066-.206,2.063-7.427,2.063-7.427,1.676,1.464,7.786,2.069,7.786,2.069S2058.01,1262.766,2055.9,1266.522Z" transform="translate(-2026.088 -1236.185)" fill="#ffd400"/>
        <path id="Trazado_181643" data-name="Trazado 181643" d="M2011.716,1599.619h5.924a3.252,3.252,0,0,0-.168-1.588c-.3-.657-.719-.678-.054-1.709a3.609,3.609,0,0,1-2.443.433,7.265,7.265,0,0,1-1.027,1.563C2013.562,1598.6,2011.835,1598.5,2011.716,1599.619Z" transform="translate(-1999.728 -1539.995)" fill="#2358a5"/>
        <path id="Trazado_181644" data-name="Trazado 181644" d="M2149.8,1309.446l-.059.1c-.467.811-2.992,5.475-4.172,7.651a31.55,31.55,0,0,0,.416-11.248Z" transform="translate(-2119.986 -1279.109)" fill="#d5b30d"/>
        <path id="Trazado_181645" data-name="Trazado 181645" d="M1962,1044.14a2.35,2.35,0,0,1,2.621-2.556,3.355,3.355,0,0,0-1.313.7,3.378,3.378,0,0,1,3.8.574c1.982,1.643.75,5.765,1.353,6.547s2.95.939,2.663,3.469-7.451,5.7-6.99,7.792c0,0-2.808-4.127-.8-6.01a3.722,3.722,0,0,0-1.078,2.017s-.265-2.139,1.1-2.823a5.024,5.024,0,0,0,2.087-3.215C1965.34,1050.244,1962,1044.14,1962,1044.14Z" transform="translate(-1955.057 -1041.584)" fill="#202d4f"/>
        <path id="Trazado_181646" data-name="Trazado 181646" d="M1904.629,1172.469s-4.063,10.254-4.939,9.874-6.036-2.019-6.036-2.019a11.372,11.372,0,0,0,.267,1.528c.755.6,4.555,3.529,6.831,3.678,2.527.165,5.95-7.28,5.95-7.28Z" transform="translate(-1893.654 -1159.179)" fill="#ffb27d"/>
        <path id="Trazado_181647" data-name="Trazado 181647" d="M1941.238,1062.851a23.733,23.733,0,0,1,3.557,1.739c1.605,1.78,1.148,4.1.229,4.126-.589.014-.475.994-.475.994l-6.562-2.776S1938.777,1062.327,1941.238,1062.851Z" transform="translate(-1933.486 -1060.655)" fill="#202d4f"/>
        <path id="Trazado_181648" data-name="Trazado 181648" d="M1983.984,1174.572s-.874.905-.874,3.614a6.278,6.278,0,0,0,4.327,2.382S1984.752,1174.57,1983.984,1174.572Z" transform="translate(-1974.027 -1161.068)" fill="#1c468a"/>
        <path id="Trazado_181649" data-name="Trazado 181649" d="M2141.568,1249.748l-.02-1.108c2.207.279,7.612-2.638,7.612-2.638s2.31,1.536,2.626,5.923c.154,2.141,1.13,11.2,1.239,13.9.039.98.052,1.679.057,1.959a.009.009,0,0,0,0,0,.387.387,0,0,0,.094.228,12.623,12.623,0,0,1,1.2,1.833c3.369,6.268,1.607,14.783,1.607,14.783l-.782-.2s-2.848-8.828-4.71-12.647a7.992,7.992,0,0,0-.843-1.443,17.41,17.41,0,0,1-2.165-4.031C2146.1,1263.026,2141.568,1249.748,2141.568,1249.748Z" transform="translate(-2116.377 -1225.245)" fill="#ffd400"/>
        <path id="Trazado_181650" data-name="Trazado 181650" d="M2237.26,1599.24h5.924a3.254,3.254,0,0,0-.167-1.588c-.3-.657-.761-.956-.65-1.751a2.133,2.133,0,0,1-1.846.707,6.493,6.493,0,0,1-1.028,1.332C2239.105,1598.218,2237.379,1598.119,2237.26,1599.24Z" transform="translate(-2202.37 -1539.616)" fill="#2358a5"/>
        <path id="Trazado_181651" data-name="Trazado 181651" d="M1995.57,1149.975c.8.136-.13.768.964.887a19.764,19.764,0,0,1,4.009.622.9.9,0,0,1,.577.467,10.993,10.993,0,0,0,1.975,2.793c10.315-.47,11.448-4.784,11.448-4.784-6.7-6.5-12.851-10.337-17.551-10.844a5.729,5.729,0,0,0-2.546.746,7,7,0,0,0-2.728,2.845S1992.546,1149.459,1995.57,1149.975Z" transform="translate(-1981.76 -1129.204)" fill="#1c468a"/>
        <path id="Trazado_181652" data-name="Trazado 181652" d="M2039.159,1180.626a19.763,19.763,0,0,1,4.009.622,16.426,16.426,0,0,0-2.083-9.015S2039.5,1178.679,2039.159,1180.626Z" transform="translate(-2024.385 -1158.968)" fill="#163560"/>
        <path id="Trazado_181653" data-name="Trazado 181653" d="M2001.257,1163.615s3.917-.214,4.613,2.246-1.306,12.276-1.737,13.289a67.451,67.451,0,0,1-4.609,7.109l-1.054-.542s2.2-7.929,2.767-8.725C2002.13,1175.743,2000.084,1164.685,2001.257,1163.615Z" transform="translate(-1987.826 -1151.22)" fill="#ffb27d"/>
        <path id="Trazado_181654" data-name="Trazado 181654" d="M1987.562,1374.088a4.851,4.851,0,0,1-.966,1.795,3.2,3.2,0,0,0-.57,1.635s-.048.377.116.34.348-.855.641-.815a5.674,5.674,0,0,1-.312,1.171c-.155.257-.247,1.053-.026,1.151.534.235,1.324-.772,1.794-1.4s.007-3.2.007-3.2Z" transform="translate(-1976.641 -1340.326)" fill="#ffb27d"/>
        <path id="Trazado_181655" data-name="Trazado 181655" d="M2019.891,1162.722c-.01.058-3.707.68-6.019-.493,0,0-1.932-6.052.829-5.762s4.4,1.159,4.464,2.481A25.46,25.46,0,0,0,2019.891,1162.722Z" transform="translate(-2001.075 -1144.793)" fill="#1c468a"/>
        <path id="Trazado_181656" data-name="Trazado 181656" d="M1980.99,1128.36s-1.089,4.064-2.728,2.845a3.364,3.364,0,0,0-.577-1.346c-.431-.74-.944-1.5-.944-1.5l2.217-1.942.132-.116A5.855,5.855,0,0,0,1980.99,1128.36Z" transform="translate(-1968.304 -1117.702)" fill="#ffb27d"/>
        <path id="Trazado_181657" data-name="Trazado 181657" d="M1976.743,1129.389s.513.755.943,1.5a3.431,3.431,0,0,0,1.273-3.439Z" transform="translate(-1968.306 -1118.728)" fill="#ed985f"/>
        <path id="Trazado_181658" data-name="Trazado 181658" d="M1944.163,1095.306s3.346-1.862,2.154-3.928-1.562-3.7-3.749-2.6-2.143,2.127-1.913,2.913S1943.262,1095.737,1944.163,1095.306Z" transform="translate(-1935.788 -1083.671)" fill="#ffb27d"/>
        <path id="Trazado_181659" data-name="Trazado 181659" d="M1935.827,1088.014c.153-.917.62-1,.944-.943a2.676,2.676,0,0,1,3.255-1.246,4.555,4.555,0,0,0,2.637,1.584s-.389.723-1.988,1.17a2.734,2.734,0,0,1-1.578-.126,8.937,8.937,0,0,0,2.271.856c-2.108.193-4.114-1.735-4.322-1.941a3,3,0,0,0-.166,1.381c.139.621.69,1.747.354,1.892C1937.233,1090.641,1935.6,1089.39,1935.827,1088.014Z" transform="translate(-1931.525 -1081.195)" fill="#202d4f"/>
      </g>
      <path id="Trazado_181660" data-name="Trazado 181660" d="M1884.251,1245.052a1.106,1.106,0,0,1-1.206-.355c-.311-.317-.867-.488-.58-.658s1.055.179,1.235.24S1884.251,1245.052,1884.251,1245.052Z" transform="translate(-1546.724 -850.442)" fill="#ffb27d"/>
      <g id="Grupo_80858" data-name="Grupo 80858" transform="translate(359.562 313.599)">
        <path id="Trazado_181661" data-name="Trazado 181661" d="M2118.146,469.653c1.8-6.985,4.835-13.06,13.06-13.06a13.531,13.531,0,0,1,13.279,14.184c-.437,7.2-6.689,13.3-14.342,12.44C2122.975,482.414,2116.088,477.651,2118.146,469.653Z" transform="translate(-2117.777 -456.593)" fill="#214be5" opacity="0.25"/>
        <g id="Grupo_80857" data-name="Grupo 80857" transform="translate(11.489 3.707)" opacity="0.8">
          <path id="Trazado_181662" data-name="Trazado 181662" d="M2230.928,511.339a1.9,1.9,0,0,1,.129-.707,1.719,1.719,0,0,1,.367-.571,1.634,1.634,0,0,1,.585-.381,2.4,2.4,0,0,1,1.591,0,1.633,1.633,0,0,1,.584.381,1.719,1.719,0,0,1,.367.571,1.909,1.909,0,0,1,.129.707,1.723,1.723,0,0,1-.49,1.251,2.164,2.164,0,0,1-2.775,0A1.724,1.724,0,0,1,2230.928,511.339Zm3.251-4.271h-2.843l-.313-13.969h3.482Z" transform="translate(-2230.928 -493.099)" fill="#fff"/>
        </g>
      </g>
      <g id="Grupo_80868" data-name="Grupo 80868" transform="translate(273.514 311.755)">
        <path id="Trazado_181663" data-name="Trazado 181663" d="M1271.173,467.762c4.036-15.684,10.858-29.324,29.324-29.324,16.2,0,30.884,14.266,29.816,31.848-.982,16.165-15.019,29.858-32.2,27.933C1282.015,496.416,1266.552,485.72,1271.173,467.762Z" transform="translate(-1270.343 -438.438)" fill="#214be5" opacity="0.25"/>
        <g id="Grupo_80864" data-name="Grupo 80864" transform="translate(17.804 15.196)">
          <path id="Trazado_181664" data-name="Trazado 181664" d="M1470.484,600.416a12.349,12.349,0,0,1-2.812,7.938,10.376,10.376,0,0,0-2.386,6.579V618.4a4.013,4.013,0,0,1-4,4h-6.4a4.012,4.012,0,0,1-4-4v-3.46a10.336,10.336,0,0,0-2.374-6.57,12.4,12.4,0,0,1,6.872-19.981q.237-.053.477-.1l.256-.044a12.4,12.4,0,0,1,14.368,12.167Z" transform="translate(-1445.687 -588.092)" fill="#ffe66d"/>
          <path id="Trazado_181665" data-name="Trazado 181665" d="M1537.767,925.965l-.014.107-.176,1.348-.046.355v0l-.047.358-.175,1.348-.046.355v0l-.046.358-.026.2a1.694,1.694,0,0,1-1.806,1.206h-2.107a2.4,2.4,0,0,1-.634-.084h0a2.044,2.044,0,0,1-.491-.2l-.011-.007a1.62,1.62,0,0,1-.319-.243,1.155,1.155,0,0,1-.349-.656l-.075-.523-.048-.329h0v-.007h0l-.046-.322-.179-1.25-.047-.328v-.007l-.047-.324-.194-1.354Z" transform="translate(-1522.191 -891.658)" fill="#ed7d2b"/>
          <g id="Grupo_80859" data-name="Grupo 80859" transform="translate(8.84 34.307)">
            <path id="Trazado_181666" data-name="Trazado 181666" d="M1538.646,925.965h-1.19c-1.921.556-3.827,1.1-4.71,1.354l.046.324v.007l.047.328c.715-.2,2.432-.69,6.628-1.906l.014-.107Z" transform="translate(-1532.746 -925.965)" fill="#f99746"/>
            <path id="Trazado_181667" data-name="Trazado 181667" d="M1535.484,942.421h0v.007h0l.048.329c.827-.232,2.533-.722,6.086-1.751l.047-.357v0l.046-.355c-2.245.65-4.962,1.435-6.273,1.807Z" transform="translate(-1535.165 -938.837)" fill="#f99746"/>
            <path id="Trazado_181668" data-name="Trazado 181668" d="M1540.86,962.437l.011.007a2.053,2.053,0,0,0,.49.2h0c.974-.279,2.421-.7,4.572-1.32l.046-.358v0l.046-.355c-1.921.556-4.125,1.193-5.487,1.582A1.625,1.625,0,0,0,1540.86,962.437Z" transform="translate(-1539.749 -957.094)" fill="#f99746"/>
          </g>
          <g id="Grupo_80863" data-name="Grupo 80863" transform="translate(7.212 18.134)">
            <g id="Grupo_80860" data-name="Grupo 80860" transform="translate(0 0.264)">
              <rect id="Rectángulo_23307" data-name="Rectángulo 23307" width="0.561" height="16.088" transform="translate(0 0.094) rotate(-9.615)" fill="#ed7d2b"/>
            </g>
            <g id="Grupo_80861" data-name="Grupo 80861" transform="translate(6.885 0.511)">
              <rect id="Rectángulo_23308" data-name="Rectángulo 23308" width="15.871" height="0.561" transform="matrix(0.18, -0.984, 0.984, 0.18, 0, 15.612)" fill="#ed7d2b"/>
            </g>
            <g id="Grupo_80862" data-name="Grupo 80862" transform="translate(0.272)">
              <path id="Trazado_181669" data-name="Trazado 181669" d="M1525.786,769.874a1.092,1.092,0,0,1-.242-.03.348.348,0,0,1-.275-.3,2.6,2.6,0,0,1,.6-1.538,1.511,1.511,0,0,0-.752-.728c-.416-.126-1.055.258-1.5.749a3.328,3.328,0,0,1,.219.356c.228.43.392.981.168,1.235-.083.094-.253.18-.589.053a.7.7,0,0,1-.414-.977,2.241,2.241,0,0,1,.4-.68,1.52,1.52,0,0,0-1.259-.734,1.39,1.39,0,0,0-.623.235,1.879,1.879,0,0,1,.156,1.593.506.506,0,0,1-.675.224c-.214-.076-.326-.371-.285-.75a1.734,1.734,0,0,1,.582-1.11,1.442,1.442,0,0,0-.323-.362,1.069,1.069,0,0,0-1.455.073l-.122-.118a1.256,1.256,0,0,1,1.681-.088,1.6,1.6,0,0,1,.353.393,1.56,1.56,0,0,1,.689-.257,1.667,1.667,0,0,1,1.393.772,1.92,1.92,0,0,1,1.655-.769,1.621,1.621,0,0,1,.81.747,2.91,2.91,0,0,1,.652-.642c.354-.234.585-.181.716-.094a1.284,1.284,0,0,1,.344.344,1.9,1.9,0,0,1,.329-.212.93.93,0,0,1,1.061.042l-.109.13a.8.8,0,0,0-.876-.02,1.774,1.774,0,0,0-.316.2,1.8,1.8,0,0,1,.17,1.445.359.359,0,0,1-.48.188.638.638,0,0,1-.472-.582,1.528,1.528,0,0,1,.562-1.084,1.1,1.1,0,0,0-.306-.315c-.16-.105-.376-.007-.529.094a2.865,2.865,0,0,0-.656.659,2.208,2.208,0,0,1,.29,1.413A.549.549,0,0,1,1525.786,769.874Zm.168-1.7a2.336,2.336,0,0,0-.518,1.341.182.182,0,0,0,.146.166c.332.075.537-.022.607-.289A1.979,1.979,0,0,0,1525.954,768.172Zm-2.454-.012a2.016,2.016,0,0,0-.343.589.529.529,0,0,0,.314.763c.135.051.315.092.4-.006.133-.151.055-.58-.19-1.044A3.211,3.211,0,0,0,1523.5,768.159Zm-2.122-.538a1.562,1.562,0,0,0-.5.978c-.031.29.04.525.173.572a.343.343,0,0,0,.469-.145A1.7,1.7,0,0,0,1521.378,767.622Zm6.263.108a1.361,1.361,0,0,0-.479.926.478.478,0,0,0,.36.432.192.192,0,0,0,.27-.105A1.627,1.627,0,0,0,1527.641,767.73Z" transform="translate(-1519.392 -766.685)" fill="#ed7d2b"/>
            </g>
          </g>
          <path id="Trazado_181670" data-name="Trazado 181670" d="M1595.36,624c1.019.96.891,2.727-.42,3.12a2.888,2.888,0,0,1-3.191-1.361c-.728-1.262-.392-2.3.5-2.815S1594.3,623,1595.36,624Z" transform="translate(-1576.562 -619.231)" fill="#fff0e3"/>
        </g>
        <g id="Grupo_80867" data-name="Grupo 80867" transform="translate(7.038 6.502)">
          <rect id="Rectángulo_23309" data-name="Rectángulo 23309" width="0.908" height="5.674" rx="0.454" transform="translate(22.379 0.687)" fill="#ffd400"/>
          <g id="Grupo_80865" data-name="Grupo 80865" transform="translate(30.565)">
            <rect id="Rectángulo_23310" data-name="Rectángulo 23310" width="0.908" height="3.543" rx="0.454" transform="matrix(0.5, 0.866, -0.866, 0.5, 9.914, 9.821)" fill="#ffd400"/>
            <path id="Trazado_181671" data-name="Trazado 181671" d="M1726.773,684.348h0a.455.455,0,0,1,.454-.454h6.058a.455.455,0,0,1,.454.454h0a.455.455,0,0,1-.454.454h-6.058A.455.455,0,0,1,1726.773,684.348Z" transform="translate(-1718.031 -665.473)" fill="#ffd400"/>
            <path id="Trazado_181672" data-name="Trazado 181672" d="M1640.954,510.884h0a.455.455,0,0,1-.24-.6l3.216-7.539a.455.455,0,0,1,.6-.239h0a.455.455,0,0,1,.24.6l-3.216,7.539A.455.455,0,0,1,1640.954,510.884Z" transform="translate(-1640.678 -502.475)" fill="#ffd400"/>
          </g>
          <g id="Grupo_80866" data-name="Grupo 80866">
            <path id="Trazado_181673" data-name="Trazado 181673" d="M1396.768,602.682l.065-.113a.39.39,0,0,0-.142-.531l-2.4-1.383a.39.39,0,0,0-.531.142l-.065.113a.389.389,0,0,0,.142.531l2.4,1.383A.39.39,0,0,0,1396.768,602.682Z" transform="translate(-1388.166 -590.64)" fill="#ffd400"/>
            <path id="Trazado_181674" data-name="Trazado 181674" d="M1346.626,684.348h0a.455.455,0,0,0-.454-.454h-6.058a.455.455,0,0,0-.454.454h0a.455.455,0,0,0,.454.454h6.058A.455.455,0,0,0,1346.626,684.348Z" transform="translate(-1339.661 -665.473)" fill="#ffd400"/>
            <path id="Trazado_181675" data-name="Trazado 181675" d="M1457.6,510.884h0a.455.455,0,0,0,.239-.6l-3.216-7.539a.455.455,0,0,0-.6-.239h0a.455.455,0,0,0-.239.6l3.216,7.539A.455.455,0,0,0,1457.6,510.884Z" transform="translate(-1442.166 -502.475)" fill="#ffd400"/>
          </g>
        </g>
      </g>
      <g id="Grupo_80869" data-name="Grupo 80869" transform="translate(276.458 360.455)">
        <path id="Trazado_181676" data-name="Trazado 181676" d="M1409.473,920.169c.006-.172.139-2.02,2.954-2.116,0,0-1.384.165-1.624.774,0,0,.943-.752,1.71-.51s1.219,1.587,1.223,2.029-.422,1.868-.909,1.99a1.483,1.483,0,0,1-.59,0,6.662,6.662,0,0,1,.378.675c1.123,2.306-.035,4.56-.986,4.311-.61-.16-.783.881-.783.881l-5.926-4.8S1407.1,918.9,1409.473,920.169Z" transform="translate(-1394.2 -918.053)" fill="#2c3a64"/>
        <path id="Trazado_181677" data-name="Trazado 181677" d="M1429.428,1261.89l1.259.469s5.467-7.583,6.14-14.254a10.132,10.132,0,0,0-.18-3.411s.053-.305.147-.845c.043-.252.1-.555.157-.9.178-1.018.422-2.412.7-4,.643-3.651,1.477-8.319,2.124-11.75l-.339-.109-3.67-1.184-.758-2.409-2.732-.719s-.611,1.194-1.156,6.835c-.1.74-.192,1.556-.261,2.44a48.323,48.323,0,0,0,.26,9.881q.188,1.471.48,3.033a13.516,13.516,0,0,1,.1,2.995A100.211,100.211,0,0,1,1429.428,1261.89Z" transform="translate(-1416.218 -1191.835)" fill="#1c468a"/>
        <path id="Trazado_181678" data-name="Trazado 181678" d="M1443.536,1221.007l5.934,11.8c.043-.252.1-.555.157-.9.178-1.019.422-2.412.7-4,.643-3.651,1.477-8.319,2.124-11.75l-.339-.109-3.67-1.184-.758-2.409-3.548-1.968s0,.55-.309,6.551C1443.727,1217.773,1443.6,1220.122,1443.536,1221.007Z" transform="translate(-1428.894 -1180.79)" fill="#163560"/>
        <path id="Trazado_181679" data-name="Trazado 181679" d="M1469.244,1207.377l.137-1.178c2.3.611,8.717-2.247,8.717-2.247s1.963,2.5,1.67,7.2c-.143,2.293-.4,12.036-.676,14.919-.1,1.045-.185,1.788-.22,2.085a.007.007,0,0,0,0,0,.413.413,0,0,0,.067.255,13.543,13.543,0,0,1,1.006,2.116c2.675,7.129-.412,15.908-.412,15.908l-.8-.323s-1.757-9.77-3.184-14.087a8.551,8.551,0,0,0-.687-1.651,18.645,18.645,0,0,1-1.719-4.585,112.746,112.746,0,0,1-2.313-12.164A36.229,36.229,0,0,0,1469.244,1207.377Z" transform="translate(-1451.991 -1174.922)" fill="#1c468a"/>
        <path id="Trazado_181680" data-name="Trazado 181680" d="M1306.845,1083.685l-.179,1.354s.816-.109.949-.118c.419-.029,1.659-.109,2.812-.233,1.734-.171,2.99-.211,3.809-.716a17.654,17.654,0,0,0,4.629-5.43,1.5,1.5,0,0,0,.1-.172,8.378,8.378,0,0,0,1.219-3.448,4.925,4.925,0,0,0-.162-1.562,3.986,3.986,0,0,0-.7-1.41.707.707,0,0,0-.133-.162,3.289,3.289,0,0,0-.9-.772c-.229-.1-.988.826-1.245,1.1l-.215.638c-.21.219-2.511,7.617-3.549,8.769-.448.5-2.533,1.273-4.433,1.8A9.008,9.008,0,0,1,1306.845,1083.685Z" transform="translate(-1305.922 -1055.479)" fill="#f2a16b"/>
        <path id="Trazado_181681" data-name="Trazado 181681" d="M1425.947,1021.186a7.165,7.165,0,0,0,2.65.621c3.957.217,4.855-3.251,5.018-5.553a3.321,3.321,0,0,0-1.358-.172c-.23.013-.467.034-.678.058a.381.381,0,0,1-.279-.078,6.782,6.782,0,0,1-1.713-3.441l-.171.079-2.855,1.342s.3.929.527,1.818a9.313,9.313,0,0,1,.214,1.056.626.626,0,0,1-.379.649h0v0A19.6,19.6,0,0,0,1425.947,1021.186Z" transform="translate(-1413.091 -1003.019)" fill="#ffb27d"/>
        <path id="Trazado_181682" data-name="Trazado 181682" d="M1428.33,1063.293c-.032,1.464-10.337,2.761-12.11,1.779,0,0-.46-2.218-1.046-4.711-.176-.75-.364-1.524-.553-2.271a29.824,29.824,0,0,0-1.257-4.115c-.037-.079-.069-.156-.1-.235-.79-2.094.689-4.332-.332-4.994a7.974,7.974,0,0,1,2.3-1.223v0a4.654,4.654,0,0,0,.113,2.032c.573,1.075,2.811.513,3.832-.814a7.223,7.223,0,0,0,1.272-2.295l.117-.41a7.414,7.414,0,0,1,2.949.174,8.154,8.154,0,0,0-.573,1.914c-.015.1-.027.191-.037.287a3.773,3.773,0,0,0-.015.6,1.156,1.156,0,0,0,.365.719,5.639,5.639,0,0,0,.761.631c.2.142.407.29.624.452a51.214,51.214,0,0,0,.155,5.2,3.5,3.5,0,0,0,.505,1.476,3.61,3.61,0,0,0,.374.5A20.775,20.775,0,0,1,1428.33,1063.293Z" transform="translate(-1401.397 -1032.976)" fill="#ff0092"/>
        <path id="Trazado_181683" data-name="Trazado 181683" d="M1432,1014.749s.3.928.527,1.818c1.669-.466,2.175-2.22,2.328-3.16Z" transform="translate(-1418.528 -1003.725)" fill="#ed985f"/>
        <path id="Trazado_181684" data-name="Trazado 181684" d="M1406.077,972.056s3.992-.924,3.378-3.4-.511-4.265-3.086-3.78-2.834,1.553-2.83,2.429S1405.022,972.232,1406.077,972.056Z" transform="translate(-1392.958 -960.049)" fill="#ffb27d"/>
        <path id="Trazado_181685" data-name="Trazado 181685" d="M1399.755,961.9c.429-.9.934-.85,1.25-.691a2.864,2.864,0,0,1,3.716-.318,4.876,4.876,0,0,0,2.243,2.41,3.39,3.39,0,0,1-2.391.614,2.927,2.927,0,0,1-1.586-.6,9.561,9.561,0,0,0,2.082,1.553c-2.225-.426-3.717-3-3.87-3.275a3.207,3.207,0,0,0-.579,1.371c-.041.68.193,2-.2,2.05C1400.424,965.019,1399.112,963.249,1399.755,961.9Z" transform="translate(-1389.399 -956.053)" fill="#2c3a64"/>
        <path id="Trazado_181686" data-name="Trazado 181686" d="M1404.061,1073.352s-.354.2-1,2.183a2.22,2.22,0,0,0,1.647.836S1404.827,1073.578,1404.061,1073.352Z" transform="translate(-1392.527 -1057.583)" fill="#dc0681"/>
        <path id="Trazado_181687" data-name="Trazado 181687" d="M1524.691,1597.168h6.339a3.478,3.478,0,0,0-.179-1.7c-.317-.7-.814-1.023-.7-1.874a2.283,2.283,0,0,1-1.976.756,6.959,6.959,0,0,1-1.1,1.426C1526.666,1596.074,1524.818,1595.969,1524.691,1597.168Z" transform="translate(-1501.809 -1525.001)" fill="#2358a5"/>
        <path id="Trazado_181688" data-name="Trazado 181688" d="M1390.633,1599.685h6.34a2.635,2.635,0,0,0-.179-1.7,1.222,1.222,0,0,1,.046-1.459,2.463,2.463,0,0,1-1.068.2,2.234,2.234,0,0,1-.943-.332,22.858,22.858,0,0,1-1.807,1.9C1392.608,1598.591,1390.761,1598.485,1390.633,1599.685Z" transform="translate(-1381.363 -1527.518)" fill="#2358a5"/>
        <path id="Trazado_181689" data-name="Trazado 181689" d="M1302.88,1135.254a3.894,3.894,0,0,0-.9-.906c-.348-.157-.676-1.124-.869-.829-.117.18.179.85.1,1s-.843-.168-.977-.383c-.09-.144-.88-1.1-.9-.658a5.269,5.269,0,0,0,1.012,2.342,9.029,9.029,0,0,0,1.628.5Z" transform="translate(-1299.336 -1111.501)" fill="#ffb27d"/>
        <path id="Trazado_181690" data-name="Trazado 181690" d="M1437.159,1111.491c-1.434,3.507-6.951,7.851-6.951,7.851l-.1-.107c-.176-.75-.364-1.524-.554-2.271l5.877-5.472Z" transform="translate(-1416.336 -1091.849)" fill="#dc0681"/>
        <path id="Trazado_181691" data-name="Trazado 181691" d="M1325.523,1060.849l-.18,1s3.153.721,3.849.874l.009,0c1.2.239,2.556.485,3.736.609a10,10,0,0,0,2.128.025,1.14,1.14,0,0,0,.161-.031c1.351-.269,3.55-1.879,5.552-3.767.277-.26.546-.525.81-.781a26.077,26.077,0,0,0,2.5-2.834,10.233,10.233,0,0,0,.955-1.459,4.212,4.212,0,0,0,.212-.437c1.138-2.517.051-3.437.051-3.437-.022-.021-.044-.041-.074-.066-.2-.134-.493-.091-.858.087a8.65,8.65,0,0,0-1.679,1.209c-1.007.889-7.048,8.243-8.457,8.523C1333.013,1060.611,1325.523,1060.849,1325.523,1060.849Z" transform="translate(-1322.702 -1037.025)" fill="#ffb27d"/>
        <path id="Trazado_181692" data-name="Trazado 181692" d="M1476.861,1047.877a1.918,1.918,0,0,1,1.339,1.635c.108,1.29-.06,5.281-.06,5.281s-4.024-1.154-5.663-3.615C1472.477,1051.178,1475.432,1047.909,1476.861,1047.877Z" transform="translate(-1454.896 -1034.695)" fill="#dc0681"/>
      </g>
      <path id="Rectángulo_23311" data-name="Rectángulo 23311" d="M.607,0H293.359a.607.607,0,0,1,.607.607v0a.607.607,0,0,1-.607.607H.607A.607.607,0,0,1,0,.607v0A.607.607,0,0,1,.607,0Z" transform="translate(160.858 432.623)" fill="#2e3552"/>
    </g>
  </g>
</svg>
