<svg xmlns="http://www.w3.org/2000/svg" xmlns:xlink="http://www.w3.org/1999/xlink" width="402.25" height="400" viewBox="0 0 402.25 400">
  <defs>
    <clipPath id="clip-path">
      <circle id="Elipse_4751" data-name="Elipse 4751" cx="105" cy="105" r="105" transform="translate(576.8 3246.8)" fill="#fff" stroke="#707070" stroke-width="1"/>
    </clipPath>
  </defs>
  <g id="Grupo_82180" data-name="Grupo 82180" transform="translate(-603.5 -3321)">
    <g id="Enmascarar_grupo_118" data-name="Enmascarar grupo 118" transform="translate(123.2 168.2)" clip-path="url(#clip-path)">
      <g id="Grupo_81473" data-name="Grupo 81473" transform="translate(570.368 3244.874)">
        <rect id="Rectángulo_23409" data-name="Rectángulo 23409" width="216.232" height="213.852" transform="translate(0 0)" fill="#ff0092"/>
        <g id="Grupo_81472" data-name="Grupo 81472" transform="translate(40.104 20.106)">
          <g id="Grupo_81466" data-name="Grupo 81466" transform="translate(0 128.413)">
            <path id="Trazado_182369" data-name="Trazado 182369" d="M656.384,997.918c0,.186-.007.379-.023.572l-2.252,27.836H538.622L536.37,998.49c-.03-.459-.037-.918-.023-1.367a15.268,15.268,0,0,1,6.1-11.729,15.987,15.987,0,0,1,2.877-1.726l1.231-.575,11.9-5.519,10.033-4.657,2.461-1.141,1.154-.535,10.276-4.78,4.587-2.133a22.391,22.391,0,0,1,18.8,0l5.316,2.472,9.876,4.594.7.326.123.056,2.461,1.141,10.332,4.8,10.206,4.737,1.4.652,1.224.566A15.345,15.345,0,0,1,656.384,997.918Z" transform="translate(-522.808 -962.258)" fill="#fbb99f"/>
            <path id="Trazado_182370" data-name="Trazado 182370" d="M599.642,1025.222l15.548,13a31.587,31.587,0,0,0,41.727-1.056l15.392-14.256,11.958,51.062h-95.5Z" transform="translate(-563.996 -1009.907)" fill="#fff"/>
            <path id="Trazado_182371" data-name="Trazado 182371" d="M514.048,1013.9l-24.31,11.514a24.562,24.562,0,0,0-13.877,19.307l-2.628,22.174h49.548Z" transform="translate(-473.233 -1002.823)" fill="#3c3c3b"/>
            <path id="Trazado_182372" data-name="Trazado 182372" d="M927.333,1013.9l24.31,11.514a24.562,24.562,0,0,1,13.877,19.307l2.628,22.174H918.6Z" transform="translate(-823.102 -1002.823)" fill="#3c3c3b"/>
          </g>
          <g id="Grupo_81471" data-name="Grupo 81471" transform="translate(28.034)">
            <path id="Trazado_182373" data-name="Trazado 182373" d="M758.449,376.92a10.458,10.458,0,0,1-2.853,6.967c-3.5,3.935-9.879,6.566-17.162,6.566s-13.663-2.63-17.162-6.566a10.458,10.458,0,0,1-2.852-6.967c0-7.474,8.962-13.536,20.015-13.536S758.449,369.446,758.449,376.92Z" transform="translate(-693.88 -363.384)" fill="#542a21"/>
            <path id="Trazado_182374" data-name="Trazado 182374" d="M766.047,445.209c-3.5,3.935-9.879,6.566-17.162,6.566s-13.663-2.63-17.162-6.566a41,41,0,0,1,34.325,0Z" transform="translate(-704.33 -424.706)" fill="#422918" opacity="0.2"/>
            <path id="Trazado_182375" data-name="Trazado 182375" d="M693.086,500.346c0,27-19.945,48.9-44.561,48.9s-44.552-21.9-44.552-48.9c0-20.12,11.064-37.4,26.882-44.911a41.064,41.064,0,0,1,35.348,0C682.022,462.943,693.086,480.226,693.086,500.346Z" transform="translate(-603.974 -432.556)" fill="#542a21"/>
            <path id="Trazado_182376" data-name="Trazado 182376" d="M773.659,853.553v25.821a14.305,14.305,0,0,1-28.611,0V853.553a14.305,14.305,0,0,1,28.611,0Z" transform="translate(-714.798 -737.208)" fill="#fbb99f"/>
            <ellipse id="Elipse_4750" data-name="Elipse 4750" cx="31.717" cy="44.805" rx="31.717" ry="44.805" transform="translate(12.839 36.67)" fill="#fbb99f"/>
            <path id="Trazado_182377" data-name="Trazado 182377" d="M773.659,853.553v10.068a23.249,23.249,0,0,1-28.611,0V853.553a14.305,14.305,0,0,1,28.611,0Z" transform="translate(-714.798 -737.208)" fill="#e5332a" opacity="0.2"/>
            <path id="Trazado_182378" data-name="Trazado 182378" d="M722.068,579.222c0,24.745-15.081,44.809-33.681,44.809-12.805,0-23.934-9.507-29.637-23.5a56.67,56.67,0,0,1-4.044-21.308c0-23.953,14.132-43.511,31.912-44.745.58-.037,1.179-.055,1.769-.055C706.987,534.422,722.068,554.478,722.068,579.222Z" transform="translate(-643.828 -497.747)" fill="#fbb99f"/>
            <path id="Trazado_182379" data-name="Trazado 182379" d="M769.539,875.634c6.365,0,11.525-3.353,11.525-7.489h-23.05C758.014,872.281,763.174,875.634,769.539,875.634Z" transform="translate(-724.984 -759.912)" fill="#fff"/>
            <path id="Trazado_182380" data-name="Trazado 182380" d="M686.618,534.68v15.928s-14.8,15.237-23.363,16.914c-4.91.958-5.168,18.443-4.5,33.211a56.67,56.67,0,0,1-4.044-21.308C654.706,555.473,668.838,535.914,686.618,534.68Z" transform="translate(-643.828 -497.95)" fill="#e5332a" opacity="0.2"/>
            <path id="Trazado_182381" data-name="Trazado 182381" d="M803.515,525.379S818.955,536.324,829.9,535s4.975,28.522,1.658,30.18c0,0,6.182-5.426,7.628-9.949,4.311-13.487,0-26.864,0-26.864L817.82,506.807l-14.305-4.237Z" transform="translate(-760.729 -472.725)" fill="#e5332a" opacity="0.2"/>
            <path id="Trazado_182382" data-name="Trazado 182382" d="M668.955,522.129s-14.793,15.271-23.363,16.914c-16.609,3.184-1.732,63.709-1.732,63.709s-16.509-38.808-13.524-47.776,7.628-36.827,8.623-37.159,30-14.261,30-14.261Z" transform="translate(-624.4 -473.5)" fill="#542a21"/>
            <path id="Trazado_182383" data-name="Trazado 182383" d="M621.6,694.018c0,5.587,3.447,10.117,7.7,10.117V683.9C625.052,683.9,621.6,688.431,621.6,694.018Z" transform="translate(-617.824 -615.174)" fill="#fbb99f"/>
            <path id="Trazado_182384" data-name="Trazado 182384" d="M973.721,694.018c0,5.587-3.447,10.117-7.7,10.117V683.9C970.274,683.9,973.721,688.431,973.721,694.018Z" transform="translate(-888.39 -615.174)" fill="#fbb99f"/>
            <path id="Trazado_182385" data-name="Trazado 182385" d="M811.763,506.605s15.44,10.944,26.384,9.618,4.975,28.522,1.658,30.18c0,0,6.182-5.427,7.628-9.949,4.311-13.487,0-26.864,0-26.864l-21.365-21.557L811.763,483.8Z" transform="translate(-767.208 -457.977)" fill="#542a21"/>
            <g id="Grupo_81469" data-name="Grupo 81469" transform="translate(26.117 73.594)">
              <g id="Grupo_81467" data-name="Grupo 81467">
                <path id="Trazado_182386" data-name="Trazado 182386" d="M732.943,712.752c0,3.4-1.6,6.154-3.584,6.154s-3.584-2.755-3.584-6.154a9.6,9.6,0,0,1,.424-2.9,6.623,6.623,0,0,1,.847-1.8,2.9,2.9,0,0,1,2.312-1.456C731.34,706.6,732.943,709.352,732.943,712.752Z" transform="translate(-725.776 -706.598)" fill="#422918"/>
                <path id="Trazado_182387" data-name="Trazado 182387" d="M730.913,717.182l-3.16-2a6.622,6.622,0,0,1,.847-1.8Z" transform="translate(-727.329 -711.93)" fill="#fff"/>
              </g>
              <g id="Grupo_81468" data-name="Grupo 81468" transform="translate(29.159)">
                <path id="Trazado_182388" data-name="Trazado 182388" d="M868.932,712.752c0,3.4-1.6,6.154-3.584,6.154s-3.583-2.755-3.583-6.154a9.6,9.6,0,0,1,.424-2.9,6.626,6.626,0,0,1,.848-1.8,2.894,2.894,0,0,1,2.312-1.456C867.329,706.6,868.932,709.352,868.932,712.752Z" transform="translate(-861.765 -706.598)" fill="#422918"/>
                <path id="Trazado_182389" data-name="Trazado 182389" d="M866.9,717.182l-3.16-2a6.622,6.622,0,0,1,.848-1.8Z" transform="translate(-863.317 -711.93)" fill="#fff"/>
              </g>
            </g>
            <g id="Grupo_81470" data-name="Grupo 81470" transform="translate(14.166 70.435)">
              <path id="Trazado_182390" data-name="Trazado 182390" d="M698.549,699.732a10.8,10.8,0,0,0-.125-1.175c-.014-.119-.035-.239-.056-.358a4.537,4.537,0,0,0-1.97-3.05,21.673,21.673,0,0,0-7.289-2.82c-.543-.1-1.1-.2-1.664-.264a25.209,25.209,0,0,0-3.14-.2,22.912,22.912,0,0,0-12.093,3.28,4.537,4.537,0,0,0-1.97,3.05,12.732,12.732,0,0,0-.2,2.258c0,7.454,6.384,13.494,14.265,13.494s14.265-6.04,14.265-13.494C698.57,700.209,698.563,699.971,698.549,699.732ZM684.305,712.8c-7.059,0-12.782-5.41-12.782-12.088a11.821,11.821,0,0,1,.1-1.491,4.749,4.749,0,0,1,2.186-3.467,20.7,20.7,0,0,1,10.5-2.735,22.056,22.056,0,0,1,3.871.341,18.744,18.744,0,0,1,1.9.417,19.257,19.257,0,0,1,4.727,1.976,4.546,4.546,0,0,1,1.935,2.436,5.12,5.12,0,0,1,.251,1.031c.007.077.021.162.021.238a10.69,10.69,0,0,1,.077,1.252C697.087,707.391,691.365,712.8,684.305,712.8Z" transform="translate(-670.04 -691.869)" fill="#333347"/>
              <path id="Trazado_182391" data-name="Trazado 182391" d="M798.189,721.757a14.75,14.75,0,0,1-1.949-.136,12.521,12.521,0,0,1-1.685-.366,5.125,5.125,0,0,1,.251,1.031c.007.077.021.162.021.238a13.06,13.06,0,0,0,1.539.273,14.824,14.824,0,0,0,3.752-.017,13.075,13.075,0,0,0,1.539-.273c0-.077.014-.145.021-.221a5.359,5.359,0,0,1,.258-1.057,13.794,13.794,0,0,1-1.692.375A13.633,13.633,0,0,1,798.189,721.757Z" transform="translate(-767.856 -714.934)" fill="#333347"/>
              <path id="Trazado_182392" data-name="Trazado 182392" d="M848.727,698.2a4.552,4.552,0,0,0-1.963-3.05,22.954,22.954,0,0,0-12.1-3.28,23.988,23.988,0,0,0-3.258.213c-.571.068-1.128.162-1.671.273a21.5,21.5,0,0,0-7.164,2.794,4.537,4.537,0,0,0-1.97,3.05c-.021.111-.042.23-.056.341a10.7,10.7,0,0,0-.125,1.175q-.021.371-.021.741c0,7.454,6.384,13.494,14.265,13.494s14.272-6.04,14.272-13.494A12.727,12.727,0,0,0,848.727,698.2Zm-14.063,14.6c-7.059,0-12.782-5.41-12.782-12.088a10.977,10.977,0,0,1,.077-1.269c0-.077.014-.145.021-.221a5.359,5.359,0,0,1,.258-1.057,4.57,4.57,0,0,1,1.928-2.411,18.943,18.943,0,0,1,4.588-1.934,19.226,19.226,0,0,1,1.922-.443,21.688,21.688,0,0,1,3.989-.358,20.7,20.7,0,0,1,10.5,2.735,4.73,4.73,0,0,1,2.186,3.467,11.81,11.81,0,0,1,.1,1.491C847.446,707.391,841.724,712.8,834.664,712.8Z" transform="translate(-788.158 -691.869)" fill="#333347"/>
            </g>
          </g>
        </g>
      </g>
    </g>
    <g id="Elipse_4767" data-name="Elipse 4767" transform="translate(640 3355)" fill="none" stroke="#707070" stroke-width="2" stroke-dasharray="2 3">
      <circle cx="165" cy="165" r="165" stroke="none"/>
      <circle cx="165" cy="165" r="164" fill="none"/>
    </g>
    <g id="Elipse_4765" data-name="Elipse 4765" transform="translate(603.5 3408.5)" fill="#f6f6f6" stroke="#00bab5" stroke-width="2" stroke-dasharray="2 3">
      <circle cx="36.5" cy="36.5" r="36.5" stroke="none"/>
      <circle cx="36.5" cy="36.5" r="35.5" fill="none"/>
    </g>
    <g id="Elipse_4768" data-name="Elipse 4768" transform="translate(603.5 3562.5)" fill="#f6f6f6" stroke="#00bab5" stroke-width="2" stroke-dasharray="2 3">
      <circle cx="36.5" cy="36.5" r="36.5" stroke="none"/>
      <circle cx="36.5" cy="36.5" r="35.5" fill="none"/>
    </g>
    <g id="Elipse_4771" data-name="Elipse 4771" transform="translate(932.75 3562.5)" fill="#f6f6f6" stroke="#00bab5" stroke-width="2" stroke-dasharray="2 3">
      <circle cx="36.5" cy="36.5" r="36.5" stroke="none"/>
      <circle cx="36.5" cy="36.5" r="35.5" fill="none"/>
    </g>
    <g id="Elipse_4766" data-name="Elipse 4766" transform="translate(618.5 3423.5)" fill="#00bab5" stroke="#fff" stroke-width="3">
      <circle cx="21.5" cy="21.5" r="21.5" stroke="none"/>
      <circle cx="21.5" cy="21.5" r="20" fill="none"/>
    </g>
    <g id="Elipse_4772" data-name="Elipse 4772" transform="translate(947.75 3423.5)" fill="#00bab5" stroke="#fff" stroke-width="3">
      <circle cx="21.5" cy="21.5" r="21.5" stroke="none"/>
      <circle cx="21.5" cy="21.5" r="20" fill="none"/>
    </g>
    <g id="Elipse_4769" data-name="Elipse 4769" transform="translate(618.5 3577.5)" fill="#00bab5" stroke="#fff" stroke-width="3">
      <circle cx="21.5" cy="21.5" r="21.5" stroke="none"/>
      <circle cx="21.5" cy="21.5" r="20" fill="none"/>
    </g>
    <g id="Elipse_4773" data-name="Elipse 4773" transform="translate(947.75 3577.5)" fill="#00bab5" stroke="#fff" stroke-width="3">
      <circle cx="21.5" cy="21.5" r="21.5" stroke="none"/>
      <circle cx="21.5" cy="21.5" r="20" fill="none"/>
    </g>
    <g id="Elipse_4759" data-name="Elipse 4759" transform="translate(769 3648)" fill="#f6f6f6" stroke="#00bab5" stroke-width="2" stroke-dasharray="2 3">
      <circle cx="36.5" cy="36.5" r="36.5" stroke="none"/>
      <circle cx="36.5" cy="36.5" r="35.5" fill="none"/>
    </g>
    <g id="Elipse_4760" data-name="Elipse 4760" transform="translate(784 3663)" fill="#00bab5" stroke="#fff" stroke-width="3">
      <circle cx="21.5" cy="21.5" r="21.5" stroke="none"/>
      <circle cx="21.5" cy="21.5" r="20" fill="none"/>
    </g>
    <g id="Elipse_4753" data-name="Elipse 4753" transform="translate(769 3321)" fill="#f6f6f6" stroke="#00bab5" stroke-width="2" stroke-dasharray="2 3">
      <circle cx="36.5" cy="36.5" r="36.5" stroke="none"/>
      <circle cx="36.5" cy="36.5" r="35.5" fill="none"/>
    </g>
    <g id="Elipse_4756" data-name="Elipse 4756" transform="translate(784 3336)" fill="#00bab5" stroke="#fff" stroke-width="3">
      <circle cx="21.5" cy="21.5" r="21.5" stroke="none"/>
      <circle cx="21.5" cy="21.5" r="20" fill="none"/>
    </g>
  </g>
</svg>
