<svg xmlns="http://www.w3.org/2000/svg" xmlns:xlink="http://www.w3.org/1999/xlink" width="820" height="402.733" viewBox="0 0 820 402.733">
  <defs>
    <clipPath id="clip-path">
      <rect id="Rectángulo_23455" data-name="Rectángulo 23455" width="182.812" height="242.536" transform="translate(182.812 242.536) rotate(-180)" fill="none"/>
    </clipPath>
    <clipPath id="clip-path-2">
      <rect id="Rectángulo_23467" data-name="Rectángulo 23467" width="272.448" height="328.41" transform="translate(272.448 328.41) rotate(-180)" fill="none"/>
    </clipPath>
  </defs>
  <g id="Grupo_82194" data-name="Grupo 82194" transform="translate(-390 -6415.6)">
    <g id="OBJECTS" transform="translate(390 6415.6)">
      <g id="Grupo_82051" data-name="Grupo 82051">
        <g id="Grupo_81983" data-name="Grupo 81983" transform="translate(260.561)">
          <g id="Grupo_81916" data-name="Grupo 81916" transform="translate(16.487)">
            <g id="Grupo_81915" data-name="Grupo 81915">
              <rect id="Rectángulo_23450" data-name="Rectángulo 23450" width="532.977" height="260.364" transform="translate(532.977 260.364) rotate(-180)" fill="#112954"/>
              <g id="Grupo_81914" data-name="Grupo 81914" transform="translate(13.839 10.253)">
                <g id="Grupo_81913" data-name="Grupo 81913">
                  <rect id="Rectángulo_23451" data-name="Rectángulo 23451" width="13.746" height="13.746" transform="translate(47.456)" fill="#ffd400"/>
                  <rect id="Rectángulo_23452" data-name="Rectángulo 23452" width="13.746" height="13.746" transform="translate(23.728 0.164)" fill="#ffd400"/>
                  <rect id="Rectángulo_23453" data-name="Rectángulo 23453" width="13.746" height="13.746" transform="translate(0 0.327)" fill="#ffd400"/>
                </g>
              </g>
            </g>
            <rect id="Rectángulo_23454" data-name="Rectángulo 23454" width="532.977" height="250.137" transform="translate(532.98 284.598) rotate(-180)" fill="#fffeff"/>
          </g>
          <g id="Grupo_81982" data-name="Grupo 81982" transform="translate(0 41.651)">
            <g id="Grupo_81965" data-name="Grupo 81965" transform="translate(207.149)">
              <g id="Grupo_81964" data-name="Grupo 81964" clip-path="url(#clip-path)">
                <g id="Grupo_81963" data-name="Grupo 81963" transform="translate(15.827 7.471)">
                  <g id="Grupo_81945" data-name="Grupo 81945" transform="translate(18.122)">
                    <g id="Grupo_81941" data-name="Grupo 81941" transform="translate(8.954 2.997)">
                      <g id="Grupo_81940" data-name="Grupo 81940">
                        <g id="Grupo_81919" data-name="Grupo 81919" transform="translate(30.096 85.072)">
                          <path id="Trazado_183034" data-name="Trazado 183034" d="M460.358,224.221c-1.884-2.706-4.851-9.488-5.751-11.584v-25.1L486.43,185.9l.046,18.944a28.854,28.854,0,0,0,2.9,5.315C485.212,212.947,469.31,223.276,460.358,224.221Z" transform="translate(-454.607 -185.8)" fill="#f9b3ab"/>
                          <g id="Grupo_81918" data-name="Grupo 81918">
                            <g id="Grupo_81917" data-name="Grupo 81917">
                              <path id="Trazado_183035" data-name="Trazado 183035" d="M454.607,190.772l.008,14.933s22.334,10.134,31.662,4.809c4.866-2.778,1.87-10.954,1.2-24.714Z" transform="translate(-454.607 -185.8)" fill="#e59995"/>
                            </g>
                          </g>
                        </g>
                        <g id="Grupo_81939" data-name="Grupo 81939">
                          <g id="Grupo_81924" data-name="Grupo 81924">
                            <g id="Grupo_81923" data-name="Grupo 81923">
                              <g id="Grupo_81922" data-name="Grupo 81922">
                                <g id="Grupo_81921" data-name="Grupo 81921">
                                  <g id="Grupo_81920" data-name="Grupo 81920">
                                    <path id="Trazado_183036" data-name="Trazado 183036" d="M449.842,205.561c-7.717-.325-14.432-8.436-18.754-17.748-3.815-8.219-7.292-30.529-6.45-43.773,1.561-24.57,12.314-49.356,44.123-41.994,38.208,8.843,35.391,38.619,29,53.631,0,0,8.4-5.231,9.019,5.861.7,12.477-6.008,15.124-11.914,14.065-.512-.092-1.285,5.864-3.833,9.98C489.176,188.576,471.467,206.471,449.842,205.561Z" transform="translate(-424.511 -100.728)" fill="#f9b3ab"/>
                                  </g>
                                </g>
                              </g>
                            </g>
                          </g>
                          <g id="Grupo_81938" data-name="Grupo 81938" transform="translate(0.988 52.045)">
                            <path id="Trazado_183037" data-name="Trazado 183037" d="M439.281,186.21s2.492,9.752,9.236,7.214,7.33-7.348,7.33-7.348S443.239,187.278,439.281,186.21Z" transform="translate(-425.499 -152.773)" fill="#fffeff"/>
                            <g id="Grupo_81937" data-name="Grupo 81937">
                              <g id="Grupo_81930" data-name="Grupo 81930" transform="translate(30.982 0.15)">
                                <g id="Grupo_81929" data-name="Grupo 81929" transform="translate(1.065 6.295)">
                                  <g id="Grupo_81928" data-name="Grupo 81928" transform="translate(0)">
                                    <g id="Grupo_81927" data-name="Grupo 81927">
                                      <g id="Grupo_81926" data-name="Grupo 81926">
                                        <g id="Grupo_81925" data-name="Grupo 81925">
                                          <ellipse id="Elipse_4781" data-name="Elipse 4781" cx="5.41" cy="3.583" rx="5.41" ry="3.583" transform="translate(0 10.818) rotate(-88.719)" fill="#3b1d53"/>
                                        </g>
                                      </g>
                                    </g>
                                  </g>
                                </g>
                                <path id="Trazado_183038" data-name="Trazado 183038" d="M467.892,157.369a1.793,1.793,0,0,0-.729-2.035c-1.582-1.086-5.222-3.213-8.09-2.1-3.773,1.47-2.563,3.037-1.7,3.611s3.22-.983,6.313.721C466.011,158.848,467.473,158.552,467.892,157.369Z" transform="translate(-456.48 -152.923)" fill="#3b1d53"/>
                              </g>
                              <g id="Grupo_81936" data-name="Grupo 81936">
                                <g id="Grupo_81935" data-name="Grupo 81935" transform="translate(2.099 5.794)">
                                  <g id="Grupo_81934" data-name="Grupo 81934" transform="translate(0)">
                                    <g id="Grupo_81933" data-name="Grupo 81933">
                                      <g id="Grupo_81932" data-name="Grupo 81932">
                                        <g id="Grupo_81931" data-name="Grupo 81931">
                                          <ellipse id="Elipse_4782" data-name="Elipse 4782" cx="5.41" cy="3.583" rx="5.41" ry="3.583" transform="matrix(0.015, -1, 1, 0.015, 0, 10.819)" fill="#3b1d53"/>
                                        </g>
                                      </g>
                                    </g>
                                  </g>
                                </g>
                                <path id="Trazado_183039" data-name="Trazado 183039" d="M425.539,156.016a1.538,1.538,0,0,1,.79-1.679c1.441-.8,4.727-2.315,7.085-1.124,3.1,1.567,1.94,2.807,1.153,3.225s-2.671-1.1-5.455.1C427.024,157.434,425.8,157.061,425.539,156.016Z" transform="translate(-425.499 -152.773)" fill="#3b1d53"/>
                              </g>
                              <path id="Trazado_183040" data-name="Trazado 183040" d="M443.378,170.579s-6.145,3.874-2,6.68,6.279.267,6.279.267-.067-1.069-.8-1.069-2.138,1.136-4.342-.4,1.336-4.209,1.6-4.743S443.378,170.579,443.378,170.579Z" transform="translate(-425.499 -152.773)" fill="#3b1d53"/>
                            </g>
                          </g>
                        </g>
                      </g>
                    </g>
                    <g id="Grupo_81944" data-name="Grupo 81944">
                      <g id="Grupo_81943" data-name="Grupo 81943">
                        <path id="Trazado_183041" data-name="Trazado 183041" d="M495.131,170.137s-1.636-10.964,3.109-14.727c3.624-2.875,9.328-18.328,5.728-34.038s-11.446-18.912-31.737-22.839-41.9,7.457-45.175,14.985-3.927,18.982-9.163,19.637-1.31,15.709,8.182,15.382,6.873-5.891,26.182-6.873,34.037.654,34.365,14.564C486.845,165.739,488.913,175.374,495.131,170.137Z" transform="translate(-415.556 -97.731)" fill="#3b1d53"/>
                        <g id="Grupo_81942" data-name="Grupo 81942" transform="translate(76.344 29.532)">
                          <path id="Trazado_183042" data-name="Trazado 183042" d="M497.757,155.677c2.956-6.94,5.145-17.035,2.872-26.759l4.157-1.655s-.089,14.559-.583,27.86C501.528,153.334,497.757,155.677,497.757,155.677Z" transform="translate(-491.9 -127.263)" fill="#3b1d53"/>
                          <path id="Trazado_183043" data-name="Trazado 183043" d="M494.862,175.6a9.989,9.989,0,0,0,7.993-1.59c-.089.527-.181.985-.278,1.361-.96,3.718-5.845,6.613-10.677,8.6C493.765,180.08,494.414,175.522,494.862,175.6Z" transform="translate(-491.9 -127.263)" fill="#3b1d53"/>
                        </g>
                      </g>
                      <path id="Trazado_183044" data-name="Trazado 183044" d="M423.784,136.346s-1.964,8.836,16.2,2.7,39.765-2.455,43.2.736,9.819-13.009-7.609-16.937-31.91,6.137-41.728,10.555S423.784,136.346,423.784,136.346Z" transform="translate(-415.556 -97.731)" fill="#3e2259"/>
                    </g>
                  </g>
                  <g id="Grupo_81962" data-name="Grupo 81962" transform="translate(0 106.484)">
                    <g id="Grupo_81950" data-name="Grupo 81950" transform="translate(0 25.487)">
                      <g id="Grupo_81948" data-name="Grupo 81948" transform="translate(0.552 50.904)">
                        <g id="Grupo_81947" data-name="Grupo 81947">
                          <g id="Grupo_81946" data-name="Grupo 81946">
                            <path id="Trazado_183045" data-name="Trazado 183045" d="M401.448,284.17s-3.858,36.865-3.429,47.581,17.853,21.968,29.856,20.682-3.279-50.259-4.993-57.118S418.6,273.882,401.448,284.17Z" transform="translate(-397.986 -280.606)" fill="#f9b3ab"/>
                          </g>
                        </g>
                      </g>
                      <g id="Grupo_81949" data-name="Grupo 81949">
                        <path id="Trazado_183046" data-name="Trazado 183046" d="M416.093,229.7s-5.4,3.028-12.385,19.522c-2.114,4.993-5.289,38.407-5.289,38.407l32.892,18-3.927-27.083Z" transform="translate(-397.434 -229.702)" fill="#00bab5"/>
                        <path id="Trazado_183047" data-name="Trazado 183047" d="M417.565,292.213l.655,14.073s-21.11-13.582-20.782-14.891.818-12.437.818-12.437Z" transform="translate(-397.434 -229.702)" fill="#008c88"/>
                      </g>
                    </g>
                    <g id="Grupo_81956" data-name="Grupo 81956" transform="translate(17.692)">
                      <g id="Grupo_81955" data-name="Grupo 81955" transform="translate(0 5.24)">
                        <path id="Trazado_183048" data-name="Trazado 183048" d="M514.6,257.358s-1.963,123.221-4.909,124.694-81.493,3.927-87.384,1.473-3.927-87.384-.982-102.112,38.783-39.765,38.783-39.765Z" transform="translate(-415.127 -209.455)" fill="#00bab5"/>
                        <g id="Grupo_81954" data-name="Grupo 81954">
                          <g id="Grupo_81953" data-name="Grupo 81953">
                            <g id="Grupo_81952" data-name="Grupo 81952">
                              <g id="Grupo_81951" data-name="Grupo 81951">
                                <path id="Trazado_183049" data-name="Trazado 183049" d="M452.21,215.39s.039,10.3,14.328,9.442S490.4,209.455,490.4,209.455s32.539,15.772,48.256,27.775c12.642,9.654-67.978,45.186-67.978,45.186l-50.5,82.454s-6.9-134.188-4.582-135.168C420.685,227.552,439.922,217.534,452.21,215.39Z" transform="translate(-415.127 -209.455)" fill="#00bab5"/>
                              </g>
                            </g>
                            <path id="Trazado_183050" data-name="Trazado 183050" d="M511.659,302.768l-1.473,78.138,16.172-84.286Z" transform="translate(-415.127 -209.455)" fill="#008c88"/>
                          </g>
                        </g>
                        <path id="Trazado_183051" data-name="Trazado 183051" d="M512.15,286.322l-.982,62.511,15.055-43.2Z" transform="translate(-415.127 -209.455)" fill="#008c88"/>
                      </g>
                      <path id="Trazado_183052" data-name="Trazado 183052" d="M488.954,204.215l10.759,10.269s-10.023,19.187-33.1,16.732-19.146-14.237-19.146-14.237l6.995-5.891s1.473,9.205,17.919,6.26S488.954,204.215,488.954,204.215Z" transform="translate(-415.127 -204.215)" fill="#008c88"/>
                    </g>
                    <g id="Grupo_81961" data-name="Grupo 81961" transform="translate(113.621 33.246)">
                      <g id="Grupo_81959" data-name="Grupo 81959" transform="translate(13.543 46.021)">
                        <g id="Grupo_81958" data-name="Grupo 81958">
                          <g id="Grupo_81957" data-name="Grupo 81957">
                            <path id="Trazado_183053" data-name="Trazado 183053" d="M556.928,283.482c-7.558,3.4-24.468,30.568-32.33,32.33,3.868,13.957,10.823,42.018,13.7,50.279,4.27,12.281,3.423,24.613,18.264,18.544,4.87-1.991,9.963-5.138,10.864-16.441C568.785,351.093,560.131,297.752,556.928,283.482Z" transform="translate(-524.598 -283.482)" fill="#f9b3ab"/>
                          </g>
                        </g>
                      </g>
                      <g id="Grupo_81960" data-name="Grupo 81960">
                        <path id="Trazado_183054" data-name="Trazado 183054" d="M538.289,237.461s-7.717,6.213-20.291,17.358-4.944,29.217-1.266,44.594c4.715,19.719,5.891,24.874,5.891,24.874s37.844-23.122,39.273-26.837S551.149,241.462,538.289,237.461Z" transform="translate(-511.055 -237.461)" fill="#00bab5"/>
                        <path id="Trazado_183055" data-name="Trazado 183055" d="M564.842,296.468,521.313,326.9l-3.436-12.764,42.71-32.237Z" transform="translate(-511.055 -237.461)" fill="#008c88"/>
                      </g>
                    </g>
                  </g>
                </g>
              </g>
            </g>
            <g id="Grupo_81981" data-name="Grupo 81981" transform="translate(0 4.773)">
              <g id="Grupo_81971" data-name="Grupo 81971" transform="translate(0 12.112)">
                <g id="Grupo_81968" data-name="Grupo 81968">
                  <g id="Grupo_81967" data-name="Grupo 81967">
                    <g id="Grupo_81966" data-name="Grupo 81966">
                      <rect id="Rectángulo_23456" data-name="Rectángulo 23456" width="120.792" height="80.704" rx="40.352" fill="#ffd400"/>
                    </g>
                    <path id="Trazado_183056" data-name="Trazado 183056" d="M329.61,170.864l54.7,29.71L365.3,169.492Z" transform="translate(-256.654 -107.145)" fill="#ffd400"/>
                  </g>
                </g>
                <g id="Grupo_81970" data-name="Grupo 81970" transform="translate(20.665 31.315)">
                  <g id="Grupo_81969" data-name="Grupo 81969">
                    <circle id="Elipse_4783" data-name="Elipse 4783" cx="8.302" cy="8.302" r="8.302" fill="#fffeff"/>
                    <circle id="Elipse_4784" data-name="Elipse 4784" cx="8.302" cy="8.302" r="8.302" transform="translate(30.718 0.553)" fill="#fffeff"/>
                    <circle id="Elipse_4785" data-name="Elipse 4785" cx="8.302" cy="8.302" r="8.302" transform="translate(61.713 0.553)" fill="#fffeff"/>
                  </g>
                </g>
              </g>
              <g id="Grupo_81980" data-name="Grupo 81980" transform="translate(442.219)">
                <g id="Grupo_81972" data-name="Grupo 81972">
                  <rect id="Rectángulo_23457" data-name="Rectángulo 23457" width="84.973" height="99.65" transform="translate(84.973 99.65) rotate(-180)" fill="#3b1d53"/>
                  <rect id="Rectángulo_23458" data-name="Rectángulo 23458" width="32.055" height="12.853" transform="translate(78.404 24.73) rotate(-180)" fill="#dae1ed"/>
                  <rect id="Rectángulo_23459" data-name="Rectángulo 23459" width="39.901" height="6.955" transform="translate(78.525 47.77) rotate(-180)" fill="#dae1ed"/>
                  <rect id="Rectángulo_23460" data-name="Rectángulo 23460" width="65.308" height="6.955" transform="translate(78.585 62.239) rotate(-180)" fill="#dae1ed"/>
                  <rect id="Rectángulo_23461" data-name="Rectángulo 23461" width="48.712" height="6.955" transform="translate(78.645 76.707) rotate(-180)" fill="#dae1ed"/>
                  <rect id="Rectángulo_23462" data-name="Rectángulo 23462" width="66.636" height="6.955" transform="translate(78.706 91.176) rotate(-180)" fill="#dae1ed"/>
                </g>
                <g id="Grupo_81978" data-name="Grupo 81978" transform="translate(23.75 176.014)">
                  <circle id="Elipse_4786" data-name="Elipse 4786" cx="21.783" cy="21.783" r="21.783" fill="#3b1d53"/>
                  <g id="Grupo_81977" data-name="Grupo 81977" transform="translate(4.87 12.709)">
                    <g id="Grupo_81976" data-name="Grupo 81976">
                      <g id="Grupo_81973" data-name="Grupo 81973" transform="translate(7.971)">
                        <rect id="Rectángulo_23463" data-name="Rectángulo 23463" width="22.96" height="18.313" fill="#dae1ed"/>
                      </g>
                      <g id="Grupo_81974" data-name="Grupo 81974" transform="translate(2.433 3.924)">
                        <rect id="Rectángulo_23464" data-name="Rectángulo 23464" width="13.714" height="10.939" fill="#dae1ed"/>
                      </g>
                      <g id="Grupo_81975" data-name="Grupo 81975" transform="translate(0 2.597)">
                        <rect id="Rectángulo_23465" data-name="Rectángulo 23465" width="5.014" height="13.667" fill="#dae1ed"/>
                      </g>
                    </g>
                  </g>
                </g>
                <g id="Grupo_81979" data-name="Grupo 81979" transform="translate(23.797 119.924)">
                  <circle id="Elipse_4787" data-name="Elipse 4787" cx="21.783" cy="21.783" r="21.783" fill="#3b1d53"/>
                  <path id="Trazado_183057" data-name="Trazado 183057" d="M590.8,237.073l2.355-3.2a2.147,2.147,0,0,1,.374-.336l-.041-.052s6.54-6.392,14.466-5.85a22.68,22.68,0,0,1,13.189,5.792,2.071,2.071,0,0,1,.5.348l2.6,2.781a2.741,2.741,0,0,1,.7,1.946l-.121,3.908-9.1-.121-.122-3.353a2.783,2.783,0,0,1,.52-1.743l.738-1a12.335,12.335,0,0,0-10-4.3c-4.7.106-7.42,1.985-8.89,3.523l.959,1.026a2.729,2.729,0,0,1,.7,1.946l-.121,3.907-9.1-.12-.121-3.354A2.783,2.783,0,0,1,590.8,237.073Z" transform="translate(-586.02 -214.957)" fill="#dae1ed"/>
                </g>
              </g>
            </g>
          </g>
        </g>
        <g id="Grupo_82002" data-name="Grupo 82002" transform="translate(8.866 10.648)">
          <g id="Grupo_81988" data-name="Grupo 81988" transform="translate(264.36 286.687)">
            <g id="Grupo_81985" data-name="Grupo 81985" transform="translate(91.037)">
              <g id="Grupo_81984" data-name="Grupo 81984">
                <path id="Trazado_183058" data-name="Trazado 183058" d="M360.044,353.862H355.2v-2.854h4.841v-5.064h2.964v5.064h4.841v2.854h-4.841v5.065h-2.964Z" transform="translate(-355.203 -345.944)" fill="#fff"/>
              </g>
            </g>
            <g id="Grupo_81987" data-name="Grupo 81987" transform="translate(0 63.146)">
              <g id="Grupo_81986" data-name="Grupo 81986">
                <path id="Trazado_183059" data-name="Trazado 183059" d="M269.008,417.008h-4.842v-2.854h4.842V409.09h2.963v5.064h4.842v2.854h-4.842v5.065h-2.963Z" transform="translate(-264.166 -409.09)" fill="#fff"/>
              </g>
            </g>
          </g>
          <g id="Grupo_81993" data-name="Grupo 81993" transform="translate(84.036)">
            <g id="Grupo_81990" data-name="Grupo 81990">
              <g id="Grupo_81989" data-name="Grupo 81989">
                <path id="Trazado_183060" data-name="Trazado 183060" d="M170.081,67.175h-4.842V64.321h4.842V59.257h2.963v5.064h4.842v2.854h-4.842v5.064h-2.963Z" transform="translate(-165.239 -59.257)" fill="#fff"/>
              </g>
            </g>
            <g id="Grupo_81992" data-name="Grupo 81992" transform="translate(61.964 10.187)">
              <g id="Grupo_81991" data-name="Grupo 81991">
                <path id="Trazado_183061" data-name="Trazado 183061" d="M232.044,77.362H227.2V74.508h4.841V69.444h2.964v5.064h4.841v2.854h-4.841v5.065h-2.964Z" transform="translate(-227.203 -69.444)" fill="#fff"/>
              </g>
            </g>
            <path id="Trazado_183062" data-name="Trazado 183062" d="M203.42,114.012a6.837,6.837,0,1,1,6.837-6.837A6.845,6.845,0,0,1,203.42,114.012Zm0-11.212a4.375,4.375,0,1,0,4.375,4.375A4.381,4.381,0,0,0,203.42,102.8Z" transform="translate(-165.239 -59.257)" fill="#fff"/>
          </g>
          <g id="Grupo_81996" data-name="Grupo 81996" transform="translate(620.861 286.833)">
            <g id="Grupo_81995" data-name="Grupo 81995" transform="translate(70.365)">
              <g id="Grupo_81994" data-name="Grupo 81994">
                <path id="Trazado_183063" data-name="Trazado 183063" d="M564.378,354.008h-4.842v-2.854h4.842V346.09h2.963v5.064h4.842v2.854h-4.842v5.065h-2.963Z" transform="translate(-559.536 -346.09)" fill="#fff"/>
              </g>
            </g>
            <path id="Trazado_183064" data-name="Trazado 183064" d="M656.584,380.8a6.837,6.837,0,1,1,6.837-6.837A6.845,6.845,0,0,1,656.584,380.8Zm0-11.212a4.376,4.376,0,1,0,4.375,4.375A4.38,4.38,0,0,0,656.584,369.593Z" transform="translate(-489.171 -346.09)" fill="#fff"/>
            <path id="Trazado_183065" data-name="Trazado 183065" d="M496.008,369.47a6.837,6.837,0,1,1,6.836-6.837A6.845,6.845,0,0,1,496.008,369.47Zm0-11.213a4.376,4.376,0,1,0,4.375,4.376A4.381,4.381,0,0,0,496.008,358.257Z" transform="translate(-489.171 -346.09)" fill="#fff"/>
          </g>
          <g id="Grupo_82001" data-name="Grupo 82001" transform="translate(0 161.915)">
            <g id="Grupo_81998" data-name="Grupo 81998" transform="translate(44 20.918)">
              <g id="Grupo_81997" data-name="Grupo 81997">
                <path id="Trazado_183066" data-name="Trazado 183066" d="M130.044,250.008H125.2v-2.854h4.841V242.09h2.964v5.064h4.841v2.854h-4.841v5.065h-2.964Z" transform="translate(-125.203 -242.09)" fill="#fff"/>
              </g>
            </g>
            <g id="Grupo_82000" data-name="Grupo 82000" transform="translate(0 73.272)">
              <g id="Grupo_81999" data-name="Grupo 81999">
                <path id="Trazado_183067" data-name="Trazado 183067" d="M86.044,302.362H81.2v-2.854h4.841v-5.064h2.964v5.064h4.841v2.854H89.008v5.065H86.044Z" transform="translate(-81.203 -294.444)" fill="#fff"/>
              </g>
            </g>
            <path id="Trazado_183068" data-name="Trazado 183068" d="M89.384,380.845a6.837,6.837,0,1,1,6.836-6.837A6.845,6.845,0,0,1,89.384,380.845Zm0-11.212a4.376,4.376,0,1,0,4.375,4.375A4.381,4.381,0,0,0,89.384,369.633Z" transform="translate(-81.203 -221.172)" fill="#fff"/>
            <path id="Trazado_183069" data-name="Trazado 183069" d="M92.384,234.845a6.837,6.837,0,1,1,6.836-6.837A6.845,6.845,0,0,1,92.384,234.845Zm0-11.212a4.376,4.376,0,1,0,4.375,4.375A4.381,4.381,0,0,0,92.384,223.633Z" transform="translate(-81.203 -221.172)" fill="#fff"/>
          </g>
        </g>
        <g id="Grupo_82050" data-name="Grupo 82050" transform="translate(0 20.147)">
          <g id="Grupo_82005" data-name="Grupo 82005" transform="translate(1.166)">
            <g id="Grupo_82003" data-name="Grupo 82003">
              <rect id="Rectángulo_23466" data-name="Rectángulo 23466" width="85.42" height="80.511" rx="40.256" fill="#ff0092"/>
              <path id="Trazado_183070" data-name="Trazado 183070" d="M92.014,129.66,128.892,179.8,124.9,143.589Z" transform="translate(-73.503 -68.756)" fill="#ff0092"/>
            </g>
            <g id="Grupo_82004" data-name="Grupo 82004" transform="translate(33.65 17.479)">
              <path id="Trazado_183071" data-name="Trazado 183071" d="M111.064,111.134a10.847,10.847,0,0,1,1.737-3.775,8.1,8.1,0,0,1,2.305-2.115,21.192,21.192,0,0,1,3.043-1.4,22.275,22.275,0,0,0,2.525-1.105,6.274,6.274,0,0,0,1.769-1.443,6.093,6.093,0,0,0,1.221-2.427,4.652,4.652,0,0,0-.4-3.865,5.316,5.316,0,0,0-3.249-2.221,7.1,7.1,0,0,0-4.416.118,9.637,9.637,0,0,0-1.729.824,1.676,1.676,0,0,1-2.431-.853l-1.09-2.86a1.674,1.674,0,0,1,.739-2.073,15.053,15.053,0,0,1,4.1-1.433,14.075,14.075,0,0,1,6.643.288q5.923,1.626,8.175,5.034t.916,8.273a8.83,8.83,0,0,1-1.519,3.193,8.027,8.027,0,0,1-2.136,1.927,29.01,29.01,0,0,1-3.019,1.524,27.108,27.108,0,0,0-3.341,1.685,9.471,9.471,0,0,0-2.494,2.326,11.192,11.192,0,0,0-1.84,3.937h0a1.691,1.691,0,0,1-2.078,1.183l-2.635-.723a1.687,1.687,0,0,1-1.232-1.844A17.083,17.083,0,0,1,111.064,111.134Zm-.444,9.288,2.881.791a1.691,1.691,0,0,1,1.183,2.078l-1.328,4.838a1.691,1.691,0,0,1-2.078,1.183l-2.88-.79a1.691,1.691,0,0,1-1.184-2.078l1.328-4.838A1.691,1.691,0,0,1,110.62,120.422Z" transform="translate(-107.153 -86.235)" fill="#fffeff"/>
            </g>
          </g>
          <g id="Grupo_82049" data-name="Grupo 82049" transform="translate(0 46.564)">
            <g id="Grupo_82028" data-name="Grupo 82028" transform="translate(23.573)">
              <g id="Grupo_82027" data-name="Grupo 82027" clip-path="url(#clip-path-2)">
                <g id="Grupo_82026" data-name="Grupo 82026" transform="translate(10.572 25.433)">
                  <g id="Grupo_82008" data-name="Grupo 82008" transform="translate(33.626)">
                    <g id="Grupo_82006" data-name="Grupo 82006" transform="translate(22.655 50.582)">
                      <path id="Trazado_183072" data-name="Trazado 183072" d="M235.507,196.088s-1.447,18.241-2.461,19.688-2.316,15.345-3.474,20.412-12.6,18.24-15.779,18.675-9.41-.435-9.41-.435l-1.158-22.149s23.307-39.81,27.36-40.823S235.507,196.088,235.507,196.088Z" transform="translate(-162.763 -191.334)" fill="#ed989b"/>
                      <path id="Trazado_183073" data-name="Trazado 183073" d="M204.672,238.142l.434,25.623-42.344-4.126,2.823-29.532Z" transform="translate(-162.763 -191.334)" fill="#ed989b"/>
                      <path id="Trazado_183074" data-name="Trazado 183074" d="M204.383,241.761l.507,12.667,2.316-13.97Z" transform="translate(-162.763 -191.334)" fill="#e28d93"/>
                    </g>
                    <g id="Grupo_82007" data-name="Grupo 82007">
                      <path id="Trazado_183075" data-name="Trazado 183075" d="M155.163,144.552c4.922-5.211,67.316-7.383,76.87,9.12,4.088,7.061,4.2,18.675,3.909,25.334,0,0,3.329,15.056-.435,17.082a9.32,9.32,0,0,0-1.37.939c-.674,3.814-1.6,9.069-2.394,13.62-.633,3.637-1.182,6.824-1.447,8.459-.869,5.356-2.751,2.461-2.751,2.461s.007-.04.018-.108c.019-.116.052-.323.092-.608l0-.018c.011-.078.022-.163.034-.252l.007-.054c.012-.09.024-.188.036-.288l.007-.055c.012-.1.023-.2.035-.3l.011-.1c.011-.1.022-.207.034-.315l.01-.105c.011-.11.022-.223.033-.338l.01-.117c.011-.118.021-.24.03-.364l.009-.113c.01-.13.019-.262.028-.4l.007-.107c.008-.135.015-.271.022-.409l.006-.121c.007-.138.012-.279.017-.421l0-.119c0-.143.007-.288.009-.433l0-.122c0-.147,0-.3,0-.445v-.117c0-.15,0-.3-.008-.452l0-.118c0-.152-.011-.3-.018-.454l-.007-.116c-.008-.153-.018-.3-.03-.457,0-.037-.007-.074-.01-.111-.013-.152-.027-.3-.044-.455l-.012-.107c-.018-.152-.038-.3-.059-.452l-.015-.1c-.024-.151-.049-.3-.076-.449l-.018-.088c-.029-.149-.06-.3-.094-.44-.006-.027-.013-.054-.02-.081q-.053-.219-.114-.429l-.021-.067c-.043-.143-.088-.283-.137-.419l-.021-.054c-.051-.138-.1-.273-.162-.4l-.019-.04c-.06-.133-.123-.263-.191-.387l-.011-.018a3.305,3.305,0,0,0-1.886-1.668,2.043,2.043,0,0,0-2.434,1.233c-2.217,5.318-2.6,16.148.2,18.425a9.429,9.429,0,0,1-1.186,4.453c-3.185,5.5-23.886,12.811-31.7,13.39s-28.373-3.474-35.033-9.844-14.765-48.351-14.765-59.932S150.241,149.764,155.163,144.552Z" transform="translate(-140.108 -140.752)" fill="#3b1d53"/>
                      <path id="Trazado_183076" data-name="Trazado 183076" d="M197.434,233.437s-5.79-11.291-5.211-29.821S198.592,168,187.3,169.162c-37.339,3.83-36.336-4.488-42.127,1.882s3.4,47.193,8.9,58.195,12.378,10.279,21.353,11.726S197.145,239.518,197.434,233.437Z" transform="translate(-140.108 -140.752)" fill="#32184c"/>
                    </g>
                  </g>
                  <g id="Grupo_82025" data-name="Grupo 82025" transform="translate(0 59.002)">
                    <g id="Grupo_82014" data-name="Grupo 82014" transform="translate(149.726)">
                      <path id="Trazado_183077" data-name="Trazado 183077" d="M332.934,273.682s-6.478-16.829-12.848-24.791-13.21,29.568-13.21,29.568,7.818,21.606,14.621,22.33c2,.213,12.258.559,14.006-2.28C339.691,291.707,333.24,276.746,332.934,273.682Z" transform="translate(-256.209 -199.754)" fill="#e28d93"/>
                      <g id="Grupo_82013" data-name="Grupo 82013">
                        <g id="Grupo_82010" data-name="Grupo 82010">
                          <g id="Grupo_82009" data-name="Grupo 82009">
                            <path id="Trazado_183078" data-name="Trazado 183078" d="M340.1,211.546,311.881,313.492l-55.672-22.215,25.5-91.524Z" transform="translate(-256.209 -199.754)" fill="#233a63"/>
                            <path id="Trazado_183079" data-name="Trazado 183079" d="M334.508,216.527l-25.029,90.422-49.379-19.7,22.616-81.177Z" transform="translate(-256.209 -199.754)" fill="#fff"/>
                          </g>
                          <path id="Trazado_183080" data-name="Trazado 183080" d="M326.075,207.057l-2.295,8.977-33.148-7.3,2.04-7.722Z" transform="translate(-256.209 -199.754)" fill="#e0994b"/>
                        </g>
                        <g id="Grupo_82012" data-name="Grupo 82012" transform="translate(9.877 19.28)">
                          <path id="Trazado_183081" data-name="Trazado 183081" d="M328.88,221.856l-4.126,14.657-13.68-3.8,3.909-13.68Z" transform="translate(-266.086 -219.033)" fill="#c8d5e8"/>
                          <g id="Grupo_82011" data-name="Grupo 82011" transform="translate(0 10.351)">
                            <path id="Trazado_183082" data-name="Trazado 183082" d="M323.09,241.834l-43.719-12.45-.434,1.592,43.5,12.884Z" transform="translate(-266.086 -229.384)" fill="#c8d5e8"/>
                            <path id="Trazado_183083" data-name="Trazado 183083" d="M321.353,247.48l-43.719-12.45-.434,1.592,43.5,12.884Z" transform="translate(-266.086 -229.384)" fill="#c8d5e8"/>
                            <path id="Trazado_183084" data-name="Trazado 183084" d="M317.052,262.806l-43.476-13.273-.464,1.584,43.251,13.7Z" transform="translate(-266.086 -229.384)" fill="#c8d5e8"/>
                            <path id="Trazado_183085" data-name="Trazado 183085" d="M315.3,268.513,271.86,255.119l-.469,1.583L314.6,270.525Z" transform="translate(-266.086 -229.384)" fill="#c8d5e8"/>
                            <path id="Trazado_183086" data-name="Trazado 183086" d="M313.667,273.73l-43.346-13.69-.479,1.579,43.117,14.118Z" transform="translate(-266.086 -229.384)" fill="#c8d5e8"/>
                            <path id="Trazado_183087" data-name="Trazado 183087" d="M311.913,279.44l-43.306-13.818-.484,1.578L311.2,281.446Z" transform="translate(-266.086 -229.384)" fill="#c8d5e8"/>
                            <path id="Trazado_183088" data-name="Trazado 183088" d="M309.195,294.447,266.65,278.438l-.564,1.551,42.293,16.423Z" transform="translate(-266.086 -229.384)" fill="#c8d5e8"/>
                          </g>
                        </g>
                      </g>
                      <path id="Trazado_183089" data-name="Trazado 183089" d="M317.878,270.787a22.638,22.638,0,0,1-9.409-3.221c-4.054-2.751-5.32-6.3-3.366-8.578.4-.466,4.958,2.968,11.762,3.258s11.581,2.461,15.2,6.659,7.781,20.918,6.7,30.473c-.35,3.075-18.132-3.257-19.435-10.64S321.642,273.1,317.878,270.787Z" transform="translate(-256.209 -199.754)" fill="#ed989b"/>
                    </g>
                    <g id="Grupo_82024" data-name="Grupo 82024" transform="translate(0 52.503)">
                      <g id="Grupo_82022" data-name="Grupo 82022" transform="translate(0 15.347)">
                        <path id="Trazado_183090" data-name="Trazado 183090" d="M119.261,280.052s-13.607,9.554-12.739,37.349,1.3,96.847,5.212,103.362,25.189,19.109,27.794,15.2,5.212-106.4,5.212-106.4Z" transform="translate(-106.482 -267.604)" fill="#0b2347"/>
                        <g id="Grupo_82016" data-name="Grupo 82016" transform="translate(9.139)">
                          <g id="Grupo_82015" data-name="Grupo 82015">
                            <path id="Trazado_183091" data-name="Trazado 183091" d="M210.753,276.577s17.806,7.383,27.794,10.858,1.738,57.761,1.738,71.658,6.08,48.641,9.554,65.144,1.768,35.941,1.768,35.941-41.723,14-68.215,9.226a382.832,382.832,0,0,1-47.048-11.581s5.79-60.512,4.487-73.541c-1.051-10.515-19.077-60.637-24.85-90.086a19.058,19.058,0,0,1,13.709-22.071,139.089,139.089,0,0,1,23.3-4.234C176.009,265.72,210.753,276.577,210.753,276.577Z" transform="translate(-115.621 -267.604)" fill="#112954"/>
                            <path id="Trazado_183092" data-name="Trazado 183092" d="M193.96,288.738s-22.728-7.492-30.98-12.269a21.018,21.018,0,0,0-15.634-2.5s-13.9,13.9-17.806,19.108,13.9,61.236,19.109,83.385-3.04,77.3-3.04,77.3l54.431,12.16s-17.227-75.567-18.53-92.07-9.554-33.875-3.474-52.115C181.242,312.125,193.96,288.738,193.96,288.738Z" transform="translate(-115.621 -267.604)" fill="#0d2549"/>
                          </g>
                          <path id="Trazado_183093" data-name="Trazado 183093" d="M209.594,337.668l30.98,22.583,2.316,25.479S213.648,349.539,209.594,337.668Z" transform="translate(-115.621 -267.604)" fill="#0e1d38"/>
                        </g>
                        <g id="Grupo_82021" data-name="Grupo 82021" transform="translate(101.707 19.039)">
                          <g id="Grupo_82020" data-name="Grupo 82020">
                            <g id="Grupo_82019" data-name="Grupo 82019">
                              <g id="Grupo_82017" data-name="Grupo 82017" transform="translate(90.404 15.489)">
                                <path id="Trazado_183094" data-name="Trazado 183094" d="M341.258,303.721s-2.389,47.338-6.732,72.092-9.12,37.639-18.24,36.336-23.235-9.409-15.417-41.113,14.114-54.069,14.983-66.23C315.852,304.806,333.875,299.6,341.258,303.721Z" transform="translate(-298.594 -302.132)" fill="#112954"/>
                              </g>
                              <g id="Grupo_82018" data-name="Grupo 82018">
                                <path id="Trazado_183095" data-name="Trazado 183095" d="M318.457,371.253s-58.774-77.883-80.489-83.963-34.6,32.282-28.084,48.351,88.6,76,104.23,76C314.114,411.643,334.526,395.574,318.457,371.253Z" transform="translate(-208.19 -286.643)" fill="#112954"/>
                              </g>
                            </g>
                          </g>
                          <path id="Trazado_183096" data-name="Trazado 183096" d="M341.584,295.361l1.266,12.992s-20.451,2.733-28.518.869l.434-8.831S334.345,300.427,341.584,295.361Z" transform="translate(-208.19 -286.643)" fill="#fff"/>
                        </g>
                      </g>
                      <g id="Grupo_82023" data-name="Grupo 82023" transform="translate(46.51)">
                        <path id="Trazado_183097" data-name="Trazado 183097" d="M206.844,259.206l3.909,17.371s-35.757,1.014-45.746-2.895-12.015-5.791-12.015-5.791l9.554-15.634S185.564,260.508,206.844,259.206Z" transform="translate(-152.992 -252.257)" fill="#fff"/>
                        <path id="Trazado_183098" data-name="Trazado 183098" d="M196.638,260.726l.651,13.246s-21.28-.218-24.971-.218-15.418-6.731-15.418-6.731l6.08-13.029S181,260.074,196.638,260.726Z" transform="translate(-152.992 -252.257)" fill="#e2e8f2"/>
                      </g>
                    </g>
                  </g>
                </g>
              </g>
            </g>
            <g id="Grupo_82030" data-name="Grupo 82030" transform="translate(0 321.93)">
              <g id="Grupo_82029" data-name="Grupo 82029">
                <rect id="Rectángulo_23468" data-name="Rectángulo 23468" width="820" height="14.093" transform="translate(820 14.093) rotate(-180)" fill="#3b1d53"/>
              </g>
            </g>
            <g id="Grupo_82048" data-name="Grupo 82048" transform="translate(483.466 222.634)">
              <g id="Grupo_82040" data-name="Grupo 82040" transform="translate(130.436 38.196)">
                <g id="Grupo_82033" data-name="Grupo 82033" transform="translate(104.074 29.994)">
                  <g id="Grupo_82031" data-name="Grupo 82031">
                    <path id="Rectángulo_23469" data-name="Rectángulo 23469" d="M12.76,0H99.576a0,0,0,0,1,0,0V28.4a0,0,0,0,1,0,0H12.76A12.76,12.76,0,0,1,0,15.641V12.76A12.76,12.76,0,0,1,12.76,0Z" fill="#112954"/>
                    <path id="Trazado_183099" data-name="Trazado 183099" d="M588.7,410.617c-4.457,0-8.071,4.278-8.071,9.555s3.614,9.556,8.071,9.556h89.5V410.617Z" transform="translate(-577.419 -406.142)" fill="#fff"/>
                  </g>
                  <g id="Grupo_82032" data-name="Grupo 82032" transform="translate(6.214 9.668)">
                    <rect id="Rectángulo_23470" data-name="Rectángulo 23470" width="92.556" height="1.298" fill="#d3d1e8"/>
                    <rect id="Rectángulo_23471" data-name="Rectángulo 23471" width="92.556" height="1.298" transform="translate(0.366 6.121)" fill="#d3d1e8"/>
                  </g>
                </g>
                <g id="Grupo_82036" data-name="Grupo 82036" transform="translate(55.319)">
                  <g id="Grupo_82034" data-name="Grupo 82034">
                    <path id="Rectángulo_23472" data-name="Rectángulo 23472" d="M12.7,0H99.031a0,0,0,0,1,0,0V28.246a0,0,0,0,1,0,0H12.7A12.7,12.7,0,0,1,0,15.543V12.7A12.7,12.7,0,0,1,12.7,0Z" fill="#e0994b"/>
                    <path id="Trazado_183100" data-name="Trazado 183100" d="M539.886,380.6c-4.433,0-8.027,4.254-8.027,9.5s3.594,9.5,8.027,9.5h89.008V380.6Z" transform="translate(-528.664 -376.149)" fill="#fff"/>
                  </g>
                  <g id="Grupo_82035" data-name="Grupo 82035" transform="translate(6.18 9.615)">
                    <rect id="Rectángulo_23473" data-name="Rectángulo 23473" width="92.049" height="1.291" fill="#d3d1e8"/>
                    <rect id="Rectángulo_23474" data-name="Rectángulo 23474" width="92.049" height="1.291" transform="translate(0.364 6.087)" fill="#d3d1e8"/>
                  </g>
                </g>
                <g id="Grupo_82039" data-name="Grupo 82039" transform="translate(0 29.782)">
                  <g id="Grupo_82037" data-name="Grupo 82037">
                    <path id="Rectángulo_23475" data-name="Rectángulo 23475" d="M12.7,0H99.031a0,0,0,0,1,0,0V28.246a0,0,0,0,1,0,0H12.7A12.7,12.7,0,0,1,0,15.543V12.7A12.7,12.7,0,0,1,12.7,0Z" fill="#3b1d53"/>
                    <path id="Trazado_183101" data-name="Trazado 183101" d="M484.567,410.381c-4.433,0-8.027,4.254-8.027,9.5s3.594,9.5,8.027,9.5h89.007V410.381Z" transform="translate(-473.345 -405.931)" fill="#fff"/>
                  </g>
                  <g id="Grupo_82038" data-name="Grupo 82038" transform="translate(7.271 10.076)">
                    <rect id="Rectángulo_23476" data-name="Rectángulo 23476" width="92.049" height="1.291" fill="#d3d1e8"/>
                    <rect id="Rectángulo_23477" data-name="Rectángulo 23477" width="92.049" height="1.291" transform="translate(0.364 6.087)" fill="#d3d1e8"/>
                  </g>
                </g>
              </g>
              <g id="Grupo_82044" data-name="Grupo 82044" transform="translate(0 40.267)">
                <g id="Grupo_82043" data-name="Grupo 82043">
                  <g id="Grupo_82042" data-name="Grupo 82042">
                    <g id="Grupo_82041" data-name="Grupo 82041">
                      <rect id="Rectángulo_23478" data-name="Rectángulo 23478" width="39.575" height="56.623" fill="#3b1d53"/>
                    </g>
                  </g>
                  <rect id="Rectángulo_23479" data-name="Rectángulo 23479" width="10.731" height="49.773" transform="translate(3.12 3.273)" fill="#452663"/>
                </g>
                <path id="Trazado_183102" data-name="Trazado 183102" d="M381.158,425.781q-.946,0-1.936-.054l.374-6.863c5.057.281,8.694-.736,10.818-3.005,2.482-2.653,3.329-7.368,2.52-14.013a7.566,7.566,0,0,0-3.05-5.634c-4.6-3.243-12.829-1.511-12.911-1.493l-1.511-6.7c.457-.1,11.24-2.456,18.382,2.581a14.432,14.432,0,0,1,5.913,10.42c1.066,8.757-.389,15.331-4.324,19.537C392.184,424.026,387.387,425.781,381.158,425.781Z" transform="translate(-342.91 -378.22)" fill="#3b1d53"/>
              </g>
              <g id="Grupo_82047" data-name="Grupo 82047" transform="translate(71.063)">
                <g id="Grupo_82045" data-name="Grupo 82045">
                  <path id="Trazado_183103" data-name="Trazado 183103" d="M435.778,401.675S413.973,396.068,413.973,378s2.18-23.986,2.18-23.986,6.853,11.526,14.33,21.8S435.778,401.675,435.778,401.675Z" transform="translate(-413.973 -337.953)" fill="#3b1d53"/>
                  <path id="Trazado_183104" data-name="Trazado 183104" d="M440.124,403.544s21.806-5.607,21.806-23.675-2.181-23.986-2.181-23.986-6.853,11.526-14.329,21.806S440.124,403.544,440.124,403.544Z" transform="translate(-413.973 -337.953)" fill="#3b1d53"/>
                  <path id="Trazado_183105" data-name="Trazado 183105" d="M436.075,379.211s19.435-10.806,15.149-24.175-7.767-17.083-7.767-17.083-3.792,10.62-8.473,20.51S436.075,379.211,436.075,379.211Z" transform="translate(-413.973 -337.953)" fill="#3b1d53"/>
                  <path id="Trazado_183106" data-name="Trazado 183106" d="M436.075,379.211s-1.361,16.406,4.32,19.181c0,0-5.681-11.494-2.906-22.2S435.85,373.374,436.075,379.211Z" transform="translate(-413.973 -337.953)" fill="#3b1d53"/>
                </g>
                <g id="Grupo_82046" data-name="Grupo 82046" transform="translate(3.679 56.475)">
                  <rect id="Rectángulo_23480" data-name="Rectángulo 23480" width="42.184" height="40.427" fill="#214be5"/>
                  <rect id="Rectángulo_23481" data-name="Rectángulo 23481" width="11" height="35.5" transform="translate(4.106 1.83)" fill="#6081fa"/>
                </g>
              </g>
            </g>
          </g>
        </g>
      </g>
    </g>
  </g>
</svg>
