<svg xmlns="http://www.w3.org/2000/svg" xmlns:xlink="http://www.w3.org/1999/xlink" width="85" height="85" viewBox="0 0 85 85">
  <defs>
    <clipPath id="clip-path">
      <rect id="Rectángulo_23159" data-name="Rectángulo 23159" width="85" height="85" transform="translate(285 2768)" fill="#fff" stroke="#707070" stroke-width="1"/>
    </clipPath>
  </defs>
  <g id="Enmascarar_grupo_99" data-name="Enmascarar grupo 99" transform="translate(-285 -2768)" clip-path="url(#clip-path)">
    <g id="Fill_Outline" data-name="Fill Outline" transform="translate(282.21 2765.293)">
      <g id="Color">
        <g id="Grupo_80767" data-name="Grupo 80767">
          <ellipse id="Elipse_4696" data-name="Elipse 4696" cx="40.969" cy="21.191" rx="40.969" ry="21.191" transform="translate(4.238 18.365)" fill="#214be5" opacity="0.28"/>
          <path id="Trazado_181401" data-name="Trazado 181401" d="M52.176,52.271c-14.65,0-28.03-6.234-38.306-16.506A56.368,56.368,0,0,1,48.033,24.016,56.8,56.8,0,0,1,84.8,37.872c-10-12.019-24.036-19.507-39.6-19.507-16.28,0-30.9,8.194-40.969,21.191,10.067,13,24.689,21.191,40.969,21.191,16.122,0,30.611-8.038,40.668-20.822a53.118,53.118,0,0,1-33.7,12.346Z" fill="#214be5" opacity="0.6"/>
          <path id="Trazado_181402" data-name="Trazado 181402" d="M66.4,39.556A21.191,21.191,0,1,0,32.493,56.481v4.266H57.922V56.481A21.139,21.139,0,0,0,66.4,39.556Z" fill="#f9e109"/>
          <rect id="Rectángulo_23162" data-name="Rectángulo 23162" width="33.905" height="5.651" rx="2.825" transform="translate(28.254 60.747)" fill="#d0d8da"/>
          <rect id="Rectángulo_23163" data-name="Rectángulo 23163" width="33.905" height="5.651" rx="2.825" transform="translate(28.254 66.398)" fill="#d0d8da"/>
          <path id="Trazado_181403" data-name="Trazado 181403" d="M32.493,72.049H57.922v1.413a12.714,12.714,0,1,1-25.429,0Z" fill="#93999a"/>
          <path id="Trazado_181404" data-name="Trazado 181404" d="M60.747,53.683A28.254,28.254,0,0,1,32.493,25.429a28.617,28.617,0,0,1,.148-2.9,21.134,21.134,0,0,0-.148,33.956v4.266H57.922V56.481a21.473,21.473,0,0,0,3.025-2.807C60.878,53.674,60.813,53.683,60.747,53.683Z" fill="#fcbc04"/>
          <circle id="Elipse_4697" data-name="Elipse 4697" cx="9.889" cy="9.889" r="9.889" transform="translate(35.318 29.667)" fill="#57b7eb"/>
          <circle id="Elipse_4698" data-name="Elipse 4698" cx="4.238" cy="4.238" r="4.238" transform="translate(46.62 29.667)" fill="#aae1f9"/>
          <path id="Trazado_181405" data-name="Trazado 181405" d="M35.459,37.971a9.83,9.83,0,0,0,9.748,11.474c.22,0,.438-.018.656-.032a28.338,28.338,0,0,1-10.4-11.442Z" fill="#4891d3"/>
          <path id="Trazado_181406" data-name="Trazado 181406" d="M32.493,60.747H31.08a2.825,2.825,0,1,0,0,5.651H59.334a2.825,2.825,0,0,0,2.825-2.825H35.318A2.825,2.825,0,0,1,32.493,60.747Z" fill="#93999a"/>
          <path id="Trazado_181407" data-name="Trazado 181407" d="M32.493,66.4H31.08a2.825,2.825,0,1,0,0,5.651H59.334a2.825,2.825,0,0,0,2.825-2.825H35.318A2.825,2.825,0,0,1,32.493,66.4Z" fill="#93999a"/>
          <path id="Trazado_181408" data-name="Trazado 181408" d="M49.445,77.7h7.737a12.652,12.652,0,0,0,.739-4.238V72.049H32.493v1.413A12.707,12.707,0,0,0,41.006,85.45,8.476,8.476,0,0,1,49.445,77.7Z" fill="#656b76"/>
        </g>
      </g>
      <g id="Outline_copy" data-name="Outline copy">
        <g id="Grupo_80768" data-name="Grupo 80768">
          <path id="Trazado_181409" data-name="Trazado 181409" d="M53.49,11.946a1.454,1.454,0,0,0,.407.059A1.413,1.413,0,0,0,55.249,11L56.89,5.532a1.413,1.413,0,1,0-2.707-.811l-1.642,5.466A1.413,1.413,0,0,0,53.49,11.946Z" fill="#12263f"/>
          <path id="Trazado_181410" data-name="Trazado 181410" d="M62.8,14.206a1.413,1.413,0,0,0,1.916-.565L67.455,8.6a1.413,1.413,0,1,0-2.484-1.349l-2.735,5.036a1.413,1.413,0,0,0,.568,1.916Z" fill="#12263f"/>
          <path id="Trazado_181411" data-name="Trazado 181411" d="M73.381,18.813a1.413,1.413,0,0,0,1.081-.5L78.176,13.9a1.413,1.413,0,1,0-2.16-1.821L72.3,16.491a1.413,1.413,0,0,0,1.079,2.323Z" fill="#12263f"/>
          <path id="Trazado_181412" data-name="Trazado 181412" d="M82,25.832a1.413,1.413,0,0,0,.909-.331l4.379-3.673a1.413,1.413,0,1,0-1.816-2.165L81.09,23.337A1.413,1.413,0,0,0,82,25.83Z" fill="#12263f"/>
          <path id="Trazado_181413" data-name="Trazado 181413" d="M15.952,18.312a1.413,1.413,0,1,0,2.16-1.821L14.4,12.08a1.413,1.413,0,1,0-2.16,1.821Z" fill="#12263f"/>
          <path id="Trazado_181414" data-name="Trazado 181414" d="M25.695,13.638a1.413,1.413,0,0,0,2.484-1.348L25.443,7.252A1.413,1.413,0,1,0,22.96,8.6Z" fill="#12263f"/>
          <path id="Trazado_181415" data-name="Trazado 181415" d="M7.554,25.536A1.413,1.413,0,1,0,9.28,23.3L5.1,20.073a1.413,1.413,0,1,0-1.726,2.235Z" fill="#12263f"/>
          <path id="Trazado_181416" data-name="Trazado 181416" d="M35.165,11a1.413,1.413,0,0,0,1.352,1.007,1.454,1.454,0,0,0,.407-.059,1.413,1.413,0,0,0,.948-1.759L36.231,4.721a1.413,1.413,0,1,0-2.707.811Z" fill="#12263f"/>
          <path id="Trazado_181417" data-name="Trazado 181417" d="M45.207,11.3A1.413,1.413,0,0,0,46.62,9.889V4.238a1.413,1.413,0,0,0-2.825,0V9.889A1.413,1.413,0,0,0,45.207,11.3Z" fill="#12263f"/>
          <path id="Trazado_181418" data-name="Trazado 181418" d="M26,55.185A54.213,54.213,0,0,1,6.038,39.556a56.991,56.991,0,0,1,9.219-9.147,1.413,1.413,0,0,0-1.745-2.224A60.182,60.182,0,0,0,3.122,38.692a1.413,1.413,0,0,0,0,1.729A57.272,57.272,0,0,0,24.854,57.766,1.413,1.413,0,0,0,26,55.185Z" fill="#12263f"/>
          <path id="Trazado_181419" data-name="Trazado 181419" d="M87.294,40.421a1.413,1.413,0,0,0,0-1.729C76.6,24.875,61.256,16.953,45.207,16.953A50.68,50.68,0,0,0,17.915,25.06a1.413,1.413,0,0,0,1.52,2.382,49.174,49.174,0,0,1,11.5-5.391,22.551,22.551,0,0,0,.141,35.12v2.163a4.238,4.238,0,1,0,0,8.476H59.334a1.413,1.413,0,1,1,0,2.825H31.08a1.413,1.413,0,1,0,0,2.825,14.127,14.127,0,1,0,28.254,0A4.22,4.22,0,0,0,62.471,66.4a4.22,4.22,0,0,0-3.136-7.064V57.171a22.4,22.4,0,0,0,8.476-17.615,22.73,22.73,0,0,0-.528-4.826,1.413,1.413,0,1,0-2.761.6,19.865,19.865,0,0,1,.463,4.224,19.621,19.621,0,0,1-7.911,15.8,1.413,1.413,0,0,0-.565,1.13v2.852H50.858v-10a11.254,11.254,0,0,0,4.93-13.722A1.413,1.413,0,0,0,54.6,34.7a1.4,1.4,0,0,0-1.341.668A2.815,2.815,0,1,1,49.394,31.5a1.413,1.413,0,0,0-.243-2.529,11.291,11.291,0,0,0-9.6,20.357v10H33.905V56.479a1.413,1.413,0,0,0-.565-1.13A19.765,19.765,0,1,1,62.725,30.374a1.413,1.413,0,0,0,2.5-1.314,22.69,22.69,0,0,0-5.7-7,53,53,0,0,1,24.854,17.5A54.213,54.213,0,0,1,64.41,55.185a1.413,1.413,0,0,0,1.15,2.581A57.272,57.272,0,0,0,87.294,40.421ZM45.207,84.763a11.314,11.314,0,0,1-11.3-11.3h22.6a11.314,11.314,0,0,1-11.3,11.3Zm15.54-21.191a1.413,1.413,0,0,1-1.413,1.413H31.08a1.413,1.413,0,0,1,0-2.825H59.334A1.413,1.413,0,0,1,60.747,63.572ZM41.576,47.2A8.476,8.476,0,0,1,45.207,31.08c.247,0,.494.011.739.032a5.651,5.651,0,0,0,7.7,7.7c.023.244.034.492.034.739A8.514,8.514,0,0,1,48.838,47.2a1.413,1.413,0,0,0-.805,1.271V59.334H42.382V48.48a1.413,1.413,0,0,0-.805-1.276Z" fill="#12263f"/>
          <path id="Trazado_181420" data-name="Trazado 181420" d="M74.462,58.779a1.414,1.414,0,1,0-2.16,1.827l3.714,4.412a1.413,1.413,0,1,0,2.16-1.822Z" fill="#12263f"/>
          <path id="Trazado_181421" data-name="Trazado 181421" d="M82.906,51.593a1.413,1.413,0,1,0-1.815,2.163l4.379,3.673a1.413,1.413,0,0,0,1.817-2.163Z" fill="#12263f"/>
          <path id="Trazado_181422" data-name="Trazado 181422" d="M15.952,58.779,12.238,63.19a1.413,1.413,0,1,0,2.16,1.822l3.714-4.406a1.413,1.413,0,1,0-2.16-1.821Z" fill="#12263f"/>
          <path id="Trazado_181423" data-name="Trazado 181423" d="M7.554,51.556,3.375,54.783A1.413,1.413,0,1,0,5.1,57.017L9.28,53.791a1.413,1.413,0,1,0-1.726-2.235Z" fill="#12263f"/>
        </g>
      </g>
    </g>
  </g>
</svg>
