<svg xmlns="http://www.w3.org/2000/svg" xmlns:xlink="http://www.w3.org/1999/xlink" width="85" height="85" viewBox="0 0 85 85">
  <defs>
    <clipPath id="clip-path">
      <rect id="Rectángulo_23158" data-name="Rectángulo 23158" width="85" height="85" transform="translate(600 2768)" fill="#fff" stroke="#707070" stroke-width="1"/>
    </clipPath>
  </defs>
  <g id="Enmascarar_grupo_100" data-name="Enmascarar grupo 100" transform="translate(-600 -2768)" clip-path="url(#clip-path)">
    <g id="loop" transform="translate(600 2768)">
      <circle id="Elipse_4699" data-name="Elipse 4699" cx="7.471" cy="7.471" r="7.471" transform="translate(1.66 35.029)" fill="#ff0092"/>
      <circle id="Elipse_4700" data-name="Elipse 4700" cx="7.471" cy="7.471" r="7.471" transform="translate(68.398 35.029)" fill="#ffd400"/>
      <circle id="Elipse_4701" data-name="Elipse 4701" cx="7.471" cy="7.471" r="7.471" transform="translate(35.029 68.398)" fill="#214be5"/>
      <circle id="Elipse_4702" data-name="Elipse 4702" cx="7.471" cy="7.471" r="7.471" transform="translate(35.029 1.66)" fill="#1ddba9"/>
      <g id="Grupo_80769" data-name="Grupo 80769">
        <path id="Trazado_181424" data-name="Trazado 181424" d="M56.764,13.817a1.66,1.66,0,0,0,2.226-.745,1.662,1.662,0,0,0-.745-2.226,1.66,1.66,0,0,0-1.481,2.972Z"/>
        <path id="Trazado_181425" data-name="Trazado 181425" d="M77.666,33.548l2.47-6.789a1.661,1.661,0,0,0-3.119-1.136L75.5,29.788A35.41,35.41,0,0,0,64.135,14.545a1.684,1.684,0,0,0-2.329.3,1.663,1.663,0,0,0,.3,2.329A32.157,32.157,0,0,1,72.89,32.349l-5.783-2.1a1.66,1.66,0,0,0-2.072,2.261,1.647,1.647,0,0,0,.936.858l4.63,1.685a9.124,9.124,0,1,0,7.065-1.5Zm-1.8,14.763A5.811,5.811,0,1,1,81.68,42.5,5.817,5.817,0,0,1,75.869,48.311Z" fill="#12263f"/>
        <path id="Trazado_181426" data-name="Trazado 181426" d="M42.5,18.262A9.131,9.131,0,1,0,33.546,7.341l-6.8-2.476a1.656,1.656,0,0,0-.568-.1,1.661,1.661,0,0,0-.568,3.221L29.773,9.5A35.428,35.428,0,0,0,14.53,20.865,1.66,1.66,0,1,0,17.154,22.9,32.147,32.147,0,0,1,32.333,12.11l-2.105,5.783a1.707,1.707,0,0,0,1.561,2.23,1.666,1.666,0,0,0,1.561-1.094l1.69-4.643A9.124,9.124,0,0,0,42.5,18.262Zm0-14.941a5.811,5.811,0,1,1-5.811,5.811A5.817,5.817,0,0,1,42.5,3.32Z" fill="#12263f"/>
        <path id="Trazado_181427" data-name="Trazado 181427" d="M11.576,28.983a1.661,1.661,0,1,0-.747-2.226A1.661,1.661,0,0,0,11.576,28.983Z"/>
        <path id="Trazado_181428" data-name="Trazado 181428" d="M70.161,61.821a1.674,1.674,0,0,0-2.329.3A32.16,32.16,0,0,1,52.651,72.906l2.106-5.784A1.659,1.659,0,0,0,53.764,65c-.628-.234-2.126.078-2.126.991l-1.682,4.621a9.124,9.124,0,1,0,1.495,7.072l6.792,2.471a1.688,1.688,0,0,0,2.128-.991,1.664,1.664,0,0,0-.993-2.128l-4.165-1.516A35.393,35.393,0,0,0,70.457,64.15,1.664,1.664,0,0,0,70.161,61.821ZM42.5,81.68a5.811,5.811,0,1,1,5.811-5.811A5.817,5.817,0,0,1,42.5,81.68Z" fill="#12263f"/>
        <path id="Trazado_181429" data-name="Trazado 181429" d="M73.41,56.034a1.66,1.66,0,1,0,.745,2.226A1.662,1.662,0,0,0,73.41,56.034Z"/>
        <path id="Trazado_181430" data-name="Trazado 181430" d="M22.884,67.847a32.166,32.166,0,0,1-10.79-15.181l5.784,2.106a1.682,1.682,0,0,0,2.128-.991,1.661,1.661,0,0,0-.993-2.128l-4.635-1.687a9.124,9.124,0,1,0-7.052,1.486L4.849,58.257a1.664,1.664,0,0,0,.993,2.128,1.681,1.681,0,0,0,2.128-.993l1.516-4.166A35.41,35.41,0,0,0,20.85,70.472a1.694,1.694,0,0,0,2.329-.3A1.661,1.661,0,0,0,22.884,67.847ZM3.32,42.5a5.811,5.811,0,1,1,5.811,5.811A5.817,5.817,0,0,1,3.32,42.5Z" fill="#12263f"/>
        <path id="Trazado_181431" data-name="Trazado 181431" d="M28.221,71.2a1.633,1.633,0,0,0-.739-.174,1.66,1.66,0,0,0-.742,3.146h0a1.633,1.633,0,0,0,.739.174,1.66,1.66,0,0,0,.74-3.146Z"/>
      </g>
    </g>
  </g>
</svg>
