<svg xmlns="http://www.w3.org/2000/svg" xmlns:xlink="http://www.w3.org/1999/xlink" width="85" height="85" viewBox="0 0 85 85">
  <defs>
    <clipPath id="clip-path">
      <rect id="Rectángulo_23161" data-name="Rectángulo 23161" width="85" height="85" transform="translate(285 2365)" fill="#fff" stroke="#707070" stroke-width="1"/>
    </clipPath>
  </defs>
  <g id="Grupo_82176" data-name="Grupo 82176" transform="translate(-758 -1979)">
    <g id="Enmascarar_grupo_95" data-name="Enmascarar grupo 95" transform="translate(473 -386)" clip-path="url(#clip-path)">
      <g id="united" transform="translate(285 2365.976)">
        <path id="Trazado_181318" data-name="Trazado 181318" d="M50.64,67.5,31.893,48.751a3,3,0,1,1,4.245-4.245l-4.827-4.827a3,3,0,0,1-.881-2.124,3.083,3.083,0,0,1,.038-.481,3,3,0,0,1,4.8-1.888l-1.837-1.837a3,3,0,0,1-.882-2.126,2.868,2.868,0,0,1,.04-.488A3,3,0,0,1,37.68,29.1l2.1,2.1a3,3,0,1,1,4.245-4.245L56.211,39.145l.034-.049a5.489,5.489,0,0,1,7.77.006L69.7,44.783A5.83,5.83,0,0,1,71.4,48.9l0,3.554a6.273,6.273,0,0,0,1.838,4.431l1.267,1.267L60.023,72.636,58.4,71.017a6.275,6.275,0,0,0-4.027-1.824,5.822,5.822,0,0,1-3.738-1.7Zm0,0" fill="#fecbaa"/>
        <path id="Trazado_181319" data-name="Trazado 181319" d="M59.082,73.577,75.527,57.131a1.387,1.387,0,0,1,1.962,0l5.857,5.857a1.388,1.388,0,0,1,0,1.962L66.9,81.4a1.388,1.388,0,0,1-1.962,0l-5.857-5.857a1.387,1.387,0,0,1,0-1.962Zm0,0" fill="#ffd400"/>
        <path id="Trazado_181320" data-name="Trazado 181320" d="M34.357,67.5,53.1,48.753a3,3,0,1,0-4.246-4.245l4.827-4.827a3,3,0,0,0-3.96-4.493l1.837-1.837a3,3,0,0,0,.882-2.126,2.863,2.863,0,0,0-.04-.488,2.991,2.991,0,0,0-2.484-2.475,3,3,0,0,0-2.6.842l-2.1,2.1a3,3,0,0,0,.843-2.6,2.971,2.971,0,0,0-.839-1.645,3,3,0,0,0-4.248,0L28.786,39.146l-.034-.048a5.489,5.489,0,0,0-7.77.006L15.3,44.785A5.827,5.827,0,0,0,13.594,48.9l0,3.554a6.268,6.268,0,0,1-1.838,4.431l-1.267,1.267L24.974,72.638l1.619-1.619a6.275,6.275,0,0,1,4.027-1.824,5.829,5.829,0,0,0,3.738-1.7Zm0,0" fill="#fecbaa"/>
        <path id="Trazado_181321" data-name="Trazado 181321" d="M25.916,73.579,9.47,57.133a1.387,1.387,0,0,0-1.962,0L1.65,62.99a1.388,1.388,0,0,0,0,1.962L18.1,81.4a1.387,1.387,0,0,0,1.962,0l5.857-5.857a1.388,1.388,0,0,0,0-1.962Zm0,0" fill="#ff0092"/>
        <path id="Trazado_181322" data-name="Trazado 181322" d="M54.489,22.571V49.083a3,3,0,1,1-6,0V55.91a3,3,0,0,1-5.977.377v2.6a3,3,0,0,1-.88,2.126,2.815,2.815,0,0,1-.374.317A3,3,0,0,1,36.5,58.885V55.91a3,3,0,1,1-6,0V38.68l-.058.01a5.49,5.49,0,0,1-5.49-5.5V25.158a5.831,5.831,0,0,1,1.7-4.116l2.51-2.515A6.273,6.273,0,0,0,31,14.094V12.3H51.487v2.289a6.279,6.279,0,0,0,1.557,4.137,5.824,5.824,0,0,1,1.445,3.842Zm0,0" fill="#fedfc5"/>
        <path id="Trazado_181323" data-name="Trazado 181323" d="M53.108,44.5a3,3,0,0,0-4.248,0l4.827-4.827a3,3,0,0,0-3.96-4.493l1.837-1.837a3,3,0,0,0,.881-2.126,2.8,2.8,0,0,0-.04-.488A3,3,0,0,0,47.318,29.1l-2.1,2.1a3,3,0,1,0-4.245-4.245L28.786,39.146l-.034-.048A5.469,5.469,0,0,0,23.78,37.6a8.055,8.055,0,0,0,4.23,3.2V55.91A5.5,5.5,0,0,0,34.574,61.3a5.5,5.5,0,0,0,3.185,2.8L53.1,48.752a3,3,0,0,0,0-4.248Zm0,0" fill="#ffae85"/>
        <path id="Trazado_181324" data-name="Trazado 181324" d="M56.977,49.083v-10.6a5.5,5.5,0,0,0-.733.616l-.034.048L44.027,26.961a3,3,0,0,0-4.248,0,3,3,0,0,0,0,4.248l-2.1-2.1a3,3,0,0,0-5.088,1.632,2.862,2.862,0,0,0-.04.488,3,3,0,0,0,.882,2.126l1.837,1.837a3,3,0,0,0-3.96,4.493l4.827,4.827a3,3,0,1,0-4.244,4.245L44.451,61.31a5.513,5.513,0,0,0,1.032.1,5.443,5.443,0,0,0,3.213-1.04,5.491,5.491,0,0,0,2.279-4.457V54.557q.254.023.512.023a5.5,5.5,0,0,0,5.491-5.5Zm0,0" fill="#ffae85"/>
        <path id="Trazado_181325" data-name="Trazado 181325" d="M54.489,22.571V49.083a3,3,0,0,1-3,3.006c-.045,0-.093,0-.141,0a2.97,2.97,0,0,1-1.612-.564l0,0a3,3,0,0,1-1.245-2.437V55.91a3,3,0,0,1-5.977.377v2.6a3,3,0,0,1-.88,2.126,2.815,2.815,0,0,1-.374.317A3,3,0,0,1,36.5,58.885V55.91a3,3,0,1,1-6,0V38.68l-.058.01a5.49,5.49,0,0,1-5.49-5.5V25.158a5.831,5.831,0,0,1,1.7-4.116l2.51-2.515A6.285,6.285,0,0,0,31,14.094V12.3H51.487v2.289a5.656,5.656,0,0,0,.2,1.549,6.236,6.236,0,0,0,1.359,2.588,5.871,5.871,0,0,1,1.445,3.842Zm0,0" fill="#fedfc5"/>
        <path id="Trazado_181326" data-name="Trazado 181326" d="M54.489,22.571V49.083a3,3,0,0,1-3,3.006c-.045,0-.093,0-.141,0a2.97,2.97,0,0,1-1.612-.564l.051-25.548a3.917,3.917,0,0,0-.1-.709,11.548,11.548,0,0,0-11.552-9.319H30.716A6.251,6.251,0,0,0,31,14.094V12.3H51.487v2.289a5.656,5.656,0,0,0,.2,1.549,6.236,6.236,0,0,0,1.359,2.588,5.871,5.871,0,0,1,1.445,3.842Zm0,0" fill="#fecbaa"/>
        <path id="Trazado_181327" data-name="Trazado 181327" d="M52.818,12.3H29.56a1.388,1.388,0,0,1-1.387-1.388V2.633A1.388,1.388,0,0,1,29.56,1.245H52.818a1.388,1.388,0,0,1,1.387,1.388v8.283A1.388,1.388,0,0,1,52.818,12.3Zm0,0" fill="#00bab5"/>
        <path id="Trazado_181328" data-name="Trazado 181328" d="M34.923,74.356l-.25,1.22.241-1.221a1.245,1.245,0,1,0-.481,2.443l.023,0a1.269,1.269,0,0,0,.235.023,1.246,1.246,0,0,0,.232-2.469Zm0,0"/>
        <path id="Trazado_181329" data-name="Trazado 181329" d="M44.443,74.756,44.567,76l-.128-1.238a1.245,1.245,0,0,0,.126,2.484c.043,0,.086,0,.129-.006l.034,0a1.245,1.245,0,0,0-.285-2.474Zm0,0"/>
        <path id="Trazado_181330" data-name="Trazado 181330" d="M39.676,74.913h-.018A1.238,1.238,0,0,0,38.368,76.1a1.252,1.252,0,0,0,1.2,1.3h.058a1.245,1.245,0,0,0,.055-2.489Zm0,0"/>
        <path id="Trazado_181331" data-name="Trazado 181331" d="M30.324,73.091l-.016-.006a1.238,1.238,0,0,0-1.585.754,1.249,1.249,0,1,0,1.6-.748Zm0,0"/>
        <path id="Trazado_181332" data-name="Trazado 181332" d="M49.142,73.885l.307,1.207-.311-1.206a1.245,1.245,0,1,0,.621,2.411l.033-.008a1.245,1.245,0,0,0-.65-2.4Zm0,0"/>
        <path id="Trazado_181333" data-name="Trazado 181333" d="M53.643,72.315l.494,1.143-.5-1.141a1.245,1.245,0,1,0,.994,2.283l.03-.014a1.245,1.245,0,0,0-1.021-2.271Zm0,0"/>
        <path id="Trazado_181334" data-name="Trazado 181334" d="M25.568,15.556a1.246,1.246,0,1,0-.582-2.345l-.015.008a1.243,1.243,0,0,0,.6,2.337Zm0,0"/>
        <path id="Trazado_181335" data-name="Trazado 181335" d="M11.165,29.463a1.245,1.245,0,0,0,1.682-.525l.022-.043a1.245,1.245,0,1,0-1.7.568Zm0,0"/>
        <path id="Trazado_181336" data-name="Trazado 181336" d="M9.412,34.147a1.243,1.243,0,0,0,1.578-.78l.016-.049a1.246,1.246,0,1,0-1.595.829Zm0,0"/>
        <path id="Trazado_181337" data-name="Trazado 181337" d="M13.622,25.107a1.244,1.244,0,0,0,1.739-.274l.016-.022a1.245,1.245,0,0,0-2.026-1.448l1,.738-1.007-.733a1.245,1.245,0,0,0,.274,1.739Zm0,0"/>
        <path id="Trazado_181338" data-name="Trazado 181338" d="M21.341,18.245a1.25,1.25,0,1,0-.721-2.263L20.589,16a1.246,1.246,0,0,0,.752,2.24Zm0,0"/>
        <path id="Trazado_181339" data-name="Trazado 181339" d="M8.3,53.03a1.245,1.245,0,1,0-.016-.054l.016.054Zm0,0"/>
        <path id="Trazado_181340" data-name="Trazado 181340" d="M17.58,21.526a1.249,1.249,0,1,0-.87-2.135l-.021.021a1.244,1.244,0,0,0,.89,2.114Zm0,0"/>
        <path id="Trazado_181341" data-name="Trazado 181341" d="M9.677,47.6a1.245,1.245,0,0,0-2.471.308l.007.05A1.245,1.245,0,0,0,9.677,47.6Zm0,0"/>
        <path id="Trazado_181342" data-name="Trazado 181342" d="M8.113,44.035H8.15a1.245,1.245,0,0,0,1.244-1.209v-.053a1.245,1.245,0,1,0-1.283,1.261Zm0,0"/>
        <path id="Trazado_181343" data-name="Trazado 181343" d="M8.386,39.042a1.285,1.285,0,0,0,.221.019,1.246,1.246,0,0,0,1.224-1.026c0-.018.006-.036.008-.054a1.245,1.245,0,1,0-1.454,1.061Zm0,0"/>
        <path id="Trazado_181344" data-name="Trazado 181344" d="M67.12,25.5a1.245,1.245,0,0,0,2.05-1.414l-1.035.693,1.031-.7a1.245,1.245,0,0,0-2.062,1.4Zm0,0"/>
        <path id="Trazado_181345" data-name="Trazado 181345" d="M73.479,38.029a1.245,1.245,0,0,0-1.1,1.377l.006.054a1.246,1.246,0,0,0,1.231,1.069,1.272,1.272,0,0,0,.178-.012,1.254,1.254,0,0,0-.318-2.487Zm0,0"/>
        <path id="Trazado_181346" data-name="Trazado 181346" d="M71.378,34.516l.005.016a1.245,1.245,0,0,0,1.194.894,1.226,1.226,0,0,0,.351-.051,1.245,1.245,0,0,0,.844-1.546l-.005-.016a1.245,1.245,0,1,0-2.389.7Zm0,0"/>
        <path id="Trazado_181347" data-name="Trazado 181347" d="M69.619,29.86a1.252,1.252,0,0,0,1.123.7,1.244,1.244,0,0,0,1.115-1.791l-1.128.526,1.127-.529A1.245,1.245,0,0,0,69.6,29.823Zm0,0"/>
        <path id="Trazado_181348" data-name="Trazado 181348" d="M63.984,21.611a1.254,1.254,0,1,0-.038-.04Zm0,0"/>
        <path id="Trazado_181349" data-name="Trazado 181349" d="M73.883,43.228a1.253,1.253,0,0,0-.106,2.5l.071,0a1.245,1.245,0,0,0,1.242-1.176l0-.051A1.243,1.243,0,0,0,73.883,43.228Zm0,0"/>
        <path id="Trazado_181350" data-name="Trazado 181350" d="M56.022,15.5l.03.016A1.24,1.24,0,0,0,57.729,15a1.249,1.249,0,0,0-.506-1.685l-.6,1.089.6-1.092a1.245,1.245,0,1,0-1.2,2.184Zm0,0"/>
        <path id="Trazado_181351" data-name="Trazado 181351" d="M60.233,18.228l.019.015a1.245,1.245,0,0,0,1.505-1.984l-.008-.006a1.245,1.245,0,1,0-1.516,1.975Zm0,0"/>
        <path id="Trazado_181352" data-name="Trazado 181352" d="M84.232,62.078l-5.845-5.855a2.629,2.629,0,0,0-3.723,0l-.136.136-.384-.384a5.026,5.026,0,0,1-1.09-1.631,1.213,1.213,0,0,0-.089-.231,5.035,5.035,0,0,1-.29-1.691V50.765a1.254,1.254,0,1,0-.008-2.213A7.02,7.02,0,0,0,70.61,43.87l-5.67-5.68a6.728,6.728,0,0,0-8.6-.772l-.6-.605V22.571a7.07,7.07,0,0,0-1.754-4.663,5.025,5.025,0,0,1-1.248-3.316V13.549h.086a2.635,2.635,0,0,0,2.632-2.633V2.633A2.636,2.636,0,0,0,52.818,0H29.56a2.635,2.635,0,0,0-2.632,2.633v8.283a2.635,2.635,0,0,0,2.632,2.633h.192v.546a5,5,0,0,1-1.469,3.553l-2.51,2.515a7.025,7.025,0,0,0-2.065,5v8.033a6.714,6.714,0,0,0,.723,3.035,6.686,6.686,0,0,0-4.369,1.964l-5.67,5.68a7.026,7.026,0,0,0-2.065,5v3.556a5,5,0,0,1-1.469,3.553l-.379.38,0,0-.135-.136a2.629,2.629,0,0,0-3.723,0L.768,62.078a2.64,2.64,0,0,0,0,3.724l2,2a1.245,1.245,0,1,0,1.762-1.759l-2-2.005a.144.144,0,0,1,0-.2l5.846-5.855a.14.14,0,0,1,.2,0L9.591,59h0L23.467,72.9l1.554,1.558a.144.144,0,0,1,0,.2l-5.845,5.855a.14.14,0,0,1-.2,0L8.058,69.578a1.245,1.245,0,1,0-1.763,1.759l10.921,10.94a2.629,2.629,0,0,0,3.723,0l5.845-5.855a2.639,2.639,0,0,0,0-3.723l-.064-.064.737-.739a5,5,0,0,1,3.221-1.46,7.045,7.045,0,0,0,4.534-2.056L40.582,63a4.263,4.263,0,0,0,3.082-3.248,4.245,4.245,0,0,0,6.067-3.842V52.953a4.244,4.244,0,0,0,6-3.87v-8.74l3.83,3.849a1.245,1.245,0,0,0,1.765-1.757l-3.193-3.209a4.241,4.241,0,0,1,5.041.724l5.67,5.68a4.552,4.552,0,0,1,1.338,3.236v3.556a7.47,7.47,0,0,0,2.2,5.313l.387.387L70.962,59.93,60.039,70.873l-.609-.61-.019-.018-.107-.108a7.5,7.5,0,0,0-4.822-2.185,4.566,4.566,0,0,1-2.936-1.333l-4.091-4.069A1.245,1.245,0,1,0,45.7,64.314l4.089,4.066a7.046,7.046,0,0,0,4.534,2.056,5.006,5.006,0,0,1,3.22,1.46l.06.06a1.2,1.2,0,0,0,.1.1l.574.575-.064.064a2.639,2.639,0,0,0,0,3.723l5.845,5.855a2.63,2.63,0,0,0,3.724,0L84.231,65.8a2.639,2.639,0,0,0,0-3.723ZM73.51,49.7l-.023,0-.227-.046ZM33.45,66.621a4.557,4.557,0,0,1-2.932,1.33A7.5,7.5,0,0,0,25.7,70.136l-.735.736L24.3,70.21l-.025-.025L12.232,58.121l.387-.387a7.47,7.47,0,0,0,2.2-5.313V48.865a4.549,4.549,0,0,1,1.338-3.236l5.67-5.68a4.24,4.24,0,0,1,5.047-.72l-3.2,3.2a1.245,1.245,0,0,0,1.763,1.759l3.82-3.827V55.91a4.246,4.246,0,0,0,6.09,3.831,4.267,4.267,0,0,0,2.11,2.867ZM53.244,49.084a1.757,1.757,0,1,1-3.514,0V35.195a1.245,1.245,0,0,0-2.49,0V55.91a1.755,1.755,0,0,1-3.488.291V35.18a1.258,1.258,0,0,0-2.516.014V55.91a4.269,4.269,0,0,0,.026.467v2.509a1.756,1.756,0,1,1-3.513,0V35.165a1.245,1.245,0,0,0-2.491,0V55.91a1.756,1.756,0,1,1-3.513,0V32.748a1.245,1.245,0,1,0-2.49,0v4.284a1.222,1.222,0,0,0-.3.143A4.261,4.261,0,0,1,26.2,33.191V25.158a4.552,4.552,0,0,1,1.338-3.236l2.51-2.515a7.468,7.468,0,0,0,2.2-5.313v-.546h2.5a1.245,1.245,0,1,0,0-2.49H29.56a.143.143,0,0,1-.142-.143V2.633a.143.143,0,0,1,.142-.143H52.818a.143.143,0,0,1,.143.143v8.283a.142.142,0,0,1-.143.143H40.591a1.245,1.245,0,0,0,0,2.49h9.652v1.043a7.518,7.518,0,0,0,1.865,4.959,4.578,4.578,0,0,1,1.137,3.02ZM82.469,64.042,66.022,80.518a.133.133,0,0,1-.1.042.135.135,0,0,1-.1-.042l-5.845-5.855a.144.144,0,0,1,0-.2l.941-.943h0l9.548-9.564,5.958-5.968a.139.139,0,0,1,.2,0l5.846,5.855A.144.144,0,0,1,82.469,64.042Zm0,0" fill="#12263f"/>
        <path id="Trazado_181353" data-name="Trazado 181353" d="M33.5,5.446a1.328,1.328,0,1,0,1.326,1.328A1.328,1.328,0,0,0,33.5,5.446Zm0,0"/>
        <path id="Trazado_181354" data-name="Trazado 181354" d="M76.932,62.2a1.328,1.328,0,1,0,1.326,1.328A1.329,1.329,0,0,0,76.932,62.2Zm0,0"/>
        <path id="Trazado_181355" data-name="Trazado 181355" d="M20.749,74.907a1.326,1.326,0,1,0-1.326,1.328A1.328,1.328,0,0,0,20.749,74.907Zm0,0"/>
      </g>
    </g>
  </g>
</svg>
