<svg xmlns="http://www.w3.org/2000/svg" width="39" height="39" viewBox="0 0 39 39">
  <g id="Grupo_141259" data-name="Grupo 141259" transform="translate(-630 -1023.5)">
    <circle id="Elipse_1195" data-name="Elipse 1195" cx="19.5" cy="19.5" r="19.5" transform="translate(630 1023.5)" fill="#214be5"/>
    <path id="Trazado_184734" data-name="Trazado 184734" d="M10.791,21H.869V18.852l4.57-4.8q1.689-1.924,1.689-3.057a2.126,2.126,0,0,0-.4-1.4,1.43,1.43,0,0,0-1.162-.479,1.447,1.447,0,0,0-1.221.64,2.629,2.629,0,0,0-.469,1.6H.576A4.67,4.67,0,0,1,1.23,8.935,4.588,4.588,0,0,1,3.047,7.2a5.4,5.4,0,0,1,2.6-.625,5.308,5.308,0,0,1,3.55,1.064A3.8,3.8,0,0,1,10.439,10.7a4.439,4.439,0,0,1-.312,1.636A7.173,7.173,0,0,1,9.155,14a24.477,24.477,0,0,1-2.124,2.339L5.2,18.461h5.6Z" transform="translate(643.65 1031.3)" fill="#fff"/>
  </g>
</svg>
