<svg xmlns="http://www.w3.org/2000/svg" xmlns:xlink="http://www.w3.org/1999/xlink" width="85" height="85" viewBox="0 0 85 85">
  <defs>
    <clipPath id="clip-path">
      <rect id="Rectángulo_23154" data-name="Rectángulo 23154" width="85" height="85" transform="translate(915 2365)" fill="#fff" stroke="#707070" stroke-width="1"/>
    </clipPath>
  </defs>
  <g id="Enmascarar_grupo_97" data-name="Enmascarar grupo 97" transform="translate(-915 -2365)" clip-path="url(#clip-path)">
    <g id="question_1_" data-name="question (1)" transform="translate(915 2365)">
      <path id="Trazado_181372" data-name="Trazado 181372" d="M77.865,1.245H56.014a4.192,4.192,0,0,0-4.192,4.192V27.288a4.192,4.192,0,0,0,4.192,4.192h3.921A2.067,2.067,0,0,1,62,33.547v3.535a.78.78,0,0,0,1.4.478l4.12-5.31a1.991,1.991,0,0,1,1.573-.77h8.775a4.192,4.192,0,0,0,4.192-4.192V5.437A4.192,4.192,0,0,0,77.865,1.245Z" fill="#ffd400"/>
      <path id="Trazado_181373" data-name="Trazado 181373" d="M77.865,1.245H73.337a4.192,4.192,0,0,1,4.192,4.192V27.288a4.192,4.192,0,0,1-4.192,4.192h4.529a4.192,4.192,0,0,0,4.192-4.192V5.437A4.192,4.192,0,0,0,77.865,1.245Z" fill="#ffc300"/>
      <path id="Trazado_181374" data-name="Trazado 181374" d="M50.745,83.755H6.6l.607-8.337a11,11,0,0,1,9.268-10.064l3.5-.548A3.648,3.648,0,0,0,23.06,61.2V48.369H36.176V61.2a3.649,3.649,0,0,0,3.086,3.605l3.5.548a10.993,10.993,0,0,1,9.266,10.064l.47,6.455a1.755,1.755,0,0,1-1.75,1.882Z" fill="#faa68e"/>
      <path id="Trazado_181375" data-name="Trazado 181375" d="M20.045,72.764a1.325,1.325,0,0,1,1.282-.992h5.51a5.4,5.4,0,0,0,5.4-5.4V64.1a.963.963,0,0,1,.963-.963h3.529a3.634,3.634,0,0,1-.557-1.933V57.383H24.591a.765.765,0,0,1-.627-1.2l2.322-3.318a2.82,2.82,0,0,0-.65-3.889l-.059-.043a2.912,2.912,0,0,0-2.515-.446V61.2a3.648,3.648,0,0,1-3.086,3.605l-3.5.548a10.975,10.975,0,0,0-6.063,3.075L6.67,82.839l-.067.916H17.188Z" fill="#e09380"/>
      <path id="Trazado_181376" data-name="Trazado 181376" d="M50.745,83.755H6.6l.607-8.337a11,11,0,0,1,9.268-10.064l3.5-.548a3.759,3.759,0,0,0,.715-.187,12.211,12.211,0,0,0,17.759-.038,3.658,3.658,0,0,0,.812.225l3.5.548a10.993,10.993,0,0,1,9.266,10.064l.47,6.455a1.756,1.756,0,0,1-1.75,1.882Z" fill="#00bab5"/>
      <path id="Trazado_181377" data-name="Trazado 181377" d="M21.327,71.772h5.51A5.406,5.406,0,0,0,31.923,68.2a12.445,12.445,0,0,1-2.371.23,12.036,12.036,0,0,1-8.862-3.81c-2.112.783-6.5.052-10.274,3.81L6.67,82.839l-.067.916H17.188l2.857-10.991a1.325,1.325,0,0,1,1.282-.992Z" fill="#03a8a4"/>
      <path id="Trazado_181378" data-name="Trazado 181378" d="M52.5,81.872l-.47-6.455a10.97,10.97,0,0,0-2.877-6.649c-3.771-4.095-8.453-3.4-10.523-4.122l-.024-.009c-.051-.018-.1-.037-.152-.057A11.574,11.574,0,0,1,37.26,65.7l.952.149a10.993,10.993,0,0,1,9.266,10.064l.47,6.455a1.748,1.748,0,0,1-.529,1.384h3.325A1.755,1.755,0,0,0,52.5,81.872Z" fill="#03a8a4"/>
      <path id="Trazado_181379" data-name="Trazado 181379" d="M31.966,6.789H26.4a17.4,17.4,0,0,0-15.126,8.79A9.493,9.493,0,0,0,4.2,25.032l.481,16.626h48.7V28.206A21.416,21.416,0,0,0,31.966,6.789Z" fill="#655e67"/>
      <g id="Grupo_80764" data-name="Grupo 80764">
        <path id="Trazado_181380" data-name="Trazado 181380" d="M15.25,44.458H6.672a3.73,3.73,0,0,1-3.73-3.73V39.559a3.73,3.73,0,0,1,3.73-3.73H15.25Z" fill="#faa68e"/>
        <path id="Trazado_181381" data-name="Trazado 181381" d="M42.858,44.458h8.578a3.73,3.73,0,0,0,3.73-3.73V39.559a3.73,3.73,0,0,0-3.73-3.73H42.858Z" fill="#faa68e"/>
        <path id="Trazado_181382" data-name="Trazado 181382" d="M49.2,38.719c0,12.292-12.4,19.349-19.647,19.349S9.905,51.012,9.905,38.719c0-7.852,2.183-13.795,5.714-17.78a2,2,0,0,1,2.988.01,26.633,26.633,0,0,0,2.583,2.58A6.238,6.238,0,0,0,25,25.337a3.035,3.035,0,0,0,2.467-1.27,1.571,1.571,0,0,1,1.969-.508,40.272,40.272,0,0,0,14.685,3.732,4.6,4.6,0,0,1,4.228,3.536A34.926,34.926,0,0,1,49.2,38.719Z" fill="#faa68e"/>
      </g>
      <path id="Trazado_181383" data-name="Trazado 181383" d="M48.353,30.827a4.583,4.583,0,0,0-3.022-3.3,36.427,36.427,0,0,1,.681,7.212c0,12.552-12.663,19.758-20.062,19.758-3.441,0-8.021-1.56-11.937-4.491,4.264,5.221,10.94,8.066,15.538,8.066C36.8,58.068,49.2,51.012,49.2,38.72a34.914,34.914,0,0,0-.846-7.893Z" fill="#e09380"/>
      <path id="Trazado_181384" data-name="Trazado 181384" d="M13.638,83.755l3.582-13.78a1.336,1.336,0,0,1,1.293-1h5.5a5.4,5.4,0,0,0,5.4-5.4V61.3a.963.963,0,0,1,.963-.963h5.372a2.923,2.923,0,0,0,2.949-2.85,2.875,2.875,0,0,0-2.875-2.9H21.768a.765.765,0,0,1-.627-1.2l2.322-3.318a2.82,2.82,0,0,0-.651-3.889l-.059-.043a2.9,2.9,0,0,0-4.069.642c-1.659,2.3-8.95,12.4-9.671,13.394L3.271,82.26a1.194,1.194,0,0,0,1.156,1.494h9.212Z" fill="#f9b1a0"/>
      <g id="Grupo_80765" data-name="Grupo 80765">
        <path id="Trazado_181385" data-name="Trazado 181385" d="M66.94,6.083a5.78,5.78,0,0,0-5.774,5.774,1.245,1.245,0,0,0,2.49,0A3.283,3.283,0,1,1,66.94,15.14h-.79A1.245,1.245,0,0,0,64.9,16.385v4.26a1.245,1.245,0,1,0,2.49,0V17.613a5.774,5.774,0,0,0-.455-11.53Z" fill="#12263f"/>
        <path id="Trazado_181386" data-name="Trazado 181386" d="M66.149,23.787A1.245,1.245,0,0,0,64.9,25.032V25.4a1.245,1.245,0,0,0,2.49,0v-.365A1.245,1.245,0,0,0,66.149,23.787Z" fill="#12263f"/>
        <path id="Trazado_181387" data-name="Trazado 181387" d="M77.864,0H56.014a5.443,5.443,0,0,0-5.437,5.437v9.852a22.653,22.653,0,0,0-18.61-9.746H26.4A18.7,18.7,0,0,0,10.455,14.52a10.68,10.68,0,0,0-7.5,10.548l.314,10.865A4.961,4.961,0,0,0,1.7,39.56v1.169A4.98,4.98,0,0,0,6.672,45.7H10.01A19.934,19.934,0,0,0,13.7,51.551L8,59.439a1.248,1.248,0,0,0-.2.415L2.066,81.947A2.439,2.439,0,0,0,4.426,85H50.744a3,3,0,0,0,2.993-3.218l-.471-6.454a12.13,12.13,0,0,0-1.289-4.646,1.245,1.245,0,1,0-2.22,1.129,9.652,9.652,0,0,1,1.025,3.7l.471,6.453a.511.511,0,0,1-.51.548H45V77.422a1.245,1.245,0,1,0-2.49,0V82.51H15.248l3.177-12.221a.091.091,0,0,1,.088-.068h5.5a6.608,6.608,0,0,0,3.094-.766,13.693,13.693,0,0,0,2.442.22,13.359,13.359,0,0,0,9.264-3.684h0c.243.05.059.013,3.747.594a9.67,9.67,0,0,1,3.765,1.43,1.245,1.245,0,1,0,1.348-2.094,12.144,12.144,0,0,0-4.728-1.8,34.907,34.907,0,0,1-4-.684,2.387,2.387,0,0,1-1.529-2.2,4.1,4.1,0,0,0,2.318-5.072A22.066,22.066,0,0,0,49.093,45.7h2.344a4.979,4.979,0,0,0,4.974-4.974V39.56a4.968,4.968,0,0,0-1.781-3.812v-3.2a5.433,5.433,0,0,0,1.385.18h3.921a.823.823,0,0,1,.822.822v3.536A2,2,0,0,0,62.126,39a2.064,2.064,0,0,0,.668.112,2,2,0,0,0,1.586-.788l4.12-5.308a.744.744,0,0,1,.591-.29h8.776A5.443,5.443,0,0,0,83.3,27.288V5.437A5.444,5.444,0,0,0,77.864,0ZM4.187,40.729V39.56a2.488,2.488,0,0,1,2.485-2.485h2.02A20.437,20.437,0,0,0,9.2,43.212H6.672a2.487,2.487,0,0,1-2.485-2.484ZM29.594,67.182a6.608,6.608,0,0,0,1.07-3.611v-1.99h4.283a4.868,4.868,0,0,0,1.5,3.174A10.914,10.914,0,0,1,29.594,67.182Zm6.16-8.091H30.382A2.211,2.211,0,0,0,28.174,61.3v2.272a4.164,4.164,0,0,1-4.159,4.159h-5.5a2.582,2.582,0,0,0-2.5,1.932L12.675,82.51H4.493l5.667-21.8C10.6,60.1,18.675,48.914,19.694,47.5a1.639,1.639,0,0,1,1.076-.664,1.666,1.666,0,0,1,1.25.3l.061.044a1.549,1.549,0,0,1,.642,1.228,1.53,1.53,0,0,1-.281.939l-2.321,3.316a2.01,2.01,0,0,0,1.646,3.165H35.827a1.63,1.63,0,0,1,1.63,1.646A1.672,1.672,0,0,1,35.754,59.091ZM53.92,40.729a2.486,2.486,0,0,1-2.484,2.484H49.9a18.715,18.715,0,0,0,.544-4.492c0-.555-.012-1.1-.033-1.645h1.026A2.487,2.487,0,0,1,53.92,39.56Zm-2.484-6.144h-1.2a33.262,33.262,0,0,0-.666-4.039,5.872,5.872,0,0,0-5.371-4.5,39.122,39.122,0,0,1-14.229-3.617,2.832,2.832,0,0,0-3.528.941,1.778,1.778,0,0,1-1.42.72A5,5,0,0,1,22,22.585a25.6,25.6,0,0,1-2.462-2.46,3.251,3.251,0,0,0-2.432-1.1h0a3.234,3.234,0,0,0-2.418,1.087A21.214,21.214,0,0,0,11.6,24.727a1.245,1.245,0,1,0,2.229,1.111,18.721,18.721,0,0,1,2.724-4.072.734.734,0,0,1,.555-.249.758.758,0,0,1,.57.258,28.056,28.056,0,0,0,2.7,2.7,7.486,7.486,0,0,0,4.609,2.108,4.264,4.264,0,0,0,3.515-1.82.335.335,0,0,1,.409-.076,41.64,41.64,0,0,0,15.143,3.847,3.368,3.368,0,0,1,3.085,2.574,31.573,31.573,0,0,1,.712,4.814c.067.9.1,1.839.1,2.8a16.082,16.082,0,0,1-.895,5.326,19.433,19.433,0,0,1-8.787,10.1,4.091,4.091,0,0,0-2.444-.8H22.689l1.792-2.561a4.065,4.065,0,0,0-.937-5.612l-.061-.044a4.15,4.15,0,0,0-5.81.921L15.2,49.48a17.129,17.129,0,0,1-3.151-5.434,18.893,18.893,0,0,1-.793-8.126A31.432,31.432,0,0,1,11.989,31a1.245,1.245,0,1,0-2.424-.572,33.169,33.169,0,0,0-.695,4.156h-2.2a4.974,4.974,0,0,0-.946.091L5.446,25a8.2,8.2,0,0,1,6.145-8.213,1.246,1.246,0,0,0,.766-.587A16.2,16.2,0,0,1,26.4,8.033h5.566A20.2,20.2,0,0,1,52.139,28.206v6.429a5,5,0,0,0-.7-.05Zm29.376-7.3a2.95,2.95,0,0,1-2.947,2.947H69.091a3.219,3.219,0,0,0-2.557,1.252l-3.286,4.235V33.547a3.316,3.316,0,0,0-3.312-3.312H56.014a2.91,2.91,0,0,1-1.385-.346V28.206a22.548,22.548,0,0,0-1.562-8.269V5.437A2.95,2.95,0,0,1,56.014,2.49H77.864a2.951,2.951,0,0,1,2.949,2.947Z" fill="#12263f"/>
        <path id="Trazado_181388" data-name="Trazado 181388" d="M23.26,39.953A1.245,1.245,0,0,0,24.5,38.708v-1.39a1.245,1.245,0,1,0-2.49,0v1.39A1.245,1.245,0,0,0,23.26,39.953Z" fill="#12263f"/>
        <path id="Trazado_181389" data-name="Trazado 181389" d="M41.866,39.953a1.245,1.245,0,0,0,1.245-1.245v-1.39a1.245,1.245,0,1,0-2.49,0v1.39A1.245,1.245,0,0,0,41.866,39.953Z" fill="#12263f"/>
        <path id="Trazado_181390" data-name="Trazado 181390" d="M30.415,46.079a4.539,4.539,0,0,1,4.976,0,1.245,1.245,0,1,0,1.255-2.151,7.074,7.074,0,0,0-7.486,0,1.245,1.245,0,1,0,1.255,2.151Z" fill="#12263f"/>
      </g>
    </g>
  </g>
</svg>
