<svg xmlns="http://www.w3.org/2000/svg" xmlns:xlink="http://www.w3.org/1999/xlink" width="85" height="85" viewBox="0 0 85 85">
  <defs>
    <clipPath id="clip-path">
      <rect id="Rectángulo_23160" data-name="Rectángulo 23160" width="85" height="85" transform="translate(758 1979)" fill="#fff" stroke="#707070" stroke-width="1"/>
    </clipPath>
  </defs>
  <g id="Grupo_82169" data-name="Grupo 82169" transform="translate(-443 -1979)">
    <g id="Enmascarar_grupo_94" data-name="Enmascarar grupo 94" transform="translate(-315)" clip-path="url(#clip-path)">
      <g id="ambiguity" transform="translate(758 1979)">
        <path id="Trazado_181272" data-name="Trazado 181272" d="M42.5,73.671A.675.675,0,0,1,41.825,73V12a.675.675,0,1,1,1.349,0V73A.675.675,0,0,1,42.5,73.671Zm0,0" fill="#12263f"/>
        <path id="Trazado_181273" data-name="Trazado 181273" d="M73,43.175H12a.675.675,0,1,1,0-1.349H73a.675.675,0,0,1,0,1.349Zm0,0" fill="#690589"/>
        <path id="Trazado_181274" data-name="Trazado 181274" d="M73,73.671H12A.674.674,0,0,1,11.329,73V12A.675.675,0,0,1,12,11.329H73a.675.675,0,0,1,.675.675V73A.674.674,0,0,1,73,73.671ZM12.678,72.322H72.322V12.678H12.678Zm0,0" fill="#12263f"/>
        <path id="Trazado_181275" data-name="Trazado 181275" d="M84.325,73A11.329,11.329,0,1,1,73,61.668,11.329,11.329,0,0,1,84.325,73Zm0,0" fill="#00bab5"/>
        <path id="Trazado_181276" data-name="Trazado 181276" d="M23.333,12A11.329,11.329,0,1,1,12,.675,11.329,11.329,0,0,1,23.333,12Zm0,0" fill="#00bab5"/>
        <path id="Trazado_181277" data-name="Trazado 181277" d="M53.829,12A11.329,11.329,0,1,1,42.5.675,11.33,11.33,0,0,1,53.829,12Zm0,0" fill="#00bab5"/>
        <path id="Trazado_181278" data-name="Trazado 181278" d="M84.325,12A11.329,11.329,0,1,1,73,.675,11.329,11.329,0,0,1,84.325,12Zm0,0" fill="#00bab5"/>
        <path id="Trazado_181279" data-name="Trazado 181279" d="M23.333,42.5A11.329,11.329,0,1,1,12,31.171,11.329,11.329,0,0,1,23.333,42.5Zm0,0" fill="#00bab5"/>
        <path id="Trazado_181280" data-name="Trazado 181280" d="M53.829,42.5A11.329,11.329,0,1,1,42.5,31.171,11.33,11.33,0,0,1,53.829,42.5Zm0,0" fill="#00bab5"/>
        <path id="Trazado_181281" data-name="Trazado 181281" d="M84.325,42.5A11.329,11.329,0,1,1,73,31.171,11.329,11.329,0,0,1,84.325,42.5Zm0,0" fill="#00bab5"/>
        <path id="Trazado_181282" data-name="Trazado 181282" d="M23.333,73A11.329,11.329,0,1,1,12,61.668,11.329,11.329,0,0,1,23.333,73Zm0,0" fill="#00bab5"/>
        <path id="Trazado_181283" data-name="Trazado 181283" d="M53.829,73A11.329,11.329,0,1,1,42.5,61.668,11.329,11.329,0,0,1,53.829,73Zm0,0" fill="#00bab5"/>
        <path id="Trazado_181284" data-name="Trazado 181284" d="M73,61.667a11.422,11.422,0,0,0-1.634.119,11.328,11.328,0,0,1,0,22.42A11.329,11.329,0,1,0,73,61.667Zm0,0" fill="#019d98"/>
        <path id="Trazado_181285" data-name="Trazado 181285" d="M73,31.171a11.423,11.423,0,0,0-1.634.119,11.329,11.329,0,0,1,0,22.421A11.329,11.329,0,1,0,73,31.171Zm0,0" fill="#019d98"/>
        <path id="Trazado_181286" data-name="Trazado 181286" d="M73,.675a11.328,11.328,0,0,0-1.634.119,11.328,11.328,0,0,1,0,22.42A11.329,11.329,0,1,0,73,.675Zm0,0" fill="#019d98"/>
        <path id="Trazado_181287" data-name="Trazado 181287" d="M12,23.333a11.422,11.422,0,0,0,1.634-.119,11.329,11.329,0,0,1,0-22.421A11.329,11.329,0,1,0,12,23.333Zm0,0" fill="#22d2cd"/>
        <path id="Trazado_181288" data-name="Trazado 181288" d="M12,53.829a11.422,11.422,0,0,0,1.634-.119,11.329,11.329,0,0,1,0-22.421A11.329,11.329,0,1,0,12,53.829Zm0,0" fill="#22d2cd"/>
        <path id="Trazado_181289" data-name="Trazado 181289" d="M12,84.325a11.328,11.328,0,0,0,1.634-.119,11.328,11.328,0,0,1,0-22.42A11.329,11.329,0,1,0,12,84.325Zm0,0" fill="#22d2cd"/>
        <g id="Grupo_80748" data-name="Grupo 80748">
          <path id="Trazado_181290" data-name="Trazado 181290" d="M12,24.008a12,12,0,1,1,12-12,12.018,12.018,0,0,1-12,12ZM12,1.349A10.655,10.655,0,1,0,22.658,12,10.667,10.667,0,0,0,12,1.349Zm0,0" fill="#12263f"/>
          <path id="Trazado_181291" data-name="Trazado 181291" d="M42.5,24.008a12,12,0,1,1,12-12,12.018,12.018,0,0,1-12,12Zm0-22.659A10.655,10.655,0,1,0,53.155,12,10.667,10.667,0,0,0,42.5,1.349Zm0,0" fill="#12263f"/>
          <path id="Trazado_181292" data-name="Trazado 181292" d="M73,24.008A12,12,0,1,1,85,12,12.017,12.017,0,0,1,73,24.008ZM73,1.349A10.655,10.655,0,1,0,83.651,12,10.666,10.666,0,0,0,73,1.349Zm0,0" fill="#12263f"/>
          <path id="Trazado_181293" data-name="Trazado 181293" d="M12,54.5a12,12,0,1,1,12-12A12.018,12.018,0,0,1,12,54.5Zm0-22.659A10.655,10.655,0,1,0,22.659,42.5,10.667,10.667,0,0,0,12,31.845Zm0,0" fill="#12263f"/>
          <path id="Trazado_181294" data-name="Trazado 181294" d="M4.109,38.91a.674.674,0,0,1-.576-1.025,13.152,13.152,0,0,1,3.532-3.826.674.674,0,0,1,.793,1.092,11.8,11.8,0,0,0-3.171,3.436.675.675,0,0,1-.577.323Zm0,0" fill="#12263f"/>
          <path id="Trazado_181295" data-name="Trazado 181295" d="M42.5,54.5a12,12,0,1,1,12-12,12.018,12.018,0,0,1-12,12Zm0-22.659A10.655,10.655,0,1,0,53.155,42.5,10.667,10.667,0,0,0,42.5,31.845Zm0,0" fill="#12263f"/>
          <path id="Trazado_181296" data-name="Trazado 181296" d="M73,54.5a12,12,0,1,1,12-12A12.017,12.017,0,0,1,73,54.5Zm0-22.659A10.655,10.655,0,1,0,83.651,42.5,10.666,10.666,0,0,0,73,31.845Zm0,0" fill="#12263f"/>
          <path id="Trazado_181297" data-name="Trazado 181297" d="M12,85a12,12,0,1,1,12-12A12.018,12.018,0,0,1,12,85Zm0-22.659A10.655,10.655,0,1,0,22.658,73,10.667,10.667,0,0,0,12,62.341Zm0,0" fill="#12263f"/>
          <path id="Trazado_181298" data-name="Trazado 181298" d="M42.5,85a12,12,0,1,1,12-12,12.018,12.018,0,0,1-12,12Zm0-22.659A10.655,10.655,0,1,0,53.155,73,10.667,10.667,0,0,0,42.5,62.341Zm0,0" fill="#12263f"/>
          <path id="Trazado_181299" data-name="Trazado 181299" d="M73,85A12,12,0,1,1,85,73,12.017,12.017,0,0,1,73,85Zm0-22.659A10.655,10.655,0,1,0,83.651,73,10.666,10.666,0,0,0,73,62.341Zm0,0" fill="#12263f"/>
        </g>
        <path id="Trazado_181300" data-name="Trazado 181300" d="M17.478,11.671,14.741,8.164,12,4.657,9.267,8.164,6.529,11.671H9.9V18.9h4.208v-7.23Zm0,0" fill="#f4efed"/>
        <path id="Trazado_181301" data-name="Trazado 181301" d="M14.108,19.575H9.9a.674.674,0,0,1-.675-.675V12.346h-2.7A.675.675,0,0,1,6,11.256l5.475-7.014a.7.7,0,0,1,1.063,0l5.475,7.013a.675.675,0,0,1-.532,1.09h-2.7V18.9a.674.674,0,0,1-.675.675Zm-3.534-1.349h2.859V11.671A.675.675,0,0,1,14.108,11H16.1L12,5.753,7.911,11H9.9a.675.675,0,0,1,.675.675Zm0,0" fill="#12263f"/>
        <path id="Trazado_181302" data-name="Trazado 181302" d="M42.392,6.3,38.885,9.042l-3.507,2.737,3.507,2.737,3.507,2.737v-3.37h7.23V9.675h-7.23Zm0,0" fill="#ffd400"/>
        <path id="Trazado_181303" data-name="Trazado 181303" d="M42.392,17.928a.675.675,0,0,1-.415-.143L34.963,12.31a.674.674,0,0,1,0-1.063l7.014-5.475a.675.675,0,0,1,1.09.532V9h6.555a.674.674,0,0,1,.675.675v4.208a.675.675,0,0,1-.675.675H43.067v2.7a.675.675,0,0,1-.675.675Zm-5.917-6.149,5.243,4.092V13.883a.675.675,0,0,1,.675-.675h6.556v-2.86H42.392a.675.675,0,0,1-.675-.675V7.686Zm0,0" fill="#12263f"/>
        <path id="Trazado_181304" data-name="Trazado 181304" d="M73.1,17.254l3.507-2.737,3.507-2.737L76.612,9.042,73.1,6.3V9.675h-7.23v4.208H73.1Zm0,0" fill="#ffd400"/>
        <path id="Trazado_181305" data-name="Trazado 181305" d="M73.1,17.928a.675.675,0,0,1-.675-.675v-2.7H65.875a.675.675,0,0,1-.675-.675V9.675A.674.674,0,0,1,65.875,9H72.43V6.3a.675.675,0,0,1,1.09-.532l7.014,5.475a.674.674,0,0,1,0,1.063l-7.014,5.475a.671.671,0,0,1-.415.143Zm-6.555-4.72H73.1a.675.675,0,0,1,.675.675v1.988l5.243-4.092L73.779,7.686V9.675a.675.675,0,0,1-.675.675H66.549Zm0,0" fill="#12263f"/>
        <path id="Trazado_181306" data-name="Trazado 181306" d="M72.888,37.025,65.875,42.5l3.507,2.737,3.507,2.738V44.6h7.23V40.4h-7.23Zm0,0" fill="#ffd400"/>
        <path id="Trazado_181307" data-name="Trazado 181307" d="M72.889,48.649a.672.672,0,0,1-.416-.143L65.46,43.032a.674.674,0,0,1,0-1.063l7.013-5.475a.674.674,0,0,1,1.09.532v2.7h6.556a.675.675,0,0,1,.675.675V44.6a.675.675,0,0,1-.675.675H73.563v2.7a.673.673,0,0,1-.674.674ZM66.971,42.5l5.243,4.092V44.6a.675.675,0,0,1,.675-.675h6.556V41.07H72.888a.675.675,0,0,1-.675-.675V38.407Zm0,0" fill="#12263f"/>
        <path id="Trazado_181308" data-name="Trazado 181308" d="M78.471,72.888l-2.738-3.507L73,65.875l-5.475,7.013h3.37v7.23H75.1v-7.23Zm0,0" fill="#f4efed"/>
        <path id="Trazado_181309" data-name="Trazado 181309" d="M75.1,80.793H70.892a.675.675,0,0,1-.675-.675V73.563h-2.7a.675.675,0,0,1-.532-1.09l5.475-7.014a.7.7,0,0,1,1.063,0L79,72.473a.675.675,0,0,1-.532,1.09h-2.7v6.556a.674.674,0,0,1-.675.675Zm-3.534-1.349h2.86V72.888a.675.675,0,0,1,.675-.675h1.988L73,66.97,68.9,72.214h1.988a.675.675,0,0,1,.675.675v6.556Zm0,0" fill="#12263f"/>
        <path id="Trazado_181310" data-name="Trazado 181310" d="M42.608,78.471l3.507-2.738L49.622,73l-7.013-5.475v3.37h-7.23V75.1h7.23Zm0,0" fill="#ffd400"/>
        <path id="Trazado_181311" data-name="Trazado 181311" d="M42.608,79.146a.673.673,0,0,1-.675-.675v-2.7H35.379A.675.675,0,0,1,34.7,75.1V70.892a.675.675,0,0,1,.675-.675h6.555v-2.7a.675.675,0,0,1,1.09-.532l7.014,5.475a.674.674,0,0,1,0,1.063L43.023,79a.672.672,0,0,1-.415.143Zm-6.556-4.72h6.556a.675.675,0,0,1,.675.675v1.989L48.525,73,43.283,68.9v1.988a.675.675,0,0,1-.675.675H36.052Zm0,0" fill="#12263f"/>
        <path id="Trazado_181312" data-name="Trazado 181312" d="M37.025,42.608l2.737,3.507L42.5,49.622l2.737-3.507,2.737-3.507H44.6v-7.23H40.4v7.23Zm0,0" fill="#ff0092"/>
        <path id="Trazado_181313" data-name="Trazado 181313" d="M42.5,50.3a.674.674,0,0,1-.532-.26l-5.475-7.013a.675.675,0,0,1,.532-1.09h2.7V35.378A.675.675,0,0,1,40.4,34.7H44.6a.675.675,0,0,1,.675.675v6.556h2.7a.675.675,0,0,1,.532,1.09l-5.475,7.013a.674.674,0,0,1-.532.26Zm-4.092-7.013L42.5,48.525l4.092-5.243H44.6a.675.675,0,0,1-.675-.675V36.052H41.07v6.556a.675.675,0,0,1-.675.675Zm0,0" fill="#12263f"/>
        <path id="Trazado_181314" data-name="Trazado 181314" d="M12.112,47.975l3.507-2.738L19.125,42.5l-7.013-5.475V40.4H4.882V44.6h7.23Zm0,0" fill="#ffd400"/>
        <path id="Trazado_181315" data-name="Trazado 181315" d="M12.111,48.649a.673.673,0,0,1-.674-.675v-2.7H4.882a.675.675,0,0,1-.675-.675V40.4a.675.675,0,0,1,.675-.675h6.556v-2.7a.675.675,0,0,1,1.09-.532l7.013,5.475a.674.674,0,0,1,0,1.063l-7.013,5.475a.672.672,0,0,1-.416.143ZM5.556,43.93h6.556a.675.675,0,0,1,.675.675v1.988L18.029,42.5l-5.243-4.092V40.4a.675.675,0,0,1-.675.675H5.556Zm0,0" fill="#12263f"/>
        <path id="Trazado_181316" data-name="Trazado 181316" d="M6.529,73.1l2.738,3.507L12,80.118l2.737-3.507L17.478,73.1h-3.37v-7.23H9.9V73.1Zm0,0" fill="#ff0092"/>
        <path id="Trazado_181317" data-name="Trazado 181317" d="M12,80.793a.676.676,0,0,1-.532-.26L6,73.519a.675.675,0,0,1,.532-1.09h2.7V65.874A.675.675,0,0,1,9.9,65.2h4.209a.675.675,0,0,1,.675.675V72.43h2.7a.675.675,0,0,1,.532,1.09l-5.475,7.014a.676.676,0,0,1-.532.26ZM7.911,73.779,12,79.022,16.1,73.779H14.108a.675.675,0,0,1-.675-.675V66.549H10.574V73.1a.675.675,0,0,1-.675.675Zm0,0" fill="#12263f"/>
      </g>
    </g>
  </g>
</svg>
