<svg xmlns="http://www.w3.org/2000/svg" width="71" height="71" viewBox="0 0 71 71">
  <g id="Grupo_141260" data-name="Grupo 141260" transform="translate(-194 -592)">
    <circle id="Elipse_4789" data-name="Elipse 4789" cx="35.5" cy="35.5" r="35.5" transform="translate(194 592)" fill="#fff"/>
    <g id="nFK1x6" transform="translate(-1133.366 -2611.235)">
      <g id="Grupo_141235" data-name="Grupo 141235" transform="translate(1340.366 3216.236)">
        <path id="Trazado_184722" data-name="Trazado 184722" d="M1345.675,3237.561h1.73a4.814,4.814,0,0,0-.1-.734,2.265,2.265,0,1,1,4.394-.682,6.779,6.779,0,0,1-.166.778c-.036.2-.044.406-.069.647h1.753c0-.359,0-.7,0-1.037a.787.787,0,0,1,.657-.849,2.988,2.988,0,0,1,2.2-.052c.174.084.57-.107.762-.284a.566.566,0,0,0-.009-.848c-.195-.172-.591-.35-.77-.263a2.939,2.939,0,0,1-2.156-.054.807.807,0,0,1-.685-.876c.007-.566,0-1.131,0-1.772h-1.972c-.737,0-.9-.133-1.093-.829a2.762,2.762,0,0,1-.01-2.019c.084-.18-.1-.572-.278-.764a.568.568,0,0,0-.849,0c-.173.193-.358.592-.271.767a2.961,2.961,0,0,1-.061,2.2.772.772,0,0,1-.815.64c-.959,0-1.918.008-2.877,0a.751.751,0,0,1-.827-.818c-.012-.518,0-1.036,0-1.669a5.43,5.43,0,0,0-.754.1,2.226,2.226,0,0,1-2.449-.645,2.118,2.118,0,0,1-.358-2.457,2.153,2.153,0,0,1,2.121-1.3,2.427,2.427,0,0,1,.732.153c.6.205.708.135.708-.508,0-.362-.008-.723,0-1.085a.751.751,0,0,1,.814-.831c.959-.012,1.918-.01,2.877,0a.758.758,0,1,1-.025,1.506c-.7.007-1.407,0-2.158,0,0,.492,0,.944,0,1.4a.808.808,0,0,1-.687.875,2.825,2.825,0,0,1-2.15.039.576.576,0,0,0-.8.307,1.171,1.171,0,0,0,.012.825.58.58,0,0,0,.808.281,2.9,2.9,0,0,1,2.241.074.733.733,0,0,1,.571.771c0,.469,0,.939,0,1.439h1.748a4.792,4.792,0,0,0-.111-.71,2.3,2.3,0,0,1,.816-2.6,2.264,2.264,0,0,1,3.417,2.693,2.936,2.936,0,0,0-.077.635h1.718v-6.022c-.726,0-1.459.015-2.192,0a.718.718,0,0,1-.692-1.065,1.038,1.038,0,0,1,.71-.421c.957-.048,1.917-.025,2.876-.015a.758.758,0,0,1,.84.853c.009,1,0,2.01,0,3.041.9-.382,1.75-.768,2.621-1.108.583-.228,1.188-.4,1.791-.578a.758.758,0,1,1,.393,1.453,20.493,20.493,0,0,0-4.441,1.8.6.6,0,0,0-.373.616c.021,1.414.009,2.828.009,4.349a6.759,6.759,0,0,0,.77-.122,2.233,2.233,0,0,1,2.442.667,2.255,2.255,0,0,1-1.809,3.733,5.942,5.942,0,0,1-.776-.171c-.2-.034-.4-.031-.628-.046,0,.5.011.909,0,1.316a.744.744,0,0,1-.8.8c-.974.013-1.949.008-2.924.005a.75.75,0,0,1-.786-.614,3.029,3.029,0,0,1-.066-2.247c.084-.171-.112-.569-.29-.759a.568.568,0,0,0-.849.017c-.17.2-.346.592-.258.771a2.977,2.977,0,0,1-.069,2.2.77.77,0,0,1-.824.629c-.55,0-1.1.013-1.651-.006a.367.367,0,0,0-.429.31,18.885,18.885,0,0,0-.8,7.124c.1,1.138.334,2.265.525,3.394.093.546-.084.936-.523,1.046s-.8-.153-.937-.693a20.74,20.74,0,0,1,.17-10.851,2.728,2.728,0,0,0,.008-.89c-.064-1.631-.05-3.266-.019-4.9a.69.69,0,0,1,.806-.563.75.75,0,0,1,.659.792c.011,1.037,0,2.075,0,3.113C1345.675,3237.144,1345.675,3237.33,1345.675,3237.561Z" transform="translate(-1340.366 -3220.971)" fill="#214be5"/>
        <path id="Trazado_184723" data-name="Trazado 184723" d="M1390.536,3296.668c.286.522,1.207.767.807,1.68-.645,1.475-.636,1.479-2.256,1.593v3c.927-.076,1.639-.042,2.093,1.06a1.587,1.587,0,0,1-.659,2.139l2.129,2.131c.5-.266.76-1.238,1.68-.791.461.224,1.065.344,1.34.71s.206.969.3,1.538c.185,0,.432-.014.677,0a.747.747,0,0,1,.736.764.736.736,0,0,1-.72.73c-.518.023-1.038.023-1.556,0a.731.731,0,0,1-.734-.765c-.017-.361,0-.723-.014-1.084,0-.093-.065-.242-.129-.26a.4.4,0,0,0-.323.073c-.248.217-.467.466-.707.693a.752.752,0,0,1-1.2.024q-1.565-1.537-3.1-3.1a.741.741,0,0,1,0-1.162c.235-.253.5-.483.724-.742a.4.4,0,0,0,.071-.323c-.018-.065-.166-.127-.258-.131-.345-.016-.692,0-1.037-.009a.753.753,0,0,1-.817-.829q-.014-2.194,0-4.387a.751.751,0,0,1,.825-.82c.346-.01.692.009,1.037-.007.092,0,.24-.069.257-.134a.4.4,0,0,0-.075-.323c-.217-.247-.467-.467-.694-.706a.753.753,0,0,1-.023-1.2q1.538-1.564,3.1-3.1a.744.744,0,0,1,1.163,0c.254.235.484.495.739.728.068.062.219.119.278.085a.4.4,0,0,0,.171-.281c.021-.345,0-.692.009-1.037a.74.74,0,0,1,.78-.816q2.24-.017,4.48,0a.734.734,0,0,1,.772.775c.015.329-.009.661.011.99.007.122.079.334.139.34a.579.579,0,0,0,.39-.139c.228-.192.423-.421.64-.626a.753.753,0,0,1,1.2-.017q1.563,1.539,3.1,3.1a.741.741,0,0,1-.005,1.163c-.2.219-.432.415-.626.64a1.7,1.7,0,0,0-.192.386,1.8,1.8,0,0,0,.44.159c.3.026.6,0,.9.012a.743.743,0,0,1,.8.793q.017,2.216,0,4.434a.749.749,0,0,1-.838.806c-.33.009-.661-.01-.99.009a.388.388,0,0,0-.293.152.381.381,0,0,0,.092.317c.23.257.493.485.727.74a.73.73,0,0,1,0,1.128q-1.551,1.584-3.134,3.135a.742.742,0,0,1-1.163-.017c-.218-.2-.412-.435-.637-.629a1.561,1.561,0,0,0-.387-.183,1.372,1.372,0,0,0-.159.393c-.024.328,0,.66-.013.99a.745.745,0,0,1-.744.757.737.737,0,0,1-.753-.746,12.39,12.39,0,0,1,.017-1.837,1.531,1.531,0,0,1,.489-.72c.108-.113.333-.1.472-.2a1.348,1.348,0,0,1,2.091.406.92.92,0,0,0,.173.156l2.123-2.122c-.594-.553-1.171-1.045-.675-2.167a1.63,1.63,0,0,1,2.059-1.045v-3.05c-.88.059-1.609.06-2.053-1.062a1.556,1.556,0,0,1,.657-2.125l-2.151-2.152a1.611,1.611,0,0,1-2.15.641c-1.075-.463-1.141-1.133-1.037-2.06h-3.059c.111.927.025,1.614-1.065,2.066a1.587,1.587,0,0,1-2.134-.678Z" transform="translate(-1376.232 -3273.499)" fill="#214be5"/>
        <path id="Trazado_184724" data-name="Trazado 184724" d="M1455.055,3278.552c-.362-1.188.221-1.767,1.2-2.107a1.39,1.39,0,0,0,.383-.271.809.809,0,0,1,1-.073c.256.148.516.292.783.442.059-.086.108-.147.147-.214.2-.339.391-.68.61-1.062-.277-.167-.541-.327-.806-.485a.844.844,0,0,1-.425-.914,4.152,4.152,0,0,0,.008-1.123.9.9,0,0,1,.505-1.052c.232-.125.457-.263.718-.414l-.739-1.293c-.286.158-.556.305-.823.456a.831.831,0,0,1-.966-.062,5.528,5.528,0,0,0-1.01-.593.924.924,0,0,1-.655-1.015c.018-.246,0-.494,0-.764h-1.507c0,.264-.013.525,0,.785a.912.912,0,0,1-.635.983,4.146,4.146,0,0,0-.933.537.924.924,0,0,1-1.207.054c-.206-.139-.433-.248-.678-.386l-.741,1.283c.278.167.546.321.806.487a.756.756,0,1,1-.744,1.311c-.483-.263-.958-.541-1.425-.829a.735.735,0,0,1-.3-1.087q.708-1.278,1.456-2.532a.742.742,0,0,1,1.127-.282,4.382,4.382,0,0,1,.571.33.659.659,0,0,0,.88.017.554.554,0,0,0,.316-.55,7.056,7.056,0,0,1,0-.9.724.724,0,0,1,.746-.75q1.508-.026,3.018,0a.733.733,0,0,1,.754.746,3.165,3.165,0,0,1,0,.707.679.679,0,0,0,.525.843.708.708,0,0,0,.457,0c.286-.126.542-.315.821-.46a.716.716,0,0,1,1.06.26q.779,1.291,1.506,2.611a.727.727,0,0,1-.272,1.026c-.2.131-.406.239-.61.357-.683.4-.688,1-.012,1.4,1.223.719,1.245.8.533,2.036-.346.6-.688,1.2-1.037,1.8-.361.616-.692.7-1.321.345a3.226,3.226,0,0,1-.405-.239.745.745,0,0,0-.966-.029c-.338.2-.268.457-.269.72-.006,1.392-.081,1.471-1.458,1.471-.267,0-.535.011-.8,0a.75.75,0,1,1-.015-1.5C1454.462,3278.539,1454.7,3278.552,1455.055,3278.552Z" transform="translate(-1421.76 -3254.399)" fill="#214be5"/>
        <path id="Trazado_184725" data-name="Trazado 184725" d="M1475.94,3252.075a23.453,23.453,0,0,1-1.141,6.579c-.192.584-.655.822-1.112.593-.364-.182-.454-.541-.33-1.066a35.669,35.669,0,0,0,.814-3.668,19.6,19.6,0,0,0-14.141-21.393,2.447,2.447,0,0,1-.532-.185.739.739,0,0,1,.386-1.394,2.257,2.257,0,0,1,.551.114c8.418,2.69,13.514,8.345,15.153,17.051C1475.795,3249.813,1475.826,3250.952,1475.94,3252.075Z" transform="translate(-1430.567 -3227.863)" fill="#214be5"/>
        <path id="Trazado_184726" data-name="Trazado 184726" d="M1359.123,3349.991a2.849,2.849,0,0,1,1.357,2.043,24.958,24.958,0,0,1,.051,2.913.673.673,0,0,1-.747.639q-2.991.012-5.982,0a.69.69,0,0,1-.772-.667,22.519,22.519,0,0,1,.027-2.776,2.852,2.852,0,0,1,1.413-2.151,3.112,3.112,0,0,1-.627-2.624,2.945,2.945,0,0,1,1.09-1.709,3,3,0,0,1,3.855.127C1359.971,3346.835,1360.1,3348.328,1359.123,3349.991Zm-4.6,4.09h4.52c0-.583.023-1.1-.006-1.616a1.489,1.489,0,0,0-1.455-1.4c-.533-.021-1.068-.021-1.6,0a1.48,1.48,0,0,0-1.453,1.395C1354.5,3352.978,1354.524,3353.5,1354.524,3354.082Zm2.251-4.532a1.507,1.507,0,1,0-1.5-1.5A1.513,1.513,0,0,0,1356.775,3349.549Z" transform="translate(-1349.966 -3314.082)" fill="#214be5"/>
        <path id="Trazado_184727" data-name="Trazado 184727" d="M1497.33,3353.012a3.249,3.249,0,0,1,1.444,3.1c-.027.533,0,1.069-.006,1.6s-.315.895-.764.888-.739-.356-.743-.908c-.005-.676,0-1.352,0-2.028a1.5,1.5,0,0,0-1.559-1.582c-.5-.01-1.006-.014-1.508,0a1.465,1.465,0,0,0-1.445,1.349c-.036.53-.007,1.064-.007,1.667.758,0,1.493-.037,2.222.02a.976.976,0,0,1,.687.437.924.924,0,0,1-.108.762.828.828,0,0,1-.606.275c-.958.029-1.917.025-2.876.012a.767.767,0,0,1-.832-.867c-.008-.739-.018-1.478,0-2.216a3.032,3.032,0,0,1,1.427-2.509c-.989-1.831-.832-3.3.447-4.337a3.037,3.037,0,0,1,3.864.071C1498.187,3349.818,1498.327,3351.333,1497.33,3353.012Zm-2.34-3.455a1.5,1.5,0,0,0-1.5,1.493,1.507,1.507,0,1,0,3.014-.01A1.5,1.5,0,0,0,1494.99,3349.557Z" transform="translate(-1454.975 -3316.359)" fill="#214be5"/>
        <path id="Trazado_184728" data-name="Trazado 184728" d="M1426.737,3221.212c-1-1.736-.838-3.281.425-4.3a3.012,3.012,0,0,1,3.9.071c1.2,1.049,1.341,2.61.345,4.2.111.092.227.187.341.284a2.971,2.971,0,0,1,1.09,2.212.754.754,0,0,1-.7.848.765.765,0,0,1-.8-.746,1.52,1.52,0,0,0-1.682-1.513c-.44,0-.88-.009-1.319,0a1.506,1.506,0,0,0-1.525,1.526c-.011.471,0,.941,0,1.491h1.4c.518,0,1.037-.009,1.555,0a.754.754,0,1,1-.014,1.5c-1.209.009-2.418,0-3.628,0-.434,0-.782-.21-.8-.639a23.384,23.384,0,0,1,.048-2.914A2.783,2.783,0,0,1,1426.737,3221.212Zm3.835-1.961a1.506,1.506,0,1,0-1.494,1.506A1.511,1.511,0,0,0,1430.573,3219.251Z" transform="translate(-1404.894 -3216.236)" fill="#214be5"/>
        <path id="Trazado_184729" data-name="Trazado 184729" d="M1409.576,3318.131a4.529,4.529,0,1,1,4.471,4.539A4.538,4.538,0,0,1,1409.576,3318.131Zm1.513-.01a3.017,3.017,0,1,0,3.048-3A3.021,3.021,0,0,0,1411.088,3318.121Z" transform="translate(-1392.948 -3290.216)" fill="#214be5"/>
        <path id="Trazado_184730" data-name="Trazado 184730" d="M1402.626,3389.1a21.067,21.067,0,0,1-11.45-3.469c-.5-.324-.63-.751-.366-1.143s.7-.444,1.2-.116a19.245,19.245,0,0,0,7.855,3,19.467,19.467,0,0,0,11.928-1.983c.154-.078.3-.169.46-.238a.741.741,0,0,1,1.006.324.709.709,0,0,1-.325,1c-.854.429-1.713.859-2.6,1.209A20.87,20.87,0,0,1,1402.626,3389.1Z" transform="translate(-1378.59 -3343.818)" fill="#214be5"/>
        <path id="Trazado_184731" data-name="Trazado 184731" d="M1470.649,3287.63a2.262,2.262,0,1,1-2.228-2.274A2.273,2.273,0,0,1,1470.649,3287.63Zm-1.512-.017a.751.751,0,1,0-.735.755A.756.756,0,0,0,1469.138,3287.613Z" transform="translate(-1435.911 -3268.75)" fill="#214be5"/>
        <path id="Trazado_184732" data-name="Trazado 184732" d="M1473.914,3292.387a.751.751,0,1,1-.743-.747A.759.759,0,0,1,1473.914,3292.387Z" transform="translate(-1440.688 -3273.524)" fill="#214be5"/>
      </g>
    </g>
  </g>
</svg>
