<svg xmlns="http://www.w3.org/2000/svg" width="1030" height="329.156" viewBox="0 0 1030 329.156">
  <g id="Grupo_82178" data-name="Grupo 82178" transform="translate(-285 -5323)">
    <path id="Trazado_183355" data-name="Trazado 183355" d="M62.9,17H61.4V5.625h1.5Zm3.883-8.453.047,1.063a3.08,3.08,0,0,1,2.531-1.219q2.68,0,2.7,3.023V17H70.617V11.406a1.946,1.946,0,0,0-.418-1.352,1.675,1.675,0,0,0-1.277-.437,2.086,2.086,0,0,0-1.234.375,2.546,2.546,0,0,0-.828.984V17H65.414V8.547ZM75.813,17H74.367V8.547h1.445ZM74.25,6.3a.863.863,0,0,1,.215-.594.807.807,0,0,1,.637-.242.819.819,0,0,1,.641.242.854.854,0,0,1,.219.594.826.826,0,0,1-.219.586.834.834,0,0,1-.641.234.821.821,0,0,1-.637-.234A.834.834,0,0,1,74.25,6.3Zm7.266,9.672a2.082,2.082,0,0,0,1.352-.469,1.649,1.649,0,0,0,.641-1.172h1.367a2.621,2.621,0,0,1-.5,1.383,3.293,3.293,0,0,1-1.23,1.047,3.55,3.55,0,0,1-1.629.391A3.482,3.482,0,0,1,78.77,16a4.59,4.59,0,0,1-1.02-3.152v-.242a5.089,5.089,0,0,1,.453-2.2,3.451,3.451,0,0,1,1.3-1.492,3.7,3.7,0,0,1,2-.531,3.39,3.39,0,0,1,2.363.852,3.043,3.043,0,0,1,1,2.211H83.508a1.992,1.992,0,0,0-.621-1.348,1.932,1.932,0,0,0-1.379-.527,2.023,2.023,0,0,0-1.707.793,3.724,3.724,0,0,0-.605,2.293v.273a3.65,3.65,0,0,0,.6,2.25A2.033,2.033,0,0,0,81.516,15.977ZM88.07,17H86.625V8.547H88.07ZM86.508,6.3a.863.863,0,0,1,.215-.594.807.807,0,0,1,.637-.242A.819.819,0,0,1,88,5.711a.854.854,0,0,1,.219.594A.826.826,0,0,1,88,6.891a.834.834,0,0,1-.641.234.821.821,0,0,1-.637-.234A.834.834,0,0,1,86.508,6.3ZM90,12.7a4.993,4.993,0,0,1,.488-2.234A3.643,3.643,0,0,1,91.848,8.93a3.7,3.7,0,0,1,1.988-.539,3.565,3.565,0,0,1,2.793,1.2,4.6,4.6,0,0,1,1.066,3.18v.1a5.036,5.036,0,0,1-.473,2.215,3.589,3.589,0,0,1-1.352,1.527,3.743,3.743,0,0,1-2.02.547,3.556,3.556,0,0,1-2.785-1.2A4.575,4.575,0,0,1,90,12.8Zm1.453.172a3.616,3.616,0,0,0,.652,2.258,2.211,2.211,0,0,0,3.5-.012A3.955,3.955,0,0,0,96.25,12.7a3.61,3.61,0,0,0-.66-2.254,2.1,2.1,0,0,0-1.754-.863,2.075,2.075,0,0,0-1.727.852A3.925,3.925,0,0,0,91.453,12.867Zm11.664-.164a4.952,4.952,0,0,1,.922-3.129,3.137,3.137,0,0,1,4.766-.168V5h1.445V17h-1.328l-.07-.906a2.943,2.943,0,0,1-2.414,1.063,2.887,2.887,0,0,1-2.395-1.2,5.008,5.008,0,0,1-.926-3.141Zm1.445.164a3.749,3.749,0,0,0,.594,2.25,1.92,1.92,0,0,0,1.641.813A2.108,2.108,0,0,0,108.8,14.7V10.813a2.125,2.125,0,0,0-1.992-1.2,1.929,1.929,0,0,0-1.656.82A4.128,4.128,0,0,0,104.563,12.867Zm9.5,4.133h-1.445V8.547h1.445ZM112.5,6.3a.863.863,0,0,1,.215-.594.807.807,0,0,1,.637-.242.819.819,0,0,1,.641.242.854.854,0,0,1,.219.594.826.826,0,0,1-.219.586.834.834,0,0,1-.641.234.821.821,0,0,1-.637-.234A.834.834,0,0,1,112.5,6.3ZM117.086,17V9.664H115.75V8.547h1.336V7.68a2.878,2.878,0,0,1,.727-2.1,2.745,2.745,0,0,1,2.055-.742,3.816,3.816,0,0,1,.992.132l-.078,1.165a4.151,4.151,0,0,0-.781-.07,1.41,1.41,0,0,0-1.086.411,1.669,1.669,0,0,0-.383,1.18v.893h1.8V9.664h-1.8V17Zm10.063-.836a3.07,3.07,0,0,1-2.477.992,2.628,2.628,0,0,1-2.059-.785,3.4,3.4,0,0,1-.715-2.324v-5.5h1.445v5.461q0,1.922,1.563,1.922a2.163,2.163,0,0,0,2.2-1.234V8.547h1.445V17H127.18Zm8.523-1.406a1.064,1.064,0,0,0-.441-.91,4.249,4.249,0,0,0-1.539-.559,7.277,7.277,0,0,1-1.742-.562,2.479,2.479,0,0,1-.953-.781,1.869,1.869,0,0,1-.309-1.078,2.193,2.193,0,0,1,.879-1.758,3.432,3.432,0,0,1,2.246-.719,3.532,3.532,0,0,1,2.332.742,2.357,2.357,0,0,1,.895,1.9h-1.453a1.3,1.3,0,0,0-.5-1.023,1.888,1.888,0,0,0-1.27-.43,1.976,1.976,0,0,0-1.234.344,1.082,1.082,0,0,0-.445.9.877.877,0,0,0,.414.789,5.1,5.1,0,0,0,1.5.508,7.8,7.8,0,0,1,1.754.578,2.558,2.558,0,0,1,1,.809,1.988,1.988,0,0,1,.324,1.152,2.163,2.163,0,0,1-.906,1.816,3.8,3.8,0,0,1-2.352.684,4.257,4.257,0,0,1-1.8-.359,2.922,2.922,0,0,1-1.223-1A2.42,2.42,0,0,1,130.4,14.4h1.445a1.5,1.5,0,0,0,.582,1.152,2.258,2.258,0,0,0,1.434.426,2.331,2.331,0,0,0,1.316-.332A1.02,1.02,0,0,0,135.672,14.758Zm2.945-2.062a4.993,4.993,0,0,1,.488-2.234,3.642,3.642,0,0,1,1.359-1.531,3.7,3.7,0,0,1,1.988-.539,3.565,3.565,0,0,1,2.793,1.2,4.6,4.6,0,0,1,1.066,3.18v.1a5.036,5.036,0,0,1-.473,2.215,3.589,3.589,0,0,1-1.352,1.527,3.743,3.743,0,0,1-2.02.547,3.556,3.556,0,0,1-2.785-1.2,4.575,4.575,0,0,1-1.066-3.164Zm1.453.172a3.616,3.616,0,0,0,.652,2.258,2.211,2.211,0,0,0,3.5-.012,3.954,3.954,0,0,0,.648-2.418,3.61,3.61,0,0,0-.66-2.254,2.1,2.1,0,0,0-1.754-.863,2.075,2.075,0,0,0-1.727.852A3.925,3.925,0,0,0,140.07,12.867Z" transform="translate(434 5635)" fill="#12263f"/>
    <path id="Trazado_181497" data-name="Trazado 181497" d="M-7123-6145.4v10.4h505v-10.4" transform="translate(7408.5 11754)" fill="none" stroke="#707070" stroke-width="1"/>
    <line id="Línea_1057" data-name="Línea 1057" y2="10" transform="translate(537.5 5619.5)" fill="none" stroke="#707070" stroke-width="1"/>
    <g id="Grupo_82177" data-name="Grupo 82177">
      <rect id="Rectángulo_23425" data-name="Rectángulo 23425" width="1030" height="271" transform="translate(285 5323)" fill="#00bab5" opacity="0.1"/>
      <path id="Trazado_182491" data-name="Trazado 182491" d="M6359.022,628.181c-.521.375-1.02,1.036-1.566,1.078-2.7.209-5.45.013-8.116.407-5.9.871-13.044-5.381-13.988-10.516-.043-.237-.375-.422-.83-.9-.791,1.066-1.815,1.941-2.182,3.036-.909,2.713-1.39,5.568-2.279,8.289a107.173,107.173,0,0,1-3.834,10.138c-.3.687-1.79.85-3.316,1.5-.687-4.554-1.725-8.611-1.828-12.691-.209-8.229-.1-16.48.253-24.7a77.607,77.607,0,0,1,1.862-14.466c1.727-7.3,2.329-14.759,3.747-22.039,1.139-5.85,1.009-11.618,1.6-17.406.449-4.434,1-8.858,1.447-13.293a16.678,16.678,0,0,0-.17-2.755l-.843-.168c-1.365,2.85-2.962,5.616-4.037,8.571a118.851,118.851,0,0,0-3.654,12.163c-.91,3.7-1.346,7.513-2.158,11.24a23.155,23.155,0,0,1-1.692,4.546c-2.206,4.873-3.043,10.542-8.128,13.977-2.583-2.345-3.513-5.48-4.792-8.667-2.37-5.9-1.357-11.826-1.275-17.74.054-3.965,1.284-7.928,1.2-11.876a25.55,25.55,0,0,0-8.713-18.938c-2.958-2.678-7.841-1.555-10.681,2.286-2.726,3.689-2.478,5.386.451,9.627a26.9,26.9,0,0,1,3.047,6.824c1.234,3.716,2.2,7.522,3.265,11.294a8.171,8.171,0,0,1,.255,1.469c.7,7.96,1.179,15.946,2.179,23.867.438,3.465,2.048,6.767,2.909,10.2.578,2.3.152,5.015,3.266,5.949,3-2.055,4.794-2.528,8.383.974a22.512,22.512,0,0,1,6.489,21.563,47.832,47.832,0,0,1-8.049,18.254c-2.936,4.1-6.02,7.885-9.958,10.739a26.541,26.541,0,0,1-10.283,4.54c-4.765.9-8.35-2.3-11.037-5.845a21.179,21.179,0,0,1-3.95-11.267c-.411-4.655-2.01-9.2-3.025-13.81a14.057,14.057,0,0,1-.2-2.991c-.013-12.359-.106-24.719.04-37.076a27.383,27.383,0,0,0-3.15-12.871c-1.557-3.1-2.741-6.4-4.237-9.533a46.475,46.475,0,0,0-3.057-4.685c-1.551,3.524-3.092,6.246-3.938,9.169a34.445,34.445,0,0,0-1.4,9.178c-.034,3.857,1.032,7.743.824,11.574-.378,6.948-1.347,13.865-2.15,21.554l-4.388-1.437c-.646,2.823-1.525,5.95-2.048,9.135-.846,5.165-1.231,10.412-2.239,15.541a85.2,85.2,0,0,1-3.611,13.106c-1.982,5.363-4.053,10.629-8.011,15.144-6.9,7.869-16.062,4.062-20.291-1.881-.906-1.274-1.585-2.71-2.369-4.072a39.134,39.134,0,0,1-3.79,2.711,80.684,80.684,0,0,1-7.823,3.9,3.144,3.144,0,0,1-2.577-.682c-3.254-2.7-4.688-6.3-5.791-10.384-.929-3.437-1.214-7.305-5.916-9.318-2.921-1.25-4.814-5.525-6.539-8.776-1.918-3.615-3.12-7.61-4.657-11.5a45.37,45.37,0,0,1-4.452,4.982,42.022,42.022,0,0,1-7.414,5.283c-3.567,1.911-7.366,3.4-11.114,4.957-1.718.711-3.924.685-5.263,1.782-3.9,3.194-4.353,6.865-1.945,11.265a2.381,2.381,0,0,1,.36.8c.906,8.01,3.239,15.864,2.113,24.094-.939,6.856-6.63,9.416-12.918,6.219a69.855,69.855,0,0,1-10.965-7.294c-.866-.668-2.853-.019-4.286.24-.839.151-1.572.977-2.4,1.073-6.161.711-12.33,1.364-18.509,1.913a8.087,8.087,0,0,1-4.066-.9,77.5,77.5,0,0,0,26.319-5.144c-12.83-14.418-20.341-31.2-24.152-49.9-3.493-.723-4.9,2.473-6.836,4.13-6.354,5.428-12.237,11.4-18.554,16.878-3.508,3.039-7.977,5.053-11.166,8.348-2.856,2.951-6.474,5.849-6.682,10.654a11.425,11.425,0,0,0,6.535,10.492,43.871,43.871,0,0,0,16.649,3.99c5.7.232,11.354,1.674,17.008,2.858h-18.9l1.571-.852c-2.684-.177-4.959-.277-7.223-.486-6.172-.57-11.837-2.3-16.371-6.877-3.181-3.212-3.5-7.709-1.556-11.823a32.515,32.515,0,0,1,7.988-10.752c3.245-2.853,6.746-5.411,10.057-8.19,3.931-3.3,7.8-6.682,11.66-10.063,1.959-1.714,3.851-3.5,5.773-5.258l-.4-.817-14.5-1.676a28.627,28.627,0,0,0-.164,3.959c.364,4.234-1.589,7.7-3.665,11.067a2.758,2.758,0,0,1-2.575.8,6.646,6.646,0,0,1-2.7-2.579c-2.794-4.771-1.994-10.087-2.07-15.261a11.114,11.114,0,0,0-.621-4.6c-2.751-2.905-5.882-5.542-8.17-8.775-3.769-5.326-7.145-10.954-10.373-16.632-1.244-2.186-1.732-4.832-2.383-7.315a81.89,81.89,0,0,1-2-9.013c-.66-4.549-.545-8.933,3.5-12.3.642-.535.48-2.28.368-3.434-.552-5.676,1.619-10.114,4.709-14.894,2.877-4.451,6.681-7.713,10.272-11.2,2.815-2.734,6.766-4.32,10.271-6.315a72.687,72.687,0,0,1,9.441-4.973c3.262-1.263,6.805-1.8,10.725-2.777-2.136-6.532,1.793-10.563,7.12-13.445,1.6-.864,3.369-3.98,5.66-1.6-2.867,2.351-6.253,4.258-8.293,7.123-1.282,1.8-.6,5.038-.625,7.634,0,.268,1.12.709,1.756.789a21.979,21.979,0,0,0,3.9.166c7.246-.387,12.908,2.536,17.371,8.112a2.373,2.373,0,0,0,1.593.934c6.554-.368,11.676,3.56,17.341,5.794a14.7,14.7,0,0,1,5.355,3.525c2.788,3.049,4.447.467,6.393-.872,2.817-1.94,5.587-3.95,9.1-6.44.987-5.544-.369-11.269-4.357-16.98-3.45-4.941-9.084-7.249-12.375-12.088a7.545,7.545,0,0,1-1.256-2.678,38.206,38.206,0,0,1-.306-4.719c-1.391.363-2.458.617-3.51.923-.85.248-1.663.664-2.526.824-3.757.694-7.618,1-11.269,2.053-4.68,1.346-9.164,3.363-13.8,4.879-1.263.412-2.775.062-4.174.062l-.114-.911q6.133-2.035,12.265-4.069c3.245-1.075,6.484-2.166,9.74-3.2a15.486,15.486,0,0,1,2.079-.315c4.094-.7,8.26-1.149,12.245-2.248,1.721-.474,3.115-2.251,4.574-3.532,4.421-3.889,8.774-7.857,13.235-11.7.518-.445,1.557-.283,3.021-.5L6137.934,486.4h9.151c2.466-6.841,6.987-12.1,12.572-16.86l-1.067-1.51a22.2,22.2,0,0,1,3.18-2.466,56.868,56.868,0,0,1,12.239-4.633,50.254,50.254,0,0,1,17.514-.966,32.818,32.818,0,0,1,10.525,3.217,69.15,69.15,0,0,1,13.125,7.478,59.859,59.859,0,0,1,11.387,11.434c2.177,2.924,2.656,7.065,4.2,10.525a65.662,65.662,0,0,0,4.1,7.015c.241.4.824.659.913,1.058a82.381,82.381,0,0,1,2.07,10.205c.669,7.244.845,14.534,1.521,21.777.15,1.615,1.644,3.067,2.312,4.681,1.25,3.027,3.015,6.044,3.362,9.2.569,5.163.161,10.432.2,15.656.01,1.243.15,2.486.228,3.675,1.7-.552,3.411-.617,4.3-1.507a31.312,31.312,0,0,0,4.268-5.8c.888-1.43,1.1-3.449,2.262-4.476.7-.616,3.26-.354,3.9.417,2.742,3.282,5.949,6.329,6.838,10.877.2,1,1.57,1.764,2.882,3.143,0-1.72.279-2.923-.045-3.933-2.17-6.784-1.532-13.812-.807-20.561a20.42,20.42,0,0,1,6.961-13.2c.214-.184.51-.444.739-.418,5.149.588,6.583-5.032,10.653-6.388,1.7-.568,6.691-1.181,8.311-.453,5.412,2.439,8.011,7.284,10.613,12.121a5.95,5.95,0,0,1,.292,2.661c.022,9.644-.121,19.292.092,28.932.086,3.942.928,7.866,1.427,11.8l1.228.266a19.4,19.4,0,0,0,2.518-3.4,81.707,81.707,0,0,0,3.3-8.5,72.484,72.484,0,0,0,2.021-7.958c.8-3.946,1.06-8.039,2.234-11.858a77.4,77.4,0,0,1,4.831-10.846,52.819,52.819,0,0,1,3.873-6.813c.665-.965,1.989-1.474,3.616-2.609.252,5.008.6,8.887.6,12.767.006,4.818-.085,9.651-.481,14.449-.5,6.07-1.3,12.117-2.064,18.163-.47,3.722-.993,7.445-1.693,11.13-.838,4.408-2.1,8.743-2.786,13.171-.58,3.748-.564,7.586-.874,11.379-.242,2.983-.867,5.963-.809,8.935.1,5.185.6,10.362.925,15.543l1.014.053a9.517,9.517,0,0,0,.715-1.35c1.742-5.082,3.654-10.117,5.1-15.284.689-2.462.418-5.183.682-7.778.541-5.328,1.055-10.662,1.764-15.97a72.3,72.3,0,0,1,1.888-9.741c1.438-5.184,3.334-10.243,4.724-15.438.583-2.186.188-4.614.553-6.881.961-5.96,2.1-11.891,3.151-17.837.138-.785.116-1.6.225-2.389.679-4.9,1.3-9.8,2.094-14.683a59.4,59.4,0,0,1,1.814-7.921c.425-1.388,1.429-2.6,2.454-4.377,3.713,4.657,4.089,9.777,5.191,14.793,3.246.5,3.354-2.785,4.806-4.256,4.442-4.492,8.276-9.389,14.439-12.1,5.685-2.5,11.355-1.761,16.72-.821,4.408.771,8.2,4.358,10.434,8.691,2.378,4.607,4.985,9.037,5.8,14.431.491,3.276,2.925,6.124,5.331,8.809,1.813,2.025,2.708,5.128,3.315,7.9.546,2.5.152,5.2.155,7.813,0,3.819,0,3.819,2.854,7.594,1.456-3.223,2.959-6.285,4.228-9.441,1-2.49,2.064-2.9,4.151-1.272,3.557,2.779,5.443,6.63,6.839,10.764.964,2.861,1.773,5.774,2.516,8.218,2.138-2.429,4.307-5.1,6.705-7.547,1.478-1.509,4.389-.541,5.279,1.483,1.677,3.81,3.4,7.6,5.086,11.4a3.493,3.493,0,0,1,.119.893c1.376,9.7,2.611,19.392,2.079,29.236-.247,4.592,4.25,6.913,8.5,4.807,5.26-2.6,10.055-5.745,13.791-10.332.575-.705,1.512-1.642,1.388-2.3-.816-4.334.466-8.393,1.375-12.49,1.084-4.89,2.306-9.751,3.539-14.607a40.826,40.826,0,0,1,2-6.552c1.437-3.248,3.138-6.385,4.841-9.506a58.566,58.566,0,0,1,4.317-7.138,24.62,24.62,0,0,1,5.05-5.1,15.723,15.723,0,0,1,6.282-3.094c2.562-.425,5.33.068,7.962.471a12.549,12.549,0,0,1,7.378,4.03,67,67,0,0,1,7.371,9.028c2.473,3.9,4.3,8.213,6.45,12.32,1.494,2.848,2.984,5.7,4.646,8.455a19.969,19.969,0,0,0,3.435,4.384c1.649,1.517,5.167.26,7.392-2.088,4.228-4.465,8.445-8.957,12.929-13.157,4.01-3.755,11.943-2.789,16.635.42,5.19,3.549,6.734,8.9,7.314,14.074.451,4.039-2.005,8.39-4.96,11.694-3.672,4.1-7.622,7.958-11.4,11.971a9.485,9.485,0,0,0-2.493,3.416c-.444,1.573.419,2.714,2.364,2.979,5.574.759,10.428-1.141,14.659-4.354,5.54-4.206,10.433-9.319,16.195-13.154,3.162-2.105,6.675-4.256,11.045-4.49,4-.214,6.344,1.857,8.007,4.519,2.134,3.414,4.265,6.638,7.429,9.211,2.733,2.222,5.6,2.492,8.911,1.429,5.823-1.871,10.057-6.391,15.424-8.793,4.973-2.225,10.284-4.3,15.963-1.007,2.213,1.285,5.077,1.436,7.63,2.151,3.9,1.09,7.783,2.222,11.676,3.336a4.774,4.774,0,0,0,.582.148c4.585.711,9.174,1.4,13.757,2.133,3.8.608,8,.451,11.3,2.1,4.706,2.348,9.293.8,13.892,1.152,5.9.445,11.832.406,17.752.412,1.089,0,2.167-.811,3.273-1.18a9.47,9.47,0,0,1,2.451-.6c3.51-.175,7.328.582,10.475-.55,7.462-2.683,15.177-.442,22.387-2.235l-1.692-.269c.011-.127.021-.254.032-.38l52.592-.913.016-.29-6.034-.351,0-.656h62.581c4.319,0,8.639.007,12.958,0,3.991-.01,3.991-.018,4.008-4.108a8.353,8.353,0,0,1,.02-1.8,5.49,5.49,0,0,1,.77-1.377,5.648,5.648,0,0,1,1.333.812c1.438,1.559,2.742,3.245,4.229,4.754,2.521,2.559,2.437,2.92-.018,5.625-1.846,2.033-3.326,4.4-5.49,7.322a30.9,30.9,0,0,1-.82-4.164c-.15-3.507-.521-3.925-4.075-3.92-12.455.016-24.912-.01-37.366.063-22.6.133-45.2.249-67.792.56-4.425.061-8.827,1.154-13.261,1.451-4.5.3-9.384-.837-13.464.54-5.648,1.906-11.284.4-16.743,1.585-10.771,2.334-21.668,1.767-32.516,1.582-6.914-.119-13.819-1.239-20.708-2.07-2.775-.335-5.835-.5-8.164-1.815-3.133-1.762-6.387-1.151-9.524-1.844-4.5-1-8.952-2.252-13.374-3.567-2.75-.817-5.365-2.1-8.126-2.855-1.013-.278-2.278.326-3.417.572-.459.1-.9.471-1.335.46-5.233-.124-8.309,3.867-12.1,6.411-4.567,3.067-9.2,5.931-14.941,4.473a18.38,18.38,0,0,1-10.2-7.192c-1.409-1.9-2.586-3.973-3.935-5.922a2.7,2.7,0,0,0-1.3-.925,12.5,12.5,0,0,0-12.3,2.441c-5.292,4.244-10.078,9.191-15.666,12.969A33.53,33.53,0,0,1,6579,613.722c-3.453.829-6.337-.312-9.444-.54-1.373-.1-2.651-1.511-4.541-2.679,5.406-5.9,10.9-11.369,15.733-17.372a34.326,34.326,0,0,0,5.756-11.09c.583-1.858-.807-4.666-1.969-6.655a17.32,17.32,0,0,0-5.285-6.093,10.021,10.021,0,0,0-7.577-1.754c-6.567,1.256-9.12,7-13.652,10.463-2.586,1.976-3.422,5.377-6.537,7.1-2.518,1.393-4.548,1.032-6.8.193-5.49-2.046-6.56-7.311-8.738-11.874-1.875-3.931-4.7-7.423-6.46-11.394a43.116,43.116,0,0,0-9.5-13.113c-2.6-2.571-5.828-5.044-9.722-3.9a19.024,19.024,0,0,0-10.124,7.3c-3.249,4.624-6.63,9.337-8.769,14.5-1.687,4.077-4,8.02-4.275,12.822-.259,4.575-1.949,9.063-2.932,13.606a37.934,37.934,0,0,0-.345,4.41,17.313,17.313,0,0,0,2.707-1.757c4.678-4.807,9.079-9.916,14.056-14.385a16.5,16.5,0,0,1,8.432-3.879c4.933-.635,8.191,2.683,10.744,6.6,1.72,2.642,3.677,5.151,5.173,7.912,1.583,2.923,2.638,6.129,4.124,9.111,1.445,2.9,3.416,5.567,4.612,8.554.571,1.427.529,3.889-.354,4.96-2.644,3.21-6.192,4.953-10.376,6.21-7.053,2.119-14.1,1.5-21.009.84-5.54-.53-11.328-2.321-15.164-7.076a76.765,76.765,0,0,1-5.039-7.848c-4.687,3.306-9.01,6.809-13.789,9.506-1.964,1.109-4.91.649-7.405.6-4.082-.072-5.04.7-5.578,4.907-.159,1.248-.211,2.706-.889,3.654-1.941,2.717-3.464,2.674-6.17-.086a37.582,37.582,0,0,1-9.755-18.034c-1.175-4.791-.322-9.533-1.472-14.045-1.515-5.951-1.357-11.975-2.075-17.947-.326-2.709-1.98-5.247-2.955-7.891-.756-2.049-1.237-4.213-2.146-6.184-.5-1.089-1.64-1.885-2.539-2.868l-6.9,11.3-4.361-2.963a15.413,15.413,0,0,1-.569,2.6c-1.555,3.918-3.1,7.842-4.814,11.692a78.635,78.635,0,0,1-4.186,8.251,111.182,111.182,0,0,1-6.407,9.746c-2.465,3.305-5.365,6.288-7.836,9.589a12.068,12.068,0,0,0-1.991,4.765,37.823,37.823,0,0,1-7.339,16.159,106.333,106.333,0,0,1-10.068,10.677c-1.5,1.442-3.564,2.293-5.5,3.49-3.129-2.94-4.05-6.746-4.456-10.778-.234-2.309-.828-4.363-3.584-4.787.479-1.082.957-2.161,1.578-3.563a5,5,0,0,1-1.187-1.749q-1.147-5.186-2-10.436c-.545-3.375-.539-6.729-1.5-10.172-1.5-5.369-1.5-11.172-1.985-16.8-.224-2.594-.114-5.218-.106-7.829.037-10.644.112-21.287.105-31.93a12.467,12.467,0,0,0-.732-2.944,90.978,90.978,0,0,0-5.23,11.675c-.694,1.776-1.438,3.534-2.055,5.337-1.017,2.98-2.474,5.933-2.809,9a122.707,122.707,0,0,1-3.565,19.978c-1.4,4.989-1.2,10.406-2.321,15.5a17.01,17.01,0,0,0-.014,8.522c.6,2.189.595,4.332,1.716,6.62,2.779,5.668,6.871,8.369,12.98,8.49C6354.222,628,6356.621,628.1,6359.022,628.181Zm3.835-3.893c1.569-.153,3.222.126,4.387-.5,5.644-3.041,11.365-6,16.132-10.419,3.223-2.985,7.375-5.387,6.652-10.807a2.674,2.674,0,0,1,.157-.884c1.02-4.526,2.518-9.008,2.949-13.59a118.937,118.937,0,0,1,3.506-19.682c1.09-4.083,1.878-8.184,3.865-11.956,2.016-3.826,3.585-7.987,6.173-11.372a4.189,4.189,0,0,0,.7-4.475c-.837-2.606-2.461-5.036-2.89-7.681-.8-4.95-3.367-9.008-5.672-13.225a15.817,15.817,0,0,0-8.811-7.249c-5.6-1.88-11.347-.406-16.318,2.659-4.619,2.848-8.816,6.123-11.792,11.088-2.437,4.067-5.546,7.539-4.732,12.721a26.438,26.438,0,0,1,.09,3.914c.135,21.4-1.572,42.87,3.336,64.05C6361.867,612.4,6362.091,618.175,6362.858,624.288Zm-90.208-9.935a19.189,19.189,0,0,0-.29,3.666c.444,3.689,1.545,7.368,1.473,11.033a37.78,37.78,0,0,0,4.066,17.309c2,4.191,9.8,7.069,13.577,4.46,5.228-3.612,10.5-7.317,13.386-13.362,1.284-2.689,2.851-5.25,4.016-7.986,1.191-2.794,2.62-5.672,2.922-8.618.519-5.059.451-10.112-1.655-15.093-2.14-5.065-5.907-6.764-10.634-3.959a2.086,2.086,0,0,1-1.845-.337c-3.659-3-4.077-7.729-5.161-11.722-1.6-5.907-1.651-12.238-2.343-18.39-.1-.9-.017-1.817-.168-2.7-1.094-6.356-2.036-12.748-3.423-19.04-.752-3.412-2.477-6.6-3.391-9.989-.548-2.037-1.467-2.351-3.29-1.733a37.7,37.7,0,0,1-.98,4.6c-.846,2.49-2.431,4.836-2.78,7.37-.983,7.163-1.5,14.391-2.191,21.594a16.678,16.678,0,0,1-.341,3.877c-1.22,3.436-1,6.437.006,10.146,1.715,6.324,1.71,13.119,2.366,19.723.237,2.388-.129,4.927.564,7.152.629,2.02-.219,3.088-1.187,4.388Zm-135.961,13.671c1.405-1.17,2.033-1.591,2.537-2.129,2.118-2.26,4.487-4.358,6.216-6.89a58.353,58.353,0,0,0,4.538-8.774c1.647-3.613,3.266-7.258,4.582-11,.993-2.82,1.162-5.949,2.291-8.7a40.625,40.625,0,0,0,3.459-12.75,54.827,54.827,0,0,1,1.868-8.779c.1-.407.856-.691.891-1.07.144-1.527.5-3.222-.021-4.532-.217-.542-3.045-.882-3.68-.27a28.385,28.385,0,0,1-9.759,5.728,2.608,2.608,0,0,1-1.989-.174c-2.1-1.216-2.91-3.416-4.186-5.355-2.652-4.037-6.07-7.572-8.871-10.949-10.5,5.955-14.574,14.895-14.178,26.186l3.276.81c.829,3.492,1.5,6.793,2.41,10.029,1.049,3.755,2.317,7.447,3.454,11.179.791,2.6,1.535,5.208,2.271,7.821,1.017,3.612,2.068,7.215,2.99,10.852C6135.478,621.973,6135.983,624.732,6136.689,628.024Zm12.7-139.016c.3,4.647-2.3,8.623-.729,13.854a127.48,127.48,0,0,0,4.555,13.79,24.577,24.577,0,0,0,3.486,5.763c.806.988,2.627,2.219,3.461,1.911,2.441-.9,4.622-2.519,6.9-3.87,4.158-2.468,8.31-4.945,13.175-7.841-.448-1.146-1.569-2.839-1.723-4.617-.458-5.291-3.215-9.128-6.974-12.5-.233-.209-.426-.861-.307-.984.287-.3.838-.627,1.164-.534a4.616,4.616,0,0,1,1.993,1.042c4.155,4.227,7.77,8.763,7.77,15.112,2.5-.318,3.129-.959,3.28-3.152a28,28,0,0,1,.354-4.481c.953-4.043,2.854-8.021,2.976-12.067.21-7.043,1.85-14.262-1.334-21.178-1.019-2.213-4.57-5.544-6.972-5.992-5.879-1.1-10.362,1.925-14.953,4.791a34.253,34.253,0,0,0-10.234,9.626c-1.85,2.688-4.917,4.942-4.224,8.707l14.387,3.014C6159.512,491.985,6154.744,487.119,6149.385,489.008Zm88.262,42.355c-.506-.78-1.254-1.421-1.334-2.137-.719-6.412-1.182-12.856-2.011-19.253-.451-3.474-1.468-6.874-2.335-10.779-1.268,1.2-2.5,1.832-2.837,2.779-1.646,4.636-5.358,6.029-9.68,6.631-.693.1-1.526-.061-2.063.272-3.145,1.954-6.126,1.507-9.376.091a4.9,4.9,0,0,0-4.264.72c-4.567,3.981-8.864,8.271-13.312,12.393-.337.312-1.093.17-1.654.239a86.082,86.082,0,0,1,8.118-9.912,14.515,14.515,0,0,0,1.146-1.68,5.719,5.719,0,0,0-2.184-.442,36.872,36.872,0,0,0-7.7,2.2c-1.232.585-1.94,2.411-2.71,3.774-.372.659-.113,1.708-.533,2.3-2.177,3.084-1.621,6.08.021,9.022-1.848,1.932-3.472,3.8-3.1,6.793a9.274,9.274,0,0,1-.481,4.723c-3.061,6.83-2.35,10.281,3.313,14.459,2.042-2.617,3.893-5.416,6.17-7.807a114.821,114.821,0,0,1,10.706-10.148,43.974,43.974,0,0,1,8.634-4.989,4.794,4.794,0,0,1,6.81,2.222c1.387,2.576,2.384,5.361,3.633,8.242C6225.73,537.015,6230.918,532.845,6237.646,531.363Zm-27.609,67.887a34.313,34.313,0,0,1,.28,5.507c-.28,2.422-.938,4.8-1.416,7.2a11.1,11.1,0,0,1-.315,2.072c-2.281,5.486-4.385,11.064-7.011,16.382-1.975,4-4.471,7.726-8.437,10.285a4.868,4.868,0,0,0-1.833,6.174c.951,2.495,2.084,4.92,3.026,7.418.848,2.247,3.066,3.245,5.052,2.123,1.061-.6,2.1-1.236,3.157-1.846,6.432-3.715,6.4-3.714,6.477-11.593a41.172,41.172,0,0,1,.526-7.759c.754-3.681,1.98-7.264,2.981-10.9.749-2.719,1.373-5.475,2.216-8.164.526-1.68,1.356-3.264,2.05-4.892,1-2.354,2.009-4.706,3-7.064.772-1.835,1.414-3.737,2.318-5.5,1.564-3.053,3.208-6.071,4.964-9.016,2.128-3.569,4.3-7.123,6.654-10.543,2.065-3,4.4-5.633,4.041-9.794-.355-4.078.069-8.227.2-12.343a28.523,28.523,0,0,1,.4-3l1.012.033.642,15.62,1.1.013a19.636,19.636,0,0,0,.477-3.033c.02-5.826-.135-11.654-.026-17.477.09-4.833-2.035-8.573-4.921-12.22-1.642-2.074-3.473-1.574-4.932-.748a42.081,42.081,0,0,0-5.955,4.74c-2.816,2.365-5.163,4.977-4.011,9.081a39.245,39.245,0,0,1,1.5,4.6c.723,4.867,1.282,9.759,1.825,14.651.154,1.39,0,2.811.042,4.216.183,6.692-.092,13.2-3.2,19.463-2.128,4.282-4.015,6.141-8.82,6.108C6212.014,599.043,6210.935,599.187,6210.038,599.25ZM6509.9,620.965c4.529-.837,8.084-1.433,11.607-2.176a18.973,18.973,0,0,0,4-1.407c1.769-.82,4.352-1.435,4.932-2.828s-.751-3.681-1.48-5.482c-1.8-4.455-3.5-8.98-5.693-13.241-2.156-4.188-4.855-8.1-7.358-12.1a6.429,6.429,0,0,0-5.029-3.23c-4.817-.605-7.6,2.718-10.515,5.3a125.957,125.957,0,0,0-10.9,11.529c-2.115,2.415-5.131,4.619-3.825,8.578.372,1.128,1.246,2.091,1.609,3.219a12.09,12.09,0,0,0,6.869,7.309C6499.372,618.622,6505.1,619.653,6509.9,620.965ZM6185.308,462.125c5.479,4.188,7.868,9.467,7.465,16.1-.225,3.7.022,7.459-.543,11.1-.682,4.392-2.056,8.673-3.016,13.027-.535,2.422-.835,4.895-1.326,7.854a44.323,44.323,0,0,1,4.524-1.567c3.25-.781,6.542-1.386,9.813-2.082a2.185,2.185,0,0,0,1.072-.43c2.518-2.548,4.788-5.4,7.547-7.641,3.964-3.228,7.892-6.86,13.682-6.282a18.315,18.315,0,0,0,2.913-.258c-.937-2.475-1.363-4.94-2.673-6.774a72.364,72.364,0,0,0-8.671-10.335,53.806,53.806,0,0,0-10.283-7.7c-3.358-1.932-7.443-2.606-10.791-4.55S6188.637,461.806,6185.308,462.125Zm-128.086,96.752,6.15,5.221c.849-5.348,2.122-10.544,2.369-15.789a22.62,22.62,0,0,1,4.141-11.733,24.747,24.747,0,0,1,5.872-5.886c.579-.43,2.563.679,3.688,1.41a38.226,38.226,0,0,1,6.4,4.78c1.6,1.61,2.508,3.894,3.971,5.676a4.523,4.523,0,0,0,3,1.719,6.311,6.311,0,0,0,3.5-1.651c.962-.812,2.1-2.015,2.208-3.139.507-5.172,3.536-8.749,7.254-12.343-3.1-1.383-6.075-2.712-9.051-4.036-3.11-1.386-6.183-2.869-9.352-4.11a20,20,0,0,0-5.549-1.349c-.878-.073-1.837,1.289-2.762,1.293-4.473.02-8.082,2.434-11.872,4.194a41.659,41.659,0,0,0-9.9,5.857c-4.319,3.759-9.325,6.916-12.331,12.041-1.75,2.984-4.049,5.721-4.257,9.417a6.508,6.508,0,0,1-.5,1.639c-.528,1.57-1.065,3.136-1.653,4.857,2.716.451,5.221,1.729,5.731-1.554.643-4.143,2.817-7.186,5.815-9.843,2.712-2.4,9.712-1.206,10.287,1.958C6061.1,551.435,6059.189,554.837,6057.222,558.877Zm184.023,16.262-.952.045a4.556,4.556,0,0,0-.527,1.244c-.615,6.447-1.114,12.907-1.812,19.345-.553,5.126-1.331,10.227-2.038,15.335-.051.371-.379.7-.511,1.065-.957,2.686-1.814,5.411-2.863,8.06-1.889,4.775-3.254,9.923-6.014,14.146-3.292,5.036-6.732,10.193-11.874,13.8a4.619,4.619,0,0,0-1.77,5.859,25.136,25.136,0,0,0,3.181,4.476,7.828,7.828,0,0,0,11.1.912c3.627-3.49,5.518-7.943,7.24-12.511.749-1.985,1.563-3.953,2.181-5.981a103.836,103.836,0,0,0,2.981-10.74c.957-5.037,1.484-10.156,2.2-15.239.027-.2.1-.388.146-.583,1.035-4.409,2.759-8.793,2.921-13.234.191-5.244-.859-10.553-1.585-15.8C6242.781,581.91,6241.928,578.536,6241.245,575.138Zm-63.876,1.6-1.334.849c.687,2.863,1.87,5.709,1.968,8.593.3,8.934,1.563,18.036-2.983,26.463a3.613,3.613,0,0,0-.1,2.364c1,3.976,2.233,7.9,3.12,11.894,1.035,4.674,4.013,7.98,7.274,11.133a2.086,2.086,0,0,0,1.542.454c.253-.033.549-.75.6-1.185.587-5,1.129-10.01,1.688-15.016a20.51,20.51,0,0,1,.27-2.08c1.068-4.962,2.182-9.914,3.236-14.878.756-3.565,1.42-7.15,2.189-10.712.091-.422.89-.811.835-1.124-.2-1.156-.271-2.85-1.021-3.311a67.429,67.429,0,0,1-13.021-10.383A29.172,29.172,0,0,0,6177.369,576.736Zm-76.306,36.3c-1.565.817-3.607,1.505-5.151,2.79-1.612,1.341-.218,2.764.639,4.093.344.533.188,1.371.339,2.052a70.866,70.866,0,0,0,2.071,8.779c1.419,3.926,3.244,7.711,5,11.507,1.9,4.106,3.681,8.3,5.961,12.19,2.116,3.612,4.859,6.854,7.257,10.306,1.644,2.366,4.19,3.489,5.8,2.394.67-.457,1.267-1.034,1.973-1.422,3.213-1.768,5.711-7.259,4.007-9.831-3.077-4.637-6.553-9.007-9.836-13.508-2.022-2.773-4.057-5.542-5.967-8.392q-2.577-3.843-4.883-7.867C6105.977,622.123,6103.809,618.045,6101.063,613.041Zm44.65,19.575c1.809-.52,2.807-.762,3.775-1.094,2.223-.765,4.645-1.228,6.594-2.444a64.738,64.738,0,0,0,8.773-6.654c3.828-3.416,6.925-7.112,6.359-13.009-.533-5.565-.146-11.223-.056-16.839a15.536,15.536,0,0,1,.753-3.76c1.216-4.457,1.74-8.867-.948-13a1.959,1.959,0,0,0-1.757-.234,17.347,17.347,0,0,0-1.781,3.54c-.833,2.207-1.424,4.51-2.328,6.684-1.552,3.735-3.279,7.4-4.909,11.1-.643,1.46-1.263,2.932-1.827,4.423-.8,2.132-1.472,4.318-2.333,6.426-1.589,3.888-3.26,7.742-4.931,11.6-1.035,2.389-2.191,4.728-3.182,7.135C6147.124,628.415,6146.5,630.411,6145.713,632.615Zm55.632-58.888c.667-1.134,1.52-2.408,2.19-3.771.834-1.694,1.432-3.507,2.288-5.189,1.631-3.206,3.295-6.4,5.095-9.514a64.52,64.52,0,0,1,4.543-6.94c1.547-2.022,3.3-3.842,2.128-6.67a20.954,20.954,0,0,1-1.382-3.31c-.9-4.086-4.8-6.242-7.778-4.128-2.078,1.476-4.013,3.153-6.082,4.641-6.054,4.355-10.121,10.474-14.475,16.324a2.319,2.319,0,0,0,.026,2.184C6192.21,562.723,6196.621,568.009,6201.345,573.728Zm-127.106,8.925a11.713,11.713,0,0,1-1.295,1.622c-3.279,2.835-5.7,6.006-5.3,10.729.247,2.887.066,5.811.068,8.718,0,4.285,0,8.57,0,12.775,2.141.513,3.922.611,5.375,1.351,3.711,1.89,13.267,1.028,16.421-1.722,2.365-2.061,2.787-8.817.813-11.484-2.026-2.738-4.291-5.38-5.823-8.384A42.817,42.817,0,0,0,6074.238,582.652Zm147.339-9.615.526-.062c-.759-7.167-1.506-14.333-2.3-21.5a5.189,5.189,0,0,0-.687-1.476,9.773,9.773,0,0,0-1.351.844,7.267,7.267,0,0,0-1.549,1.617c-2.39,3.99-4.817,7.961-7.041,12.043a111.177,111.177,0,0,0-5.392,11.034c-.55,1.344-.649,3.691.155,4.627,3.18,3.7,3.128,8.5,4.737,12.692.844,2.2,1.873,3.46,3.922,3.974a4.816,4.816,0,0,0,5.326-2.5,25.856,25.856,0,0,0,3.656-13.472C6221.567,578.255,6221.578,575.646,6221.578,573.037ZM6102.812,566.1c-2.924,4.361-3.432,9.136-3.774,14.076-.219,3.151-1.341,6.253-2.2,9.337-.337,1.209-1.8,2.585-1.495,3.409a109.79,109.79,0,0,0,5.491,12.2c.53,1.013,1.962,2.242,3.435.143,1.951-2.782,4.4-5.207,6.42-7.946a11.365,11.365,0,0,0,2.317-4.807c.592-4.259.109-8.486,1.474-12.873,1.267-4.075,1.5-8.484,3.829-12.307.39-.637.169-1.646.265-2.96C6113.33,567.892,6108.1,566.3,6102.812,566.1Zm109.717,79.336,1.023.258c1.325-1.654,2.684-3.281,3.968-4.966a60.674,60.674,0,0,0,9.7-17.334c.646-1.913,1.332-3.811,1.984-5.721a79.661,79.661,0,0,0,3.034-9.181c1-4.769,1.516-9.638,2.25-14.462.044-.288.247-.553.29-.841.476-3.117.973-6.232,1.352-9.36.05-.406-.53-.89-.818-1.337-.347.287-.813.507-1.019.874-.779,1.382-1.454,2.823-2.2,4.222-2.339,4.363-4.78,8.673-7.008,13.091-1.409,2.794-2.5,5.745-3.745,8.623-1.107,2.566-2.384,5.074-3.288,7.71-.909,2.654-1.414,5.444-2.166,8.156-.562,2.027-.9,4.213-1.921,6C6211.274,635.865,6213.053,640.7,6212.528,645.439Zm-169.6-78.134.8-.179a61.089,61.089,0,0,0,.566-6.423c0-.627-1.147-1.82-1.6-1.745-.763.124-1.5.978-2.055,1.676-.505.632-.576,1.879-1.154,2.134-2.016.888-2.489,2.536-2.432,4.37.121,3.9-.361,7.758,1.6,11.594,1.925,3.771,2.359,8.312,4.316,12.061a58.287,58.287,0,0,0,10.75,15.029c1.107,1.078,2.366,3.616,4.414,1.925.912-2.99,1.691-5.64,2.532-8.272.791-2.479,1.24-5.192,2.581-7.34,1.636-2.626.725-4.937.444-7.511-1.289.879-2.112,2.047-3.206,2.848-1.9,1.389-4.089,3.776-6.4,2.136a18.862,18.862,0,0,1-7.824-11c-.751-3.183-1.2-6.437-1.923-9.628C6044.2,568.345,6043.417,567.858,6042.933,567.3Zm79.985,102.479-.062,1.286c4.137,2.323,8.256,4.68,12.433,6.93.531.287,1.771.286,1.992-.045,1.115-1.67,2.593-3.406,2.868-5.277,1.332-9.043-1.152-17.876-1.965-26.806a2.886,2.886,0,0,0-1.352-1.686c-3.076-1.976-6.492-3.391-8.569-6.785-.768-1.254-2.615-1.953-4.095-2.635a20.411,20.411,0,0,0-4.441-1.332,19.538,19.538,0,0,0-3.421-.036c1.029,1.362,1.619,2.142,2.208,2.924,2.855,3.788,5.757,7.542,8.543,11.38a49.337,49.337,0,0,1,3.97,6.242c.828,1.6,2.024,3.73,1.559,5.123a20.111,20.111,0,0,1-4.334,6.7C6126.79,667.393,6124.718,668.467,6122.918,669.784Zm286.363-121.52-.889-.157c-1.322,2.326-3,4.525-3.9,7-2.078,5.728-4.005,11.534-5.553,17.424-1.068,4.065-1.384,8.327-2.062,12.5-.6,3.68-1.232,7.354-1.863,11.029a1.375,1.375,0,0,1-.329.8c-1.965,1.59-1.243,3.4-.607,5.619a30.24,30.24,0,0,0,2.789-3.2c1.517-2.352,2.647-4.983,4.355-7.174a43.347,43.347,0,0,0,6.739-12.537,34.686,34.686,0,0,1,2.014-5.6c2.026-3.619,2.591-7.634,3.17-11.563.262-1.779-1.094-3.776-1.632-5.7C6410.731,553.9,6410.021,551.077,6409.281,548.264Zm-218.6,89.987,1.1.231c2.6-2.3,5.387-4.378,6.4-8.083a36.641,36.641,0,0,1,2.332-5.4c1.529-3.349,4.021-6.584,4.405-10.057.573-5.159,2.535-10.308.936-15.7-.844-2.843-4.532-5.854-7.092-5.517-.959,1.651-2.148,2.917-2.453,4.369-.841,4.009-1.377,8.087-1.917,12.153-.708,5.347-1.3,10.71-1.963,16.062-.06.475-.411.914-.471,1.389C6191.51,631.215,6191.1,634.734,6190.685,638.25Zm-29.607-81.309c3.726-1.916,5.023-5.7,5.774-9.307.757-3.638,1.494-7.722-2.64-10.58-1.682-1.163-2.881-3.172-3.98-4.989s-3.382-2.854-4.824-1.4c-3.379,3.4-6.556,7.017-9.6,10.722-.4.482.138,2.376.813,2.986C6151.319,548.621,6156.167,552.707,6161.078,556.941Zm-51.487,8.342c4.407-.678,8.153-2.345,10.534-5.207,3.062-3.677,5.13-8.2,7.447-12.459.363-.666.079-2.445-.414-2.692-2.855-1.428-5.852-2.576-8.83-3.747a2.4,2.4,0,0,0-1.461.149,35.7,35.7,0,0,0-3.67,1.375c-.7.319-1.6.737-1.867,1.348-.861,1.969-1.329,4.111-2.206,6.071-1.488,3.325-3.275,6.517-4.693,9.868a3.057,3.057,0,0,0,.714,2.777A26.489,26.489,0,0,0,6109.591,565.284Zm342.366,45.907.89-.163c1.116-14.054.412-27.875-5.853-41.335-.952.248-2.483.2-2.834.818-1.4,2.464-2.989,5.035-3.484,7.753-1.086,5.974.046,11.889,1.906,17.624a19.078,19.078,0,0,0,2.02,4.394C6446.974,603.97,6449.5,607.561,6451.957,611.191Zm-254.894-23.139c1.1-2.462,2.165-4.214,2.633-6.114a6.638,6.638,0,0,0-.328-4.328,44.855,44.855,0,0,0-4.889-7.286c-2.8-3.443-5.825-6.7-8.812-9.991a2.646,2.646,0,0,0-1.52-.55c-.8,1.476-1.524,3-2.191,4.538-1.2,2.774-2.351,5.569-3.584,8.5C6184.074,578.552,6189.8,584.431,6197.063,588.052Zm-75.3-4.32a9.182,9.182,0,0,0-3.114,8.463c.666,5.642,1.231,11.3,2.019,16.922a33.564,33.564,0,0,0,1.8,7.5c1.158,2.976,1.559,6.463,4.438,8.513,1.754,1.248,3.219,3.457,6.408,2.233C6129.5,612.94,6125.691,598.566,6121.764,583.732Zm-49.554-13.056c.717,2.1.967,4.372,2.136,5.971a110.229,110.229,0,0,0,10.294,12.5c1.444,1.464,3.443,3.993,7.056,2.006-.836-2.213-1.633-4.558-2.6-6.83-1.51-3.543-3.35-6.961-4.65-10.575a98.458,98.458,0,0,1-2.454-9.725C6077.674,565.123,6073.445,565.879,6072.21,570.676Zm40.511,27.48c-2.545,3.184-4.534,5.538-6.356,8.015-.843,1.145-1.214,2.358.552,3.384a5.94,5.94,0,0,1,2.392,2.748c1.412,3.6,2.581,7.294,3.827,10.958,1.741,5.115,5.871,7.717,10.866,10.445a20.649,20.649,0,0,0-.347-3.625c-.357-1.214-1.089-2.313-1.516-3.513-.9-2.534-1.52-5.185-2.592-7.639-2.124-4.859-4.49-9.573-4.849-15.04C6114.575,602.041,6113.477,600.259,6112.721,598.156Zm29.485-54.084-6.476,6.444c1.524.941,2.132,1.129,2.451,1.542,3.283,4.241,6.515,8.521,9.771,12.783,1,1.3,1.833,2.366,3.471.416,1-1.2,2.708-1.81,4.108-2.666,3.423-2.093,3.656-3.116.827-5.764C6151.994,552.744,6147.487,548.815,6142.206,544.071Zm222.06,83.961c.791,3.172,1.336,5.636,2.044,8.053.268.916.74,2.242,1.416,2.46,1.085.351,2.875.416,3.564-.241a78.627,78.627,0,0,0,7.582-8.328,72.426,72.426,0,0,0,5.3-8.113,23.3,23.3,0,0,0,1.937-4.748c.168-.529-.223-1.235-.357-1.861-.5.312-1.015.6-1.5.94-5.587,3.906-10.973,8.138-17.777,9.91C6365.507,626.356,6364.787,627.557,6364.266,628.032ZM6048,569.89c.112,2.107-.138,3.806.354,5.251.906,2.653,2.34,5.121,3.384,7.734,1.224,3.061,4.7,4.825,6.5,2.86,3.391-3.707,6.772-7.524,5.911-13.3-.269-1.806-.973-2.513-2.56-2.53C6057.2,569.86,6052.819,569.89,6048,569.89Zm34.318-9.53c-.505-5.085.563-9.562,5.061-12.751.5-.354.518-2.374,0-3.011-2.729-3.384-5.69-6.581-8.591-9.826-1.251-1.4-2.417-1.468-3.862-.04-1.545,1.528-2.489,2.783-.8,4.882,2.688,3.336,5.427,6.808,4.575,11.505-.682,3.747-1.715,7.429-2.816,12.09Zm97.737-42.816-.689-.7c-2.516,1.443-5.036,2.878-7.546,4.331-2.567,1.486-5.123,2.991-7.2,4.2,1,2.456,1.919,4.856,2.948,7.207,1.231,2.806,2.554,5.571,4.135,9,1.886-3.756,3.394-6.469,4.623-9.3.941-2.17,1.026-4.88,2.393-6.657C6180.813,522.9,6179.745,520.234,6180.05,517.544Zm-45.512,20.692c-3.677-2.556-7.136-5.26-10.892-7.456-2.193-1.282-4.84-1.817-7.326-2.532-.473-.136-1.248.363-1.683.778-.135.128.28,1.042.625,1.434a5.979,5.979,0,0,1,1.25,6.71l-3.349.84.088,1.129c2.195.087,4.409.028,6.579.31a19.442,19.442,0,0,1,4.5,1.344c1.3.511,2.453,1.537,3.776,1.8a4.486,4.486,0,0,0,3.187-.81A24.721,24.721,0,0,0,6134.538,538.236Zm72.481-32.608q.076.54.151,1.08c4.209.416,8.636,1.024,12.653-.242,4.453-1.4,7.415-5,8.5-10.466-1.265-.542-2.769-1.749-4.193-1.659a11.45,11.45,0,0,0-5.8,1.978C6214.394,499.2,6210.768,502.5,6207.019,505.628Zm-115.478,77.224c4.585-6.98,4.732-10.988,1.284-25.3-4.384-.473-7.158,2.021-6.724,6.371.182,1.821,1.112,3.558,1.627,5.355C6089.022,573.8,6090.273,578.328,6091.541,582.852Zm53.774-94.136c-3.359.6-6.8.825-9.908,1.955-1.269.461-3.887,2.636-2.114,4.531,3.455,3.691,7.519,6.813,12.021,10.779Zm-72.823,52.574c-4.207,2.252-3.5,6.963-4,10.248-.722,4.647.865,9.653,1.465,14.5l1.074-.13C6074.342,557.95,6077.706,549.991,6072.492,541.29Zm368.53,60.024c-.568,9.029,3.434,16.2,9.335,22.718,3.345-3.412,3.675-8.329.735-10.341A26.432,26.432,0,0,1,6441.021,601.315Zm-265.5-32.7c.746-.508,1.856-.9,2.34-1.674a34.3,34.3,0,0,0,2.174-4.774,27.545,27.545,0,0,0,2.075-5.185c.49-2.467-1.667-4.135-3.316-4.637-2.205-.672-1.887,1.942-2.425,3.367-.928,2.454-2.11,4.814-2.986,7.285a4.78,4.78,0,0,0,0,3C6173.706,566.888,6174.624,567.563,6175.524,568.617Zm178.123-43.268-1.082-.613c-.808.645-2.126,1.155-2.336,1.957-.893,3.4-1.43,6.887-2.158,10.329-.2.956-.636,1.861-.934,2.8a9.844,9.844,0,0,0,0,6.8c1.993-3.314,3.554-6.631,5.129-9.941.438-.92,1.261-1.8,1.319-2.732C6353.756,531.093,6353.646,528.218,6353.646,525.35Zm-296.608,21.9-.911-1.12a17.718,17.718,0,0,0-4.09,1.791c-1.436,1.113-3.031,2.5-3.6,4.1-.5,1.4-.035,4.513.627,4.7,1.78.513,5.15.51,5.636-.439C6056.076,553.579,6056.338,550.3,6057.038,547.248Zm193.8,21.26-1.2-.958a28.812,28.812,0,0,0-3.477,2.029,2.789,2.789,0,0,0-.931,1.926c-.079,4.747-.041,9.495-.041,14.242l1.411.131C6250.219,580.609,6248.3,574.032,6250.834,568.507ZM6061.111,631.18l1.137.286a46.155,46.155,0,0,0,1.954-4.651c.374-1.223-.07-2.88.6-3.791,1.59-2.158.142-3.908-.628-5.438-.526-1.045-2.4-1.41-3.675-2.079-.446,1.174-1.372,2.4-1.252,3.512C6059.681,623.093,6060.462,627.13,6061.111,631.18Zm1.343-63.272.214-1.019c-1.91-1.439-3.75-3.9-5.752-4.038-2.084-.148-4.327,1.938-6.659,3.128l-1.143-3.416-.821.185v5.16Zm46.911-34.589a4.581,4.581,0,0,0-.039-1.776,26.168,26.168,0,0,0-1.773-2.865,8.267,8.267,0,0,0-1.938,1.573,27.076,27.076,0,0,0-3.18,5.557c-1.063,2.979.313,4.469,3.393,3.639C6108.791,538.65,6109.47,536.108,6109.366,533.319ZM6127.04,629.7c.777,1.376,1.337,2.3,1.831,3.255,1.105,2.143,4.522,2.465,4.374,5.736-.024.546,1.666,1.169,2.565,1.757l.875-.813c-.445-.905-.888-1.813-1.341-2.715-.245-.489-.688-.952-.736-1.456C6134.114,630.267,6133.2,629.446,6127.04,629.7Zm-31.9-76.083a16.168,16.168,0,0,0,.028,3.034c.611,2.8,1.344,5.576,2.032,8.36a4.307,4.307,0,0,0,.167.547c.715-.171,1.9-.2,2.046-.6a8.423,8.423,0,0,0,.727-4.2,53.387,53.387,0,0,0-2.429-7.005Zm-21.286,26.365c-2.049-1.075-2.062-4.061-4.892-2.959-1.791.7-2.871,4.07-2.229,7.229C6070.516,585.258,6070.727,580.869,6073.851,579.983Zm125.036,9.6,6.336,4.065c-.268-1.636-.333-2.538-.576-3.39-.307-1.077-1.015-2.1-1.091-3.171-.155-2.183-1.092-3-3.1-2.573C6199.978,586.067,6199.534,587.5,6198.887,589.585Zm-134.92,11.226-.927.013a8.508,8.508,0,0,0-.41,1c-.606,2.211-1.129,4.448-1.807,6.637-.844,2.727.647,4.808,3.144,4.545Zm107.976-42.062c3.112-6.4,3.547-9.556,1.65-12C6170.557,550.851,6169.894,555.668,6171.943,558.75Zm-75.716,42.3-.829.045v10.589l3.775-.594C6098.144,607.58,6097.185,604.315,6096.227,601.05Zm48.46,25.907c-.531-.273-.9-.586-1.022-.508-1.891,1.228-3.748,2.507-6.026,4.054.417.925.662,2.6,1.407,2.866a2.324,2.324,0,0,0,3.27-1.874C6142.687,629.991,6143.764,628.662,6144.687,626.957Zm-38.4-79.882-1.078-.321a7.286,7.286,0,0,0-1.718,10.5C6104.468,553.7,6105.377,550.388,6106.288,547.075Zm-20.462,9.683.985.514a35.135,35.135,0,0,0,3.164-2.893c.594-.678,1.382-1.912,1.129-2.44-.444-.93-1.619-1.51-2.855-2.544Zm18.625-34.909c-2.439-.975-4.408-2.3-6.452-2.43-2.125-.138-3.775-3.577-6.3-.956C6101.82,523.336,6101.82,523.336,6104.451,521.849Zm-3.377,24.466c1.958-1.224,3.678-2.229,5.31-3.361a5.946,5.946,0,0,0,1.148-1.585c-.716-.193-1.61-.757-2.114-.513a47.65,47.65,0,0,0-4.623,2.853Zm-7.453,3.991c3.339-.141,3.769-.562,3.406-3.71-.076-.661-.8-1.761-1.251-1.772C6094.086,544.783,6092.991,547.593,6093.621,550.305Zm156.358,41.612-.757-.005v7.607l.757,0Zm-71.607-53.706-1.272-.43c-.814,1.84-1.667,3.665-2.4,5.537-.112.284.256.876.561,1.151a1.083,1.083,0,0,0,.973-.289C6177,542.208,6177.672,540.2,6178.373,538.211Zm-90.729,55.509c1.161,1.933,2.04,3.4,2.917,4.859l.532-.142v-5.113Zm88.3-1.463-.714-.066V598.3h.714Zm98.576-49.695.992.031q.126-2.6.25-5.2l-1.243-.04Z" transform="translate(-5706.685 4888.594)" fill="#00817d" opacity="0.49"/>
    </g>
  </g>
</svg>
