<svg xmlns="http://www.w3.org/2000/svg" width="319.566" height="297.894" viewBox="0 0 319.566 297.894">
  <g id="Grupo_141261" data-name="Grupo 141261" transform="translate(-1058.611 -408.445)">
    <g id="Grupo_80731" data-name="Grupo 80731" transform="translate(1033.258 395)">
      <g id="Grupo_80723" data-name="Grupo 80723" transform="translate(25.354 67.006)">
        <g id="Grupo_80709" data-name="Grupo 80709" transform="translate(49.112 130.362)">
          <rect id="Rectángulo_23101" data-name="Rectángulo 23101" width="50.27" height="2.134" transform="translate(48.68 14.61) rotate(-165.55)" fill="#dde9f5"/>
        </g>
        <g id="Grupo_80710" data-name="Grupo 80710" transform="translate(44.714 159.093)">
          <rect id="Rectángulo_23102" data-name="Rectángulo 23102" width="2.134" height="68.901" transform="translate(0.751 26.255) rotate(-110.613)" fill="#dde9f5"/>
        </g>
        <g id="Grupo_80711" data-name="Grupo 80711" transform="translate(71.695 76.581)">
          <rect id="Rectángulo_23103" data-name="Rectángulo 23103" width="58.685" height="2.134" transform="translate(38.315 45.844) rotate(-130.761)" fill="#dde9f5"/>
        </g>
        <g id="Grupo_80712" data-name="Grupo 80712" transform="translate(149.409 29.328)">
          <rect id="Rectángulo_23104" data-name="Rectángulo 23104" width="2.134" height="58.769" transform="translate(2.079 57.746) rotate(-167.014)" fill="#dde9f5"/>
        </g>
        <g id="Grupo_80713" data-name="Grupo 80713" transform="translate(215.306 184.006)">
          <rect id="Rectángulo_23105" data-name="Rectángulo 23105" width="34.257" height="2.134" transform="translate(26.341 23.542) rotate(-140.258)" fill="#dde9f5"/>
        </g>
        <g id="Grupo_80714" data-name="Grupo 80714" transform="translate(204.781 146.742)">
          <rect id="Rectángulo_23106" data-name="Rectángulo 23106" width="2.134" height="67.973" transform="translate(0.07 4.373) rotate(-91.888)" fill="#dde9f5"/>
        </g>
        <g id="Grupo_80715" data-name="Grupo 80715" transform="translate(192.209 44.524)">
          <rect id="Rectángulo_23107" data-name="Rectángulo 23107" width="2.134" height="69.907" transform="matrix(-0.734, -0.68, 0.68, -0.734, 1.566, 52.73)" fill="#dde9f5"/>
        </g>
        <g id="Grupo_80716" data-name="Grupo 80716" transform="translate(146.535 99.329)">
          <rect id="Rectángulo_23108" data-name="Rectángulo 23108" width="2.134" height="105.141" transform="translate(1.128 57.408) rotate(-121.923)" fill="#dde9f5"/>
        </g>
        <ellipse id="Elipse_4682" data-name="Elipse 4682" cx="15.128" cy="15.128" rx="15.128" ry="15.128" transform="translate(231.932 77.029)" fill="#dde9f5"/>
        <ellipse id="Elipse_4683" data-name="Elipse 4683" cx="79.973" cy="79.973" rx="79.973" ry="79.973" transform="translate(67.126 75.249)" fill="#dde9f5"/>
        <circle id="Elipse_4684" data-name="Elipse 4684" cx="20.851" cy="20.851" r="20.851" transform="translate(29.487 220.481) rotate(-135)" fill="#dde9f5"/>
        <circle id="Elipse_4685" data-name="Elipse 4685" cx="25.205" cy="25.205" r="25.205" transform="translate(57.657 97.688) rotate(-135)" fill="#dde9f5"/>
        <circle id="Elipse_4686" data-name="Elipse 4686" cx="13.018" cy="13.018" r="13.018" transform="translate(39.429 147.331) rotate(-135)" fill="#dde9f5"/>
        <path id="Trazado_181190" data-name="Trazado 181190" d="M1064.343,1152.248a6.556,6.556,0,0,1,6.556,6.556c0,3.621-6.556,14.148-6.556,14.148s-6.556-10.527-6.556-14.148A6.556,6.556,0,0,1,1064.343,1152.248Zm0,9.857a3.3,3.3,0,1,0-3.3-3.3A3.3,3.3,0,0,0,1064.343,1162.1Z" transform="translate(-817.283 -1069.909)" fill="#f5f9fd"/>
        <circle id="Elipse_4687" data-name="Elipse 4687" cx="21.437" cy="21.437" r="21.437" transform="translate(253.58 60.634) rotate(-135)" fill="#dde9f5"/>
        <circle id="Elipse_4688" data-name="Elipse 4688" cx="20.851" cy="20.851" r="20.851" transform="translate(290.079 176.546) rotate(-135)" fill="#dde9f5"/>
        <circle id="Elipse_4689" data-name="Elipse 4689" cx="14.262" cy="14.262" r="14.262" transform="translate(252.076 232.74) rotate(-135)" fill="#dde9f5"/>
        <g id="Grupo_80718" data-name="Grupo 80718" transform="translate(16.069 175.855)">
          <g id="Grupo_80717" data-name="Grupo 80717">
            <path id="Trazado_181191" data-name="Trazado 181191" d="M3032.939,2030.957l15.437-4.207,6.671,24.479-21.273,5.8-5.562-20.411Z" transform="translate(-3028.212 -2026.75)" fill="#f5f9fd"/>
            <rect id="Rectángulo_23109" data-name="Rectángulo 23109" width="10.293" height="1.672" transform="matrix(-0.965, 0.263, -0.263, -0.965, 20.801, 9.695)" fill="#eaf4fe"/>
            <rect id="Rectángulo_23110" data-name="Rectángulo 23110" width="18.179" height="1.672" transform="translate(21.477 12.177) rotate(164.755)" fill="#eaf4fe"/>
            <rect id="Rectángulo_23111" data-name="Rectángulo 23111" width="18.179" height="1.672" transform="translate(22.154 14.658) rotate(164.755)" fill="#eaf4fe"/>
            <rect id="Rectángulo_23112" data-name="Rectángulo 23112" width="18.179" height="1.672" transform="translate(22.83 17.139) rotate(164.755)" fill="#eaf4fe"/>
          </g>
          <path id="Trazado_181192" data-name="Trazado 181192" d="M3236.274,2065.167l.329,4.74-5.057.918Z" transform="translate(-3231.51 -2061.058)" fill="#eaf4fe"/>
        </g>
        <path id="Trazado_181193" data-name="Trazado 181193" d="M951.848,549.343l1.633,1.227a14.618,14.618,0,0,1-.834,2.371l-2.04-.064a4.089,4.089,0,0,0-4.177,4.661l.287,2.021a14.621,14.621,0,0,1-2.266,1.089l-1.4-1.489a4.089,4.089,0,0,0-6.25.342l-1.227,1.633a14.586,14.586,0,0,1-2.371-.834l.065-2.04a4.089,4.089,0,0,0-4.662-4.177l-2.021.287A14.616,14.616,0,0,1,925.5,552.1l1.489-1.4a4.089,4.089,0,0,0-.343-6.25l-1.633-1.227a14.61,14.61,0,0,1,.834-2.371l2.04.064a4.089,4.089,0,0,0,4.177-4.661l-.287-2.021a14.608,14.608,0,0,1,2.266-1.088l1.4,1.489a4.089,4.089,0,0,0,6.25-.342l1.227-1.633a14.591,14.591,0,0,1,2.371.835l-.065,2.04a4.089,4.089,0,0,0,4.661,4.177l2.021-.287a14.611,14.611,0,0,1,1.089,2.266l-1.489,1.4A4.089,4.089,0,0,0,951.848,549.343Zm-12.958-8.954a6.52,6.52,0,1,0,6.866,6.153A6.52,6.52,0,0,0,938.89,540.389Z" transform="translate(-685.667 -516.582)" fill="#f5f9fd"/>
        <g id="Grupo_80720" data-name="Grupo 80720" transform="translate(41.451 49.05)">
          <g id="Grupo_80719" data-name="Grupo 80719" transform="translate(0)">
            <path id="Trazado_181194" data-name="Trazado 181194" d="M2780.61,865.935l-25.146-.685a2.614,2.614,0,0,1-2.542-2.684l.52-19.071a2.613,2.613,0,0,1,2.684-2.542l25.146.685a2.614,2.614,0,0,1,2.542,2.684l-.519,19.071A2.614,2.614,0,0,1,2780.61,865.935Z" transform="translate(-2752.921 -840.952)" fill="#f5f9fd"/>
            <path id="Trazado_181195" data-name="Trazado 181195" d="M2803.4,1059.587l7.014,6.809.352-6.947Z" transform="translate(-2785.27 -1036.084)" fill="#f5f9fd"/>
          </g>
          <path id="Trazado_181196" data-name="Trazado 181196" d="M2955.8,944.868a1.075,1.075,0,1,0-1.339.721A1.074,1.074,0,0,0,2955.8,944.868Z" transform="translate(-2946.425 -932.52)" fill="#dde9f5"/>
          <path id="Trazado_181197" data-name="Trazado 181197" d="M2888.448,950.655a1.075,1.075,0,1,0-1.338.72A1.075,1.075,0,0,0,2888.448,950.655Z" transform="translate(-2871.869 -937.688)" fill="#dde9f5"/>
          <path id="Trazado_181198" data-name="Trazado 181198" d="M2820.652,953.514a1.075,1.075,0,1,0-1.338.72A1.075,1.075,0,0,0,2820.652,953.514Z" transform="translate(-2796.823 -940.24)" fill="#dde9f5"/>
        </g>
        <g id="Grupo_80721" data-name="Grupo 80721" transform="translate(280.74 136.038)">
          <rect id="Rectángulo_23113" data-name="Rectángulo 23113" width="6.167" height="14.449" transform="translate(14.933 5.829)" fill="#f5f9fd"/>
          <rect id="Rectángulo_23114" data-name="Rectángulo 23114" width="6.167" height="17.811" transform="translate(7.533 2.467)" fill="#f5f9fd"/>
          <rect id="Rectángulo_23115" data-name="Rectángulo 23115" width="6.167" height="20.278" transform="translate(0)" fill="#f5f9fd"/>
        </g>
        <g id="Grupo_80722" data-name="Grupo 80722" transform="translate(150.14 0.582)">
          <ellipse id="Elipse_4690" data-name="Elipse 4690" cx="16.049" cy="16.049" rx="16.049" ry="16.049" transform="translate(0)" fill="#dde9f5"/>
          <path id="Trazado_181199" data-name="Trazado 181199" d="M1814.354,446.268a4.623,4.623,0,1,1,5.772,0,6.952,6.952,0,0,1,4.071,6.325v5.966h-13.914v-5.966A6.953,6.953,0,0,1,1814.354,446.268Z" transform="translate(-1801.191 -432.656)" fill="#f5f9fd"/>
        </g>
        <path id="Trazado_181200" data-name="Trazado 181200" d="M1013.543,2283.427a6.653,6.653,0,0,1,8.277,10.368l3.839,5.657a1.028,1.028,0,1,1-1.7,1.155l-3.839-5.658a6.653,6.653,0,0,1-6.576-11.523Zm-1.033,8.746a5.766,5.766,0,1,0,1.534-8.008A5.766,5.766,0,0,0,1012.51,2292.173Z" transform="translate(-767.177 -2079.098)" fill="#f5f9fd"/>
        <path id="Trazado_181201" data-name="Trazado 181201" d="M2995.71,1530.833l3.549,1.865a.833.833,0,0,0,1.209-.878l-.678-3.952a.833.833,0,0,1,.24-.738l2.87-2.8a.833.833,0,0,0-.462-1.422l-3.967-.576a.834.834,0,0,1-.628-.456l-1.775-3.6a.833.833,0,0,0-1.495,0l-1.774,3.6a.834.834,0,0,1-.628.456l-3.968.576a.834.834,0,0,0-.462,1.422l2.871,2.8a.832.832,0,0,1,.24.738l-.678,3.952a.833.833,0,0,0,1.209.878l3.548-1.865A.834.834,0,0,1,2995.71,1530.833Z" transform="translate(-2955.894 -1396.388)" fill="#f5f9fd"/>
      </g>
      <path id="Trazado_181202" data-name="Trazado 181202" d="M1511.6,1230.5a88.589,88.589,0,0,0-.821,18.354,80.8,80.8,0,0,0,3.279,18.185,117.3,117.3,0,0,0,6.852,17.16c2.645,5.537,5.531,10.911,7.887,16.457a59.671,59.671,0,0,1,4.9,17.16c.18,1.474.291,2.958.324,4.444a33.836,33.836,0,0,1-.158,4.413,34.589,34.589,0,0,1-2.04,8.582,43.114,43.114,0,0,1-9.883,14.8,60.3,60.3,0,0,1-6.846,5.952q-1.818,1.373-3.738,2.612c-1.275.833-2.577,1.631-3.93,2.34a52.407,52.407,0,0,0,8.115-4.308,58.007,58.007,0,0,0,7.355-5.592,48.7,48.7,0,0,0,6.287-6.858,38.964,38.964,0,0,0,4.678-8.13,33.889,33.889,0,0,0,2.447-9.122,36.232,36.232,0,0,0,.274-4.73c0-1.566-.085-3.134-.241-4.694a61.353,61.353,0,0,0-4.98-17.975c-2.475-5.677-5.38-11.073-8.086-16.512a129.532,129.532,0,0,1-7.154-16.659,87.536,87.536,0,0,1-3.99-17.651A107.679,107.679,0,0,1,1511.6,1230.5Z" transform="translate(-1287.844 -1108.344)" fill="#233142"/>
      <path id="Trazado_181203" data-name="Trazado 181203" d="M1661.077,823.677c-.372-17.128-27.032-26.266-44.477-28.07-24.863-2.572-31.841-5.975-42.243-9.164s-24.926,9.942-22.619,37.065c1.474,17.333,13.093,25.79,13.671,37.774,1,20.789,6.942,22.616-11.037,53-18.262,30.864,22.01,62.814,46.55,69.751s59.467-10.8,67.8-31.985c7.656-19.458-.261-39.562-7.3-57.333S1661.5,843.18,1661.077,823.677Z" transform="translate(-1428.598 -721.344)" fill="#233142"/>
      <path id="Trazado_181204" data-name="Trazado 181204" d="M2470.668,2210.111c-.427-1.137-16.846-7.25-18.907-6.4s-9.072,8.21-9.072,8.21c1.473,4.727,13.905,8.951,19.662,9.86S2471.095,2211.248,2470.668,2210.111Z" transform="translate(-2343.008 -1955.536)" fill="#df3b99"/>
      <path id="Trazado_181205" data-name="Trazado 181205" d="M2342.657,2168.333c13.647-.285,21.633,2.821,22.433,4.847s-9.912,33.585-11.547,37.992-4.931,12.21-4.931,12.21c-14.784,1.457-22.58-7.389-21.308-17.413.794-6.257,4.75-14.814,5.819-18.339A69.58,69.58,0,0,1,2342.657,2168.333Z" transform="translate(-2222.481 -1924.79)" fill="#ffc5a6"/>
      <path id="Trazado_181206" data-name="Trazado 181206" d="M2408.7,2304.393l-5.137,13.442-8.821,3.436,12.772,4.388.308.018c2.184-8.027,4.407-17.249,3.921-18.481A9.3,9.3,0,0,0,2408.7,2304.393Z" transform="translate(-2277.904 -2043.257)" fill="#f0a17d"/>
      <path id="Trazado_181207" data-name="Trazado 181207" d="M2372.027,1879.346a206.4,206.4,0,0,0-14.578,25.12,106.878,106.878,0,0,1-16.835,25.138c8.956-3.732,27.808.96,34.1,8.956,5.886,7.482,7.13-31.453,7.13-31.453Z" transform="translate(-2240.933 -1673.218)" fill="#ff3dac"/>
      <path id="Trazado_181208" data-name="Trazado 181208" d="M1692.685,2266.723c-6.527,2.2-18.255,2.692-18.255,2.692l4.811-18.02,11.318,7.123Z" transform="translate(-1465.56 -1997.118)" fill="#df3b99"/>
      <path id="Trazado_181209" data-name="Trazado 181209" d="M1757.673,1757.64l-30.614,15.495,3.212,14.458s-11.133,19.625-11.728,25.731c-.853,8.743,3.134,15.966,3.341,19.05-.771,13.079-1.717,26.631-1.717,26.631s70.512,4.407,70.938,4.122,17.06-53.073,17.06-53.073l9.231-33.408-35.892-18.12Z" transform="translate(-1595.965 -1567.262)" fill="#ff0092"/>
      <path id="Trazado_181210" data-name="Trazado 181210" d="M1918.649,2183.7c.019-.2.05-.4.089-.627,10.147,6.143,24.114,2.576,34.669,3.88s25.44,3.01,34.151-1.788.648,24.323.648,24.323-6.533,4.892-12.616,2.972-13.974-9.489-26.022-9.809-19.654,4.356-27.579.1C1921.782,2199.662,1917.8,2192.439,1918.649,2183.7Z" transform="translate(-1796.071 -1937.635)" fill="#e10784"/>
      <path id="Trazado_181211" data-name="Trazado 181211" d="M1918.441,1441.457c3.026,8.623,8.986,32.927,5.525,40.234-2.414,1.222-6.67,3.211-8.679,4.393-1.521,7,1.485,30.192,8,31.4,5.76,1.071,32.624-26.375,34.975-29.627-4.128-2.113-8.141-4.11-10.465-5.284.92-16.49,3.67-22.035,3.67-22.035S1936.247,1436.019,1918.441,1441.457Z" transform="translate(-1762.259 -1291.313)" fill="#ffc5a6"/>
      <path id="Trazado_181212" data-name="Trazado 181212" d="M2107.315,1809.329l11.894,1.335,6.493,22.113h0a39.961,39.961,0,0,1-7.662,5.12c-.294-3.357-.5-8.146-1.164-10.074-2.968-3.117-8.115-11.244-9.643-15.76,0-.952.019-1.846.075-2.649,0-.03,0-.051.007-.083Z" transform="translate(-1954.59 -1612.262)" fill="#f0a17d"/>
      <path id="Trazado_181213" data-name="Trazado 181213" d="M2058.542,1668.61c-1.886,1.714-3.775,3.369-5.591,4.881-.713-8.463-2.439-28.735-2.62-29.094-.229-.454,3.064-16.369,3.064-16.369l2.332,1.646c-.206,6.174-.206,26.181.023,31.486C2055.818,1662.746,2057.461,1665.873,2058.542,1668.61Z" transform="translate(-1880.062 -1454.424)" fill="#f0a17d"/>
      <path id="Trazado_181214" data-name="Trazado 181214" d="M1996.69,1461l-.024.053-.008.018-.041.094-.01.024-.061.147-.006.014c-.1.255-.25.645-.428,1.186l-.01.031q-.062.191-.129.406l-.01.031c-.192.622-.41,1.4-.64,2.349,0,.017-.008.035-.012.053q-.077.32-.156.667l-.025.109q-.076.338-.153.7c-.007.034-.015.068-.022.1-.058.275-.116.559-.174.855l-24.874,1.779c-.38-3.578-1.043-7.462-1.827-11.232.46-6.891.705-13.068-.677-17.214.08-.007.159-.009.238-.015l13.658,3.958c9.162,5.806,15.407,15.85,15.407,15.85l-.009.018Z" transform="translate(-1807.496 -1291.743)" fill="#f0a17d"/>
      <path id="Trazado_181215" data-name="Trazado 181215" d="M2075.74,2447.714s-48.037,6.831-58.595,5.377c-12.9-1.778-18.279-9.792-18.273-17.026,0-3.1,6.993-8.152,16.388-7.788,16.839.652,60.734,8.009,62.38,8.262C2082.111,2441.993,2075.74,2447.714,2075.74,2447.714Z" transform="translate(-1894.094 -2151.093)" fill="#ffc5a6"/>
      <path id="Trazado_181216" data-name="Trazado 181216" d="M1795.87,2563.222" transform="translate(-1584.462 -2268.59)" fill="#f0a17d"/>
      <g id="Grupo_80725" data-name="Grupo 80725" transform="translate(172.713 279.804)">
        <path id="Trazado_181217" data-name="Trazado 181217" d="M1578.467,2476.94l19.326-12.628,1.751,2.95-19.971,13.12Z" transform="translate(-1532.714 -2462.284)" fill="#ff7e67"/>
        <path id="Trazado_181218" data-name="Trazado 181218" d="M1595.938,2478.758l-17.471,11.542s.167.609.35,1.207l17.763-11.669Z" transform="translate(-1529.749 -2474.861)" fill="#e04545"/>
        <path id="Trazado_181219" data-name="Trazado 181219" d="M1707.467,2488.582c11.859.847,37.575,2.37,39.22,2.576a4.972,4.972,0,0,1,4.4,3.028,43.947,43.947,0,0,1,2.212,5.3c.218.867.5,5.276-.893,7.5-.469.75-2.356.7-3.255.541a3.64,3.64,0,0,1-2.289-1.16,9.982,9.982,0,0,1-4.34,2.2,7.418,7.418,0,0,1-3.05,3.221,1.924,1.924,0,0,1-1.039.2c-.515,1.408-2.863,2.905-2.863,2.905-1.317.432-7.676-1.731-8.381-2.307s-.906-3.568-.8-3.955c-2.461-.4-14.628-5.718-16.367-6.984C1707.191,2499.578,1696.742,2493.335,1707.467,2488.582Z" transform="translate(-1702.732 -2483.413)" fill="#ffc5a6"/>
        <path id="Trazado_181220" data-name="Trazado 181220" d="M1857.911,2643.491c.105-.015,6.754,1.863,6.754,1.863l.255,2.229a12.609,12.609,0,0,0-.68-1.516c-.083-.006-6.385-1.792-6.385-1.792Z" transform="translate(-1834.247 -2618.275)" fill="#f0a17d"/>
        <path id="Trazado_181221" data-name="Trazado 181221" d="M1782.073,2597.248l-.036,5.925s.274-.062.693-.192Z" transform="translate(-1742.243 -2578.016)" fill="#f0a17d"/>
        <path id="Trazado_181222" data-name="Trazado 181222" d="M1813.839,2629.389l.066-5.952.6,5.894A1.161,1.161,0,0,1,1813.839,2629.389Z" transform="translate(-1778.135 -2600.816)" fill="#f0a17d"/>
        <path id="Trazado_181223" data-name="Trazado 181223" d="M1738.308,2580.34c.33-2.965.446-6.791.446-6.791l1.567,2.834a2.558,2.558,0,0,1-.922-.792,49.589,49.589,0,0,0-.015,5.551C1738.938,2581.062,1738.308,2580.34,1738.308,2580.34Z" transform="translate(-1694.176 -2557.384)" fill="#f0a17d"/>
        <g id="Grupo_80724" data-name="Grupo 80724" transform="translate(65.063)">
          <path id="Trazado_181224" data-name="Trazado 181224" d="M1560.058,2453.473l-4.113,1.4s-.15.4.45.784a.8.8,0,0,0,.66,1.086s-.073,1.126.641,1.08l2.917-3.462A1.281,1.281,0,0,1,1560.058,2453.473Z" transform="translate(-1555.929 -2452.848)" fill="#ffc5a6"/>
          <path id="Trazado_181225" data-name="Trazado 181225" d="M1546.06,2449.269a1.28,1.28,0,0,0,.555.891l1.277-1.516Z" transform="translate(-1541.931 -2448.644)" fill="#233142"/>
        </g>
      </g>
      <path id="Trazado_181226" data-name="Trazado 181226" d="M1708.38,2165.927c13.162,7.335,21.633-1.785,26.862-12.484,2.892-5.917,16.4-47.1,16.4-47.1l-23.206,2.52Z" transform="translate(-1528.916 -1870.838)" fill="#f0a17d"/>
      <path id="Trazado_181227" data-name="Trazado 181227" d="M1700.816,1903.873c3.825,1.913,4.771,6.9,5.573,16.441,1.305,15.536.746,43.459.591,43.821-9.313-8.133-34.5-11.3-34.5-11.3C1678.448,1923.853,1691,1902.819,1700.816,1903.873Z" transform="translate(-1479.856 -1694.538)" fill="#ff3dac"/>
      <path id="Trazado_181228" data-name="Trazado 181228" d="M1886.262,1863.18s3.37,51.061,4.921,65.727,14.683,22.84,22.1,18.854,11.215-14.31,7.95-24.2c-1.59-4.819-24.171-66.877-25.035-68.516C1889.09,1852.23,1886.262,1863.18,1886.262,1863.18Z" transform="translate(-1722.697 -1651.656)" fill="#ffc5a6"/>
      <g id="Grupo_80727" data-name="Grupo 80727" transform="translate(139.961 84.078)">
        <path id="Trazado_181229" data-name="Trazado 181229" d="M1875.152,1051.353c1.975-4.261,14.166-19.871,25.272-17.5,19.038,4.071,31.106,14.037,27.033,33.074-2.9,13.544-7.589,18.015-12.167,25.631-11.807,13.711-31.9,20.111-38.356,18.731-7.557-1.617-11.37-22.843-11.058-26.173.9-9.545,3.648-11.082,5.984-19.9C1873.267,1059.911,1873.85,1054.161,1875.152,1051.353Z" transform="translate(-1865.857 -1021.013)" fill="#ffc5a6"/>
        <path id="Trazado_181230" data-name="Trazado 181230" d="M1753.04,941.258c-7.3,22.294,18.19,47.461,46.286,53.833,12.191-12.211-8.732-49.715-18.868-56.4S1753.04,941.258,1753.04,941.258Z" transform="translate(-1725.88 -936.263)" fill="#233142"/>
        <path id="Trazado_181231" data-name="Trazado 181231" d="M1711.408,1042.139c4.566,6.8,1.607,17.84,1.607,17.84-21.185-6.007-33.712,12.447-33.712,12.447-18.584-9.117-20.647-28.792-20.647-28.792C1691.626,1050.224,1708.216,1045.281,1711.408,1042.139Z" transform="translate(-1624.753 -1028.437)" fill="#455d7a"/>
        <g id="Grupo_80726" data-name="Grupo 80726" transform="translate(49.685 50.867)">
          <path id="Trazado_181232" data-name="Trazado 181232" d="M1834.563,1334.59c3.585-5.975,9.568-6.541,11.547-3.384,2.431,3.88,1.075,9.9-1.88,13.347s-10.111,7.194-12.636,5.99C1827.629,1348.653,1832.129,1339.747,1834.563,1334.59Z" transform="translate(-1830.023 -1329.312)" fill="#ffc5a6"/>
          <path id="Trazado_181233" data-name="Trazado 181233" d="M1845.578,1372.418a10.5,10.5,0,0,0,2.737-2.425c.613-1.083,1.032-5.38,1.032-5.38,2.448-4.091,7.746-5.093,9.195-1.936a5.685,5.685,0,0,0-5.489-.5,9.718,9.718,0,0,0-2.985,2.775,23.263,23.263,0,0,1-.875,4.629,8.866,8.866,0,0,0,2.158,1.3c-.9-1.593-2.715-.069-2.715-.069A7.588,7.588,0,0,1,1845.578,1372.418Z" transform="translate(-1843.213 -1356.74)" fill="#f0a17d"/>
          <path id="Trazado_181234" data-name="Trazado 181234" d="M1878.384,1369.83c-1.253,1.335,2.472,2.035,2,5.346s-6.394,6.233-6.936,5.372a2,2,0,0,1-.359-1.5l1.481-1.862.8-4.615A16.936,16.936,0,0,1,1878.384,1369.83Z" transform="translate(-1868.654 -1364.587)" fill="#f0a17d"/>
        </g>
        <path id="Trazado_181235" data-name="Trazado 181235" d="M2095.792,1266.053a2.651,2.651,0,1,1,1.378,3.487A2.65,2.65,0,0,1,2095.792,1266.053Z" transform="translate(-2068.215 -1221.983)" fill="#233142"/>
        <path id="Trazado_181236" data-name="Trazado 181236" d="M2237.207,1225.822a2.373,2.373,0,1,1,1.776,3.07A2.517,2.517,0,0,1,2237.207,1225.822Z" transform="translate(-2227.546 -1186.462)" fill="#233142"/>
        <path id="Trazado_181237" data-name="Trazado 181237" d="M2036.3,1171.508c-1.352,1.34-.9,2.411-.346,2.908s7.133,1.985,11.365,6.4c2.423,2.53,1.027-2.391-3.35-5.305C2039.892,1172.8,2036.675,1171.26,2036.3,1171.508Z" transform="translate(-2008.056 -1141.041)" fill="#233142"/>
        <path id="Trazado_181238" data-name="Trazado 181238" d="M2232.483,1161.547c-.376.865-.577,2-1.451,1.939s-4.633-1.013-6.354-.154l-.207-1.374C2228.53,1159.706,2232.694,1161.061,2232.483,1161.547Z" transform="translate(-2216.511 -1131.652)" fill="#233142"/>
        <path id="Trazado_181239" data-name="Trazado 181239" d="M2199.377,1382.423c2.226,3.084,6.854,3.406,9.71,3.151C2201.236,1387.467,2200.3,1387.736,2199.377,1382.423Z" transform="translate(-2189.86 -1324.683)" fill="#f08d6c"/>
        <path id="Trazado_181240" data-name="Trazado 181240" d="M2102.458,1458.363c9.98,4.139,22.487.158,22.487.158s-3.594,2.54-12.79,2.545S2102.458,1458.363,2102.458,1458.363Z" transform="translate(-2093.176 -1390.795)" fill="#f08d6c"/>
        <path id="Trazado_181241" data-name="Trazado 181241" d="M1879.479,1292.888c-.572,10.842-5.25,19.329-8.956,26.94s3.583,25.3,1.716,32.758-2.945,8.472-2.945,8.472c10.46-3.274,11.36-22.072,9.182-29.408-2.206-7.43-2.923-13.367.783-22.243a52.055,52.055,0,0,1,9.825-15.023Z" transform="translate(-1827.137 -1246.735)" fill="#233142"/>
      </g>
      <path id="Trazado_181242" data-name="Trazado 181242" d="M2169.518,1576.666l16.42,5.518.113.109a37.767,37.767,0,0,1-8.969,1.922c-2.035-.891-4.041-1.8-4.952-2.3a5.466,5.466,0,0,1-3-5.251Z" transform="translate(-2022.948 -1409.71)" fill="#f0a17d"/>
      <path id="Trazado_181243" data-name="Trazado 181243" d="M2114.614,1567.32c1.846-.065,3.268,1.031,7.2,1.031s7.8.309,8.962.746a69.607,69.607,0,0,1,7.461,3.2c-2.722,1.2-6.881,1.821-9.3,2.5-.327-.229-.666-.462-1.024-.7-3.271-.124-8.751.622-10.448-.155C2114.021,1572.367,2112.768,1567.384,2114.614,1567.32Z" transform="translate(-1967.966 -1401.57)" fill="#f0a17d"/>
      <g id="Grupo_80728" data-name="Grupo 80728" transform="translate(146.179 166.304)">
        <path id="Trazado_181244" data-name="Trazado 181244" d="M2107.225,1612.23c.477-6.285-.249-27.874-.338-29.818s-1.869-3.922-4.153-5.391a52.109,52.109,0,0,0-6.756-3.383c-1.161-.437-5.033-.746-8.962-.746s-5.656-1.328-7.5-1.263-.094,4.19,3.35,5.768c1.7.777,6.984,1.12,10.255,1.243,2.322,1.554,4.108,2.979,4.108,2.979-2.977-.088-6.436.138-6.847.518a5.006,5.006,0,0,0-1.548,3.691c-1.481.5-2.619,2.267-3.178,2.947a3.894,3.894,0,0,0-.6,1.554c-1.473.486-3.17,3.109-3.17,3.109-.536,1.506,1.206,9.132,1.741,10.006s3.573,1.36,3.974,1.263c.223,2.914,8.662,18.663,10.85,18.906S2101.6,1624.39,2107.225,1612.23Z" transform="translate(-2078.768 -1571.627)" fill="#ffc5a6"/>
        <path id="Trazado_181245" data-name="Trazado 181245" d="M2235.34,1769.738c.022-.121-1.406-8.063-1.406-8.063l-2.255-.486a12.447,12.447,0,0,1,1.5.923c0,.1,1.362,7.626,1.362,7.626Z" transform="translate(-2226.511 -1736.657)" fill="#f0a17d"/>
        <path id="Trazado_181246" data-name="Trazado 181246" d="M2124.782,1639.709l4.436,1.182-6.229-2.539Z" transform="translate(-2106.323 -1629.716)" fill="#f0a17d"/>
        <path id="Trazado_181247" data-name="Trazado 181247" d="M2175.437,1675.7l6.043.453-6.014-1.3Z" transform="translate(-2165.373 -1661.502)" fill="#f0a17d"/>
        <path id="Trazado_181248" data-name="Trazado 181248" d="M2204.421,1711.4l6.073.421-5.879-1.126A1.939,1.939,0,0,0,2204.421,1711.4Z" transform="translate(-2198.138 -1692.701)" fill="#f0a17d"/>
      </g>
      <g id="Grupo_80730" data-name="Grupo 80730" transform="translate(73.013 13.445)">
        <path id="Trazado_181249" data-name="Trazado 181249" d="M2393.234,365.148c-2.031-8.471-10.2-13.805-17.794-19.906a31.725,31.725,0,0,1-10.533-10.835,23.735,23.735,0,0,1-3.182-7.349c-.044-.186-.058-.353-.094-.533-.07-.26-.146-.517-.209-.78a31.738,31.738,0,1,1,61.726-14.8c.091.379.166.757.242,1.136.016.063.039.115.055.179a23.293,23.293,0,0,1,.565,7.037,31.724,31.724,0,0,1-4.878,15.974c-3.949,8.586-8.513,16.813-6.5,25.226l.656,1.259-7.4,4.773.33,1.378-2.126-.219-1.8,1.159-.33-1.378-8.756-.9Z" transform="translate(-2360.54 -286.587)" fill="#ffd400"/>
        <path id="Trazado_181250" data-name="Trazado 181250" d="M2433.163,433.282a2.133,2.133,0,0,1,1.641-1.548,2.589,2.589,0,0,1,2,.426c1.963,1.226,4.254,4.952,6.63,10.539a4.358,4.358,0,0,0,2.1-1.974,12,12,0,0,1-3.963-6.444c-.543-2.582.244-4.488,2.055-4.975a2.465,2.465,0,0,1,2.573.695c1.585,1.583,2.111,5.491,1.2,8.9a10.74,10.74,0,0,1-.528,1.522,5.431,5.431,0,0,0,3.789.883,4.675,4.675,0,0,0,3.543-3.334,8.78,8.78,0,0,0,.258-.863c-2.869-2.627-5.415-6.408-5-8.449a1.824,1.824,0,0,1,1.461-1.443,2.971,2.971,0,0,1,3.022,1.042c1.6,1.781,2.252,5.371,1.679,8.471.316.272.637.529.96.768a9.637,9.637,0,0,0,2.008,1.183c-.771-7.35-.767-13.077,1.019-13.55.764-.187,2.227-.181,3.216,2.3,1.394,3.5,1.11,10.708-1.838,12.313a2.381,2.381,0,0,1-1.184.276c1.156,9.684,3.449,22.659,5.7,32.93l-1.031.226c-.065-.3-4.169-19.312-5.755-33.337a9.394,9.394,0,0,1-2.761-1.5c-.2-.151-.406-.309-.61-.473-.046.153-.1.305-.15.453a5.6,5.6,0,0,1-4.377,4.022,6.387,6.387,0,0,1-4.42-1,5.37,5.37,0,0,1-2.555,2.33c3.224,7.84,6.577,19.016,9.46,31.949l-1.03.23c-2.863-12.846-6.248-24.108-9.451-31.906-1.928.269-4.157-.734-6.2-2.814C2434.479,438.952,2432.537,435.458,2433.163,433.282Zm27.318,5.535c2.231-1.216,2.717-7.591,1.361-11-.356-.9-.98-1.91-1.935-1.681l-.029.007c-1.143.3-1.025,5.5-.2,12.813A1.423,1.423,0,0,0,2460.481,438.818Zm-5.8-2.952c.318-2.614-.258-5.49-1.527-6.906a1.95,1.95,0,0,0-1.99-.72.764.764,0,0,0-.673.627C2450.208,430.269,2452.178,433.415,2454.684,435.865Zm-8.307,2.759c.8-2.972.374-6.579-.924-7.877a1.492,1.492,0,0,0-1.5-.436l-.056.014c-1.83.492-1.456,2.986-1.3,3.739a10.962,10.962,0,0,0,3.394,5.7A9.928,9.928,0,0,0,2446.377,438.624Zm-9,1.77c1.7,1.731,3.49,2.626,5.021,2.536-2.235-5.254-4.365-8.761-6.148-9.875a1.591,1.591,0,0,0-1.2-.295,1.09,1.09,0,0,0-.874.813C2433.74,435.094,2435.174,438.155,2437.374,440.394Z" transform="translate(-2416.116 -398.047)" fill="#455d7a"/>
        <g id="Grupo_80729" data-name="Grupo 80729" transform="translate(32.198 72.601)">
          <path id="Trazado_181251" data-name="Trazado 181251" d="M2426.258,724.134l8.345-2a1.922,1.922,0,0,0,1.417-2.31l-.095-.4a1.922,1.922,0,0,0-2.31-1.417l-8.345,2a1.922,1.922,0,0,0-1.417,2.31l.1.4A1.922,1.922,0,0,0,2426.258,724.134Z" transform="translate(-2417.082 -706.421)" fill="#233142"/>
          <path id="Trazado_181252" data-name="Trazado 181252" d="M2412.058,675.369l14.78-3.544a2.715,2.715,0,0,0,2-3.264l-2.216-9.244a.669.669,0,0,0-.8-.492l-18.75,4.5a.667.667,0,0,0-.491.8l2.215,9.243A2.716,2.716,0,0,0,2412.058,675.369Z" transform="translate(-2406.56 -658.807)" fill="#455d7a"/>
          <path id="Trazado_181253" data-name="Trazado 181253" d="M2411.957,693.319l18.929-4.539a.575.575,0,0,0,.424-.692l-.046-.195a.576.576,0,0,0-.692-.424l-18.929,4.539a.576.576,0,0,0-.424.692l.047.195A.575.575,0,0,0,2411.957,693.319Z" transform="translate(-2409.878 -681.866)" fill="#233142"/>
          <path id="Trazado_181254" data-name="Trazado 181254" d="M2416.212,675.576l18.929-4.539a.575.575,0,0,0,.424-.692l-.046-.2a.575.575,0,0,0-.692-.424l-18.929,4.539a.575.575,0,0,0-.424.692l.047.195A.575.575,0,0,0,2416.212,675.576Z" transform="translate(-2414.962 -667.583)" fill="#233142"/>
          <path id="Trazado_181255" data-name="Trazado 181255" d="M2407.768,710.786l18.929-4.539a.575.575,0,0,0,.424-.692l-.046-.195a.577.577,0,0,0-.693-.424l-18.928,4.539a.575.575,0,0,0-.424.692l.046.195A.576.576,0,0,0,2407.768,710.786Z" transform="translate(-2404.871 -695.926)" fill="#233142"/>
        </g>
      </g>
    </g>
  </g>
</svg>
