<svg xmlns="http://www.w3.org/2000/svg" width="504.785" height="317.922" viewBox="0 0 504.785 317.922">
  <g id="Grupo_141255" data-name="Grupo 141255" transform="translate(-178.297 -969.925)">
    <g id="Grupo_136998" data-name="Grupo 136998" transform="translate(0 -30.523)">
      <g id="Grupo_136872" data-name="Grupo 136872" transform="translate(10160 9060)">
        <path id="Trazado_177495" data-name="Trazado 177495" d="M954.682-706.267l22.66-177.59,200.424-1.833-25.091,179.718Zm196.982-.868,24.765-177.379L978.367-882.7,956-707.428l195.661.293" transform="translate(-10656.41 -7166.196)" fill="#1f2ee1" stroke="#1f2ee1" stroke-miterlimit="10" stroke-width="3"/>
        <path id="Trazado_177496" data-name="Trazado 177496" d="M741.054-570.881l21.339-167.244,188.749-1.726L927.512-570.6Zm185.447-.885,23.3-166.91-186.385,1.7L742.374-572.042l184.127.276" transform="translate(-10721.054 -7172.529)" fill="#1f2ee1" stroke="#1f2ee1" stroke-miterlimit="10" stroke-width="3"/>
        <rect id="Rect치ngulo_22279" data-name="Rect치ngulo 22279" width="237.518" height="1.925" transform="translate(-9781.289 -7758.477)" fill="#ff0092"/>
        <path id="Trazado_177497" data-name="Trazado 177497" d="M1278.737-595.367h9.566v-32.228h-9.566Zm-.632.635v-33.5h10.83v33.5Zm1.951,9.57,3.88-6.72,3.879,6.72Zm0,8.513,3.88-6.72,3.879,6.72Zm0,8.514,3.88-6.721,3.879,6.721Zm0,8.513,3.88-6.72,3.879,6.72Zm0,8.513,3.88-6.72,3.879,6.72Zm0,8.513,3.88-6.72,3.879,6.72Zm0,8.514,3.88-6.721,3.879,6.721Zm0,8.513,3.88-6.72,3.879,6.72Zm0,8.513,3.88-6.72,3.879,6.72Z" transform="translate(-10797.378 -7226.075)" fill="#214be5"/>
        <path id="Trazado_177498" data-name="Trazado 177498" d="M1264.562-832.567a1.316,1.316,0,0,1,0,2.631A1.316,1.316,0,0,1,1264.562-832.567Zm-23.226,0a1.316,1.316,0,0,1,0,2.631A1.316,1.316,0,0,1,1241.335-832.567Zm-23.225,0a1.316,1.316,0,0,1,0,2.631A1.316,1.316,0,0,1,1218.11-832.567Zm46.451-20.505a1.317,1.317,0,0,1,0,2.632A1.317,1.317,0,0,1,1264.562-853.072Zm-23.226,0a1.317,1.317,0,0,1,0,2.632A1.317,1.317,0,0,1,1241.335-853.072Zm-23.225,0a1.317,1.317,0,0,1,0,2.632A1.317,1.317,0,0,1,1218.11-853.072Z" transform="translate(-10760.608 -7161.03)" fill="#fff"/>
        <path id="Trazado_177501" data-name="Trazado 177501" d="M814.159-859.215l-32.2,230.659,257.235-2.352,29.081-227.927Z" transform="translate(-10751.672 -7159.253)" fill="none" stroke="#fff" stroke-miterlimit="10" stroke-width="3" fill-rule="evenodd"/>
        <path id="Trazado_177502" data-name="Trazado 177502" d="M824.352-853.214,789.4-575.287l414.952-2.834,29.911-274.635Z" transform="translate(-10742.71 -7188.887)" fill="#d2e1f1" fill-rule="evenodd"/>
        <path id="Trazado_177500" data-name="Trazado 177500" d="M816.916-881.6a14.2,14.2,0,0,0-14.195,14.194,14.2,14.2,0,0,0,14.195,14.195,14.2,14.2,0,0,0,14.195-14.195A14.194,14.194,0,0,0,816.916-881.6Zm0,24.6a10.409,10.409,0,0,1-10.409-10.41,10.409,10.409,0,0,1,10.409-10.409,10.409,10.409,0,0,1,10.41,10.409A10.409,10.409,0,0,1,816.916-857Z" transform="translate(-10745.604 -7177.949)" fill="#ffd400"/>
      </g>
      <g id="Grupo_136873" data-name="Grupo 136873" transform="translate(2750.569 11465.135)">
        <path id="Trazado_181585" data-name="Trazado 181585" d="M1280.837,1187.243a2.518,2.518,0,0,0-1.19-.758c-.714-.179-2.256-.933-2.077-.538s1.04.861.9,1.148c0,0-2.451-.682-2.523-.251a3.528,3.528,0,0,0,1.913,2.428,16.138,16.138,0,0,0,2.762-.347Z" transform="translate(-3650.538 -11460.766)" fill="#f2a16b"/>
        <path id="Trazado_181586" data-name="Trazado 181586" d="M1869.4,1240.995a2.871,2.871,0,0,0-2.245-.882c-.656.085-1.6-.946-1.556-.276a6.165,6.165,0,0,0,1.32,2.485,3.324,3.324,0,0,0,2.028.35l1.71,1.054Z" transform="translate(-4160.252 -11506.214)" fill="#ffb27d"/>
        <g id="Grupo_80837" data-name="Grupo 80837" transform="translate(-2512.569 -10322.95)">
          <path id="Trazado_181587" data-name="Trazado 181587" d="M341.738,1039.626s-8.419,8.729-8.817,12.014,4.033,8.414,4.033,8.414Z" transform="translate(-332.636 -1022.125)" fill="#02a29e"/>
          <path id="Trazado_181588" data-name="Trazado 181588" d="M411.343,1593.012s.3,4.63,1.193,4.695c.119.009,4.544,0,4.544,0l5.648-.045a1.832,1.832,0,0,0-1.692-1.645c-1.652-.285-4.418-1.439-5.423-3.619C414.557,1590.1,411.343,1593.012,411.343,1593.012Z" transform="translate(-398.437 -1485.046)" fill="#2358a5"/>
          <path id="Trazado_181589" data-name="Trazado 181589" d="M333.3,1593.182s.3,4.63,1.193,4.695c.119.008,4.544,0,4.544,0l5.648-.045a1.833,1.833,0,0,0-1.692-1.645c-1.652-.284-4.418-1.439-5.423-3.619C336.515,1590.274,333.3,1593.182,333.3,1593.182Z" transform="translate(-332.976 -1485.189)" fill="#2358a5"/>
          <path id="Trazado_181590" data-name="Trazado 181590" d="M350.336,1255.334s-1.457,9.451-6.931,26.235-6.21,24.049-6.21,24.049l-5.912-.153s-.09-18.33,2.431-26.77.482-30.407.482-30.407Z" transform="translate(-331.283 -1197.15)" fill="#163560"/>
          <path id="Trazado_181591" data-name="Trazado 181591" d="M378.13,1251.244a229.311,229.311,0,0,1-2.185,31.725c-2.426,17.487-1.574,24.906-1.574,24.906l-5.9.209s-3.564-17.481-2.572-26.233-4.894-30.015-4.894-30.015Z" transform="translate(-356.214 -1199.629)" fill="#1c468a"/>
          <path id="Trazado_181592" data-name="Trazado 181592" d="M395.935,1008.08l3.148,2.054,4.541-.856c-.064-.367-.367-1.886-.643-3.262-.017-.081-.033-.162-.049-.241-.236-1.171-.441-2.177-.441-2.177l-4.247-1.863-1.584-.694c0,.024.126,1.3.142,1.486A10.818,10.818,0,0,1,395.935,1008.08Z" transform="translate(-385.513 -989.758)" fill="#ffb27d"/>
          <path id="Trazado_181593" data-name="Trazado 181593" d="M400.031,1031.237c-.088-.051-5.474-2.213-6.059-1.947s-.928,1.819-.928,1.819l8.809,2.7A5.715,5.715,0,0,0,400.031,1031.237Z" transform="translate(-383.088 -1013.436)" fill="#02a29e"/>
          <path id="Trazado_181594" data-name="Trazado 181594" d="M345.742,1073.593c.921,4.16,16.107,4.621,20.013.834.444-.432.462-2.435.288-5.136-.34-5.278-1.412-13.215-1.462-17.271a32.113,32.113,0,0,0-.66-5.78,46.953,46.953,0,0,0-1.941-6.916s-7.422-2.382-8.809-1.971C346.49,1039.331,344.821,1069.432,345.742,1073.593Z" transform="translate(-343.215 -1020.178)" fill="#00bab5"/>
          <path id="Trazado_181595" data-name="Trazado 181595" d="M434.229,1111.732c-.34-5.277-1.412-13.215-1.462-17.271a32.127,32.127,0,0,0-.66-5.781l-4.463-.778S423.32,1105.729,434.229,1111.732Z" transform="translate(-411.4 -1062.619)" fill="#02a29e"/>
          <path id="Trazado_181596" data-name="Trazado 181596" d="M445.808,1186.517a1.05,1.05,0,0,0,.337,1.215,2.035,2.035,0,0,1,.911,1.855c-.145.578-1.544,1.524-2.03,1.373s-1.476-.91-1.37-1.215-.671-2.673.511-3.588A.955.955,0,0,1,445.808,1186.517Z" transform="translate(-425.411 -1144.756)" fill="#ffb27d"/>
          <path id="Trazado_181597" data-name="Trazado 181597" d="M423.978,1043.246s4.353.8,7.831,5.907,5.767,8.9,5.133,10.738-6.443,8.242-7.446,8.244a2.691,2.691,0,0,1-2.72-2.366s3.835-6.384,3.025-7.3c-.346-.392-5.08-4.19-5.787-2.363C422.845,1059.125,423.978,1043.246,423.978,1043.246Z" transform="translate(-408.621 -1025.161)" fill="#00bab5"/>
          <path id="Trazado_181598" data-name="Trazado 181598" d="M402.661,1006.195c.935,1.577,4.41,2.934,5.86,3.433-.017-.081-.033-.163-.049-.242-.237-1.171-.441-2.177-.441-2.177l-4.247-1.863C402.846,1005.335,402.275,1005.546,402.661,1006.195Z" transform="translate(-391.052 -993.371)" fill="#fca56b"/>
          <path id="Trazado_181599" data-name="Trazado 181599" d="M396.843,956.787s-6.831,2.147-8.1-2.127-3.01-6.876,1.3-8.427,5.644-.174,6.415,1.15S398.587,956.118,396.843,956.787Z" transform="translate(-378.265 -943.21)" fill="#ffb27d"/>
          <path id="Trazado_181600" data-name="Trazado 181600" d="M380.836,934.824s-.425,4.978-1.455,4.764-1.964-.372-1.81,1.128,1.585,3.229-1.586,3.5-7.749-7.9-6.881-9.449C371.609,930.294,384.459,929.364,380.836,934.824Z" transform="translate(-362.917 -931.063)" fill="#163560"/>
        </g>
        <g id="Grupo_80839" data-name="Grupo 80839" transform="translate(-2184.283 -10332.003)">
          <path id="Trazado_181601" data-name="Trazado 181601" d="M2636.392,1134.32s-.574-.949-.926-1.473-1.052-1.178-1.23-1.01.538.863.505,1.094-1.233-.547-1.363-.722c-.26-.351-.947-.73-1.031-.288a5.783,5.783,0,0,0,.658,2.231,4.4,4.4,0,0,0,1.737,1.22c.536.189,1.454.631,1.454.631Z" transform="translate(-2632.336 -1102.556)" fill="#ffb27d"/>
          <path id="Trazado_181602" data-name="Trazado 181602" d="M2724.713,948.962a4.671,4.671,0,0,0-3.693-.4c-6.275-.737-8.1,6.58-8.021,9.1s.373,5.222-2.429,8.492c-8.093,9.448,8.857,9.865,8.857,9.865.144-7.548,9.192-4.794,8.8-4.029C2739.822,974.776,2729.376,951.381,2724.713,948.962Z" transform="translate(-2696.285 -948.359)" fill="#163560"/>
          <path id="Trazado_181603" data-name="Trazado 181603" d="M2671.316,1082.5a16.533,16.533,0,0,1-1.687,2.552c-1.311,1.642-3.333,3.539-5.87,3.914a6.3,6.3,0,0,1-3.489-.566h0a15.908,15.908,0,0,1-5.4-4.516,2.533,2.533,0,0,1,.346-2.486s6.224,1.4,6.818,1.1,4.051-10.259,4.874-11.51,3.63-1.9,3.63-1.9Z" transform="translate(-2651.134 -1049.882)" fill="#ff0092"/>
          <path id="Trazado_181604" data-name="Trazado 181604" d="M2699.132,1152.013c-1.311,1.642-3.333,3.539-5.87,3.914a6.311,6.311,0,0,1-3.489-.566c.121.016,3.2.4,4.427-1.8,1.251-2.24,2.6-5.8,4.465-4.611C2699.467,1149.462,2699.432,1150.733,2699.132,1152.013Z" transform="translate(-2680.637 -1116.846)" fill="#dc0681"/>
          <path id="Trazado_181605" data-name="Trazado 181605" d="M2868.843,1571.5s1.9,1.733,1.529,2.965-2.085,2.053-2.316,3.558-1.159,2.327-1.992,2.327h-3.976s-.613-1.059.869-1.378,2.041-2.088,1.948-3.73a28.969,28.969,0,0,1,.138-3.832l3.151-.729Z" transform="translate(-2825.439 -1471.693)" fill="#2358a5"/>
          <path id="Trazado_181606" data-name="Trazado 181606" d="M2746.936,1580.466s.683,7.343-.15,7.754l-10.671-.022s0-1.231,1.714-1.505,4.726-1.277,5.235-3.512S2746.936,1580.466,2746.936,1580.466Z" transform="translate(-2719.608 -1479.925)" fill="#2358a5"/>
          <path id="Trazado_181607" data-name="Trazado 181607" d="M2757.029,1061.431c-2.2-4.925-3.54-6.338-3.284-7.867.191-1.138-.581-21.212-.581-21.212-.261-.08-.783-.153-1.069-.216a2.68,2.68,0,0,1-1.956-1.7,13.655,13.655,0,0,1-.664-4.53l-.282.055-4.73.937s.108,1.489.111,2.891v.035a2.719,2.719,0,0,1-1.964,2.63c-.6.173-1.117.32-1.117.32a43.383,43.383,0,0,0-2.069,10.052c-.332,5.094,3.159,7.307-.026,17.487C2736.148,1070.709,2758.241,1064.153,2757.029,1061.431Z" transform="translate(-2722.096 -1013.571)" fill="#ffb27d"/>
          <path id="Trazado_181608" data-name="Trazado 181608" d="M2772.969,1027.191s.107,1.488.112,2.891c2.646-.074,4.045-2.489,4.617-3.828Z" transform="translate(-2750.601 -1013.864)" fill="#e8945b"/>
          <path id="Trazado_181609" data-name="Trazado 181609" d="M2756.385,984.624s6.262.1,6.267-3.8.815-6.515-3.183-6.745-4.776,1.257-5.095,2.558S2754.756,984.5,2756.385,984.624Z" transform="translate(-2734.9 -969.97)" fill="#ffb27d"/>
          <path id="Trazado_181610" data-name="Trazado 181610" d="M2768.868,969.414s1.715,4.577,4.346,5.253,3.773-.029,3.773-.029a7.448,7.448,0,0,1-2.437-4.4S2770.161,967.236,2768.868,969.414Z" transform="translate(-2747.152 -965.398)" fill="#163560"/>
          <path id="Trazado_181611" data-name="Trazado 181611" d="M2754.777,972a3.887,3.887,0,0,0-1.8,1.4,6.314,6.314,0,0,0-.847,3.581s-1.291-3.11.16-4.87C2753.834,970.244,2754.777,972,2754.777,972Z" transform="translate(-2732.634 -967.609)" fill="#163560"/>
          <path id="Trazado_181612" data-name="Trazado 181612" d="M2764.021,1024.12a1.575,1.575,0,0,1-1.3.527,1.15,1.15,0,0,1-.964-.637A4.205,4.205,0,0,1,2764.021,1024.12Z" transform="translate(-2741.174 -1011.886)" fill="#ebf3fa"/>
          <path id="Trazado_181613" data-name="Trazado 181613" d="M2753.827,1075.318a42.333,42.333,0,0,1,0,4.932c-.105,1.783-1.909,4.172-2.165,4.763-.643,1.482-1.366,1.723-1.366,1.723l-5.6,1.373-1.97.482-6.213-1.855s-2.83-7.9-1.694-12.345a34.171,34.171,0,0,1,2.873-7.534s5.069,4.964,11.67-.421Z" transform="translate(-2718.289 -1047.656)" fill="#ff0092"/>
          <path id="Trazado_181614" data-name="Trazado 181614" d="M2792.96,1148.318a17.42,17.42,0,0,1-.526,4.035c-.642,1.482-1.366,1.723-1.366,1.723l-5.6,1.373-2.433-.716s8.124-1.231,7.224-8.22Z" transform="translate(-2759.062 -1114.996)" fill="#f2ccaa"/>
          <path id="Trazado_181615" data-name="Trazado 181615" d="M2732.033,1201.6s-3.077,9.576-3.274,12.837,5.881,46.318,6.126,47.82c.231,1.416,1.989,2.319,1.989,2.319a2.664,2.664,0,0,0,1.963.151,4.845,4.845,0,0,0,2.107-.994s2.4-30.709.913-41.678a173.729,173.729,0,0,1-1.5-20.456Z" transform="translate(-2713.418 -1161.317)" fill="#163560"/>
          <path id="Trazado_181616" data-name="Trazado 181616" d="M2767.759,1199.8s4.693,6.3,5.131,10.553.686,19.209,1.618,23.359,4.357,12.135,4.357,25.079a2.582,2.582,0,0,1-1.455,1.137,11.986,11.986,0,0,1-1.279.354,2.013,2.013,0,0,1-2.251-1.068c-2.315-4.662-9.691-19.7-10.069-22.818-.267-2.209-2.6-16.827-7.674-25.4-1.22-2.059.748-10.249.748-10.249Z" transform="translate(-2736.11 -1159.807)" fill="#1c468a"/>
          <path id="Trazado_181617" data-name="Trazado 181617" d="M2763.561,1024.379s-.108.459-1.251.389c0,0-.961-.059-.931-.564A3.088,3.088,0,0,1,2763.561,1024.379Z" transform="translate(-2740.852 -1012.04)" fill="#fff"/>
          <path id="Trazado_181618" data-name="Trazado 181618" d="M2745.356,1192.3a6.451,6.451,0,0,0,3.689,1.026c2.931.059,10.194-.747,10.194-.747a5.987,5.987,0,0,1,.31,1.854s-8.87,2.237-14.009.327A3.248,3.248,0,0,1,2745.356,1192.3Z" transform="translate(-2727.233 -1153.5)" fill="#233862"/>
          <g id="Grupo_80838" data-name="Grupo 80838" transform="translate(19.772 39.326)">
            <path id="Trazado_181619" data-name="Trazado 181619" d="M2757.979,1198.628a1.525,1.525,0,1,1,1.338-1.514A1.435,1.435,0,0,1,2757.979,1198.628Zm0-2.584a1.088,1.088,0,1,0,.894,1.07A1,1,0,0,0,2757.979,1196.044Z" transform="translate(-2756.642 -1195.601)" fill="#fff"/>
          </g>
          <rect id="Rect치ngulo_23306" data-name="Rect치ngulo 23306" width="12.049" height="16.494" transform="matrix(0.754, -0.657, 0.657, 0.754, 21.635, 36.007)" fill="#afcdfb"/>
          <path id="Trazado_181620" data-name="Trazado 181620" d="M2802.045,1203.374s-3.534.542-3.524,1.333.731,2.22,1.445,2.332c.906.144,2.709-2.2,2.709-2.2Z" transform="translate(-2772.089 -1162.812)" fill="#ffb27d"/>
          <path id="Trazado_181621" data-name="Trazado 181621" d="M2801.4,1202.979a4.617,4.617,0,0,0-2.052-.254c-.868.179-1.671.047-1.474.363s1.373.2,1.559.322.189.047.189.047Z" transform="translate(-2771.52 -1162.23)" fill="#ffb27d"/>
          <path id="Trazado_181622" data-name="Trazado 181622" d="M2817,1066.438a7.583,7.583,0,0,1,6.15,4.454c1.7,4.142,4.937,11.1,4.937,12.267s-1.806,4.777-11.505,6.85c0,0-1-1.055-.942-1.889,0,0,6.055-5.2,6.038-5.808-.031-1.15-.993-2.667-6.307-7.984C2813.927,1072.881,2817,1066.438,2817,1066.438Z" transform="translate(-2785.934 -1047.656)" fill="#ff0092"/>
        </g>
        <g id="Grupo_80840" data-name="Grupo 80840" transform="translate(-2475.419 -10314.894)">
          <path id="Trazado_181623" data-name="Trazado 181623" d="M601.963,941.86a33.661,33.661,0,0,1-5.942-.526,33,33,0,0,1-5.233-1.39,42.5,42.5,0,0,1-7.939.009,50.788,50.788,0,0,1-21.8-6.989,17.212,17.212,0,0,1-4.557.358,18.52,18.52,0,0,1-10.692-4.249,30.884,30.884,0,0,1-8.041-10.229c-3.862-7.528-5.774-16.987-5.382-26.637a59.431,59.431,0,0,1,9.255-29.713c4.425-6.889,9.313-12.238,14.529-15.9a33.231,33.231,0,0,1,18.794-6.282,48.346,48.346,0,0,1,15.027-5.77,35.714,35.714,0,0,1,25.852,4.33c10.3,6.159,18.535,17.62,24.486,34.066q.511,1.411.947,2.814c1.365.706,2.839,1.5,4.485,2.387l.108.058c5.144,2.771,13.168,4.989,21.465,5.932,6.918.786,17.194,1.061,26.858-2.1,9.031-2.951,15.412-8.226,18.965-15.678l.777.37c-3.659,7.673-10.211,13.1-19.475,16.126-9.812,3.206-20.22,2.93-27.223,2.134-8.4-.955-16.541-3.209-21.776-6.03l-.108-.058c-1.354-.73-2.587-1.394-3.731-1.995a51.031,51.031,0,0,1,1.373,24.033,42.4,42.4,0,0,1-10.037,20.485,37.191,37.191,0,0,1-4.722,4.4c-.115.254-.234.507-.354.755a6.242,6.242,0,0,1,.882,3.154c-.1,1.543-1.854,2.9-5.206,4.031q-.414.14-.857.274a24.531,24.531,0,0,1-9.9,6.073A34.509,34.509,0,0,1,601.963,941.86Zm-9.13-2.159a32.226,32.226,0,0,0,3.341.785,33.411,33.411,0,0,0,16.346-1.191,23.982,23.982,0,0,0,8.407-4.771,88.812,88.812,0,0,1-17.209,2.125q-.386.166-.777.325A43.086,43.086,0,0,1,592.833,939.7Zm-30.613-7.038a50.224,50.224,0,0,0,20.709,6.432,41.6,41.6,0,0,0,6,.121,31.714,31.714,0,0,1-6.172-3.49,70.485,70.485,0,0,1-8.457-1.654,32.275,32.275,0,0,1-8.063-3.176A17.485,17.485,0,0,1,562.22,932.663Zm22.411,3.3a31.189,31.189,0,0,0,6.267,3.1,42.292,42.292,0,0,0,10.3-2.346c-3.211.062-6.5.008-9.742-.172C589.1,936.419,586.811,936.223,584.631,935.966Zm-1.534-1.057c2.612.353,5.423.617,8.408.782,4.016.223,8.1.251,12.014.106a40.184,40.184,0,0,0,6.745-3.723,18.911,18.911,0,0,1-3.373-.525,10.853,10.853,0,0,1-6.432-4.722,49.2,49.2,0,0,1-8.239-.467c-6.683-.934-12.155-2.963-16.361-6.055-.7,1.222-1.39,2.306-2.067,3.267a29.42,29.42,0,0,0,7.994,10.316Q582.428,934.416,583.1,934.908Zm28.6-2.792a40.427,40.427,0,0,1-5.9,3.575,76.456,76.456,0,0,0,16.448-2.416,24.5,24.5,0,0,0,2.269-2.7,28.11,28.11,0,0,0,2.235-3.655,31.057,31.057,0,0,1-6.408,3.459A24.058,24.058,0,0,1,611.694,932.117Zm-44.627-1.744c3.345,1.874,8.231,3.336,14.3,4.284l-.128-.1a30.247,30.247,0,0,1-8.021-10.187,29.489,29.489,0,0,1-2.581,3.028A22.6,22.6,0,0,1,567.067,930.373Zm60.318-2.833a27.939,27.939,0,0,1-3.491,5.189c2.516-.933,3.929-2.006,4-3.051A4.659,4.659,0,0,0,627.385,927.54ZM573.5,841.222c-.941.069-1.824.175-2.67.3a32.959,32.959,0,0,0-14.175,5.777c-5.124,3.6-9.935,8.865-14.3,15.659a58.571,58.571,0,0,0-9.119,29.283c-.386,9.5,1.492,18.811,5.288,26.208a30.034,30.034,0,0,0,7.811,9.948,17.679,17.679,0,0,0,10.2,4.063,16.5,16.5,0,0,0,3.443-.175,38.2,38.2,0,0,1-9.894-9.231,34.451,34.451,0,0,1-3.421-5.7,19,19,0,0,1-7.172-6.815,28.492,28.492,0,0,1-3.9-15.148,37.852,37.852,0,0,1,.738-7.325c-.266-7,2.617-15.1,8.145-22.86,5.3-7.444,12.222-13.415,18.99-16.383q1.134-.5,2.238-.871a35.619,35.619,0,0,1,3.141-3.173A39.2,39.2,0,0,1,573.5,841.222Zm-25.565,76.756a33.716,33.716,0,0,0,2.842,4.565,37.613,37.613,0,0,0,10.42,9.5,16.4,16.4,0,0,0,4.217-1.667,12.462,12.462,0,0,1-2.466-2.121,59.994,59.994,0,0,1-6.093-8.285,30.147,30.147,0,0,1-4.251-.528A21.724,21.724,0,0,1,547.932,917.978Zm53.558,8.807a9.853,9.853,0,0,0,5.611,3.929,18.364,18.364,0,0,0,4.311.542,35.969,35.969,0,0,0,6.58-6.286,32.757,32.757,0,0,0,2.669-3.833A41.485,41.485,0,0,1,601.49,926.785Zm20.5-6.248a33.341,33.341,0,0,1-3.331,4.973,36.525,36.525,0,0,1-5.781,5.705,23.735,23.735,0,0,0,7.138-1.638A30.343,30.343,0,0,0,626.545,926a30.376,30.376,0,0,0-3.48-4.356Q622.548,921.1,621.993,920.537Zm-64.111-.526a59.416,59.416,0,0,0,5.713,7.68,11.965,11.965,0,0,0,2.646,2.192,21.361,21.361,0,0,0,3.783-3.092,29.135,29.135,0,0,0,2.78-3.312q-.391-.872-.734-1.778-.357-.942-.657-1.91-.465-.1-.921-.227a14.816,14.816,0,0,1-2.237-.823A38.631,38.631,0,0,1,557.882,920.01ZM577,920.06c4,2.755,9.133,4.579,15.336,5.447a48.627,48.627,0,0,0,7.576.471,28.872,28.872,0,0,1-2.84-6.916q-.151-.529-.294-1.074-1.716-.237-3.428-.6a33.931,33.931,0,0,1-4.221-1.168,44.329,44.329,0,0,1-8.06,3.089A26.344,26.344,0,0,1,577,920.06Zm20.7-1.954q.1.363.2.719a26.9,26.9,0,0,0,3.01,7.124,40.555,40.555,0,0,0,20.313-6.172c-1.167-1.137-2.444-2.293-3.8-3.45q-1.875.569-3.765.986A47.681,47.681,0,0,1,597.7,918.106Zm24.884,1.808q.573.577,1.1,1.146a31.772,31.772,0,0,1,3.545,4.436l.29-.221a41.953,41.953,0,0,0,2.733-8.813q.4-1.99.671-4.144a39.157,39.157,0,0,1-8.344,7.6Zm9.359-8.886q-.308,2.944-.842,5.6a44.332,44.332,0,0,1-2.163,7.5,36.828,36.828,0,0,0,3.366-3.282,41.49,41.49,0,0,0,9.76-19.714,60,60,0,0,1-8.079,6.911Q633.038,909.579,631.947,911.028Zm-59.576,8.938q.235.722.5,1.429.242.638.509,1.26c.516-.755,1.041-1.584,1.568-2.494A17.4,17.4,0,0,1,572.371,919.966Zm-.284-.919a16.336,16.336,0,0,0,2.484.244,23.793,23.793,0,0,1-1.981-1.87q-.429.151-.862.3Q571.894,918.387,572.087,919.046Zm6.39-4.065c-.664,1.564-1.345,2.98-2.029,4.259a24.8,24.8,0,0,0,4.408-.762,42.007,42.007,0,0,0,7.155-2.675,25.665,25.665,0,0,1-5.45-2.928C581.27,913.593,579.905,914.3,578.477,914.981Zm-21.128,4.152a36.82,36.82,0,0,0,9.742-.995,18.248,18.248,0,0,1-5.754-5.385,31.812,31.812,0,0,1-2.425-4,48.6,48.6,0,0,1-5.873-1.466l-.414-.133A35.769,35.769,0,0,0,557.349,919.133Zm61.041-3.11c1.2,1.033,2.332,2.064,3.378,3.08a30.342,30.342,0,0,0,2.007-5.163A53.606,53.606,0,0,1,618.39,916.023Zm-71.072.7a20.364,20.364,0,0,0,5.452,1.876,29.231,29.231,0,0,0,3.553.476,45.893,45.893,0,0,1-2.267-4.437,30.478,30.478,0,0,1-2.356-7.805,29.212,29.212,0,0,1-7.51-3.892A34.344,34.344,0,0,0,547.318,916.724Zm26.159.376a23.168,23.168,0,0,0,2.116,1.914c.574-1.062,1.147-2.222,1.71-3.489C576.067,916.082,574.789,916.612,573.477,917.1Zm-3.872,1.275a14.293,14.293,0,0,0,1.529.47q-.119-.429-.227-.861Q570.26,918.187,569.6,918.374Zm55.2-4.907a31.045,31.045,0,0,1-1.837,5.137,38.269,38.269,0,0,0,8.153-7.906c.026-.253.05-.51.073-.766q-.888.565-1.834,1.122Q627.105,912.376,624.8,913.467Zm-64.823-4.537a30.975,30.975,0,0,0,2.061,3.324,16.832,16.832,0,0,0,6.3,5.577q1.2-.313,2.374-.687-.3-1.325-.49-2.69c-.05-.074-.1-.148-.148-.223a25.031,25.031,0,0,1-2.443-4.8A41.127,41.127,0,0,1,559.978,908.931Zm37.494,8.279a46.829,46.829,0,0,0,16-.738q1.585-.349,3.16-.809a106.864,106.864,0,0,0-12.011-8.591c-.941.584-1.931,1.212-2.961,1.865-1.646,1.044-3.4,2.158-5.236,3.264C596.733,913.957,597.077,915.632,597.472,917.21Zm-7.248-1.531a33.73,33.73,0,0,0,3.307.869q1.51.318,3.023.538c-.342-1.4-.645-2.876-.92-4.41C593.884,913.717,592.07,914.74,590.224,915.679Zm-18.875.314q.086.444.182.883l.432-.147Q571.649,916.368,571.349,915.993Zm-.305-1.856a22.224,22.224,0,0,0,1.8,2.282c1.721-.626,3.383-1.329,4.972-2.074q.811-1.943,1.578-4.2-.268-.279-.526-.568a21.059,21.059,0,0,1-1.4-1.75q-.6.183-1.211.347a37.268,37.268,0,0,1-5.547,1.043A37.433,37.433,0,0,0,571.044,914.137ZM536.687,891.3a36.317,36.317,0,0,0-.239,4.092,27.64,27.64,0,0,0,3.771,14.692A18.3,18.3,0,0,0,546.056,916a35.5,35.5,0,0,1-2.738-13.736A18.289,18.289,0,0,1,536.687,891.3Zm68.755,15.271a107.159,107.159,0,0,1,12.175,8.8,52.774,52.774,0,0,0,6.445-2.5,31.189,31.189,0,0,0,.8-9.882,17.42,17.42,0,0,1-4.137,2.555c-3.854,1.658-7.358,1.718-10.414.179a11.894,11.894,0,0,1-1.632-1C607.689,905.228,606.607,905.859,605.442,906.569Zm-22.05,5.837a25.424,25.424,0,0,0,5.688,2.883c2.186-1.078,4.335-2.289,6.4-3.521-.377-2.224-.7-4.567-.992-6.992-1.57,1.272-3.191,2.5-4.829,3.647C587.917,909.642,585.8,911.027,583.392,912.406Zm-3.324-1.584q-.537,1.562-1.1,2.968c.978-.481,1.925-.977,2.834-1.477A22.308,22.308,0,0,1,580.068,910.821Zm-11.532-1.427a24.688,24.688,0,0,0,1.452,3.05q-.135-1.548-.145-3.142Q569.192,909.359,568.536,909.394Zm57.128-7.109a32.21,32.21,0,0,1-.6,10.1q1.947-.952,3.857-2.074,1.23-.722,2.359-1.461a97.927,97.927,0,0,0-.037-13.932A27,27,0,0,1,625.664,902.285Zm-45.291,7.631a21.365,21.365,0,0,0,2.249,1.939c2.523-1.428,4.737-2.873,6.538-4.137,1.825-1.281,3.566-2.609,5.2-3.951q-.131-1.123-.256-2.266-1.434-.624-2.8-1.134a42.655,42.655,0,0,1-9.866,6Q580.929,908.232,580.373,909.916Zm14.9-5.787c.3,2.487.617,4.886,1,7.162,1.722-1.045,3.377-2.094,4.931-3.079.9-.569,1.766-1.12,2.6-1.639q-.345-.208-.689-.412c-2.147-1.273-4.235-2.4-6.243-3.384Q596.081,903.458,595.273,904.128Zm36.83,5.211v.006l.007-.01Zm-53.777-1.787q.556.753,1.179,1.451l.19.21q.377-1.171.736-2.427Q579.388,907.2,578.327,907.552Zm-18.839.425a40.7,40.7,0,0,0,7.828.6,40.347,40.347,0,0,1-1.711-15.987q-.641-.584-1.235-1.226-.365-.395-.711-.809c-1.955.9-3.679,1.776-5.084,2.563a13.6,13.6,0,0,0-2.323,1.624q0,.142.009.283A31.875,31.875,0,0,0,559.488,907.977Zm6.933-14.681a38.619,38.619,0,0,0,1.8,15.252q.818-.038,1.63-.11a44.485,44.485,0,0,1,.367-5.035,31.437,31.437,0,0,1,1.31-7.06A20.564,20.564,0,0,1,566.421,893.3Zm5.916,3.369a31.261,31.261,0,0,0-1.264,6.791l0,.04a43.605,43.605,0,0,0-.361,4.855,36.368,36.368,0,0,0,5.318-1.008q.463-.124.923-.26a23.526,23.526,0,0,1-3.6-10.067Q572.838,896.85,572.337,896.664Zm59.656-3.255a102.591,102.591,0,0,1,.191,14.841q.6-.4,1.161-.806a39.458,39.458,0,0,0,5.751-21.269c-.057-3.469-1.081-5.8-3.129-7.141a6.612,6.612,0,0,0-.7-.395A35.063,35.063,0,0,1,631.993,893.409ZM552.485,906.2q.4.136.812.266a48.086,48.086,0,0,0,5.143,1.321,32.737,32.737,0,0,1-3.018-12.239,11.184,11.184,0,0,0-2.877,5.877A16.343,16.343,0,0,0,552.485,906.2Zm21.771-8.914a22.525,22.525,0,0,0,3.552,9.533q1.473-.476,2.916-1.079c.7-2.594,1.245-5.132,1.647-7.5q-.478-.027-.932-.027A27.04,27.04,0,0,1,574.256,897.282Zm60.989-19.6a7.633,7.633,0,0,1,1.191.631c2.274,1.483,3.459,4.123,3.52,7.847a40.4,40.4,0,0,1-4.878,20,53.441,53.441,0,0,0,7.277-6.607,50.8,50.8,0,0,0-1.807-23.207,48.655,48.655,0,0,0-5.757-2.592,26.314,26.314,0,0,1,.437,3.574C635.235,877.449,635.24,877.566,635.245,877.682Zm-37.68,24.479c1.931.954,3.931,2.042,5.982,3.257q.537.318,1.072.644c1.185-.729,2.293-1.383,3.311-1.928a21.655,21.655,0,0,1-4.958-6.5q-.462.127-.922.228C600.662,899.307,599.154,900.751,597.566,902.161Zm11.988,2.117a10.691,10.691,0,0,0,1.14.667c2.858,1.44,6.026,1.374,9.687-.2a16.866,16.866,0,0,0,4.381-2.808,36.234,36.234,0,0,0-1.5-7.041,21.973,21.973,0,0,0-1.049-2.7c-3.943,5.993-8.268,10.331-11.579,11.613C610.294,903.942,609.932,904.1,609.553,904.278Zm-65.373-2.412a27.125,27.125,0,0,0,7.4,4.009,16.923,16.923,0,0,1,.117-4.6,11.972,11.972,0,0,1,3.686-6.908,35.967,35.967,0,0,1,3.05-15.069,39.915,39.915,0,0,1-.821-8.346q-1.355-.07-2.688-.043a62.129,62.129,0,0,0-9.819,22.5A42.606,42.606,0,0,0,544.18,901.866Zm39.05-3.563c-.373,2.218-.868,4.58-1.5,7a41.869,41.869,0,0,0,8.628-5.278A31.874,31.874,0,0,0,583.23,898.3Zm20.6-.921a20.13,20.13,0,0,0,4.941,6.321c.551-.274,1.072-.509,1.56-.7,3.117-1.207,7.418-5.562,11.223-11.364l.221-.339a17.658,17.658,0,0,0-4.536-5.532,20.841,20.841,0,0,1-4.963,6.654A23.363,23.363,0,0,1,603.826,897.383Zm-8.808,4.522c.045.4.09.805.136,1.206q.44-.369.869-.74Q595.517,902.131,595.018,901.9Zm-.109-.99q.9.4,1.821.84c1.385-1.221,2.677-2.439,3.865-3.633a14.774,14.774,0,0,1-3.32.082,4.992,4.992,0,0,1-2.45-.952l-.274.264Q594.729,899.233,594.91,900.915Zm27.854-9.566a22.6,22.6,0,0,1,1.322,3.288,37.4,37.4,0,0,1,1.459,6.582,27.031,27.031,0,0,0,5.287-7.386q.145-.29.284-.583-.415-5.121-1.271-10.751a40.191,40.191,0,0,0-.819-4.01A62.009,62.009,0,0,1,622.764,891.348Zm-85.575-3.219q.006.126.012.253a17.765,17.765,0,0,0,4.028,10.628,18.85,18.85,0,0,0,2.1,2.15,43.858,43.858,0,0,1,.934-7.927,62.9,62.9,0,0,1,9.591-22.289,33.075,33.075,0,0,0-4.7.565c-3.475.679-6.7,3.6-9.089,8.22A32.6,32.6,0,0,0,537.189,888.13Zm54.885,11.608q.947.364,1.927.781-.121-1.123-.238-2.263Q592.927,899.023,592.074,899.738Zm-8.705-2.285a33.781,33.781,0,0,1,7.775,1.938q1.205-.99,2.375-2.083l.132-.124q-.056-.542-.111-1.087a20.885,20.885,0,0,1-3.13-5,11.271,11.271,0,0,1-5.2.6c-.357-.087-.743-.192-1.154-.315C583.94,893.182,583.716,895.238,583.369,897.453Zm12.078-.813a4.118,4.118,0,0,0,1.909.707,14.587,14.587,0,0,0,4.256-.267q.358-.375.7-.745a53.737,53.737,0,0,1-2.124-5.1A58.379,58.379,0,0,1,595.446,896.64Zm-21.3-.286a25.975,25.975,0,0,0,7.293.991q.522,0,1.072.035c.364-2.3.591-4.426.7-6.266a37.107,37.107,0,0,1-6.942-3.187q-.559.873-1.066,1.794c-.428.777-.811,1.55-1.155,2.311A28.146,28.146,0,0,0,574.145,896.355Zm29.208.119.069.137a22.459,22.459,0,0,0,8.269-4.823,19.9,19.9,0,0,0,4.842-6.554,19.461,19.461,0,0,0-4.288-2.335q-.28-.111-.564-.214-.681.268-1.361.542a28.05,28.05,0,0,1-.684,3.835C609.06,889.288,606.772,892.714,603.353,896.474Zm-8.984-.741c.129.132.26.257.392.375a57.845,57.845,0,0,0,5.085-5.838q-.4-1.158-.779-2.36c-1.878.774-3.657,1.483-5.3,2.078.2,1.83.384,3.658.57,5.472C594.35,895.552,594.359,895.642,594.369,895.733Zm-21.779.1q.329.123.664.237-.081-.927-.1-1.867Q572.841,895.043,572.59,895.837Zm28.223-5.418c.338.951.69,1.882,1.06,2.786q.526,1.286,1.073,2.437c3.241-3.6,5.337-6.783,5.857-8.8a26.511,26.511,0,0,0,.607-3.251c-1.859.756-3.7,1.528-5.472,2.276Q602.452,888.234,600.812,890.419Zm-34.319,1.81a19.643,19.643,0,0,0,5.287,3.286,35.933,35.933,0,0,1,1.417-3.7,32.057,32.057,0,0,1,.779-5.361l-.084-.059c-2.5.89-4.89,1.83-7.09,2.767Q566.607,890.729,566.493,892.229Zm24.749-1.382a24,24,0,0,0,2.14,3.708q-.218-2.127-.446-4.269Q592.058,890.593,591.242,890.847ZM558.77,880.72a35.815,35.815,0,0,0-2.529,12.914,14.976,14.976,0,0,1,1.914-1.266c1.375-.769,3.052-1.62,4.951-2.5A25.393,25.393,0,0,1,558.77,880.72Zm70.951-2.977a41.01,41.01,0,0,1,.976,4.625q.73,4.8,1.141,9.247a33.93,33.93,0,0,0,2.565-13.333A12.741,12.741,0,0,0,629.721,877.743Zm-65.248,12.443q.259.3.53.6.336.364.689.708.083-.953.2-1.932Q565.165,889.873,564.473,890.186Zm19.631.312c.469.144.908.265,1.309.363a10.29,10.29,0,0,0,4.629-.554c-.91-1.99-1.775-4.205-2.654-6.459q-.239-.611-.479-1.226c-1.26.275-2.478.569-3.636.87a10.875,10.875,0,0,1,.822,3.434A31.91,31.91,0,0,1,584.1,890.5Zm33.483-5.551a18.36,18.36,0,0,1,4.714,5.524,60.772,60.772,0,0,0,6.037-12.622,48.714,48.714,0,0,0-9.691,2.3A14.8,14.8,0,0,1,617.586,884.947Zm-40.847,2.266a36.327,36.327,0,0,0,6.516,3.009,30.38,30.38,0,0,0-.021-3.238,10.049,10.049,0,0,0-.8-3.27c-1.309.353-2.616.735-3.912,1.138Q577.577,885.98,576.739,887.213Zm11.022-4.774.428,1.094c.893,2.287,1.769,4.532,2.684,6.526.626-.193,1.283-.413,1.969-.655-.282-2.581-.589-5.163-.944-7.712C590.486,881.908,589.1,882.161,587.761,882.439Zm-13.02,4.536q-.293,1.326-.47,2.658.088-.163.178-.327.516-.937,1.083-1.825Q575.135,887.235,574.74,886.975Zm-15.406-7.585a24.986,24.986,0,0,0,4.575,10.106q1.015-.461,2.1-.93.513-3.917,1.511-8.216a21.55,21.55,0,0,1-2.2-3.607,19.032,19.032,0,0,1-1.512-4.481,28.921,28.921,0,0,0-4.2,6.535Q559.468,879.092,559.334,879.39Zm40.53,8.19q.295.936.607,1.856,1.065-1.446,2.067-2.975Q601.176,887.034,599.864,887.58Zm-7.115-6.012c.347,2.493.648,5.015.925,7.537,1.6-.587,3.333-1.278,5.136-2.021-.591-1.936-1.143-3.943-1.668-5.98C595.667,881.206,594.2,881.366,592.749,881.568Zm-24.542-.349q-.814,3.618-1.276,6.956c1.921-.808,3.978-1.616,6.118-2.389A28.271,28.271,0,0,1,568.207,881.219Zm6.742,4.869q.524.352,1.051.679.5-.74,1.039-1.444-1.045.341-2.073.7Zm23.065-5.037c.49,1.9,1.017,3.819,1.593,5.7,1.139-.473,2.3-.963,3.474-1.457l.272-.115q1.187-1.9,2.265-3.913A43.165,43.165,0,0,0,598.014,881.051Zm-29.561-.9a27.252,27.252,0,0,0,5.566,5.286l.231-.081A34.288,34.288,0,0,1,576.8,878.7q.281-.552.578-1.088l0,0a29.792,29.792,0,0,0-7.1-3.927q-.449,1.231-.813,2.546Q568.908,878.231,568.453,880.154Zm9.608-1.992q-.252.46-.493.933a33.5,33.5,0,0,0-2.332,5.923q1.378-.47,2.784-.912a29.774,29.774,0,0,1,2.9-2.972A17.59,17.59,0,0,0,578.061,878.161Zm28.466,3.234q-.871,1.639-1.816,3.215c1.569-.659,3.18-1.331,4.808-1.99q.029-.294.053-.6A29.031,29.031,0,0,0,606.528,881.4Zm6.339.827a20.307,20.307,0,0,1,4,2.191,13.988,13.988,0,0,0,.9-3.976C616.151,880.985,614.508,881.589,612.866,882.223ZM564.6,849.275q-.4.159-.8.335c-6.532,2.864-13.5,8.881-18.634,16.094-4.384,6.157-7.072,12.514-7.8,18.323a30.863,30.863,0,0,1,1.931-4.693c2.509-4.86,5.95-7.938,9.689-8.669a34.22,34.22,0,0,1,5.474-.6q1.647-2.339,3.445-4.467a32.038,32.038,0,0,1,6.691-16.321Zm16.822,32.569q-.945.847-1.815,1.777,1.221-.363,2.448-.7Q581.772,882.378,581.422,881.844Zm.656-.57a13.465,13.465,0,0,1,.829,1.422q1.87-.491,3.68-.889c-.391-.989-.788-1.974-1.2-2.942q-.623.39-1.222.807Q583.084,880.427,582.078,881.274Zm28.4.11q.6.178,1.184.381c2.056-.807,4.118-1.575,6.132-2.252a14.477,14.477,0,0,0-1.935-7.057c-1.675.125-3.5.28-5.505.462-.06.161-.121.32-.182.48A40.259,40.259,0,0,1,610.48,881.384Zm-24.346-2.97c.447,1.055.88,2.131,1.305,3.208q2.22-.466,4.335-.79-.345-2.392-.759-4.732A31.788,31.788,0,0,0,586.134,878.415Zm20.816,2.173q1.392.228,2.684.563a39.325,39.325,0,0,0-.127-6.082Q608.339,877.892,606.95,880.587ZM591.838,875.8c.29,1.614.551,3.252.789,4.9q2.212-.312,4.3-.462c-.41-1.62-.8-3.259-1.189-4.9q-.074-.313-.138-.629A37.252,37.252,0,0,0,591.838,875.8Zm-13.345,1.6a18.627,18.627,0,0,1,3.086,3.169q1.01-.846,2.1-1.6.671-.468,1.372-.9a44.372,44.372,0,0,0-2.884-5.684A29.648,29.648,0,0,0,578.493,877.4Zm22.155,2.706a40.194,40.194,0,0,1,5.4.346,72,72,0,0,0,3.239-7.158c-.013-.092-.027-.182-.041-.274-2.426.226-5.1.49-8.077.787a44.3,44.3,0,0,0-4.735.726q.063.311.135.619c.383,1.626.787,3.319,1.222,5.037l.378-.02Q599.436,880.106,600.648,880.106Zm-36.026-8.171a18.1,18.1,0,0,0,1.473,4.436,20.5,20.5,0,0,0,1.69,2.878q.39-1.6.845-3.247.374-1.355.838-2.625A39.294,39.294,0,0,0,564.622,871.935Zm52.183.453a15.329,15.329,0,0,1,1.847,6.841c1.051-.342,2.088-.657,3.1-.937a39.436,39.436,0,0,1,6.845-1.337,38.887,38.887,0,0,0-1.792-4.776A78.758,78.758,0,0,0,616.805,872.388ZM558.473,871a40.082,40.082,0,0,0,.578,6.967,29.351,29.351,0,0,1,4.164-6.333A40.781,40.781,0,0,0,558.473,871Zm24.3.729a43.917,43.917,0,0,1,3.019,5.884,32.784,32.784,0,0,1,5.068-2.377q-.432-2.327-.956-4.574-.429-1.827-.911-3.512A22.615,22.615,0,0,0,582.773,871.733Zm47.781,5.129a13.1,13.1,0,0,1,3.813.5,25.217,25.217,0,0,0-.521-3.927,25.844,25.844,0,0,0-3.185-.8c-.293,1.4-.665,2.818-1.11,4.253Q630.067,876.862,630.555,876.862Zm-59.971-3.992a30.682,30.682,0,0,1,7.226,3.992,30.355,30.355,0,0,1,3.87-5.229c-2.284-3.4-4.769-5.062-7.579-5.067A26.54,26.54,0,0,0,570.584,872.87Zm57.2-.62q.709,1.619,1.271,3.3.44-1.543.759-3.054C629.161,872.391,628.488,872.311,627.782,872.25Zm6.8.526a44.018,44.018,0,0,1,5.607,2.426q-.321-.984-.678-1.971c-5.882-16.254-14-27.566-24.119-33.62a34.863,34.863,0,0,0-25.238-4.225,47.811,47.811,0,0,0-13.479,4.93,44.538,44.538,0,0,1,10.045,1.5,34.5,34.5,0,0,1,12.455-1.194c5.464.545,9.686,2.557,12.2,5.7,4.777-1.129,9.661.353,14.115,4.37,3.992,3.6,6.011,8.726,5.966,15.018q.192.268.376.545A20.22,20.22,0,0,1,634.579,872.776Zm-44.8-5.989q.509,1.766.959,3.682.516,2.2.939,4.478a38.223,38.223,0,0,1,3.762-1.075,24.566,24.566,0,0,1,.333-9.1A31.5,31.5,0,0,0,589.783,866.787Zm6.918-2.207a23.828,23.828,0,0,0-.416,9.105,45.166,45.166,0,0,1,4.8-.735c2.961-.3,5.619-.556,8.022-.779a35.052,35.052,0,0,0-.977-4.09,30.3,30.3,0,0,0-1.044-2.9A20.1,20.1,0,0,0,596.7,864.58ZM564.884,871.1a39.944,39.944,0,0,1,4.9,1.458,27.708,27.708,0,0,1,3.192-5.915A14.458,14.458,0,0,0,564.884,871.1Zm65.946.688a26.521,26.521,0,0,1,2.785.676A19.386,19.386,0,0,0,631.4,867.2a35.531,35.531,0,0,1-.543,4.429C630.851,871.682,630.841,871.736,630.83,871.792Zm-18.813-3.86c-.391,1.35-.836,2.719-1.333,4.1,1.685-.151,3.239-.282,4.677-.391A16.108,16.108,0,0,0,612.017,867.932Zm-3.827-2.316c.294.757.547,1.5.765,2.215a35.617,35.617,0,0,1,.938,3.851c.523-1.451.987-2.893,1.391-4.311q-.366-.264-.75-.51A16.486,16.486,0,0,0,608.19,865.616Zm19.187,5.741c.573.042,1.123.1,1.658.16q.481.059.945.13l.033-.177a33.443,33.443,0,0,0,.568-5.484,16.437,16.437,0,0,0-8.609-5.919c-1-.307-2.1-.625-3.271-.94A43.259,43.259,0,0,1,627.378,871.357Zm-15.107-4.323a16.964,16.964,0,0,1,4.062,4.53A85.63,85.63,0,0,1,626.4,871.3a43.116,43.116,0,0,0-9.375-12.606c-.982-.245-2.008-.485-3.069-.712A50.783,50.783,0,0,1,612.271,867.034Zm-37.5-1.3c2.8.235,5.269,1.968,7.523,5.264a23.345,23.345,0,0,1,6.457-4.681,48.587,48.587,0,0,0-3.119-7.984,27.592,27.592,0,0,0-4.035,1.8A23.573,23.573,0,0,0,574.766,865.733Zm-16.285,4.411a41.769,41.769,0,0,1,5.093.68,22.541,22.541,0,0,1,1.884-11.555,55.928,55.928,0,0,0-6.723,6.684q-.06.547-.1,1.1Q558.508,868.631,558.481,870.144Zm8.465-12.068q-.112.229-.221.462a22.5,22.5,0,0,0-2.33,11.845c2.815-2.78,6-4.45,9.154-4.66l.12-.007a24.4,24.4,0,0,1,7.509-6.337,28.291,28.291,0,0,1,4.048-1.817,27.532,27.532,0,0,0-4.484-6.244l-.143-.145a33.162,33.162,0,0,0-8.85,3.662A44.8,44.8,0,0,0,566.946,858.076Zm-11.281,11.968q.975,0,1.956.049.027-1.455.142-2.969-1.146,1.414-2.229,2.921Zm52.068-5.542A17.406,17.406,0,0,1,611,866.136q.269.172.53.353a49.16,49.16,0,0,0,1.579-8.687,75.556,75.556,0,0,0-10.888-1.453A25.722,25.722,0,0,1,607.732,864.5Zm-21.282-6.448a49.532,49.532,0,0,1,3.087,7.9A31.983,31.983,0,0,1,596,863.841a28.917,28.917,0,0,1,1.374-4.074,28.348,28.348,0,0,1,1.774-3.507h-.13A40.924,40.924,0,0,0,586.45,858.053Zm31-.142c1.746.44,3.353.9,4.778,1.333a17.411,17.411,0,0,1,8.345,5.346c-.16-4.65-1.559-9.552-5.661-13.252s-8.586-5.139-12.975-4.244a11.728,11.728,0,0,1,1.677,3.823,18.5,18.5,0,0,1,.454,4.083q1.232.977,2.433,2.045Q616.98,857.474,617.447,857.911Zm-51.253-9.219a31.167,31.167,0,0,0-7.252,15.714,55.161,55.161,0,0,1,7.322-6.89,27.987,27.987,0,0,1,8.078-9.62,12.986,12.986,0,0,0-1.289-.162A17.721,17.721,0,0,0,566.194,848.692Zm34.75,14.622a19.575,19.575,0,0,1,5.673.81,24.35,24.35,0,0,0-5.723-7.833c-.25-.008-.5-.015-.748-.02a27.467,27.467,0,0,0-1.981,3.831,28.125,28.125,0,0,0-1.231,3.562A23.922,23.922,0,0,1,600.943,863.315Zm13.069-6.2q.861.183,1.689.376-.814-.717-1.645-1.392Q614.043,856.6,614.013,857.112Zm-32.425-6.157a28.729,28.729,0,0,1,4.462,6.324,42.25,42.25,0,0,1,13.625-1.873l.058-.09a23.681,23.681,0,0,0-7.425-3.889A21.114,21.114,0,0,0,581.587,850.956Zm19.657,4.49a75.007,75.007,0,0,1,11.921,1.491q.043-.779.045-1.514a62.729,62.729,0,0,0-7.793-5.172,22.98,22.98,0,0,0-4.529,4.89Q601.069,855.292,601.244,855.446Zm-25.794-7.3a27.723,27.723,0,0,0-7.532,8.138q1.676-1.191,3.4-2.194a34.482,34.482,0,0,1,8.524-3.615A11.485,11.485,0,0,0,575.45,848.147Zm10.732,1.476a20.781,20.781,0,0,1,6.39.985,24.568,24.568,0,0,1,7.646,3.99,24.049,24.049,0,0,1,4.387-4.8,75.078,75.078,0,0,0-9.719-4.429c-3.08-1.148-5.792-2.01-8.207-2.646a36.9,36.9,0,0,0-5.944,2.261,34.769,34.769,0,0,0-4.395,2.534,12.424,12.424,0,0,1,4.518,2.71A24.425,24.425,0,0,1,586.182,849.623Zm19.985.063a63.821,63.821,0,0,1,7.023,4.633,16.671,16.671,0,0,0-.416-3.2,10.817,10.817,0,0,0-1.743-3.808,15.01,15.01,0,0,0-3.619,1.564Q606.78,849.248,606.167,849.687Zm-17.776-7.406c2.323.671,4.588,1.461,6.8,2.284a75.861,75.861,0,0,1,10.155,4.659,18.324,18.324,0,0,1,1.63-1.089,16.179,16.179,0,0,1,3.48-1.556c-2.4-2.8-6.324-4.591-11.367-5.095A33.012,33.012,0,0,0,588.391,842.281Zm-13.151-1.137a39.092,39.092,0,0,0-5.829,4.276q-1.11.991-2.113,2.049a17.658,17.658,0,0,1,5.82-.594,13.594,13.594,0,0,1,2.151.335,35.191,35.191,0,0,1,5.092-3,37.53,37.53,0,0,1,4.7-1.889A39.444,39.444,0,0,0,575.241,841.143Z" transform="translate(-532.324 -833.773)" fill="#2b478b"/>
        </g>
        <g id="Grupo_80842" data-name="Grupo 80842" transform="translate(-2470.167 -10376.375)">
          <path id="Trazado_181624" data-name="Trazado 181624" d="M801.577,536.083c3.81-14.808,10.251-27.685,27.685-27.685,15.29,0,29.158,13.469,28.15,30.068-.927,15.262-14.18,28.189-30.4,26.372C811.813,563.136,797.214,553.038,801.577,536.083Z" transform="translate(-800.793 -508.398)" fill="#214be5" opacity="0.25"/>
          <g id="Grupo_80841" data-name="Grupo 80841" transform="translate(16.868 10.773)" opacity="0.8">
            <path id="Trazado_181625" data-name="Trazado 181625" d="M886.843,585.426a20.021,20.021,0,0,1,.217-3.16,9.5,9.5,0,0,1,2.008-4.567,23.173,23.173,0,0,1,1.945-2.123q.869-.845,1.624-1.6a12.986,12.986,0,0,0,1.331-1.548,7.043,7.043,0,0,0,.908-1.688,5.7,5.7,0,0,0,.332-2,5.17,5.17,0,0,0-1.189-3.671,4.565,4.565,0,0,0-3.493-1.267,6.341,6.341,0,0,0-1.791.256,4.416,4.416,0,0,0-1.56.819,4.168,4.168,0,0,0-1.113,1.433,4.767,4.767,0,0,0-.422,2.1h-6.217a10.129,10.129,0,0,1,.882-4.234,8.749,8.749,0,0,1,2.354-3.07,10.16,10.16,0,0,1,3.5-1.868,15.89,15.89,0,0,1,8.967.038,9.385,9.385,0,0,1,3.428,1.944,8.278,8.278,0,0,1,2.137,3.122,11.263,11.263,0,0,1,.729,4.17,9.035,9.035,0,0,1-.537,3.147,11.952,11.952,0,0,1-1.433,2.737,19.518,19.518,0,0,1-2.047,2.457q-1.151,1.177-2.379,2.328a6.35,6.35,0,0,0-1.881,2.8,12.107,12.107,0,0,0-.5,3.441Zm-.435,7.957a3.767,3.767,0,0,1,.23-1.33,3.023,3.023,0,0,1,1.778-1.791,4.507,4.507,0,0,1,2.993,0,3.075,3.075,0,0,1,1.1.716,3.23,3.23,0,0,1,.691,1.075,3.584,3.584,0,0,1,.243,1.33,3.241,3.241,0,0,1-.921,2.354,3.474,3.474,0,0,1-2.61.947,3.429,3.429,0,0,1-2.6-.947A3.264,3.264,0,0,1,886.408,593.383Z" transform="translate(-879.424 -558.614)" fill="#fff"/>
          </g>
        </g>
        <g id="Grupo_80843" data-name="Grupo 80843" transform="translate(-2423.579 -10396.714)">
          <path id="Trazado_181626" data-name="Trazado 181626" d="M1196.99,452.006l-25.612,7.361,15.7-14.23,1.409,3.666,6.514.267Z" transform="translate(-1171.378 -439.029)" fill="#eabe96"/>
          <path id="Trazado_181627" data-name="Trazado 181627" d="M1171.378,445.14l20.185-14.235,21.162-4.036Z" transform="translate(-1171.378 -424.802)" fill="#f9ddbf"/>
          <path id="Trazado_181628" data-name="Trazado 181628" d="M1187.075,423.629l-15.7,14.23,10.855-20.338Z" transform="translate(-1171.378 -417.521)" fill="#f9ddbf"/>
        </g>
        <g id="Grupo_80844" data-name="Grupo 80844" transform="translate(-2228.369 -10339.226)">
          <path id="Trazado_181629" data-name="Trazado 181629" d="M2303.961,921.991,2324.4,924.9l-13.567-9.242-.688,2.964-4.971.9Z" transform="translate(-2290.719 -910.455)" fill="#edcbab"/>
          <path id="Trazado_181630" data-name="Trazado 181630" d="M2259.458,923.145l-17.012-8.766-16.672-.835Z" transform="translate(-2225.773 -908.698)" fill="#f9ddbf"/>
          <path id="Trazado_181631" data-name="Trazado 181631" d="M2344.55,890.133l13.567,9.242-10.5-14.447Z" transform="translate(-2324.433 -884.929)" fill="#f9ddbf"/>
        </g>
        <g id="Grupo_80855" data-name="Grupo 80855" transform="translate(-2303.255 -10323.62)">
          <g id="Grupo_80846" data-name="Grupo 80846" transform="translate(6.797 1.806)">
            <g id="Grupo_80845" data-name="Grupo 80845">
              <path id="Trazado_181632" data-name="Trazado 181632" d="M1906.687,889.016a55.339,55.339,0,0,1-40.721-18.125c-8.677-9.719-12.7-21.77-11.314-33.936l.206.023-.206-.023c1.889-16.638,7.512-29.531,16.713-38.32,8.727-8.336,20.608-12.943,35.312-13.693,17.2-.877,30.439,4.023,39.341,14.564a49.761,49.761,0,0,1,9.105,16.989,82.5,82.5,0,0,1,3.6,20.471,63.435,63.435,0,0,1-2.09,21.453,39.987,39.987,0,0,1-9.2,16.417C1938.557,884.246,1924.847,889.016,1906.687,889.016Zm3.84-103.758q-1.881,0-3.829.1c-14.6.745-26.393,5.313-35.047,13.579-9.129,8.72-14.71,21.528-16.588,38.067-1.368,12.046,2.614,23.983,11.212,33.613a54.92,54.92,0,0,0,40.412,17.986c18.041,0,31.65-4.727,40.449-14.048a39.576,39.576,0,0,0,9.1-16.249,63.017,63.017,0,0,0,2.074-21.313,82.1,82.1,0,0,0-3.581-20.368,49.349,49.349,0,0,0-9.028-16.849C1937.558,790.133,1925.736,785.258,1910.527,785.258Z" transform="translate(-1854.098 -784.556)" fill="#2b478b"/>
              <path id="Trazado_181633" data-name="Trazado 181633" d="M1904.857,887.472a55.631,55.631,0,0,1-40.935-18.22c-8.665-9.7-12.713-21.723-11.417-33.874h0l.065-.57h0c1.928-16.569,7.569-29.423,16.767-38.21,8.779-8.385,20.721-13.019,35.5-13.772,17.3-.882,30.612,4.052,39.575,14.666a50.051,50.051,0,0,1,9.159,17.087,82.781,82.781,0,0,1,3.614,20.543,63.728,63.728,0,0,1-2.1,21.551,40.276,40.276,0,0,1-9.262,16.533C1936.879,882.672,1923.1,887.472,1904.857,887.472Zm3.84-103.759c-1.242,0-2.526.033-3.815.1-14.531.741-26.26,5.283-34.863,13.5-9.079,8.672-14.631,21.421-16.5,37.892-1.358,11.964,2.6,23.822,11.141,33.389a54.628,54.628,0,0,0,40.2,17.89c17.959,0,31.5-4.7,40.24-13.958a39.291,39.291,0,0,0,9.033-16.133,62.733,62.733,0,0,0,2.063-21.215,81.8,81.8,0,0,0-3.568-20.3,49.073,49.073,0,0,0-8.973-16.752C1935.573,788.564,1923.813,783.714,1908.7,783.714Z" transform="translate(-1852.267 -782.725)" fill="#2b478b"/>
            </g>
          </g>
          <g id="Grupo_80848" data-name="Grupo 80848" transform="translate(1.649 1.896)">
            <g id="Grupo_80847" data-name="Grupo 80847">
              <path id="Trazado_181634" data-name="Trazado 181634" d="M1875.715,891.9c-8.629,0-18.125-2.451-28.4-7.342a55.339,55.339,0,0,1-28.969-33.874c-3.655-12.505-2.1-25.114,4.378-35.5,8.86-14.209,19.481-23.431,31.568-27.409,11.463-3.773,24.171-2.824,37.768,2.822,15.908,6.605,25.751,16.721,29.255,30.066a49.767,49.767,0,0,1,.914,19.254,82.47,82.47,0,0,1-5.552,20.03,63.439,63.439,0,0,1-11.113,18.47,38.709,38.709,0,0,1-29.854,13.486Zm-52.811-76.61.176.11c-6.415,10.287-7.953,22.777-4.332,35.167a54.918,54.918,0,0,0,28.75,33.616c16.288,7.758,30.607,9.343,42.559,4.711a39.572,39.572,0,0,0,15.2-10.757,63.016,63.016,0,0,0,11.038-18.35,82.073,82.073,0,0,0,5.525-19.929,49.35,49.35,0,0,0-.9-19.093c-3.47-13.214-13.231-23.236-29.013-29.789-13.5-5.607-26.114-6.553-37.48-2.811-11.992,3.947-22.538,13.11-31.345,27.234Z" transform="translate(-1816.127 -785.226)" fill="#2b478b"/>
              <path id="Trazado_181635" data-name="Trazado 181635" d="M1873.883,890.36c-8.656,0-18.251-2.48-28.518-7.37a55.634,55.634,0,0,1-29.122-34.053c-3.678-12.585-2.112-25.276,4.41-35.736,8.9-14.267,19.569-23.53,31.721-27.53,11.531-3.8,24.306-2.843,37.968,2.83,16,6.642,25.894,16.822,29.423,30.258a50.05,50.05,0,0,1,.921,19.365,82.783,82.783,0,0,1-5.571,20.1,63.727,63.727,0,0,1-11.164,18.553,39,39,0,0,1-30.068,13.582Zm-52.391-76.635c-6.371,10.217-7.9,22.624-4.3,34.935a54.628,54.628,0,0,0,28.6,33.438c16.214,7.723,30.456,9.3,42.332,4.7a39.289,39.289,0,0,0,15.092-10.681,62.728,62.728,0,0,0,10.986-18.266,81.781,81.781,0,0,0,5.506-19.859,49.05,49.05,0,0,0-.9-18.982c-3.446-13.122-13.15-23.08-28.845-29.6-13.438-5.58-25.98-6.523-37.28-2.8C1840.758,790.536,1830.263,799.658,1821.492,813.724Z" transform="translate(-1814.296 -783.394)" fill="#2b478b"/>
            </g>
          </g>
          <g id="Grupo_80850" data-name="Grupo 80850" transform="translate(7.331 0)">
            <g id="Grupo_80849" data-name="Grupo 80849">
              <path id="Trazado_181636" data-name="Trazado 181636" d="M1914.862,883c-12.521,0-25.383-6.017-38.277-17.917a57.288,57.288,0,0,1-18.253-42.379c.222-13.486,5.627-25.476,15.219-33.761l.14.162-.14-.162c13.119-11.331,26.449-17.191,39.619-17.417,12.487-.215,24.765,4.622,36.478,14.376,13.7,11.411,20.332,24.432,19.7,38.7a51.512,51.512,0,0,1-5,19.317,85.423,85.423,0,0,1-11.634,18.1,65.672,65.672,0,0,1-16.653,14.853,41.4,41.4,0,0,1-18.522,6.033Q1916.2,883,1914.862,883Zm-.9-111.052c-.263,0-.524,0-.787.007-13.067.224-26.306,6.049-39.346,17.313-9.5,8.2-14.851,20.081-15.071,33.443a56.854,56.854,0,0,0,18.115,42.056c13.725,12.667,27.4,18.627,40.635,17.712a40.975,40.975,0,0,0,18.332-5.973,65.248,65.248,0,0,0,16.542-14.757,85,85,0,0,0,11.576-18.009,51.1,51.1,0,0,0,4.962-19.156c.622-14.129-5.955-27.033-19.549-38.353C1937.989,776.756,1926.079,771.953,1913.965,771.953Z" transform="translate(-1858.038 -771.236)" fill="#2b478b"/>
              <path id="Trazado_181637" data-name="Trazado 181637" d="M1913.032,881.461h0c-12.59,0-25.534-6.053-38.472-17.994a57.581,57.581,0,0,1-18.345-42.594c.222-13.467,5.583-25.453,15.1-33.785h0l.435-.375h0c13.1-11.254,26.417-17.074,39.585-17.3,12.559-.218,24.9,4.643,36.666,14.442,13.775,11.471,20.439,24.571,19.806,38.935a51.807,51.807,0,0,1-5.028,19.425,85.688,85.688,0,0,1-11.673,18.163,65.953,65.953,0,0,1-16.727,14.917,41.679,41.679,0,0,1-18.65,6.073c-.893.062-1.8.093-2.7.093Zm-.9-111.052c-.261,0-.521,0-.782.007-13,.223-26.175,6.025-39.164,17.243-9.436,8.15-14.753,19.951-14.971,33.23a56.561,56.561,0,0,0,18.022,41.841c12.757,11.773,25.457,17.727,37.792,17.727q1.318,0,2.629-.09a40.688,40.688,0,0,0,18.2-5.932,64.968,64.968,0,0,0,16.468-14.693,84.7,84.7,0,0,0,11.538-17.948,50.809,50.809,0,0,0,4.936-19.048c.618-14.034-5.925-26.86-19.446-38.12C1936.032,775.193,1924.181,770.41,1912.136,770.41Z" transform="translate(-1856.208 -769.406)" fill="#2b478b"/>
            </g>
          </g>
          <g id="Grupo_80852" data-name="Grupo 80852" transform="translate(0 0.787)">
            <g id="Grupo_80851" data-name="Grupo 80851">
              <path id="Trazado_181638" data-name="Trazado 181638" d="M1852.665,887.1a39.95,39.95,0,0,1-13.984-2.447c-12.555-4.662-22.642-15.8-29.981-33.109a57.29,57.29,0,0,1,.818-46.136c5.756-12.2,15.619-20.9,27.772-24.5,16.621-4.923,31.181-4.774,43.277.443,11.472,4.949,20.664,14.41,27.321,28.122,7.788,16.041,8.467,30.637,2.018,43.382a51.518,51.518,0,0,1-12.513,15.544,85.412,85.412,0,0,1-18.056,11.7,65.677,65.677,0,0,1-21.292,6.678A46.6,46.6,0,0,1,1852.665,887.1ZM1837.35,781.117l.061.206c-12.034,3.565-21.8,12.184-27.505,24.27a56.855,56.855,0,0,0-.811,45.785c7.291,17.195,17.3,28.255,29.736,32.874a40.971,40.971,0,0,0,19.164,2.106,65.245,65.245,0,0,0,21.151-6.636,84.978,84.978,0,0,0,17.965-11.645,51.088,51.088,0,0,0,12.41-15.413c6.385-12.619,5.705-27.086-2.021-43-6.61-13.616-15.73-23.008-27.1-27.915-12-5.177-26.463-5.32-42.985-.426Z" transform="translate(-1803.964 -777.04)" fill="#2b478b"/>
              <path id="Trazado_181639" data-name="Trazado 181639" d="M1850.838,885.558a40.317,40.317,0,0,1-14.084-2.465c-12.633-4.69-22.775-15.883-30.146-33.266a57.579,57.579,0,0,1,.823-46.37c5.791-12.273,15.717-21.027,27.949-24.651,16.688-4.943,31.314-4.789,43.472.455,11.537,4.977,20.778,14.485,27.466,28.26,7.829,16.126,8.508,30.807,2.016,43.637a51.811,51.811,0,0,1-12.581,15.631,85.688,85.688,0,0,1-18.117,11.745,65.949,65.949,0,0,1-21.386,6.705A46.984,46.984,0,0,1,1850.838,885.558Zm-15.173-105.79c-11.955,3.541-21.659,12.106-27.327,24.117a56.562,56.562,0,0,0-.807,45.55c7.259,17.119,17.208,28.127,29.571,32.717a40.686,40.686,0,0,0,19.031,2.09,64.962,64.962,0,0,0,21.058-6.608,84.691,84.691,0,0,0,17.9-11.6,50.811,50.811,0,0,0,12.342-15.325c6.343-12.534,5.662-26.916-2.023-42.745-6.58-13.552-15.651-22.9-26.961-27.777C1866.517,775.033,1852.12,774.893,1835.665,779.768Z" transform="translate(-1802.136 -775.21)" fill="#2b478b"/>
            </g>
          </g>
          <g id="Grupo_80854" data-name="Grupo 80854" transform="translate(9.872 1.806)">
            <g id="Grupo_80853" data-name="Grupo 80853">
              <path id="Trazado_181640" data-name="Trazado 181640" d="M1929.321,889.016c-15.365,0-28.369-8.066-38.5-19.415-8.678-9.718-14.914-20.48-13.533-32.645,1.889-16.638,7.512-29.531,16.713-38.32,8.727-8.336,20.608-12.943,35.312-13.693,17.2-.877,30.438,4.023,39.341,14.564a49.773,49.773,0,0,1,9.105,16.989,82.522,82.522,0,0,1,3.6,20.471,63.448,63.448,0,0,1-2.09,21.453,39.985,39.985,0,0,1-9.2,16.417C1961.191,884.246,1947.481,889.016,1929.321,889.016Zm-51.83-52.037.206.024c-1.368,12.046,5.214,22.8,13.812,32.427,10.056,11.263,22.564,19.171,37.812,19.171,18.041,0,31.65-4.727,40.449-14.048a39.582,39.582,0,0,0,9.1-16.249,63.011,63.011,0,0,0,2.074-21.313,82.089,82.089,0,0,0-3.581-20.368,49.357,49.357,0,0,0-9.027-16.849c-8.814-10.437-21.937-15.288-39-14.417-14.6.745-26.393,5.313-35.046,13.579-9.129,8.72-14.71,21.528-16.588,38.067Z" transform="translate(-1876.803 -784.556)" fill="#2b478b"/>
              <path id="Trazado_181641" data-name="Trazado 181641" d="M1927.47,887.474a44.985,44.985,0,0,1-21.348-5.486,63.859,63.859,0,0,1-17.368-14.026,62.465,62.465,0,0,1-10.586-15.477,32.256,32.256,0,0,1-3.019-17.391c1.9-16.707,7.549-29.658,16.8-38.5,8.778-8.385,20.72-13.019,35.5-13.772,17.3-.881,30.612,4.053,39.575,14.665a50.056,50.056,0,0,1,9.159,17.086,82.8,82.8,0,0,1,3.614,20.543,63.731,63.731,0,0,1-2.1,21.551,40.274,40.274,0,0,1-9.263,16.533C1959.492,882.674,1945.712,887.474,1927.47,887.474Zm-51.339-52.268c-1.156,10.177,3.211,20.41,13.741,32.2,11.3,12.658,23.952,19.076,37.6,19.076,17.958,0,31.5-4.7,40.24-13.958a39.291,39.291,0,0,0,9.033-16.133,62.747,62.747,0,0,0,2.063-21.215,81.824,81.824,0,0,0-3.568-20.3,49.074,49.074,0,0,0-8.973-16.752c-8.754-10.365-21.8-15.182-38.77-14.316-14.531.741-26.26,5.283-34.863,13.5C1883.553,805.987,1878,818.735,1876.132,835.206Zm2.832,17.63a62.982,62.982,0,0,0,10.218,14.745,73.266,73.266,0,0,0,6.094,6.087,75.8,75.8,0,0,1-5.831-5.875A67,67,0,0,1,1878.964,852.836Z" transform="translate(-1874.953 -782.727)" fill="#2b478b"/>
            </g>
          </g>
        </g>
        <g id="Grupo_80856" data-name="Grupo 80856" transform="translate(-2290.847 -10286.718)">
          <path id="Trazado_181642" data-name="Trazado 181642" d="M2060.874,1269.32c-.025.045-.051.092-.078.138-.624,1.084-2.054,3.739-3.629,6.645-.745,1.379-1.525,2.814-2.265,4.164-1.275,2.33-2.435,4.406-3.112,5.5-.688,1.115-1.2,1.9-1.4,2.212h0a.522.522,0,0,0-.067.324,16.852,16.852,0,0,1-.044,2.922,22.416,22.416,0,0,1-7.325,14.519l-1.9.28s2.682-9.937,3.472-15.554a10.838,10.838,0,0,0,.145-2.227,23.262,23.262,0,0,1,.612-6.079,136.364,136.364,0,0,1,3.876-14.072c.089-.275,2.754-9.917,2.754-9.917,2.237,1.955,10.4,2.762,10.4,2.762S2063.694,1264.3,2060.874,1269.32Z" transform="translate(-2021.07 -1228.812)" fill="#ffd400"/>
          <path id="Trazado_181643" data-name="Trazado 181643" d="M2011.716,1600.724h7.91a4.342,4.342,0,0,0-.224-2.12c-.4-.878-.96-.906-.072-2.281-.5.517-2.119.732-3.262.578a9.7,9.7,0,0,1-1.371,2.088C2014.18,1599.36,2011.875,1599.227,2011.716,1600.724Z" transform="translate(-1995.709 -1521.111)" fill="#2358a5"/>
          <path id="Trazado_181644" data-name="Trazado 181644" d="M2151.214,1310.617l-.079.138c-.624,1.083-4,7.311-5.57,10.217a42.127,42.127,0,0,0,.556-15.019Z" transform="translate(-2111.411 -1270.109)" fill="#d5b30d"/>
          <path id="Trazado_181645" data-name="Trazado 181645" d="M1962,1045a3.139,3.139,0,0,1,3.5-3.413,4.48,4.48,0,0,0-1.753.94,4.511,4.511,0,0,1,5.08.766c2.647,2.194,1,7.7,1.807,8.742s3.939,1.254,3.556,4.632-9.948,7.609-9.334,10.4c0,0-3.749-5.51-1.069-8.025a4.968,4.968,0,0,0-1.439,2.693s-.354-2.856,1.462-3.769a6.706,6.706,0,0,0,2.786-4.293C1966.461,1053.147,1962,1045,1962,1045Z" transform="translate(-1952.731 -1041.584)" fill="#202d4f"/>
          <path id="Trazado_181646" data-name="Trazado 181646" d="M1908.309,1172.469s-5.426,13.691-6.595,13.184-8.06-2.7-8.06-2.7a15.173,15.173,0,0,0,.357,2.04c1.009.8,6.082,4.712,9.121,4.911,3.374.221,7.944-9.72,7.944-9.72Z" transform="translate(-1893.654 -1154.724)" fill="#ffb27d"/>
          <path id="Trazado_181647" data-name="Trazado 181647" d="M1942.327,1062.865a31.7,31.7,0,0,1,4.75,2.322c2.144,2.377,1.532,5.479.306,5.509-.786.019-.634,1.327-.634,1.327l-8.761-3.706S1939.042,1062.165,1942.327,1062.865Z" transform="translate(-1931.977 -1059.932)" fill="#202d4f"/>
          <path id="Trazado_181648" data-name="Trazado 181648" d="M1984.277,1174.572s-1.167,1.208-1.167,4.825a8.384,8.384,0,0,0,5.778,3.18S1985.3,1174.57,1984.277,1174.572Z" transform="translate(-1970.981 -1156.541)" fill="#1c468a"/>
          <path id="Trazado_181649" data-name="Trazado 181649" d="M2141.574,1251l-.026-1.48c2.947.372,10.163-3.522,10.163-3.522s3.084,2.051,3.506,7.908c.206,2.859,1.509,14.95,1.654,18.56.052,1.308.07,2.242.076,2.615a.017.017,0,0,0,0,0,.516.516,0,0,0,.125.3,16.857,16.857,0,0,1,1.6,2.448c4.5,8.369,2.146,19.74,2.146,19.74l-1.045-.266s-3.8-11.788-6.289-16.887a10.655,10.655,0,0,0-1.125-1.927,23.251,23.251,0,0,1-2.891-5.383C2147.628,1268.734,2141.574,1251,2141.574,1251Z" transform="translate(-2107.938 -1218.287)" fill="#ffd400"/>
          <path id="Trazado_181650" data-name="Trazado 181650" d="M2237.26,1600.36h7.91a4.344,4.344,0,0,0-.223-2.12c-.4-.877-1.016-1.276-.868-2.339a2.848,2.848,0,0,1-2.465.943,8.665,8.665,0,0,1-1.372,1.779C2239.724,1599,2237.419,1598.863,2237.26,1600.36Z" transform="translate(-2190.673 -1520.746)" fill="#2358a5"/>
          <path id="Trazado_181651" data-name="Trazado 181651" d="M1996.862,1153.619c1.063.181-.174,1.026,1.288,1.185a26.4,26.4,0,0,1,5.353.831,1.209,1.209,0,0,1,.77.624,14.674,14.674,0,0,0,2.637,3.729c13.774-.627,15.286-6.388,15.286-6.388-8.94-8.682-17.159-13.8-23.436-14.48a7.652,7.652,0,0,0-3.4,1c-2.2.979-3.643,3.8-3.643,3.8S1992.824,1152.93,1996.862,1153.619Z" transform="translate(-1978.422 -1125.884)" fill="#1c468a"/>
          <path id="Trazado_181652" data-name="Trazado 181652" d="M2039.159,1183.44a26.4,26.4,0,0,1,5.353.831,21.934,21.934,0,0,0-2.782-12.037S2039.615,1180.84,2039.159,1183.44Z" transform="translate(-2019.431 -1154.521)" fill="#163560"/>
          <path id="Trazado_181653" data-name="Trazado 181653" d="M2002.191,1163.617s5.231-.286,6.16,3-1.744,16.392-2.319,17.745c-1.049,2.463-6.155,9.493-6.155,9.493l-1.408-.723s2.935-10.588,3.7-11.65C2003.357,1179.811,2000.625,1165.046,2002.191,1163.617Z" transform="translate(-1984.258 -1147.066)" fill="#ffb27d"/>
          <path id="Trazado_181654" data-name="Trazado 181654" d="M1988.079,1374.088a6.477,6.477,0,0,1-1.29,2.4,4.273,4.273,0,0,0-.761,2.184s-.064.5.155.454.465-1.142.857-1.088a7.571,7.571,0,0,1-.416,1.564c-.207.343-.33,1.407-.035,1.536.713.314,1.767-1.031,2.395-1.874s.01-4.267.01-4.267Z" transform="translate(-1973.497 -1329.007)" fill="#ffb27d"/>
          <path id="Trazado_181655" data-name="Trazado 181655" d="M2022.13,1164.823c-.014.077-4.95.908-8.037-.659,0,0-2.579-8.08,1.107-7.694s5.869,1.548,5.961,3.312A34,34,0,0,0,2022.13,1164.823Z" transform="translate(-1997.005 -1140.882)" fill="#1c468a"/>
          <path id="Trazado_181656" data-name="Trazado 181656" d="M1982.414,1129.049s-1.455,5.426-3.643,3.8a4.49,4.49,0,0,0-.771-1.8c-.575-.988-1.26-2-1.26-2l2.961-2.593.177-.155A7.818,7.818,0,0,0,1982.414,1129.049Z" transform="translate(-1965.476 -1114.817)" fill="#ffb27d"/>
          <path id="Trazado_181657" data-name="Trazado 181657" d="M1976.743,1130.041s.685,1.008,1.26,2c1.84-1.134,1.842-3.413,1.7-4.593Z" transform="translate(-1965.478 -1115.805)" fill="#ed985f"/>
          <path id="Trazado_181658" data-name="Trazado 181658" d="M1945.375,1097.612s4.468-2.486,2.877-5.245-2.086-4.937-5.006-3.467-2.862,2.84-2.555,3.89S1944.172,1098.188,1945.375,1097.612Z" transform="translate(-1934.191 -1082.076)" fill="#ffb27d"/>
          <path id="Trazado_181659" data-name="Trazado 181659" d="M1935.835,1088.8c.2-1.225.827-1.341,1.261-1.26a3.573,3.573,0,0,1,4.346-1.664,6.084,6.084,0,0,0,3.522,2.115s-.519.965-2.655,1.562a3.652,3.652,0,0,1-2.107-.168,11.93,11.93,0,0,0,3.031,1.143c-2.815.258-5.493-2.316-5.771-2.591a4.012,4.012,0,0,0-.222,1.844c.186.83.922,2.332.472,2.527C1937.712,1092.307,1935.528,1090.637,1935.835,1088.8Z" transform="translate(-1930.09 -1079.694)" fill="#202d4f"/>
        </g>
        <path id="Trazado_181660" data-name="Trazado 181660" d="M1884.876,1245.407a1.477,1.477,0,0,1-1.61-.474c-.415-.423-1.158-.652-.774-.879s1.408.239,1.648.321S1884.876,1245.407,1884.876,1245.407Z" transform="translate(-4174.76 -11510.174)" fill="#ffb27d"/>
        <g id="Grupo_80858" data-name="Grupo 80858" transform="translate(-2260.46 -10389.883)">
          <path id="Trazado_181661" data-name="Trazado 181661" d="M2118.409,478.944c3.076-11.955,8.276-22.352,22.352-22.352a23.159,23.159,0,0,1,22.727,24.275c-.748,12.322-11.448,22.759-24.547,21.292C2126.674,500.786,2114.887,492.633,2118.409,478.944Z" transform="translate(-2117.777 -456.593)" fill="#214be5" opacity="0.25"/>
          <g id="Grupo_80857" data-name="Grupo 80857" transform="translate(19.664 6.344)" opacity="0.8">
            <path id="Trazado_181662" data-name="Trazado 181662" d="M2230.928,524.316a3.259,3.259,0,0,1,.221-1.21,2.938,2.938,0,0,1,.629-.978,2.791,2.791,0,0,1,1-.652,4.1,4.1,0,0,1,2.723,0,2.794,2.794,0,0,1,1,.652,2.934,2.934,0,0,1,.629.978,3.259,3.259,0,0,1,.221,1.21,2.949,2.949,0,0,1-.838,2.142,3.7,3.7,0,0,1-4.75,0A2.952,2.952,0,0,1,2230.928,524.316Zm5.564-7.31h-4.866l-.535-23.908h5.96Z" transform="translate(-2230.928 -493.099)" fill="#fff"/>
          </g>
        </g>
        <g id="Grupo_80868" data-name="Grupo 80868" transform="translate(-2386.603 -10428.135)">
          <path id="Trazado_181663" data-name="Trazado 181663" d="M1271.843,491.435c7.293-28.346,19.623-53,53-53,29.27,0,55.817,25.784,53.888,57.559-1.774,29.216-27.145,53.963-58.2,50.485C1291.439,543.224,1263.492,523.892,1271.843,491.435Z" transform="translate(-1270.344 -438.438)" fill="#214be5" opacity="0.25"/>
          <g id="Grupo_80864" data-name="Grupo 80864" transform="translate(32.178 27.464)">
            <path id="Trazado_181664" data-name="Trazado 181664" d="M1490.5,610.365a22.32,22.32,0,0,1-5.082,14.347,18.753,18.753,0,0,0-4.312,11.891v6.264a7.253,7.253,0,0,1-7.23,7.229H1462.31a7.25,7.25,0,0,1-7.229-7.229v-6.254a18.681,18.681,0,0,0-4.29-11.874,22.413,22.413,0,0,1,12.42-36.112q.427-.1.861-.173c.154-.028.308-.054.463-.079a22.419,22.419,0,0,1,25.967,21.99Z" transform="translate(-1445.687 -588.092)" fill="#ffe66d"/>
            <path id="Trazado_181665" data-name="Trazado 181665" d="M1543.362,925.965l-.025.193-.318,2.437-.084.642v.005l-.085.646-.317,2.436-.084.642v.006l-.083.647-.047.357c-.161,1.236-1.574,2.18-3.263,2.18h-3.807A4.341,4.341,0,0,1,1534.1,936h0a3.7,3.7,0,0,1-.887-.369l-.02-.012a2.924,2.924,0,0,1-.577-.439,2.082,2.082,0,0,1-.631-1.186l-.135-.944-.087-.6h0v-.013h0l-.084-.582-.323-2.258-.085-.593,0-.013-.084-.585-.35-2.447Z" transform="translate(-1515.211 -863.96)" fill="#ed7d2b"/>
            <g id="Grupo_80859" data-name="Grupo 80859" transform="translate(15.977 62.005)">
              <path id="Trazado_181666" data-name="Trazado 181666" d="M1543.41,925.965h-2.152c-3.472,1-6.916,2-8.512,2.447l.084.585,0,.013.085.593c1.292-.358,4.4-1.246,11.979-3.445l.025-.193Z" transform="translate(-1532.746 -925.965)" fill="#f99746"/>
              <path id="Trazado_181667" data-name="Trazado 181667" d="M1535.522,944.141h0v.013h0l.086.595c1.494-.42,4.577-1.3,11-3.166l.085-.646v-.005l.084-.642c-4.057,1.175-8.969,2.593-11.338,3.267Z" transform="translate(-1534.944 -937.663)" fill="#f99746"/>
              <path id="Trazado_181668" data-name="Trazado 181668" d="M1541.117,963.911l.021.012a3.708,3.708,0,0,0,.886.369h0c1.761-.5,4.375-1.26,8.263-2.385l.083-.647v-.005l.084-.642c-3.472,1.005-7.456,2.156-9.916,2.86A2.949,2.949,0,0,0,1541.117,963.911Z" transform="translate(-1539.11 -954.254)" fill="#f99746"/>
            </g>
            <g id="Grupo_80863" data-name="Grupo 80863" transform="translate(13.034 32.774)">
              <g id="Grupo_80860" data-name="Grupo 80860" transform="translate(0 0.477)">
                <rect id="Rect치ngulo_23307" data-name="Rect치ngulo 23307" width="1.014" height="29.077" transform="translate(0 0.169) rotate(-9.615)" fill="#ed7d2b"/>
              </g>
              <g id="Grupo_80861" data-name="Grupo 80861" transform="translate(12.443 0.923)">
                <rect id="Rect치ngulo_23308" data-name="Rect치ngulo 23308" width="28.685" height="1.013" transform="matrix(0.18, -0.984, 0.984, 0.18, 0, 28.217)" fill="#ed7d2b"/>
              </g>
              <g id="Grupo_80862" data-name="Grupo 80862" transform="translate(0.492)">
                <path id="Trazado_181669" data-name="Trazado 181669" d="M1530.948,772.448a1.978,1.978,0,0,1-.438-.053.629.629,0,0,1-.5-.543,4.706,4.706,0,0,1,1.079-2.78,2.731,2.731,0,0,0-1.359-1.316c-.753-.228-1.907.466-2.711,1.354a6.014,6.014,0,0,1,.4.644c.412.778.708,1.773.3,2.232-.15.17-.456.325-1.065.1a1.263,1.263,0,0,1-.748-1.765,4.049,4.049,0,0,1,.72-1.23,2.747,2.747,0,0,0-2.275-1.326,2.513,2.513,0,0,0-1.126.425,3.4,3.4,0,0,1,.281,2.879.914.914,0,0,1-1.22.4c-.387-.138-.589-.67-.515-1.356a3.134,3.134,0,0,1,1.052-2.006,2.6,2.6,0,0,0-.583-.654,1.931,1.931,0,0,0-2.63.131l-.22-.214a2.27,2.27,0,0,1,3.038-.16,2.891,2.891,0,0,1,.639.709,2.82,2.82,0,0,1,1.245-.464,3.012,3.012,0,0,1,2.517,1.4c.875-.951,2.121-1.653,2.991-1.391a2.929,2.929,0,0,1,1.464,1.349,5.265,5.265,0,0,1,1.179-1.16c.64-.424,1.057-.326,1.294-.171a2.317,2.317,0,0,1,.622.622,3.411,3.411,0,0,1,.6-.383,1.68,1.68,0,0,1,1.917.076l-.2.234a1.44,1.44,0,0,0-1.583-.036,3.193,3.193,0,0,0-.57.369,3.243,3.243,0,0,1,.306,2.612.649.649,0,0,1-.868.341,1.153,1.153,0,0,1-.853-1.051,2.763,2.763,0,0,1,1.015-1.959,1.994,1.994,0,0,0-.553-.569c-.289-.19-.68-.013-.956.17a5.171,5.171,0,0,0-1.186,1.192,3.991,3.991,0,0,1,.524,2.554A.992.992,0,0,1,1530.948,772.448Zm.3-3.076a4.223,4.223,0,0,0-.937,2.424.329.329,0,0,0,.263.3c.6.136.97-.039,1.1-.522A3.576,3.576,0,0,0,1531.252,769.372Zm-4.435-.022a3.628,3.628,0,0,0-.619,1.065.956.956,0,0,0,.567,1.379c.245.093.57.166.726-.011.241-.274.1-1.049-.344-1.886A5.891,5.891,0,0,0,1526.817,769.35Zm-3.835-.972a2.823,2.823,0,0,0-.9,1.768c-.057.524.072.949.313,1.034a.621.621,0,0,0,.848-.263A3.07,3.07,0,0,0,1522.982,768.378Zm11.319.2a2.458,2.458,0,0,0-.867,1.674.864.864,0,0,0,.651.78.347.347,0,0,0,.488-.19A2.937,2.937,0,0,0,1534.3,768.573Z" transform="translate(-1519.392 -766.685)" fill="#ed7d2b"/>
              </g>
            </g>
            <path id="Trazado_181670" data-name="Trazado 181670" d="M1598.6,625.007c1.842,1.735,1.611,4.929-.759,5.639a5.218,5.218,0,0,1-5.767-2.46c-1.317-2.28-.709-4.155.906-5.087S1596.68,623.2,1598.6,625.007Z" transform="translate(-1564.62 -616.39)" fill="#fff0e3"/>
          </g>
          <g id="Grupo_80867" data-name="Grupo 80867" transform="translate(12.721 11.752)">
            <rect id="Rect치ngulo_23309" data-name="Rect치ngulo 23309" width="1.64" height="10.255" rx="0.82" transform="translate(40.446 1.242)" fill="#ffd400"/>
            <g id="Grupo_80865" data-name="Grupo 80865" transform="translate(55.241)">
              <rect id="Rect치ngulo_23310" data-name="Rect치ngulo 23310" width="1.64" height="6.404" rx="0.82" transform="matrix(0.5, 0.866, -0.866, 0.5, 17.918, 17.75)" fill="#ffd400"/>
              <path id="Trazado_181671" data-name="Trazado 181671" d="M1726.773,684.714h0a.822.822,0,0,1,.82-.82h10.949a.823.823,0,0,1,.82.82h0a.822.822,0,0,1-.82.82h-10.949A.822.822,0,0,1,1726.773,684.714Z" transform="translate(-1710.974 -650.601)" fill="#ffd400"/>
              <path id="Trazado_181672" data-name="Trazado 181672" d="M1641.177,517.674h0a.823.823,0,0,1-.433-1.076l5.812-13.625a.822.822,0,0,1,1.076-.433h0a.823.823,0,0,1,.433,1.076l-5.812,13.625A.822.822,0,0,1,1641.177,517.674Z" transform="translate(-1640.678 -502.475)" fill="#ffd400"/>
            </g>
            <g id="Grupo_80866" data-name="Grupo 80866">
              <path id="Trazado_181673" data-name="Trazado 181673" d="M1399.287,604.361l.118-.2a.7.7,0,0,0-.258-.959l-4.329-2.5a.7.7,0,0,0-.959.257l-.118.2a.7.7,0,0,0,.257.959l4.329,2.5A.7.7,0,0,0,1399.287,604.361Z" transform="translate(-1383.74 -582.596)" fill="#ffd400"/>
              <path id="Trazado_181674" data-name="Trazado 181674" d="M1352.25,684.714h0a.822.822,0,0,0-.82-.82h-10.948a.822.822,0,0,0-.82.82h0a.822.822,0,0,0,.82.82h10.948A.822.822,0,0,0,1352.25,684.714Z" transform="translate(-1339.661 -650.601)" fill="#ffd400"/>
              <path id="Trazado_181675" data-name="Trazado 181675" d="M1460.7,517.674h0a.823.823,0,0,0,.432-1.076l-5.812-13.625a.822.822,0,0,0-1.076-.433h0a.823.823,0,0,0-.433,1.076l5.812,13.625A.822.822,0,0,0,1460.7,517.674Z" transform="translate(-1432.814 -502.475)" fill="#ffd400"/>
            </g>
          </g>
        </g>
        <g id="Grupo_80869" data-name="Grupo 80869" transform="translate(-2371.426 -10303.467)">
          <path id="Trazado_181676" data-name="Trazado 181676" d="M1411,920.879c.008-.229.186-2.7,3.945-2.826,0,0-1.849.221-2.168,1.033,0,0,1.259-1,2.284-.681s1.627,2.119,1.633,2.71-.563,2.495-1.214,2.657a1.982,1.982,0,0,1-.788,0,8.934,8.934,0,0,1,.5.9c1.5,3.079-.047,6.088-1.317,5.756-.814-.213-1.045,1.177-1.045,1.177l-7.913-6.406S1407.827,919.187,1411,920.879Z" transform="translate(-1390.605 -918.053)" fill="#2c3a64"/>
          <path id="Trazado_181677" data-name="Trazado 181677" d="M1429.428,1275l1.681.626s7.3-10.125,8.2-19.033a13.536,13.536,0,0,0-.24-4.555l.2-1.128c.057-.336.129-.741.209-1.2.238-1.36.564-3.22.938-5.339.859-4.875,1.972-11.108,2.836-15.689l-.453-.145-4.9-1.581-1.012-3.216-3.649-.96s-.815,1.594-1.544,9.126c-.135.988-.257,2.077-.349,3.259a64.5,64.5,0,0,0,.347,13.193q.251,1.964.641,4.05a18.057,18.057,0,0,1,.14,4C1432.1,1263.686,1429.428,1275,1429.428,1275Z" transform="translate(-1411.79 -1181.462)" fill="#1c468a"/>
          <path id="Trazado_181678" data-name="Trazado 181678" d="M1443.536,1224.535l7.923,15.751c.058-.336.129-.741.21-1.2.238-1.36.564-3.221.937-5.339.859-4.875,1.972-11.108,2.836-15.689l-.453-.146-4.9-1.581-1.013-3.216-4.738-2.627s0,.734-.413,8.747C1443.792,1220.218,1443.628,1223.354,1443.536,1224.535Z" transform="translate(-1423.985 -1170.835)" fill="#163560"/>
          <path id="Trazado_181679" data-name="Trazado 181679" d="M1469.244,1208.526l.183-1.573c3.073.816,11.639-3,11.639-3s2.621,3.337,2.23,9.609c-.191,3.061-.539,16.071-.9,19.92-.132,1.4-.247,2.388-.294,2.785a.009.009,0,0,0,0,0,.553.553,0,0,0,.089.341,18.084,18.084,0,0,1,1.343,2.825c3.572,9.519-.55,21.242-.55,21.242l-1.07-.431s-2.346-13.046-4.252-18.809a11.416,11.416,0,0,0-.918-2.2,24.9,24.9,0,0,1-2.3-6.123,150.59,150.59,0,0,1-3.088-16.242A48.366,48.366,0,0,0,1469.244,1208.526Z" transform="translate(-1446.208 -1165.189)" fill="#1c468a"/>
          <path id="Trazado_181680" data-name="Trazado 181680" d="M1306.9,1087.935l-.239,1.808s1.089-.145,1.267-.158c.56-.038,2.216-.146,3.755-.311,2.315-.229,3.992-.282,5.086-.956,1.666-1.017,4.4-4.134,6.181-7.25a2.065,2.065,0,0,0,.127-.229,11.187,11.187,0,0,0,1.628-4.6,6.574,6.574,0,0,0-.216-2.086,5.322,5.322,0,0,0-.941-1.882.934.934,0,0,0-.178-.216,4.393,4.393,0,0,0-1.208-1.03c-.305-.127-1.319,1.1-1.663,1.472l-.287.852c-.28.292-3.352,10.17-4.738,11.709-.6.661-3.383,1.7-5.92,2.4A12.03,12.03,0,0,1,1306.9,1087.935Z" transform="translate(-1305.672 -1050.272)" fill="#f2a16b"/>
          <path id="Trazado_181681" data-name="Trazado 181681" d="M1425.947,1024.058a9.566,9.566,0,0,0,3.539.829c5.283.29,6.482-4.342,6.7-7.415a4.437,4.437,0,0,0-1.813-.229c-.307.017-.624.046-.906.077a.509.509,0,0,1-.373-.1,9.055,9.055,0,0,1-2.288-4.594l-.228.106-3.812,1.792s.4,1.24.7,2.427a12.4,12.4,0,0,1,.286,1.41.836.836,0,0,1-.506.866h0a.011.011,0,0,1,0,0A26.172,26.172,0,0,0,1425.947,1024.058Z" transform="translate(-1408.781 -999.799)" fill="#ffb27d"/>
          <path id="Trazado_181682" data-name="Trazado 181682" d="M1433.492,1069.1c-.043,1.954-13.8,3.686-16.171,2.375,0,0-.615-2.962-1.4-6.291-.235-1-.486-2.035-.739-3.032a39.812,39.812,0,0,0-1.679-5.495c-.049-.106-.092-.208-.132-.314-1.055-2.8.92-5.784-.444-6.669a10.645,10.645,0,0,1,3.069-1.633.013.013,0,0,1,0,0,6.211,6.211,0,0,0,.151,2.714c.765,1.435,3.754.684,5.117-1.086a9.647,9.647,0,0,0,1.7-3.064c.063-.221.156-.548.156-.548a9.9,9.9,0,0,1,3.938.232,10.894,10.894,0,0,0-.765,2.556c-.02.128-.036.256-.049.383a5.042,5.042,0,0,0-.02.8,1.544,1.544,0,0,0,.487.96,7.509,7.509,0,0,0,1.016.842c.263.19.544.388.834.6a68.356,68.356,0,0,0,.207,6.944,4.671,4.671,0,0,0,.675,1.97,4.818,4.818,0,0,0,.5.673C1431.433,1063.7,1433.543,1068.875,1433.492,1069.1Z" transform="translate(-1397.531 -1028.622)" fill="#ff0092"/>
          <path id="Trazado_181683" data-name="Trazado 181683" d="M1432,1015.2s.405,1.239.7,2.427c2.228-.622,2.905-2.964,3.109-4.219Z" transform="translate(-1414.011 -1000.479)" fill="#ed985f"/>
          <path id="Trazado_181684" data-name="Trazado 181684" d="M1406.928,974.49s5.331-1.234,4.511-4.542-.683-5.695-4.121-5.047-3.784,2.073-3.779,3.244S1405.52,974.726,1406.928,974.49Z" transform="translate(-1389.411 -958.458)" fill="#ffb27d"/>
          <path id="Trazado_181685" data-name="Trazado 181685" d="M1399.815,962.423c.573-1.2,1.248-1.135,1.67-.923a3.824,3.824,0,0,1,4.961-.424,6.51,6.51,0,0,0,3,3.218s-.819.839-3.192.82a3.908,3.908,0,0,1-2.117-.8,12.769,12.769,0,0,0,2.78,2.073c-2.971-.568-4.964-4.008-5.168-4.373a4.281,4.281,0,0,0-.774,1.831c-.055.908.257,2.671-.263,2.738C1400.707,966.586,1398.956,964.221,1399.815,962.423Z" transform="translate(-1385.987 -954.614)" fill="#2c3a64"/>
          <path id="Trazado_181686" data-name="Trazado 181686" d="M1404.4,1073.352s-.473.272-1.338,2.916a2.965,2.965,0,0,0,2.2,1.116S1405.419,1073.654,1404.4,1073.352Z" transform="translate(-1388.996 -1052.296)" fill="#dc0681"/>
          <path id="Trazado_181687" data-name="Trazado 181687" d="M1524.691,1598.367h8.465a4.644,4.644,0,0,0-.239-2.269c-.424-.939-1.087-1.366-.928-2.5a3.049,3.049,0,0,1-2.638,1.01,9.289,9.289,0,0,1-1.469,1.9C1527.328,1596.906,1524.861,1596.764,1524.691,1598.367Z" transform="translate(-1494.137 -1502.004)" fill="#2358a5"/>
          <path id="Trazado_181688" data-name="Trazado 181688" d="M1390.633,1600.788h8.465a3.519,3.519,0,0,0-.24-2.269,1.632,1.632,0,0,1,.061-1.949,3.289,3.289,0,0,1-1.426.269,2.99,2.99,0,0,1-1.259-.443,30.466,30.466,0,0,1-2.412,2.533C1393.27,1599.327,1390.8,1599.185,1390.633,1600.788Z" transform="translate(-1378.255 -1504.425)" fill="#2358a5"/>
          <path id="Trazado_181689" data-name="Trazado 181689" d="M1304.068,1135.888a5.2,5.2,0,0,0-1.207-1.21c-.464-.21-.9-1.5-1.16-1.106-.157.24.239,1.135.138,1.337s-1.125-.225-1.3-.512c-.12-.192-1.176-1.466-1.2-.879a7.039,7.039,0,0,0,1.352,3.127,12.059,12.059,0,0,0,2.174.674Z" transform="translate(-1299.335 -1104.172)" fill="#ffb27d"/>
          <path id="Trazado_181690" data-name="Trazado 181690" d="M1439.707,1111.491c-1.914,4.682-9.281,10.483-9.281,10.483l-.128-.144c-.235-1-.486-2.035-.739-3.032l7.848-7.307Z" transform="translate(-1411.903 -1085.265)" fill="#dc0681"/>
          <path id="Trazado_181691" data-name="Trazado 181691" d="M1325.583,1064.328l-.24,1.336s4.211.963,5.139,1.166l.011.005c1.6.318,3.413.647,4.989.812a13.348,13.348,0,0,0,2.841.034,1.544,1.544,0,0,0,.215-.041c1.8-.36,4.74-2.509,7.413-5.03.37-.348.729-.7,1.082-1.042a34.8,34.8,0,0,0,3.339-3.784,13.654,13.654,0,0,0,1.275-1.948,5.681,5.681,0,0,0,.283-.584c1.519-3.361.068-4.589.068-4.589-.029-.028-.059-.055-.1-.088-.268-.179-.658-.121-1.146.116a11.542,11.542,0,0,0-2.241,1.614c-1.345,1.187-9.411,11.006-11.292,11.38C1335.584,1064.011,1325.583,1064.328,1325.583,1064.328Z" transform="translate(-1321.817 -1032.517)" fill="#ffb27d"/>
          <path id="Trazado_181692" data-name="Trazado 181692" d="M1478.331,1047.877a2.561,2.561,0,0,1,1.787,2.183c.144,1.722-.08,7.051-.08,7.051s-5.373-1.541-7.561-4.827C1472.477,1052.285,1476.423,1047.92,1478.331,1047.877Z" transform="translate(-1449.002 -1030.275)" fill="#dc0681"/>
        </g>
      </g>
    </g>
  </g>
</svg>
