<svg xmlns="http://www.w3.org/2000/svg" width="366.219" height="260.976" viewBox="0 0 366.219 260.976">
  <g id="Grupo_141260" data-name="Grupo 141260" transform="translate(-1018 -1305)">
    <g id="Grupo_136871" data-name="Grupo 136871" transform="translate(1020 1279.185)">
      <g id="Grupo_80953" data-name="Grupo 80953" transform="translate(0 0)">
        <g id="Grupo_80894" data-name="Grupo 80894" transform="translate(0 0)">
          <g id="Grupo_80872" data-name="Grupo 80872" transform="translate(64.702 163.943)">
            <g id="Grupo_80871" data-name="Grupo 80871">
              <path id="Trazado_181694" data-name="Trazado 181694" d="M1122.095,2682.464q-2.352,0-4.831-.168H972.225a28.323,28.323,0,0,1-17.849-5.866c-21.572-16.792-20.81-66.314-20.253-102.474.079-5.135.154-9.984.154-14.34h4.2c0,4.375-.075,9.234-.154,14.378-.265,17.25-.6,38.721,1.754,57.537,2.715,21.743,8.37,35.688,17.288,42.63a23.285,23.285,0,0,0,14.865,4.906h145.226l.094.007c11.354.784,20.044-1.183,26.566-6.011,17.983-13.314,15.8-46.054,13.881-74.94-.176-2.646-.358-5.383-.517-8.011l4.192-.15c.159,2.62.333,5.23.517,8,1.968,29.575,4.2,63.1-15.163,77.432C1140.668,2680.091,1132.3,2682.463,1122.095,2682.464Z" transform="translate(-933.931 -2559.616)" fill="#0643a3"/>
            </g>
          </g>
          <g id="Grupo_80886" data-name="Grupo 80886" transform="translate(220.162 80.607)">
            <g id="Grupo_80882" data-name="Grupo 80882">
              <g id="Grupo_80873" data-name="Grupo 80873" transform="translate(70.494)">
                <path id="Trazado_181695" data-name="Trazado 181695" d="M2081.186,2161.146a1.442,1.442,0,0,1-1.426-1.649c.308-2.094.12-12.94.03-18.153-.02-1.218-.038-2.218-.045-2.872a1.439,1.439,0,1,1,2.878-.034c.008.65.026,1.644.046,2.855.137,7.884.256,16.476-.06,18.623A1.441,1.441,0,0,1,2081.186,2161.146Z" transform="translate(-2079.744 -2137.017)" fill="#ffd400"/>
              </g>
              <g id="Grupo_80874" data-name="Grupo 80874" transform="translate(20.679 20.679)">
                <path id="Trazado_181696" data-name="Trazado 181696" d="M1843.6,2259.783a1.438,1.438,0,0,1-1.159-.585c-1.29-1.748-9.57-9.734-13.106-13.144-.74-.713-1.348-1.3-1.761-1.7a1.439,1.439,0,0,1,2.008-2.063c.411.4,1.016.984,1.752,1.694,6.228,6,12.165,11.8,13.425,13.5a1.439,1.439,0,0,1-1.157,2.295Z" transform="translate(-1827.134 -2241.882)" fill="#ffd400"/>
              </g>
              <g id="Grupo_80875" data-name="Grupo 80875" transform="translate(105.477 20.679)">
                <path id="Trazado_181697" data-name="Trazado 181697" d="M2258.582,2259.783a1.44,1.44,0,0,1-1.153-2.3c1.33-1.786,7.616-7.89,13.406-13.473.749-.723,1.365-1.316,1.78-1.722a1.44,1.44,0,0,1,2.008,2.063c-.419.407-1.037,1-1.79,1.73-3.829,3.692-11.8,11.374-13.1,13.12A1.438,1.438,0,0,1,2258.582,2259.783Z" transform="translate(-2257.143 -2241.882)" fill="#ffd400"/>
              </g>
              <g id="Grupo_80876" data-name="Grupo 80876" transform="translate(0 70.499)">
                <path id="Trazado_181698" data-name="Trazado 181698" d="M1744.96,2497.581a1.392,1.392,0,0,1-.212-.016c-2.094-.309-12.94-.121-18.152-.031-1.218.021-2.217.039-2.871.046h-.018a1.439,1.439,0,0,1-.016-2.879c.65-.007,1.644-.024,2.856-.045,7.883-.136,16.474-.256,18.622.061a1.44,1.44,0,0,1-.208,2.864Z" transform="translate(-1722.268 -2494.516)" fill="#ffd400"/>
              </g>
              <g id="Grupo_80877" data-name="Grupo 80877" transform="translate(119.928 70.499)">
                <path id="Trazado_181699" data-name="Trazado 181699" d="M2353.115,2497.581a1.392,1.392,0,0,1-.211-.016c-2.094-.309-12.941-.121-18.153-.031-1.217.021-2.218.039-2.871.046h-.017a1.439,1.439,0,0,1-.018-2.879c.65-.007,1.645-.024,2.855-.045,7.884-.136,16.475-.256,18.623.061a1.44,1.44,0,0,1-.209,2.864Z" transform="translate(-2330.424 -2494.516)" fill="#ffd400"/>
              </g>
              <g id="Grupo_80878" data-name="Grupo 80878" transform="translate(89.488 5.393)">
                <path id="Trazado_181700" data-name="Trazado 181700" d="M2177.5,2186.853a1.438,1.438,0,0,1-1.232-2.18c1.1-1.822,5.118-11.982,7.052-16.864.427-1.076.775-1.958,1.009-2.541a1.44,1.44,0,0,1,2.672,1.073c-.232.579-.581,1.457-1,2.527-2.925,7.384-6.138,15.419-7.262,17.287A1.436,1.436,0,0,1,2177.5,2186.853Z" transform="translate(-2176.062 -2164.365)" fill="#ffd400"/>
              </g>
              <g id="Grupo_80879" data-name="Grupo 80879" transform="translate(43.718 5.319)">
                <path id="Trazado_181701" data-name="Trazado 181701" d="M1953.49,2186.524a1.44,1.44,0,0,1-1.4-1.09c-.522-2.087-4.875-12.161-6.967-17-.445-1.029-.809-1.874-1.05-2.438a1.44,1.44,0,0,1,2.648-1.13c.239.562.6,1.4,1.045,2.425,3.164,7.319,6.583,15.308,7.118,17.445a1.441,1.441,0,0,1-1.4,1.788Z" transform="translate(-1943.962 -2163.992)" fill="#ffd400"/>
              </g>
              <g id="Grupo_80880" data-name="Grupo 80880" transform="translate(116.22 43.703)">
                <path id="Trazado_181702" data-name="Trazado 181702" d="M2313.062,2369.6a1.439,1.439,0,0,1-.734-2.678c1.8-1.067,9.207-4,16.635-6.924,1.375-.541,2.5-.984,3.2-1.263a1.439,1.439,0,1,1,1.071,2.672c-.7.281-1.835.727-3.219,1.271-5.056,1.987-14.467,5.683-16.223,6.721A1.421,1.421,0,0,1,2313.062,2369.6Z" transform="translate(-2311.62 -2358.636)" fill="#ffd400"/>
              </g>
              <g id="Grupo_80881" data-name="Grupo 80881" transform="translate(5.393 43.527)">
                <path id="Trazado_181703" data-name="Trazado 181703" d="M1770.679,2368.8a1.424,1.424,0,0,1-.742-.208c-1.878-1.133-12.634-5.389-17.228-7.206-.915-.362-1.669-.66-2.187-.867a1.439,1.439,0,1,1,1.069-2.672c.516.206,1.266.5,2.177.863,8.088,3.2,15.826,6.313,17.657,7.419a1.44,1.44,0,0,1-.745,2.672Z" transform="translate(-1749.616 -2357.743)" fill="#ffd400"/>
              </g>
            </g>
            <path id="Trazado_181704" data-name="Trazado 181704" d="M2051.91,2610.479h0a8.212,8.212,0,0,1,8.125,8.253l-.265,33.225a8.206,8.206,0,0,1-8.261,8.125h0a8.211,8.211,0,0,1-8.125-8.253l.264-33.225a8.214,8.214,0,0,1,8.262-8.125Z" transform="translate(-1980.061 -2517.112)" fill="#2c7efe" fill-rule="evenodd"/>
            <path id="Trazado_181705" data-name="Trazado 181705" d="M1921.935,2288.279a40.756,40.756,0,0,1,19.547,76.337l-.068,9.173-40.311-.324.077-9.173a40.753,40.753,0,0,1,20.756-76.014Z" transform="translate(-1849.583 -2258.449)" fill="#ffbc00" fill-rule="evenodd"/>
            <path id="Trazado_181706" data-name="Trazado 181706" d="M1966.435,2381.466l-28.847-.229.068-8.986c-11.157-6.967-18.609-20-18.49-34.869.162-20.552,14.734-37.365,33.31-39.425,18.737,2.172,33.242,19.3,33.071,40-.119,14.871-7.776,27.782-19.035,34.571Z" transform="translate(-1880.337 -2266.22)" fill="#ffd400" fill-rule="evenodd"/>
            <g id="Grupo_80883" data-name="Grupo 80883" transform="translate(53.375 66.139)">
              <path id="Trazado_181707" data-name="Trazado 181707" d="M2005.944,2522.455l-.745-.006c.06-7.507.064-15.295.069-22.827,0-4.518,0-9.126.02-13.712-.642-.057-1.276-.106-1.892-.154-5.3-.41-9.869-.764-10.4-5.722a6.383,6.383,0,0,1,1.561-5.325,7.888,7.888,0,0,1,9.009-1.506,4.636,4.636,0,0,1,2.51,3.536l0,.027v.027c-.022,2.779-.036,5.6-.046,8.427,3.521.075,7.482.16,11.378.236-.006-.157-.014-.331-.023-.518-.11-2.338-.315-6.688,2.1-9.326a7,7,0,0,1,5.082-2.124h.023l.024,0a5.8,5.8,0,0,1,4.549,2.354,7.16,7.16,0,0,1,.747,5.755c-.433,1.959-2,3.3-4.671,3.974a30.124,30.124,0,0,1-6.787.625l-.291,0-.692,35.932-.745-.015.691-35.919c-3.9-.075-7.859-.16-11.382-.236-.015,4.567-.017,9.157-.02,13.656C2006.008,2507.156,2006,2514.946,2005.944,2522.455Zm18.63-48.22a6.278,6.278,0,0,0-4.54,1.882c-2.2,2.41-2.006,6.558-1.9,8.788.01.2.019.386.024.554l.284,0c3.941-.054,9.9-.137,10.744-4.024l0-.023a6.39,6.39,0,0,0-.64-5.14A5.081,5.081,0,0,0,2024.574,2474.235Zm-24.382-1.083a7.735,7.735,0,0,0-1.016.068c-3.082.41-5.959,2.651-5.44,6.728a4.38,4.38,0,0,0,3,3.987,24.454,24.454,0,0,0,6.718,1.08c.6.047,1.213.094,1.837.149.01-2.8.025-5.592.047-8.346C2004.972,2474.32,2002.621,2473.152,2000.192,2473.152Z" transform="translate(-1992.93 -2472.407)" fill="#fff"/>
            </g>
            <path id="Trazado_181708" data-name="Trazado 181708" d="M2023.35,2711.046a2.9,2.9,0,0,1,.009.392l-.128,16.046a5.712,5.712,0,0,1-5.748,5.664l-28.9-.23a5.736,5.736,0,0,1-5.664-5.749l.128-16.055c.008-.128.008-.266.017-.392Z" transform="translate(-1931.519 -2597.588)" fill="#84b2fe" fill-rule="evenodd"/>
            <g id="Grupo_80884" data-name="Grupo 80884" transform="translate(80.866 39.289)">
              <path id="Trazado_181709" data-name="Trazado 181709" d="M2149.147,2358.563h-.035a1.555,1.555,0,0,1-1.52-1.587c.148-6.706-4.693-16.839-13.833-17.624a1.554,1.554,0,1,1,.265-3.1,15.862,15.862,0,0,1,7.576,2.663,18.952,18.952,0,0,1,5.218,5.369,23.624,23.624,0,0,1,3.881,12.757A1.553,1.553,0,0,1,2149.147,2358.563Z" transform="translate(-2132.338 -2336.25)" fill="#fff"/>
            </g>
            <g id="Grupo_80885" data-name="Grupo 80885" transform="translate(46.985 110.401)">
              <path id="Trazado_181710" data-name="Trazado 181710" d="M2005.984,2703.976h-41.9a3.558,3.558,0,0,1-3.558-3.558h0a3.558,3.558,0,0,1,3.558-3.559h41.9a3.559,3.559,0,0,1,3.559,3.559h0A3.559,3.559,0,0,1,2005.984,2703.976Z" transform="translate(-1960.528 -2696.859)" fill="#2c7efe"/>
              <rect id="Rectángulo_23312" data-name="Rectángulo 23312" width="49.016" height="7.118" rx="3.559" transform="translate(0 9.88)" fill="#2c7efe"/>
            </g>
          </g>
          <g id="Grupo_80893" data-name="Grupo 80893" transform="translate(-2 35)">
            <path id="Trazado_181711" data-name="Trazado 181711" d="M940.3,2546.331" transform="translate(-874.346 -2385.008)" fill="none"/>
            <rect id="Rectángulo_23313" data-name="Rectángulo 23313" width="112.183" height="163.274" transform="translate(5.011 2.403)" fill="#fff"/>
            <path id="Trazado_181712" data-name="Trazado 181712" d="M606.609,1728.26H727.232a.8.8,0,0,1,.8.8v9.364a.8.8,0,0,1-.8.781H606.609a.78.78,0,0,1-.781-.781v-9.364a.785.785,0,0,1,.781-.8Z" transform="translate(-605.829 -1728.26)" fill="#214be5" fill-rule="evenodd"/>
            <g id="Grupo_80887" data-name="Grupo 80887" transform="translate(27.743 100.026)">
              <rect id="Rectángulo_23314" data-name="Rectángulo 23314" width="6.879" height="17.455" rx="3.44" transform="translate(0 25.012)" fill="#ff0092"/>
              <path id="Trazado_181713" data-name="Trazado 181713" d="M827.741,2350.356h0a3.44,3.44,0,0,0,3.44-3.439v-17.805a3.44,3.44,0,0,0-3.44-3.439h0a3.44,3.44,0,0,0-3.44,3.439v17.805A3.44,3.44,0,0,0,827.741,2350.356Z" transform="translate(-808.961 -2307.889)" fill="#ff0092" fill-rule="evenodd"/>
              <path id="Trazado_181714" data-name="Trazado 181714" d="M902.4,2369.667h0a3.439,3.439,0,0,0,3.44-3.439v-13.06a3.439,3.439,0,0,0-3.44-3.44h0a3.439,3.439,0,0,0-3.44,3.44v13.06A3.439,3.439,0,0,0,902.4,2369.667Z" transform="translate(-868.901 -2327.201)" fill="#ff0092" fill-rule="evenodd"/>
              <rect id="Rectángulo_23315" data-name="Rectángulo 23315" width="6.879" height="36.224" rx="3.44" transform="translate(44.274 6.243)" fill="#ff0092"/>
              <rect id="Rectángulo_23316" data-name="Rectángulo 23316" width="6.879" height="42.466" rx="3.44" transform="translate(58.997)" fill="#ff0092"/>
            </g>
            <g id="Grupo_80888" data-name="Grupo 80888" transform="translate(19.311 94.304)">
              <path id="Trazado_181715" data-name="Trazado 181715" d="M703.922,2206.648h1.088v47.846h83.454v1.089H703.922Z" transform="translate(-703.889 -2206.615)" fill="#2c7efe" fill-rule="evenodd"/>
              <path id="Trazado_181716" data-name="Trazado 181716" d="M788.363,2255.479h-84.61v-49h1.155v47.847h83.455Zm-84.543-.066H788.3v-1.022H704.841v-47.846H703.82Z" transform="translate(-703.753 -2206.478)" fill="#2c7efe"/>
            </g>
            <path id="Trazado_181717" data-name="Trazado 181717" d="M606.609,2537.48H727.232a.8.8,0,0,1,.8.8v9.364a.8.8,0,0,1-.8.78H606.609a.779.779,0,0,1-.781-.78v-9.364a.784.784,0,0,1,.781-.8Z" transform="translate(-605.829 -2377.903)" fill="#214be5" fill-rule="evenodd"/>
            <g id="Grupo_80891" data-name="Grupo 80891" transform="translate(36.49 29.842)">
              <g id="Grupo_80889" data-name="Grupo 80889">
                <path id="Trazado_181718" data-name="Trazado 181718" d="M807.068,1912.787l-16.2-.021,0-1.345,14.851.02v-30.5H790.87v-1.345h16.2Z" transform="translate(-790.87 -1879.591)" fill="#2c7efe"/>
              </g>
              <g id="Grupo_80890" data-name="Grupo 80890" transform="translate(15.525 15.925)">
                <rect id="Rectángulo_23317" data-name="Rectángulo 23317" width="19.467" height="1.345" fill="#2c7efe"/>
              </g>
            </g>
            <path id="Trazado_181719" data-name="Trazado 181719" d="M676.507,2021.963a7.886,7.886,0,1,0-7.886-7.885,7.9,7.9,0,0,0,7.886,7.885Z" transform="translate(-656.238 -1951.384)" fill="#2c7efe" fill-rule="evenodd"/>
            <path id="Trazado_181720" data-name="Trazado 181720" d="M676.507,1857.12a7.885,7.885,0,1,0-7.886-7.885,7.9,7.9,0,0,0,7.886,7.885Z" transform="translate(-656.238 -1819.047)" fill="#ff0092" fill-rule="evenodd"/>
            <g id="Grupo_80892" data-name="Grupo 80892" transform="translate(75.302 30.043)">
              <path id="Trazado_181721" data-name="Trazado 181721" d="M1004.936,1880.608a17.249,17.249,0,1,1-17.25,17.249,17.247,17.247,0,0,1,17.25-17.249Zm0,6.53a10.72,10.72,0,1,1-10.719,10.719,10.714,10.714,0,0,1,10.719-10.719Z" transform="translate(-987.686 -1880.608)" fill="#214be5" fill-rule="evenodd"/>
              <path id="Trazado_181722" data-name="Trazado 181722" d="M1015.162,1901.06l6.242,1.951a17.253,17.253,0,1,1-16.469-22.4v6.53a11.013,11.013,0,0,0-7.545,3.109,10.378,10.378,0,0,0-3.175,7.61,10.717,10.717,0,0,0,20.946,3.2Z" transform="translate(-987.686 -1880.608)" fill="#ff0092" fill-rule="evenodd"/>
              <path id="Trazado_181723" data-name="Trazado 181723" d="M994.812,1901.348l-6.181,2.135a17.578,17.578,0,0,1-.945-5.626,17.247,17.247,0,0,1,17.25-17.249v6.53a10.727,10.727,0,0,0-10.719,10.719,10.38,10.38,0,0,0,.6,3.491Z" transform="translate(-987.686 -1880.608)" fill="#00bab5" fill-rule="evenodd"/>
              <path id="Trazado_181724" data-name="Trazado 181724" d="M997.114,1895.023l-6.3-1.7a17.247,17.247,0,0,1,16.633-12.711v6.53a10.718,10.718,0,0,0-10.329,7.886Z" transform="translate(-990.194 -1880.608)" fill="#ffd400" fill-rule="evenodd"/>
            </g>
          </g>
        </g>
        <g id="Grupo_80900" data-name="Grupo 80900" transform="translate(50.251 25.815)">
          <g id="Grupo_80896" data-name="Grupo 80896" transform="translate(77.092 89.673)">
            <rect id="Rectángulo_23318" data-name="Rectángulo 23318" width="4.735" height="86.34" transform="translate(82.353 76.342)" fill="#0643a3"/>
            <rect id="Rectángulo_23319" data-name="Rectángulo 23319" width="4.735" height="86.34" transform="translate(30.482 76.342)" fill="#0643a3"/>
            <rect id="Rectángulo_23320" data-name="Rectángulo 23320" width="4.735" height="86.34" transform="translate(0 75.557)" fill="#0643a3"/>
            <path id="Trazado_181740" data-name="Trazado 181740" d="M1612.568,2611.1h-47.849a4.135,4.135,0,0,0-3.891,3.644q-2.731,22.374-5.362,44.11-2.6,21.421-5.129,42.274c8.713.044,17.455.09,26.168.119l26.241.133q3.061-20.907,6.237-42.406,3.191-21.774,6.5-44.215a3,3,0,0,0-2.914-3.66Z" transform="translate(-1512.237 -2611.1)" fill="#0643a3" fill-rule="evenodd"/>
            <path id="Trazado_181741" data-name="Trazado 181741" d="M1598.2,2611.1h-47.85a4.146,4.146,0,0,0-3.89,3.644q-2.711,22.374-5.348,44.11-2.6,21.421-5.144,42.274,13.094.067,26.184.119l26.227.133q3.06-20.907,6.236-42.406,3.214-21.774,6.513-44.215a3.016,3.016,0,0,0-2.928-3.66Z" transform="translate(-1502.176 -2611.1)" fill="#2c7efe" fill-rule="evenodd"/>
            <path id="Trazado_181742" data-name="Trazado 181742" d="M1517.669,2871.59h-86.112l-1.428,11.865q13.07.068,26.168.118l17.062.089,9.166.015.029-.134,7.11.029,17.063.089,9.165.015Z" transform="translate(-1428.098 -2793.427)" fill="#0643a3" fill-rule="evenodd"/>
          </g>
          <g id="Grupo_80897" data-name="Grupo 80897" transform="translate(32.807 0)">
            <path id="Trazado_181743" data-name="Trazado 181743" d="M1311.213,3080.643l-6.279,6.31c-9.587,2.534-32.39.578-28.777,7.6q18.927,3.221,37.84,6.429c1.5-2.667,1.836-7.806.364-12.072Z" transform="translate(-1275.772 -2850.078)" fill="#2c7efe" fill-rule="evenodd"/>
            <path id="Trazado_181744" data-name="Trazado 181744" d="M1375.083,3036.118l12.778,1.408-5.478,20.219c-1.967.888-6.965,1.377-9.427-1.955Z" transform="translate(-1343.795 -2818.913)" fill="#f96" fill-rule="evenodd"/>
            <path id="Trazado_181745" data-name="Trazado 181745" d="M1413.8,2453.035l-6.411-13-17.426,4.858q-11.388-17.439-22.774-34.867c-.947-3.156-1.34-8.192-2.812-9.435-3.41-1.97-12.021-8.251-11.526-5.437.058.9,5.26,4.4,6.454,7.434-1.21,2.386-6.469,4.756-3.642,7.141l6.746,4.577c8.058,14.382,18.621,43.058,24.173,43.161,3.307.4,18.14-2.946,27.218-4.428Z" transform="translate(-1329.71 -2369.776)" fill="#f96" fill-rule="evenodd"/>
            <path id="Trazado_181746" data-name="Trazado 181746" d="M1540.528,2518.841l-11.176.844c-9.3,1.481-21.768,8.487-25.484,9.242-2.288,5.363-.189,9.894,2.478,14,3.54-.386,10.592-1.349,15.882-2.015L1520,2602.084l35.6-.933-1.865-52.494-.058-5.479c-2.651-21.02,7.562-19.73-3.541-22.514a82.4,82.4,0,0,0-9.6-1.822Z" transform="translate(-1434.741 -2456.853)" fill="#fff" fill-rule="evenodd"/>
            <path id="Trazado_181747" data-name="Trazado 181747" d="M1609.527,2471.995l-11.933,3.29c-.03,4.117-.044,8.22-.058,12.337,2.564,10.666,9.893,1.629,11.409.044Z" transform="translate(-1500.986 -2424.062)" fill="#f96" fill-rule="evenodd"/>
            <path id="Trazado_181748" data-name="Trazado 181748" d="M1554.21,2389.8c-3.57,3.1-.977,8.221-4.94,11.924-8.072,7.554,1.355,4.606,1.326,7.242-.058,6.222,1.253,7.2,5.042,12.62,1.806,2.593,13.055,5.57,19.219-6.264,1.442-2.772,1.325-4.223,1.384-10.117.117-12.546-.452-13.879-12.341-19.3-7.62-3.465-12.865,1.394-9.689,3.9Z" transform="translate(-1464.916 -2362.964)" fill="#ffab81" fill-rule="evenodd"/>
            <path id="Trazado_181749" data-name="Trazado 181749" d="M1578.115,2490.847c-2.827.267-4.881,1.3-8.16-.339,2.957,5.405,6.455,2.028,8.16.339Z" transform="translate(-1481.681 -2437.02)" fill="#fff" fill-rule="evenodd"/>
            <path id="Trazado_181750" data-name="Trazado 181750" d="M1553.332,2352.115c2.9,2.386-1.632,6.548,2.579,9.644,8.349-4.192,4.488-11.7,9.981-24.069l-2.958,1.673c-2.448.4-4.474-15.554-11.059-18.827l.014,7.465c-3.409.224-6.223-14.012-12.9-15.745.234,3.169.452,6.325.685,9.5-3.089,1.643-8.728-5.525-15.081-3.23l4.2,6.828c-.729,4.755-6.892-.622-11.38,6.044,7.14.191,11.817,7.954,18.621,8.813l14.513,3.836c.582,4.37-3.308,7.836-2.434,11.642,1.749-1.184,3.483-2.37,5.217-3.569Z" transform="translate(-1444.906 -2312.256)" fill="#060352" fill-rule="evenodd"/>
            <path id="Trazado_181751" data-name="Trazado 181751" d="M1410.94,3095.847l-5.186,7.274c-9.048,4.087-31.866,5.923-27.175,12.263q19.189.021,38.365.074c1.049-2.873.553-8.013-1.573-11.967Z" transform="translate(-1347.29 -2860.719)" fill="#84b2fe" fill-rule="evenodd"/>
            <path id="Trazado_181752" data-name="Trazado 181752" d="M1467.158,3052.526l12.821-.71-2.171,20.857c-1.792,1.2-6.66,2.516-9.617-.371Z" transform="translate(-1409.73 -2829.9)" fill="#f96" fill-rule="evenodd"/>
            <path id="Trazado_181753" data-name="Trazado 181753" d="M1410.9,2818.9l17.048-22.589c-15.868,1.438-43.434,2.74-47.908,6.221-8.508,6.191-8.61,61.44-10.535,80.266l15.009.475,7.226-64.373Z" transform="translate(-1341.381 -2651.064)" fill="#2c7efe" fill-rule="evenodd"/>
            <path id="Trazado_181754" data-name="Trazado 181754" d="M1525.087,2786.635l-32.114.844c-9.777,2.325-24.682,4.918-27.655,10.014-5,11.613-2.885,63.5-2.462,80.341l14.046.236,5.916-65.944h41.5c6.032-3.273,5.916-16.841.772-25.491Z" transform="translate(-1406.156 -2644.291)" fill="#84b2fe" fill-rule="evenodd"/>
            <path id="Trazado_181755" data-name="Trazado 181755" d="M1638.5,2785.3l-2.973,2.5c-2.1,2.132-7.212,4.635-6.294,6.4.685,1.126,3.41-1.631,5.158-1.007,2.667,2.7-3.949,11.034-1.647,13.05,3.366,3.081,9.253,2.1,10.782-2.046.948-2.162-.685-9.166-.918-15.627Z" transform="translate(-1523.095 -2643.358)" fill="#f96" fill-rule="evenodd"/>
            <path id="Trazado_181756" data-name="Trazado 181756" d="M1650.431,2604.24l13.274.4.408,22.01-8.786,38.126-6.951-.9,4.575-36.379Z" transform="translate(-1536.571 -2516.626)" fill="#f96" fill-rule="evenodd"/>
            <path id="Trazado_181757" data-name="Trazado 181757" d="M1655.058,2533.137c1.486-1.067,2.1-3.836,4.022-3.466,6.761,1.51,8.436,21.374,8.379,25.626-2.3,1.925-10.113,3.63-15.2.858Z" transform="translate(-1539.29 -2464.408)" fill="#fff" fill-rule="evenodd"/>
          </g>
          <g id="Grupo_80898" data-name="Grupo 80898" transform="translate(49.758 77.23)">
            <path id="Trazado_181758" data-name="Trazado 181758" d="M1401.542,2569.635c-9.53.03-19.073.058-28.573.089s-19.014.044-28.5.073a1.105,1.105,0,0,0-1.093,1.349q2.033,11.866,4.036,23.685,2.01,11.774,4.006,23.477a1.594,1.594,0,0,0,1.515,1.3h56.606a1.081,1.081,0,0,0,1.093-1.3q-1.88-11.754-3.773-23.566-1.9-11.843-3.8-23.774a1.608,1.608,0,0,0-1.515-1.333Z" transform="translate(-1340.029 -2569.635)" fill="#00aeef" fill-rule="evenodd"/>
            <path id="Trazado_181759" data-name="Trazado 181759" d="M1390.45,2569.635q-14.316.044-28.573.089t-28.5.073a1.1,1.1,0,0,0-1.093,1.349q2.033,11.866,4.036,23.685,2.01,11.774,3.992,23.477a1.622,1.622,0,0,0,1.53,1.3h56.607a1.087,1.087,0,0,0,1.092-1.3q-1.878-11.754-3.773-23.566-1.9-11.843-3.8-23.774a1.622,1.622,0,0,0-1.515-1.333Z" transform="translate(-1332.264 -2569.635)" fill="#62cbec" fill-rule="evenodd"/>
            <path id="Trazado_181760" data-name="Trazado 181760" d="M1435.308,2642.437c-.145-.043-.291-.058-.437-.088a2.588,2.588,0,0,1-.029,1.006,3.164,3.164,0,0,1-3.934,2.148,4.063,4.063,0,0,1-.6-.177,4.1,4.1,0,0,0,3.38,4.444,4,4,0,0,0,4.968-2.727,4.055,4.055,0,0,0-3.351-4.606Z" transform="translate(-1400.858 -2620.531)" fill="#fff" fill-rule="evenodd"/>
          </g>
          <g id="Grupo_80899" data-name="Grupo 80899" transform="translate(0 126.244)">
            <rect id="Rectángulo_23321" data-name="Rectángulo 23321" width="6.207" height="119.267" transform="translate(195.293 15.316)" fill="#dfcffd"/>
            <rect id="Rectángulo_23322" data-name="Rectángulo 23322" width="6.207" height="119.267" transform="translate(14.215 15.316)" fill="#dfcffd"/>
            <rect id="Rectángulo_23323" data-name="Rectángulo 23323" width="208.883" height="12.576" transform="translate(3.526 6.428)" fill="#be96f8"/>
            <path id="Trazado_181761" data-name="Trazado 181761" d="M1382.374,2732.979H1166.439l3.526,9.583h208.883Z" transform="translate(-1166.439 -2732.979)" fill="#dfcffd" fill-rule="evenodd"/>
          </g>
        </g>
      </g>
    </g>
  </g>
</svg>
